<?xml version="1.0" encoding="UTF-8"?>
<svg id="a" data-name="Layer 1" xmlns="http://www.w3.org/2000/svg" width="5438.83" height="749.28" xmlns:xlink="http://www.w3.org/1999/xlink" viewBox="0 0 5438.83 749.28">
  <defs>
    <linearGradient id="c" x1="365.04" y1="361.93" x2="330.61" y2="421.57" gradientUnits="userSpaceOnUse">
      <stop offset="0" stop-color="#fff" stop-opacity="0"/>
      <stop offset="0" stop-color="#000"/>
      <stop offset="1" stop-color="#5279a3"/>
    </linearGradient>
    <linearGradient id="d" x1="250.15" y1="-2160.22" x2="191.05" y2="-2262.57" gradientTransform="translate(0 -1949.45) scale(1 -1)" gradientUnits="userSpaceOnUse">
      <stop offset="0" stop-color="#000"/>
      <stop offset=".13" stop-color="#020305"/>
      <stop offset=".29" stop-color="#0a0f14"/>
      <stop offset=".47" stop-color="#16212d"/>
      <stop offset=".66" stop-color="#283b4f"/>
      <stop offset=".85" stop-color="#3e5b7b"/>
      <stop offset="1" stop-color="#5279a3"/>
    </linearGradient>
    <linearGradient id="e" x1="14184.63" y1="-2162.11" x2="14230.39" y2="-2241.36" gradientTransform="translate(14804.54 -1949.45) rotate(-180)" gradientUnits="userSpaceOnUse">
      <stop offset=".55" stop-color="#000"/>
      <stop offset="1" stop-color="#5279a3"/>
    </linearGradient>
    <linearGradient id="f" x1="14332.33" y1="-2294.29" x2="14363.81" y2="-2348.81" gradientTransform="translate(14804.54 -1949.45) rotate(-180)" gradientUnits="userSpaceOnUse">
      <stop offset="0" stop-color="#000"/>
      <stop offset="1" stop-color="#5279a3"/>
    </linearGradient>
    <linearGradient id="h" x1="7558.91" y1="-8784.98" x2="7575.81" y2="-8794.74" gradientTransform="translate(9191.41 -7050.14) rotate(90) scale(1 -1)" gradientUnits="userSpaceOnUse">
      <stop offset="0" stop-color="#000"/>
      <stop offset="1" stop-color="#5279a3" stop-opacity=".8"/>
    </linearGradient>
    <linearGradient id="i" x1="7425.37" y1="-8784.98" x2="7442.27" y2="-8794.74" gradientTransform="translate(9191.41 -7050.14) rotate(90) scale(1 -1)" gradientUnits="userSpaceOnUse">
      <stop offset="0" stop-color="#000"/>
      <stop offset=".63" stop-color="#354f6a" stop-opacity=".87"/>
      <stop offset="1" stop-color="#5279a3" stop-opacity=".8"/>
    </linearGradient>
    <linearGradient id="j" x1="7596.12" y1="-8784.98" x2="7613.01" y2="-8794.74" gradientTransform="translate(9191.41 -7050.14) rotate(90) scale(1 -1)" gradientUnits="userSpaceOnUse">
      <stop offset="0" stop-color="#000"/>
      <stop offset="1" stop-color="#5279a3"/>
    </linearGradient>
    <linearGradient id="k" x1="7634.66" y1="-8784.98" x2="7651.56" y2="-8794.74" gradientTransform="translate(9191.41 -7050.14) rotate(90) scale(1 -1)" gradientUnits="userSpaceOnUse">
      <stop offset="0" stop-color="#000"/>
      <stop offset="1" stop-color="#5279a3"/>
    </linearGradient>
  </defs>
  <rect x="177.12" y="555.33" width="3.13" height="0" fill="none"/>
  <path d="M913.07,296.14c-17.92-9.99-37.62-14.99-59.12-14.99s-41.21,5-59.13,14.99c-17.92,9.99-32.14,23.89-42.67,41.7-10.54,17.81-15.8,37.9-15.8,60.27s5.26,42.51,15.8,60.43c10.53,17.92,24.76,31.87,42.67,41.86,17.92,9.99,37.62,14.99,59.13,14.99s41.15-4.99,58.96-14.99c17.8-9.99,31.92-23.94,42.35-41.86,10.42-17.92,15.64-38.06,15.64-60.43s-5.16-42.46-15.47-60.27c-10.32-17.8-24.43-31.71-42.35-41.7ZM897.75,446.32c-10.97,12.17-25.57,18.24-43.81,18.24s-33.18-6.03-44.14-18.08c-10.97-12.05-16.45-28.18-16.45-48.38s5.48-36.59,16.45-48.54c10.96-11.94,25.68-17.92,44.14-17.92s32.85,6.03,43.81,18.08c10.96,12.05,16.45,28.18,16.45,48.38s-5.49,36.05-16.45,48.21ZM1334.43,339.79c-13.68-7.38-29.32-11.08-46.91-11.08s-33.99,3.8-47.89,11.4c-13.9,7.6-24.71,18.46-32.41,32.58-7.71,14.12-11.56,30.62-11.56,49.52s3.91,35.4,11.73,49.52c7.82,14.12,18.68,24.98,32.58,32.58,13.9,7.6,29.75,11.4,47.56,11.4,14.77,0,28.12-2.71,40.07-8.14,11.94-5.43,21.88-12.92,29.81-22.48,7.92-9.55,13.41-20.3,16.45-32.25h-59.29c-5.43,11.73-15.1,17.59-28.99,17.59-9.34,0-17.21-2.98-23.62-8.96-6.41-5.97-10.05-14.6-10.91-25.9h126.07c.65-5.64.98-11.08.98-16.29,0-18.24-3.86-34.21-11.56-47.89-7.71-13.68-18.41-24.21-32.09-31.6ZM1251.36,404.62c1.52-9.99,5.48-17.7,11.89-23.13,6.4-5.43,14.28-8.14,23.62-8.14s17.92,2.83,24.43,8.47c6.52,5.65,9.77,13.25,9.77,22.8h-69.71ZM2725.09,357.06c-5.21-8.47-12.65-15.31-22.31-20.52-9.67-5.21-20.91-7.82-33.72-7.82-14.99,0-28.56,3.8-40.72,11.4-12.17,7.6-21.77,18.46-28.83,32.58-7.06,14.12-10.59,30.51-10.59,49.19s3.53,35.13,10.59,49.35c7.05,14.23,16.66,25.2,28.83,32.9,12.16,7.71,25.74,11.56,40.72,11.56,12.81,0,23.99-2.66,33.55-7.98,9.55-5.32,17.05-12.22,22.48-20.69v25.73c0,14.55-3.42,25.13-10.26,31.76-6.84,6.62-16.02,9.94-27.53,9.94-9.56,0-17.59-2.01-24.11-6.03-6.52-4.02-10.64-9.5-12.38-16.45h-55.05c2.39,21.71,11.94,38.93,28.67,51.63,16.72,12.71,38.55,19.06,65.48,19.06,20.2,0,37.08-4.02,50.66-12.05,13.57-8.04,23.67-18.84,30.3-32.41,6.62-13.58,9.94-28.72,9.94-45.44v-181.45h-55.71v25.74ZM2713.53,455.12c-7.71,8.04-17.1,12.05-28.18,12.05s-20.47-4.07-28.18-12.22c-7.71-8.14-11.56-19.16-11.56-33.06s3.85-24.81,11.56-32.74c7.71-7.93,17.1-11.89,28.18-11.89s20.47,4.02,28.18,12.05c7.71,8.04,11.56,19.01,11.56,32.9s-3.86,24.87-11.56,32.9ZM1510.02,329.37c-11.95,0-22.7,2.34-32.25,7-9.56,4.67-17.16,11.02-22.8,19.06v-24.11h-55.71v181.78h55.71v-98.71c0-12.16,3.15-21.61,9.45-28.34,6.3-6.73,14.77-10.1,25.41-10.1s19.11,3.37,25.41,10.1c6.3,6.73,9.45,16.18,9.45,28.34v98.71h55.38v-106.2c0-24.11-6.35-43.05-19.06-56.85-12.71-13.79-29.7-20.69-50.98-20.69ZM2286.3,329.37c-11.95,0-22.7,2.34-32.25,7-9.56,4.67-17.16,11.02-22.8,19.06v-24.11h-55.71v181.78h55.71v-98.71c0-12.16,3.15-21.61,9.45-28.34,6.3-6.73,14.77-10.1,25.41-10.1s19.11,3.37,25.41,10.1c6.3,6.73,9.45,16.18,9.45,28.34v98.71h55.38v-106.2c0-24.11-6.35-43.05-19.06-56.85-12.71-13.79-29.7-20.69-50.98-20.69ZM2087.59,357.06c-5.21-8.47-12.65-15.31-22.31-20.52-9.67-5.21-20.91-7.82-33.72-7.82-14.99,0-28.56,3.8-40.72,11.4-12.17,7.6-21.77,18.46-28.83,32.58-7.06,14.12-10.59,30.51-10.59,49.19s3.53,35.13,10.59,49.35c7.05,14.23,16.66,25.2,28.83,32.9,12.16,7.71,25.62,11.56,40.39,11.56,12.81,0,24.05-2.61,33.72-7.82,9.66-5.21,17.21-12.05,22.64-20.52v25.74h55.71v-181.78h-55.71v25.74ZM2076.03,455.12c-7.71,8.04-17.1,12.05-28.18,12.05s-20.47-4.07-28.18-12.22c-7.71-8.14-11.56-19.16-11.56-33.06s3.85-24.81,11.56-32.74c7.71-7.93,17.1-11.89,28.18-11.89s20.47,4.02,28.18,12.05c7.71,8.04,11.56,19.01,11.56,32.9s-3.86,24.87-11.56,32.9ZM1801.57,442.74l-64.17-158.32h-65.8v228.68h55.71v-137.47l51.47,137.47h44.96l51.14-137.15v137.15h55.71v-228.68h-65.48l-63.52,158.32ZM1146.15,340.12c-12.17-7.6-25.74-11.4-40.72-11.4-12.82,0-24,2.61-33.55,7.82-9.56,5.21-17.05,12.05-22.48,20.52v-25.74h-55.71v268.43h55.71v-112.06c5.43,8.26,12.97,14.98,22.64,20.2,9.66,5.21,20.79,7.82,33.39,7.82,14.99,0,28.55-3.85,40.72-11.56,12.16-7.71,21.77-18.68,28.83-32.9,7.05-14.22,10.59-30.67,10.59-49.35s-3.53-35.07-10.59-49.19c-7.06-14.11-16.67-24.97-28.83-32.58ZM1117.15,454.95c-7.82,8.14-17.27,12.22-28.34,12.22s-20.47-4.02-28.18-12.05c-7.71-8.03-11.56-19-11.56-32.9s3.85-24.86,11.56-32.9c7.71-8.03,17.1-12.05,28.18-12.05s20.79,3.96,28.5,11.89c7.71,7.93,11.56,18.84,11.56,32.74s-3.91,24.92-11.73,33.06ZM2512.05,357.06c-5.21-8.47-12.65-15.31-22.31-20.52-9.67-5.21-20.91-7.82-33.72-7.82-14.99,0-28.56,3.8-40.72,11.4-12.17,7.6-21.77,18.46-28.83,32.58-7.06,14.12-10.59,30.51-10.59,49.19s3.53,35.13,10.59,49.35c7.05,14.23,16.66,25.2,28.83,32.9,12.16,7.71,25.62,11.56,40.39,11.56,12.81,0,24.05-2.61,33.72-7.82,9.66-5.21,17.21-12.05,22.64-20.52v25.74h55.71v-181.78h-55.71v25.74ZM2500.49,455.12c-7.71,8.04-17.1,12.05-28.18,12.05s-20.47-4.07-28.18-12.22c-7.71-8.14-11.56-19.16-11.56-33.06s3.85-24.81,11.56-32.74c7.71-7.93,17.1-11.89,28.18-11.89s20.47,4.02,28.18,12.05c7.71,8.04,11.56,19.01,11.56,32.9s-3.86,24.87-11.56,32.9ZM4613.51,293.86c-12.6-6.3-28.02-9.45-46.26-9.45h-90.24v228.68h55.71v-82.09h34.53c18.67,0,34.31-3.36,46.91-10.1,12.59-6.73,21.93-15.58,28.02-26.55,6.08-10.96,9.12-23.07,9.12-36.32,0-14.33-3.15-27.04-9.45-38.11-6.3-11.08-15.75-19.76-28.34-26.06ZM4586.79,379.21c-5.21,5-13.14,7.49-23.78,7.49h-30.3v-57.33h30.3c10.64,0,18.57,2.5,23.78,7.49,5.21,5,7.82,12.05,7.82,21.17s-2.61,16.18-7.82,21.17ZM4672.14,513.1h55.71v-241.06h-55.71v241.06ZM4276.67,340.12c-14.33-7.6-30.41-11.4-48.21-11.4s-33.88,3.8-48.21,11.4c-14.33,7.6-25.63,18.52-33.88,32.74-8.26,14.23-12.38,30.68-12.38,49.35s4.07,35.4,12.22,49.52c8.14,14.12,19.33,24.98,33.55,32.58,14.22,7.6,30.24,11.4,48.05,11.4s33.93-3.8,48.38-11.4c14.44-7.6,25.84-18.51,34.21-32.74,8.36-14.22,12.54-30.67,12.54-49.35s-4.13-35.13-12.38-49.35c-8.26-14.22-19.55-25.13-33.88-32.74ZM4255.01,455.77c-7.49,7.82-16.56,11.73-27.2,11.73s-19.49-3.91-26.55-11.73c-7.06-7.82-10.59-19-10.59-33.55s3.58-26,10.75-33.72c7.17-7.71,16.18-11.57,27.04-11.57s19.6,3.91,26.88,11.73c7.27,7.82,10.91,19.01,10.91,33.55s-3.75,25.74-11.24,33.55ZM4336.29,513.1h55.71v-241.06h-55.71v241.06ZM5355.91,419.28c0-18.24-3.86-34.21-11.56-47.89-7.71-13.68-18.41-24.21-32.09-31.6-13.68-7.38-29.32-11.08-46.91-11.08s-33.99,3.8-47.89,11.4c-13.9,7.6-24.71,18.46-32.41,32.58-7.71,14.12-11.56,30.62-11.56,49.52s3.91,35.4,11.73,49.52c7.82,14.12,18.68,24.98,32.58,32.58,13.9,7.6,29.75,11.4,47.56,11.4,14.77,0,28.12-2.71,40.07-8.14,11.94-5.43,21.88-12.92,29.81-22.48,7.92-9.55,13.41-20.3,16.45-32.25h-59.29c-5.43,11.73-15.1,17.59-28.99,17.59-9.34,0-17.21-2.98-23.62-8.96-6.41-5.97-10.05-14.6-10.91-25.9h126.07c.65-5.64.98-11.08.98-16.29ZM5229.19,404.62c1.52-9.99,5.48-17.7,11.89-23.13,6.4-5.43,14.28-8.14,23.62-8.14s17.92,2.83,24.43,8.47c6.52,5.65,9.77,13.25,9.77,22.8h-69.71ZM4885.19,357.06c-5.21-8.47-12.65-15.31-22.31-20.52-9.67-5.21-20.91-7.82-33.72-7.82-14.99,0-28.56,3.8-40.72,11.4-12.17,7.6-21.77,18.46-28.83,32.58-7.06,14.12-10.59,30.51-10.59,49.19s3.53,35.13,10.59,49.35c7.05,14.23,16.66,25.2,28.83,32.9,12.16,7.71,25.62,11.56,40.39,11.56,12.81,0,24.05-2.61,33.72-7.82,9.66-5.21,17.21-12.05,22.64-20.52v25.74h55.71v-181.78h-55.71v25.74ZM4873.63,455.12c-7.71,8.04-17.1,12.05-28.18,12.05s-20.47-4.07-28.18-12.22c-7.71-8.14-11.56-19.16-11.56-33.06s3.85-24.81,11.56-32.74c7.71-7.93,17.1-11.89,28.18-11.89s20.47,4.02,28.18,12.05c7.71,8.04,11.56,19.01,11.56,32.9s-3.86,24.87-11.56,32.9ZM5083.9,329.37c-11.95,0-22.7,2.34-32.25,7-9.56,4.67-17.16,11.02-22.8,19.06v-24.11h-55.71v181.78h55.71v-98.71c0-12.16,3.15-21.61,9.45-28.34,6.3-6.73,14.77-10.1,25.41-10.1s19.11,3.37,25.41,10.1c6.3,6.73,9.45,16.18,9.45,28.34v98.71h55.38v-106.2c0-24.11-6.35-43.05-19.06-56.85-12.71-13.79-29.7-20.69-50.98-20.69ZM3813.45,329.37c-11.95,0-22.7,2.34-32.25,7-9.56,4.67-17.16,11.02-22.8,19.06v-24.11h-55.71v181.78h55.71v-98.71c0-12.16,3.15-21.61,9.45-28.34,6.3-6.73,14.77-10.1,25.41-10.1s19.11,3.37,25.41,10.1c6.3,6.73,9.45,16.18,9.45,28.34v98.71h55.38v-106.2c0-24.11-6.35-43.05-19.06-56.85-12.71-13.79-29.7-20.69-50.98-20.69ZM3384.42,332.63c10.64,0,20.14,2.5,28.5,7.49,8.36,5,14.82,12.27,19.38,21.83h61.24c-6.51-24.76-19.44-44.3-38.77-58.64-19.33-14.33-42.57-21.5-69.71-21.5-22.15,0-41.97,4.94-59.45,14.82-17.48,9.88-31.11,23.67-40.88,41.37-9.77,17.7-14.66,37.84-14.66,60.43s4.89,42.67,14.66,60.27c9.77,17.59,23.4,31.33,40.88,41.21,17.48,9.88,37.3,14.82,59.45,14.82,27.15,0,50.38-7.11,69.71-21.34,19.33-14.22,32.25-33.72,38.77-58.47h-61.24c-4.56,9.56-11.02,16.83-19.38,21.83-8.36,5-17.87,7.49-28.5,7.49-17.16,0-31.06-5.97-41.7-17.92-10.64-11.94-15.96-27.9-15.96-47.89s5.32-35.94,15.96-47.89c10.64-11.94,24.54-17.92,41.7-17.92ZM3643.08,340.12c-14.33-7.6-30.41-11.4-48.21-11.4s-33.88,3.8-48.21,11.4c-14.33,7.6-25.63,18.52-33.88,32.74-8.26,14.23-12.38,30.68-12.38,49.35s4.07,35.4,12.22,49.52c8.14,14.12,19.33,24.98,33.55,32.58,14.22,7.6,30.24,11.4,48.05,11.4s33.93-3.8,48.38-11.4c14.44-7.6,25.84-18.51,34.21-32.74,8.36-14.22,12.54-30.67,12.54-49.35s-4.13-35.13-12.38-49.35c-8.26-14.22-19.55-25.13-33.88-32.74ZM3621.41,455.77c-7.49,7.82-16.56,11.73-27.2,11.73s-19.49-3.91-26.55-11.73c-7.06-7.82-10.59-19-10.59-33.55s3.58-26,10.75-33.72c7.17-7.71,16.18-11.57,27.04-11.57s19.6,3.91,26.88,11.73c7.27,7.82,10.91,19.01,10.91,33.55s-3.75,25.74-11.24,33.55ZM3130.66,356.41c-5.65-8.47-13.41-15.2-23.29-20.2-9.88-4.99-20.8-7.49-32.74-7.49-14.99,0-28.56,3.8-40.72,11.4-12.17,7.6-21.77,18.46-28.83,32.58-7.06,14.12-10.59,30.51-10.59,49.19s3.53,35.13,10.59,49.35c7.05,14.23,16.66,25.2,28.83,32.9,12.16,7.71,25.74,11.56,40.72,11.56,12.81,0,24.05-2.61,33.72-7.82,9.66-5.21,17.1-12.16,22.31-20.85v26.06h55.71v-241.06h-55.71v84.37ZM3119.1,455.12c-7.71,8.04-17.1,12.05-28.18,12.05s-20.47-4.07-28.18-12.22c-7.71-8.14-11.56-19.16-11.56-33.06s3.85-24.81,11.56-32.74c7.71-7.93,17.1-11.89,28.18-11.89s20.47,4.02,28.18,12.05c7.71,8.04,11.56,19.01,11.56,32.9s-3.86,24.87-11.56,32.9ZM3974.37,462.28c-2.61-2.39-3.91-6.3-3.91-11.73v-72.97h36.49v-46.26h-36.49v-44.3h-55.71v44.3h-22.15v46.26h22.15v72.32c0,22.37,5.64,38.5,16.94,48.38,11.29,9.88,27.04,14.82,47.24,14.82h28.34v-47.24h-19.87c-6.08,0-10.42-1.19-13.03-3.58ZM4134.64,329.37c-11.95,0-22.8,2.88-32.58,8.63-9.77,5.76-17.92,13.63-24.43,23.62v-30.3h-55.71v181.78h55.71v-84.37c0-14.99,3.47-25.46,10.42-31.44,6.95-5.97,17.37-8.96,31.27-8.96h15.31v-58.96ZM2940.74,339.79c-13.68-7.38-29.32-11.08-46.91-11.08s-33.99,3.8-47.89,11.4c-13.9,7.6-24.71,18.46-32.41,32.58-7.71,14.12-11.56,30.62-11.56,49.52s3.91,35.4,11.73,49.52c7.82,14.12,18.68,24.98,32.58,32.58,13.9,7.6,29.75,11.4,47.56,11.4,14.77,0,28.12-2.71,40.07-8.14,11.94-5.43,21.88-12.92,29.81-22.48,7.92-9.55,13.41-20.3,16.45-32.25h-59.29c-5.43,11.73-15.1,17.59-28.99,17.59-9.34,0-17.21-2.98-23.62-8.96-6.41-5.97-10.05-14.6-10.91-25.9h126.07c.65-5.64.98-11.08.98-16.29,0-18.24-3.86-34.21-11.56-47.89-7.71-13.68-18.41-24.21-32.09-31.6ZM2857.67,404.62c1.52-9.99,5.48-17.7,11.89-23.13,6.4-5.43,14.28-8.14,23.62-8.14s17.92,2.83,24.43,8.47c6.52,5.65,9.77,13.25,9.77,22.8h-69.71Z"/>
  <g id="b" data-name="Layer 5">
    <path d="M190.32,209.01c2.53-23.56,23.68-41.29,52.55-38.18,28.87,3.1,41.77,24.44,39.24,48.01" fill="none" stroke="#221f20" stroke-miterlimit="10" stroke-width="6.5"/>
    <path d="M612.49,209.76c-2.53-23.56-23.68-41.29-52.55-38.18-28.87,3.1-41.77,24.44-39.24,48.01" fill="none" stroke="#221f20" stroke-miterlimit="10" stroke-width="6.5"/>
    <path d="M401.48,467.68l-18.02-82.75c-.24-1.11-1.2-1.91-2.34-1.94-9.56-.28-44.71-2.11-47.99-5.19l-49.81-46.87c-4.82-4.53-7.31-11-6.79-17.58,1.93-24.22,6.72-78.72,7.99-93.56.11-1.34-.86-2.52-2.21-2.66h0l-92.32-9.41c-1.37-.14-2.58.86-2.71,2.23l-12.57,136.94c-.4,6.03,2.03,11.9,6.57,15.86l109.8,105.72c4.16,3.63,6.56,8.87,6.61,14.39l.91,162.14c0,1.36,1.12,2.46,2.47,2.46l99.1-.38c1.37,0,2.46-1.12,2.46-2.48l-1.12-176.39c0-.17-.02-.34-.06-.51h.02Z"/>
    <path d="M285.35,243.37l-118.37-11.26c-1.37-.13-2.59.88-2.72,2.25l-7.17,81.89c-.09,1.05.94,1.81,1.95,1.5l124.47-39.34c.66-.21,1.13-.81,1.17-1.5l2-31.95c.05-.81-.55-1.51-1.36-1.58h0Z" fill="#fff"/>
    <path d="M401.1,467.68l18.02-82.75c.24-1.11,1.2-1.91,2.34-1.94,9.56-.28,44.71-2.11,47.99-5.19l49.81-46.87c4.82-4.53,7.31-11,6.79-17.58-1.93-24.22-6.72-78.72-7.99-93.56-.11-1.34.86-2.52,2.21-2.66h0l92.32-9.41c1.37-.14,2.58.86,2.71,2.23l12.57,136.94c.4,6.03-2.03,11.9-6.57,15.86l-109.8,105.72c-4.16,3.63-6.56,8.87-6.61,14.39l-.91,162.14c0,1.36-1.12,2.46-2.47,2.46l-99.1-.38c-1.37,0-2.46-1.12-2.46-2.48l1.12-176.39c0-.17.02-.34.06-.51h-.02Z"/>
    <path d="M401.78,384.92l-76.93,32.87c-.64.27-1.35-.19-1.35-.89v-69.79c0-.71.74-1.18,1.39-.86l76.93,36.91c.74.36.72,1.42-.04,1.75Z" fill="#fff" isolation="isolate"/>
    <path d="M401.78,384.92l-76.93,32.87c-.64.27-1.35-.19-1.35-.89v-69.79c0-.71.74-1.18,1.39-.86l76.93,36.91c.74.36.72,1.42-.04,1.75Z" fill="url(#c)" isolation="isolate" opacity=".42"/>
    <path d="M329.36,52.1c9.93-10.43,16.67-17.51,16.67-17.51,0,0-72.08,100.88-81.15,113.58-1.09,1.32-2.14,2.59-2.14,2.59-5.24,6.34-12.88,8.65-17.08,5.19-4.19-3.47-3.35-11.41,1.88-17.75,0,0,.53-.64,1.23-1.48,2.72-2.85,53.51-56.2,80.59-84.63h0Z" fill="#221f20" stroke="#221f20" stroke-miterlimit="10"/>
    <path d="M390.37,364.31s-49.08-14.41-49.36-47.5c-.06-6.39-19.1-10.35-19.1-10.35,0,0,1.04-37.09,3.78-47.79,4.95-19.35,21.1-51.72,67.06-51.72,42.6,0,56.78,30.1,59.58,47.97,3.76,23.98,4.66,63.75-9.38,96.62" fill="none" stroke="#221f20" stroke-linecap="round" stroke-miterlimit="10" stroke-width="6.5"/>
    <path d="M285.31,243.33l-119.32-11.35c-.84-.08-1.58.54-1.66,1.37l-7.25,82.81c-.1,1.07.94,1.91,1.97,1.58l124.56-39.41c.6-.19,1.02-.73,1.06-1.35l2.01-32.05c.05-.82-.56-1.53-1.37-1.61h0Z" fill="url(#d)" isolation="isolate" opacity=".27"/>
    <path d="M517.22,243.37l118.37-11.26c1.37-.13,2.59.88,2.72,2.25l7.17,81.89c.09,1.05-.94,1.81-1.95,1.5l-124.47-39.34c-.66-.21-1.13-.81-1.17-1.5l-2-31.95c-.05-.81.55-1.51,1.36-1.58h0Z" fill="#fff"/>
    <path d="M401.32,384.92l76.93,32.87c.64.27,1.35-.19,1.35-.89v-69.79c0-.71-.74-1.18-1.39-.86l-76.93,36.91c-.74.36-.72,1.42.04,1.75Z" fill="#fff"/>
    <path d="M517.26,243.33l119.32-11.35c.84-.08,1.58.54,1.66,1.37l7.25,82.81c.1,1.07-.94,1.91-1.97,1.58l-124.56-39.41c-.6-.19-1.02-.73-1.06-1.35l-2.01-32.05c-.05-.82.56-1.53,1.37-1.61h0Z" fill="url(#e)" isolation="isolate" opacity=".27"/>
    <path d="M401.09,384.76l77.16,33.02c.64.27,1.34-.19,1.34-.88v-69.8c0-.61-.84-1.12-1.39-.86l-77.14,37.02c-.65.3-.63,1.22.02,1.5h0Z" fill="url(#f)" isolation="isolate" opacity=".42"/>
  </g>
  <g id="g" data-name="Layer 7">
    <circle cx="175" cy="295.68" r="6.35"/>
    <circle cx="625.59" cy="295.68" r="6.35"/>
    <circle cx="401.55" cy="517.22" r="9.75" fill="#fff"/>
    <circle cx="401.55" cy="517.22" r="9.75" fill="url(#h)" opacity=".38"/>
    <circle cx="401.55" cy="383.68" r="9.75" fill="#fff"/>
    <circle cx="401.55" cy="383.68" r="9.75" fill="url(#i)" opacity=".56"/>
    <circle cx="401.55" cy="554.43" r="9.75" fill="#fff"/>
    <circle cx="401.55" cy="554.43" r="9.75" fill="url(#j)" opacity=".38"/>
    <path d="M391.8,592.97c0-5.39,4.36-9.75,9.75-9.75s9.75,4.36,9.75,9.75-4.36,9.75-9.75,9.75-9.75-4.36-9.75-9.75Z" fill="#fff"/>
    <path d="M391.8,592.97c0-5.39,4.36-9.75,9.75-9.75s9.75,4.36,9.75,9.75-4.36,9.75-9.75,9.75-9.75-4.36-9.75-9.75Z" fill="url(#k)" opacity=".38"/>
  </g>
</svg>
