<?xml version="1.0" encoding="UTF-8" standalone="no"?>
<svg
   id="a"
   data-name="Layer 1"
   width="5438.83"
   height="749.28"
   viewBox="0 0 5438.83 749.28"
   version="1.1"
   sodipodi:docname="open-managed-control-planes-horizontal-white.svg"
   inkscape:export-filename="open-managed-control-planes-horizontal-white.png"
   inkscape:export-xdpi="96"
   inkscape:export-ydpi="96"
   inkscape:version="1.4.3 (0d15f75, 2025-12-25)"
   xmlns:inkscape="http://www.inkscape.org/namespaces/inkscape"
   xmlns:sodipodi="http://sodipodi.sourceforge.net/DTD/sodipodi-0.dtd"
   xmlns:xlink="http://www.w3.org/1999/xlink"
   xmlns="http://www.w3.org/2000/svg"
   xmlns:svg="http://www.w3.org/2000/svg">
  <sodipodi:namedview
     id="namedview57"
     pagecolor="#ffffff"
     bordercolor="#000000"
     borderopacity="0.25"
     inkscape:showpageshadow="2"
     inkscape:pageopacity="0.0"
     inkscape:pagecheckerboard="0"
     inkscape:deskcolor="#d1d1d1"
     inkscape:zoom="0.034699977"
     inkscape:cx="2723.3447"
     inkscape:cy="360.23078"
     inkscape:current-layer="a" />
  <defs
     id="defs35">
    <linearGradient
       id="c"
       x1="252.12"
       y1="-4019.41"
       x2="193.21"
       y2="-4121.44"
       gradientTransform="translate(0 -3804.99) scale(1 -1)"
       gradientUnits="userSpaceOnUse">
      <stop
         offset="0"
         stop-color="#fff"
         stop-opacity="0"
         id="stop1" />
      <stop
         offset=".12"
         stop-color="#c8d4e1"
         stop-opacity=".32"
         id="stop2" />
      <stop
         offset=".25"
         stop-color="#95adc6"
         stop-opacity=".61"
         id="stop3" />
      <stop
         offset=".37"
         stop-color="#7090b3"
         stop-opacity=".82"
         id="stop4" />
      <stop
         offset=".46"
         stop-color="#5a7fa7"
         stop-opacity=".95"
         id="stop5" />
      <stop
         offset=".52"
         stop-color="#5279a3"
         id="stop6" />
    </linearGradient>
    <linearGradient
       id="d"
       x1="365.69"
       y1="-4171.88"
       x2="335.8"
       y2="-4223.66"
       gradientTransform="translate(0 -3804.99) scale(1 -1)"
       gradientUnits="userSpaceOnUse">
      <stop
         offset="0"
         stop-color="#fff"
         stop-opacity="0"
         id="stop7" />
      <stop
         offset="0"
         stop-color="#fbfcfd"
         stop-opacity=".02"
         id="stop8" />
      <stop
         offset=".08"
         stop-color="#ced9e5"
         stop-opacity=".28"
         id="stop9" />
      <stop
         offset=".17"
         stop-color="#a8bbd0"
         stop-opacity=".5"
         id="stop10" />
      <stop
         offset=".25"
         stop-color="#88a3c0"
         stop-opacity=".68"
         id="stop11" />
      <stop
         offset=".35"
         stop-color="#7090b3"
         stop-opacity=".82"
         id="stop12" />
      <stop
         offset=".44"
         stop-color="#5f83aa"
         stop-opacity=".92"
         id="stop13" />
      <stop
         offset=".55"
         stop-color="#557ba4"
         stop-opacity=".98"
         id="stop14" />
      <stop
         offset=".7"
         stop-color="#5279a3"
         id="stop15" />
    </linearGradient>
    <linearGradient
       id="e"
       x1="14183.86"
       y1="-4021.3"
       x2="14229.48"
       y2="-4100.29"
       gradientTransform="translate(14804.54 -3804.99) rotate(-180)"
       gradientUnits="userSpaceOnUse">
      <stop
         offset="0"
         stop-color="#fff"
         stop-opacity="0"
         id="stop16" />
      <stop
         offset=".15"
         stop-color="#c8d4e1"
         stop-opacity=".32"
         id="stop17" />
      <stop
         offset=".3"
         stop-color="#95adc6"
         stop-opacity=".61"
         id="stop18" />
      <stop
         offset=".44"
         stop-color="#7090b3"
         stop-opacity=".82"
         id="stop19" />
      <stop
         offset=".55"
         stop-color="#5a7fa7"
         stop-opacity=".95"
         id="stop20" />
      <stop
         offset=".63"
         stop-color="#5279a3"
         id="stop21" />
    </linearGradient>
    <linearGradient
       id="f"
       x1="14331.08"
       y1="-4153.05"
       x2="14362.46"
       y2="-4207.39"
       gradientTransform="translate(14804.54 -3804.99) rotate(-180)"
       gradientUnits="userSpaceOnUse">
      <stop
         offset="0"
         stop-color="#fff"
         stop-opacity="0"
         id="stop22" />
      <stop
         offset=".02"
         stop-color="#f5f7fa"
         stop-opacity=".05"
         id="stop23" />
      <stop
         offset=".16"
         stop-color="#c4d1df"
         stop-opacity=".34"
         id="stop24" />
      <stop
         offset=".29"
         stop-color="#9bb1c9"
         stop-opacity=".58"
         id="stop25" />
      <stop
         offset=".42"
         stop-color="#7b98b8"
         stop-opacity=".76"
         id="stop26" />
      <stop
         offset=".55"
         stop-color="#6487ac"
         stop-opacity=".89"
         id="stop27" />
      <stop
         offset=".67"
         stop-color="#567ca5"
         stop-opacity=".97"
         id="stop28" />
      <stop
         offset=".79"
         stop-color="#5279a3"
         id="stop29" />
    </linearGradient>
    <linearGradient
       id="h"
       x1="8356.27"
       y1="-9711.29"
       x2="8373.11"
       y2="-9721.02"
       gradientTransform="translate(10119.18 -7977.91) rotate(90) scale(1 -1)"
       gradientUnits="userSpaceOnUse">
      <stop
         offset="0"
         stop-color="#fff"
         stop-opacity="0"
         id="stop30" />
      <stop
         offset=".08"
         stop-color="#e5ebf1"
         stop-opacity=".12"
         id="stop31" />
      <stop
         offset=".29"
         stop-color="#a6bacf"
         stop-opacity=".41"
         id="stop32" />
      <stop
         offset=".47"
         stop-color="#7896b7"
         stop-opacity=".62"
         id="stop33" />
      <stop
         offset=".63"
         stop-color="#5c80a8"
         stop-opacity=".75"
         id="stop34" />
      <stop
         offset=".73"
         stop-color="#5279a3"
         stop-opacity=".8"
         id="stop35" />
    </linearGradient>
    <linearGradient
       id="i"
       x1="8526.46"
       y1="-9711.29"
       x2="8543.3"
       y2="-9721.02"
       xlink:href="#h" />
    <linearGradient
       id="j"
       x1="8564.87"
       y1="-9711.29"
       x2="8581.72"
       y2="-9721.02"
       xlink:href="#h" />
    <linearGradient
       id="k"
       x1="8489.13"
       x2="8505.97"
       xlink:href="#h" />
  </defs>
  <rect
     x="677.06"
     y="564.34"
     width="3.13"
     height="0"
     fill="none"
     id="rect35" />
  <path
     d="M5083.9,329.37c-11.95,0-22.7,2.34-32.25,7-9.56,4.67-17.16,11.02-22.8,19.06v-24.11h-55.71v181.78h55.71v-98.71c0-12.16,3.15-21.61,9.45-28.34,6.3-6.73,14.77-10.1,25.41-10.1s19.11,3.37,25.41,10.1c6.3,6.73,9.45,16.18,9.45,28.34v98.71h55.38v-106.2c0-24.11-6.35-43.05-19.06-56.85-12.71-13.79-29.7-20.69-50.98-20.69ZM2087.59,357.06c-5.21-8.47-12.65-15.31-22.31-20.52-9.67-5.21-20.91-7.82-33.72-7.82-14.99,0-28.56,3.8-40.72,11.4-12.17,7.6-21.77,18.46-28.83,32.58-7.06,14.12-10.59,30.51-10.59,49.19s3.53,35.13,10.59,49.35c7.05,14.23,16.66,25.2,28.83,32.9,12.16,7.71,25.62,11.56,40.39,11.56,12.81,0,24.05-2.61,33.72-7.82,9.66-5.21,17.21-12.05,22.64-20.52v25.74h55.71v-181.78h-55.71v25.74ZM2076.03,455.11c-7.71,8.04-17.1,12.05-28.18,12.05s-20.47-4.07-28.18-12.22c-7.71-8.14-11.56-19.16-11.56-33.06s3.85-24.81,11.56-32.74c7.71-7.93,17.1-11.89,28.18-11.89s20.47,4.02,28.18,12.05c7.71,8.04,11.56,19.01,11.56,32.9s-3.86,24.87-11.56,32.9ZM2286.3,329.37c-11.95,0-22.7,2.34-32.25,7-9.56,4.67-17.16,11.02-22.8,19.06v-24.11h-55.71v181.78h55.71v-98.71c0-12.16,3.15-21.61,9.45-28.34,6.3-6.73,14.77-10.1,25.41-10.1s19.11,3.37,25.41,10.1c6.3,6.73,9.45,16.18,9.45,28.34v98.71h55.38v-106.2c0-24.11-6.35-43.05-19.06-56.85-12.71-13.79-29.7-20.69-50.98-20.69ZM1801.57,442.74l-64.17-158.32h-65.8v228.68h55.71v-137.47l51.47,137.47h44.96l51.14-137.15v137.15h55.71v-228.68h-65.48l-63.52,158.32ZM4276.67,340.12c-14.33-7.6-30.41-11.4-48.21-11.4s-33.88,3.8-48.21,11.4c-14.33,7.6-25.63,18.52-33.88,32.74-8.26,14.23-12.38,30.68-12.38,49.35s4.07,35.4,12.22,49.52c8.14,14.12,19.33,24.98,33.55,32.58,14.22,7.6,30.24,11.4,48.05,11.4s33.93-3.8,48.38-11.4c14.44-7.6,25.84-18.51,34.21-32.74,8.36-14.22,12.54-30.67,12.54-49.35s-4.13-35.13-12.38-49.35c-8.26-14.22-19.55-25.13-33.88-32.74ZM4255.01,455.77c-7.49,7.82-16.56,11.73-27.2,11.73s-19.49-3.91-26.55-11.73c-7.06-7.82-10.59-19-10.59-33.55s3.58-26,10.75-33.72c7.17-7.71,16.18-11.57,27.04-11.57s19.6,3.91,26.88,11.73c7.27,7.82,10.91,19.01,10.91,33.55s-3.75,25.74-11.24,33.55ZM913.07,296.14c-17.92-9.99-37.62-14.99-59.12-14.99s-41.21,5-59.13,14.99c-17.92,9.99-32.14,23.89-42.67,41.7-10.54,17.81-15.8,37.9-15.8,60.27s5.26,42.51,15.8,60.43c10.53,17.92,24.76,31.87,42.67,41.86,17.92,9.99,37.62,14.99,59.13,14.99s41.15-4.99,58.96-14.99c17.8-9.99,31.92-23.94,42.35-41.86,10.42-17.92,15.64-38.06,15.64-60.43s-5.16-42.46-15.47-60.27c-10.32-17.8-24.43-31.71-42.35-41.7ZM897.75,446.32c-10.97,12.17-25.57,18.24-43.81,18.24s-33.18-6.03-44.14-18.08c-10.97-12.05-16.45-28.18-16.45-48.38s5.48-36.59,16.45-48.54c10.96-11.94,25.68-17.92,44.14-17.92s32.85,6.03,43.81,18.08c10.96,12.05,16.45,28.18,16.45,48.38s-5.49,36.05-16.45,48.21ZM1510.02,329.37c-11.95,0-22.7,2.34-32.25,7-9.56,4.67-17.16,11.02-22.8,19.06v-24.11h-55.71v181.78h55.71v-98.71c0-12.16,3.15-21.61,9.45-28.34,6.3-6.73,14.77-10.1,25.41-10.1s19.11,3.37,25.41,10.1c6.3,6.73,9.45,16.18,9.45,28.34v98.71h55.38v-106.2c0-24.11-6.35-43.05-19.06-56.85-12.71-13.79-29.7-20.69-50.98-20.69ZM5355.91,419.28c0-18.24-3.86-34.21-11.56-47.89-7.71-13.68-18.41-24.21-32.09-31.6-13.68-7.38-29.32-11.08-46.91-11.08s-33.99,3.8-47.89,11.4c-13.9,7.6-24.71,18.46-32.41,32.58-7.71,14.12-11.56,30.62-11.56,49.52s3.91,35.4,11.73,49.52c7.82,14.12,18.68,24.98,32.58,32.58,13.9,7.6,29.75,11.4,47.56,11.4,14.77,0,28.12-2.71,40.07-8.14,11.94-5.43,21.88-12.92,29.81-22.48,7.92-9.55,13.41-20.3,16.45-32.25h-59.29c-5.43,11.73-15.1,17.59-28.99,17.59-9.34,0-17.21-2.98-23.62-8.96-6.41-5.97-10.05-14.6-10.91-25.9h126.07c.65-5.64.98-11.08.98-16.29ZM5229.19,404.62c1.52-9.99,5.48-17.7,11.89-23.13,6.4-5.43,14.28-8.14,23.62-8.14s17.92,2.83,24.43,8.47c6.52,5.65,9.77,13.25,9.77,22.8h-69.71ZM1146.15,340.12c-12.17-7.6-25.74-11.4-40.72-11.4-12.82,0-24,2.61-33.55,7.82-9.56,5.21-17.05,12.05-22.48,20.52v-25.74h-55.71v268.43h55.71v-112.06c5.43,8.26,12.97,14.98,22.64,20.2,9.66,5.21,20.79,7.82,33.39,7.82,14.99,0,28.55-3.85,40.72-11.56,12.16-7.71,21.77-18.68,28.83-32.9,7.05-14.22,10.59-30.67,10.59-49.35s-3.53-35.07-10.59-49.19c-7.06-14.11-16.67-24.97-28.83-32.58ZM1117.15,454.95c-7.82,8.14-17.27,12.22-28.34,12.22s-20.47-4.02-28.18-12.05c-7.71-8.03-11.56-19-11.56-32.9s3.85-24.86,11.56-32.9c7.71-8.03,17.1-12.05,28.18-12.05s20.79,3.96,28.5,11.89c7.71,7.93,11.56,18.84,11.56,32.74s-3.91,24.92-11.73,33.06ZM1334.43,339.79c-13.68-7.38-29.32-11.08-46.91-11.08s-33.99,3.8-47.89,11.4c-13.9,7.6-24.71,18.46-32.41,32.58-7.71,14.12-11.56,30.62-11.56,49.52s3.91,35.4,11.73,49.52c7.82,14.12,18.68,24.98,32.58,32.58,13.9,7.6,29.75,11.4,47.56,11.4,14.77,0,28.12-2.71,40.07-8.14,11.94-5.43,21.88-12.92,29.81-22.48,7.92-9.55,13.41-20.3,16.45-32.25h-59.29c-5.43,11.73-15.1,17.59-28.99,17.59-9.34,0-17.21-2.98-23.62-8.96-6.41-5.97-10.05-14.6-10.91-25.9h126.07c.65-5.64.98-11.08.98-16.29,0-18.24-3.86-34.21-11.56-47.89-7.71-13.68-18.41-24.21-32.09-31.6ZM1251.36,404.62c1.52-9.99,5.48-17.7,11.89-23.13,6.4-5.43,14.28-8.14,23.62-8.14s17.92,2.83,24.43,8.47c6.52,5.65,9.77,13.25,9.77,22.8h-69.71ZM4885.19,357.06c-5.21-8.47-12.65-15.31-22.31-20.52-9.67-5.21-20.91-7.82-33.72-7.82-14.99,0-28.56,3.8-40.72,11.4-12.17,7.6-21.77,18.46-28.83,32.58-7.06,14.12-10.59,30.51-10.59,49.19s3.53,35.13,10.59,49.35c7.05,14.23,16.66,25.2,28.83,32.9,12.16,7.71,25.62,11.56,40.39,11.56,12.81,0,24.05-2.61,33.72-7.82,9.66-5.21,17.21-12.05,22.64-20.52v25.74h55.71v-181.78h-55.71v25.74ZM4873.63,455.11c-7.71,8.04-17.1,12.05-28.18,12.05s-20.47-4.07-28.18-12.22c-7.71-8.14-11.56-19.16-11.56-33.06s3.85-24.81,11.56-32.74c7.71-7.93,17.1-11.89,28.18-11.89s20.47,4.02,28.18,12.05c7.71,8.04,11.56,19.01,11.56,32.9s-3.86,24.87-11.56,32.9ZM3974.37,462.28c-2.61-2.39-3.91-6.3-3.91-11.73v-72.97h36.49v-46.26h-36.49v-44.3h-55.71v44.3h-22.15v46.26h22.15v72.32c0,22.37,5.64,38.5,16.94,48.38,11.29,9.88,27.04,14.82,47.24,14.82h28.34v-47.24h-19.87c-6.08,0-10.42-1.19-13.03-3.58ZM3384.42,332.63c10.64,0,20.14,2.5,28.5,7.49,8.36,5,14.82,12.27,19.38,21.83h61.24c-6.51-24.76-19.44-44.3-38.77-58.64-19.33-14.33-42.57-21.5-69.71-21.5-22.15,0-41.97,4.94-59.45,14.82-17.48,9.88-31.11,23.67-40.88,41.37-9.77,17.7-14.66,37.84-14.66,60.43s4.89,42.67,14.66,60.27c9.77,17.59,23.4,31.33,40.88,41.21,17.48,9.88,37.3,14.82,59.45,14.82,27.15,0,50.38-7.11,69.71-21.34,19.33-14.22,32.25-33.72,38.77-58.47h-61.24c-4.56,9.56-11.02,16.83-19.38,21.83-8.36,5-17.87,7.49-28.5,7.49-17.16,0-31.06-5.97-41.7-17.92-10.64-11.94-15.96-27.9-15.96-47.89s5.32-35.94,15.96-47.89c10.64-11.94,24.54-17.92,41.7-17.92ZM3643.08,340.12c-14.33-7.6-30.41-11.4-48.21-11.4s-33.88,3.8-48.21,11.4c-14.33,7.6-25.63,18.52-33.88,32.74-8.26,14.23-12.38,30.68-12.38,49.35s4.07,35.4,12.22,49.52c8.14,14.12,19.33,24.98,33.55,32.58,14.22,7.6,30.24,11.4,48.05,11.4s33.93-3.8,48.38-11.4c14.44-7.6,25.84-18.51,34.21-32.74,8.36-14.22,12.54-30.67,12.54-49.35s-4.13-35.13-12.38-49.35c-8.26-14.22-19.55-25.13-33.88-32.74ZM3621.41,455.77c-7.49,7.82-16.56,11.73-27.2,11.73s-19.49-3.91-26.55-11.73c-7.06-7.82-10.59-19-10.59-33.55s3.58-26,10.75-33.72c7.17-7.71,16.18-11.57,27.04-11.57s19.6,3.91,26.88,11.73c7.27,7.82,10.91,19.01,10.91,33.55s-3.75,25.74-11.24,33.55ZM3813.45,329.37c-11.95,0-22.7,2.34-32.25,7-9.56,4.67-17.16,11.02-22.8,19.06v-24.11h-55.71v181.78h55.71v-98.71c0-12.16,3.15-21.61,9.45-28.34,6.3-6.73,14.77-10.1,25.41-10.1s19.11,3.37,25.41,10.1c6.3,6.73,9.45,16.18,9.45,28.34v98.71h55.38v-106.2c0-24.11-6.35-43.05-19.06-56.85-12.71-13.79-29.7-20.69-50.98-20.69ZM4134.64,329.37c-11.95,0-22.8,2.88-32.58,8.63-9.77,5.76-17.92,13.63-24.43,23.62v-30.3h-55.71v181.78h55.71v-84.37c0-14.99,3.47-25.46,10.42-31.44,6.95-5.97,17.37-8.96,31.27-8.96h15.31v-58.96ZM4336.29,513.1h55.71v-241.06h-55.71v241.06ZM4672.14,513.1h55.71v-241.06h-55.71v241.06ZM2725.09,357.06c-5.21-8.47-12.65-15.31-22.31-20.52-9.67-5.21-20.91-7.82-33.72-7.82-14.99,0-28.56,3.8-40.72,11.4-12.17,7.6-21.77,18.46-28.83,32.58-7.06,14.12-10.59,30.51-10.59,49.19s3.53,35.13,10.59,49.35c7.05,14.23,16.66,25.2,28.83,32.9,12.16,7.71,25.74,11.56,40.72,11.56,12.81,0,23.99-2.66,33.55-7.98,9.55-5.32,17.05-12.22,22.48-20.69v25.73c0,14.55-3.42,25.13-10.26,31.76-6.84,6.62-16.02,9.94-27.53,9.94-9.56,0-17.59-2.01-24.11-6.03-6.52-4.02-10.64-9.5-12.38-16.45h-55.05c2.39,21.71,11.94,38.93,28.67,51.63,16.72,12.71,38.55,19.06,65.48,19.06,20.2,0,37.08-4.02,50.66-12.05,13.57-8.04,23.67-18.84,30.3-32.41,6.62-13.58,9.94-28.72,9.94-45.44v-181.45h-55.71v25.74ZM2713.53,455.11c-7.71,8.04-17.1,12.05-28.18,12.05s-20.47-4.07-28.18-12.22c-7.71-8.14-11.56-19.16-11.56-33.06s3.85-24.81,11.56-32.74c7.71-7.93,17.1-11.89,28.18-11.89s20.47,4.02,28.18,12.05c7.71,8.04,11.56,19.01,11.56,32.9s-3.86,24.87-11.56,32.9ZM2512.05,357.06c-5.21-8.47-12.65-15.31-22.31-20.52-9.67-5.21-20.91-7.82-33.72-7.82-14.99,0-28.56,3.8-40.72,11.4-12.17,7.6-21.77,18.46-28.83,32.58-7.06,14.12-10.59,30.51-10.59,49.19s3.53,35.13,10.59,49.35c7.05,14.23,16.66,25.2,28.83,32.9,12.16,7.71,25.62,11.56,40.39,11.56,12.81,0,24.05-2.61,33.72-7.82,9.66-5.21,17.21-12.05,22.64-20.52v25.74h55.71v-181.78h-55.71v25.74ZM2500.49,455.11c-7.71,8.04-17.1,12.05-28.18,12.05s-20.47-4.07-28.18-12.22c-7.71-8.14-11.56-19.16-11.56-33.06s3.85-24.81,11.56-32.74c7.71-7.93,17.1-11.89,28.18-11.89s20.47,4.02,28.18,12.05c7.71,8.04,11.56,19.01,11.56,32.9s-3.86,24.87-11.56,32.9ZM3130.66,356.41c-5.65-8.47-13.41-15.2-23.29-20.2-9.88-4.99-20.8-7.49-32.74-7.49-14.99,0-28.56,3.8-40.72,11.4-12.17,7.6-21.77,18.46-28.83,32.58-7.06,14.12-10.59,30.51-10.59,49.19s3.53,35.13,10.59,49.35c7.05,14.23,16.66,25.2,28.83,32.9,12.16,7.71,25.74,11.56,40.72,11.56,12.81,0,24.05-2.61,33.72-7.82,9.66-5.21,17.1-12.16,22.31-20.85v26.06h55.71v-241.06h-55.71v84.37ZM3119.1,455.11c-7.71,8.04-17.1,12.05-28.18,12.05s-20.47-4.07-28.18-12.22c-7.71-8.14-11.56-19.16-11.56-33.06s3.85-24.81,11.56-32.74c7.71-7.93,17.1-11.89,28.18-11.89s20.47,4.02,28.18,12.05c7.71,8.04,11.56,19.01,11.56,32.9s-3.86,24.87-11.56,32.9ZM4613.51,293.86c-12.6-6.3-28.02-9.45-46.26-9.45h-90.24v228.68h55.71v-82.09h34.53c18.67,0,34.31-3.36,46.91-10.1,12.59-6.73,21.93-15.58,28.02-26.55,6.08-10.96,9.12-23.07,9.12-36.32,0-14.33-3.15-27.04-9.45-38.11-6.3-11.08-15.75-19.76-28.34-26.06ZM4586.79,379.21c-5.21,5-13.14,7.49-23.78,7.49h-30.3v-57.33h30.3c10.64,0,18.57,2.5,23.78,7.49,5.21,5,7.82,12.05,7.82,21.17s-2.61,16.18-7.82,21.17ZM2940.74,339.79c-13.68-7.38-29.32-11.08-46.91-11.08s-33.99,3.8-47.89,11.4c-13.9,7.6-24.71,18.46-32.41,32.58-7.71,14.12-11.56,30.62-11.56,49.52s3.91,35.4,11.73,49.52c7.82,14.12,18.68,24.98,32.58,32.58,13.9,7.6,29.75,11.4,47.56,11.4,14.77,0,28.12-2.71,40.07-8.14,11.94-5.43,21.88-12.92,29.81-22.48,7.92-9.55,13.41-20.3,16.45-32.25h-59.29c-5.43,11.73-15.1,17.59-28.99,17.59-9.34,0-17.21-2.98-23.62-8.96-6.41-5.97-10.05-14.6-10.91-25.9h126.07c.65-5.64.98-11.08.98-16.29,0-18.24-3.86-34.21-11.56-47.89-7.71-13.68-18.41-24.21-32.09-31.6ZM2857.67,404.62c1.52-9.99,5.48-17.7,11.89-23.13,6.4-5.43,14.28-8.14,23.62-8.14s17.92,2.83,24.43,8.47c6.52,5.65,9.77,13.25,9.77,22.8h-69.71Z"
     fill="#fff"
     id="path35" />
  <g
     id="b"
     data-name="Layer 5">
    <path
       d="M192.48,215.09c2.52-23.49,23.6-43.57,52.38-40.47,28.78,3.09,40.83,24.36,38.31,47.85"
       fill="none"
       stroke="#fff"
       stroke-miterlimit="10"
       stroke-width="6.5"
       id="path36" />
    <path
       d="M613.28,213.42c-2.52-23.49-23.6-41.15-52.38-38.06s-41.64,24.36-39.12,47.85"
       fill="none"
       stroke="#fff"
       stroke-miterlimit="10"
       stroke-width="6.5"
       id="path37" />
    <path
       d="M402.95,470.5l-17.96-82.48c-.24-1.1-1.19-1.9-2.33-1.93-9.53-.28-44.56-2.1-47.83-5.17l-49.65-46.72c-4.8-4.52-7.29-10.96-6.77-17.53,1.93-24.14,6.7-78.46,7.97-93.26.11-1.34-.86-2.51-2.2-2.65h0l-92.02-9.38c-1.36-.14-2.57.86-2.7,2.22l-12.53,136.5c-.4,6.01,2.02,11.86,6.55,15.8l109.44,105.38c4.15,3.62,6.54,8.84,6.59,14.35l.9,161.62c0,1.35,1.11,2.45,2.46,2.45l98.78-.38c1.36,0,2.46-1.11,2.45-2.47l-1.11-175.82c0-.17-.02-.34-.06-.51h.02Z"
       fill="#fff"
       id="path38" />
    <path
       d="M287.2,246.93l-117.98-11.22c-1.37-.13-2.59.88-2.71,2.25l-7.14,81.62c-.09,1.05.93,1.8,1.94,1.49l124.07-39.21c.66-.21,1.13-.81,1.17-1.5l2-31.85c.05-.81-.55-1.51-1.35-1.58h0Z"
       fill="#fff"
       id="path39" />
    <path
       d="M402.57,470.5l17.96-82.48c.24-1.1,1.19-1.9,2.33-1.93,9.53-.28,44.56-2.1,47.83-5.17l49.65-46.72c4.8-4.52,7.29-10.96,6.77-17.53-1.93-24.14-6.7-78.46-7.97-93.26-.11-1.34.86-2.51,2.2-2.65h0l92.02-9.38c1.36-.14,2.57.86,2.7,2.22l12.53,136.5c.4,6.01-2.02,11.86-6.55,15.8l-109.44,105.38c-4.15,3.62-6.54,8.84-6.59,14.35l-.9,161.62c0,1.35-1.11,2.45-2.46,2.45l-98.78-.38c-1.36,0-2.46-1.11-2.45-2.47l1.11-175.82c0-.17.02-.34.06-.51h-.02Z"
       fill="#fff"
       id="path40" />
    <path
       d="M403.26,388.01l-76.68,32.77c-.64.27-1.35-.19-1.35-.89v-69.56c0-.71.74-1.18,1.39-.86l76.68,36.8c.74.36.72,1.42-.04,1.75Z"
       fill="#fff"
       id="path41" />
    <path
       d="M331.07,56.27c9.9-10.4,16.62-17.46,16.62-17.46,0,0-71.84,100.55-80.89,113.21-1.09,1.31-2.13,2.59-2.13,2.59-5.22,6.32-12.84,8.63-17.02,5.17-4.18-3.46-3.34-11.37,1.88-17.69,0,0,.53-.64,1.22-1.47,2.71-2.84,53.34-56.02,80.33-84.36h0Z"
       fill="#fff"
       stroke="#fff"
       stroke-miterlimit="10"
       id="path42" />
    <path
       d="M391.88,367.47s-48.92-14.36-49.2-47.35c-.06-6.37-19.04-10.32-19.04-10.32,0,0,1.04-36.97,3.77-47.64,4.94-19.28,21.03-51.55,66.84-51.55,42.46,0,56.59,30,59.39,47.81,3.75,23.9,4.65,63.55-9.35,96.31"
       fill="none"
       stroke="#fff"
       stroke-linecap="round"
       stroke-miterlimit="10"
       stroke-width="6.5"
       id="path43" />
    <path
       d="M287.16,246.89l-118.93-11.31c-.84-.08-1.58.54-1.65,1.37l-7.23,82.54c-.1,1.07.93,1.9,1.97,1.57l124.15-39.28c.6-.19,1.01-.72,1.06-1.35l2.01-31.95c.05-.81-.56-1.52-1.37-1.6h0Z"
       fill="url(#c)"
       isolation="isolate"
       opacity=".27"
       id="path44" />
    <path
       d="M403.49,387.87l-76.91,32.91c-.64.27-1.34-.19-1.34-.88v-69.57c0-.6.84-1.12,1.39-.86l76.88,36.9c.64.3.63,1.22-.02,1.5h0Z"
       fill="url(#d)"
       isolation="isolate"
       opacity=".42"
       id="path45" />
    <path
       d="M518.31,246.93l117.98-11.22c1.37-.13,2.59.88,2.71,2.25l7.14,81.62c.09,1.05-.93,1.8-1.94,1.49l-124.07-39.21c-.66-.21-1.13-.81-1.17-1.5l-2-31.85c-.05-.81.55-1.51,1.35-1.58h0Z"
       fill="#fff"
       id="path46" />
    <path
       d="M402.79,388.01l76.68,32.77c.64.27,1.35-.19,1.35-.89v-69.56c0-.71-.74-1.18-1.39-.86l-76.68,36.8c-.74.36-.72,1.42.04,1.75Z"
       fill="#fff"
       id="path47" />
    <path
       d="M518.36,246.89l118.93-11.31c.84-.08,1.58.54,1.65,1.37l7.23,82.54c.1,1.07-.93,1.9-1.97,1.57l-124.15-39.28c-.6-.19-1.01-.72-1.06-1.35l-2.01-31.95c-.05-.81.56-1.52,1.37-1.6h0Z"
       fill="url(#e)"
       isolation="isolate"
       opacity=".27"
       id="path48" />
    <path
       d="M402.56,387.86l76.91,32.91c.64.27,1.34-.19,1.34-.88v-69.57c0-.6-.84-1.12-1.39-.86l-76.88,36.9c-.64.3-.63,1.22.02,1.5h0Z"
       fill="url(#f)"
       isolation="isolate"
       opacity=".42"
       id="path49" />
  </g>
  <g
     id="g"
     data-name="Layer 7">
    <circle
       cx="177.21"
       cy="299.07"
       r="6.33"
       fill="#5279a3"
       id="circle49" />
    <circle
       cx="626.34"
       cy="299.07"
       r="6.33"
       fill="#5279a3"
       id="circle50" />
    <circle
       cx="403.02"
       cy="519.89"
       r="9.72"
       fill="#fff"
       id="circle51" />
    <circle
       cx="403.02"
       cy="386.78"
       r="9.72"
       fill="#fff"
       id="circle52" />
    <circle
       cx="403.02"
       cy="386.78"
       r="9.72"
       fill="url(#h)"
       id="circle53" />
    <circle
       cx="403.02"
       cy="556.97"
       r="9.72"
       fill="#fff"
       id="circle54" />
    <circle
       cx="403.02"
       cy="556.97"
       r="9.72"
       fill="url(#i)"
       id="circle55" />
    <path
       d="M393.3,595.39c0-5.37,4.35-9.72,9.72-9.72s9.72,4.35,9.72,9.72-4.35,9.72-9.72,9.72-9.72-4.35-9.72-9.72Z"
       fill="#fff"
       id="path55" />
    <path
       d="M393.3,595.39c0-5.37,4.35-9.72,9.72-9.72s9.72,4.35,9.72,9.72-4.35,9.72-9.72,9.72-9.72-4.35-9.72-9.72Z"
       fill="url(#j)"
       id="path56" />
    <circle
       cx="403.02"
       cy="519.89"
       r="9.72"
       fill="#fff"
       id="circle56" />
    <circle
       cx="403.02"
       cy="519.64"
       r="9.72"
       fill="url(#k)"
       id="circle57" />
  </g>
</svg>
