<svg width="760" height="760" viewBox="0 0 760 760" fill="none" xmlns="http://www.w3.org/2000/svg">
<path fill-rule="evenodd" clip-rule="evenodd" d="M371.057 99.015C375.451 96.8557 380.593 96.8557 384.987 99.015L637.185 222.964C645.032 226.821 648.553 232.842 644.706 240.71C640.859 248.578 631.102 255.313 623.255 251.456L378.022 130.93L141.648 247.102V630.873H378.022C386.761 630.873 393.846 637.976 393.846 646.738C393.846 655.501 386.761 662.604 378.022 662.604H125.824C117.085 662.604 110 655.501 110 646.738V237.21C110 231.156 113.437 225.629 118.859 222.964L371.057 99.015Z" fill="white"/>
<path fill-rule="evenodd" clip-rule="evenodd" d="M371.057 99.015C375.451 96.8557 380.593 96.8557 384.987 99.015L637.185 222.964C645.032 226.821 648.553 232.842 644.706 240.71C640.859 248.578 631.102 255.313 623.255 251.456L378.022 130.93L141.648 247.102V630.873H378.022C386.761 630.873 393.846 637.976 393.846 646.738C393.846 655.501 386.761 662.604 378.022 662.604H125.824C117.085 662.604 110 655.501 110 646.738V237.21C110 231.156 113.437 225.629 118.859 222.964L371.057 99.015Z" fill="white"/>
<path fill-rule="evenodd" clip-rule="evenodd" d="M637.185 222.964C645.604 227.102 650 231.423 650 240.185V646.738C650 655.501 642.915 662.604 634.176 662.604C625.436 662.604 618.352 655.501 618.352 646.738V240.185C618.352 231.423 628.445 222.964 637.185 222.964Z" fill="white"/>
<path fill-rule="evenodd" clip-rule="evenodd" d="M380.003 570.937L291.65 528.044C285.259 524.941 277.57 527.621 274.475 534.028C271.38 540.436 274.053 548.146 280.444 551.248L374.288 596.807C374.488 596.907 374.69 597.001 374.895 597.089C376.555 597.812 378.291 598.155 380.003 598.153C381.715 598.155 383.451 597.812 385.111 597.089C385.316 597.001 385.518 596.907 385.718 596.807L573.518 505.635C579.909 502.533 582.582 494.823 579.487 488.415C576.392 482.007 568.703 479.328 562.312 482.431L380.003 570.937Z" fill="white"/>
<path fill-rule="evenodd" clip-rule="evenodd" d="M380 357.485C388.739 357.444 394.794 359.206 394.835 367.968L396.813 646.664C396.854 655.426 389.802 662.563 381.063 662.604C372.324 662.645 365.206 655.575 365.165 646.812L363.187 368.116C363.146 359.354 371.261 357.526 380 357.485Z" fill="white"/>
<path fill-rule="evenodd" clip-rule="evenodd" d="M380.003 463.844L291.65 420.951C285.259 417.848 277.57 420.528 274.475 426.935C271.38 433.343 274.053 441.053 280.444 444.155L374.288 489.714C374.488 489.814 374.69 489.908 374.895 489.996C376.555 490.719 378.291 491.061 380.003 491.06C381.715 491.061 383.451 490.719 385.111 489.996C385.316 489.908 385.518 489.814 385.718 489.714L573.518 398.542C579.909 395.439 582.582 387.73 579.487 381.322C576.392 374.914 568.703 372.235 562.312 375.338L380.003 463.844Z" fill="white"/>
<path fill-rule="evenodd" clip-rule="evenodd" d="M379.844 355.687L291.65 312.871C285.259 309.769 277.57 312.448 274.475 318.855C271.38 325.263 274.053 332.973 280.444 336.076L374.268 381.625C374.507 381.744 374.749 381.856 374.995 381.959C376.67 382.671 378.42 383 380.143 382.979C381.867 382.962 383.611 382.595 385.272 381.845C385.515 381.736 385.755 381.619 385.991 381.495L637.067 252.651C643.388 249.407 645.889 241.64 642.654 235.302C639.419 228.965 631.672 226.457 625.351 229.701L379.844 355.687Z" fill="white"/>
</svg>
