<?xml version="1.0" encoding="UTF-8" standalone="no"?>
<svg
   width="540"
   height="565.20868"
   viewBox="0 0 540 565.20868"
   fill="none"
   version="1.1"
   id="svg7"
   sodipodi:docname="greenhouse-icon-white.svg"
   inkscape:version="1.4.3 (0d15f75, 2025-12-25)"
   inkscape:export-filename="greenhouse-icon-white.png"
   inkscape:export-xdpi="96"
   inkscape:export-ydpi="96"
   xmlns:inkscape="http://www.inkscape.org/namespaces/inkscape"
   xmlns:sodipodi="http://sodipodi.sourceforge.net/DTD/sodipodi-0.dtd"
   xmlns="http://www.w3.org/2000/svg"
   xmlns:svg="http://www.w3.org/2000/svg">
  <defs
     id="defs7" />
  <sodipodi:namedview
     id="namedview7"
     pagecolor="#ffffff"
     bordercolor="#000000"
     borderopacity="0.25"
     inkscape:showpageshadow="2"
     inkscape:pageopacity="0.0"
     inkscape:pagecheckerboard="0"
     inkscape:deskcolor="#d1d1d1"
     inkscape:zoom="0.31"
     inkscape:cx="266.12903"
     inkscape:cy="279.03226"
     inkscape:current-layer="svg7" />
  <path
     fill-rule="evenodd"
     clip-rule="evenodd"
     d="m 261.057,1.619475 c 4.394,-2.1593 9.536,-2.1593 13.93,0 L 527.185,125.56848 c 7.847,3.85699 11.368,9.87799 7.521,17.746 -3.847,7.86799 -13.604,14.603 -21.451,10.746 L 268.022,33.534475 31.648,149.70647 v 383.77101 h 236.374 c 8.739,0 15.824,7.10299 15.824,15.865 0,8.763 -7.085,15.866 -15.824,15.866 H 15.824 C 7.085,565.20848 0,558.10547 0,549.34248 v -409.528 c 0,-6.054 3.437,-11.581 8.859,-14.246 z"
     fill="#ffffff"
     id="path1" />
  <path
     fill-rule="evenodd"
     clip-rule="evenodd"
     d="m 261.057,1.619475 c 4.394,-2.1593 9.536,-2.1593 13.93,0 L 527.185,125.56848 c 7.847,3.85699 11.368,9.87799 7.521,17.746 -3.847,7.86799 -13.604,14.603 -21.451,10.746 L 268.022,33.534475 31.648,149.70647 v 383.77101 h 236.374 c 8.739,0 15.824,7.10299 15.824,15.865 0,8.763 -7.085,15.866 -15.824,15.866 H 15.824 C 7.085,565.20848 0,558.10547 0,549.34248 v -409.528 c 0,-6.054 3.437,-11.581 8.859,-14.246 z"
     fill="#ffffff"
     id="path2" />
  <path
     fill-rule="evenodd"
     clip-rule="evenodd"
     d="m 527.185,125.56848 c 8.419,4.13799 12.815,8.45899 12.815,17.22099 v 406.55301 c 0,8.763 -7.085,15.866 -15.824,15.866 -8.74,0 -15.824,-7.103 -15.824,-15.866 V 142.78947 c 0,-8.762 10.093,-17.22099 18.833,-17.22099 z"
     fill="#ffffff"
     id="path3" />
  <path
     fill-rule="evenodd"
     clip-rule="evenodd"
     d="m 270.003,473.54147 -88.353,-42.893 c -6.391,-3.103 -14.08,-0.423 -17.175,5.984 -3.095,6.40801 -0.422,14.11801 5.969,17.22001 l 93.844,45.55899 c 0.2,0.10001 0.402,0.194 0.607,0.28201 1.66,0.72299 3.396,1.066 5.108,1.06399 1.712,0.002 3.448,-0.341 5.108,-1.06399 0.205,-0.088 0.407,-0.182 0.607,-0.28201 l 187.8,-91.172 c 6.391,-3.102 9.064,-10.812 5.969,-17.22 -3.095,-6.408 -10.784,-9.087 -17.175,-5.98399 z"
     fill="#ffffff"
     id="path4" />
  <path
     fill-rule="evenodd"
     clip-rule="evenodd"
     d="m 270,260.08947 c 8.739,-0.041 14.794,1.721 14.835,10.48301 l 1.978,278.69599 c 0.041,8.762 -7.011,15.899 -15.75,15.94001 -8.739,0.041 -15.857,-7.029 -15.898,-15.79201 l -1.978,-278.696 c -0.041,-8.76199 8.074,-10.58999 16.813,-10.631 z"
     fill="#ffffff"
     id="path5" />
  <path
     fill-rule="evenodd"
     clip-rule="evenodd"
     d="M 270.003,366.44848 181.65,323.55547 c -6.391,-3.10299 -14.08,-0.423 -17.175,5.98401 -3.095,6.408 -0.422,14.11799 5.969,17.21999 l 93.844,45.559 c 0.2,0.1 0.402,0.194 0.607,0.282 1.66,0.723 3.396,1.065 5.108,1.064 1.712,0.001 3.448,-0.341 5.108,-1.064 0.205,-0.088 0.407,-0.182 0.607,-0.282 l 187.8,-91.172 c 6.391,-3.103 9.064,-10.812 5.969,-17.22 -3.095,-6.408 -10.784,-9.087 -17.175,-5.984 z"
     fill="#ffffff"
     id="path6" />
  <path
     fill-rule="evenodd"
     clip-rule="evenodd"
     d="m 269.844,258.29147 -88.194,-42.816 c -6.391,-3.10199 -14.08,-0.423 -17.175,5.984 -3.095,6.408 -0.422,14.118 5.969,17.221 l 93.824,45.549 c 0.239,0.119 0.481,0.231 0.727,0.334 1.675,0.712 3.425,1.041 5.148,1.02 1.724,-0.017 3.468,-0.384 5.129,-1.134 0.243,-0.109 0.483,-0.226 0.719,-0.35 L 527.067,155.25548 c 6.321,-3.244 8.822,-11.011 5.587,-17.349 -3.235,-6.337 -10.982,-8.845 -17.303,-5.601 z"
     fill="#ffffff"
     id="path7" />
</svg>
