<?xml version="1.0" encoding="UTF-8"?>
<svg id="a" data-name="Layer 1" xmlns="http://www.w3.org/2000/svg" width="849.11" height="847.82" viewBox="0 0 849.11 847.82">
  <path d="M555.16,305.65c14.44,24.96,25.12,52.71,31.91,83.04,1.67,7.47,3.02,14.9,4.05,22.28,8.49,2.55,15.2,9.19,17.85,17.63,40.43-5.88,84.64-11.68,103.47-14.11.22-6.13,2.08-11.84,5.16-16.7-19.3-16.56-45.96-35.96-76.76-53.58-22.92-13.11-52.48-27.7-85.69-38.55Z" fill="#fff"/>
  <path d="M330.63,176.77c-11.93-.88-23.61-.94-34.7-.13-14.12,1.04-26.9,3.46-37.6,7.03-.47.33-.94.65-1.4.99,20.68-5.25,42.34-8.05,64.65-8.05,3.03,0,6.04.06,9.05.16Z" fill="#fff"/>
  <path d="M346.08,699.9c-.05-.21-.1-.43-.14-.64-8.02.74-16.15,1.12-24.36,1.12-18.47,0-36.49-1.92-53.88-5.55,1.53,1,3.07,1.99,4.61,2.97,23.12,4.72,48,5.44,73.76,2.1Z" fill="#fff"/>
  <path d="M448.94,176.83c10.31,1.34,23.59,3.53,38.95,7.15,33.59,7.9,83.66,24.37,131.42,57.96,36.67,25.78,66.81,57.14,89.58,93.18,11.62,18.39,19.65,35.57,24.66,49.41,2.66-1.06,5.48-1.79,8.42-2.14-12.8-73.22-51.35-137.59-105.97-183.42-25.14-8.47-62.51-17.07-104.32-21.07-23.4-2.24-52.13-3.41-82.74-1.06Z" fill="#fff"/>
  <path d="M384.94,178.55c2.98-12.99,14.59-22.68,28.48-22.68,10.76,0,20.15,5.82,25.23,14.47,34.73-3.49,67.52-2.31,93.73.2,26.58,2.55,53.58,7.16,78.09,13.33,3.23.81,6.41,1.65,9.51,2.51-51.2-37.54-114.37-59.71-182.72-59.71-58.76,0-113.7,16.39-160.49,44.84,5.88-1.01,12.1-1.76,18.62-2.24,27.91-2.05,59.32,1.24,89.55,9.26Z" fill="#fff"/>
  <path d="M507.7,622.71c10.86-10.25,20.73-21.24,29.53-32.81-.46-.27-.92-.55-1.38-.82-8.44,11.99-17.87,23.24-28.15,33.63Z" fill="#fff"/>
  <path d="M595.35,460.65c-.69.35-1.4.66-2.13.95-1.43,23.61-6.3,46.62-14.61,68.87-7.49,20.05-17.83,39.34-30.67,57.34,29.42,17.96,53.82,35.91,72.88,53.59,5.99-6.56,14.55-10.73,24.09-10.93-1.16-21.67-4.34-55.03-12.91-88.94-8.82-34.9-21.13-62.05-36.65-80.89Z" fill="#fff"/>
  <path d="M583.39,409.84s.07,0,.11,0c-.96-6.48-2.17-12.99-3.63-19.54-2.23-9.95-4.88-19.61-7.96-28.98,4.81,15.61,8.19,31.85,10.01,48.56.49-.03.98-.04,1.48-.04Z" fill="#fff"/>
  <path d="M582.29,463.43c-4.15,43.93-19.15,84.69-42.29,119.59,0,0,0,0,.01,0,.54.32,1.06.63,1.59.95,12.61-17.61,22.77-36.48,30.09-56.1,7.79-20.86,12.45-42.42,14-64.53-.76.07-1.53.11-2.31.11-.37,0-.74-.01-1.1-.03Z" fill="#fff"/>
  <path d="M481.16,714.33c-11.68,0-23.29-.6-34.82-1.79-17.78-1.84-35.35-5.13-52.61-9.81-3.42,9.64-12.61,16.55-23.42,16.55-9.15,0-17.13-4.95-21.45-12.31-11.58,1.58-22.99,2.37-34.17,2.37-8.49,0-16.84-.46-25.02-1.37,43.86,23.86,94.13,37.42,147.58,37.42,67.84,0,130.57-21.84,181.56-58.86-15.87,6.77-41.86,16.17-75.06,22.15-20.88,3.76-41.84,5.65-62.6,5.65Z" fill="#fff"/>
  <path d="M666.04,482c-19.33-14.47-39.34-25.58-58.94-32.84-1.45,2.75-3.37,5.22-5.65,7.3,16.03,19.68,28.69,47.63,37.7,83.27,8.85,35.02,12.04,69.44,13.17,91.39,6.64,1.34,12.57,4.65,17.16,9.29,24.56-27.89,44.18-60.23,57.48-95.66-15.43-22.63-36.91-44.77-60.93-62.74Z" fill="#fff"/>
  <path d="M745.99,449.31c-16.45,0-30.13-11.83-33.01-27.44-19.02,2.46-62.76,8.2-102.8,14.02,0,.26.02.51.02.77,0,1.91-.2,3.78-.59,5.58,20.28,7.5,40.93,18.97,60.84,33.86,23.11,17.29,43.95,38.39,59.56,60.15,9.39-27.44,15.03-56.63,16.31-86.94-.11,0-.22,0-.33,0Z" fill="#fff"/>
  <path d="M439.26,198.79c27.04,13.21,51.56,30.35,72.33,50.7,14.4,14.11,27,29.68,37.78,46.62,37.06,11.23,70.03,27.34,95.14,41.7,31.04,17.76,58.01,37.38,77.69,54.23,1.46-1.47,3.06-2.8,4.78-3.98-4.21-11.92-11.58-28.86-24.31-49-21.94-34.72-52.23-66.22-87.59-91.09-46.73-32.86-95.76-49-128.66-56.76-17.87-4.21-33.06-6.48-43.8-7.69.03.53.04,1.05.04,1.59,0,4.95-1.23,9.6-3.4,13.68Z" fill="#fff"/>
  <path d="M503.24,636.68c-30.53,26.34-67.57,46.94-106.17,59.3,16.37,4.37,33.01,7.44,49.86,9.2,31.29,3.26,63.33,2.01,95.25-3.71,30.52-5.48,56.65-14.47,73.77-21.72-2.49-4.69-3.9-10.03-3.9-15.71,0-6.05,1.61-11.72,4.41-16.63-19.03-17.76-43.6-35.83-72.86-53.68-11.67,15.45-25.2,29.88-40.35,42.95Z" fill="#fff"/>
  <path d="M465.93,289.3c-32.17-.83-64.01,2.76-95.31,10.71,0,.77-.06,1.52-.14,2.27,23.73,3.36,61.87,13.89,101.5,32,59.63,27.25,88.63,55.74,102.74,77.01,2.28-.78,4.69-1.26,7.2-1.4-1.82-16.71-5.2-32.94-10.01-48.56-6.96-21.19-16.08-40.87-27.32-58.96-24.83-7.33-51.44-12.37-78.65-13.07Z" fill="#fff"/>
  <path d="M568.09,414.64c-8.75-12.99-21.35-25.72-37.62-37.94-17.1-12.85-37.81-24.87-61.55-35.72-38.03-17.38-76.9-28.34-100.48-31.55-.12.25-.24.49-.37.73,4.3,4.83,8.35,9.86,12.12,15.11,16.42,22.9,27.14,49.17,31.96,78.25,47.87,1.67,100.18,7.57,146.9,21.92,2.01-4.36,5.15-8.09,9.05-10.81Z" fill="#fff"/>
  <path d="M572.72,461.25c-14.45,14.02-40.2,29.42-70.19,41.68-31.33,12.82-61.01,19.72-83.9,19.72-.19,0-.37,0-.55,0,0,.02,0,.04,0,.06,44.92,18.8,86.9,39.57,121.91,60.32,23.14-34.9,38.14-75.67,42.29-119.59-3.39-.14-6.61-.9-9.56-2.18Z" fill="#fff"/>
  <path d="M234.95,242.91c8.05.89,16.1,2.28,24.1,4.13,25.86-23.17,55.29-41.58,87.6-54.79,8.56-3.5,17.24-6.53,25.98-9.15-14.03-3.18-28.19-5.32-42-6.34-3-.1-6.02-.16-9.05-.16-22.31,0-43.97,2.79-64.65,8.05-23.05,16.57-43.73,36.23-61.43,58.38,11.91-1.63,25.28-1.7,39.45-.13Z" fill="#fff"/>
  <path d="M260.03,256.14c10.54,2.06,20.76,5,30.58,8.76-9.62-3.98-19.5-7.25-29.5-9.76-.36.33-.72.67-1.08,1Z" fill="#fff"/>
  <path d="M416.72,530.13c-2.27,6.75-7.15,12.3-13.45,15.45,5.86,17.1,8.4,38.61,7.04,60.81-1.67,27.12-8.97,52.64-20.66,72.43,2.37,2.93,4.09,6.41,4.93,10.23,37.76-12.06,73.99-32.19,103.85-57.95,3.17-2.73,6.26-5.53,9.28-8.38,10.29-10.39,19.71-21.64,28.15-33.63-34.16-20.23-74.28-40.13-119.14-58.95Z" fill="#fff"/>
  <path d="M335.33,281.05c3.62-2.47,8-3.92,12.71-3.92,10.02,0,18.5,6.52,21.46,15.55,31.73-7.99,64-11.6,96.62-10.75,24.92.64,49.32,4.82,72.34,11.05-9.39-13.74-20.07-26.5-32.03-38.22-20.48-20.07-44.73-36.93-71.49-49.86-5.34,5.8-13,9.44-21.51,9.44-15.34,0-27.92-11.82-29.13-26.86-11.74,3.11-23.42,6.93-34.86,11.61-29.98,12.25-57.41,29.09-81.73,50.16,16.9,4.66,33.42,11.4,48.84,20.01,6.55,3.66,12.81,7.59,18.78,11.8Z" fill="#fff"/>
  <path d="M345.94,699.25c-.31-1.56-.47-3.18-.47-4.83,0-2.89.5-5.66,1.4-8.23-5.46-2.39-10.87-4.92-16.24-7.6-23.35-11.67-45.92-28.68-67.08-50.56-.17-.18-.35-.37-.52-.55-14.06,2.82-28.6,4.25-43.3,4.25-7.64,0-15.31-.39-22.99-1.16,20.16,24.9,44.11,46.61,70.97,64.25,17.39,3.64,35.41,5.55,53.88,5.55,8.21,0,16.34-.38,24.36-1.12Z" fill="#fff"/>
  <path d="M222.78,624.33c-11.43-.09-22.62-1.21-33.47-3.28.34.46.69.9,1.03,1.35,10.82,1.43,21.68,2.07,32.43,1.92Z" fill="#fff"/>
  <path d="M370.32,669.58c5.09,0,9.81,1.53,13.75,4.15,21.86-38.07,23.84-91.88,12.2-125.8-1.61.3-3.27.47-4.97.47-2.31,0-4.55-.29-6.69-.84-7.5,11.4-16.34,21.97-26.48,31.55-21.79,20.6-49.23,36.01-79.34,44.58-2.39.68-4.79,1.31-7.21,1.91,17.86,18.01,38.68,34.57,62.35,46.4,5.42,2.71,10.89,5.26,16.41,7.66,4.53-6.11,11.79-10.08,19.98-10.08Z" fill="#fff"/>
  <path d="M250.93,254.6c.27-.26.53-.52.8-.78.23-.22.47-.44.7-.67-6.08-1.25-12.19-2.24-18.29-2.92-16.78-1.86-32.29-1.34-45.3,1.42-1.27,1.71-2.53,3.44-3.77,5.18,12.63-2.71,25.74-4.15,39.18-4.15,9.06,0,17.96.66,26.68,1.91Z" fill="#fff"/>
  <path d="M417.36,515.28c22.01.3,51.24-6.44,82.38-19.17,27.88-11.4,52.53-25.94,66.48-38.86-5.89-4.92-9.65-12.32-9.65-20.59,0-1.41.11-2.79.32-4.14-45.59-14.01-96.71-19.85-143.67-21.56.19,1.45.37,2.91.53,4.38,3.25,29.94.81,58.42-6.94,84.39,5.19,3.69,9.02,9.18,10.56,15.56Z" fill="#fff"/>
  <path d="M391.3,494.78c3.09,0,6.06.53,8.82,1.49,7.17-24.7,9.38-51.73,6.29-80.15-.2-1.82-.42-3.62-.66-5.41-25.22-.69-49.06-.24-69.97.73-64.2,2.97-120.86,11.67-149.52,18.44.49,2.28.76,4.64.76,7.06,0,5.85-1.52,11.35-4.17,16.13,48.83,6.15,118.18,25.01,188.13,51.04,4.92-5.71,12.19-9.33,20.32-9.33Z" fill="#fff"/>
  <path d="M263.47,337.02c20.66-12.25,41.67-22.47,62.98-30.66-.65-2.1-.99-4.33-.99-6.64,0-5.04,1.65-9.7,4.45-13.45-5.4-3.75-11.04-7.28-16.94-10.57-7.23-4.03-14.71-7.63-22.36-10.8-9.82-3.76-20.04-6.7-30.58-8.76-1.03.96-2.06,1.92-3.08,2.9-21.54,20.58-40.43,44.73-56.15,71.78-18.92,32.55-28.66,61.6-32.79,76.03,1.27.61,2.5,1.29,3.67,2.05,19.49-19.91,50.25-47.24,91.79-71.87Z" fill="#fff"/>
  <path d="M404.62,403.3c-4.74-27.39-14.95-52.14-30.43-73.72-3.33-4.64-6.9-9.11-10.67-13.42-4.04,3.8-9.48,6.14-15.47,6.14-7.51,0-14.16-3.67-18.27-9.31-21.16,8.08-42.03,18.21-62.54,30.37-40.53,24.04-70.61,50.66-89.8,70.19,2.66,2.69,4.85,5.84,6.47,9.3,27.75-6.63,83.43-15.64,151.54-18.79,20.7-.96,44.25-1.42,69.17-.77Z" fill="#fff"/>
  <path d="M294.51,610.59c33.53-13.71,62.16-36.92,82.54-66.3-7.54-4.74-12.56-13.14-12.56-22.7,0-3.97.87-7.73,2.42-11.12-70.95-26.3-141.01-45.13-189.08-50.57-1.23,1.29-2.56,2.48-3.98,3.57,8.65,25.76,24.59,61.51,45.6,95.26,11.56,18.57,27,40.31,46.15,60.7,3.76-.84,7.49-1.78,11.17-2.82,6.03-1.72,11.95-3.72,17.74-5.99Z" fill="#fff"/>
  <path d="M153.72,403.63c2.5,0,4.93.28,7.27.8,4.25-14.89,14.07-43.94,33.3-77.09,15.87-27.36,34.93-51.82,56.65-72.74-8.71-1.25-17.62-1.91-26.68-1.91-13.44,0-26.55,1.44-39.18,4.15-32.19,45.22-52.51,99.47-56.45,158.21,6.11-6.99,15.08-11.42,25.09-11.42Z" fill="#fff"/>
  <path d="M257.06,621.12c-15.53-17.01-30.26-36.65-43.86-58.51-20.89-33.56-36.88-69.17-45.81-95.3-4.17,1.88-8.79,2.93-13.67,2.93-9.94,0-18.85-4.36-24.95-11.26,4.44,60.52,26.28,116.22,60.55,162.08,10.85,2.06,22.04,3.19,33.47,3.28,11.6-.16,23.08-1.23,34.27-3.22Z" fill="#fff"/>
  <path d="M367.29,309.29c.26.29.51.59.77.88.13-.24.25-.48.37-.73-.39-.05-.76-.1-1.14-.15Z" fill="#fff"/>
  <path d="M418.09,522.71s0-.04,0-.06c-.05,0-.11,0-.16,0,.05.02.1.04.16.07Z" fill="#fff"/>
  <path d="M276.78,616.59c-3.68,1.05-7.41,1.99-11.17,2.82.08.09.17.17.25.26,9.88-2.26,19.45-5.31,28.66-9.08-5.78,2.27-11.7,4.28-17.74,5.99Z" fill="#fff"/>
  <path d="M222.78,624.33c.49,0,.98.02,1.47.02,11.29,0,22.35-1.01,33.08-2.94-.09-.1-.18-.2-.27-.3-11.19,1.98-22.67,3.06-34.27,3.22Z" fill="#fff"/>
</svg>