<?xml version="1.0" encoding="UTF-8"?>
<svg id="a" xmlns="http://www.w3.org/2000/svg" xmlns:xlink="http://www.w3.org/1999/xlink" viewBox="0 0 3550.89 882.89">
  <defs>
    <linearGradient id="b" x1="2984.33" y1="324.42" x2="3214.91" y2="355.58" gradientUnits="userSpaceOnUse">
      <stop offset="0" stop-color="#0f6bff"/>
      <stop offset=".23" stop-color="#0f6afc"/>
      <stop offset=".35" stop-color="#1068f4"/>
      <stop offset=".45" stop-color="#1364e6"/>
      <stop offset=".54" stop-color="#165fd3"/>
      <stop offset=".62" stop-color="#1b58b9"/>
      <stop offset=".69" stop-color="#204f9a"/>
      <stop offset=".76" stop-color="#274575"/>
      <stop offset=".82" stop-color="#2e394c"/>
      <stop offset=".85" stop-color="#333"/>
    </linearGradient>
    <linearGradient id="c" x1="-6429.01" y1="324.42" x2="-6198.43" y2="355.58" gradientTransform="translate(-3105.7241) scale(-1 1)" xlink:href="#b"/>
  </defs>
  <path d="M2927.78,521.86h140.64c72.58,0,79.48-110.89,79.42-176.83l5.98-202.79-226.03,379.62Z" fill="url(#b)"/>
  <path d="M3379.84,521.86h-140.64c-72.58,0-79.48-110.89-79.42-176.83l-5.98-202.79,226.03,379.62Z" fill="url(#c)"/>
  <g>
    <g>
      <path d="M843.56,238.66c-43.31,0-81.88,19.62-107.93,50.08-2.37-3.05-5.08-5.75-7.78-8.46-8.12-8.12-17.26-15.23-26.73-20.98-22.33-13.53-48.04-20.3-73.42-20.64h0c-36.2,0-72.74,13.87-100.15,41.62-27.74,27.74-41.62,63.95-41.62,100.15,0,25.38,6.77,51.09,20.3,73.42,5.75,9.47,12.86,18.61,20.98,26.73,8.12,8.12,17.26,15.23,26.73,20.98,54.47,33.16,126.88,26.05,173.91-20.98,2.71-2.71,5.41-5.75,7.78-8.46,26.05,30.45,64.62,50.08,107.93,50.08,78.16,0,141.77-63.61,141.77-141.77s-63.61-141.77-141.77-141.77h0ZM553.26,380.42c0-18.95,7.11-37.89,21.65-52.44,14.55-14.55,33.5-21.65,52.44-21.65h0c7.78,0,15.56,1.35,23.01,3.72l-58.53,58.53-34.85,34.85c-2.37-7.44-3.72-15.23-3.72-23.01h0ZM680.14,432.87c-20.3,20.3-49.74,26.39-75.45,18.27l36.2-36.2,57.18-57.18,6.77-6.77c-2.03,9.47-3.05,19.62-3.05,29.77,0,18.95-7.11,37.89-21.65,52.44v-.34h0ZM843.56,454.86c-40.94,0-74.44-33.16-74.44-74.44s33.16-74.44,74.44-74.44,74.44,33.16,74.44,74.44-33.16,74.44-74.44,74.44Z" fill="#333"/>
      <polygon points="375.29 356.4 235.89 140.2 154.69 140.2 154.69 519.82 235.89 519.82 235.89 282.3 387.81 519.82 456.83 519.82 456.83 140.2 375.29 140.2 375.29 356.4" fill="#333"/>
      <polygon points="1252.96 356.4 1113.56 140.2 1032.36 140.2 1032.36 519.82 1113.56 519.82 1113.56 282.3 1265.48 519.82 1334.16 519.82 1334.16 140.2 1252.96 140.2 1252.96 356.4" fill="#0f6bff"/>
      <path d="M1575.4,260.31c-20.3-12.52-43.65-18.61-69.7-18.61s-51.77,6.09-73.08,18.27c-21.32,12.18-37.89,29.1-49.74,50.41-11.84,21.32-17.93,45.34-17.93,71.39s6.09,50.08,18.27,71.39c12.18,21.32,29.1,38.23,51.09,50.41,21.99,12.18,47.37,18.27,76.47,18.27s48.38-4.74,68.01-14.55c19.62-9.47,35.86-23.35,48.38-41.62l-57.52-34.17c-6.09,7.78-14.21,14.21-24.7,18.61-10.49,4.74-21.32,7.11-32.14,7.11-18.27,0-32.82-4.06-44.32-11.84-11.5-8.12-20.3-20.3-27.07-36.54h197.59c1.35-8.12,2.03-17.26,2.03-27.07,0-26.05-5.75-49.74-16.92-71.05-11.5-21.32-27.41-38.23-47.71-50.75l-1.01.34h0ZM1439.38,349.97c.68-11.84,7.44-21.65,20.3-30.11,12.86-8.46,28.08-12.52,45.34-12.52s30.79,3.72,42.29,11.17c11.5,7.44,18.61,17.93,20.98,31.47h-129.25.34Z" fill="#0f6bff"/>
      <path d="M1908.67,259.97c-20.3-12.18-44.66-18.27-73.08-18.27s-29.1,2.37-42.97,7.44c-13.87,4.74-26.73,11.84-38.91,20.98v-20.98h-77.48v379.62h77.48v-128.57c11.84,9.14,25.04,15.9,38.91,20.98,14.21,4.74,28.42,7.44,42.97,7.44,28.08,0,52.44-6.09,73.08-18.61,20.3-12.52,36.2-29.44,47.03-51.09,10.83-21.65,16.24-46.35,16.24-73.76s-5.41-52.11-16.24-73.42c-10.83-21.65-26.39-38.57-47.03-50.75v-1.02h0ZM1874.83,433.88c-12.86,12.52-29.44,18.61-49.74,18.61s-37.56-6.09-51.09-18.61c-13.53-12.52-20.3-28.76-20.3-49.06s6.77-36.88,20.64-49.74,30.79-19.62,51.09-19.62,36.88,6.43,49.74,18.95c12.86,12.52,19.29,29.44,19.29,49.74s-6.43,37.22-19.29,49.74h-.34Z" fill="#0f6bff"/>
      <path d="M2191.53,253.21c-16.24-6.77-31.8-10.15-47.37-10.15-23.01,0-44.66,8.46-64.62,25.04v-127.89h-77.48v379.62h77.48v-165.79c2.03-14.89,7.44-25.71,15.56-32.82,8.46-7.11,17.93-10.49,29.44-10.49s25.04,3.72,34.85,11.5c9.81,7.78,14.55,20.3,14.55,37.56v160.04h77.48v-162.07c-.34-28.76-6.43-51.77-18.27-69.02-11.84-16.92-25.71-28.76-41.62-35.53h0Z" fill="#0f6bff"/>
      <path d="M2491.98,260.31c-21.32-12.52-44.66-18.95-69.7-18.95s-49.06,6.43-70.38,18.95c-21.32,12.52-38.57,29.44-51.09,51.09-12.52,21.32-18.95,45-18.95,70.38s6.43,48.38,18.95,70.04c12.52,21.65,29.44,38.57,51.09,51.09,21.32,12.52,45,18.95,70.38,18.95s48.38-6.43,69.7-18.95c21.32-12.52,38.23-29.77,51.09-51.09,12.52-21.65,18.95-45,18.95-70.04s-6.43-49.06-18.95-70.38c-12.52-21.32-29.44-38.23-51.09-51.09h0ZM2467.28,427.12c-12.86,12.52-28.08,18.95-45.68,18.95s-32.82-6.43-45.34-18.95c-12.52-12.52-18.95-27.74-18.95-45.34s6.43-32.82,18.95-45.68c12.52-12.86,27.74-18.95,45.34-18.95s32.82,6.43,45.68,18.95c12.86,12.86,18.95,28.08,18.95,45.68s-6.43,32.82-18.95,45.34Z" fill="#0f6bff"/>
      <path d="M2812.39,386.18c-10.49-11.84-22.67-20.3-36.2-25.38-13.87-5.08-31.13-9.81-52.11-14.21-16.24-3.05-28.08-6.43-35.53-9.14-7.44-3.05-11.17-7.44-11.17-13.53s3.05-12.18,9.14-16.24c6.09-4.06,14.21-6.09,24.36-6.09s20.98,2.03,28.42,6.43c7.11,4.4,12.86,10.83,17.26,19.62l61.58-30.11c-10.49-17.93-25.38-31.8-43.98-41.28-18.61-9.47-39.92-14.21-63.27-14.21s-38.23,3.38-54.81,10.15c-16.92,6.77-30.11,16.58-39.92,29.44-9.81,12.86-14.89,28.08-14.89,45.34s5.08,32.48,14.89,43.31c9.81,10.83,21.65,18.61,35.53,24.02,13.87,5.08,31.13,10.15,51.43,14.55,17.93,4.06,31.13,7.78,39.59,11.17,8.46,3.38,12.52,8.8,12.52,15.9s-4.4,14.55-13.53,18.95c-9.14,4.4-19.62,6.77-31.47,6.77-29.44,0-48.38-11.17-56.84-33.83l-62.26,31.8c10.15,20.64,25.38,35.86,45.68,46.35,20.3,10.49,44.66,15.56,73.42,15.56s40.26-3.38,58.53-9.81c17.93-6.43,32.48-16.24,43.65-29.1,10.83-12.86,16.58-28.42,16.58-46.35s-5.08-37.22-15.56-49.06l-1.01-1.02h-.03Z" fill="#0f6bff"/>
      <path d="M747.5,616.49c-5.92-4.66-12.27-7.81-19.06-9.46s-12.8-2.47-18.04-2.47c-8.54,0-16.2,1.8-22.99,5.38-6.79,3.59-12.61,7.91-17.46,12.95v-14.55h-30.55v145.5h30.55v-81.48c0-7.95,1.02-14.55,3.05-19.79,2.04-5.24,4.7-9.41,8-12.51,3.3-3.1,6.93-5.28,10.91-6.55,3.97-1.26,7.81-1.89,11.49-1.89,3.88,0,7.86.54,11.93,1.6,4.07,1.07,7.81,2.96,11.2,5.67,3.39,2.72,6.21,6.31,8.44,10.77,2.23,4.47,3.35,10.18,3.35,17.17v87.01h30.55v-87.01c0-12.8-2.09-23.23-6.26-31.28-4.17-8.05-9.22-14.4-15.13-19.06h.02ZM156.33,753.84h32.3v-85.26h83.23v-30.55h-83.23v-57.33h86.72v-30.56h-119.02s0,203.7,0,203.7ZM426.23,627.25c-6.89-6.98-14.99-12.46-24.3-16.44-9.31-3.97-19.21-5.96-29.68-5.96s-20.37,1.99-29.68,5.96c-9.31,3.98-17.41,9.46-24.3,16.44-6.89,6.98-12.32,15.09-16.3,24.3-3.98,9.22-5.97,19.06-5.97,29.54s1.99,20.37,5.97,29.68c3.97,9.31,9.41,17.46,16.3,24.44,6.88,6.98,14.99,12.47,24.3,16.44,9.31,3.97,19.21,5.97,29.68,5.97s20.37-1.99,29.68-5.97c9.31-3.97,17.41-9.46,24.3-16.44,6.88-6.98,12.32-15.13,16.3-24.44,3.97-9.31,5.96-19.21,5.96-29.68s-1.99-20.32-5.96-29.54c-3.98-9.21-9.41-17.31-16.3-24.3ZM414.3,698.98c-2.43,5.53-5.67,10.38-9.75,14.55-4.07,4.17-8.88,7.47-14.4,9.89-5.53,2.43-11.49,3.64-17.9,3.64s-12.37-1.21-17.9-3.64c-5.53-2.42-10.38-5.72-14.55-9.89-4.17-4.17-7.47-9.02-9.89-14.55-2.43-5.53-3.64-11.5-3.64-17.9s1.21-12.37,3.64-17.9c2.42-5.53,5.72-10.33,9.89-14.4,4.17-4.07,9.02-7.32,14.55-9.75,5.53-2.42,11.49-3.64,17.9-3.64s12.37,1.21,17.9,3.64c5.53,2.43,10.33,5.67,14.4,9.75,4.07,4.07,7.32,8.88,9.75,14.4,2.42,5.53,3.64,11.49,3.64,17.9s-1.21,12.37-3.64,17.9ZM576.83,689.53c0,7.96-1.07,14.55-3.2,19.79-2.14,5.24-4.8,9.41-8,12.51-3.2,3.11-6.79,5.29-10.77,6.55-3.98,1.26-7.91,1.89-11.79,1.89s-7.62-.53-11.79-1.6c-4.17-1.06-7.91-2.91-11.2-5.53-3.3-2.62-6.06-6.16-8.29-10.62-2.23-4.46-3.35-10.19-3.35-17.17v-87.01h-30.56v87.01c0,12.8,2.08,23.24,6.26,31.28,4.17,8.05,9.21,14.4,15.13,19.06s12.27,7.81,19.06,9.46c6.79,1.65,12.8,2.47,18.04,2.47,8.34,0,15.9-1.8,22.7-5.38,6.79-3.59,12.7-7.9,17.75-12.95v14.55h30.55v-145.5h-30.55v81.19h.01ZM1086.37,628.42c-5.24-6.98-11.74-12.66-19.5-17.02-7.76-4.37-16.88-6.55-27.35-6.55-11.06,0-21,1.94-29.83,5.82s-16.35,9.27-22.55,16.15c-6.21,6.89-11.01,14.99-14.41,24.3-3.4,9.31-5.09,19.4-5.09,30.26s1.7,20.66,5.09,29.97,8.19,17.41,14.41,24.3c6.21,6.89,13.72,12.27,22.55,16.15s18.77,5.82,29.83,5.82c10.48,0,19.59-2.18,27.35-6.55,7.76-4.36,14.26-10.04,19.5-17.02v19.79h30.55v-145.5h-30.55v20.08ZM1082.88,700.15c-2.33,5.92-5.53,11.01-9.6,15.28-4.07,4.27-8.93,7.62-14.55,10.04-5.63,2.43-11.74,3.64-18.33,3.64s-12.22-1.26-17.46-3.78c-5.24-2.52-9.75-5.97-13.53-10.33-3.78-4.36-6.69-9.41-8.73-15.13-2.04-5.72-3.06-11.88-3.06-18.48s1.02-12.75,3.06-18.48c2.04-5.72,4.95-10.77,8.73-15.13,3.78-4.37,8.29-7.81,13.53-10.33,5.24-2.52,11.06-3.78,17.46-3.78s12.7,1.16,18.33,3.49c5.62,2.33,10.48,5.63,14.55,9.89,4.07,4.27,7.28,9.31,9.6,15.13,2.33,5.82,3.49,12.13,3.49,18.92s-1.16,13.14-3.49,19.06h0ZM1455.21,627.25c-6.89-6.98-14.99-12.46-24.3-16.44-9.31-3.97-19.21-5.96-29.68-5.96s-20.37,1.99-29.68,5.96c-9.31,3.98-17.41,9.46-24.3,16.44s-12.32,15.09-16.29,24.3c-3.98,9.22-5.97,19.06-5.97,29.54s1.99,20.37,5.97,29.68c3.97,9.31,9.41,17.46,16.29,24.44s14.99,12.47,24.3,16.44c9.31,3.97,19.21,5.97,29.68,5.97s20.37-1.99,29.68-5.97c9.31-3.97,17.41-9.46,24.3-16.44,6.88-6.98,12.32-15.13,16.3-24.44,3.97-9.31,5.96-19.21,5.96-29.68s-1.99-20.32-5.96-29.54c-3.98-9.21-9.41-17.31-16.3-24.3ZM1443.28,698.98c-2.43,5.53-5.67,10.38-9.75,14.55-4.07,4.17-8.88,7.47-14.4,9.89-5.53,2.43-11.5,3.64-17.9,3.64s-12.37-1.21-17.9-3.64c-5.53-2.42-10.38-5.72-14.55-9.89-4.17-4.17-7.47-9.02-9.89-14.55-2.43-5.53-3.64-11.5-3.64-17.9s1.21-12.37,3.64-17.9c2.42-5.53,5.72-10.33,9.89-14.4s9.02-7.32,14.55-9.75c5.53-2.42,11.49-3.64,17.9-3.64s12.37,1.21,17.9,3.64c5.53,2.43,10.33,5.67,14.4,9.75,4.07,4.07,7.32,8.88,9.75,14.4,2.42,5.53,3.64,11.49,3.64,17.9s-1.21,12.37-3.64,17.9ZM1627.19,635.55c-4.17-8.05-9.22-14.4-15.13-19.06-5.92-4.66-12.27-7.81-19.06-9.46s-12.8-2.47-18.04-2.47c-8.54,0-16.2,1.8-22.99,5.38-6.79,3.59-12.61,7.91-17.46,12.95v-14.55h-30.55v145.5h30.55v-81.48c0-7.95,1.02-14.55,3.06-19.79,2.04-5.24,4.7-9.41,8-12.51,3.3-3.1,6.93-5.28,10.91-6.55,3.97-1.26,7.81-1.89,11.49-1.89,3.88,0,7.86.54,11.93,1.6,4.07,1.07,7.81,2.96,11.2,5.67,3.39,2.72,6.21,6.31,8.44,10.77,2.23,4.47,3.35,10.18,3.35,17.17v87.01h30.55v-87.01c0-12.8-2.09-23.23-6.26-31.28h.01ZM1281.34,537.92c-4.66,0-8.68,1.65-12.08,4.95-3.4,3.3-5.09,7.38-5.09,12.22s1.7,8.69,5.09,12.08c3.39,3.4,7.42,5.09,12.08,5.09s8.68-1.7,12.08-5.09c3.39-3.39,5.09-7.42,5.09-12.08s-1.7-8.92-5.09-12.22c-3.4-3.3-7.42-4.95-12.08-4.95ZM1217.61,726.77c-6.79,0-11.89-1.41-15.28-4.22-3.4-2.81-5.09-8.29-5.09-16.44v-70.13h33.76v-27.64h-33.76v-48.31l-30.56,10.48v37.83h-29.97v27.64h29.97v72.17c0,9.31.97,16.98,2.91,22.99,1.94,6.02,4.7,10.82,8.29,14.41,3.59,3.59,8.05,6.11,13.39,7.57,5.33,1.46,11.49,2.18,18.48,2.18,3.3,0,6.79-.15,10.48-.44,3.68-.29,7.47-.63,11.35-1.02v-28.23c-2.72.39-5.19.68-7.42.87-2.23.2-4.41.29-6.55.29h0ZM1265.91,753.84h30.56v-145.5h-30.56v145.5ZM912.35,628.42c-5.43-6.98-11.98-12.66-19.64-17.02-7.67-4.37-16.73-6.55-27.21-6.55-11.06,0-21,1.94-29.83,5.82-8.83,3.88-16.35,9.27-22.55,16.15-6.21,6.89-11.01,14.99-14.4,24.3-3.4,9.31-5.09,19.4-5.09,30.26s1.7,20.66,5.09,29.97,8.19,17.41,14.4,24.3c6.21,6.89,13.72,12.27,22.55,16.15s18.77,5.82,29.83,5.82c10.48,0,19.54-2.18,27.21-6.55,7.66-4.36,14.21-9.94,19.64-16.73v19.5h30.56v-203.7h-30.56v78.28ZM908.86,700.15c-2.33,5.92-5.53,11.01-9.6,15.28-4.07,4.27-8.93,7.62-14.55,10.04-5.63,2.43-11.74,3.64-18.33,3.64s-12.22-1.26-17.46-3.78c-5.24-2.52-9.75-5.97-13.53-10.33-3.78-4.36-6.69-9.41-8.73-15.13-2.04-5.72-3.05-11.88-3.05-18.48s1.02-12.75,3.05-18.48c2.04-5.72,4.95-10.77,8.73-15.13s8.29-7.81,13.53-10.33c5.24-2.52,11.06-3.78,17.46-3.78s12.7,1.16,18.33,3.49c5.62,2.33,10.48,5.63,14.55,9.89,4.07,4.27,7.28,9.31,9.6,15.13,2.33,5.82,3.49,12.13,3.49,18.92s-1.16,13.14-3.49,19.06h0Z" fill="#333"/>
    </g>
    <g>
      <path d="M843.56,238.66c-43.31,0-81.88,19.62-107.93,50.08-2.37-3.05-5.08-5.75-7.78-8.46-8.12-8.12-17.26-15.23-26.73-20.98-22.33-13.53-48.04-20.3-73.42-20.64h0c-36.2,0-72.74,13.87-100.15,41.62-27.74,27.74-41.62,63.95-41.62,100.15,0,25.38,6.77,51.09,20.3,73.42,5.75,9.47,12.86,18.61,20.98,26.73,8.12,8.12,17.26,15.23,26.73,20.98,54.47,33.16,126.88,26.05,173.91-20.98,2.71-2.71,5.41-5.75,7.78-8.46,26.05,30.45,64.62,50.08,107.93,50.08,78.16,0,141.77-63.61,141.77-141.77s-63.61-141.77-141.77-141.77h0ZM553.26,380.42c0-18.95,7.11-37.89,21.65-52.44,14.55-14.55,33.5-21.65,52.44-21.65h0c7.78,0,15.56,1.35,23.01,3.72l-58.53,58.53-34.85,34.85c-2.37-7.44-3.72-15.23-3.72-23.01h0ZM680.14,432.87c-20.3,20.3-49.74,26.39-75.45,18.27l36.2-36.2,57.18-57.18,6.77-6.77c-2.03,9.47-3.05,19.62-3.05,29.77,0,18.95-7.11,37.89-21.65,52.44v-.34h0ZM843.56,454.86c-40.94,0-74.44-33.16-74.44-74.44s33.16-74.44,74.44-74.44,74.44,33.16,74.44,74.44-33.16,74.44-74.44,74.44Z" fill="#333"/>
      <polygon points="375.29 356.4 235.89 140.2 154.69 140.2 154.69 519.82 235.89 519.82 235.89 282.3 387.81 519.82 456.83 519.82 456.83 140.2 375.29 140.2 375.29 356.4" fill="#333"/>
      <polygon points="1252.96 356.4 1113.56 140.2 1032.36 140.2 1032.36 519.82 1113.56 519.82 1113.56 282.3 1265.48 519.82 1334.16 519.82 1334.16 140.2 1252.96 140.2 1252.96 356.4" fill="#0f6bff"/>
      <path d="M1575.4,260.31c-20.3-12.52-43.65-18.61-69.7-18.61s-51.77,6.09-73.08,18.27c-21.32,12.18-37.89,29.1-49.74,50.41-11.84,21.32-17.93,45.34-17.93,71.39s6.09,50.08,18.27,71.39c12.18,21.32,29.1,38.23,51.09,50.41,21.99,12.18,47.37,18.27,76.47,18.27s48.38-4.74,68.01-14.55c19.62-9.47,35.86-23.35,48.38-41.62l-57.52-34.17c-6.09,7.78-14.21,14.21-24.7,18.61-10.49,4.74-21.32,7.11-32.14,7.11-18.27,0-32.82-4.06-44.32-11.84-11.5-8.12-20.3-20.3-27.07-36.54h197.59c1.35-8.12,2.03-17.26,2.03-27.07,0-26.05-5.75-49.74-16.92-71.05-11.5-21.32-27.41-38.23-47.71-50.75l-1.01.34h0ZM1439.38,349.97c.68-11.84,7.44-21.65,20.3-30.11,12.86-8.46,28.08-12.52,45.34-12.52s30.79,3.72,42.29,11.17c11.5,7.44,18.61,17.93,20.98,31.47h-129.25.34Z" fill="#0f6bff"/>
      <path d="M1908.67,259.97c-20.3-12.18-44.66-18.27-73.08-18.27s-29.1,2.37-42.97,7.44c-13.87,4.74-26.73,11.84-38.91,20.98v-20.98h-77.48v379.62h77.48v-128.57c11.84,9.14,25.04,15.9,38.91,20.98,14.21,4.74,28.42,7.44,42.97,7.44,28.08,0,52.44-6.09,73.08-18.61,20.3-12.52,36.2-29.44,47.03-51.09,10.83-21.65,16.24-46.35,16.24-73.76s-5.41-52.11-16.24-73.42c-10.83-21.65-26.39-38.57-47.03-50.75v-1.02h0ZM1874.83,433.88c-12.86,12.52-29.44,18.61-49.74,18.61s-37.56-6.09-51.09-18.61c-13.53-12.52-20.3-28.76-20.3-49.06s6.77-36.88,20.64-49.74,30.79-19.62,51.09-19.62,36.88,6.43,49.74,18.95c12.86,12.52,19.29,29.44,19.29,49.74s-6.43,37.22-19.29,49.74h-.34Z" fill="#0f6bff"/>
      <path d="M2191.53,253.21c-16.24-6.77-31.8-10.15-47.37-10.15-23.01,0-44.66,8.46-64.62,25.04v-127.89h-77.48v379.62h77.48v-165.79c2.03-14.89,7.44-25.71,15.56-32.82,8.46-7.11,17.93-10.49,29.44-10.49s25.04,3.72,34.85,11.5c9.81,7.78,14.55,20.3,14.55,37.56v160.04h77.48v-162.07c-.34-28.76-6.43-51.77-18.27-69.02-11.84-16.92-25.71-28.76-41.62-35.53h0Z" fill="#0f6bff"/>
      <path d="M2491.98,260.31c-21.32-12.52-44.66-18.95-69.7-18.95s-49.06,6.43-70.38,18.95c-21.32,12.52-38.57,29.44-51.09,51.09-12.52,21.32-18.95,45-18.95,70.38s6.43,48.38,18.95,70.04c12.52,21.65,29.44,38.57,51.09,51.09,21.32,12.52,45,18.95,70.38,18.95s48.38-6.43,69.7-18.95c21.32-12.52,38.23-29.77,51.09-51.09,12.52-21.65,18.95-45,18.95-70.04s-6.43-49.06-18.95-70.38c-12.52-21.32-29.44-38.23-51.09-51.09h0ZM2467.28,427.12c-12.86,12.52-28.08,18.95-45.68,18.95s-32.82-6.43-45.34-18.95c-12.52-12.52-18.95-27.74-18.95-45.34s6.43-32.82,18.95-45.68c12.52-12.86,27.74-18.95,45.34-18.95s32.82,6.43,45.68,18.95c12.86,12.86,18.95,28.08,18.95,45.68s-6.43,32.82-18.95,45.34Z" fill="#0f6bff"/>
      <path d="M2812.39,386.18c-10.49-11.84-22.67-20.3-36.2-25.38-13.87-5.08-31.13-9.81-52.11-14.21-16.24-3.05-28.08-6.43-35.53-9.14-7.44-3.05-11.17-7.44-11.17-13.53s3.05-12.18,9.14-16.24c6.09-4.06,14.21-6.09,24.36-6.09s20.98,2.03,28.42,6.43c7.11,4.4,12.86,10.83,17.26,19.62l61.58-30.11c-10.49-17.93-25.38-31.8-43.98-41.28-18.61-9.47-39.92-14.21-63.27-14.21s-38.23,3.38-54.81,10.15c-16.92,6.77-30.11,16.58-39.92,29.44-9.81,12.86-14.89,28.08-14.89,45.34s5.08,32.48,14.89,43.31c9.81,10.83,21.65,18.61,35.53,24.02,13.87,5.08,31.13,10.15,51.43,14.55,17.93,4.06,31.13,7.78,39.59,11.17,8.46,3.38,12.52,8.8,12.52,15.9s-4.4,14.55-13.53,18.95c-9.14,4.4-19.62,6.77-31.47,6.77-29.44,0-48.38-11.17-56.84-33.83l-62.26,31.8c10.15,20.64,25.38,35.86,45.68,46.35,20.3,10.49,44.66,15.56,73.42,15.56s40.26-3.38,58.53-9.81c17.93-6.43,32.48-16.24,43.65-29.1,10.83-12.86,16.58-28.42,16.58-46.35s-5.08-37.22-15.56-49.06l-1.01-1.02h-.03Z" fill="#0f6bff"/>
      <path d="M747.5,616.49c-5.92-4.66-12.27-7.81-19.06-9.46s-12.8-2.47-18.04-2.47c-8.54,0-16.2,1.8-22.99,5.38-6.79,3.59-12.61,7.91-17.46,12.95v-14.55h-30.55v145.5h30.55v-81.48c0-7.95,1.02-14.55,3.05-19.79,2.04-5.24,4.7-9.41,8-12.51,3.3-3.1,6.93-5.28,10.91-6.55,3.97-1.26,7.81-1.89,11.49-1.89,3.88,0,7.86.54,11.93,1.6,4.07,1.07,7.81,2.96,11.2,5.67,3.39,2.72,6.21,6.31,8.44,10.77,2.23,4.47,3.35,10.18,3.35,17.17v87.01h30.55v-87.01c0-12.8-2.09-23.23-6.26-31.28-4.17-8.05-9.22-14.4-15.13-19.06h.02ZM156.33,753.84h32.3v-85.26h83.23v-30.55h-83.23v-57.33h86.72v-30.56h-119.02s0,203.7,0,203.7ZM426.23,627.25c-6.89-6.98-14.99-12.46-24.3-16.44-9.31-3.97-19.21-5.96-29.68-5.96s-20.37,1.99-29.68,5.96c-9.31,3.98-17.41,9.46-24.3,16.44-6.89,6.98-12.32,15.09-16.3,24.3-3.98,9.22-5.97,19.06-5.97,29.54s1.99,20.37,5.97,29.68c3.97,9.31,9.41,17.46,16.3,24.44,6.88,6.98,14.99,12.47,24.3,16.44,9.31,3.97,19.21,5.97,29.68,5.97s20.37-1.99,29.68-5.97c9.31-3.97,17.41-9.46,24.3-16.44,6.88-6.98,12.32-15.13,16.3-24.44,3.97-9.31,5.96-19.21,5.96-29.68s-1.99-20.32-5.96-29.54c-3.98-9.21-9.41-17.31-16.3-24.3ZM414.3,698.98c-2.43,5.53-5.67,10.38-9.75,14.55-4.07,4.17-8.88,7.47-14.4,9.89-5.53,2.43-11.49,3.64-17.9,3.64s-12.37-1.21-17.9-3.64c-5.53-2.42-10.38-5.72-14.55-9.89-4.17-4.17-7.47-9.02-9.89-14.55-2.43-5.53-3.64-11.5-3.64-17.9s1.21-12.37,3.64-17.9c2.42-5.53,5.72-10.33,9.89-14.4,4.17-4.07,9.02-7.32,14.55-9.75,5.53-2.42,11.49-3.64,17.9-3.64s12.37,1.21,17.9,3.64c5.53,2.43,10.33,5.67,14.4,9.75,4.07,4.07,7.32,8.88,9.75,14.4,2.42,5.53,3.64,11.49,3.64,17.9s-1.21,12.37-3.64,17.9ZM576.83,689.53c0,7.96-1.07,14.55-3.2,19.79-2.14,5.24-4.8,9.41-8,12.51-3.2,3.11-6.79,5.29-10.77,6.55-3.98,1.26-7.91,1.89-11.79,1.89s-7.62-.53-11.79-1.6c-4.17-1.06-7.91-2.91-11.2-5.53-3.3-2.62-6.06-6.16-8.29-10.62-2.23-4.46-3.35-10.19-3.35-17.17v-87.01h-30.56v87.01c0,12.8,2.08,23.24,6.26,31.28,4.17,8.05,9.21,14.4,15.13,19.06s12.27,7.81,19.06,9.46c6.79,1.65,12.8,2.47,18.04,2.47,8.34,0,15.9-1.8,22.7-5.38,6.79-3.59,12.7-7.9,17.75-12.95v14.55h30.55v-145.5h-30.55v81.19h.01ZM1086.37,628.42c-5.24-6.98-11.74-12.66-19.5-17.02-7.76-4.37-16.88-6.55-27.35-6.55-11.06,0-21,1.94-29.83,5.82s-16.35,9.27-22.55,16.15c-6.21,6.89-11.01,14.99-14.41,24.3-3.4,9.31-5.09,19.4-5.09,30.26s1.7,20.66,5.09,29.97,8.19,17.41,14.41,24.3c6.21,6.89,13.72,12.27,22.55,16.15s18.77,5.82,29.83,5.82c10.48,0,19.59-2.18,27.35-6.55,7.76-4.36,14.26-10.04,19.5-17.02v19.79h30.55v-145.5h-30.55v20.08ZM1082.88,700.15c-2.33,5.92-5.53,11.01-9.6,15.28-4.07,4.27-8.93,7.62-14.55,10.04-5.63,2.43-11.74,3.64-18.33,3.64s-12.22-1.26-17.46-3.78c-5.24-2.52-9.75-5.97-13.53-10.33-3.78-4.36-6.69-9.41-8.73-15.13-2.04-5.72-3.06-11.88-3.06-18.48s1.02-12.75,3.06-18.48c2.04-5.72,4.95-10.77,8.73-15.13,3.78-4.37,8.29-7.81,13.53-10.33,5.24-2.52,11.06-3.78,17.46-3.78s12.7,1.16,18.33,3.49c5.62,2.33,10.48,5.63,14.55,9.89,4.07,4.27,7.28,9.31,9.6,15.13,2.33,5.82,3.49,12.13,3.49,18.92s-1.16,13.14-3.49,19.06h0ZM1455.21,627.25c-6.89-6.98-14.99-12.46-24.3-16.44-9.31-3.97-19.21-5.96-29.68-5.96s-20.37,1.99-29.68,5.96c-9.31,3.98-17.41,9.46-24.3,16.44s-12.32,15.09-16.29,24.3c-3.98,9.22-5.97,19.06-5.97,29.54s1.99,20.37,5.97,29.68c3.97,9.31,9.41,17.46,16.29,24.44s14.99,12.47,24.3,16.44c9.31,3.97,19.21,5.97,29.68,5.97s20.37-1.99,29.68-5.97c9.31-3.97,17.41-9.46,24.3-16.44,6.88-6.98,12.32-15.13,16.3-24.44,3.97-9.31,5.96-19.21,5.96-29.68s-1.99-20.32-5.96-29.54c-3.98-9.21-9.41-17.31-16.3-24.3ZM1443.28,698.98c-2.43,5.53-5.67,10.38-9.75,14.55-4.07,4.17-8.88,7.47-14.4,9.89-5.53,2.43-11.5,3.64-17.9,3.64s-12.37-1.21-17.9-3.64c-5.53-2.42-10.38-5.72-14.55-9.89-4.17-4.17-7.47-9.02-9.89-14.55-2.43-5.53-3.64-11.5-3.64-17.9s1.21-12.37,3.64-17.9c2.42-5.53,5.72-10.33,9.89-14.4s9.02-7.32,14.55-9.75c5.53-2.42,11.49-3.64,17.9-3.64s12.37,1.21,17.9,3.64c5.53,2.43,10.33,5.67,14.4,9.75,4.07,4.07,7.32,8.88,9.75,14.4,2.42,5.53,3.64,11.49,3.64,17.9s-1.21,12.37-3.64,17.9ZM1627.19,635.55c-4.17-8.05-9.22-14.4-15.13-19.06-5.92-4.66-12.27-7.81-19.06-9.46s-12.8-2.47-18.04-2.47c-8.54,0-16.2,1.8-22.99,5.38-6.79,3.59-12.61,7.91-17.46,12.95v-14.55h-30.55v145.5h30.55v-81.48c0-7.95,1.02-14.55,3.06-19.79,2.04-5.24,4.7-9.41,8-12.51,3.3-3.1,6.93-5.28,10.91-6.55,3.97-1.26,7.81-1.89,11.49-1.89,3.88,0,7.86.54,11.93,1.6,4.07,1.07,7.81,2.96,11.2,5.67,3.39,2.72,6.21,6.31,8.44,10.77,2.23,4.47,3.35,10.18,3.35,17.17v87.01h30.55v-87.01c0-12.8-2.09-23.23-6.26-31.28h.01ZM1281.34,537.92c-4.66,0-8.68,1.65-12.08,4.95-3.4,3.3-5.09,7.38-5.09,12.22s1.7,8.69,5.09,12.08c3.39,3.4,7.42,5.09,12.08,5.09s8.68-1.7,12.08-5.09c3.39-3.39,5.09-7.42,5.09-12.08s-1.7-8.92-5.09-12.22c-3.4-3.3-7.42-4.95-12.08-4.95ZM1217.61,726.77c-6.79,0-11.89-1.41-15.28-4.22-3.4-2.81-5.09-8.29-5.09-16.44v-70.13h33.76v-27.64h-33.76v-48.31l-30.56,10.48v37.83h-29.97v27.64h29.97v72.17c0,9.31.97,16.98,2.91,22.99,1.94,6.02,4.7,10.82,8.29,14.41,3.59,3.59,8.05,6.11,13.39,7.57,5.33,1.46,11.49,2.18,18.48,2.18,3.3,0,6.79-.15,10.48-.44,3.68-.29,7.47-.63,11.35-1.02v-28.23c-2.72.39-5.19.68-7.42.87-2.23.2-4.41.29-6.55.29h0ZM1265.91,753.84h30.56v-145.5h-30.56v145.5ZM912.35,628.42c-5.43-6.98-11.98-12.66-19.64-17.02-7.67-4.37-16.73-6.55-27.21-6.55-11.06,0-21,1.94-29.83,5.82-8.83,3.88-16.35,9.27-22.55,16.15-6.21,6.89-11.01,14.99-14.4,24.3-3.4,9.31-5.09,19.4-5.09,30.26s1.7,20.66,5.09,29.97,8.19,17.41,14.4,24.3c6.21,6.89,13.72,12.27,22.55,16.15s18.77,5.82,29.83,5.82c10.48,0,19.54-2.18,27.21-6.55,7.66-4.36,14.21-9.94,19.64-16.73v19.5h30.56v-203.7h-30.56v78.28ZM908.86,700.15c-2.33,5.92-5.53,11.01-9.6,15.28-4.07,4.27-8.93,7.62-14.55,10.04-5.63,2.43-11.74,3.64-18.33,3.64s-12.22-1.26-17.46-3.78c-5.24-2.52-9.75-5.97-13.53-10.33-3.78-4.36-6.69-9.41-8.73-15.13-2.04-5.72-3.05-11.88-3.05-18.48s1.02-12.75,3.05-18.48c2.04-5.72,4.95-10.77,8.73-15.13s8.29-7.81,13.53-10.33c5.24-2.52,11.06-3.78,17.46-3.78s12.7,1.16,18.33,3.49c5.62,2.33,10.48,5.63,14.55,9.89,4.07,4.27,7.28,9.31,9.6,15.13,2.33,5.82,3.49,12.13,3.49,18.92s-1.16,13.14-3.49,19.06h0Z" fill="#333"/>
    </g>
  </g>
  <g>
    <g>
      <path d="M843.56,238.66c-43.31,0-81.88,19.62-107.93,50.08-2.37-3.05-5.08-5.75-7.78-8.46-8.12-8.12-17.26-15.23-26.73-20.98-22.33-13.53-48.04-20.3-73.42-20.64h0c-36.2,0-72.74,13.87-100.15,41.62-27.74,27.74-41.62,63.95-41.62,100.15,0,25.38,6.77,51.09,20.3,73.42,5.75,9.47,12.86,18.61,20.98,26.73,8.12,8.12,17.26,15.23,26.73,20.98,54.47,33.16,126.88,26.05,173.91-20.98,2.71-2.71,5.41-5.75,7.78-8.46,26.05,30.45,64.62,50.08,107.93,50.08,78.16,0,141.77-63.61,141.77-141.77s-63.61-141.77-141.77-141.77h0ZM553.26,380.42c0-18.95,7.11-37.89,21.65-52.44,14.55-14.55,33.5-21.65,52.44-21.65h0c7.78,0,15.56,1.35,23.01,3.72l-58.53,58.53-34.85,34.85c-2.37-7.44-3.72-15.23-3.72-23.01h0ZM680.14,432.87c-20.3,20.3-49.74,26.39-75.45,18.27l36.2-36.2,57.18-57.18,6.77-6.77c-2.03,9.47-3.05,19.62-3.05,29.77,0,18.95-7.11,37.89-21.65,52.44v-.34h0ZM843.56,454.86c-40.94,0-74.44-33.16-74.44-74.44s33.16-74.44,74.44-74.44,74.44,33.16,74.44,74.44-33.16,74.44-74.44,74.44Z" fill="#333"/>
      <polygon points="375.29 356.4 235.89 140.2 154.69 140.2 154.69 519.82 235.89 519.82 235.89 282.3 387.81 519.82 456.83 519.82 456.83 140.2 375.29 140.2 375.29 356.4" fill="#333"/>
      <polygon points="1252.96 356.4 1113.56 140.2 1032.36 140.2 1032.36 519.82 1113.56 519.82 1113.56 282.3 1265.48 519.82 1334.16 519.82 1334.16 140.2 1252.96 140.2 1252.96 356.4" fill="#0f6bff"/>
      <path d="M1575.4,260.31c-20.3-12.52-43.65-18.61-69.7-18.61s-51.77,6.09-73.08,18.27c-21.32,12.18-37.89,29.1-49.74,50.41-11.84,21.32-17.93,45.34-17.93,71.39s6.09,50.08,18.27,71.39c12.18,21.32,29.1,38.23,51.09,50.41,21.99,12.18,47.37,18.27,76.47,18.27s48.38-4.74,68.01-14.55c19.62-9.47,35.86-23.35,48.38-41.62l-57.52-34.17c-6.09,7.78-14.21,14.21-24.7,18.61-10.49,4.74-21.32,7.11-32.14,7.11-18.27,0-32.82-4.06-44.32-11.84-11.5-8.12-20.3-20.3-27.07-36.54h197.59c1.35-8.12,2.03-17.26,2.03-27.07,0-26.05-5.75-49.74-16.92-71.05-11.5-21.32-27.41-38.23-47.71-50.75l-1.01.34h0ZM1439.38,349.97c.68-11.84,7.44-21.65,20.3-30.11,12.86-8.46,28.08-12.52,45.34-12.52s30.79,3.72,42.29,11.17c11.5,7.44,18.61,17.93,20.98,31.47h-129.25.34Z" fill="#0f6bff"/>
      <path d="M1908.67,259.97c-20.3-12.18-44.66-18.27-73.08-18.27s-29.1,2.37-42.97,7.44c-13.87,4.74-26.73,11.84-38.91,20.98v-20.98h-77.48v379.62h77.48v-128.57c11.84,9.14,25.04,15.9,38.91,20.98,14.21,4.74,28.42,7.44,42.97,7.44,28.08,0,52.44-6.09,73.08-18.61,20.3-12.52,36.2-29.44,47.03-51.09,10.83-21.65,16.24-46.35,16.24-73.76s-5.41-52.11-16.24-73.42c-10.83-21.65-26.39-38.57-47.03-50.75v-1.02h0ZM1874.83,433.88c-12.86,12.52-29.44,18.61-49.74,18.61s-37.56-6.09-51.09-18.61c-13.53-12.52-20.3-28.76-20.3-49.06s6.77-36.88,20.64-49.74,30.79-19.62,51.09-19.62,36.88,6.43,49.74,18.95c12.86,12.52,19.29,29.44,19.29,49.74s-6.43,37.22-19.29,49.74h-.34Z" fill="#0f6bff"/>
      <path d="M2191.53,253.21c-16.24-6.77-31.8-10.15-47.37-10.15-23.01,0-44.66,8.46-64.62,25.04v-127.89h-77.48v379.62h77.48v-165.79c2.03-14.89,7.44-25.71,15.56-32.82,8.46-7.11,17.93-10.49,29.44-10.49s25.04,3.72,34.85,11.5c9.81,7.78,14.55,20.3,14.55,37.56v160.04h77.48v-162.07c-.34-28.76-6.43-51.77-18.27-69.02-11.84-16.92-25.71-28.76-41.62-35.53h0Z" fill="#0f6bff"/>
      <path d="M2491.98,260.31c-21.32-12.52-44.66-18.95-69.7-18.95s-49.06,6.43-70.38,18.95c-21.32,12.52-38.57,29.44-51.09,51.09-12.52,21.32-18.95,45-18.95,70.38s6.43,48.38,18.95,70.04c12.52,21.65,29.44,38.57,51.09,51.09,21.32,12.52,45,18.95,70.38,18.95s48.38-6.43,69.7-18.95c21.32-12.52,38.23-29.77,51.09-51.09,12.52-21.65,18.95-45,18.95-70.04s-6.43-49.06-18.95-70.38c-12.52-21.32-29.44-38.23-51.09-51.09h0ZM2467.28,427.12c-12.86,12.52-28.08,18.95-45.68,18.95s-32.82-6.43-45.34-18.95c-12.52-12.52-18.95-27.74-18.95-45.34s6.43-32.82,18.95-45.68c12.52-12.86,27.74-18.95,45.34-18.95s32.82,6.43,45.68,18.95c12.86,12.86,18.95,28.08,18.95,45.68s-6.43,32.82-18.95,45.34Z" fill="#0f6bff"/>
      <path d="M2812.39,386.18c-10.49-11.84-22.67-20.3-36.2-25.38-13.87-5.08-31.13-9.81-52.11-14.21-16.24-3.05-28.08-6.43-35.53-9.14-7.44-3.05-11.17-7.44-11.17-13.53s3.05-12.18,9.14-16.24c6.09-4.06,14.21-6.09,24.36-6.09s20.98,2.03,28.42,6.43c7.11,4.4,12.86,10.83,17.26,19.62l61.58-30.11c-10.49-17.93-25.38-31.8-43.98-41.28-18.61-9.47-39.92-14.21-63.27-14.21s-38.23,3.38-54.81,10.15c-16.92,6.77-30.11,16.58-39.92,29.44-9.81,12.86-14.89,28.08-14.89,45.34s5.08,32.48,14.89,43.31c9.81,10.83,21.65,18.61,35.53,24.02,13.87,5.08,31.13,10.15,51.43,14.55,17.93,4.06,31.13,7.78,39.59,11.17,8.46,3.38,12.52,8.8,12.52,15.9s-4.4,14.55-13.53,18.95c-9.14,4.4-19.62,6.77-31.47,6.77-29.44,0-48.38-11.17-56.84-33.83l-62.26,31.8c10.15,20.64,25.38,35.86,45.68,46.35,20.3,10.49,44.66,15.56,73.42,15.56s40.26-3.38,58.53-9.81c17.93-6.43,32.48-16.24,43.65-29.1,10.83-12.86,16.58-28.42,16.58-46.35s-5.08-37.22-15.56-49.06l-1.01-1.02h-.03Z" fill="#0f6bff"/>
      <path d="M747.5,616.49c-5.92-4.66-12.27-7.81-19.06-9.46s-12.8-2.47-18.04-2.47c-8.54,0-16.2,1.8-22.99,5.38-6.79,3.59-12.61,7.91-17.46,12.95v-14.55h-30.55v145.5h30.55v-81.48c0-7.95,1.02-14.55,3.05-19.79,2.04-5.24,4.7-9.41,8-12.51,3.3-3.1,6.93-5.28,10.91-6.55,3.97-1.26,7.81-1.89,11.49-1.89,3.88,0,7.86.54,11.93,1.6,4.07,1.07,7.81,2.96,11.2,5.67,3.39,2.72,6.21,6.31,8.44,10.77,2.23,4.47,3.35,10.18,3.35,17.17v87.01h30.55v-87.01c0-12.8-2.09-23.23-6.26-31.28-4.17-8.05-9.22-14.4-15.13-19.06h.02ZM156.33,753.84h32.3v-85.26h83.23v-30.55h-83.23v-57.33h86.72v-30.56h-119.02s0,203.7,0,203.7ZM426.23,627.25c-6.89-6.98-14.99-12.46-24.3-16.44-9.31-3.97-19.21-5.96-29.68-5.96s-20.37,1.99-29.68,5.96c-9.31,3.98-17.41,9.46-24.3,16.44-6.89,6.98-12.32,15.09-16.3,24.3-3.98,9.22-5.97,19.06-5.97,29.54s1.99,20.37,5.97,29.68c3.97,9.31,9.41,17.46,16.3,24.44,6.88,6.98,14.99,12.47,24.3,16.44,9.31,3.97,19.21,5.97,29.68,5.97s20.37-1.99,29.68-5.97c9.31-3.97,17.41-9.46,24.3-16.44,6.88-6.98,12.32-15.13,16.3-24.44,3.97-9.31,5.96-19.21,5.96-29.68s-1.99-20.32-5.96-29.54c-3.98-9.21-9.41-17.31-16.3-24.3ZM414.3,698.98c-2.43,5.53-5.67,10.38-9.75,14.55-4.07,4.17-8.88,7.47-14.4,9.89-5.53,2.43-11.49,3.64-17.9,3.64s-12.37-1.21-17.9-3.64c-5.53-2.42-10.38-5.72-14.55-9.89-4.17-4.17-7.47-9.02-9.89-14.55-2.43-5.53-3.64-11.5-3.64-17.9s1.21-12.37,3.64-17.9c2.42-5.53,5.72-10.33,9.89-14.4,4.17-4.07,9.02-7.32,14.55-9.75,5.53-2.42,11.49-3.64,17.9-3.64s12.37,1.21,17.9,3.64c5.53,2.43,10.33,5.67,14.4,9.75,4.07,4.07,7.32,8.88,9.75,14.4,2.42,5.53,3.64,11.49,3.64,17.9s-1.21,12.37-3.64,17.9ZM576.83,689.53c0,7.96-1.07,14.55-3.2,19.79-2.14,5.24-4.8,9.41-8,12.51-3.2,3.11-6.79,5.29-10.77,6.55-3.98,1.26-7.91,1.89-11.79,1.89s-7.62-.53-11.79-1.6c-4.17-1.06-7.91-2.91-11.2-5.53-3.3-2.62-6.06-6.16-8.29-10.62-2.23-4.46-3.35-10.19-3.35-17.17v-87.01h-30.56v87.01c0,12.8,2.08,23.24,6.26,31.28,4.17,8.05,9.21,14.4,15.13,19.06s12.27,7.81,19.06,9.46c6.79,1.65,12.8,2.47,18.04,2.47,8.34,0,15.9-1.8,22.7-5.38,6.79-3.59,12.7-7.9,17.75-12.95v14.55h30.55v-145.5h-30.55v81.19h.01ZM1086.37,628.42c-5.24-6.98-11.74-12.66-19.5-17.02-7.76-4.37-16.88-6.55-27.35-6.55-11.06,0-21,1.94-29.83,5.82s-16.35,9.27-22.55,16.15c-6.21,6.89-11.01,14.99-14.41,24.3-3.4,9.31-5.09,19.4-5.09,30.26s1.7,20.66,5.09,29.97,8.19,17.41,14.41,24.3c6.21,6.89,13.72,12.27,22.55,16.15s18.77,5.82,29.83,5.82c10.48,0,19.59-2.18,27.35-6.55,7.76-4.36,14.26-10.04,19.5-17.02v19.79h30.55v-145.5h-30.55v20.08ZM1082.88,700.15c-2.33,5.92-5.53,11.01-9.6,15.28-4.07,4.27-8.93,7.62-14.55,10.04-5.63,2.43-11.74,3.64-18.33,3.64s-12.22-1.26-17.46-3.78c-5.24-2.52-9.75-5.97-13.53-10.33-3.78-4.36-6.69-9.41-8.73-15.13-2.04-5.72-3.06-11.88-3.06-18.48s1.02-12.75,3.06-18.48c2.04-5.72,4.95-10.77,8.73-15.13,3.78-4.37,8.29-7.81,13.53-10.33,5.24-2.52,11.06-3.78,17.46-3.78s12.7,1.16,18.33,3.49c5.62,2.33,10.48,5.63,14.55,9.89,4.07,4.27,7.28,9.31,9.6,15.13,2.33,5.82,3.49,12.13,3.49,18.92s-1.16,13.14-3.49,19.06h0ZM1455.21,627.25c-6.89-6.98-14.99-12.46-24.3-16.44-9.31-3.97-19.21-5.96-29.68-5.96s-20.37,1.99-29.68,5.96c-9.31,3.98-17.41,9.46-24.3,16.44s-12.32,15.09-16.29,24.3c-3.98,9.22-5.97,19.06-5.97,29.54s1.99,20.37,5.97,29.68c3.97,9.31,9.41,17.46,16.29,24.44s14.99,12.47,24.3,16.44c9.31,3.97,19.21,5.97,29.68,5.97s20.37-1.99,29.68-5.97c9.31-3.97,17.41-9.46,24.3-16.44,6.88-6.98,12.32-15.13,16.3-24.44,3.97-9.31,5.96-19.21,5.96-29.68s-1.99-20.32-5.96-29.54c-3.98-9.21-9.41-17.31-16.3-24.3ZM1443.28,698.98c-2.43,5.53-5.67,10.38-9.75,14.55-4.07,4.17-8.88,7.47-14.4,9.89-5.53,2.43-11.5,3.64-17.9,3.64s-12.37-1.21-17.9-3.64c-5.53-2.42-10.38-5.72-14.55-9.89-4.17-4.17-7.47-9.02-9.89-14.55-2.43-5.53-3.64-11.5-3.64-17.9s1.21-12.37,3.64-17.9c2.42-5.53,5.72-10.33,9.89-14.4s9.02-7.32,14.55-9.75c5.53-2.42,11.49-3.64,17.9-3.64s12.37,1.21,17.9,3.64c5.53,2.43,10.33,5.67,14.4,9.75,4.07,4.07,7.32,8.88,9.75,14.4,2.42,5.53,3.64,11.49,3.64,17.9s-1.21,12.37-3.64,17.9ZM1627.19,635.55c-4.17-8.05-9.22-14.4-15.13-19.06-5.92-4.66-12.27-7.81-19.06-9.46s-12.8-2.47-18.04-2.47c-8.54,0-16.2,1.8-22.99,5.38-6.79,3.59-12.61,7.91-17.46,12.95v-14.55h-30.55v145.5h30.55v-81.48c0-7.95,1.02-14.55,3.06-19.79,2.04-5.24,4.7-9.41,8-12.51,3.3-3.1,6.93-5.28,10.91-6.55,3.97-1.26,7.81-1.89,11.49-1.89,3.88,0,7.86.54,11.93,1.6,4.07,1.07,7.81,2.96,11.2,5.67,3.39,2.72,6.21,6.31,8.44,10.77,2.23,4.47,3.35,10.18,3.35,17.17v87.01h30.55v-87.01c0-12.8-2.09-23.23-6.26-31.28h.01ZM1281.34,537.92c-4.66,0-8.68,1.65-12.08,4.95-3.4,3.3-5.09,7.38-5.09,12.22s1.7,8.69,5.09,12.08c3.39,3.4,7.42,5.09,12.08,5.09s8.68-1.7,12.08-5.09c3.39-3.39,5.09-7.42,5.09-12.08s-1.7-8.92-5.09-12.22c-3.4-3.3-7.42-4.95-12.08-4.95ZM1217.61,726.77c-6.79,0-11.89-1.41-15.28-4.22-3.4-2.81-5.09-8.29-5.09-16.44v-70.13h33.76v-27.64h-33.76v-48.31l-30.56,10.48v37.83h-29.97v27.64h29.97v72.17c0,9.31.97,16.98,2.91,22.99,1.94,6.02,4.7,10.82,8.29,14.41,3.59,3.59,8.05,6.11,13.39,7.57,5.33,1.46,11.49,2.18,18.48,2.18,3.3,0,6.79-.15,10.48-.44,3.68-.29,7.47-.63,11.35-1.02v-28.23c-2.72.39-5.19.68-7.42.87-2.23.2-4.41.29-6.55.29h0ZM1265.91,753.84h30.56v-145.5h-30.56v145.5ZM912.35,628.42c-5.43-6.98-11.98-12.66-19.64-17.02-7.67-4.37-16.73-6.55-27.21-6.55-11.06,0-21,1.94-29.83,5.82-8.83,3.88-16.35,9.27-22.55,16.15-6.21,6.89-11.01,14.99-14.4,24.3-3.4,9.31-5.09,19.4-5.09,30.26s1.7,20.66,5.09,29.97,8.19,17.41,14.4,24.3c6.21,6.89,13.72,12.27,22.55,16.15s18.77,5.82,29.83,5.82c10.48,0,19.54-2.18,27.21-6.55,7.66-4.36,14.21-9.94,19.64-16.73v19.5h30.56v-203.7h-30.56v78.28ZM908.86,700.15c-2.33,5.92-5.53,11.01-9.6,15.28-4.07,4.27-8.93,7.62-14.55,10.04-5.63,2.43-11.74,3.64-18.33,3.64s-12.22-1.26-17.46-3.78c-5.24-2.52-9.75-5.97-13.53-10.33-3.78-4.36-6.69-9.41-8.73-15.13-2.04-5.72-3.05-11.88-3.05-18.48s1.02-12.75,3.05-18.48c2.04-5.72,4.95-10.77,8.73-15.13s8.29-7.81,13.53-10.33c5.24-2.52,11.06-3.78,17.46-3.78s12.7,1.16,18.33,3.49c5.62,2.33,10.48,5.63,14.55,9.89,4.07,4.27,7.28,9.31,9.6,15.13,2.33,5.82,3.49,12.13,3.49,18.92s-1.16,13.14-3.49,19.06h0Z" fill="#333"/>
    </g>
    <g>
      <path d="M843.56,238.66c-43.31,0-81.88,19.62-107.93,50.08-2.37-3.05-5.08-5.75-7.78-8.46-8.12-8.12-17.26-15.23-26.73-20.98-22.33-13.53-48.04-20.3-73.42-20.64h0c-36.2,0-72.74,13.87-100.15,41.62-27.74,27.74-41.62,63.95-41.62,100.15,0,25.38,6.77,51.09,20.3,73.42,5.75,9.47,12.86,18.61,20.98,26.73,8.12,8.12,17.26,15.23,26.73,20.98,54.47,33.16,126.88,26.05,173.91-20.98,2.71-2.71,5.41-5.75,7.78-8.46,26.05,30.45,64.62,50.08,107.93,50.08,78.16,0,141.77-63.61,141.77-141.77s-63.61-141.77-141.77-141.77h0ZM553.26,380.42c0-18.95,7.11-37.89,21.65-52.44,14.55-14.55,33.5-21.65,52.44-21.65h0c7.78,0,15.56,1.35,23.01,3.72l-58.53,58.53-34.85,34.85c-2.37-7.44-3.72-15.23-3.72-23.01h0ZM680.14,432.87c-20.3,20.3-49.74,26.39-75.45,18.27l36.2-36.2,57.18-57.18,6.77-6.77c-2.03,9.47-3.05,19.62-3.05,29.77,0,18.95-7.11,37.89-21.65,52.44v-.34h0ZM843.56,454.86c-40.94,0-74.44-33.16-74.44-74.44s33.16-74.44,74.44-74.44,74.44,33.16,74.44,74.44-33.16,74.44-74.44,74.44Z" fill="#333"/>
      <polygon points="375.29 356.4 235.89 140.2 154.69 140.2 154.69 519.82 235.89 519.82 235.89 282.3 387.81 519.82 456.83 519.82 456.83 140.2 375.29 140.2 375.29 356.4" fill="#333"/>
      <polygon points="1252.96 356.4 1113.56 140.2 1032.36 140.2 1032.36 519.82 1113.56 519.82 1113.56 282.3 1265.48 519.82 1334.16 519.82 1334.16 140.2 1252.96 140.2 1252.96 356.4" fill="#0f6bff"/>
      <path d="M1575.4,260.31c-20.3-12.52-43.65-18.61-69.7-18.61s-51.77,6.09-73.08,18.27c-21.32,12.18-37.89,29.1-49.74,50.41-11.84,21.32-17.93,45.34-17.93,71.39s6.09,50.08,18.27,71.39c12.18,21.32,29.1,38.23,51.09,50.41,21.99,12.18,47.37,18.27,76.47,18.27s48.38-4.74,68.01-14.55c19.62-9.47,35.86-23.35,48.38-41.62l-57.52-34.17c-6.09,7.78-14.21,14.21-24.7,18.61-10.49,4.74-21.32,7.11-32.14,7.11-18.27,0-32.82-4.06-44.32-11.84-11.5-8.12-20.3-20.3-27.07-36.54h197.59c1.35-8.12,2.03-17.26,2.03-27.07,0-26.05-5.75-49.74-16.92-71.05-11.5-21.32-27.41-38.23-47.71-50.75l-1.01.34h0ZM1439.38,349.97c.68-11.84,7.44-21.65,20.3-30.11,12.86-8.46,28.08-12.52,45.34-12.52s30.79,3.72,42.29,11.17c11.5,7.44,18.61,17.93,20.98,31.47h-129.25.34Z" fill="#0f6bff"/>
      <path d="M1908.67,259.97c-20.3-12.18-44.66-18.27-73.08-18.27s-29.1,2.37-42.97,7.44c-13.87,4.74-26.73,11.84-38.91,20.98v-20.98h-77.48v379.62h77.48v-128.57c11.84,9.14,25.04,15.9,38.91,20.98,14.21,4.74,28.42,7.44,42.97,7.44,28.08,0,52.44-6.09,73.08-18.61,20.3-12.52,36.2-29.44,47.03-51.09,10.83-21.65,16.24-46.35,16.24-73.76s-5.41-52.11-16.24-73.42c-10.83-21.65-26.39-38.57-47.03-50.75v-1.02h0ZM1874.83,433.88c-12.86,12.52-29.44,18.61-49.74,18.61s-37.56-6.09-51.09-18.61c-13.53-12.52-20.3-28.76-20.3-49.06s6.77-36.88,20.64-49.74,30.79-19.62,51.09-19.62,36.88,6.43,49.74,18.95c12.86,12.52,19.29,29.44,19.29,49.74s-6.43,37.22-19.29,49.74h-.34Z" fill="#0f6bff"/>
      <path d="M2191.53,253.21c-16.24-6.77-31.8-10.15-47.37-10.15-23.01,0-44.66,8.46-64.62,25.04v-127.89h-77.48v379.62h77.48v-165.79c2.03-14.89,7.44-25.71,15.56-32.82,8.46-7.11,17.93-10.49,29.44-10.49s25.04,3.72,34.85,11.5c9.81,7.78,14.55,20.3,14.55,37.56v160.04h77.48v-162.07c-.34-28.76-6.43-51.77-18.27-69.02-11.84-16.92-25.71-28.76-41.62-35.53h0Z" fill="#0f6bff"/>
      <path d="M2491.98,260.31c-21.32-12.52-44.66-18.95-69.7-18.95s-49.06,6.43-70.38,18.95c-21.32,12.52-38.57,29.44-51.09,51.09-12.52,21.32-18.95,45-18.95,70.38s6.43,48.38,18.95,70.04c12.52,21.65,29.44,38.57,51.09,51.09,21.32,12.52,45,18.95,70.38,18.95s48.38-6.43,69.7-18.95c21.32-12.52,38.23-29.77,51.09-51.09,12.52-21.65,18.95-45,18.95-70.04s-6.43-49.06-18.95-70.38c-12.52-21.32-29.44-38.23-51.09-51.09h0ZM2467.28,427.12c-12.86,12.52-28.08,18.95-45.68,18.95s-32.82-6.43-45.34-18.95c-12.52-12.52-18.95-27.74-18.95-45.34s6.43-32.82,18.95-45.68c12.52-12.86,27.74-18.95,45.34-18.95s32.82,6.43,45.68,18.95c12.86,12.86,18.95,28.08,18.95,45.68s-6.43,32.82-18.95,45.34Z" fill="#0f6bff"/>
      <path d="M2812.39,386.18c-10.49-11.84-22.67-20.3-36.2-25.38-13.87-5.08-31.13-9.81-52.11-14.21-16.24-3.05-28.08-6.43-35.53-9.14-7.44-3.05-11.17-7.44-11.17-13.53s3.05-12.18,9.14-16.24c6.09-4.06,14.21-6.09,24.36-6.09s20.98,2.03,28.42,6.43c7.11,4.4,12.86,10.83,17.26,19.62l61.58-30.11c-10.49-17.93-25.38-31.8-43.98-41.28-18.61-9.47-39.92-14.21-63.27-14.21s-38.23,3.38-54.81,10.15c-16.92,6.77-30.11,16.58-39.92,29.44-9.81,12.86-14.89,28.08-14.89,45.34s5.08,32.48,14.89,43.31c9.81,10.83,21.65,18.61,35.53,24.02,13.87,5.08,31.13,10.15,51.43,14.55,17.93,4.06,31.13,7.78,39.59,11.17,8.46,3.38,12.52,8.8,12.52,15.9s-4.4,14.55-13.53,18.95c-9.14,4.4-19.62,6.77-31.47,6.77-29.44,0-48.38-11.17-56.84-33.83l-62.26,31.8c10.15,20.64,25.38,35.86,45.68,46.35,20.3,10.49,44.66,15.56,73.42,15.56s40.26-3.38,58.53-9.81c17.93-6.43,32.48-16.24,43.65-29.1,10.83-12.86,16.58-28.42,16.58-46.35s-5.08-37.22-15.56-49.06l-1.01-1.02h-.03Z" fill="#0f6bff"/>
      <path d="M747.5,616.49c-5.92-4.66-12.27-7.81-19.06-9.46s-12.8-2.47-18.04-2.47c-8.54,0-16.2,1.8-22.99,5.38-6.79,3.59-12.61,7.91-17.46,12.95v-14.55h-30.55v145.5h30.55v-81.48c0-7.95,1.02-14.55,3.05-19.79,2.04-5.24,4.7-9.41,8-12.51,3.3-3.1,6.93-5.28,10.91-6.55,3.97-1.26,7.81-1.89,11.49-1.89,3.88,0,7.86.54,11.93,1.6,4.07,1.07,7.81,2.96,11.2,5.67,3.39,2.72,6.21,6.31,8.44,10.77,2.23,4.47,3.35,10.18,3.35,17.17v87.01h30.55v-87.01c0-12.8-2.09-23.23-6.26-31.28-4.17-8.05-9.22-14.4-15.13-19.06h.02ZM156.33,753.84h32.3v-85.26h83.23v-30.55h-83.23v-57.33h86.72v-30.56h-119.02s0,203.7,0,203.7ZM426.23,627.25c-6.89-6.98-14.99-12.46-24.3-16.44-9.31-3.97-19.21-5.96-29.68-5.96s-20.37,1.99-29.68,5.96c-9.31,3.98-17.41,9.46-24.3,16.44-6.89,6.98-12.32,15.09-16.3,24.3-3.98,9.22-5.97,19.06-5.97,29.54s1.99,20.37,5.97,29.68c3.97,9.31,9.41,17.46,16.3,24.44,6.88,6.98,14.99,12.47,24.3,16.44,9.31,3.97,19.21,5.97,29.68,5.97s20.37-1.99,29.68-5.97c9.31-3.97,17.41-9.46,24.3-16.44,6.88-6.98,12.32-15.13,16.3-24.44,3.97-9.31,5.96-19.21,5.96-29.68s-1.99-20.32-5.96-29.54c-3.98-9.21-9.41-17.31-16.3-24.3ZM414.3,698.98c-2.43,5.53-5.67,10.38-9.75,14.55-4.07,4.17-8.88,7.47-14.4,9.89-5.53,2.43-11.49,3.64-17.9,3.64s-12.37-1.21-17.9-3.64c-5.53-2.42-10.38-5.72-14.55-9.89-4.17-4.17-7.47-9.02-9.89-14.55-2.43-5.53-3.64-11.5-3.64-17.9s1.21-12.37,3.64-17.9c2.42-5.53,5.72-10.33,9.89-14.4,4.17-4.07,9.02-7.32,14.55-9.75,5.53-2.42,11.49-3.64,17.9-3.64s12.37,1.21,17.9,3.64c5.53,2.43,10.33,5.67,14.4,9.75,4.07,4.07,7.32,8.88,9.75,14.4,2.42,5.53,3.64,11.49,3.64,17.9s-1.21,12.37-3.64,17.9ZM576.83,689.53c0,7.96-1.07,14.55-3.2,19.79-2.14,5.24-4.8,9.41-8,12.51-3.2,3.11-6.79,5.29-10.77,6.55-3.98,1.26-7.91,1.89-11.79,1.89s-7.62-.53-11.79-1.6c-4.17-1.06-7.91-2.91-11.2-5.53-3.3-2.62-6.06-6.16-8.29-10.62-2.23-4.46-3.35-10.19-3.35-17.17v-87.01h-30.56v87.01c0,12.8,2.08,23.24,6.26,31.28,4.17,8.05,9.21,14.4,15.13,19.06s12.27,7.81,19.06,9.46c6.79,1.65,12.8,2.47,18.04,2.47,8.34,0,15.9-1.8,22.7-5.38,6.79-3.59,12.7-7.9,17.75-12.95v14.55h30.55v-145.5h-30.55v81.19h.01ZM1086.37,628.42c-5.24-6.98-11.74-12.66-19.5-17.02-7.76-4.37-16.88-6.55-27.35-6.55-11.06,0-21,1.94-29.83,5.82s-16.35,9.27-22.55,16.15c-6.21,6.89-11.01,14.99-14.41,24.3-3.4,9.31-5.09,19.4-5.09,30.26s1.7,20.66,5.09,29.97,8.19,17.41,14.41,24.3c6.21,6.89,13.72,12.27,22.55,16.15s18.77,5.82,29.83,5.82c10.48,0,19.59-2.18,27.35-6.55,7.76-4.36,14.26-10.04,19.5-17.02v19.79h30.55v-145.5h-30.55v20.08ZM1082.88,700.15c-2.33,5.92-5.53,11.01-9.6,15.28-4.07,4.27-8.93,7.62-14.55,10.04-5.63,2.43-11.74,3.64-18.33,3.64s-12.22-1.26-17.46-3.78c-5.24-2.52-9.75-5.97-13.53-10.33-3.78-4.36-6.69-9.41-8.73-15.13-2.04-5.72-3.06-11.88-3.06-18.48s1.02-12.75,3.06-18.48c2.04-5.72,4.95-10.77,8.73-15.13,3.78-4.37,8.29-7.81,13.53-10.33,5.24-2.52,11.06-3.78,17.46-3.78s12.7,1.16,18.33,3.49c5.62,2.33,10.48,5.63,14.55,9.89,4.07,4.27,7.28,9.31,9.6,15.13,2.33,5.82,3.49,12.13,3.49,18.92s-1.16,13.14-3.49,19.06h0ZM1455.21,627.25c-6.89-6.98-14.99-12.46-24.3-16.44-9.31-3.97-19.21-5.96-29.68-5.96s-20.37,1.99-29.68,5.96c-9.31,3.98-17.41,9.46-24.3,16.44s-12.32,15.09-16.29,24.3c-3.98,9.22-5.97,19.06-5.97,29.54s1.99,20.37,5.97,29.68c3.97,9.31,9.41,17.46,16.29,24.44s14.99,12.47,24.3,16.44c9.31,3.97,19.21,5.97,29.68,5.97s20.37-1.99,29.68-5.97c9.31-3.97,17.41-9.46,24.3-16.44,6.88-6.98,12.32-15.13,16.3-24.44,3.97-9.31,5.96-19.21,5.96-29.68s-1.99-20.32-5.96-29.54c-3.98-9.21-9.41-17.31-16.3-24.3ZM1443.28,698.98c-2.43,5.53-5.67,10.38-9.75,14.55-4.07,4.17-8.88,7.47-14.4,9.89-5.53,2.43-11.5,3.64-17.9,3.64s-12.37-1.21-17.9-3.64c-5.53-2.42-10.38-5.72-14.55-9.89-4.17-4.17-7.47-9.02-9.89-14.55-2.43-5.53-3.64-11.5-3.64-17.9s1.21-12.37,3.64-17.9c2.42-5.53,5.72-10.33,9.89-14.4s9.02-7.32,14.55-9.75c5.53-2.42,11.49-3.64,17.9-3.64s12.37,1.21,17.9,3.64c5.53,2.43,10.33,5.67,14.4,9.75,4.07,4.07,7.32,8.88,9.75,14.4,2.42,5.53,3.64,11.49,3.64,17.9s-1.21,12.37-3.64,17.9ZM1627.19,635.55c-4.17-8.05-9.22-14.4-15.13-19.06-5.92-4.66-12.27-7.81-19.06-9.46s-12.8-2.47-18.04-2.47c-8.54,0-16.2,1.8-22.99,5.38-6.79,3.59-12.61,7.91-17.46,12.95v-14.55h-30.55v145.5h30.55v-81.48c0-7.95,1.02-14.55,3.06-19.79,2.04-5.24,4.7-9.41,8-12.51,3.3-3.1,6.93-5.28,10.91-6.55,3.97-1.26,7.81-1.89,11.49-1.89,3.88,0,7.86.54,11.93,1.6,4.07,1.07,7.81,2.96,11.2,5.67,3.39,2.72,6.21,6.31,8.44,10.77,2.23,4.47,3.35,10.18,3.35,17.17v87.01h30.55v-87.01c0-12.8-2.09-23.23-6.26-31.28h.01ZM1281.34,537.92c-4.66,0-8.68,1.65-12.08,4.95-3.4,3.3-5.09,7.38-5.09,12.22s1.7,8.69,5.09,12.08c3.39,3.4,7.42,5.09,12.08,5.09s8.68-1.7,12.08-5.09c3.39-3.39,5.09-7.42,5.09-12.08s-1.7-8.92-5.09-12.22c-3.4-3.3-7.42-4.95-12.08-4.95ZM1217.61,726.77c-6.79,0-11.89-1.41-15.28-4.22-3.4-2.81-5.09-8.29-5.09-16.44v-70.13h33.76v-27.64h-33.76v-48.31l-30.56,10.48v37.83h-29.97v27.64h29.97v72.17c0,9.31.97,16.98,2.91,22.99,1.94,6.02,4.7,10.82,8.29,14.41,3.59,3.59,8.05,6.11,13.39,7.57,5.33,1.46,11.49,2.18,18.48,2.18,3.3,0,6.79-.15,10.48-.44,3.68-.29,7.47-.63,11.35-1.02v-28.23c-2.72.39-5.19.68-7.42.87-2.23.2-4.41.29-6.55.29h0ZM1265.91,753.84h30.56v-145.5h-30.56v145.5ZM912.35,628.42c-5.43-6.98-11.98-12.66-19.64-17.02-7.67-4.37-16.73-6.55-27.21-6.55-11.06,0-21,1.94-29.83,5.82-8.83,3.88-16.35,9.27-22.55,16.15-6.21,6.89-11.01,14.99-14.4,24.3-3.4,9.31-5.09,19.4-5.09,30.26s1.7,20.66,5.09,29.97,8.19,17.41,14.4,24.3c6.21,6.89,13.72,12.27,22.55,16.15s18.77,5.82,29.83,5.82c10.48,0,19.54-2.18,27.21-6.55,7.66-4.36,14.21-9.94,19.64-16.73v19.5h30.56v-203.7h-30.56v78.28ZM908.86,700.15c-2.33,5.92-5.53,11.01-9.6,15.28-4.07,4.27-8.93,7.62-14.55,10.04-5.63,2.43-11.74,3.64-18.33,3.64s-12.22-1.26-17.46-3.78c-5.24-2.52-9.75-5.97-13.53-10.33-3.78-4.36-6.69-9.41-8.73-15.13-2.04-5.72-3.05-11.88-3.05-18.48s1.02-12.75,3.05-18.48c2.04-5.72,4.95-10.77,8.73-15.13s8.29-7.81,13.53-10.33c5.24-2.52,11.06-3.78,17.46-3.78s12.7,1.16,18.33,3.49c5.62,2.33,10.48,5.63,14.55,9.89,4.07,4.27,7.28,9.31,9.6,15.13,2.33,5.82,3.49,12.13,3.49,18.92s-1.16,13.14-3.49,19.06h0Z" fill="#333"/>
    </g>
  </g>
  <g>
    <g>
      <path d="M843.56,238.66c-43.31,0-81.88,19.62-107.93,50.08-2.37-3.05-5.08-5.75-7.78-8.46-8.12-8.12-17.26-15.23-26.73-20.98-22.33-13.53-48.04-20.3-73.42-20.64h0c-36.2,0-72.74,13.87-100.15,41.62-27.74,27.74-41.62,63.95-41.62,100.15,0,25.38,6.77,51.09,20.3,73.42,5.75,9.47,12.86,18.61,20.98,26.73,8.12,8.12,17.26,15.23,26.73,20.98,54.47,33.16,126.88,26.05,173.91-20.98,2.71-2.71,5.41-5.75,7.78-8.46,26.05,30.45,64.62,50.08,107.93,50.08,78.16,0,141.77-63.61,141.77-141.77s-63.61-141.77-141.77-141.77h0ZM553.26,380.42c0-18.95,7.11-37.89,21.65-52.44,14.55-14.55,33.5-21.65,52.44-21.65h0c7.78,0,15.56,1.35,23.01,3.72l-58.53,58.53-34.85,34.85c-2.37-7.44-3.72-15.23-3.72-23.01h0ZM680.14,432.87c-20.3,20.3-49.74,26.39-75.45,18.27l36.2-36.2,57.18-57.18,6.77-6.77c-2.03,9.47-3.05,19.62-3.05,29.77,0,18.95-7.11,37.89-21.65,52.44v-.34h0ZM843.56,454.86c-40.94,0-74.44-33.16-74.44-74.44s33.16-74.44,74.44-74.44,74.44,33.16,74.44,74.44-33.16,74.44-74.44,74.44Z" fill="#333"/>
      <polygon points="375.29 356.4 235.89 140.2 154.69 140.2 154.69 519.82 235.89 519.82 235.89 282.3 387.81 519.82 456.83 519.82 456.83 140.2 375.29 140.2 375.29 356.4" fill="#333"/>
      <polygon points="1252.96 356.4 1113.56 140.2 1032.36 140.2 1032.36 519.82 1113.56 519.82 1113.56 282.3 1265.48 519.82 1334.16 519.82 1334.16 140.2 1252.96 140.2 1252.96 356.4" fill="#0f6bff"/>
      <path d="M1575.4,260.31c-20.3-12.52-43.65-18.61-69.7-18.61s-51.77,6.09-73.08,18.27c-21.32,12.18-37.89,29.1-49.74,50.41-11.84,21.32-17.93,45.34-17.93,71.39s6.09,50.08,18.27,71.39c12.18,21.32,29.1,38.23,51.09,50.41,21.99,12.18,47.37,18.27,76.47,18.27s48.38-4.74,68.01-14.55c19.62-9.47,35.86-23.35,48.38-41.62l-57.52-34.17c-6.09,7.78-14.21,14.21-24.7,18.61-10.49,4.74-21.32,7.11-32.14,7.11-18.27,0-32.82-4.06-44.32-11.84-11.5-8.12-20.3-20.3-27.07-36.54h197.59c1.35-8.12,2.03-17.26,2.03-27.07,0-26.05-5.75-49.74-16.92-71.05-11.5-21.32-27.41-38.23-47.71-50.75l-1.01.34h0ZM1439.38,349.97c.68-11.84,7.44-21.65,20.3-30.11,12.86-8.46,28.08-12.52,45.34-12.52s30.79,3.72,42.29,11.17c11.5,7.44,18.61,17.93,20.98,31.47h-129.25.34Z" fill="#0f6bff"/>
      <path d="M1908.67,259.97c-20.3-12.18-44.66-18.27-73.08-18.27s-29.1,2.37-42.97,7.44c-13.87,4.74-26.73,11.84-38.91,20.98v-20.98h-77.48v379.62h77.48v-128.57c11.84,9.14,25.04,15.9,38.91,20.98,14.21,4.74,28.42,7.44,42.97,7.44,28.08,0,52.44-6.09,73.08-18.61,20.3-12.52,36.2-29.44,47.03-51.09,10.83-21.65,16.24-46.35,16.24-73.76s-5.41-52.11-16.24-73.42c-10.83-21.65-26.39-38.57-47.03-50.75v-1.02h0ZM1874.83,433.88c-12.86,12.52-29.44,18.61-49.74,18.61s-37.56-6.09-51.09-18.61c-13.53-12.52-20.3-28.76-20.3-49.06s6.77-36.88,20.64-49.74,30.79-19.62,51.09-19.62,36.88,6.43,49.74,18.95c12.86,12.52,19.29,29.44,19.29,49.74s-6.43,37.22-19.29,49.74h-.34Z" fill="#0f6bff"/>
      <path d="M2191.53,253.21c-16.24-6.77-31.8-10.15-47.37-10.15-23.01,0-44.66,8.46-64.62,25.04v-127.89h-77.48v379.62h77.48v-165.79c2.03-14.89,7.44-25.71,15.56-32.82,8.46-7.11,17.93-10.49,29.44-10.49s25.04,3.72,34.85,11.5c9.81,7.78,14.55,20.3,14.55,37.56v160.04h77.48v-162.07c-.34-28.76-6.43-51.77-18.27-69.02-11.84-16.92-25.71-28.76-41.62-35.53h0Z" fill="#0f6bff"/>
      <path d="M2491.98,260.31c-21.32-12.52-44.66-18.95-69.7-18.95s-49.06,6.43-70.38,18.95c-21.32,12.52-38.57,29.44-51.09,51.09-12.52,21.32-18.95,45-18.95,70.38s6.43,48.38,18.95,70.04c12.52,21.65,29.44,38.57,51.09,51.09,21.32,12.52,45,18.95,70.38,18.95s48.38-6.43,69.7-18.95c21.32-12.52,38.23-29.77,51.09-51.09,12.52-21.65,18.95-45,18.95-70.04s-6.43-49.06-18.95-70.38c-12.52-21.32-29.44-38.23-51.09-51.09h0ZM2467.28,427.12c-12.86,12.52-28.08,18.95-45.68,18.95s-32.82-6.43-45.34-18.95c-12.52-12.52-18.95-27.74-18.95-45.34s6.43-32.82,18.95-45.68c12.52-12.86,27.74-18.95,45.34-18.95s32.82,6.43,45.68,18.95c12.86,12.86,18.95,28.08,18.95,45.68s-6.43,32.82-18.95,45.34Z" fill="#0f6bff"/>
      <path d="M2812.39,386.18c-10.49-11.84-22.67-20.3-36.2-25.38-13.87-5.08-31.13-9.81-52.11-14.21-16.24-3.05-28.08-6.43-35.53-9.14-7.44-3.05-11.17-7.44-11.17-13.53s3.05-12.18,9.14-16.24c6.09-4.06,14.21-6.09,24.36-6.09s20.98,2.03,28.42,6.43c7.11,4.4,12.86,10.83,17.26,19.62l61.58-30.11c-10.49-17.93-25.38-31.8-43.98-41.28-18.61-9.47-39.92-14.21-63.27-14.21s-38.23,3.38-54.81,10.15c-16.92,6.77-30.11,16.58-39.92,29.44-9.81,12.86-14.89,28.08-14.89,45.34s5.08,32.48,14.89,43.31c9.81,10.83,21.65,18.61,35.53,24.02,13.87,5.08,31.13,10.15,51.43,14.55,17.93,4.06,31.13,7.78,39.59,11.17,8.46,3.38,12.52,8.8,12.52,15.9s-4.4,14.55-13.53,18.95c-9.14,4.4-19.62,6.77-31.47,6.77-29.44,0-48.38-11.17-56.84-33.83l-62.26,31.8c10.15,20.64,25.38,35.86,45.68,46.35,20.3,10.49,44.66,15.56,73.42,15.56s40.26-3.38,58.53-9.81c17.93-6.43,32.48-16.24,43.65-29.1,10.83-12.86,16.58-28.42,16.58-46.35s-5.08-37.22-15.56-49.06l-1.01-1.02h-.03Z" fill="#0f6bff"/>
      <path d="M747.5,616.49c-5.92-4.66-12.27-7.81-19.06-9.46s-12.8-2.47-18.04-2.47c-8.54,0-16.2,1.8-22.99,5.38-6.79,3.59-12.61,7.91-17.46,12.95v-14.55h-30.55v145.5h30.55v-81.48c0-7.95,1.02-14.55,3.05-19.79,2.04-5.24,4.7-9.41,8-12.51,3.3-3.1,6.93-5.28,10.91-6.55,3.97-1.26,7.81-1.89,11.49-1.89,3.88,0,7.86.54,11.93,1.6,4.07,1.07,7.81,2.96,11.2,5.67,3.39,2.72,6.21,6.31,8.44,10.77,2.23,4.47,3.35,10.18,3.35,17.17v87.01h30.55v-87.01c0-12.8-2.09-23.23-6.26-31.28-4.17-8.05-9.22-14.4-15.13-19.06h.02ZM156.33,753.84h32.3v-85.26h83.23v-30.55h-83.23v-57.33h86.72v-30.56h-119.02s0,203.7,0,203.7ZM426.23,627.25c-6.89-6.98-14.99-12.46-24.3-16.44-9.31-3.97-19.21-5.96-29.68-5.96s-20.37,1.99-29.68,5.96c-9.31,3.98-17.41,9.46-24.3,16.44-6.89,6.98-12.32,15.09-16.3,24.3-3.98,9.22-5.97,19.06-5.97,29.54s1.99,20.37,5.97,29.68c3.97,9.31,9.41,17.46,16.3,24.44,6.88,6.98,14.99,12.47,24.3,16.44,9.31,3.97,19.21,5.97,29.68,5.97s20.37-1.99,29.68-5.97c9.31-3.97,17.41-9.46,24.3-16.44,6.88-6.98,12.32-15.13,16.3-24.44,3.97-9.31,5.96-19.21,5.96-29.68s-1.99-20.32-5.96-29.54c-3.98-9.21-9.41-17.31-16.3-24.3ZM414.3,698.98c-2.43,5.53-5.67,10.38-9.75,14.55-4.07,4.17-8.88,7.47-14.4,9.89-5.53,2.43-11.49,3.64-17.9,3.64s-12.37-1.21-17.9-3.64c-5.53-2.42-10.38-5.72-14.55-9.89-4.17-4.17-7.47-9.02-9.89-14.55-2.43-5.53-3.64-11.5-3.64-17.9s1.21-12.37,3.64-17.9c2.42-5.53,5.72-10.33,9.89-14.4,4.17-4.07,9.02-7.32,14.55-9.75,5.53-2.42,11.49-3.64,17.9-3.64s12.37,1.21,17.9,3.64c5.53,2.43,10.33,5.67,14.4,9.75,4.07,4.07,7.32,8.88,9.75,14.4,2.42,5.53,3.64,11.49,3.64,17.9s-1.21,12.37-3.64,17.9ZM576.83,689.53c0,7.96-1.07,14.55-3.2,19.79-2.14,5.24-4.8,9.41-8,12.51-3.2,3.11-6.79,5.29-10.77,6.55-3.98,1.26-7.91,1.89-11.79,1.89s-7.62-.53-11.79-1.6c-4.17-1.06-7.91-2.91-11.2-5.53-3.3-2.62-6.06-6.16-8.29-10.62-2.23-4.46-3.35-10.19-3.35-17.17v-87.01h-30.56v87.01c0,12.8,2.08,23.24,6.26,31.28,4.17,8.05,9.21,14.4,15.13,19.06s12.27,7.81,19.06,9.46c6.79,1.65,12.8,2.47,18.04,2.47,8.34,0,15.9-1.8,22.7-5.38,6.79-3.59,12.7-7.9,17.75-12.95v14.55h30.55v-145.5h-30.55v81.19h.01ZM1086.37,628.42c-5.24-6.98-11.74-12.66-19.5-17.02-7.76-4.37-16.88-6.55-27.35-6.55-11.06,0-21,1.94-29.83,5.82s-16.35,9.27-22.55,16.15c-6.21,6.89-11.01,14.99-14.41,24.3-3.4,9.31-5.09,19.4-5.09,30.26s1.7,20.66,5.09,29.97,8.19,17.41,14.41,24.3c6.21,6.89,13.72,12.27,22.55,16.15s18.77,5.82,29.83,5.82c10.48,0,19.59-2.18,27.35-6.55,7.76-4.36,14.26-10.04,19.5-17.02v19.79h30.55v-145.5h-30.55v20.08ZM1082.88,700.15c-2.33,5.92-5.53,11.01-9.6,15.28-4.07,4.27-8.93,7.62-14.55,10.04-5.63,2.43-11.74,3.64-18.33,3.64s-12.22-1.26-17.46-3.78c-5.24-2.52-9.75-5.97-13.53-10.33-3.78-4.36-6.69-9.41-8.73-15.13-2.04-5.72-3.06-11.88-3.06-18.48s1.02-12.75,3.06-18.48c2.04-5.72,4.95-10.77,8.73-15.13,3.78-4.37,8.29-7.81,13.53-10.33,5.24-2.52,11.06-3.78,17.46-3.78s12.7,1.16,18.33,3.49c5.62,2.33,10.48,5.63,14.55,9.89,4.07,4.27,7.28,9.31,9.6,15.13,2.33,5.82,3.49,12.13,3.49,18.92s-1.16,13.14-3.49,19.06h0ZM1455.21,627.25c-6.89-6.98-14.99-12.46-24.3-16.44-9.31-3.97-19.21-5.96-29.68-5.96s-20.37,1.99-29.68,5.96c-9.31,3.98-17.41,9.46-24.3,16.44s-12.32,15.09-16.29,24.3c-3.98,9.22-5.97,19.06-5.97,29.54s1.99,20.37,5.97,29.68c3.97,9.31,9.41,17.46,16.29,24.44s14.99,12.47,24.3,16.44c9.31,3.97,19.21,5.97,29.68,5.97s20.37-1.99,29.68-5.97c9.31-3.97,17.41-9.46,24.3-16.44,6.88-6.98,12.32-15.13,16.3-24.44,3.97-9.31,5.96-19.21,5.96-29.68s-1.99-20.32-5.96-29.54c-3.98-9.21-9.41-17.31-16.3-24.3ZM1443.28,698.98c-2.43,5.53-5.67,10.38-9.75,14.55-4.07,4.17-8.88,7.47-14.4,9.89-5.53,2.43-11.5,3.64-17.9,3.64s-12.37-1.21-17.9-3.64c-5.53-2.42-10.38-5.72-14.55-9.89-4.17-4.17-7.47-9.02-9.89-14.55-2.43-5.53-3.64-11.5-3.64-17.9s1.21-12.37,3.64-17.9c2.42-5.53,5.72-10.33,9.89-14.4s9.02-7.32,14.55-9.75c5.53-2.42,11.49-3.64,17.9-3.64s12.37,1.21,17.9,3.64c5.53,2.43,10.33,5.67,14.4,9.75,4.07,4.07,7.32,8.88,9.75,14.4,2.42,5.53,3.64,11.49,3.64,17.9s-1.21,12.37-3.64,17.9ZM1627.19,635.55c-4.17-8.05-9.22-14.4-15.13-19.06-5.92-4.66-12.27-7.81-19.06-9.46s-12.8-2.47-18.04-2.47c-8.54,0-16.2,1.8-22.99,5.38-6.79,3.59-12.61,7.91-17.46,12.95v-14.55h-30.55v145.5h30.55v-81.48c0-7.95,1.02-14.55,3.06-19.79,2.04-5.24,4.7-9.41,8-12.51,3.3-3.1,6.93-5.28,10.91-6.55,3.97-1.26,7.81-1.89,11.49-1.89,3.88,0,7.86.54,11.93,1.6,4.07,1.07,7.81,2.96,11.2,5.67,3.39,2.72,6.21,6.31,8.44,10.77,2.23,4.47,3.35,10.18,3.35,17.17v87.01h30.55v-87.01c0-12.8-2.09-23.23-6.26-31.28h.01ZM1281.34,537.92c-4.66,0-8.68,1.65-12.08,4.95-3.4,3.3-5.09,7.38-5.09,12.22s1.7,8.69,5.09,12.08c3.39,3.4,7.42,5.09,12.08,5.09s8.68-1.7,12.08-5.09c3.39-3.39,5.09-7.42,5.09-12.08s-1.7-8.92-5.09-12.22c-3.4-3.3-7.42-4.95-12.08-4.95ZM1217.61,726.77c-6.79,0-11.89-1.41-15.28-4.22-3.4-2.81-5.09-8.29-5.09-16.44v-70.13h33.76v-27.64h-33.76v-48.31l-30.56,10.48v37.83h-29.97v27.64h29.97v72.17c0,9.31.97,16.98,2.91,22.99,1.94,6.02,4.7,10.82,8.29,14.41,3.59,3.59,8.05,6.11,13.39,7.57,5.33,1.46,11.49,2.18,18.48,2.18,3.3,0,6.79-.15,10.48-.44,3.68-.29,7.47-.63,11.35-1.02v-28.23c-2.72.39-5.19.68-7.42.87-2.23.2-4.41.29-6.55.29h0ZM1265.91,753.84h30.56v-145.5h-30.56v145.5ZM912.35,628.42c-5.43-6.98-11.98-12.66-19.64-17.02-7.67-4.37-16.73-6.55-27.21-6.55-11.06,0-21,1.94-29.83,5.82-8.83,3.88-16.35,9.27-22.55,16.15-6.21,6.89-11.01,14.99-14.4,24.3-3.4,9.31-5.09,19.4-5.09,30.26s1.7,20.66,5.09,29.97,8.19,17.41,14.4,24.3c6.21,6.89,13.72,12.27,22.55,16.15s18.77,5.82,29.83,5.82c10.48,0,19.54-2.18,27.21-6.55,7.66-4.36,14.21-9.94,19.64-16.73v19.5h30.56v-203.7h-30.56v78.28ZM908.86,700.15c-2.33,5.92-5.53,11.01-9.6,15.28-4.07,4.27-8.93,7.62-14.55,10.04-5.63,2.43-11.74,3.64-18.33,3.64s-12.22-1.26-17.46-3.78c-5.24-2.52-9.75-5.97-13.53-10.33-3.78-4.36-6.69-9.41-8.73-15.13-2.04-5.72-3.05-11.88-3.05-18.48s1.02-12.75,3.05-18.48c2.04-5.72,4.95-10.77,8.73-15.13s8.29-7.81,13.53-10.33c5.24-2.52,11.06-3.78,17.46-3.78s12.7,1.16,18.33,3.49c5.62,2.33,10.48,5.63,14.55,9.89,4.07,4.27,7.28,9.31,9.6,15.13,2.33,5.82,3.49,12.13,3.49,18.92s-1.16,13.14-3.49,19.06h0Z" fill="#333"/>
    </g>
    <g>
      <path d="M843.56,238.66c-43.31,0-81.88,19.62-107.93,50.08-2.37-3.05-5.08-5.75-7.78-8.46-8.12-8.12-17.26-15.23-26.73-20.98-22.33-13.53-48.04-20.3-73.42-20.64h0c-36.2,0-72.74,13.87-100.15,41.62-27.74,27.74-41.62,63.95-41.62,100.15,0,25.38,6.77,51.09,20.3,73.42,5.75,9.47,12.86,18.61,20.98,26.73,8.12,8.12,17.26,15.23,26.73,20.98,54.47,33.16,126.88,26.05,173.91-20.98,2.71-2.71,5.41-5.75,7.78-8.46,26.05,30.45,64.62,50.08,107.93,50.08,78.16,0,141.77-63.61,141.77-141.77s-63.61-141.77-141.77-141.77h0ZM553.26,380.42c0-18.95,7.11-37.89,21.65-52.44,14.55-14.55,33.5-21.65,52.44-21.65h0c7.78,0,15.56,1.35,23.01,3.72l-58.53,58.53-34.85,34.85c-2.37-7.44-3.72-15.23-3.72-23.01h0ZM680.14,432.87c-20.3,20.3-49.74,26.39-75.45,18.27l36.2-36.2,57.18-57.18,6.77-6.77c-2.03,9.47-3.05,19.62-3.05,29.77,0,18.95-7.11,37.89-21.65,52.44v-.34h0ZM843.56,454.86c-40.94,0-74.44-33.16-74.44-74.44s33.16-74.44,74.44-74.44,74.44,33.16,74.44,74.44-33.16,74.44-74.44,74.44Z" fill="#333"/>
      <polygon points="375.29 356.4 235.89 140.2 154.69 140.2 154.69 519.82 235.89 519.82 235.89 282.3 387.81 519.82 456.83 519.82 456.83 140.2 375.29 140.2 375.29 356.4" fill="#333"/>
      <polygon points="1252.96 356.4 1113.56 140.2 1032.36 140.2 1032.36 519.82 1113.56 519.82 1113.56 282.3 1265.48 519.82 1334.16 519.82 1334.16 140.2 1252.96 140.2 1252.96 356.4" fill="#0f6bff"/>
      <path d="M1575.4,260.31c-20.3-12.52-43.65-18.61-69.7-18.61s-51.77,6.09-73.08,18.27c-21.32,12.18-37.89,29.1-49.74,50.41-11.84,21.32-17.93,45.34-17.93,71.39s6.09,50.08,18.27,71.39c12.18,21.32,29.1,38.23,51.09,50.41,21.99,12.18,47.37,18.27,76.47,18.27s48.38-4.74,68.01-14.55c19.62-9.47,35.86-23.35,48.38-41.62l-57.52-34.17c-6.09,7.78-14.21,14.21-24.7,18.61-10.49,4.74-21.32,7.11-32.14,7.11-18.27,0-32.82-4.06-44.32-11.84-11.5-8.12-20.3-20.3-27.07-36.54h197.59c1.35-8.12,2.03-17.26,2.03-27.07,0-26.05-5.75-49.74-16.92-71.05-11.5-21.32-27.41-38.23-47.71-50.75l-1.01.34h0ZM1439.38,349.97c.68-11.84,7.44-21.65,20.3-30.11,12.86-8.46,28.08-12.52,45.34-12.52s30.79,3.72,42.29,11.17c11.5,7.44,18.61,17.93,20.98,31.47h-129.25.34Z" fill="#0f6bff"/>
      <path d="M1908.67,259.97c-20.3-12.18-44.66-18.27-73.08-18.27s-29.1,2.37-42.97,7.44c-13.87,4.74-26.73,11.84-38.91,20.98v-20.98h-77.48v379.62h77.48v-128.57c11.84,9.14,25.04,15.9,38.91,20.98,14.21,4.74,28.42,7.44,42.97,7.44,28.08,0,52.44-6.09,73.08-18.61,20.3-12.52,36.2-29.44,47.03-51.09,10.83-21.65,16.24-46.35,16.24-73.76s-5.41-52.11-16.24-73.42c-10.83-21.65-26.39-38.57-47.03-50.75v-1.02h0ZM1874.83,433.88c-12.86,12.52-29.44,18.61-49.74,18.61s-37.56-6.09-51.09-18.61c-13.53-12.52-20.3-28.76-20.3-49.06s6.77-36.88,20.64-49.74,30.79-19.62,51.09-19.62,36.88,6.43,49.74,18.95c12.86,12.52,19.29,29.44,19.29,49.74s-6.43,37.22-19.29,49.74h-.34Z" fill="#0f6bff"/>
      <path d="M2191.53,253.21c-16.24-6.77-31.8-10.15-47.37-10.15-23.01,0-44.66,8.46-64.62,25.04v-127.89h-77.48v379.62h77.48v-165.79c2.03-14.89,7.44-25.71,15.56-32.82,8.46-7.11,17.93-10.49,29.44-10.49s25.04,3.72,34.85,11.5c9.81,7.78,14.55,20.3,14.55,37.56v160.04h77.48v-162.07c-.34-28.76-6.43-51.77-18.27-69.02-11.84-16.92-25.71-28.76-41.62-35.53h0Z" fill="#0f6bff"/>
      <path d="M2491.98,260.31c-21.32-12.52-44.66-18.95-69.7-18.95s-49.06,6.43-70.38,18.95c-21.32,12.52-38.57,29.44-51.09,51.09-12.52,21.32-18.95,45-18.95,70.38s6.43,48.38,18.95,70.04c12.52,21.65,29.44,38.57,51.09,51.09,21.32,12.52,45,18.95,70.38,18.95s48.38-6.43,69.7-18.95c21.32-12.52,38.23-29.77,51.09-51.09,12.52-21.65,18.95-45,18.95-70.04s-6.43-49.06-18.95-70.38c-12.52-21.32-29.44-38.23-51.09-51.09h0ZM2467.28,427.12c-12.86,12.52-28.08,18.95-45.68,18.95s-32.82-6.43-45.34-18.95c-12.52-12.52-18.95-27.74-18.95-45.34s6.43-32.82,18.95-45.68c12.52-12.86,27.74-18.95,45.34-18.95s32.82,6.43,45.68,18.95c12.86,12.86,18.95,28.08,18.95,45.68s-6.43,32.82-18.95,45.34Z" fill="#0f6bff"/>
      <path d="M2812.39,386.18c-10.49-11.84-22.67-20.3-36.2-25.38-13.87-5.08-31.13-9.81-52.11-14.21-16.24-3.05-28.08-6.43-35.53-9.14-7.44-3.05-11.17-7.44-11.17-13.53s3.05-12.18,9.14-16.24c6.09-4.06,14.21-6.09,24.36-6.09s20.98,2.03,28.42,6.43c7.11,4.4,12.86,10.83,17.26,19.62l61.58-30.11c-10.49-17.93-25.38-31.8-43.98-41.28-18.61-9.47-39.92-14.21-63.27-14.21s-38.23,3.38-54.81,10.15c-16.92,6.77-30.11,16.58-39.92,29.44-9.81,12.86-14.89,28.08-14.89,45.34s5.08,32.48,14.89,43.31c9.81,10.83,21.65,18.61,35.53,24.02,13.87,5.08,31.13,10.15,51.43,14.55,17.93,4.06,31.13,7.78,39.59,11.17,8.46,3.38,12.52,8.8,12.52,15.9s-4.4,14.55-13.53,18.95c-9.14,4.4-19.62,6.77-31.47,6.77-29.44,0-48.38-11.17-56.84-33.83l-62.26,31.8c10.15,20.64,25.38,35.86,45.68,46.35,20.3,10.49,44.66,15.56,73.42,15.56s40.26-3.38,58.53-9.81c17.93-6.43,32.48-16.24,43.65-29.1,10.83-12.86,16.58-28.42,16.58-46.35s-5.08-37.22-15.56-49.06l-1.01-1.02h-.03Z" fill="#0f6bff"/>
      <path d="M747.5,616.49c-5.92-4.66-12.27-7.81-19.06-9.46s-12.8-2.47-18.04-2.47c-8.54,0-16.2,1.8-22.99,5.38-6.79,3.59-12.61,7.91-17.46,12.95v-14.55h-30.55v145.5h30.55v-81.48c0-7.95,1.02-14.55,3.05-19.79,2.04-5.24,4.7-9.41,8-12.51,3.3-3.1,6.93-5.28,10.91-6.55,3.97-1.26,7.81-1.89,11.49-1.89,3.88,0,7.86.54,11.93,1.6,4.07,1.07,7.81,2.96,11.2,5.67,3.39,2.72,6.21,6.31,8.44,10.77,2.23,4.47,3.35,10.18,3.35,17.17v87.01h30.55v-87.01c0-12.8-2.09-23.23-6.26-31.28-4.17-8.05-9.22-14.4-15.13-19.06h.02ZM156.33,753.84h32.3v-85.26h83.23v-30.55h-83.23v-57.33h86.72v-30.56h-119.02s0,203.7,0,203.7ZM426.23,627.25c-6.89-6.98-14.99-12.46-24.3-16.44-9.31-3.97-19.21-5.96-29.68-5.96s-20.37,1.99-29.68,5.96c-9.31,3.98-17.41,9.46-24.3,16.44-6.89,6.98-12.32,15.09-16.3,24.3-3.98,9.22-5.97,19.06-5.97,29.54s1.99,20.37,5.97,29.68c3.97,9.31,9.41,17.46,16.3,24.44,6.88,6.98,14.99,12.47,24.3,16.44,9.31,3.97,19.21,5.97,29.68,5.97s20.37-1.99,29.68-5.97c9.31-3.97,17.41-9.46,24.3-16.44,6.88-6.98,12.32-15.13,16.3-24.44,3.97-9.31,5.96-19.21,5.96-29.68s-1.99-20.32-5.96-29.54c-3.98-9.21-9.41-17.31-16.3-24.3ZM414.3,698.98c-2.43,5.53-5.67,10.38-9.75,14.55-4.07,4.17-8.88,7.47-14.4,9.89-5.53,2.43-11.49,3.64-17.9,3.64s-12.37-1.21-17.9-3.64c-5.53-2.42-10.38-5.72-14.55-9.89-4.17-4.17-7.47-9.02-9.89-14.55-2.43-5.53-3.64-11.5-3.64-17.9s1.21-12.37,3.64-17.9c2.42-5.53,5.72-10.33,9.89-14.4,4.17-4.07,9.02-7.32,14.55-9.75,5.53-2.42,11.49-3.64,17.9-3.64s12.37,1.21,17.9,3.64c5.53,2.43,10.33,5.67,14.4,9.75,4.07,4.07,7.32,8.88,9.75,14.4,2.42,5.53,3.64,11.49,3.64,17.9s-1.21,12.37-3.64,17.9ZM576.83,689.53c0,7.96-1.07,14.55-3.2,19.79-2.14,5.24-4.8,9.41-8,12.51-3.2,3.11-6.79,5.29-10.77,6.55-3.98,1.26-7.91,1.89-11.79,1.89s-7.62-.53-11.79-1.6c-4.17-1.06-7.91-2.91-11.2-5.53-3.3-2.62-6.06-6.16-8.29-10.62-2.23-4.46-3.35-10.19-3.35-17.17v-87.01h-30.56v87.01c0,12.8,2.08,23.24,6.26,31.28,4.17,8.05,9.21,14.4,15.13,19.06s12.27,7.81,19.06,9.46c6.79,1.65,12.8,2.47,18.04,2.47,8.34,0,15.9-1.8,22.7-5.38,6.79-3.59,12.7-7.9,17.75-12.95v14.55h30.55v-145.5h-30.55v81.19h.01ZM1086.37,628.42c-5.24-6.98-11.74-12.66-19.5-17.02-7.76-4.37-16.88-6.55-27.35-6.55-11.06,0-21,1.94-29.83,5.82s-16.35,9.27-22.55,16.15c-6.21,6.89-11.01,14.99-14.41,24.3-3.4,9.31-5.09,19.4-5.09,30.26s1.7,20.66,5.09,29.97,8.19,17.41,14.41,24.3c6.21,6.89,13.72,12.27,22.55,16.15s18.77,5.82,29.83,5.82c10.48,0,19.59-2.18,27.35-6.55,7.76-4.36,14.26-10.04,19.5-17.02v19.79h30.55v-145.5h-30.55v20.08ZM1082.88,700.15c-2.33,5.92-5.53,11.01-9.6,15.28-4.07,4.27-8.93,7.62-14.55,10.04-5.63,2.43-11.74,3.64-18.33,3.64s-12.22-1.26-17.46-3.78c-5.24-2.52-9.75-5.97-13.53-10.33-3.78-4.36-6.69-9.41-8.73-15.13-2.04-5.72-3.06-11.88-3.06-18.48s1.02-12.75,3.06-18.48c2.04-5.72,4.95-10.77,8.73-15.13,3.78-4.37,8.29-7.81,13.53-10.33,5.24-2.52,11.06-3.78,17.46-3.78s12.7,1.16,18.33,3.49c5.62,2.33,10.48,5.63,14.55,9.89,4.07,4.27,7.28,9.31,9.6,15.13,2.33,5.82,3.49,12.13,3.49,18.92s-1.16,13.14-3.49,19.06h0ZM1455.21,627.25c-6.89-6.98-14.99-12.46-24.3-16.44-9.31-3.97-19.21-5.96-29.68-5.96s-20.37,1.99-29.68,5.96c-9.31,3.98-17.41,9.46-24.3,16.44s-12.32,15.09-16.29,24.3c-3.98,9.22-5.97,19.06-5.97,29.54s1.99,20.37,5.97,29.68c3.97,9.31,9.41,17.46,16.29,24.44s14.99,12.47,24.3,16.44c9.31,3.97,19.21,5.97,29.68,5.97s20.37-1.99,29.68-5.97c9.31-3.97,17.41-9.46,24.3-16.44,6.88-6.98,12.32-15.13,16.3-24.44,3.97-9.31,5.96-19.21,5.96-29.68s-1.99-20.32-5.96-29.54c-3.98-9.21-9.41-17.31-16.3-24.3ZM1443.28,698.98c-2.43,5.53-5.67,10.38-9.75,14.55-4.07,4.17-8.88,7.47-14.4,9.89-5.53,2.43-11.5,3.64-17.9,3.64s-12.37-1.21-17.9-3.64c-5.53-2.42-10.38-5.72-14.55-9.89-4.17-4.17-7.47-9.02-9.89-14.55-2.43-5.53-3.64-11.5-3.64-17.9s1.21-12.37,3.64-17.9c2.42-5.53,5.72-10.33,9.89-14.4s9.02-7.32,14.55-9.75c5.53-2.42,11.49-3.64,17.9-3.64s12.37,1.21,17.9,3.64c5.53,2.43,10.33,5.67,14.4,9.75,4.07,4.07,7.32,8.88,9.75,14.4,2.42,5.53,3.64,11.49,3.64,17.9s-1.21,12.37-3.64,17.9ZM1627.19,635.55c-4.17-8.05-9.22-14.4-15.13-19.06-5.92-4.66-12.27-7.81-19.06-9.46s-12.8-2.47-18.04-2.47c-8.54,0-16.2,1.8-22.99,5.38-6.79,3.59-12.61,7.91-17.46,12.95v-14.55h-30.55v145.5h30.55v-81.48c0-7.95,1.02-14.55,3.06-19.79,2.04-5.24,4.7-9.41,8-12.51,3.3-3.1,6.93-5.28,10.91-6.55,3.97-1.26,7.81-1.89,11.49-1.89,3.88,0,7.86.54,11.93,1.6,4.07,1.07,7.81,2.96,11.2,5.67,3.39,2.72,6.21,6.31,8.44,10.77,2.23,4.47,3.35,10.18,3.35,17.17v87.01h30.55v-87.01c0-12.8-2.09-23.23-6.26-31.28h.01ZM1281.34,537.92c-4.66,0-8.68,1.65-12.08,4.95-3.4,3.3-5.09,7.38-5.09,12.22s1.7,8.69,5.09,12.08c3.39,3.4,7.42,5.09,12.08,5.09s8.68-1.7,12.08-5.09c3.39-3.39,5.09-7.42,5.09-12.08s-1.7-8.92-5.09-12.22c-3.4-3.3-7.42-4.95-12.08-4.95ZM1217.61,726.77c-6.79,0-11.89-1.41-15.28-4.22-3.4-2.81-5.09-8.29-5.09-16.44v-70.13h33.76v-27.64h-33.76v-48.31l-30.56,10.48v37.83h-29.97v27.64h29.97v72.17c0,9.31.97,16.98,2.91,22.99,1.94,6.02,4.7,10.82,8.29,14.41,3.59,3.59,8.05,6.11,13.39,7.57,5.33,1.46,11.49,2.18,18.48,2.18,3.3,0,6.79-.15,10.48-.44,3.68-.29,7.47-.63,11.35-1.02v-28.23c-2.72.39-5.19.68-7.42.87-2.23.2-4.41.29-6.55.29h0ZM1265.91,753.84h30.56v-145.5h-30.56v145.5ZM912.35,628.42c-5.43-6.98-11.98-12.66-19.64-17.02-7.67-4.37-16.73-6.55-27.21-6.55-11.06,0-21,1.94-29.83,5.82-8.83,3.88-16.35,9.27-22.55,16.15-6.21,6.89-11.01,14.99-14.4,24.3-3.4,9.31-5.09,19.4-5.09,30.26s1.7,20.66,5.09,29.97,8.19,17.41,14.4,24.3c6.21,6.89,13.72,12.27,22.55,16.15s18.77,5.82,29.83,5.82c10.48,0,19.54-2.18,27.21-6.55,7.66-4.36,14.21-9.94,19.64-16.73v19.5h30.56v-203.7h-30.56v78.28ZM908.86,700.15c-2.33,5.92-5.53,11.01-9.6,15.28-4.07,4.27-8.93,7.62-14.55,10.04-5.63,2.43-11.74,3.64-18.33,3.64s-12.22-1.26-17.46-3.78c-5.24-2.52-9.75-5.97-13.53-10.33-3.78-4.36-6.69-9.41-8.73-15.13-2.04-5.72-3.05-11.88-3.05-18.48s1.02-12.75,3.05-18.48c2.04-5.72,4.95-10.77,8.73-15.13s8.29-7.81,13.53-10.33c5.24-2.52,11.06-3.78,17.46-3.78s12.7,1.16,18.33,3.49c5.62,2.33,10.48,5.63,14.55,9.89,4.07,4.27,7.28,9.31,9.6,15.13,2.33,5.82,3.49,12.13,3.49,18.92s-1.16,13.14-3.49,19.06h0Z" fill="#333"/>
    </g>
  </g>
</svg>