<?xml version="1.0" encoding="UTF-8" standalone="no"?>
<svg
   width="390"
   height="390"
   viewBox="0 0 390 390"
   version="1.1"
   id="svg12"
   sodipodi:docname="ironcore-stacked-color.svg"
   inkscape:export-filename="ironcore-stacked-color.png"
   inkscape:export-xdpi="96"
   inkscape:export-ydpi="96"
   inkscape:version="1.4.3 (0d15f75, 2025-12-25)"
   xmlns:inkscape="http://www.inkscape.org/namespaces/inkscape"
   xmlns:sodipodi="http://sodipodi.sourceforge.net/DTD/sodipodi-0.dtd"
   xmlns:xlink="http://www.w3.org/1999/xlink"
   xmlns="http://www.w3.org/2000/svg"
   xmlns:svg="http://www.w3.org/2000/svg">
  <sodipodi:namedview
     id="namedview12"
     pagecolor="#ffffff"
     bordercolor="#000000"
     borderopacity="0.25"
     inkscape:showpageshadow="2"
     inkscape:pageopacity="0.0"
     inkscape:pagecheckerboard="0"
     inkscape:deskcolor="#d1d1d1"
     inkscape:zoom="0.84"
     inkscape:cx="186.30952"
     inkscape:cy="186.30952"
     inkscape:current-layer="svg12" />
  <defs
     id="defs1">
    <rect
       id="path-1he0h8_xwz-1"
       x="0"
       y="0"
       width="390"
       height="390"
       rx="8" />
  </defs>
  <g
     id="Page-1"
     stroke="none"
     stroke-width="1"
     fill="none"
     fill-rule="evenodd"
     transform="translate(-5,-5)">
    <g
       id="ironcore">
      <g
         id="g2"
         transform="translate(5,5)">
        <g
           id="Mask"
           fill="#0077ba"
           fill-rule="nonzero">
          <rect
             id="path-3ulh_37f8a-1"
             x="0"
             y="0"
             width="390"
             height="390"
             rx="8" />
        </g>
        <g
           id="Clipped">
          <mask
             id="mask-1he0h8_xwz-2"
             fill="#ffffff">
            <use
               xlink:href="#path-1he0h8_xwz-1"
               id="use1" />
          </mask>
          <g
             id="g1" />
          <polygon
             id="Path"
             fill="#004a82"
             fill-rule="nonzero"
             mask="url(#mask-1he0h8_xwz-2)"
             points="240.83253,199.71321 240.83253,250.63898 295.86645,250.63898 117.09,390 0,390 0,181.01855 96.829254,105.03711 96.829254,199.71321 " />
        </g>
      </g>
      <g
         id="Group"
         transform="translate(16.78125,28.583984)">
        <g
           id="+1"
           transform="translate(329.20508,0.421875)"
           fill="#ffffff"
           fill-rule="nonzero">
          <polygon
             id="polygon2"
             points="18.439453,11.847656 11.654297,11.847656 11.654297,4.8339844 6.7675781,4.8339844 6.7675781,11.847656 0,11.847656 0,16.59375 6.7675781,16.59375 6.7675781,23.800781 11.654297,23.800781 11.654297,16.59375 18.439453,16.59375 " />
          <polygon
             id="polygon3"
             points="27.474609,0 21.814453,3.9902344 21.814453,9.0878906 27.193359,5.3085938 27.474609,5.3085938 27.474609,23.994141 33.1875,23.994141 33.1875,0 " />
        </g>
        <g
           id="Fe"
           transform="translate(85.048004,81.453125)"
           fill="#ffffff"
           fill-rule="nonzero">
          <polygon
             id="polygon4"
             points="95.347321,94.618469 95.347321,66.101074 36.586945,66.101074 36.586945,29.385406 101.2077,29.385406 101.2077,0 0,0 0,151.96289 36.586945,151.96289 36.586945,94.618469 " />
          <path
             d="m 165.68443,154.14423 c 8.79028,0 16.38437,-1.19011 22.78226,-3.57033 6.39788,-2.38022 11.69438,-5.54264 15.88948,-9.48725 4.1951,-3.94461 7.40332,-8.27713 9.62466,-12.99755 2.22135,-4.72043 3.56395,-9.42028 4.02782,-14.09954 h -32.24689 c -0.46735,2.9386 -1.62411,5.46088 -3.4703,7.56684 -1.8462,2.10595 -4.18235,3.71383 -7.00846,4.82364 -2.82611,1.1098 -6.0094,1.6647 -9.54986,1.6647 -6.10798,0 -11.25661,-2.15901 -15.44591,-6.47704 -4.1893,-4.31802 -6.28395,-10.26219 -6.28395,-17.8325 v -3.990418 h 74.80554 V 87.787445 c 0,-11.69989 -2.24135,-21.800018 -6.72405,-30.300385 -4.48269,-8.500366 -10.79853,-15.056838 -18.94752,-19.669418 -8.14899,-4.612579 -17.75278,-6.918869 -28.81137,-6.918869 -10.43585,0 -19.79408,2.137558 -28.07469,6.412674 -8.28061,4.275116 -14.82462,10.593857 -19.63202,18.956223 -4.80741,8.362365 -7.21111,18.700225 -7.21111,31.01358 v 9.490723 c 0,12.598627 2.3637,23.155377 7.09108,31.670237 4.72739,8.51487 11.32445,14.92725 19.79119,19.23716 8.46673,4.3099 18.26477,6.46486 29.3941,6.46486 z M 144.00328,79.288239 c 0,-0.02667 0,-0.04639 0,-0.05914 0,-0.01276 0,-0.03189 0,-0.0574 0,-4.405579 0.86279,-8.337723 2.58838,-11.796433 1.72558,-3.458709 4.13392,-6.185379 7.22502,-8.180008 3.09109,-1.994628 6.69041,-2.991943 10.79796,-2.991943 4.08203,0 7.63264,0.997315 10.65184,2.991943 3.01919,1.994629 5.36172,4.721299 7.02758,8.180008 1.66587,3.45871 2.4988,7.390854 2.4988,11.796433 0,0.02551 0,0.04465 0,0.0574 0,0.01276 0,0.03247 0,0.05914 z"
             id="Shape" />
        </g>
        <g
           id="26"
           transform="translate(0.310547)"
           fill="#ffffff"
           fill-rule="nonzero">
          <path
             d="m 5.4316406,7.9101562 c 0,-0.087891 0,-0.2460937 0,-0.3691406 C 5.4316406,5.9414062 6.5742187,4.5 8.5078125,4.5 c 1.7578125,0 3.0761715,1.265625 3.0761715,2.8828125 0,1.828125 -1.388671,3.2871095 -2.6367184,4.5703125 l -8.61328122,8.912109 v 3.550782 H 17.630859 V 19.845703 H 8.1386719 v -0.263672 l 4.8339841,-5.15039 c 1.96875,-2.074219 4.289063,-4.13086 4.289063,-7.6289066 C 17.261719,2.9355469 13.869141,0 8.6132813,0 2.6542969,0 0,3.9199219 0,7.59375 v 0.3164062 z"
             id="path4" />
          <path
             d="M 40.007812,6.3808594 C 39.849609,3.4804688 37.125,0.01757813 31.5,0.01757813 c -6.205078,0 -10.019531,4.28906247 -10.019531,12.81445287 0,3.445313 0.685547,6.029297 1.828125,7.910156 1.77539,2.917969 4.693359,4.113282 7.980468,4.113282 5.308594,0 9.210938,-3.128907 9.210938,-8.507813 0,-5.097656 -3.708984,-7.6816404 -7.558594,-7.6816404 -3.076172,0 -4.833984,1.5468754 -5.589844,3.1640624 H 27 c -0.158203,-3.8496093 1.423828,-7.3828124 4.464844,-7.3828124 1.705078,0 2.777343,0.9140625 3.146484,1.9335938 z M 27.615234,16.576172 c 0,-2.214844 1.476563,-3.779297 3.691407,-3.779297 2.039062,0 3.65625,1.371094 3.65625,3.779297 0,2.496094 -1.529297,3.867187 -3.673829,3.867187 -2.109375,0 -3.673828,-1.49414 -3.673828,-3.867187 z"
             id="path5" />
        </g>
        <g
           id="55.8457"
           transform="translate(0,328.0918)"
           fill="#ffffff"
           fill-rule="nonzero">
          <path
             d="m 0,12.597656 c 0.15234375,2.34375 2.2617188,4.054688 5.2148437,4.054688 3.3750001,0 5.6718753,-2.25 5.6718753,-5.554688 0,-3.2343748 -2.3203127,-5.1562498 -5.1093753,-5.1562498 -1.7695312,0 -2.8828124,0.8554688 -3.2109374,1.3710938 H 2.4492188 L 2.8828125,2.1914063 H 10.089844 V 0.328125 H 1.0546875 l -0.71484375,9.1875 H 2.1679688 C 2.6015625,8.7304688 3.65625,7.7578125 5.3085937,7.7578125 c 1.8046875,0 3.4101563,1.2890625 3.4101563,3.3984375 0,2.390625 -1.734375,3.667969 -3.375,3.667969 -1.4648437,0 -2.9648437,-0.632813 -3.28125,-2.226563 z"
             id="path6" />
          <path
             d="m 14.039063,12.597656 c 0.152343,2.34375 2.261718,4.054688 5.214843,4.054688 3.375,0 5.671875,-2.25 5.671875,-5.554688 0,-3.2343748 -2.320312,-5.1562498 -5.109375,-5.1562498 -1.769531,0 -2.882812,0.8554688 -3.210937,1.3710938 h -0.117188 l 0.433594,-5.1210937 h 7.207031 V 0.328125 H 15.09375 l -0.714844,9.1875 h 1.828125 c 0.433594,-0.7851562 1.488281,-1.7578125 3.140625,-1.7578125 1.804688,0 3.410156,1.2890625 3.410156,3.3984375 0,2.390625 -1.734375,3.667969 -3.375,3.667969 -1.464843,0 -2.964843,-0.632813 -3.28125,-2.226563 z"
             id="path7" />
          <path
             d="m 27.785156,14.882813 c 0,0.949218 0.75,1.652343 1.675781,1.652343 0.972657,0 1.710938,-0.703125 1.710938,-1.652343 0,-0.996094 -0.738281,-1.699219 -1.710938,-1.699219 -0.925781,0 -1.675781,0.703125 -1.675781,1.699219 z"
             id="path8" />
          <path
             d="m 40.183594,16.652344 c 3.339843,0 5.742187,-1.921875 5.742187,-4.710938 0,-2.4843747 -1.875,-3.6796872 -3.234375,-4.0078123 V 7.828125 c 1.078125,-0.3515625 2.625,-1.4296875 2.625,-3.5625 C 45.316406,1.7929687 43.183594,0 40.242187,0 c -2.941406,0 -5.074218,1.7929687 -5.074218,4.265625 0,2.0976562 1.476562,3.1875 2.601562,3.5625 v 0.1054687 c -1.335937,0.3281251 -3.234375,1.5117188 -3.234375,4.0312503 0,2.789062 2.332031,4.6875 5.648438,4.6875 z m 0.05859,-9.5390628 c -1.722656,0 -3,-1.1015625 -3,-2.6835937 0,-1.5820312 1.277344,-2.6367188 3,-2.6367188 1.734375,0 2.976563,1.0546876 2.976563,2.6367188 0,1.5820312 -1.242188,2.6835937 -2.976563,2.6835937 z m 0,7.7695318 c -2.039062,0 -3.597656,-1.21875 -3.597656,-3.011719 0,-1.792969 1.558594,-3.0351565 3.597656,-3.0351565 2.039063,0 3.574219,1.2421875 3.574219,3.0351565 0,1.792969 -1.535156,3.011719 -3.574219,3.011719 z"
             id="path9" />
          <path
             d="M 55.160156,0.328125 C 52.886719,3.9375 50.507812,7.546875 48.515625,11.15625 v 1.886719 h 7.769531 v 3.28125 h 2.0625 v -3.28125 h 2.074219 v -1.875 H 58.347656 V 0.328125 Z M 50.648437,11.167969 V 11.0625 c 1.675782,-2.9414062 3.65625,-6.09375 5.519532,-8.8828125 h 0.117187 v 8.9882815 z"
             id="path10" />
          <path
             d="m 63.199219,12.597656 c 0.152343,2.34375 2.261718,4.054688 5.214843,4.054688 3.375,0 5.671875,-2.25 5.671875,-5.554688 0,-3.2343748 -2.320312,-5.1562498 -5.109375,-5.1562498 -1.769531,0 -2.882812,0.8554688 -3.210937,1.3710938 h -0.117188 l 0.433594,-5.1210937 h 7.207031 V 0.328125 h -9.035156 l -0.714844,9.1875 h 1.828125 c 0.433594,-0.7851562 1.488282,-1.7578125 3.140625,-1.7578125 1.804688,0 3.410157,1.2890625 3.410157,3.3984375 0,2.390625 -1.734375,3.667969 -3.375,3.667969 -1.464844,0 -2.964844,-0.632813 -3.28125,-2.226563 z"
             id="path11" />
          <polygon
             id="polygon11"
             points="84.644531,2.203125 84.644531,2.3320312 78.023438,16.324219 80.285156,16.324219 86.835938,2.2734375 86.835938,0.328125 76.59375,0.328125 76.59375,2.203125 " />
        </g>
        <text
           id="IronCore"
           font-family="Helvetica-Bold, Helvetica"
           font-size="36px"
           font-weight="bold"><tspan
             x="0"
             y="314.15625"
             fill="#ffffff"
             id="tspan11">Iron</tspan><tspan
             x="67.992188"
             y="314.15625"
             fill="#0077ba"
             fill-opacity="0.800945"
             id="tspan12">Core</tspan></text>
      </g>
    </g>
  </g>
</svg>
