<?xml version="1.0" encoding="UTF-8" standalone="no"?>
<svg
   width="423.96201"
   height="442.59921"
   fill="none"
   viewBox="0 0 423.96201 442.59921"
   version="1.1"
   id="svg5"
   sodipodi:docname="greenhouse-icon-color.svg"
   inkscape:version="1.4.3 (0d15f75, 2025-12-25)"
   inkscape:export-filename="greenhouse-icon-color.png"
   inkscape:export-xdpi="96"
   inkscape:export-ydpi="96"
   xmlns:inkscape="http://www.inkscape.org/namespaces/inkscape"
   xmlns:sodipodi="http://sodipodi.sourceforge.net/DTD/sodipodi-0.dtd"
   xmlns="http://www.w3.org/2000/svg"
   xmlns:svg="http://www.w3.org/2000/svg">
  <defs
     id="defs5" />
  <sodipodi:namedview
     id="namedview5"
     pagecolor="#ffffff"
     bordercolor="#000000"
     borderopacity="0.25"
     inkscape:showpageshadow="2"
     inkscape:pageopacity="0.0"
     inkscape:pagecheckerboard="0"
     inkscape:deskcolor="#d1d1d1"
     inkscape:zoom="0.51"
     inkscape:cx="214.70588"
     inkscape:cy="226.47059"
     inkscape:current-layer="svg5" />
  <path
     fill="#000000"
     fill-rule="evenodd"
     d="m 204.959,1.2682264 a 12.424,12.424 0 0 1 10.937,0 L 413.9,98.330226 c 6.161,3.021004 8.925,7.736004 5.905,13.897004 -3.02,6.161 -10.68,11.435 -16.841,8.415 L 210.428,26.262226 24.848,117.23223 v 300.519 h 185.58 c 6.861,0 12.424,5.563 12.424,12.424 0,6.862 -5.563,12.424 -12.424,12.424 H 12.424 c -6.862,0 -12.424,-5.562 -12.424,-12.424 v -320.69 c 0,-4.741 2.698,-9.069 6.955,-11.156004 L 204.959,1.2692264 Z"
     clip-rule="evenodd"
     id="path1" />
  <path
     fill="#000000"
     fill-rule="evenodd"
     d="m 204.959,1.2682264 a 12.424,12.424 0 0 1 10.937,0 L 413.9,98.330226 c 6.161,3.021004 8.925,7.736004 5.905,13.897004 -3.02,6.161 -10.68,11.435 -16.841,8.415 L 210.428,26.262226 24.848,117.23223 v 300.519 h 185.58 c 6.861,0 12.424,5.563 12.424,12.424 0,6.862 -5.563,12.424 -12.424,12.424 H 12.424 c -6.862,0 -12.424,-5.562 -12.424,-12.424 v -320.69 c 0,-4.741 2.698,-9.069 6.955,-11.156004 L 204.959,1.2692264 Z"
     clip-rule="evenodd"
     id="path2" />
  <path
     fill="#000000"
     fill-rule="evenodd"
     d="m 413.9,98.329226 c 6.61,3.240004 10.062,6.624004 10.062,13.485004 v 318.36 c 0,6.862 -5.563,12.424 -12.424,12.424 -6.862,0 -12.424,-5.562 -12.424,-12.424 v -318.36 c 0,-6.861 7.925,-13.485004 14.786,-13.485004 z m -201.917,272.488004 -69.367,-33.589 c -5.018,-2.429 -11.055,-0.331 -13.485,4.686 -2.429,5.018 -0.331,11.055 4.687,13.485 l 73.678,35.676 a 10.052,10.052 0 0 0 4.487,1.054 10.052,10.052 0 0 0 4.487,-1.054 l 147.445,-71.395 c 5.017,-2.429 7.115,-8.466 4.686,-13.484 -2.43,-5.018 -8.467,-7.116 -13.485,-4.686 z"
     clip-rule="evenodd"
     id="path3" />
  <path
     fill="#000000"
     fill-rule="evenodd"
     d="m 211.981,203.66823 c 6.861,-0.032 11.615,1.348 11.647,8.209 l 1.553,218.239 c 0.032,6.862 -5.504,12.45 -12.366,12.482 -6.861,0.032 -12.449,-5.504 -12.481,-12.366 l -1.553,-218.238 c -0.033,-6.862 6.338,-8.294 13.2,-8.326 z"
     clip-rule="evenodd"
     id="path4" />
  <path
     fill="#000000"
     fill-rule="evenodd"
     d="m 211.983,286.95523 -69.367,-33.588 c -5.018,-2.43 -11.055,-0.332 -13.485,4.686 -2.429,5.018 -0.331,11.055 4.687,13.485 l 73.678,35.675 a 10.035,10.035 0 0 0 4.487,1.054 10.035,10.035 0 0 0 4.487,-1.054 l 147.445,-71.394 c 5.017,-2.429 7.115,-8.467 4.686,-13.484 -2.43,-5.018 -8.467,-7.116 -13.485,-4.686 z m -0.125,-84.694 -69.242,-33.528 c -5.018,-2.43 -11.055,-0.332 -13.485,4.686 -2.429,5.018 -0.331,11.055 4.687,13.484 l 73.663,35.669 a 10.058,10.058 0 0 0 8.639,0.173 c 0.191,-0.086 0.379,-0.178 0.564,-0.275 l 197.124,-100.894 c 4.962,-2.54 6.926,-8.622 4.386,-13.585 -2.54,-4.963 -8.622,-6.927 -13.585,-4.386 z"
     clip-rule="evenodd"
     id="path5" />
</svg>
