<?xml version="1.0" encoding="UTF-8"?>
<svg id="a" data-name="Layer 1" xmlns="http://www.w3.org/2000/svg" width="1000" height="1163.74" xmlns:xlink="http://www.w3.org/1999/xlink" viewBox="0 0 1000 1163.74">
  <defs>
    <linearGradient id="f" x1="1487.72" y1="-192.68" x2="1487.72" y2="161.26" gradientTransform="translate(-1133.55 244.6) scale(1.1 1)" gradientUnits="userSpaceOnUse">
      <stop offset="0" stop-color="#fff"/>
      <stop offset="1" stop-color="#fff" stop-opacity="0"/>
    </linearGradient>
    <linearGradient id="j" x1="508.85" y1="182.12" x2="501.61" y2="1243.82" gradientUnits="userSpaceOnUse">
      <stop offset="0" stop-color="#fff"/>
      <stop offset="1" stop-color="#bebebe"/>
    </linearGradient>
    <linearGradient id="x" x1="282.43" y1="25.79" x2="318.21" y2="82.9" gradientTransform="translate(134.6 208.7)" gradientUnits="userSpaceOnUse">
      <stop offset="0" stop-color="#fff"/>
      <stop offset="1" stop-color="#fff" stop-opacity="0"/>
    </linearGradient>
    <linearGradient id="aa" x1="484.43" y1="27.56" x2="514.33" y2="77.36" gradientTransform="translate(134.6 208.7)" gradientUnits="userSpaceOnUse">
      <stop offset="0" stop-color="#fff"/>
      <stop offset="1" stop-color="#fff" stop-opacity="0"/>
    </linearGradient>
    <radialGradient id="ac" cx="-4665.54" cy="-2495.37" fx="-4665.54" fy="-2495.37" r="85.57" gradientTransform="translate(0 -2152.4) scale(1 -1)" gradientUnits="userSpaceOnUse">
      <stop offset="0" stop-color="#fff"/>
      <stop offset="1" stop-color="#fff" stop-opacity="0"/>
    </radialGradient>
    <radialGradient id="ae" cx="-3015.95" cy="2921.67" fx="-3015.95" fy="2921.67" r="85.68" gradientTransform="translate(0 -2152.4) scale(1 -1)" gradientUnits="userSpaceOnUse">
      <stop offset="0" stop-color="#fff"/>
      <stop offset="1" stop-color="#fff" stop-opacity="0"/>
    </radialGradient>
    <linearGradient id="ah" x1="395.6" y1="155.33" x2="366.11" y2="205.33" gradientTransform="translate(134.6 208.7)" gradientUnits="userSpaceOnUse">
      <stop offset="0" stop-color="#fff"/>
      <stop offset="1" stop-color="#fff" stop-opacity="0"/>
    </linearGradient>
    <linearGradient id="ak" x1="1410.17" y1="135.16" x2="1410.17" y2="214.34" gradientTransform="translate(-1542.26 581.6) scale(1.3 1.5)" gradientUnits="userSpaceOnUse">
      <stop offset="0" stop-color="#fff"/>
      <stop offset="1" stop-color="#fff" stop-opacity="0"/>
    </linearGradient>
    <linearGradient id="an" x1="1394.79" y1="135.16" x2="1394.79" y2="214.34" gradientTransform="translate(-1092.96 581.6) scale(1.3 1.5)" gradientUnits="userSpaceOnUse">
      <stop offset="0" stop-color="#fff"/>
      <stop offset="1" stop-color="#fff" stop-opacity="0"/>
    </linearGradient>
    <linearGradient id="ap" x1="-205.38" y1="464.43" x2="85.05" y2="237.82" gradientTransform="translate(134.6 208.7)" gradientUnits="userSpaceOnUse">
      <stop offset="0" stop-color="#fff"/>
      <stop offset="1" stop-color="#fff" stop-opacity="0"/>
    </linearGradient>
    <linearGradient id="ar" x1="3242.21" y1="419.97" x2="3532.54" y2="193.46" gradientTransform="translate(4318.35 251.1) rotate(-180) scale(1 -1)" gradientUnits="userSpaceOnUse">
      <stop offset="0" stop-color="#fff"/>
      <stop offset="1" stop-color="#fff" stop-opacity="0"/>
    </linearGradient>
    <linearGradient id="at" x1="339.39" y1="66.74" x2="346.81" y2="93.54" gradientTransform="translate(134.6 208.7)" gradientUnits="userSpaceOnUse">
      <stop offset="0" stop-color="#fff"/>
      <stop offset="1" stop-color="#fff" stop-opacity="0"/>
    </linearGradient>
    <linearGradient id="av" x1="315.09" y1="94.81" x2="332" y2="126.67" gradientTransform="translate(134.6 208.7)" gradientUnits="userSpaceOnUse">
      <stop offset="0" stop-color="#e2e2e2"/>
      <stop offset="1" stop-color="#fff" stop-opacity="0"/>
    </linearGradient>
    <linearGradient id="ax" x1="392.18" y1="65.91" x2="401.98" y2="95.19" gradientTransform="translate(134.6 208.7)" gradientUnits="userSpaceOnUse">
      <stop offset="0" stop-color="#fff"/>
      <stop offset="1" stop-color="#fff" stop-opacity="0"/>
    </linearGradient>
    <linearGradient id="az" x1="370.38" y1="97.05" x2="387.04" y2="128.26" gradientTransform="translate(134.6 208.7)" gradientUnits="userSpaceOnUse">
      <stop offset="0" stop-color="#d7d7d7"/>
      <stop offset="1" stop-color="#e2e2e2" stop-opacity="0"/>
    </linearGradient>
  </defs>
  <g id="b" data-name="Layer 26">
    <g id="c" data-name="g10656" isolation="isolate" opacity=".8">
      <path id="d" data-name="path10636" d="M887.91,924.86c0,19.28-172.38,35.05-385.08,35.05s-385.08-15.67-385.08-35.05,172.38-35.05,385.08-35.05,385.08,15.77,385.08,35.05" fill="#d7d7d7"/>
    </g>
    <path id="e" data-name="path10676" d="M183.84,567.42c-2.06,10.83-2.99,21.75-2.78,32.68,5.05,167.23,144.96,303.01,323.42,303.01s321.88-134.96,323.42-303.01c.1-12.17-2.17-24.23-6.6-35.47,0,0,38.15,8.25,106.5,57.32,60.11,10.93,38.15-38.15,38.15-38.15,0,0-13.71-38.15-101.04-106.5-87.33-68.35-84.95-91.24-94.54-133.51-9.69-42.48-22.78-98.56-22.78-98.56,0,0-20.21-88.15-66.09-133.72-98.67-98.46-258.47-98.36-356.93.31-.21.21-.52.52-.72.72-45.88,46.19-71.65,116.3-71.65,116.3,0,0-14.74,55.67-14.33,100.21.41,43.82-10.31,82.48-97.64,150.83-87.33,68.35-101.04,106.5-101.04,106.5,0,0-20.83,45.98,39.28,35.16,68.35-45.05,105.57-54.23,105.47-54.23h0l-.1.1Z" fill="#efefef" stroke="#efefef" stroke-width="2.3"/>
    <path id="g" data-name="path10696" d="M700.06,221.01c0,98.67-88.25,178.77-197.13,178.77s-197.13-80.01-197.13-178.77S394.17,42.33,502.94,42.33s197.13,80.01,197.13,178.77" fill="url(#f)"/>
    <g id="h" data-name="g10896" isolation="isolate">
      <path id="i" data-name="path10876" d="M708.72,298.33c0,48.77-49.8,88.25-111.35,88.25s-111.35-39.49-111.35-88.25,49.8-88.25,111.35-88.25,111.35,39.49,111.35,88.25" fill="#cdcdcd" stroke="#cdcdcd" stroke-miterlimit="10"/>
    </g>
    <path id="k" data-name="path10716" d="M766.35,655.88c0,82.89-29.18,159.7-76.4,214.03-47.22,54.33-321.46,54.33-368.68,0-47.22-54.33-76.4-129.49-76.4-212.38,0-165.78,116.81-300.33,260.74-300.33,142.9.1,258.99,134.13,260.74,298.68Z" fill="url(#j)"/>
    <path id="l" data-name="path10736" d="M265.29,548.76s-8.87,82.79,1.86,130.52,22.99,95.16,22.99,95.16l-25.57,7.94c-9.59-11.13-18.45-22.89-26.5-35.16-12.37-19.38-27.42-59.08-27.42-59.08l39.59,30.93s-7.94-33.51-4.43-70.52c3.51-37.01,7.22-75.88,19.38-99.7h0l.1-.1Z" fill="#fff" isolation="isolate" opacity=".4"/>
    <path id="m" data-name="path10756" d="M366.84,412.87s11.44,17.63,19.38,17.84c12.99,1.44,16.7,15.16,29.59,14.23,27.63,33.09,51.86,63.92,77.74,76.81,9.28,5.98,19.18,7.42,27.63-7.22,14.74-12.89,48.66-49.28,55.88-63.2,10.72-12.37,8.25-30.41,8.25-30.41,0,0,18.25-7.32,27.42-7.94,10.21-.82,1.55-18.56,10.52-20.21-2.17-14.64,11.86-14.33-4.74-16.19-16.6-1.86-226.61-12.89-243.21-1.86-16.7,11.03-19.59,17.84-8.45,38.04h0v.1Z" fill="#cbcbcb"/>
    <path id="n" data-name="path10776" d="M744.91,553.19s8.87,82.79-1.86,130.52c-10.72,47.73-22.99,95.16-22.99,95.16l25.57,7.94c9.59-11.13,18.45-22.89,26.5-35.16,12.37-19.28,27.42-59.08,27.42-59.08l-39.59,30.93s7.94-33.51,4.43-70.52c-3.51-37.01-7.22-75.98-19.38-99.7l-.1-.1Z" fill="#fff" isolation="isolate" opacity=".4"/>
    <path id="o" data-name="path10796" d="M838.42,883.52c0,16.19-4.54,22.06-12.78,35.98h-300.64c-8.25-13.92-12.78-19.8-12.78-35.98,0-64.54,72.99-117.02,163.1-117.02s163.1,52.37,163.1,117.02" fill="#cbcbcb"/>
    <path id="p" data-name="path10816" d="M858.52,888.99c0,16.19-4.54,22.06-12.78,35.98h-300.43c-8.25-13.92-12.78-19.8-12.78-35.98,0-64.54,72.99-117.02,163.1-117.02s163,52.37,163,117.02" fill="#efefef" stroke="#efefef" stroke-width="2.3"/>
    <path id="q" data-name="path10836" d="M501.08,885.17c0,16.19-4.54,22.06-12.78,35.98H187.76c-8.25-13.92-12.78-19.8-12.78-35.98,0-64.54,72.99-117.02,163.1-117.02s163,52.58,163,117.02" fill="#cbcbcb"/>
    <path id="r" data-name="path10856" d="M480.87,888.99c0,16.19-4.54,22.06-12.78,35.98H167.55c-8.25-13.92-12.78-19.8-12.78-35.98,0-64.54,72.99-117.02,163.1-117.02s163,52.37,163,117.02" fill="#efefef" stroke="#efefef" stroke-width="2.3"/>
    <g id="s" data-name="g10956" isolation="isolate">
      <path id="t" data-name="path10916" d="M500.77,291.94c0,64.44-42.37,116.71-94.65,116.71s-94.65-52.27-94.65-116.71,42.37-116.71,94.65-116.71,94.65,52.27,94.65,116.71" fill="#cdcdcd"/>
    </g>
    <path id="u" data-name="path10976" d="M495.31,294.82c0,62.99-40.31,113.92-90.11,113.92s-90.11-50.93-90.11-113.92,40.31-113.92,90.11-113.92,90.11,50.93,90.11,113.92" fill="#d7d7d7"/>
    <path id="v" data-name="path10996" d="M692.02,304.72c0,46.19-43.71,83.51-97.43,83.51s-97.43-37.43-97.43-83.51,43.71-83.51,97.43-83.51,97.43,37.43,97.43,83.51" fill="#d7d7d7"/>
    <path id="w" data-name="path11016" d="M549.12,305.75c0,20.83-11.65,37.84-25.77,37.84s-25.77-16.91-25.77-37.84,11.65-37.84,25.77-37.84,25.77,16.91,25.77,37.84" fill="#a2a2a2" stroke="#a2a2a2" stroke-miterlimit="10"/>
    <path id="y" data-name="path11036" d="M348.08,219.25s25.77-47.84,75.47-31.24c49.69,16.6,53.1,45.36,65.98,111.76,12.89,66.4-45.78,6.29-45.78,6.29,0,0-7.42-57.12-40.52-73.61-33.09-16.6-55.16-11.03-55.16-12.99v-.21Z" fill="url(#x)" isolation="isolate" opacity=".8"/>
    <path id="z" data-name="path11056" d="M493.55,305.03c0,20.83-11.65,37.84-25.77,37.84s-25.77-16.91-25.77-37.84,11.65-37.84,25.77-37.84,25.77,16.91,25.77,37.84" fill="#a2a2a2" stroke="#a2a2a2" stroke-width="2.3"/>
    <path id="ab" data-name="path11076" d="M580.26,228.43s53.41-9.28,82.89,27.63c29.49,36.91,20.21,49.8,20.21,49.8l-40.52,1.86c.1,0-25.67-59.08-62.58-79.28h0Z" fill="url(#aa)" isolation="isolate" opacity=".8"/>
    <path id="ad" data-name="path11096" d="M512.94,344.11s48.46,28.66,90.83,23.09c42.37-5.57,62.27-21.24,79.39-38.04-4.33,20.1-44.23,51.86-79.18,53.71-34.95,1.86-91.14-36.91-91.14-38.77h.1Z" fill="url(#ac)" isolation="isolate" opacity=".8"/>
    <path id="af" data-name="path11116" d="M327.25,262.45s-.31,62.48,37.12,98.15c37.43,35.67,59.8,28.15,89.28,32.58-23.3,9.79-76.6,9.79-104.85-21.55-28.15-31.24-23.51-107.95-21.65-109.29h0l.1.1Z" fill="url(#ae)" isolation="isolate" opacity=".8"/>
    <path id="ag" data-name="path11136" d="M504.89,495.56h9.18c0-.1,9.9-11.03,44.23-46.91,22.99-26.08,30.21-43.2,30.21-43.2,0,0,4.74-17.22-17.73-34.85-29.28-14.64-44.23-14.64-65.98-14.43-21.75.21-37.84,2.78-65.98,14.64-28.15,11.86-23.51,35.88-23.51,35.88,0,0,2.06,11.44,36.39,47.32,34.33,35.88,53.2,41.55,53.2,41.55h0Z" fill="#d7d7d7"/>
    <path id="ai" data-name="path11156" d="M447.06,373.18s44.44,2.99,73.61,20.72c29.18,17.73,39.8,42.37,39.8,42.37,0,0,18.25-19.9,20.72-27.53,2.47-7.53,7.53-22.78-19.07-38.04-26.6-15.26-41.86-10.93-67.74-10.52-25.67.31-47.32,13.4-47.32,12.99h0Z" fill="url(#ah)"/>
    <g id="aj" data-name="g11196" isolation="isolate" opacity=".8">
      <path id="al" data-name="path11176" d="M390.45,852.08c0,36.08-44.54,65.47-99.49,65.47s-99.49-29.28-99.49-65.47,44.54-65.47,99.49-65.47,99.49,29.28,99.49,65.47" fill="url(#ak)"/>
    </g>
    <g id="am" data-name="g11236" isolation="isolate" opacity=".8">
      <path id="ao" data-name="path11216" d="M819.76,852.08c0,36.08-44.54,65.47-99.49,65.47s-99.49-29.28-99.49-65.47,44.54-65.47,99.49-65.47,99.49,29.28,99.49,65.47" fill="url(#an)"/>
    </g>
    <path id="aq" data-name="path11256" d="M47.85,597.01s154.75-99.49,178.77-117.95c24.02-18.56,1.86-77.43,1.86-77.43-16.19,22.17-34.13,43.2-53.41,62.68-27.63,22.17-49.8,40.52-92.17,75.47-42.37,42.48-34.95,59.08-34.95,57.22h-.1Z" fill="url(#ap)"/>
    <path id="as" data-name="path11276" d="M957.6,595.05s-154.75-99.49-178.77-117.95c-24.02-18.56-1.86-77.43-1.86-77.43,16.19,22.17,34.13,43.2,53.41,62.68,27.63,22.17,49.8,40.52,92.17,75.47,42.37,42.48,34.95,59.18,34.95,57.22h.1Z" fill="url(#ar)"/>
    <path id="au" data-name="path11316" d="M462.73,268.64s6.39,18.35,6.8,34.02c13.92-4.74,21.24-9.38,21.24-9.38,0,0-3.51-24.64-28.04-24.64h0Z" fill="url(#at)"/>
    <path id="aw" data-name="path11336" d="M448.19,281.63s-2.37,20.52,6.39,34.44c8.76,13.92,18.66,18.35,26.19,20.1-2.37,2.06-12.99,7.84-22.99-.31-9.9-8.04-14.85-15.77-14.85-26.5s1.86-23.71,5.26-27.73h0Z" fill="url(#av)"/>
    <path id="ay" data-name="path11356" d="M517.37,269.77s6.39,18.35,6.8,34.02c13.92-4.74,21.24-9.38,21.24-9.38,0,0-3.51-24.64-28.04-24.64h0Z" fill="url(#ax)"/>
    <path id="ba" data-name="path11376" d="M504.79,283.69s-2.37,20.52,6.39,34.44c8.76,13.92,15.87,18.09,23.4,19.85-2.37,2.06-10.2,8.09-20.2-.05-9.9-8.04-14.85-15.77-14.85-26.5s1.96-23.82,5.26-27.73h0Z" fill="url(#az)"/>
  </g>
  <g id="bb" data-name="Layer 1-26">
    <path id="bc" data-name="path11406" d="M228.69,425.35s103.72,107.53,273.52,104.85c82.69-1.34,190.63,1.44,300.12-113l7.42,8.76,54.33,47.43s-49.28,57.32-35.67,91.76c0,0,5.57,34.64,1.03,65.47-7.01,48.15-34.13,117.84-54.23,135.88,0,0-477.04-11.86-538.8,0,0,0-62.68-45.88-69.39-193.31,0,0-8.56-45.78-48.35-77.22l94.54-87.33,15.46,16.81v-.1Z" fill="#f4f4f4"/>
  </g>
  <path d="M615.46,668.72l-18.6-81.57c-.6-2.59-3.08-5.67-5.37-6.76l-75.31-36.31c-2.39-1.09-6.27-1.09-8.75,0l-75.31,36.31c-2.39,1.09-4.87,4.18-5.37,6.76l-12.63,55.41-5.97,26.06c-.6,2.59.3,6.37,1.89,8.46l52.03,65.36c1.69,2.09,5.07,3.78,7.76,3.78h83.66c2.59,0,6.07-1.69,7.76-3.78l52.03-65.36c1.69-2.09,2.49-5.77,1.89-8.46h.1v.1h.2ZM539.75,600.08c.8,1.79,1.29,3.58,1.29,5.47v26.76c0,1.49-.4,2.98-.9,4.58l-2.19,1.29-29.84-19.2,31.63-18.9h0ZM478.77,607.64c0-3.28,1.29-5.37,1.29-5.37l56.6,36.61-22.58,12.83-35.41-19.6v-24.37l.1-.1ZM462.06,674.39v-43.37c0-1.79.6-3.88,1.49-5.67l48.84,27.16h0l-48.75,27.85c-.99-1.89-1.69-3.98-1.69-5.77v-.1l.1-.1ZM561.34,678.07c-.7,2.19-1.79,4.08-5.57,7.16-3.78,3.08-37.5,21.59-37.5,21.59-3.48,1.89-8.95,1.89-12.43,0,0,0-31.93-17.91-37.5-21.59-.9-.6-3.18-2.69-3.78-3.48h0l73.42-41.98,22.98-13.03c.6,1.49.99,3.08.99,4.48,0,0,.2,32.33,0,43.37,0,.9-.2,2.19-.6,3.48h0Z" fill="#cbcbcb"/>
  <g id="bd" data-name="text17341">
    <path id="be" data-name="path1112" d="M132.51,1046.98v58.58h-13.13v-15.79c-3.8,5.31-8.64,9.53-14.52,12.66-5.88,3.13-12.68,4.69-20.38,4.69s-19.29-2.43-26.96-7.27c-7.6-4.89-13.43-11.67-17.5-20.3-4.07-8.64-6.08-18.49-6.08-29.54s2.11-21.25,6.33-29.69c4.22-8.49,10.23-15.02,18.05-19.61,7.82-4.59,16.98-6.88,27.5-6.88s17.38,1.66,24.13,4.99c6.78,3.28,12.86,8.17,18.27,14.69l-11.72,9.28c-3.9-4.99-8.36-8.79-13.35-11.32-4.94-2.56-10.87-3.82-17.8-3.82s-13.75,1.74-19.21,5.24c-5.41,3.5-9.61,8.44-12.58,14.84-2.9,6.35-4.37,13.78-4.37,22.26s1.46,15.94,4.37,22.49c2.98,6.55,7.12,11.69,12.51,15.39,5.36,3.65,11.57,5.46,18.59,5.46s13.13-1.44,17.97-4.29c4.84-2.9,8.46-6.8,10.85-11.64,2.41-4.84,3.62-10.23,3.67-16.16v-.47h-28.42v-13.83h43.81l-.02.02Z" fill="#fff"/>
    <path id="bf" data-name="path1132" d="M176.1,1107.12c-8.59,0-15.14-2.21-19.68-6.63-4.47-4.47-6.73-10.62-6.73-18.44s3.52-16.16,10.55-20.23c7.02-4.12,15.79-6.28,26.24-6.48l16.8-.32v-4.99c0-5.83-1.51-10.4-4.54-13.68-2.98-3.33-7.22-4.99-12.73-4.99-4.47,0-8.54.94-12.19,2.8-3.65,1.89-7.62,5.16-11.94,9.85l-8.84-9.13c3.65-4.47,8.27-8.14,13.83-11.02,5.63-2.9,12.11-4.37,19.46-4.37s12.09,1.24,16.7,3.75c4.64,2.51,8.14,5.93,10.55,10.3,2.41,4.37,3.6,9.41,3.6,15.07v39.04c0,6.68.2,12.63.62,17.9h-13.6c-.42-3.8-.62-7.97-.62-12.51h-.32c-3.18,4.64-6.85,8.14-11.02,10.55-4.12,2.33-9.51,3.52-16.16,3.52h.02ZM179.3,1095.33c4.99,0,9.28-.99,12.88-2.98,3.65-2.04,6.4-4.67,8.29-7.89,1.89-3.28,2.8-6.75,2.8-10.4v-8.04l-13.28.32c-7.77.2-14,1.49-18.74,3.82-4.69,2.28-7.02,6.3-7.02,12.04s1.32,7.22,3.97,9.61c2.71,2.33,6.4,3.52,11.1,3.52h0Z" fill="#fff"/>
    <path id="bg" data-name="path1151" d="M239.59,1040.8c0-8.54-.15-15.09-.47-19.68h13.28c.15,2.23.3,4.74.4,7.5.15,2.71.22,4.89.22,6.55h.32c2.09-5.26,4.77-9.18,8.04-11.79,3.28-2.61,7-3.9,11.17-3.9s5.21.25,7.02.77l-1.09,13.83c-1.89-.57-4.12-.87-6.73-.87-6.21,0-10.75,2.56-13.68,7.65-2.9,5.06-4.37,11.94-4.37,20.7v43.98h-14.15v-64.76l.02.02Z" fill="#fff"/>
    <path id="bh" data-name="path1171" d="M321.23,1107.12c-11.29,0-19.81-3.87-25.54-11.64-5.68-7.77-8.51-18.39-8.51-31.87s1.32-16.66,3.97-23.28c2.66-6.6,6.63-11.74,11.94-15.39,5.36-3.65,11.89-5.46,19.61-5.46s10.25,1.09,14.52,3.28c4.27,2.13,7.52,5.41,9.75,9.85h.15c-.1-1.14-.15-4.57-.15-10.23v-32.81h14.05v98.57c0,3.65.05,7.05.15,10.23s.2,5.56.32,7.2h-13.43c-.2-.89-.4-2.58-.55-5.09s-.22-5.01-.22-7.57h-.32c-2.51,4.74-5.98,8.32-10.47,10.7-4.47,2.33-9.58,3.52-15.31,3.52h.05ZM323.34,1094.71c7.3,0,13.06-2.58,17.25-7.74,4.27-5.16,6.4-13.4,6.4-24.77s-2.06-18.59-6.18-23.43c-4.12-4.84-9.58-7.27-16.41-7.27-15.04,0-22.56,10.55-22.56,31.62s1.71,17.75,5.16,23.28c3.5,5.51,8.94,8.29,16.33,8.29h0v.02Z" fill="#fff"/>
    <path id="bi" data-name="path1191" d="M417.14,1107.12c-8.22,0-15.27-1.81-21.1-5.46-5.78-3.7-10.18-8.86-13.21-15.46-2.98-6.68-4.44-14.4-4.44-23.21s1.59-17.08,4.77-23.58c3.23-6.55,7.62-11.52,13.21-14.84,5.56-3.38,11.84-5.09,18.81-5.09s15.39,2.01,20.7,6.01c5.31,3.95,9.13,9.01,11.49,15.14,2.33,6.16,3.52,12.68,3.52,19.61s-.1,4.02-.32,6.73h-57.34c0,4.54.87,8.96,2.58,13.28,1.76,4.27,4.44,7.82,8.04,10.62,3.6,2.76,8.02,4.15,13.28,4.15s6.26-.45,8.91-1.32c2.71-.94,5.14-2.13,7.27-3.6,2.18-1.46,4.59-3.33,7.2-5.63l7.65,10.08c-2.66,2.23-5.29,4.22-7.89,5.93-2.61,1.71-5.91,3.25-9.93,4.62-3.95,1.37-8.36,2.04-13.21,2.04h0ZM436.45,1055.17c-.67-8.02-2.78-13.95-6.33-17.8-3.55-3.9-8.51-5.86-14.92-5.86s-6.85.84-10.08,2.51c-3.18,1.61-5.86,4.19-8.04,7.74-2.13,3.55-3.33,8.02-3.6,13.43h42.97v-.02Z" fill="#fff"/>
    <path id="bj" data-name="path1211" d="M469.24,1039.01c0-3.23-.05-6.85-.15-10.85-.1-4.02-.2-6.35-.32-7.02h13.28c.15,1.41.3,3.67.4,6.8.15,3.13.22,5.66.22,7.57h.32c2.85-5.31,6.35-9.28,10.47-11.94,4.17-2.71,9.71-4.07,16.63-4.07s15.71,2.66,20.08,7.97c4.42,5.26,6.63,12.53,6.63,21.79v56.32h-14.15v-53.59c0-6.5-1.37-11.47-4.07-14.84-2.71-3.43-7.15-5.16-13.35-5.16s-8.29.97-11.57,2.88c-3.28,1.94-5.83,4.74-7.65,8.44-1.76,3.65-2.66,8.07-2.66,13.28v48.97h-14.15v-66.55h.02Z" fill="#fff"/>
    <path id="bk" data-name="path1231" d="M604.77,995.5h14.84v96.31h50.93v13.75h-65.78v-110.06Z" fill="#fff"/>
    <path id="bl" data-name="path1251" d="M693.43,1005.43c-2.71,0-4.96-.89-6.8-2.66-1.76-1.81-2.66-4.1-2.66-6.8s.89-4.94,2.66-6.73c1.81-1.81,4.1-2.73,6.8-2.73s4.87.92,6.63,2.73c1.76,1.76,2.66,4.02,2.66,6.73s-.89,4.89-2.66,6.73c-1.76,1.81-3.97,2.73-6.63,2.73h0ZM686.4,1021.12h14.05v84.44h-14.05v-84.44Z" fill="#fff"/>
    <path id="bm" data-name="path1271" d="M722.32,1039.01c0-3.23-.05-6.85-.15-10.85-.1-4.02-.2-6.35-.32-7.02h13.28c.15,1.41.3,3.67.4,6.8.15,3.13.22,5.66.22,7.57h.32c2.85-5.31,6.35-9.28,10.47-11.94,4.17-2.71,9.71-4.07,16.63-4.07s15.71,2.66,20.08,7.97c4.42,5.26,6.63,12.53,6.63,21.79v56.32h-14.15v-53.59c0-6.5-1.37-11.47-4.07-14.84-2.71-3.43-7.15-5.16-13.35-5.16s-8.29.97-11.57,2.88c-3.28,1.94-5.83,4.74-7.65,8.44-1.76,3.65-2.66,8.07-2.66,13.28v48.97h-14.15v-66.55h.02Z" fill="#fff"/>
    <path id="bn" data-name="path1291" d="M837.47,1107.12c-8.86,0-15.51-2.66-20.01-7.97-4.47-5.31-6.73-13.11-6.73-23.36v-54.68h14.05v51.95c0,7.69,1.39,13.25,4.15,16.63,2.8,3.33,7.27,4.99,13.35,4.99,4.07,0,7.77-1.07,11.1-3.2,3.33-2.18,5.96-5.24,7.89-9.13,1.94-3.95,2.88-8.44,2.88-13.43v-47.81h14.05v66.4c0,3.43.05,7.12.15,11.1.15,3.9.3,6.23.4,6.95h-13.28c-.1-.57-.25-2.58-.47-6.01-.15-3.43-.22-6.06-.22-7.89h-.32c-2.76,4.94-6.33,8.79-10.7,11.49-4.37,2.66-9.8,3.97-16.33,3.97h.05Z" fill="#fff"/>
    <path id="bo" data-name="path1311" d="M921.12,1062.2l-28.52-41.08h15.86l20.78,32.42,20.63-32.42h16.01l-28.52,40.93,30.23,43.51h-15.94l-22.41-34.38-22.41,34.38h-15.61l29.91-43.36h0Z" fill="#fff"/>
  </g>
</svg>
