<svg xmlns="http://www.w3.org/2000/svg" viewBox="0 0 450 440" xml:space="preserve">
    <g fill="#000000" transform="scale(6.7)" transform-origin="-4 -4">
        <path d="M41.195 58.79H18.817a4.833 4.833 0 0 1-3.802-1.831L1.061 39.452a4.836 4.836 0 0 1-.936-4.116l4.979-21.831a4.84 4.84 0 0 1 2.632-3.303L27.916.485a4.827 4.827 0 0 1 4.22 0l20.162 9.717a4.837 4.837 0 0 1 2.629 3.303l4.978 21.831a4.847 4.847 0 0 1-.936 4.116L45.015 56.959a4.823 4.823 0 0 1-3.82 1.831zM28.785 2.331L8.624 12.048a2.793 2.793 0 0 0-1.523 1.91L2.122 35.791c-.199.84.002 1.725.544 2.398l13.943 17.492a2.798 2.798 0 0 0 2.201 1.06h22.378a2.798 2.798 0 0 0 2.202-1.06L57.35 38.19a2.81 2.81 0 0 0 .545-2.384l-4.983-21.834a2.8 2.8 0 0 0-1.523-1.91l-20.158-9.73a2.8 2.8 0 0 0-2.445 0z"/>
        <path d="M27.407 40.36l-1.674-1.675-3.947-3.95-1.675-1.676 1.675-1.676 14.77-14.78-3.95-3.954L12.21 33.06l15.197 15.208 3.95-3.953z"/>
        <path d="M23.455 33.06l14.772-14.783 3.95 3.953-14.771 14.782zM29.082 38.685l14.772-14.782 3.95 3.953-14.772 14.782z"/>
    </g>
</svg>
