<?xml version="1.0" encoding="UTF-8"?>
<svg id="a" xmlns="http://www.w3.org/2000/svg" xmlns:xlink="http://www.w3.org/1999/xlink" viewBox="0 0 2975.78 2136.45">
  <defs>
    <linearGradient id="b" x1="2181.28" y1="982.58" x2="2351.07" y2="1005.52" gradientUnits="userSpaceOnUse">
      <stop offset="0" stop-color="#0f6bff"/>
      <stop offset=".23" stop-color="#0f6afc"/>
      <stop offset=".35" stop-color="#1068f4"/>
      <stop offset=".45" stop-color="#1364e6"/>
      <stop offset=".54" stop-color="#165fd3"/>
      <stop offset=".62" stop-color="#1b58b9"/>
      <stop offset=".69" stop-color="#204f9a"/>
      <stop offset=".76" stop-color="#274575"/>
      <stop offset=".82" stop-color="#2e394c"/>
      <stop offset=".85" stop-color="#333"/>
    </linearGradient>
    <linearGradient id="c" x1="-13832.64" y1="982.58" x2="-13662.86" y2="1005.52" gradientTransform="translate(-11401.774) scale(-1 1)" xlink:href="#b"/>
  </defs>
  <path d="M2139.63,1127.97h103.56c53.44,0,58.53-81.66,58.48-130.21l4.4-149.33-166.44,279.54Z" fill="url(#b)"/>
  <path d="M2472.52,1127.97h-103.56c-53.44,0-58.53-81.66-58.48-130.21l-4.4-149.33,166.44,279.54Z" fill="url(#c)"/>
  <g>
    <g>
      <path d="M604.87,919.43c-31.89,0-60.29,14.45-79.48,36.88-1.75-2.25-3.74-4.23-5.73-6.23-5.98-5.98-12.71-11.21-19.68-15.45-16.44-9.96-35.38-14.95-54.06-15.2h0c-26.66,0-53.56,10.21-73.75,30.65-20.43,20.43-30.65,47.09-30.65,73.75,0,18.69,4.99,37.62,14.95,54.06,4.23,6.97,9.47,13.7,15.45,19.68,5.98,5.98,12.71,11.21,19.68,15.45,40.11,24.42,93.43,19.18,128.06-15.45,2-2,3.98-4.23,5.73-6.23,19.18,22.42,47.58,36.88,79.48,36.88,57.55,0,104.4-46.84,104.4-104.4s-46.84-104.4-104.4-104.4h0ZM391.1,1023.82c0-13.95,5.24-27.9,15.94-38.62,10.71-10.71,24.67-15.94,38.62-15.94h0c5.73,0,11.46.99,16.94,2.74l-43.1,43.1-25.66,25.66c-1.75-5.48-2.74-11.21-2.74-16.94h0ZM484.53,1062.44c-14.95,14.95-36.63,19.43-55.56,13.45l26.66-26.66,42.11-42.11,4.99-4.99c-1.49,6.97-2.25,14.45-2.25,21.92,0,13.95-5.24,27.9-15.94,38.62v-.25h0ZM604.87,1078.63c-30.15,0-54.82-24.42-54.82-54.82s24.42-54.82,54.82-54.82,54.82,24.42,54.82,54.82-24.42,54.82-54.82,54.82Z" fill="#333"/>
      <polygon points="260.05 1006.13 157.4 846.93 97.6 846.93 97.6 1126.47 157.4 1126.47 157.4 951.56 269.27 1126.47 320.09 1126.47 320.09 846.93 260.05 846.93 260.05 1006.13" fill="#333"/>
      <polygon points="906.34 1006.13 803.69 846.93 743.9 846.93 743.9 1126.47 803.69 1126.47 803.69 951.56 915.56 1126.47 966.13 1126.47 966.13 846.93 906.34 846.93 906.34 1006.13" fill="#0f6bff"/>
      <path d="M1143.78,935.37c-14.95-9.22-32.14-13.7-51.33-13.7s-38.12,4.48-53.81,13.45c-15.7,8.97-27.9,21.43-36.63,37.12-8.72,15.7-13.2,33.39-13.2,52.57s4.48,36.88,13.45,52.57c8.97,15.7,21.43,28.15,37.62,37.12,16.19,8.97,34.88,13.45,56.31,13.45s35.63-3.49,50.08-10.71c14.45-6.97,26.41-17.19,35.63-30.65l-42.36-25.16c-4.48,5.73-10.46,10.46-18.19,13.7-7.72,3.49-15.7,5.24-23.67,5.24-13.45,0-24.17-2.99-32.64-8.72-8.47-5.98-14.95-14.95-19.93-26.91h145.5c.99-5.98,1.49-12.71,1.49-19.93,0-19.18-4.23-36.63-12.46-52.32-8.47-15.7-20.18-28.15-35.13-37.37l-.74.25h0ZM1043.61,1001.39c.5-8.72,5.48-15.94,14.95-22.17,9.47-6.23,20.68-9.22,33.39-9.22s22.67,2.74,31.14,8.23c8.47,5.48,13.7,13.2,15.45,23.17h-95.18.25Z" fill="#0f6bff"/>
      <path d="M1389.19,935.12c-14.95-8.97-32.89-13.45-53.81-13.45s-21.43,1.75-31.64,5.48c-10.21,3.49-19.68,8.72-28.65,15.45v-15.45h-57.05v279.54h57.05v-94.68c8.72,6.73,18.44,11.71,28.65,15.45,10.46,3.49,20.93,5.48,31.64,5.48,20.68,0,38.62-4.48,53.81-13.7,14.95-9.22,26.66-21.68,34.63-37.62,7.97-15.94,11.96-34.13,11.96-54.31s-3.98-38.37-11.96-54.06c-7.97-15.94-19.43-28.4-34.63-37.37v-.75h0ZM1364.27,1063.18c-9.47,9.22-21.68,13.7-36.63,13.7s-27.66-4.48-37.62-13.7c-9.96-9.22-14.95-21.18-14.95-36.13s4.99-27.16,15.2-36.63c10.21-9.47,22.67-14.45,37.62-14.45s27.16,4.73,36.63,13.95c9.47,9.22,14.2,21.68,14.2,36.63s-4.73,27.41-14.2,36.63h-.25Z" fill="#0f6bff"/>
      <path d="M1597.48,930.14c-11.96-4.99-23.42-7.47-34.88-7.47-16.94,0-32.89,6.23-47.58,18.44v-94.17h-57.05v279.54h57.05v-122.08c1.49-10.96,5.48-18.93,11.46-24.17,6.23-5.24,13.2-7.72,21.68-7.72s18.44,2.74,25.66,8.47c7.22,5.73,10.71,14.95,10.71,27.66v117.85h57.05v-119.34c-.25-21.18-4.73-38.12-13.45-50.82-8.72-12.46-18.93-21.18-30.65-26.16h0Z" fill="#0f6bff"/>
      <path d="M1818.72,935.37c-15.7-9.22-32.89-13.95-51.33-13.95s-36.13,4.73-51.83,13.95c-15.7,9.22-28.4,21.68-37.62,37.62-9.22,15.7-13.95,33.14-13.95,51.83s4.73,35.63,13.95,51.58c9.22,15.94,21.68,28.4,37.62,37.62,15.7,9.22,33.14,13.95,51.83,13.95s35.63-4.73,51.33-13.95c15.7-9.22,28.15-21.92,37.62-37.62,9.22-15.94,13.95-33.14,13.95-51.58s-4.73-36.13-13.95-51.83c-9.22-15.7-21.68-28.15-37.62-37.62h0ZM1800.53,1058.21c-9.47,9.22-20.68,13.95-33.64,13.95s-24.17-4.73-33.39-13.95c-9.22-9.22-13.95-20.43-13.95-33.39s4.73-24.17,13.95-33.64c9.22-9.47,20.43-13.95,33.39-13.95s24.17,4.73,33.64,13.95c9.47,9.47,13.95,20.68,13.95,33.64s-4.73,24.17-13.95,33.39Z" fill="#0f6bff"/>
      <path d="M2054.66,1028.06c-7.72-8.72-16.69-14.95-26.66-18.69-10.21-3.74-22.92-7.22-38.37-10.46-11.96-2.25-20.68-4.73-26.16-6.73-5.48-2.25-8.23-5.48-8.23-9.96s2.25-8.97,6.73-11.96c4.48-2.99,10.46-4.48,17.94-4.48s15.45,1.49,20.93,4.73c5.24,3.24,9.47,7.97,12.71,14.45l45.35-22.17c-7.72-13.2-18.69-23.42-32.39-30.4-13.7-6.97-29.4-10.46-46.59-10.46s-28.15,2.49-40.36,7.47c-12.46,4.99-22.17,12.21-29.4,21.68-7.22,9.47-10.96,20.68-10.96,33.39s3.74,23.92,10.96,31.89c7.22,7.97,15.94,13.7,26.16,17.69,10.21,3.74,22.92,7.47,37.87,10.71,13.2,2.99,22.92,5.73,29.15,8.23,6.23,2.49,9.22,6.48,9.22,11.71s-3.24,10.71-9.96,13.95c-6.73,3.24-14.45,4.99-23.17,4.99-21.68,0-35.63-8.23-41.86-24.91l-45.85,23.42c7.47,15.2,18.69,26.41,33.64,34.13,14.95,7.72,32.89,11.46,54.06,11.46s29.65-2.49,43.1-7.22c13.2-4.73,23.92-11.96,32.14-21.43,7.97-9.47,12.21-20.93,12.21-34.13s-3.74-27.41-11.46-36.13l-.74-.75h-.02Z" fill="#0f6bff"/>
      <path d="M534.13,1197.65c-4.36-3.43-9.04-5.75-14.04-6.97s-9.43-1.82-13.28-1.82c-6.29,0-11.93,1.33-16.93,3.96-5,2.64-9.29,5.82-12.86,9.54v-10.71h-22.5v107.14h22.5v-60c0-5.85.75-10.71,2.25-14.57,1.5-3.86,3.46-6.93,5.89-9.21,2.43-2.28,5.1-3.89,8.03-4.82,2.92-.93,5.75-1.39,8.46-1.39,2.86,0,5.79.4,8.78,1.18,3,.79,5.75,2.18,8.25,4.18,2.5,2,4.57,4.65,6.21,7.93,1.64,3.29,2.47,7.5,2.47,12.64v64.07h22.5v-64.07c0-9.43-1.54-17.11-4.61-23.03-3.07-5.93-6.79-10.6-11.14-14.04h.01ZM98.81,1298.79h23.78v-62.78h61.29v-22.5h-61.29v-42.22h63.86v-22.5h-87.64s0,150,0,150ZM297.56,1205.58c-5.07-5.14-11.04-9.18-17.89-12.11-6.86-2.92-14.15-4.39-21.86-4.39s-15,1.47-21.86,4.39c-6.86,2.93-12.82,6.97-17.89,12.11-5.07,5.14-9.07,11.11-12,17.89-2.93,6.79-4.4,14.04-4.4,21.75s1.47,15,4.4,21.86c2.92,6.86,6.93,12.86,12,18,5.07,5.14,11.04,9.18,17.89,12.11,6.86,2.92,14.15,4.4,21.86,4.4s15-1.47,21.86-4.4c6.86-2.92,12.82-6.97,17.89-12.11,5.07-5.14,9.07-11.14,12-18,2.92-6.86,4.39-14.15,4.39-21.86s-1.47-14.96-4.39-21.75c-2.93-6.78-6.93-12.75-12-17.89ZM288.77,1258.4c-1.79,4.07-4.18,7.64-7.18,10.71-3,3.07-6.54,5.5-10.6,7.28-4.07,1.79-8.46,2.68-13.18,2.68s-9.11-.89-13.18-2.68c-4.07-1.78-7.64-4.21-10.71-7.28-3.07-3.07-5.5-6.64-7.28-10.71-1.79-4.07-2.68-8.47-2.68-13.18s.89-9.11,2.68-13.18c1.78-4.07,4.21-7.61,7.28-10.6,3.07-3,6.64-5.39,10.71-7.18,4.07-1.78,8.46-2.68,13.18-2.68s9.11.89,13.18,2.68,7.61,4.18,10.6,7.18c3,3,5.39,6.54,7.18,10.6,1.78,4.07,2.68,8.46,2.68,13.18s-.89,9.11-2.68,13.18ZM408.46,1251.44c0,5.86-.79,10.71-2.36,14.57-1.58,3.86-3.53,6.93-5.89,9.21-2.36,2.29-5,3.9-7.93,4.82-2.93.93-5.82,1.39-8.68,1.39s-5.61-.39-8.68-1.18c-3.07-.78-5.82-2.14-8.25-4.07-2.43-1.93-4.46-4.54-6.1-7.82-1.64-3.28-2.47-7.5-2.47-12.64v-64.07h-22.5v64.07c0,9.43,1.53,17.11,4.61,23.03,3.07,5.93,6.78,10.6,11.14,14.04,4.36,3.43,9.04,5.75,14.04,6.97,5,1.22,9.43,1.82,13.28,1.82,6.14,0,11.71-1.33,16.72-3.96,5-2.64,9.35-5.82,13.07-9.54v10.71h22.5v-107.14h-22.5v59.79h0ZM783.67,1206.44c-3.86-5.14-8.65-9.32-14.36-12.53-5.71-3.22-12.43-4.82-20.14-4.82-8.14,0-15.46,1.43-21.97,4.29s-12.04,6.83-16.61,11.89c-4.57,5.07-8.11,11.04-10.61,17.89-2.5,6.86-3.75,14.29-3.75,22.28s1.25,15.21,3.75,22.07c2.5,6.86,6.03,12.82,10.61,17.89,4.57,5.07,10.1,9.04,16.61,11.89,6.5,2.86,13.82,4.29,21.97,4.29,7.72,0,14.43-1.61,20.14-4.82,5.71-3.21,10.5-7.39,14.36-12.53v14.57h22.5v-107.14h-22.5v14.79ZM781.1,1259.26c-1.72,4.36-4.07,8.11-7.07,11.25-3,3.14-6.58,5.61-10.71,7.39-4.15,1.79-8.65,2.68-13.5,2.68s-9-.93-12.86-2.78c-3.86-1.86-7.18-4.4-9.96-7.61-2.78-3.21-4.93-6.93-6.43-11.14-1.5-4.21-2.25-8.75-2.25-13.61s.75-9.39,2.25-13.61c1.5-4.21,3.65-7.93,6.43-11.14,2.78-3.22,6.1-5.75,9.96-7.61,3.86-1.86,8.14-2.78,12.86-2.78s9.35.85,13.5,2.57c4.14,1.72,7.72,4.15,10.71,7.28,3,3.14,5.36,6.86,7.07,11.14,1.72,4.29,2.57,8.93,2.57,13.93s-.85,9.68-2.57,14.04h0ZM1055.27,1205.58c-5.07-5.14-11.04-9.18-17.89-12.11-6.86-2.92-14.15-4.39-21.86-4.39s-15,1.47-21.86,4.39c-6.86,2.93-12.82,6.97-17.89,12.11s-9.07,11.11-12,17.89c-2.93,6.79-4.4,14.04-4.4,21.75s1.47,15,4.4,21.86c2.92,6.86,6.93,12.86,12,18,5.07,5.14,11.04,9.18,17.89,12.11,6.86,2.92,14.15,4.4,21.86,4.4s15-1.47,21.86-4.4c6.86-2.92,12.82-6.97,17.89-12.11,5.07-5.14,9.07-11.14,12-18,2.92-6.86,4.39-14.15,4.39-21.86s-1.47-14.96-4.39-21.75c-2.93-6.78-6.93-12.75-12-17.89ZM1046.49,1258.4c-1.79,4.07-4.18,7.64-7.18,10.71-3,3.07-6.54,5.5-10.6,7.28-4.07,1.79-8.47,2.68-13.18,2.68s-9.11-.89-13.18-2.68c-4.07-1.78-7.64-4.21-10.71-7.28-3.07-3.07-5.5-6.64-7.28-10.71-1.79-4.07-2.68-8.47-2.68-13.18s.89-9.11,2.68-13.18c1.78-4.07,4.21-7.61,7.28-10.6,3.07-3,6.64-5.39,10.71-7.18,4.07-1.78,8.46-2.68,13.18-2.68s9.11.89,13.18,2.68c4.07,1.79,7.61,4.18,10.6,7.18,3,3,5.39,6.54,7.18,10.6,1.78,4.07,2.68,8.46,2.68,13.18s-.89,9.11-2.68,13.18ZM1181.91,1211.69c-3.07-5.93-6.79-10.6-11.14-14.04-4.36-3.43-9.04-5.75-14.04-6.97s-9.43-1.82-13.28-1.82c-6.29,0-11.93,1.33-16.93,3.96-5,2.64-9.29,5.82-12.86,9.54v-10.71h-22.5v107.14h22.5v-60c0-5.85.75-10.71,2.25-14.57s3.46-6.93,5.89-9.21c2.43-2.28,5.1-3.89,8.03-4.82,2.92-.93,5.75-1.39,8.46-1.39,2.86,0,5.79.4,8.78,1.18,3,.79,5.75,2.18,8.25,4.18,2.5,2,4.57,4.65,6.21,7.93,1.64,3.29,2.47,7.5,2.47,12.64v64.07h22.5v-64.07c0-9.43-1.54-17.11-4.61-23.03h0ZM927.24,1139.8c-3.43,0-6.39,1.22-8.9,3.65-2.5,2.43-3.75,5.43-3.75,9s1.25,6.4,3.75,8.9c2.5,2.5,5.46,3.75,8.9,3.75s6.39-1.25,8.9-3.75c2.5-2.5,3.75-5.46,3.75-8.9s-1.25-6.57-3.75-9c-2.5-2.43-5.46-3.65-8.9-3.65ZM880.31,1278.86c-5,0-8.76-1.04-11.25-3.11-2.5-2.07-3.75-6.1-3.75-12.11v-51.64h24.86v-20.35h-24.86v-35.57l-22.5,7.72v27.86h-22.07v20.35h22.07v53.14c0,6.86.71,12.5,2.14,16.93,1.43,4.43,3.46,7.97,6.1,10.61,2.64,2.64,5.93,4.5,9.86,5.57,3.92,1.08,8.46,1.61,13.61,1.61,2.43,0,5-.11,7.72-.32,2.71-.21,5.5-.46,8.36-.75v-20.79c-2,.29-3.82.5-5.46.64-1.64.15-3.25.21-4.82.21h0ZM915.88,1298.79h22.5v-107.14h-22.5v107.14ZM655.52,1206.44c-4-5.14-8.82-9.32-14.46-12.53-5.65-3.22-12.32-4.82-20.04-4.82-8.14,0-15.46,1.43-21.97,4.29s-12.04,6.83-16.61,11.89c-4.57,5.07-8.11,11.04-10.6,17.89-2.5,6.86-3.75,14.29-3.75,22.28s1.25,15.21,3.75,22.07c2.5,6.86,6.03,12.82,10.6,17.89s10.1,9.04,16.61,11.89c6.5,2.86,13.82,4.29,21.97,4.29,7.72,0,14.39-1.61,20.04-4.82,5.64-3.21,10.46-7.32,14.46-12.32v14.36h22.5v-150h-22.5v57.64ZM652.95,1259.26c-1.72,4.36-4.07,8.11-7.07,11.25-3,3.14-6.58,5.61-10.71,7.39-4.15,1.79-8.65,2.68-13.5,2.68s-9-.93-12.86-2.78c-3.86-1.86-7.18-4.4-9.96-7.61-2.78-3.21-4.93-6.93-6.43-11.14-1.5-4.21-2.25-8.75-2.25-13.61s.75-9.39,2.25-13.61c1.5-4.21,3.65-7.93,6.43-11.14s6.1-5.75,9.96-7.61c3.86-1.86,8.14-2.78,12.86-2.78s9.35.85,13.5,2.57c4.14,1.72,7.72,4.15,10.71,7.28,3,3.14,5.36,6.86,7.07,11.14,1.72,4.29,2.57,8.93,2.57,13.93s-.85,9.68-2.57,14.04h0Z" fill="#333"/>
    </g>
    <g>
      <path d="M604.87,919.43c-31.89,0-60.29,14.45-79.48,36.88-1.75-2.25-3.74-4.23-5.73-6.23-5.98-5.98-12.71-11.21-19.68-15.45-16.44-9.96-35.38-14.95-54.06-15.2h0c-26.66,0-53.56,10.21-73.75,30.65-20.43,20.43-30.65,47.09-30.65,73.75,0,18.69,4.99,37.62,14.95,54.06,4.23,6.97,9.47,13.7,15.45,19.68,5.98,5.98,12.71,11.21,19.68,15.45,40.11,24.42,93.43,19.18,128.06-15.45,2-2,3.98-4.23,5.73-6.23,19.18,22.42,47.58,36.88,79.48,36.88,57.55,0,104.4-46.84,104.4-104.4s-46.84-104.4-104.4-104.4h0ZM391.1,1023.82c0-13.95,5.24-27.9,15.94-38.62,10.71-10.71,24.67-15.94,38.62-15.94h0c5.73,0,11.46.99,16.94,2.74l-43.1,43.1-25.66,25.66c-1.75-5.48-2.74-11.21-2.74-16.94h0ZM484.53,1062.44c-14.95,14.95-36.63,19.43-55.56,13.45l26.66-26.66,42.11-42.11,4.99-4.99c-1.49,6.97-2.25,14.45-2.25,21.92,0,13.95-5.24,27.9-15.94,38.62v-.25h0ZM604.87,1078.63c-30.15,0-54.82-24.42-54.82-54.82s24.42-54.82,54.82-54.82,54.82,24.42,54.82,54.82-24.42,54.82-54.82,54.82Z" fill="#333"/>
      <polygon points="260.05 1006.13 157.4 846.93 97.6 846.93 97.6 1126.47 157.4 1126.47 157.4 951.56 269.27 1126.47 320.09 1126.47 320.09 846.93 260.05 846.93 260.05 1006.13" fill="#333"/>
      <polygon points="906.34 1006.13 803.69 846.93 743.9 846.93 743.9 1126.47 803.69 1126.47 803.69 951.56 915.56 1126.47 966.13 1126.47 966.13 846.93 906.34 846.93 906.34 1006.13" fill="#0f6bff"/>
      <path d="M1143.78,935.37c-14.95-9.22-32.14-13.7-51.33-13.7s-38.12,4.48-53.81,13.45c-15.7,8.97-27.9,21.43-36.63,37.12-8.72,15.7-13.2,33.39-13.2,52.57s4.48,36.88,13.45,52.57c8.97,15.7,21.43,28.15,37.62,37.12,16.19,8.97,34.88,13.45,56.31,13.45s35.63-3.49,50.08-10.71c14.45-6.97,26.41-17.19,35.63-30.65l-42.36-25.16c-4.48,5.73-10.46,10.46-18.19,13.7-7.72,3.49-15.7,5.24-23.67,5.24-13.45,0-24.17-2.99-32.64-8.72-8.47-5.98-14.95-14.95-19.93-26.91h145.5c.99-5.98,1.49-12.71,1.49-19.93,0-19.18-4.23-36.63-12.46-52.32-8.47-15.7-20.18-28.15-35.13-37.37l-.74.25h0ZM1043.61,1001.39c.5-8.72,5.48-15.94,14.95-22.17,9.47-6.23,20.68-9.22,33.39-9.22s22.67,2.74,31.14,8.23c8.47,5.48,13.7,13.2,15.45,23.17h-95.18.25Z" fill="#0f6bff"/>
      <path d="M1389.19,935.12c-14.95-8.97-32.89-13.45-53.81-13.45s-21.43,1.75-31.64,5.48c-10.21,3.49-19.68,8.72-28.65,15.45v-15.45h-57.05v279.54h57.05v-94.68c8.72,6.73,18.44,11.71,28.65,15.45,10.46,3.49,20.93,5.48,31.64,5.48,20.68,0,38.62-4.48,53.81-13.7,14.95-9.22,26.66-21.68,34.63-37.62,7.97-15.94,11.96-34.13,11.96-54.31s-3.98-38.37-11.96-54.06c-7.97-15.94-19.43-28.4-34.63-37.37v-.75h0ZM1364.27,1063.18c-9.47,9.22-21.68,13.7-36.63,13.7s-27.66-4.48-37.62-13.7c-9.96-9.22-14.95-21.18-14.95-36.13s4.99-27.16,15.2-36.63c10.21-9.47,22.67-14.45,37.62-14.45s27.16,4.73,36.63,13.95c9.47,9.22,14.2,21.68,14.2,36.63s-4.73,27.41-14.2,36.63h-.25Z" fill="#0f6bff"/>
      <path d="M1597.48,930.14c-11.96-4.99-23.42-7.47-34.88-7.47-16.94,0-32.89,6.23-47.58,18.44v-94.17h-57.05v279.54h57.05v-122.08c1.49-10.96,5.48-18.93,11.46-24.17,6.23-5.24,13.2-7.72,21.68-7.72s18.44,2.74,25.66,8.47c7.22,5.73,10.71,14.95,10.71,27.66v117.85h57.05v-119.34c-.25-21.18-4.73-38.12-13.45-50.82-8.72-12.46-18.93-21.18-30.65-26.16h0Z" fill="#0f6bff"/>
      <path d="M1818.72,935.37c-15.7-9.22-32.89-13.95-51.33-13.95s-36.13,4.73-51.83,13.95c-15.7,9.22-28.4,21.68-37.62,37.62-9.22,15.7-13.95,33.14-13.95,51.83s4.73,35.63,13.95,51.58c9.22,15.94,21.68,28.4,37.62,37.62,15.7,9.22,33.14,13.95,51.83,13.95s35.63-4.73,51.33-13.95c15.7-9.22,28.15-21.92,37.62-37.62,9.22-15.94,13.95-33.14,13.95-51.58s-4.73-36.13-13.95-51.83c-9.22-15.7-21.68-28.15-37.62-37.62h0ZM1800.53,1058.21c-9.47,9.22-20.68,13.95-33.64,13.95s-24.17-4.73-33.39-13.95c-9.22-9.22-13.95-20.43-13.95-33.39s4.73-24.17,13.95-33.64c9.22-9.47,20.43-13.95,33.39-13.95s24.17,4.73,33.64,13.95c9.47,9.47,13.95,20.68,13.95,33.64s-4.73,24.17-13.95,33.39Z" fill="#0f6bff"/>
      <path d="M2054.66,1028.06c-7.72-8.72-16.69-14.95-26.66-18.69-10.21-3.74-22.92-7.22-38.37-10.46-11.96-2.25-20.68-4.73-26.16-6.73-5.48-2.25-8.23-5.48-8.23-9.96s2.25-8.97,6.73-11.96c4.48-2.99,10.46-4.48,17.94-4.48s15.45,1.49,20.93,4.73c5.24,3.24,9.47,7.97,12.71,14.45l45.35-22.17c-7.72-13.2-18.69-23.42-32.39-30.4-13.7-6.97-29.4-10.46-46.59-10.46s-28.15,2.49-40.36,7.47c-12.46,4.99-22.17,12.21-29.4,21.68-7.22,9.47-10.96,20.68-10.96,33.39s3.74,23.92,10.96,31.89c7.22,7.97,15.94,13.7,26.16,17.69,10.21,3.74,22.92,7.47,37.87,10.71,13.2,2.99,22.92,5.73,29.15,8.23,6.23,2.49,9.22,6.48,9.22,11.71s-3.24,10.71-9.96,13.95c-6.73,3.24-14.45,4.99-23.17,4.99-21.68,0-35.63-8.23-41.86-24.91l-45.85,23.42c7.47,15.2,18.69,26.41,33.64,34.13,14.95,7.72,32.89,11.46,54.06,11.46s29.65-2.49,43.1-7.22c13.2-4.73,23.92-11.96,32.14-21.43,7.97-9.47,12.21-20.93,12.21-34.13s-3.74-27.41-11.46-36.13l-.74-.75h-.02Z" fill="#0f6bff"/>
      <path d="M534.13,1197.65c-4.36-3.43-9.04-5.75-14.04-6.97s-9.43-1.82-13.28-1.82c-6.29,0-11.93,1.33-16.93,3.96-5,2.64-9.29,5.82-12.86,9.54v-10.71h-22.5v107.14h22.5v-60c0-5.85.75-10.71,2.25-14.57,1.5-3.86,3.46-6.93,5.89-9.21,2.43-2.28,5.1-3.89,8.03-4.82,2.92-.93,5.75-1.39,8.46-1.39,2.86,0,5.79.4,8.78,1.18,3,.79,5.75,2.18,8.25,4.18,2.5,2,4.57,4.65,6.21,7.93,1.64,3.29,2.47,7.5,2.47,12.64v64.07h22.5v-64.07c0-9.43-1.54-17.11-4.61-23.03-3.07-5.93-6.79-10.6-11.14-14.04h.01ZM98.81,1298.79h23.78v-62.78h61.29v-22.5h-61.29v-42.22h63.86v-22.5h-87.64s0,150,0,150ZM297.56,1205.58c-5.07-5.14-11.04-9.18-17.89-12.11-6.86-2.92-14.15-4.39-21.86-4.39s-15,1.47-21.86,4.39c-6.86,2.93-12.82,6.97-17.89,12.11-5.07,5.14-9.07,11.11-12,17.89-2.93,6.79-4.4,14.04-4.4,21.75s1.47,15,4.4,21.86c2.92,6.86,6.93,12.86,12,18,5.07,5.14,11.04,9.18,17.89,12.11,6.86,2.92,14.15,4.4,21.86,4.4s15-1.47,21.86-4.4c6.86-2.92,12.82-6.97,17.89-12.11,5.07-5.14,9.07-11.14,12-18,2.92-6.86,4.39-14.15,4.39-21.86s-1.47-14.96-4.39-21.75c-2.93-6.78-6.93-12.75-12-17.89ZM288.77,1258.4c-1.79,4.07-4.18,7.64-7.18,10.71-3,3.07-6.54,5.5-10.6,7.28-4.07,1.79-8.46,2.68-13.18,2.68s-9.11-.89-13.18-2.68c-4.07-1.78-7.64-4.21-10.71-7.28-3.07-3.07-5.5-6.64-7.28-10.71-1.79-4.07-2.68-8.47-2.68-13.18s.89-9.11,2.68-13.18c1.78-4.07,4.21-7.61,7.28-10.6,3.07-3,6.64-5.39,10.71-7.18,4.07-1.78,8.46-2.68,13.18-2.68s9.11.89,13.18,2.68,7.61,4.18,10.6,7.18c3,3,5.39,6.54,7.18,10.6,1.78,4.07,2.68,8.46,2.68,13.18s-.89,9.11-2.68,13.18ZM408.46,1251.44c0,5.86-.79,10.71-2.36,14.57-1.58,3.86-3.53,6.93-5.89,9.21-2.36,2.29-5,3.9-7.93,4.82-2.93.93-5.82,1.39-8.68,1.39s-5.61-.39-8.68-1.18c-3.07-.78-5.82-2.14-8.25-4.07-2.43-1.93-4.46-4.54-6.1-7.82-1.64-3.28-2.47-7.5-2.47-12.64v-64.07h-22.5v64.07c0,9.43,1.53,17.11,4.61,23.03,3.07,5.93,6.78,10.6,11.14,14.04,4.36,3.43,9.04,5.75,14.04,6.97,5,1.22,9.43,1.82,13.28,1.82,6.14,0,11.71-1.33,16.72-3.96,5-2.64,9.35-5.82,13.07-9.54v10.71h22.5v-107.14h-22.5v59.79h0ZM783.67,1206.44c-3.86-5.14-8.65-9.32-14.36-12.53-5.71-3.22-12.43-4.82-20.14-4.82-8.14,0-15.46,1.43-21.97,4.29s-12.04,6.83-16.61,11.89c-4.57,5.07-8.11,11.04-10.61,17.89-2.5,6.86-3.75,14.29-3.75,22.28s1.25,15.21,3.75,22.07c2.5,6.86,6.03,12.82,10.61,17.89,4.57,5.07,10.1,9.04,16.61,11.89,6.5,2.86,13.82,4.29,21.97,4.29,7.72,0,14.43-1.61,20.14-4.82,5.71-3.21,10.5-7.39,14.36-12.53v14.57h22.5v-107.14h-22.5v14.79ZM781.1,1259.26c-1.72,4.36-4.07,8.11-7.07,11.25-3,3.14-6.58,5.61-10.71,7.39-4.15,1.79-8.65,2.68-13.5,2.68s-9-.93-12.86-2.78c-3.86-1.86-7.18-4.4-9.96-7.61-2.78-3.21-4.93-6.93-6.43-11.14-1.5-4.21-2.25-8.75-2.25-13.61s.75-9.39,2.25-13.61c1.5-4.21,3.65-7.93,6.43-11.14,2.78-3.22,6.1-5.75,9.96-7.61,3.86-1.86,8.14-2.78,12.86-2.78s9.35.85,13.5,2.57c4.14,1.72,7.72,4.15,10.71,7.28,3,3.14,5.36,6.86,7.07,11.14,1.72,4.29,2.57,8.93,2.57,13.93s-.85,9.68-2.57,14.04h0ZM1055.27,1205.58c-5.07-5.14-11.04-9.18-17.89-12.11-6.86-2.92-14.15-4.39-21.86-4.39s-15,1.47-21.86,4.39c-6.86,2.93-12.82,6.97-17.89,12.11s-9.07,11.11-12,17.89c-2.93,6.79-4.4,14.04-4.4,21.75s1.47,15,4.4,21.86c2.92,6.86,6.93,12.86,12,18,5.07,5.14,11.04,9.18,17.89,12.11,6.86,2.92,14.15,4.4,21.86,4.4s15-1.47,21.86-4.4c6.86-2.92,12.82-6.97,17.89-12.11,5.07-5.14,9.07-11.14,12-18,2.92-6.86,4.39-14.15,4.39-21.86s-1.47-14.96-4.39-21.75c-2.93-6.78-6.93-12.75-12-17.89ZM1046.49,1258.4c-1.79,4.07-4.18,7.64-7.18,10.71-3,3.07-6.54,5.5-10.6,7.28-4.07,1.79-8.47,2.68-13.18,2.68s-9.11-.89-13.18-2.68c-4.07-1.78-7.64-4.21-10.71-7.28-3.07-3.07-5.5-6.64-7.28-10.71-1.79-4.07-2.68-8.47-2.68-13.18s.89-9.11,2.68-13.18c1.78-4.07,4.21-7.61,7.28-10.6,3.07-3,6.64-5.39,10.71-7.18,4.07-1.78,8.46-2.68,13.18-2.68s9.11.89,13.18,2.68c4.07,1.79,7.61,4.18,10.6,7.18,3,3,5.39,6.54,7.18,10.6,1.78,4.07,2.68,8.46,2.68,13.18s-.89,9.11-2.68,13.18ZM1181.91,1211.69c-3.07-5.93-6.79-10.6-11.14-14.04-4.36-3.43-9.04-5.75-14.04-6.97s-9.43-1.82-13.28-1.82c-6.29,0-11.93,1.33-16.93,3.96-5,2.64-9.29,5.82-12.86,9.54v-10.71h-22.5v107.14h22.5v-60c0-5.85.75-10.71,2.25-14.57s3.46-6.93,5.89-9.21c2.43-2.28,5.1-3.89,8.03-4.82,2.92-.93,5.75-1.39,8.46-1.39,2.86,0,5.79.4,8.78,1.18,3,.79,5.75,2.18,8.25,4.18,2.5,2,4.57,4.65,6.21,7.93,1.64,3.29,2.47,7.5,2.47,12.64v64.07h22.5v-64.07c0-9.43-1.54-17.11-4.61-23.03h0ZM927.24,1139.8c-3.43,0-6.39,1.22-8.9,3.65-2.5,2.43-3.75,5.43-3.75,9s1.25,6.4,3.75,8.9c2.5,2.5,5.46,3.75,8.9,3.75s6.39-1.25,8.9-3.75c2.5-2.5,3.75-5.46,3.75-8.9s-1.25-6.57-3.75-9c-2.5-2.43-5.46-3.65-8.9-3.65ZM880.31,1278.86c-5,0-8.76-1.04-11.25-3.11-2.5-2.07-3.75-6.1-3.75-12.11v-51.64h24.86v-20.35h-24.86v-35.57l-22.5,7.72v27.86h-22.07v20.35h22.07v53.14c0,6.86.71,12.5,2.14,16.93,1.43,4.43,3.46,7.97,6.1,10.61,2.64,2.64,5.93,4.5,9.86,5.57,3.92,1.08,8.46,1.61,13.61,1.61,2.43,0,5-.11,7.72-.32,2.71-.21,5.5-.46,8.36-.75v-20.79c-2,.29-3.82.5-5.46.64-1.64.15-3.25.21-4.82.21h0ZM915.88,1298.79h22.5v-107.14h-22.5v107.14ZM655.52,1206.44c-4-5.14-8.82-9.32-14.46-12.53-5.65-3.22-12.32-4.82-20.04-4.82-8.14,0-15.46,1.43-21.97,4.29s-12.04,6.83-16.61,11.89c-4.57,5.07-8.11,11.04-10.6,17.89-2.5,6.86-3.75,14.29-3.75,22.28s1.25,15.21,3.75,22.07c2.5,6.86,6.03,12.82,10.6,17.89s10.1,9.04,16.61,11.89c6.5,2.86,13.82,4.29,21.97,4.29,7.72,0,14.39-1.61,20.04-4.82,5.64-3.21,10.46-7.32,14.46-12.32v14.36h22.5v-150h-22.5v57.64ZM652.95,1259.26c-1.72,4.36-4.07,8.11-7.07,11.25-3,3.14-6.58,5.61-10.71,7.39-4.15,1.79-8.65,2.68-13.5,2.68s-9-.93-12.86-2.78c-3.86-1.86-7.18-4.4-9.96-7.61-2.78-3.21-4.93-6.93-6.43-11.14-1.5-4.21-2.25-8.75-2.25-13.61s.75-9.39,2.25-13.61c1.5-4.21,3.65-7.93,6.43-11.14s6.1-5.75,9.96-7.61c3.86-1.86,8.14-2.78,12.86-2.78s9.35.85,13.5,2.57c4.14,1.72,7.72,4.15,10.71,7.28,3,3.14,5.36,6.86,7.07,11.14,1.72,4.29,2.57,8.93,2.57,13.93s-.85,9.68-2.57,14.04h0Z" fill="#333"/>
    </g>
  </g>
  <g>
    <g>
      <path d="M604.87,919.43c-31.89,0-60.29,14.45-79.48,36.88-1.75-2.25-3.74-4.23-5.73-6.23-5.98-5.98-12.71-11.21-19.68-15.45-16.44-9.96-35.38-14.95-54.06-15.2h0c-26.66,0-53.56,10.21-73.75,30.65-20.43,20.43-30.65,47.09-30.65,73.75,0,18.69,4.99,37.62,14.95,54.06,4.23,6.97,9.47,13.7,15.45,19.68,5.98,5.98,12.71,11.21,19.68,15.45,40.11,24.42,93.43,19.18,128.06-15.45,2-2,3.98-4.23,5.73-6.23,19.18,22.42,47.58,36.88,79.48,36.88,57.55,0,104.4-46.84,104.4-104.4s-46.84-104.4-104.4-104.4h0ZM391.1,1023.82c0-13.95,5.24-27.9,15.94-38.62,10.71-10.71,24.67-15.94,38.62-15.94h0c5.73,0,11.46.99,16.94,2.74l-43.1,43.1-25.66,25.66c-1.75-5.48-2.74-11.21-2.74-16.94h0ZM484.53,1062.44c-14.95,14.95-36.63,19.43-55.56,13.45l26.66-26.66,42.11-42.11,4.99-4.99c-1.49,6.97-2.25,14.45-2.25,21.92,0,13.95-5.24,27.9-15.94,38.62v-.25h0ZM604.87,1078.63c-30.15,0-54.82-24.42-54.82-54.82s24.42-54.82,54.82-54.82,54.82,24.42,54.82,54.82-24.42,54.82-54.82,54.82Z" fill="#333"/>
      <polygon points="260.05 1006.13 157.4 846.93 97.6 846.93 97.6 1126.47 157.4 1126.47 157.4 951.56 269.27 1126.47 320.09 1126.47 320.09 846.93 260.05 846.93 260.05 1006.13" fill="#333"/>
      <polygon points="906.34 1006.13 803.69 846.93 743.9 846.93 743.9 1126.47 803.69 1126.47 803.69 951.56 915.56 1126.47 966.13 1126.47 966.13 846.93 906.34 846.93 906.34 1006.13" fill="#0f6bff"/>
      <path d="M1143.78,935.37c-14.95-9.22-32.14-13.7-51.33-13.7s-38.12,4.48-53.81,13.45c-15.7,8.97-27.9,21.43-36.63,37.12-8.72,15.7-13.2,33.39-13.2,52.57s4.48,36.88,13.45,52.57c8.97,15.7,21.43,28.15,37.62,37.12,16.19,8.97,34.88,13.45,56.31,13.45s35.63-3.49,50.08-10.71c14.45-6.97,26.41-17.19,35.63-30.65l-42.36-25.16c-4.48,5.73-10.46,10.46-18.19,13.7-7.72,3.49-15.7,5.24-23.67,5.24-13.45,0-24.17-2.99-32.64-8.72-8.47-5.98-14.95-14.95-19.93-26.91h145.5c.99-5.98,1.49-12.71,1.49-19.93,0-19.18-4.23-36.63-12.46-52.32-8.47-15.7-20.18-28.15-35.13-37.37l-.74.25h0ZM1043.61,1001.39c.5-8.72,5.48-15.94,14.95-22.17,9.47-6.23,20.68-9.22,33.39-9.22s22.67,2.74,31.14,8.23c8.47,5.48,13.7,13.2,15.45,23.17h-95.18.25Z" fill="#0f6bff"/>
      <path d="M1389.19,935.12c-14.95-8.97-32.89-13.45-53.81-13.45s-21.43,1.75-31.64,5.48c-10.21,3.49-19.68,8.72-28.65,15.45v-15.45h-57.05v279.54h57.05v-94.68c8.72,6.73,18.44,11.71,28.65,15.45,10.46,3.49,20.93,5.48,31.64,5.48,20.68,0,38.62-4.48,53.81-13.7,14.95-9.22,26.66-21.68,34.63-37.62,7.97-15.94,11.96-34.13,11.96-54.31s-3.98-38.37-11.96-54.06c-7.97-15.94-19.43-28.4-34.63-37.37v-.75h0ZM1364.27,1063.18c-9.47,9.22-21.68,13.7-36.63,13.7s-27.66-4.48-37.62-13.7c-9.96-9.22-14.95-21.18-14.95-36.13s4.99-27.16,15.2-36.63c10.21-9.47,22.67-14.45,37.62-14.45s27.16,4.73,36.63,13.95c9.47,9.22,14.2,21.68,14.2,36.63s-4.73,27.41-14.2,36.63h-.25Z" fill="#0f6bff"/>
      <path d="M1597.48,930.14c-11.96-4.99-23.42-7.47-34.88-7.47-16.94,0-32.89,6.23-47.58,18.44v-94.17h-57.05v279.54h57.05v-122.08c1.49-10.96,5.48-18.93,11.46-24.17,6.23-5.24,13.2-7.72,21.68-7.72s18.44,2.74,25.66,8.47c7.22,5.73,10.71,14.95,10.71,27.66v117.85h57.05v-119.34c-.25-21.18-4.73-38.12-13.45-50.82-8.72-12.46-18.93-21.18-30.65-26.16h0Z" fill="#0f6bff"/>
      <path d="M1818.72,935.37c-15.7-9.22-32.89-13.95-51.33-13.95s-36.13,4.73-51.83,13.95c-15.7,9.22-28.4,21.68-37.62,37.62-9.22,15.7-13.95,33.14-13.95,51.83s4.73,35.63,13.95,51.58c9.22,15.94,21.68,28.4,37.62,37.62,15.7,9.22,33.14,13.95,51.83,13.95s35.63-4.73,51.33-13.95c15.7-9.22,28.15-21.92,37.62-37.62,9.22-15.94,13.95-33.14,13.95-51.58s-4.73-36.13-13.95-51.83c-9.22-15.7-21.68-28.15-37.62-37.62h0ZM1800.53,1058.21c-9.47,9.22-20.68,13.95-33.64,13.95s-24.17-4.73-33.39-13.95c-9.22-9.22-13.95-20.43-13.95-33.39s4.73-24.17,13.95-33.64c9.22-9.47,20.43-13.95,33.39-13.95s24.17,4.73,33.64,13.95c9.47,9.47,13.95,20.68,13.95,33.64s-4.73,24.17-13.95,33.39Z" fill="#0f6bff"/>
      <path d="M2054.66,1028.06c-7.72-8.72-16.69-14.95-26.66-18.69-10.21-3.74-22.92-7.22-38.37-10.46-11.96-2.25-20.68-4.73-26.16-6.73-5.48-2.25-8.23-5.48-8.23-9.96s2.25-8.97,6.73-11.96c4.48-2.99,10.46-4.48,17.94-4.48s15.45,1.49,20.93,4.73c5.24,3.24,9.47,7.97,12.71,14.45l45.35-22.17c-7.72-13.2-18.69-23.42-32.39-30.4-13.7-6.97-29.4-10.46-46.59-10.46s-28.15,2.49-40.36,7.47c-12.46,4.99-22.17,12.21-29.4,21.68-7.22,9.47-10.96,20.68-10.96,33.39s3.74,23.92,10.96,31.89c7.22,7.97,15.94,13.7,26.16,17.69,10.21,3.74,22.92,7.47,37.87,10.71,13.2,2.99,22.92,5.73,29.15,8.23,6.23,2.49,9.22,6.48,9.22,11.71s-3.24,10.71-9.96,13.95c-6.73,3.24-14.45,4.99-23.17,4.99-21.68,0-35.63-8.23-41.86-24.91l-45.85,23.42c7.47,15.2,18.69,26.41,33.64,34.13,14.95,7.72,32.89,11.46,54.06,11.46s29.65-2.49,43.1-7.22c13.2-4.73,23.92-11.96,32.14-21.43,7.97-9.47,12.21-20.93,12.21-34.13s-3.74-27.41-11.46-36.13l-.74-.75h-.02Z" fill="#0f6bff"/>
      <path d="M534.13,1197.65c-4.36-3.43-9.04-5.75-14.04-6.97s-9.43-1.82-13.28-1.82c-6.29,0-11.93,1.33-16.93,3.96-5,2.64-9.29,5.82-12.86,9.54v-10.71h-22.5v107.14h22.5v-60c0-5.85.75-10.71,2.25-14.57,1.5-3.86,3.46-6.93,5.89-9.21,2.43-2.28,5.1-3.89,8.03-4.82,2.92-.93,5.75-1.39,8.46-1.39,2.86,0,5.79.4,8.78,1.18,3,.79,5.75,2.18,8.25,4.18,2.5,2,4.57,4.65,6.21,7.93,1.64,3.29,2.47,7.5,2.47,12.64v64.07h22.5v-64.07c0-9.43-1.54-17.11-4.61-23.03-3.07-5.93-6.79-10.6-11.14-14.04h.01ZM98.81,1298.79h23.78v-62.78h61.29v-22.5h-61.29v-42.22h63.86v-22.5h-87.64s0,150,0,150ZM297.56,1205.58c-5.07-5.14-11.04-9.18-17.89-12.11-6.86-2.92-14.15-4.39-21.86-4.39s-15,1.47-21.86,4.39c-6.86,2.93-12.82,6.97-17.89,12.11-5.07,5.14-9.07,11.11-12,17.89-2.93,6.79-4.4,14.04-4.4,21.75s1.47,15,4.4,21.86c2.92,6.86,6.93,12.86,12,18,5.07,5.14,11.04,9.18,17.89,12.11,6.86,2.92,14.15,4.4,21.86,4.4s15-1.47,21.86-4.4c6.86-2.92,12.82-6.97,17.89-12.11,5.07-5.14,9.07-11.14,12-18,2.92-6.86,4.39-14.15,4.39-21.86s-1.47-14.96-4.39-21.75c-2.93-6.78-6.93-12.75-12-17.89ZM288.77,1258.4c-1.79,4.07-4.18,7.64-7.18,10.71-3,3.07-6.54,5.5-10.6,7.28-4.07,1.79-8.46,2.68-13.18,2.68s-9.11-.89-13.18-2.68c-4.07-1.78-7.64-4.21-10.71-7.28-3.07-3.07-5.5-6.64-7.28-10.71-1.79-4.07-2.68-8.47-2.68-13.18s.89-9.11,2.68-13.18c1.78-4.07,4.21-7.61,7.28-10.6,3.07-3,6.64-5.39,10.71-7.18,4.07-1.78,8.46-2.68,13.18-2.68s9.11.89,13.18,2.68,7.61,4.18,10.6,7.18c3,3,5.39,6.54,7.18,10.6,1.78,4.07,2.68,8.46,2.68,13.18s-.89,9.11-2.68,13.18ZM408.46,1251.44c0,5.86-.79,10.71-2.36,14.57-1.58,3.86-3.53,6.93-5.89,9.21-2.36,2.29-5,3.9-7.93,4.82-2.93.93-5.82,1.39-8.68,1.39s-5.61-.39-8.68-1.18c-3.07-.78-5.82-2.14-8.25-4.07-2.43-1.93-4.46-4.54-6.1-7.82-1.64-3.28-2.47-7.5-2.47-12.64v-64.07h-22.5v64.07c0,9.43,1.53,17.11,4.61,23.03,3.07,5.93,6.78,10.6,11.14,14.04,4.36,3.43,9.04,5.75,14.04,6.97,5,1.22,9.43,1.82,13.28,1.82,6.14,0,11.71-1.33,16.72-3.96,5-2.64,9.35-5.82,13.07-9.54v10.71h22.5v-107.14h-22.5v59.79h0ZM783.67,1206.44c-3.86-5.14-8.65-9.32-14.36-12.53-5.71-3.22-12.43-4.82-20.14-4.82-8.14,0-15.46,1.43-21.97,4.29s-12.04,6.83-16.61,11.89c-4.57,5.07-8.11,11.04-10.61,17.89-2.5,6.86-3.75,14.29-3.75,22.28s1.25,15.21,3.75,22.07c2.5,6.86,6.03,12.82,10.61,17.89,4.57,5.07,10.1,9.04,16.61,11.89,6.5,2.86,13.82,4.29,21.97,4.29,7.72,0,14.43-1.61,20.14-4.82,5.71-3.21,10.5-7.39,14.36-12.53v14.57h22.5v-107.14h-22.5v14.79ZM781.1,1259.26c-1.72,4.36-4.07,8.11-7.07,11.25-3,3.14-6.58,5.61-10.71,7.39-4.15,1.79-8.65,2.68-13.5,2.68s-9-.93-12.86-2.78c-3.86-1.86-7.18-4.4-9.96-7.61-2.78-3.21-4.93-6.93-6.43-11.14-1.5-4.21-2.25-8.75-2.25-13.61s.75-9.39,2.25-13.61c1.5-4.21,3.65-7.93,6.43-11.14,2.78-3.22,6.1-5.75,9.96-7.61,3.86-1.86,8.14-2.78,12.86-2.78s9.35.85,13.5,2.57c4.14,1.72,7.72,4.15,10.71,7.28,3,3.14,5.36,6.86,7.07,11.14,1.72,4.29,2.57,8.93,2.57,13.93s-.85,9.68-2.57,14.04h0ZM1055.27,1205.58c-5.07-5.14-11.04-9.18-17.89-12.11-6.86-2.92-14.15-4.39-21.86-4.39s-15,1.47-21.86,4.39c-6.86,2.93-12.82,6.97-17.89,12.11s-9.07,11.11-12,17.89c-2.93,6.79-4.4,14.04-4.4,21.75s1.47,15,4.4,21.86c2.92,6.86,6.93,12.86,12,18,5.07,5.14,11.04,9.18,17.89,12.11,6.86,2.92,14.15,4.4,21.86,4.4s15-1.47,21.86-4.4c6.86-2.92,12.82-6.97,17.89-12.11,5.07-5.14,9.07-11.14,12-18,2.92-6.86,4.39-14.15,4.39-21.86s-1.47-14.96-4.39-21.75c-2.93-6.78-6.93-12.75-12-17.89ZM1046.49,1258.4c-1.79,4.07-4.18,7.64-7.18,10.71-3,3.07-6.54,5.5-10.6,7.28-4.07,1.79-8.47,2.68-13.18,2.68s-9.11-.89-13.18-2.68c-4.07-1.78-7.64-4.21-10.71-7.28-3.07-3.07-5.5-6.64-7.28-10.71-1.79-4.07-2.68-8.47-2.68-13.18s.89-9.11,2.68-13.18c1.78-4.07,4.21-7.61,7.28-10.6,3.07-3,6.64-5.39,10.71-7.18,4.07-1.78,8.46-2.68,13.18-2.68s9.11.89,13.18,2.68c4.07,1.79,7.61,4.18,10.6,7.18,3,3,5.39,6.54,7.18,10.6,1.78,4.07,2.68,8.46,2.68,13.18s-.89,9.11-2.68,13.18ZM1181.91,1211.69c-3.07-5.93-6.79-10.6-11.14-14.04-4.36-3.43-9.04-5.75-14.04-6.97s-9.43-1.82-13.28-1.82c-6.29,0-11.93,1.33-16.93,3.96-5,2.64-9.29,5.82-12.86,9.54v-10.71h-22.5v107.14h22.5v-60c0-5.85.75-10.71,2.25-14.57s3.46-6.93,5.89-9.21c2.43-2.28,5.1-3.89,8.03-4.82,2.92-.93,5.75-1.39,8.46-1.39,2.86,0,5.79.4,8.78,1.18,3,.79,5.75,2.18,8.25,4.18,2.5,2,4.57,4.65,6.21,7.93,1.64,3.29,2.47,7.5,2.47,12.64v64.07h22.5v-64.07c0-9.43-1.54-17.11-4.61-23.03h0ZM927.24,1139.8c-3.43,0-6.39,1.22-8.9,3.65-2.5,2.43-3.75,5.43-3.75,9s1.25,6.4,3.75,8.9c2.5,2.5,5.46,3.75,8.9,3.75s6.39-1.25,8.9-3.75c2.5-2.5,3.75-5.46,3.75-8.9s-1.25-6.57-3.75-9c-2.5-2.43-5.46-3.65-8.9-3.65ZM880.31,1278.86c-5,0-8.76-1.04-11.25-3.11-2.5-2.07-3.75-6.1-3.75-12.11v-51.64h24.86v-20.35h-24.86v-35.57l-22.5,7.72v27.86h-22.07v20.35h22.07v53.14c0,6.86.71,12.5,2.14,16.93,1.43,4.43,3.46,7.97,6.1,10.61,2.64,2.64,5.93,4.5,9.86,5.57,3.92,1.08,8.46,1.61,13.61,1.61,2.43,0,5-.11,7.72-.32,2.71-.21,5.5-.46,8.36-.75v-20.79c-2,.29-3.82.5-5.46.64-1.64.15-3.25.21-4.82.21h0ZM915.88,1298.79h22.5v-107.14h-22.5v107.14ZM655.52,1206.44c-4-5.14-8.82-9.32-14.46-12.53-5.65-3.22-12.32-4.82-20.04-4.82-8.14,0-15.46,1.43-21.97,4.29s-12.04,6.83-16.61,11.89c-4.57,5.07-8.11,11.04-10.6,17.89-2.5,6.86-3.75,14.29-3.75,22.28s1.25,15.21,3.75,22.07c2.5,6.86,6.03,12.82,10.6,17.89s10.1,9.04,16.61,11.89c6.5,2.86,13.82,4.29,21.97,4.29,7.72,0,14.39-1.61,20.04-4.82,5.64-3.21,10.46-7.32,14.46-12.32v14.36h22.5v-150h-22.5v57.64ZM652.95,1259.26c-1.72,4.36-4.07,8.11-7.07,11.25-3,3.14-6.58,5.61-10.71,7.39-4.15,1.79-8.65,2.68-13.5,2.68s-9-.93-12.86-2.78c-3.86-1.86-7.18-4.4-9.96-7.61-2.78-3.21-4.93-6.93-6.43-11.14-1.5-4.21-2.25-8.75-2.25-13.61s.75-9.39,2.25-13.61c1.5-4.21,3.65-7.93,6.43-11.14s6.1-5.75,9.96-7.61c3.86-1.86,8.14-2.78,12.86-2.78s9.35.85,13.5,2.57c4.14,1.72,7.72,4.15,10.71,7.28,3,3.14,5.36,6.86,7.07,11.14,1.72,4.29,2.57,8.93,2.57,13.93s-.85,9.68-2.57,14.04h0Z" fill="#333"/>
    </g>
    <g>
      <path d="M604.87,919.43c-31.89,0-60.29,14.45-79.48,36.88-1.75-2.25-3.74-4.23-5.73-6.23-5.98-5.98-12.71-11.21-19.68-15.45-16.44-9.96-35.38-14.95-54.06-15.2h0c-26.66,0-53.56,10.21-73.75,30.65-20.43,20.43-30.65,47.09-30.65,73.75,0,18.69,4.99,37.62,14.95,54.06,4.23,6.97,9.47,13.7,15.45,19.68,5.98,5.98,12.71,11.21,19.68,15.45,40.11,24.42,93.43,19.18,128.06-15.45,2-2,3.98-4.23,5.73-6.23,19.18,22.42,47.58,36.88,79.48,36.88,57.55,0,104.4-46.84,104.4-104.4s-46.84-104.4-104.4-104.4h0ZM391.1,1023.82c0-13.95,5.24-27.9,15.94-38.62,10.71-10.71,24.67-15.94,38.62-15.94h0c5.73,0,11.46.99,16.94,2.74l-43.1,43.1-25.66,25.66c-1.75-5.48-2.74-11.21-2.74-16.94h0ZM484.53,1062.44c-14.95,14.95-36.63,19.43-55.56,13.45l26.66-26.66,42.11-42.11,4.99-4.99c-1.49,6.97-2.25,14.45-2.25,21.92,0,13.95-5.24,27.9-15.94,38.62v-.25h0ZM604.87,1078.63c-30.15,0-54.82-24.42-54.82-54.82s24.42-54.82,54.82-54.82,54.82,24.42,54.82,54.82-24.42,54.82-54.82,54.82Z" fill="#333"/>
      <polygon points="260.05 1006.13 157.4 846.93 97.6 846.93 97.6 1126.47 157.4 1126.47 157.4 951.56 269.27 1126.47 320.09 1126.47 320.09 846.93 260.05 846.93 260.05 1006.13" fill="#333"/>
      <polygon points="906.34 1006.13 803.69 846.93 743.9 846.93 743.9 1126.47 803.69 1126.47 803.69 951.56 915.56 1126.47 966.13 1126.47 966.13 846.93 906.34 846.93 906.34 1006.13" fill="#0f6bff"/>
      <path d="M1143.78,935.37c-14.95-9.22-32.14-13.7-51.33-13.7s-38.12,4.48-53.81,13.45c-15.7,8.97-27.9,21.43-36.63,37.12-8.72,15.7-13.2,33.39-13.2,52.57s4.48,36.88,13.45,52.57c8.97,15.7,21.43,28.15,37.62,37.12,16.19,8.97,34.88,13.45,56.31,13.45s35.63-3.49,50.08-10.71c14.45-6.97,26.41-17.19,35.63-30.65l-42.36-25.16c-4.48,5.73-10.46,10.46-18.19,13.7-7.72,3.49-15.7,5.24-23.67,5.24-13.45,0-24.17-2.99-32.64-8.72-8.47-5.98-14.95-14.95-19.93-26.91h145.5c.99-5.98,1.49-12.71,1.49-19.93,0-19.18-4.23-36.63-12.46-52.32-8.47-15.7-20.18-28.15-35.13-37.37l-.74.25h0ZM1043.61,1001.39c.5-8.72,5.48-15.94,14.95-22.17,9.47-6.23,20.68-9.22,33.39-9.22s22.67,2.74,31.14,8.23c8.47,5.48,13.7,13.2,15.45,23.17h-95.18.25Z" fill="#0f6bff"/>
      <path d="M1389.19,935.12c-14.95-8.97-32.89-13.45-53.81-13.45s-21.43,1.75-31.64,5.48c-10.21,3.49-19.68,8.72-28.65,15.45v-15.45h-57.05v279.54h57.05v-94.68c8.72,6.73,18.44,11.71,28.65,15.45,10.46,3.49,20.93,5.48,31.64,5.48,20.68,0,38.62-4.48,53.81-13.7,14.95-9.22,26.66-21.68,34.63-37.62,7.97-15.94,11.96-34.13,11.96-54.31s-3.98-38.37-11.96-54.06c-7.97-15.94-19.43-28.4-34.63-37.37v-.75h0ZM1364.27,1063.18c-9.47,9.22-21.68,13.7-36.63,13.7s-27.66-4.48-37.62-13.7c-9.96-9.22-14.95-21.18-14.95-36.13s4.99-27.16,15.2-36.63c10.21-9.47,22.67-14.45,37.62-14.45s27.16,4.73,36.63,13.95c9.47,9.22,14.2,21.68,14.2,36.63s-4.73,27.41-14.2,36.63h-.25Z" fill="#0f6bff"/>
      <path d="M1597.48,930.14c-11.96-4.99-23.42-7.47-34.88-7.47-16.94,0-32.89,6.23-47.58,18.44v-94.17h-57.05v279.54h57.05v-122.08c1.49-10.96,5.48-18.93,11.46-24.17,6.23-5.24,13.2-7.72,21.68-7.72s18.44,2.74,25.66,8.47c7.22,5.73,10.71,14.95,10.71,27.66v117.85h57.05v-119.34c-.25-21.18-4.73-38.12-13.45-50.82-8.72-12.46-18.93-21.18-30.65-26.16h0Z" fill="#0f6bff"/>
      <path d="M1818.72,935.37c-15.7-9.22-32.89-13.95-51.33-13.95s-36.13,4.73-51.83,13.95c-15.7,9.22-28.4,21.68-37.62,37.62-9.22,15.7-13.95,33.14-13.95,51.83s4.73,35.63,13.95,51.58c9.22,15.94,21.68,28.4,37.62,37.62,15.7,9.22,33.14,13.95,51.83,13.95s35.63-4.73,51.33-13.95c15.7-9.22,28.15-21.92,37.62-37.62,9.22-15.94,13.95-33.14,13.95-51.58s-4.73-36.13-13.95-51.83c-9.22-15.7-21.68-28.15-37.62-37.62h0ZM1800.53,1058.21c-9.47,9.22-20.68,13.95-33.64,13.95s-24.17-4.73-33.39-13.95c-9.22-9.22-13.95-20.43-13.95-33.39s4.73-24.17,13.95-33.64c9.22-9.47,20.43-13.95,33.39-13.95s24.17,4.73,33.64,13.95c9.47,9.47,13.95,20.68,13.95,33.64s-4.73,24.17-13.95,33.39Z" fill="#0f6bff"/>
      <path d="M2054.66,1028.06c-7.72-8.72-16.69-14.95-26.66-18.69-10.21-3.74-22.92-7.22-38.37-10.46-11.96-2.25-20.68-4.73-26.16-6.73-5.48-2.25-8.23-5.48-8.23-9.96s2.25-8.97,6.73-11.96c4.48-2.99,10.46-4.48,17.94-4.48s15.45,1.49,20.93,4.73c5.24,3.24,9.47,7.97,12.71,14.45l45.35-22.17c-7.72-13.2-18.69-23.42-32.39-30.4-13.7-6.97-29.4-10.46-46.59-10.46s-28.15,2.49-40.36,7.47c-12.46,4.99-22.17,12.21-29.4,21.68-7.22,9.47-10.96,20.68-10.96,33.39s3.74,23.92,10.96,31.89c7.22,7.97,15.94,13.7,26.16,17.69,10.21,3.74,22.92,7.47,37.87,10.71,13.2,2.99,22.92,5.73,29.15,8.23,6.23,2.49,9.22,6.48,9.22,11.71s-3.24,10.71-9.96,13.95c-6.73,3.24-14.45,4.99-23.17,4.99-21.68,0-35.63-8.23-41.86-24.91l-45.85,23.42c7.47,15.2,18.69,26.41,33.64,34.13,14.95,7.72,32.89,11.46,54.06,11.46s29.65-2.49,43.1-7.22c13.2-4.73,23.92-11.96,32.14-21.43,7.97-9.47,12.21-20.93,12.21-34.13s-3.74-27.41-11.46-36.13l-.74-.75h-.02Z" fill="#0f6bff"/>
      <path d="M534.13,1197.65c-4.36-3.43-9.04-5.75-14.04-6.97s-9.43-1.82-13.28-1.82c-6.29,0-11.93,1.33-16.93,3.96-5,2.64-9.29,5.82-12.86,9.54v-10.71h-22.5v107.14h22.5v-60c0-5.85.75-10.71,2.25-14.57,1.5-3.86,3.46-6.93,5.89-9.21,2.43-2.28,5.1-3.89,8.03-4.82,2.92-.93,5.75-1.39,8.46-1.39,2.86,0,5.79.4,8.78,1.18,3,.79,5.75,2.18,8.25,4.18,2.5,2,4.57,4.65,6.21,7.93,1.64,3.29,2.47,7.5,2.47,12.64v64.07h22.5v-64.07c0-9.43-1.54-17.11-4.61-23.03-3.07-5.93-6.79-10.6-11.14-14.04h.01ZM98.81,1298.79h23.78v-62.78h61.29v-22.5h-61.29v-42.22h63.86v-22.5h-87.64s0,150,0,150ZM297.56,1205.58c-5.07-5.14-11.04-9.18-17.89-12.11-6.86-2.92-14.15-4.39-21.86-4.39s-15,1.47-21.86,4.39c-6.86,2.93-12.82,6.97-17.89,12.11-5.07,5.14-9.07,11.11-12,17.89-2.93,6.79-4.4,14.04-4.4,21.75s1.47,15,4.4,21.86c2.92,6.86,6.93,12.86,12,18,5.07,5.14,11.04,9.18,17.89,12.11,6.86,2.92,14.15,4.4,21.86,4.4s15-1.47,21.86-4.4c6.86-2.92,12.82-6.97,17.89-12.11,5.07-5.14,9.07-11.14,12-18,2.92-6.86,4.39-14.15,4.39-21.86s-1.47-14.96-4.39-21.75c-2.93-6.78-6.93-12.75-12-17.89ZM288.77,1258.4c-1.79,4.07-4.18,7.64-7.18,10.71-3,3.07-6.54,5.5-10.6,7.28-4.07,1.79-8.46,2.68-13.18,2.68s-9.11-.89-13.18-2.68c-4.07-1.78-7.64-4.21-10.71-7.28-3.07-3.07-5.5-6.64-7.28-10.71-1.79-4.07-2.68-8.47-2.68-13.18s.89-9.11,2.68-13.18c1.78-4.07,4.21-7.61,7.28-10.6,3.07-3,6.64-5.39,10.71-7.18,4.07-1.78,8.46-2.68,13.18-2.68s9.11.89,13.18,2.68,7.61,4.18,10.6,7.18c3,3,5.39,6.54,7.18,10.6,1.78,4.07,2.68,8.46,2.68,13.18s-.89,9.11-2.68,13.18ZM408.46,1251.44c0,5.86-.79,10.71-2.36,14.57-1.58,3.86-3.53,6.93-5.89,9.21-2.36,2.29-5,3.9-7.93,4.82-2.93.93-5.82,1.39-8.68,1.39s-5.61-.39-8.68-1.18c-3.07-.78-5.82-2.14-8.25-4.07-2.43-1.93-4.46-4.54-6.1-7.82-1.64-3.28-2.47-7.5-2.47-12.64v-64.07h-22.5v64.07c0,9.43,1.53,17.11,4.61,23.03,3.07,5.93,6.78,10.6,11.14,14.04,4.36,3.43,9.04,5.75,14.04,6.97,5,1.22,9.43,1.82,13.28,1.82,6.14,0,11.71-1.33,16.72-3.96,5-2.64,9.35-5.82,13.07-9.54v10.71h22.5v-107.14h-22.5v59.79h0ZM783.67,1206.44c-3.86-5.14-8.65-9.32-14.36-12.53-5.71-3.22-12.43-4.82-20.14-4.82-8.14,0-15.46,1.43-21.97,4.29s-12.04,6.83-16.61,11.89c-4.57,5.07-8.11,11.04-10.61,17.89-2.5,6.86-3.75,14.29-3.75,22.28s1.25,15.21,3.75,22.07c2.5,6.86,6.03,12.82,10.61,17.89,4.57,5.07,10.1,9.04,16.61,11.89,6.5,2.86,13.82,4.29,21.97,4.29,7.72,0,14.43-1.61,20.14-4.82,5.71-3.21,10.5-7.39,14.36-12.53v14.57h22.5v-107.14h-22.5v14.79ZM781.1,1259.26c-1.72,4.36-4.07,8.11-7.07,11.25-3,3.14-6.58,5.61-10.71,7.39-4.15,1.79-8.65,2.68-13.5,2.68s-9-.93-12.86-2.78c-3.86-1.86-7.18-4.4-9.96-7.61-2.78-3.21-4.93-6.93-6.43-11.14-1.5-4.21-2.25-8.75-2.25-13.61s.75-9.39,2.25-13.61c1.5-4.21,3.65-7.93,6.43-11.14,2.78-3.22,6.1-5.75,9.96-7.61,3.86-1.86,8.14-2.78,12.86-2.78s9.35.85,13.5,2.57c4.14,1.72,7.72,4.15,10.71,7.28,3,3.14,5.36,6.86,7.07,11.14,1.72,4.29,2.57,8.93,2.57,13.93s-.85,9.68-2.57,14.04h0ZM1055.27,1205.58c-5.07-5.14-11.04-9.18-17.89-12.11-6.86-2.92-14.15-4.39-21.86-4.39s-15,1.47-21.86,4.39c-6.86,2.93-12.82,6.97-17.89,12.11s-9.07,11.11-12,17.89c-2.93,6.79-4.4,14.04-4.4,21.75s1.47,15,4.4,21.86c2.92,6.86,6.93,12.86,12,18,5.07,5.14,11.04,9.18,17.89,12.11,6.86,2.92,14.15,4.4,21.86,4.4s15-1.47,21.86-4.4c6.86-2.92,12.82-6.97,17.89-12.11,5.07-5.14,9.07-11.14,12-18,2.92-6.86,4.39-14.15,4.39-21.86s-1.47-14.96-4.39-21.75c-2.93-6.78-6.93-12.75-12-17.89ZM1046.49,1258.4c-1.79,4.07-4.18,7.64-7.18,10.71-3,3.07-6.54,5.5-10.6,7.28-4.07,1.79-8.47,2.68-13.18,2.68s-9.11-.89-13.18-2.68c-4.07-1.78-7.64-4.21-10.71-7.28-3.07-3.07-5.5-6.64-7.28-10.71-1.79-4.07-2.68-8.47-2.68-13.18s.89-9.11,2.68-13.18c1.78-4.07,4.21-7.61,7.28-10.6,3.07-3,6.64-5.39,10.71-7.18,4.07-1.78,8.46-2.68,13.18-2.68s9.11.89,13.18,2.68c4.07,1.79,7.61,4.18,10.6,7.18,3,3,5.39,6.54,7.18,10.6,1.78,4.07,2.68,8.46,2.68,13.18s-.89,9.11-2.68,13.18ZM1181.91,1211.69c-3.07-5.93-6.79-10.6-11.14-14.04-4.36-3.43-9.04-5.75-14.04-6.97s-9.43-1.82-13.28-1.82c-6.29,0-11.93,1.33-16.93,3.96-5,2.64-9.29,5.82-12.86,9.54v-10.71h-22.5v107.14h22.5v-60c0-5.85.75-10.71,2.25-14.57s3.46-6.93,5.89-9.21c2.43-2.28,5.1-3.89,8.03-4.82,2.92-.93,5.75-1.39,8.46-1.39,2.86,0,5.79.4,8.78,1.18,3,.79,5.75,2.18,8.25,4.18,2.5,2,4.57,4.65,6.21,7.93,1.64,3.29,2.47,7.5,2.47,12.64v64.07h22.5v-64.07c0-9.43-1.54-17.11-4.61-23.03h0ZM927.24,1139.8c-3.43,0-6.39,1.22-8.9,3.65-2.5,2.43-3.75,5.43-3.75,9s1.25,6.4,3.75,8.9c2.5,2.5,5.46,3.75,8.9,3.75s6.39-1.25,8.9-3.75c2.5-2.5,3.75-5.46,3.75-8.9s-1.25-6.57-3.75-9c-2.5-2.43-5.46-3.65-8.9-3.65ZM880.31,1278.86c-5,0-8.76-1.04-11.25-3.11-2.5-2.07-3.75-6.1-3.75-12.11v-51.64h24.86v-20.35h-24.86v-35.57l-22.5,7.72v27.86h-22.07v20.35h22.07v53.14c0,6.86.71,12.5,2.14,16.93,1.43,4.43,3.46,7.97,6.1,10.61,2.64,2.64,5.93,4.5,9.86,5.57,3.92,1.08,8.46,1.61,13.61,1.61,2.43,0,5-.11,7.72-.32,2.71-.21,5.5-.46,8.36-.75v-20.79c-2,.29-3.82.5-5.46.64-1.64.15-3.25.21-4.82.21h0ZM915.88,1298.79h22.5v-107.14h-22.5v107.14ZM655.52,1206.44c-4-5.14-8.82-9.32-14.46-12.53-5.65-3.22-12.32-4.82-20.04-4.82-8.14,0-15.46,1.43-21.97,4.29s-12.04,6.83-16.61,11.89c-4.57,5.07-8.11,11.04-10.6,17.89-2.5,6.86-3.75,14.29-3.75,22.28s1.25,15.21,3.75,22.07c2.5,6.86,6.03,12.82,10.6,17.89s10.1,9.04,16.61,11.89c6.5,2.86,13.82,4.29,21.97,4.29,7.72,0,14.39-1.61,20.04-4.82,5.64-3.21,10.46-7.32,14.46-12.32v14.36h22.5v-150h-22.5v57.64ZM652.95,1259.26c-1.72,4.36-4.07,8.11-7.07,11.25-3,3.14-6.58,5.61-10.71,7.39-4.15,1.79-8.65,2.68-13.5,2.68s-9-.93-12.86-2.78c-3.86-1.86-7.18-4.4-9.96-7.61-2.78-3.21-4.93-6.93-6.43-11.14-1.5-4.21-2.25-8.75-2.25-13.61s.75-9.39,2.25-13.61c1.5-4.21,3.65-7.93,6.43-11.14s6.1-5.75,9.96-7.61c3.86-1.86,8.14-2.78,12.86-2.78s9.35.85,13.5,2.57c4.14,1.72,7.72,4.15,10.71,7.28,3,3.14,5.36,6.86,7.07,11.14,1.72,4.29,2.57,8.93,2.57,13.93s-.85,9.68-2.57,14.04h0Z" fill="#333"/>
    </g>
  </g>
  <g>
    <g>
      <path d="M604.87,919.43c-31.89,0-60.29,14.45-79.48,36.88-1.75-2.25-3.74-4.23-5.73-6.23-5.98-5.98-12.71-11.21-19.68-15.45-16.44-9.96-35.38-14.95-54.06-15.2h0c-26.66,0-53.56,10.21-73.75,30.65-20.43,20.43-30.65,47.09-30.65,73.75,0,18.69,4.99,37.62,14.95,54.06,4.23,6.97,9.47,13.7,15.45,19.68,5.98,5.98,12.71,11.21,19.68,15.45,40.11,24.42,93.43,19.18,128.06-15.45,2-2,3.98-4.23,5.73-6.23,19.18,22.42,47.58,36.88,79.48,36.88,57.55,0,104.4-46.84,104.4-104.4s-46.84-104.4-104.4-104.4h0ZM391.1,1023.82c0-13.95,5.24-27.9,15.94-38.62,10.71-10.71,24.67-15.94,38.62-15.94h0c5.73,0,11.46.99,16.94,2.74l-43.1,43.1-25.66,25.66c-1.75-5.48-2.74-11.21-2.74-16.94h0ZM484.53,1062.44c-14.95,14.95-36.63,19.43-55.56,13.45l26.66-26.66,42.11-42.11,4.99-4.99c-1.49,6.97-2.25,14.45-2.25,21.92,0,13.95-5.24,27.9-15.94,38.62v-.25h0ZM604.87,1078.63c-30.15,0-54.82-24.42-54.82-54.82s24.42-54.82,54.82-54.82,54.82,24.42,54.82,54.82-24.42,54.82-54.82,54.82Z" fill="#333"/>
      <polygon points="260.05 1006.13 157.4 846.93 97.6 846.93 97.6 1126.47 157.4 1126.47 157.4 951.56 269.27 1126.47 320.09 1126.47 320.09 846.93 260.05 846.93 260.05 1006.13" fill="#333"/>
      <polygon points="906.34 1006.13 803.69 846.93 743.9 846.93 743.9 1126.47 803.69 1126.47 803.69 951.56 915.56 1126.47 966.13 1126.47 966.13 846.93 906.34 846.93 906.34 1006.13" fill="#0f6bff"/>
      <path d="M1143.78,935.37c-14.95-9.22-32.14-13.7-51.33-13.7s-38.12,4.48-53.81,13.45c-15.7,8.97-27.9,21.43-36.63,37.12-8.72,15.7-13.2,33.39-13.2,52.57s4.48,36.88,13.45,52.57c8.97,15.7,21.43,28.15,37.62,37.12,16.19,8.97,34.88,13.45,56.31,13.45s35.63-3.49,50.08-10.71c14.45-6.97,26.41-17.19,35.63-30.65l-42.36-25.16c-4.48,5.73-10.46,10.46-18.19,13.7-7.72,3.49-15.7,5.24-23.67,5.24-13.45,0-24.17-2.99-32.64-8.72-8.47-5.98-14.95-14.95-19.93-26.91h145.5c.99-5.98,1.49-12.71,1.49-19.93,0-19.18-4.23-36.63-12.46-52.32-8.47-15.7-20.18-28.15-35.13-37.37l-.74.25h0ZM1043.61,1001.39c.5-8.72,5.48-15.94,14.95-22.17,9.47-6.23,20.68-9.22,33.39-9.22s22.67,2.74,31.14,8.23c8.47,5.48,13.7,13.2,15.45,23.17h-95.18.25Z" fill="#0f6bff"/>
      <path d="M1389.19,935.12c-14.95-8.97-32.89-13.45-53.81-13.45s-21.43,1.75-31.64,5.48c-10.21,3.49-19.68,8.72-28.65,15.45v-15.45h-57.05v279.54h57.05v-94.68c8.72,6.73,18.44,11.71,28.65,15.45,10.46,3.49,20.93,5.48,31.64,5.48,20.68,0,38.62-4.48,53.81-13.7,14.95-9.22,26.66-21.68,34.63-37.62,7.97-15.94,11.96-34.13,11.96-54.31s-3.98-38.37-11.96-54.06c-7.97-15.94-19.43-28.4-34.63-37.37v-.75h0ZM1364.27,1063.18c-9.47,9.22-21.68,13.7-36.63,13.7s-27.66-4.48-37.62-13.7c-9.96-9.22-14.95-21.18-14.95-36.13s4.99-27.16,15.2-36.63c10.21-9.47,22.67-14.45,37.62-14.45s27.16,4.73,36.63,13.95c9.47,9.22,14.2,21.68,14.2,36.63s-4.73,27.41-14.2,36.63h-.25Z" fill="#0f6bff"/>
      <path d="M1597.48,930.14c-11.96-4.99-23.42-7.47-34.88-7.47-16.94,0-32.89,6.23-47.58,18.44v-94.17h-57.05v279.54h57.05v-122.08c1.49-10.96,5.48-18.93,11.46-24.17,6.23-5.24,13.2-7.72,21.68-7.72s18.44,2.74,25.66,8.47c7.22,5.73,10.71,14.95,10.71,27.66v117.85h57.05v-119.34c-.25-21.18-4.73-38.12-13.45-50.82-8.72-12.46-18.93-21.18-30.65-26.16h0Z" fill="#0f6bff"/>
      <path d="M1818.72,935.37c-15.7-9.22-32.89-13.95-51.33-13.95s-36.13,4.73-51.83,13.95c-15.7,9.22-28.4,21.68-37.62,37.62-9.22,15.7-13.95,33.14-13.95,51.83s4.73,35.63,13.95,51.58c9.22,15.94,21.68,28.4,37.62,37.62,15.7,9.22,33.14,13.95,51.83,13.95s35.63-4.73,51.33-13.95c15.7-9.22,28.15-21.92,37.62-37.62,9.22-15.94,13.95-33.14,13.95-51.58s-4.73-36.13-13.95-51.83c-9.22-15.7-21.68-28.15-37.62-37.62h0ZM1800.53,1058.21c-9.47,9.22-20.68,13.95-33.64,13.95s-24.17-4.73-33.39-13.95c-9.22-9.22-13.95-20.43-13.95-33.39s4.73-24.17,13.95-33.64c9.22-9.47,20.43-13.95,33.39-13.95s24.17,4.73,33.64,13.95c9.47,9.47,13.95,20.68,13.95,33.64s-4.73,24.17-13.95,33.39Z" fill="#0f6bff"/>
      <path d="M2054.66,1028.06c-7.72-8.72-16.69-14.95-26.66-18.69-10.21-3.74-22.92-7.22-38.37-10.46-11.96-2.25-20.68-4.73-26.16-6.73-5.48-2.25-8.23-5.48-8.23-9.96s2.25-8.97,6.73-11.96c4.48-2.99,10.46-4.48,17.94-4.48s15.45,1.49,20.93,4.73c5.24,3.24,9.47,7.97,12.71,14.45l45.35-22.17c-7.72-13.2-18.69-23.42-32.39-30.4-13.7-6.97-29.4-10.46-46.59-10.46s-28.15,2.49-40.36,7.47c-12.46,4.99-22.17,12.21-29.4,21.68-7.22,9.47-10.96,20.68-10.96,33.39s3.74,23.92,10.96,31.89c7.22,7.97,15.94,13.7,26.16,17.69,10.21,3.74,22.92,7.47,37.87,10.71,13.2,2.99,22.92,5.73,29.15,8.23,6.23,2.49,9.22,6.48,9.22,11.71s-3.24,10.71-9.96,13.95c-6.73,3.24-14.45,4.99-23.17,4.99-21.68,0-35.63-8.23-41.86-24.91l-45.85,23.42c7.47,15.2,18.69,26.41,33.64,34.13,14.95,7.72,32.89,11.46,54.06,11.46s29.65-2.49,43.1-7.22c13.2-4.73,23.92-11.96,32.14-21.43,7.97-9.47,12.21-20.93,12.21-34.13s-3.74-27.41-11.46-36.13l-.74-.75h-.02Z" fill="#0f6bff"/>
      <path d="M534.13,1197.65c-4.36-3.43-9.04-5.75-14.04-6.97s-9.43-1.82-13.28-1.82c-6.29,0-11.93,1.33-16.93,3.96-5,2.64-9.29,5.82-12.86,9.54v-10.71h-22.5v107.14h22.5v-60c0-5.85.75-10.71,2.25-14.57,1.5-3.86,3.46-6.93,5.89-9.21,2.43-2.28,5.1-3.89,8.03-4.82,2.92-.93,5.75-1.39,8.46-1.39,2.86,0,5.79.4,8.78,1.18,3,.79,5.75,2.18,8.25,4.18,2.5,2,4.57,4.65,6.21,7.93,1.64,3.29,2.47,7.5,2.47,12.64v64.07h22.5v-64.07c0-9.43-1.54-17.11-4.61-23.03-3.07-5.93-6.79-10.6-11.14-14.04h.01ZM98.81,1298.79h23.78v-62.78h61.29v-22.5h-61.29v-42.22h63.86v-22.5h-87.64s0,150,0,150ZM297.56,1205.58c-5.07-5.14-11.04-9.18-17.89-12.11-6.86-2.92-14.15-4.39-21.86-4.39s-15,1.47-21.86,4.39c-6.86,2.93-12.82,6.97-17.89,12.11-5.07,5.14-9.07,11.11-12,17.89-2.93,6.79-4.4,14.04-4.4,21.75s1.47,15,4.4,21.86c2.92,6.86,6.93,12.86,12,18,5.07,5.14,11.04,9.18,17.89,12.11,6.86,2.92,14.15,4.4,21.86,4.4s15-1.47,21.86-4.4c6.86-2.92,12.82-6.97,17.89-12.11,5.07-5.14,9.07-11.14,12-18,2.92-6.86,4.39-14.15,4.39-21.86s-1.47-14.96-4.39-21.75c-2.93-6.78-6.93-12.75-12-17.89ZM288.77,1258.4c-1.79,4.07-4.18,7.64-7.18,10.71-3,3.07-6.54,5.5-10.6,7.28-4.07,1.79-8.46,2.68-13.18,2.68s-9.11-.89-13.18-2.68c-4.07-1.78-7.64-4.21-10.71-7.28-3.07-3.07-5.5-6.64-7.28-10.71-1.79-4.07-2.68-8.47-2.68-13.18s.89-9.11,2.68-13.18c1.78-4.07,4.21-7.61,7.28-10.6,3.07-3,6.64-5.39,10.71-7.18,4.07-1.78,8.46-2.68,13.18-2.68s9.11.89,13.18,2.68,7.61,4.18,10.6,7.18c3,3,5.39,6.54,7.18,10.6,1.78,4.07,2.68,8.46,2.68,13.18s-.89,9.11-2.68,13.18ZM408.46,1251.44c0,5.86-.79,10.71-2.36,14.57-1.58,3.86-3.53,6.93-5.89,9.21-2.36,2.29-5,3.9-7.93,4.82-2.93.93-5.82,1.39-8.68,1.39s-5.61-.39-8.68-1.18c-3.07-.78-5.82-2.14-8.25-4.07-2.43-1.93-4.46-4.54-6.1-7.82-1.64-3.28-2.47-7.5-2.47-12.64v-64.07h-22.5v64.07c0,9.43,1.53,17.11,4.61,23.03,3.07,5.93,6.78,10.6,11.14,14.04,4.36,3.43,9.04,5.75,14.04,6.97,5,1.22,9.43,1.82,13.28,1.82,6.14,0,11.71-1.33,16.72-3.96,5-2.64,9.35-5.82,13.07-9.54v10.71h22.5v-107.14h-22.5v59.79h0ZM783.67,1206.44c-3.86-5.14-8.65-9.32-14.36-12.53-5.71-3.22-12.43-4.82-20.14-4.82-8.14,0-15.46,1.43-21.97,4.29s-12.04,6.83-16.61,11.89c-4.57,5.07-8.11,11.04-10.61,17.89-2.5,6.86-3.75,14.29-3.75,22.28s1.25,15.21,3.75,22.07c2.5,6.86,6.03,12.82,10.61,17.89,4.57,5.07,10.1,9.04,16.61,11.89,6.5,2.86,13.82,4.29,21.97,4.29,7.72,0,14.43-1.61,20.14-4.82,5.71-3.21,10.5-7.39,14.36-12.53v14.57h22.5v-107.14h-22.5v14.79ZM781.1,1259.26c-1.72,4.36-4.07,8.11-7.07,11.25-3,3.14-6.58,5.61-10.71,7.39-4.15,1.79-8.65,2.68-13.5,2.68s-9-.93-12.86-2.78c-3.86-1.86-7.18-4.4-9.96-7.61-2.78-3.21-4.93-6.93-6.43-11.14-1.5-4.21-2.25-8.75-2.25-13.61s.75-9.39,2.25-13.61c1.5-4.21,3.65-7.93,6.43-11.14,2.78-3.22,6.1-5.75,9.96-7.61,3.86-1.86,8.14-2.78,12.86-2.78s9.35.85,13.5,2.57c4.14,1.72,7.72,4.15,10.71,7.28,3,3.14,5.36,6.86,7.07,11.14,1.72,4.29,2.57,8.93,2.57,13.93s-.85,9.68-2.57,14.04h0ZM1055.27,1205.58c-5.07-5.14-11.04-9.18-17.89-12.11-6.86-2.92-14.15-4.39-21.86-4.39s-15,1.47-21.86,4.39c-6.86,2.93-12.82,6.97-17.89,12.11s-9.07,11.11-12,17.89c-2.93,6.79-4.4,14.04-4.4,21.75s1.47,15,4.4,21.86c2.92,6.86,6.93,12.86,12,18,5.07,5.14,11.04,9.18,17.89,12.11,6.86,2.92,14.15,4.4,21.86,4.4s15-1.47,21.86-4.4c6.86-2.92,12.82-6.97,17.89-12.11,5.07-5.14,9.07-11.14,12-18,2.92-6.86,4.39-14.15,4.39-21.86s-1.47-14.96-4.39-21.75c-2.93-6.78-6.93-12.75-12-17.89ZM1046.49,1258.4c-1.79,4.07-4.18,7.64-7.18,10.71-3,3.07-6.54,5.5-10.6,7.28-4.07,1.79-8.47,2.68-13.18,2.68s-9.11-.89-13.18-2.68c-4.07-1.78-7.64-4.21-10.71-7.28-3.07-3.07-5.5-6.64-7.28-10.71-1.79-4.07-2.68-8.47-2.68-13.18s.89-9.11,2.68-13.18c1.78-4.07,4.21-7.61,7.28-10.6,3.07-3,6.64-5.39,10.71-7.18,4.07-1.78,8.46-2.68,13.18-2.68s9.11.89,13.18,2.68c4.07,1.79,7.61,4.18,10.6,7.18,3,3,5.39,6.54,7.18,10.6,1.78,4.07,2.68,8.46,2.68,13.18s-.89,9.11-2.68,13.18ZM1181.91,1211.69c-3.07-5.93-6.79-10.6-11.14-14.04-4.36-3.43-9.04-5.75-14.04-6.97s-9.43-1.82-13.28-1.82c-6.29,0-11.93,1.33-16.93,3.96-5,2.64-9.29,5.82-12.86,9.54v-10.71h-22.5v107.14h22.5v-60c0-5.85.75-10.71,2.25-14.57s3.46-6.93,5.89-9.21c2.43-2.28,5.1-3.89,8.03-4.82,2.92-.93,5.75-1.39,8.46-1.39,2.86,0,5.79.4,8.78,1.18,3,.79,5.75,2.18,8.25,4.18,2.5,2,4.57,4.65,6.21,7.93,1.64,3.29,2.47,7.5,2.47,12.64v64.07h22.5v-64.07c0-9.43-1.54-17.11-4.61-23.03h0ZM927.24,1139.8c-3.43,0-6.39,1.22-8.9,3.65-2.5,2.43-3.75,5.43-3.75,9s1.25,6.4,3.75,8.9c2.5,2.5,5.46,3.75,8.9,3.75s6.39-1.25,8.9-3.75c2.5-2.5,3.75-5.46,3.75-8.9s-1.25-6.57-3.75-9c-2.5-2.43-5.46-3.65-8.9-3.65ZM880.31,1278.86c-5,0-8.76-1.04-11.25-3.11-2.5-2.07-3.75-6.1-3.75-12.11v-51.64h24.86v-20.35h-24.86v-35.57l-22.5,7.72v27.86h-22.07v20.35h22.07v53.14c0,6.86.71,12.5,2.14,16.93,1.43,4.43,3.46,7.97,6.1,10.61,2.64,2.64,5.93,4.5,9.86,5.57,3.92,1.08,8.46,1.61,13.61,1.61,2.43,0,5-.11,7.72-.32,2.71-.21,5.5-.46,8.36-.75v-20.79c-2,.29-3.82.5-5.46.64-1.64.15-3.25.21-4.82.21h0ZM915.88,1298.79h22.5v-107.14h-22.5v107.14ZM655.52,1206.44c-4-5.14-8.82-9.32-14.46-12.53-5.65-3.22-12.32-4.82-20.04-4.82-8.14,0-15.46,1.43-21.97,4.29s-12.04,6.83-16.61,11.89c-4.57,5.07-8.11,11.04-10.6,17.89-2.5,6.86-3.75,14.29-3.75,22.28s1.25,15.21,3.75,22.07c2.5,6.86,6.03,12.82,10.6,17.89s10.1,9.04,16.61,11.89c6.5,2.86,13.82,4.29,21.97,4.29,7.72,0,14.39-1.61,20.04-4.82,5.64-3.21,10.46-7.32,14.46-12.32v14.36h22.5v-150h-22.5v57.64ZM652.95,1259.26c-1.72,4.36-4.07,8.11-7.07,11.25-3,3.14-6.58,5.61-10.71,7.39-4.15,1.79-8.65,2.68-13.5,2.68s-9-.93-12.86-2.78c-3.86-1.86-7.18-4.4-9.96-7.61-2.78-3.21-4.93-6.93-6.43-11.14-1.5-4.21-2.25-8.75-2.25-13.61s.75-9.39,2.25-13.61c1.5-4.21,3.65-7.93,6.43-11.14s6.1-5.75,9.96-7.61c3.86-1.86,8.14-2.78,12.86-2.78s9.35.85,13.5,2.57c4.14,1.72,7.72,4.15,10.71,7.28,3,3.14,5.36,6.86,7.07,11.14,1.72,4.29,2.57,8.93,2.57,13.93s-.85,9.68-2.57,14.04h0Z" fill="#333"/>
    </g>
    <g>
      <path d="M604.87,919.43c-31.89,0-60.29,14.45-79.48,36.88-1.75-2.25-3.74-4.23-5.73-6.23-5.98-5.98-12.71-11.21-19.68-15.45-16.44-9.96-35.38-14.95-54.06-15.2h0c-26.66,0-53.56,10.21-73.75,30.65-20.43,20.43-30.65,47.09-30.65,73.75,0,18.69,4.99,37.62,14.95,54.06,4.23,6.97,9.47,13.7,15.45,19.68,5.98,5.98,12.71,11.21,19.68,15.45,40.11,24.42,93.43,19.18,128.06-15.45,2-2,3.98-4.23,5.73-6.23,19.18,22.42,47.58,36.88,79.48,36.88,57.55,0,104.4-46.84,104.4-104.4s-46.84-104.4-104.4-104.4h0ZM391.1,1023.82c0-13.95,5.24-27.9,15.94-38.62,10.71-10.71,24.67-15.94,38.62-15.94h0c5.73,0,11.46.99,16.94,2.74l-43.1,43.1-25.66,25.66c-1.75-5.48-2.74-11.21-2.74-16.94h0ZM484.53,1062.44c-14.95,14.95-36.63,19.43-55.56,13.45l26.66-26.66,42.11-42.11,4.99-4.99c-1.49,6.97-2.25,14.45-2.25,21.92,0,13.95-5.24,27.9-15.94,38.62v-.25h0ZM604.87,1078.63c-30.15,0-54.82-24.42-54.82-54.82s24.42-54.82,54.82-54.82,54.82,24.42,54.82,54.82-24.42,54.82-54.82,54.82Z" fill="#333"/>
      <polygon points="260.05 1006.13 157.4 846.93 97.6 846.93 97.6 1126.47 157.4 1126.47 157.4 951.56 269.27 1126.47 320.09 1126.47 320.09 846.93 260.05 846.93 260.05 1006.13" fill="#333"/>
      <polygon points="906.34 1006.13 803.69 846.93 743.9 846.93 743.9 1126.47 803.69 1126.47 803.69 951.56 915.56 1126.47 966.13 1126.47 966.13 846.93 906.34 846.93 906.34 1006.13" fill="#0f6bff"/>
      <path d="M1143.78,935.37c-14.95-9.22-32.14-13.7-51.33-13.7s-38.12,4.48-53.81,13.45c-15.7,8.97-27.9,21.43-36.63,37.12-8.72,15.7-13.2,33.39-13.2,52.57s4.48,36.88,13.45,52.57c8.97,15.7,21.43,28.15,37.62,37.12,16.19,8.97,34.88,13.45,56.31,13.45s35.63-3.49,50.08-10.71c14.45-6.97,26.41-17.19,35.63-30.65l-42.36-25.16c-4.48,5.73-10.46,10.46-18.19,13.7-7.72,3.49-15.7,5.24-23.67,5.24-13.45,0-24.17-2.99-32.64-8.72-8.47-5.98-14.95-14.95-19.93-26.91h145.5c.99-5.98,1.49-12.71,1.49-19.93,0-19.18-4.23-36.63-12.46-52.32-8.47-15.7-20.18-28.15-35.13-37.37l-.74.25h0ZM1043.61,1001.39c.5-8.72,5.48-15.94,14.95-22.17,9.47-6.23,20.68-9.22,33.39-9.22s22.67,2.74,31.14,8.23c8.47,5.48,13.7,13.2,15.45,23.17h-95.18.25Z" fill="#0f6bff"/>
      <path d="M1389.19,935.12c-14.95-8.97-32.89-13.45-53.81-13.45s-21.43,1.75-31.64,5.48c-10.21,3.49-19.68,8.72-28.65,15.45v-15.45h-57.05v279.54h57.05v-94.68c8.72,6.73,18.44,11.71,28.65,15.45,10.46,3.49,20.93,5.48,31.64,5.48,20.68,0,38.62-4.48,53.81-13.7,14.95-9.22,26.66-21.68,34.63-37.62,7.97-15.94,11.96-34.13,11.96-54.31s-3.98-38.37-11.96-54.06c-7.97-15.94-19.43-28.4-34.63-37.37v-.75h0ZM1364.27,1063.18c-9.47,9.22-21.68,13.7-36.63,13.7s-27.66-4.48-37.62-13.7c-9.96-9.22-14.95-21.18-14.95-36.13s4.99-27.16,15.2-36.63c10.21-9.47,22.67-14.45,37.62-14.45s27.16,4.73,36.63,13.95c9.47,9.22,14.2,21.68,14.2,36.63s-4.73,27.41-14.2,36.63h-.25Z" fill="#0f6bff"/>
      <path d="M1597.48,930.14c-11.96-4.99-23.42-7.47-34.88-7.47-16.94,0-32.89,6.23-47.58,18.44v-94.17h-57.05v279.54h57.05v-122.08c1.49-10.96,5.48-18.93,11.46-24.17,6.23-5.24,13.2-7.72,21.68-7.72s18.44,2.74,25.66,8.47c7.22,5.73,10.71,14.95,10.71,27.66v117.85h57.05v-119.34c-.25-21.18-4.73-38.12-13.45-50.82-8.72-12.46-18.93-21.18-30.65-26.16h0Z" fill="#0f6bff"/>
      <path d="M1818.72,935.37c-15.7-9.22-32.89-13.95-51.33-13.95s-36.13,4.73-51.83,13.95c-15.7,9.22-28.4,21.68-37.62,37.62-9.22,15.7-13.95,33.14-13.95,51.83s4.73,35.63,13.95,51.58c9.22,15.94,21.68,28.4,37.62,37.62,15.7,9.22,33.14,13.95,51.83,13.95s35.63-4.73,51.33-13.95c15.7-9.22,28.15-21.92,37.62-37.62,9.22-15.94,13.95-33.14,13.95-51.58s-4.73-36.13-13.95-51.83c-9.22-15.7-21.68-28.15-37.62-37.62h0ZM1800.53,1058.21c-9.47,9.22-20.68,13.95-33.64,13.95s-24.17-4.73-33.39-13.95c-9.22-9.22-13.95-20.43-13.95-33.39s4.73-24.17,13.95-33.64c9.22-9.47,20.43-13.95,33.39-13.95s24.17,4.73,33.64,13.95c9.47,9.47,13.95,20.68,13.95,33.64s-4.73,24.17-13.95,33.39Z" fill="#0f6bff"/>
      <path d="M2054.66,1028.06c-7.72-8.72-16.69-14.95-26.66-18.69-10.21-3.74-22.92-7.22-38.37-10.46-11.96-2.25-20.68-4.73-26.16-6.73-5.48-2.25-8.23-5.48-8.23-9.96s2.25-8.97,6.73-11.96c4.48-2.99,10.46-4.48,17.94-4.48s15.45,1.49,20.93,4.73c5.24,3.24,9.47,7.97,12.71,14.45l45.35-22.17c-7.72-13.2-18.69-23.42-32.39-30.4-13.7-6.97-29.4-10.46-46.59-10.46s-28.15,2.49-40.36,7.47c-12.46,4.99-22.17,12.21-29.4,21.68-7.22,9.47-10.96,20.68-10.96,33.39s3.74,23.92,10.96,31.89c7.22,7.97,15.94,13.7,26.16,17.69,10.21,3.74,22.92,7.47,37.87,10.71,13.2,2.99,22.92,5.73,29.15,8.23,6.23,2.49,9.22,6.48,9.22,11.71s-3.24,10.71-9.96,13.95c-6.73,3.24-14.45,4.99-23.17,4.99-21.68,0-35.63-8.23-41.86-24.91l-45.85,23.42c7.47,15.2,18.69,26.41,33.64,34.13,14.95,7.72,32.89,11.46,54.06,11.46s29.65-2.49,43.1-7.22c13.2-4.73,23.92-11.96,32.14-21.43,7.97-9.47,12.21-20.93,12.21-34.13s-3.74-27.41-11.46-36.13l-.74-.75h-.02Z" fill="#0f6bff"/>
      <path d="M534.13,1197.65c-4.36-3.43-9.04-5.75-14.04-6.97s-9.43-1.82-13.28-1.82c-6.29,0-11.93,1.33-16.93,3.96-5,2.64-9.29,5.82-12.86,9.54v-10.71h-22.5v107.14h22.5v-60c0-5.85.75-10.71,2.25-14.57,1.5-3.86,3.46-6.93,5.89-9.21,2.43-2.28,5.1-3.89,8.03-4.82,2.92-.93,5.75-1.39,8.46-1.39,2.86,0,5.79.4,8.78,1.18,3,.79,5.75,2.18,8.25,4.18,2.5,2,4.57,4.65,6.21,7.93,1.64,3.29,2.47,7.5,2.47,12.64v64.07h22.5v-64.07c0-9.43-1.54-17.11-4.61-23.03-3.07-5.93-6.79-10.6-11.14-14.04h.01ZM98.81,1298.79h23.78v-62.78h61.29v-22.5h-61.29v-42.22h63.86v-22.5h-87.64s0,150,0,150ZM297.56,1205.58c-5.07-5.14-11.04-9.18-17.89-12.11-6.86-2.92-14.15-4.39-21.86-4.39s-15,1.47-21.86,4.39c-6.86,2.93-12.82,6.97-17.89,12.11-5.07,5.14-9.07,11.11-12,17.89-2.93,6.79-4.4,14.04-4.4,21.75s1.47,15,4.4,21.86c2.92,6.86,6.93,12.86,12,18,5.07,5.14,11.04,9.18,17.89,12.11,6.86,2.92,14.15,4.4,21.86,4.4s15-1.47,21.86-4.4c6.86-2.92,12.82-6.97,17.89-12.11,5.07-5.14,9.07-11.14,12-18,2.92-6.86,4.39-14.15,4.39-21.86s-1.47-14.96-4.39-21.75c-2.93-6.78-6.93-12.75-12-17.89ZM288.77,1258.4c-1.79,4.07-4.18,7.64-7.18,10.71-3,3.07-6.54,5.5-10.6,7.28-4.07,1.79-8.46,2.68-13.18,2.68s-9.11-.89-13.18-2.68c-4.07-1.78-7.64-4.21-10.71-7.28-3.07-3.07-5.5-6.64-7.28-10.71-1.79-4.07-2.68-8.47-2.68-13.18s.89-9.11,2.68-13.18c1.78-4.07,4.21-7.61,7.28-10.6,3.07-3,6.64-5.39,10.71-7.18,4.07-1.78,8.46-2.68,13.18-2.68s9.11.89,13.18,2.68,7.61,4.18,10.6,7.18c3,3,5.39,6.54,7.18,10.6,1.78,4.07,2.68,8.46,2.68,13.18s-.89,9.11-2.68,13.18ZM408.46,1251.44c0,5.86-.79,10.71-2.36,14.57-1.58,3.86-3.53,6.93-5.89,9.21-2.36,2.29-5,3.9-7.93,4.82-2.93.93-5.82,1.39-8.68,1.39s-5.61-.39-8.68-1.18c-3.07-.78-5.82-2.14-8.25-4.07-2.43-1.93-4.46-4.54-6.1-7.82-1.64-3.28-2.47-7.5-2.47-12.64v-64.07h-22.5v64.07c0,9.43,1.53,17.11,4.61,23.03,3.07,5.93,6.78,10.6,11.14,14.04,4.36,3.43,9.04,5.75,14.04,6.97,5,1.22,9.43,1.82,13.28,1.82,6.14,0,11.71-1.33,16.72-3.96,5-2.64,9.35-5.82,13.07-9.54v10.71h22.5v-107.14h-22.5v59.79h0ZM783.67,1206.44c-3.86-5.14-8.65-9.32-14.36-12.53-5.71-3.22-12.43-4.82-20.14-4.82-8.14,0-15.46,1.43-21.97,4.29s-12.04,6.83-16.61,11.89c-4.57,5.07-8.11,11.04-10.61,17.89-2.5,6.86-3.75,14.29-3.75,22.28s1.25,15.21,3.75,22.07c2.5,6.86,6.03,12.82,10.61,17.89,4.57,5.07,10.1,9.04,16.61,11.89,6.5,2.86,13.82,4.29,21.97,4.29,7.72,0,14.43-1.61,20.14-4.82,5.71-3.21,10.5-7.39,14.36-12.53v14.57h22.5v-107.14h-22.5v14.79ZM781.1,1259.26c-1.72,4.36-4.07,8.11-7.07,11.25-3,3.14-6.58,5.61-10.71,7.39-4.15,1.79-8.65,2.68-13.5,2.68s-9-.93-12.86-2.78c-3.86-1.86-7.18-4.4-9.96-7.61-2.78-3.21-4.93-6.93-6.43-11.14-1.5-4.21-2.25-8.75-2.25-13.61s.75-9.39,2.25-13.61c1.5-4.21,3.65-7.93,6.43-11.14,2.78-3.22,6.1-5.75,9.96-7.61,3.86-1.86,8.14-2.78,12.86-2.78s9.35.85,13.5,2.57c4.14,1.72,7.72,4.15,10.71,7.28,3,3.14,5.36,6.86,7.07,11.14,1.72,4.29,2.57,8.93,2.57,13.93s-.85,9.68-2.57,14.04h0ZM1055.27,1205.58c-5.07-5.14-11.04-9.18-17.89-12.11-6.86-2.92-14.15-4.39-21.86-4.39s-15,1.47-21.86,4.39c-6.86,2.93-12.82,6.97-17.89,12.11s-9.07,11.11-12,17.89c-2.93,6.79-4.4,14.04-4.4,21.75s1.47,15,4.4,21.86c2.92,6.86,6.93,12.86,12,18,5.07,5.14,11.04,9.18,17.89,12.11,6.86,2.92,14.15,4.4,21.86,4.4s15-1.47,21.86-4.4c6.86-2.92,12.82-6.97,17.89-12.11,5.07-5.14,9.07-11.14,12-18,2.92-6.86,4.39-14.15,4.39-21.86s-1.47-14.96-4.39-21.75c-2.93-6.78-6.93-12.75-12-17.89ZM1046.49,1258.4c-1.79,4.07-4.18,7.64-7.18,10.71-3,3.07-6.54,5.5-10.6,7.28-4.07,1.79-8.47,2.68-13.18,2.68s-9.11-.89-13.18-2.68c-4.07-1.78-7.64-4.21-10.71-7.28-3.07-3.07-5.5-6.64-7.28-10.71-1.79-4.07-2.68-8.47-2.68-13.18s.89-9.11,2.68-13.18c1.78-4.07,4.21-7.61,7.28-10.6,3.07-3,6.64-5.39,10.71-7.18,4.07-1.78,8.46-2.68,13.18-2.68s9.11.89,13.18,2.68c4.07,1.79,7.61,4.18,10.6,7.18,3,3,5.39,6.54,7.18,10.6,1.78,4.07,2.68,8.46,2.68,13.18s-.89,9.11-2.68,13.18ZM1181.91,1211.69c-3.07-5.93-6.79-10.6-11.14-14.04-4.36-3.43-9.04-5.75-14.04-6.97s-9.43-1.82-13.28-1.82c-6.29,0-11.93,1.33-16.93,3.96-5,2.64-9.29,5.82-12.86,9.54v-10.71h-22.5v107.14h22.5v-60c0-5.85.75-10.71,2.25-14.57s3.46-6.93,5.89-9.21c2.43-2.28,5.1-3.89,8.03-4.82,2.92-.93,5.75-1.39,8.46-1.39,2.86,0,5.79.4,8.78,1.18,3,.79,5.75,2.18,8.25,4.18,2.5,2,4.57,4.65,6.21,7.93,1.64,3.29,2.47,7.5,2.47,12.64v64.07h22.5v-64.07c0-9.43-1.54-17.11-4.61-23.03h0ZM927.24,1139.8c-3.43,0-6.39,1.22-8.9,3.65-2.5,2.43-3.75,5.43-3.75,9s1.25,6.4,3.75,8.9c2.5,2.5,5.46,3.75,8.9,3.75s6.39-1.25,8.9-3.75c2.5-2.5,3.75-5.46,3.75-8.9s-1.25-6.57-3.75-9c-2.5-2.43-5.46-3.65-8.9-3.65ZM880.31,1278.86c-5,0-8.76-1.04-11.25-3.11-2.5-2.07-3.75-6.1-3.75-12.11v-51.64h24.86v-20.35h-24.86v-35.57l-22.5,7.72v27.86h-22.07v20.35h22.07v53.14c0,6.86.71,12.5,2.14,16.93,1.43,4.43,3.46,7.97,6.1,10.61,2.64,2.64,5.93,4.5,9.86,5.57,3.92,1.08,8.46,1.61,13.61,1.61,2.43,0,5-.11,7.72-.32,2.71-.21,5.5-.46,8.36-.75v-20.79c-2,.29-3.82.5-5.46.64-1.64.15-3.25.21-4.82.21h0ZM915.88,1298.79h22.5v-107.14h-22.5v107.14ZM655.52,1206.44c-4-5.14-8.82-9.32-14.46-12.53-5.65-3.22-12.32-4.82-20.04-4.82-8.14,0-15.46,1.43-21.97,4.29s-12.04,6.83-16.61,11.89c-4.57,5.07-8.11,11.04-10.6,17.89-2.5,6.86-3.75,14.29-3.75,22.28s1.25,15.21,3.75,22.07c2.5,6.86,6.03,12.82,10.6,17.89s10.1,9.04,16.61,11.89c6.5,2.86,13.82,4.29,21.97,4.29,7.72,0,14.39-1.61,20.04-4.82,5.64-3.21,10.46-7.32,14.46-12.32v14.36h22.5v-150h-22.5v57.64ZM652.95,1259.26c-1.72,4.36-4.07,8.11-7.07,11.25-3,3.14-6.58,5.61-10.71,7.39-4.15,1.79-8.65,2.68-13.5,2.68s-9-.93-12.86-2.78c-3.86-1.86-7.18-4.4-9.96-7.61-2.78-3.21-4.93-6.93-6.43-11.14-1.5-4.21-2.25-8.75-2.25-13.61s.75-9.39,2.25-13.61c1.5-4.21,3.65-7.93,6.43-11.14s6.1-5.75,9.96-7.61c3.86-1.86,8.14-2.78,12.86-2.78s9.35.85,13.5,2.57c4.14,1.72,7.72,4.15,10.71,7.28,3,3.14,5.36,6.86,7.07,11.14,1.72,4.29,2.57,8.93,2.57,13.93s-.85,9.68-2.57,14.04h0Z" fill="#333"/>
    </g>
  </g>
  <polygon points="1141.76 501.42 1173.52 599.16 1276.29 599.16 1193.15 659.57 1224.91 757.32 1141.76 696.91 1058.61 757.32 1090.37 659.57 1007.22 599.16 1110 599.16 1141.76 501.42" fill="#fc0"/>
  <polygon points="1458.04 189.09 1489.8 286.84 1592.57 286.84 1509.43 347.25 1541.19 445 1458.04 384.58 1374.89 445 1406.65 347.25 1323.5 286.84 1426.28 286.84 1458.04 189.09" fill="#fc0"/>
  <polygon points="1888.97 74.44 1920.73 172.19 2023.5 172.19 1940.36 232.6 1972.12 330.34 1888.97 269.93 1805.82 330.34 1837.58 232.6 1754.43 172.19 1857.21 172.19 1888.97 74.44" fill="#fc0"/>
  <polygon points="2319.9 185.14 2351.66 282.89 2454.43 282.89 2371.29 343.3 2403.05 441.04 2319.9 380.63 2236.75 441.04 2268.51 343.3 2185.36 282.89 2288.14 282.89 2319.9 185.14" fill="#fc0"/>
  <polygon points="2636.18 501.42 2667.94 599.16 2770.71 599.16 2687.57 659.57 2719.32 757.32 2636.18 696.91 2553.03 757.32 2584.79 659.57 2501.64 599.16 2604.42 599.16 2636.18 501.42" fill="#fc0"/>
  <polygon points="2750.83 932.35 2782.59 1030.09 2885.36 1030.09 2802.22 1090.51 2833.98 1188.25 2750.83 1127.84 2667.68 1188.25 2699.44 1090.51 2616.29 1030.09 2719.07 1030.09 2750.83 932.35" fill="#fc0"/>
  <polygon points="2636.18 1363.28 2667.94 1461.03 2770.71 1461.03 2687.57 1521.44 2719.32 1619.18 2636.18 1558.77 2553.03 1619.18 2584.79 1521.44 2501.64 1461.03 2604.42 1461.03 2636.18 1363.28" fill="#fc0"/>
  <polygon points="2319.9 1679.56 2351.66 1777.3 2454.43 1777.3 2371.29 1837.71 2403.05 1935.46 2319.9 1875.05 2236.75 1935.46 2268.51 1837.71 2185.36 1777.3 2288.14 1777.3 2319.9 1679.56" fill="#fc0"/>
  <polygon points="1888.97 1798.16 1920.73 1895.91 2023.5 1895.91 1940.36 1956.32 1972.12 2054.07 1888.97 1993.65 1805.82 2054.07 1837.58 1956.32 1754.43 1895.91 1857.21 1895.91 1888.97 1798.16" fill="#fc0"/>
  <polygon points="1458.04 1679.56 1489.8 1777.3 1592.57 1777.3 1509.43 1837.71 1541.19 1935.46 1458.04 1875.05 1374.89 1935.46 1406.65 1837.71 1323.5 1777.3 1426.28 1777.3 1458.04 1679.56" fill="#fc0"/>
  <polygon points="1145.71 1363.28 1177.47 1461.03 1280.25 1461.03 1197.1 1521.44 1228.86 1619.18 1145.71 1558.77 1062.56 1619.18 1094.32 1521.44 1011.18 1461.03 1113.95 1461.03 1145.71 1363.28" fill="#fc0"/>
</svg>
