<?xml version="1.0" encoding="UTF-8" standalone="no"?>
<svg
   width="233.62"
   height="87.301003"
   viewBox="0 0 233.62 87.301003"
   fill="none"
   version="1.1"
   id="svg25"
   sodipodi:docname="open-resource-discovery-horizontal-white.svg"
   inkscape:version="1.4.3 (0d15f75, 2025-12-25)"
   inkscape:export-filename="open-resource-discovery-horizontal-white.png"
   inkscape:export-xdpi="96"
   inkscape:export-ydpi="96"
   xmlns:inkscape="http://www.inkscape.org/namespaces/inkscape"
   xmlns:sodipodi="http://sodipodi.sourceforge.net/DTD/sodipodi-0.dtd"
   xmlns="http://www.w3.org/2000/svg"
   xmlns:svg="http://www.w3.org/2000/svg">
  <defs
     id="defs25" />
  <sodipodi:namedview
     id="namedview25"
     pagecolor="#ffffff"
     bordercolor="#000000"
     borderopacity="0.25"
     inkscape:showpageshadow="2"
     inkscape:pageopacity="0.0"
     inkscape:pagecheckerboard="0"
     inkscape:deskcolor="#d1d1d1"
     inkscape:zoom="0.18571429"
     inkscape:cx="115.76923"
     inkscape:cy="35"
     inkscape:current-layer="svg25" />
  <path
     d="m 220.848,85.43 c -0.684,0 -1.308,-0.061 -1.749,-0.121 v -2.357 c 0.38,0.122 0.943,0.182 1.536,0.182 1.901,0 2.646,-0.714 3.208,-2.204 l 0.882,-2.327 -6.553,-16.3901 h 2.919 l 3.497,9.0921 c 0.456,1.247 1.369,3.923 1.46,4.257 0.121,-0.425 1.034,-2.736 1.459,-3.983 l 3.209,-9.3661 h 2.904 l -7.572,19.6141 c -0.897,2.326 -1.992,3.603 -5.2,3.603 z"
     fill="#ffffff"
     id="path1" />
  <path
     d="M 209.008,78.648 V 62.2119 h 2.615 v 3.5122 h 0.061 c 0.623,-2.7976 1.992,-3.8315 3.862,-3.8315 0.562,0 1.064,0.0912 1.307,0.152 v 2.6912 c -0.334,-0.1064 -0.866,-0.1672 -1.368,-0.1672 -2.798,0 -3.74,2.0982 -3.74,5.5194 v 8.56 z"
     fill="#ffffff"
     id="path2" />
  <path
     d="m 198.896,78.952 c -4.972,0 -8.271,-2.98 -8.271,-8.53 0,-5.7318 3.725,-8.5294 7.967,-8.5294 5.322,0 7.162,4.2725 7.162,7.9368 0,0.4406 -0.016,0.8816 -0.046,1.2776 h -12.209 c 0.197,3.557 2.007,5.519 5.397,5.519 2.007,0 3.376,-0.563 4.577,-1.962 l 1.718,1.703 c -1.612,1.81 -3.421,2.585 -6.295,2.585 z m -5.321,-9.9589 h 9.396 c -0.289,-3.2234 -1.961,-4.759 -4.5,-4.759 -2.524,0 -4.455,1.566 -4.896,4.759 z"
     fill="#ffffff"
     id="path3" />
  <path
     d="m 180.417,78.649 -5.823,-16.4361 h 2.934 l 3.512,10.6731 c 0.305,0.913 0.806,2.494 1.065,3.361 0.243,-0.867 0.806,-2.448 1.11,-3.361 l 3.649,-10.6731 h 2.919 l -6.006,16.4361 z"
     fill="#ffffff"
     id="path4" />
  <path
     d="m 165.715,78.952 c -4.79,0 -8.059,-3.482 -8.059,-8.53 0,-5.0324 3.269,-8.5294 8.059,-8.5294 4.804,0 8.073,3.497 8.073,8.5294 0,5.048 -3.269,8.53 -8.073,8.53 z m -5.2,-8.53 c 0,4.121 2.28,6.204 5.2,6.204 2.934,0 5.2,-2.083 5.2,-6.204 0,-4.1049 -2.266,-6.1879 -5.2,-6.1879 -2.92,0 -5.2,2.083 -5.2,6.1879 z"
     fill="#ffffff"
     id="path5" />
  <path
     d="m 149.969,78.952 c -4.485,0 -7.907,-2.98 -7.907,-8.53 0,-5.5341 3.422,-8.5294 7.907,-8.5294 2.934,0 5.124,1.2468 6.416,3.1321 l -1.931,1.5509 c -1.003,-1.4597 -2.402,-2.3415 -4.424,-2.3415 -2.996,0 -5.109,2.083 -5.109,6.1879 0,4.121 2.113,6.204 5.109,6.204 2.022,0 3.421,-0.882 4.424,-2.342 l 1.931,1.551 c -1.292,1.886 -3.482,3.117 -6.416,3.117 z"
     fill="#ffffff"
     id="path6" />
  <path
     d="m 133.678,78.952 c -2.479,0 -4.82,-0.669 -6.569,-2.585 l 1.764,-1.748 c 1.475,1.596 2.95,2.068 4.805,2.068 1.779,0 3.527,-0.563 3.527,-2.372 0,-1.901 -1.688,-2.387 -4.151,-3.072 -2.463,-0.684 -5.2,-1.6265 -5.2,-4.7738 0,-2.9801 2.342,-4.5766 5.793,-4.5766 2.205,0 4.364,0.7298 5.778,2.1742 l -1.748,1.7486 c -1.217,-1.2164 -2.646,-1.6117 -4.03,-1.6117 -1.87,0 -3.147,0.6538 -3.147,2.1438 0,1.5205 1.718,2.0222 4.181,2.7064 2.327,0.6538 5.2,1.5051 5.2,5.0481 0,3.086 -2.554,4.85 -6.203,4.85 z"
     fill="#ffffff"
     id="path7" />
  <path
     d="M 121.55,78.648 V 62.2122 h 2.737 V 78.648 Z m -0.456,-21.3317 c 0,-1.0643 0.775,-1.8397 1.824,-1.8397 1.065,0 1.84,0.7754 1.84,1.8397 0,1.0643 -0.775,1.8398 -1.84,1.8398 -1.049,0 -1.824,-0.7755 -1.824,-1.8398 z"
     fill="#ffffff"
     id="path8" />
  <path
     d="M 100.312,78.648 V 57.2246 h 7.542 c 5.975,0 10.324,3.7403 10.324,10.704 0,6.9794 -4.349,10.7194 -10.324,10.7194 z m 2.889,-2.646 h 4.516 c 4.303,0 7.511,-2.341 7.511,-8.0734 0,-5.7169 -3.208,-8.0584 -7.511,-8.0584 h -4.516 z"
     fill="#ffffff"
     id="path9" />
  <path
     d="m 219.271,50.9267 c -4.972,0 -8.271,-2.9801 -8.271,-8.5298 0,-5.7321 3.725,-8.5297 7.967,-8.5297 5.322,0 7.162,4.2725 7.162,7.9368 0,0.4409 -0.016,0.8818 -0.046,1.2772 h -12.209 c 0.197,3.5578 2.007,5.5192 5.397,5.5192 2.007,0 3.376,-0.5626 4.577,-1.9614 l 1.718,1.7029 c -1.612,1.8094 -3.421,2.5848 -6.295,2.5848 z m -5.321,-9.959 h 9.396 c -0.289,-3.2234 -1.961,-4.759 -4.5,-4.759 -2.524,0 -4.455,1.5661 -4.896,4.759 z"
     fill="#ffffff"
     id="path10" />
  <path
     d="m 203.305,50.9267 c -4.486,0 -7.907,-2.9801 -7.907,-8.5298 0,-5.5344 3.421,-8.5297 7.907,-8.5297 2.934,0 5.124,1.2468 6.416,3.1321 l -1.931,1.5509 c -1.003,-1.4596 -2.402,-2.3415 -4.424,-2.3415 -2.996,0 -5.109,2.083 -5.109,6.1882 0,4.1205 2.113,6.2035 5.109,6.2035 2.022,0 3.421,-0.8819 4.424,-2.3415 l 1.931,1.5509 c -1.292,1.8853 -3.482,3.1169 -6.416,3.1169 z"
     fill="#ffffff"
     id="path11" />
  <path
     d="M 186.594,50.6226 V 34.1865 h 2.615 v 3.5122 h 0.061 c 0.623,-2.7976 1.992,-3.8315 3.862,-3.8315 0.562,0 1.064,0.0912 1.307,0.152 v 2.6912 c -0.334,-0.1064 -0.866,-0.1672 -1.368,-0.1672 -2.798,0 -3.74,2.0982 -3.74,5.5192 v 8.5602 z"
     fill="#ffffff"
     id="path12" />
  <path
     d="m 174.334,50.9258 c -3.481,0 -5.139,-2.3263 -5.139,-5.7778 V 34.1855 h 2.737 v 10.4304 c 0,2.3871 0.882,3.8923 3.406,3.8923 2.585,0 4.257,-1.7181 4.257,-4.8046 v -9.5181 h 2.737 v 16.4362 h -2.615 v -3.4211 h -0.061 c -0.654,1.703 -2.022,3.7252 -5.322,3.7252 z"
     fill="#ffffff"
     id="path13" />
  <path
     d="m 158.027,50.9267 c -4.789,0 -8.058,-3.4818 -8.058,-8.5298 0,-5.0327 3.269,-8.5297 8.058,-8.5297 4.805,0 8.074,3.497 8.074,8.5297 0,5.048 -3.269,8.5298 -8.074,8.5298 z m -5.2,-8.5298 c 0,4.1205 2.281,6.2035 5.2,6.2035 2.935,0 5.2,-2.083 5.2,-6.2035 0,-4.1052 -2.265,-6.1882 -5.2,-6.1882 -2.919,0 -5.2,2.083 -5.2,6.1882 z"
     fill="#ffffff"
     id="path14" />
  <path
     d="m 141.584,50.9267 c -2.478,0 -4.82,-0.669 -6.568,-2.5848 l 1.763,-1.7485 c 1.475,1.5965 2.95,2.0678 4.805,2.0678 1.779,0 3.527,-0.5625 3.527,-2.3719 0,-1.9006 -1.687,-2.3871 -4.15,-3.0713 -2.464,-0.6842 -5.2,-1.6269 -5.2,-4.7742 0,-2.9801 2.341,-4.5766 5.793,-4.5766 2.204,0 4.363,0.7298 5.777,2.1742 l -1.748,1.7486 c -1.217,-1.2164 -2.646,-1.6117 -4.029,-1.6117 -1.871,0 -3.148,0.6538 -3.148,2.1438 0,1.5205 1.718,2.0222 4.181,2.7064 2.327,0.6538 5.2,1.5053 5.2,5.0479 0,3.0866 -2.554,4.8503 -6.203,4.8503 z"
     fill="#ffffff"
     id="path15" />
  <path
     d="m 126.342,50.9267 c -4.972,0 -8.272,-2.9801 -8.272,-8.5298 0,-5.7321 3.725,-8.5297 7.967,-8.5297 5.322,0 7.162,4.2725 7.162,7.9368 0,0.4409 -0.015,0.8818 -0.046,1.2772 h -12.209 c 0.198,3.5578 2.007,5.5192 5.398,5.5192 2.007,0 3.375,-0.5626 4.576,-1.9614 l 1.718,1.7029 c -1.611,1.8094 -3.421,2.5848 -6.294,2.5848 z m -5.322,-9.959 h 9.396 c -0.288,-3.2234 -1.961,-4.759 -4.5,-4.759 -2.524,0 -4.455,1.5661 -4.896,4.759 z"
     fill="#ffffff"
     id="path16" />
  <path
     d="M 100.312,50.6244 V 29.2012 h 8.226 c 4.85,0 7.526,2.3719 7.526,6.3251 0,2.676 -1.459,5.3976 -5.26,6.1426 l 6.142,8.9555 h -3.375 l -5.595,-8.5906 h -4.775 v 8.5906 z m 2.889,-11.1754 h 5.14 c 3.375,0 4.835,-1.7181 4.835,-3.8923 0,-2.4936 -1.84,-3.7099 -4.957,-3.7099 h -5.018 z"
     fill="#ffffff"
     id="path17" />
  <path
     d="M 159.93,22.5972 V 6.1611 h 2.615 v 3.421 h 0.061 c 0.653,-1.7181 2.037,-3.7403 5.336,-3.7403 3.482,0 5.14,2.3415 5.14,5.7929 V 22.5972 H 170.33 V 12.1669 c 0,-2.4023 -0.867,-3.8924 -3.391,-3.8924 -2.585,0 -4.272,1.7181 -4.272,4.7895 v 9.5332 z"
     fill="#ffffff"
     id="path18" />
  <path
     d="m 149.81,22.9013 c -4.972,0 -8.271,-2.9801 -8.271,-8.5297 0,-5.7322 3.725,-8.5298 7.967,-8.5298 5.322,0 7.162,4.2725 7.162,7.9368 0,0.4409 -0.016,0.8818 -0.046,1.2772 h -12.209 c 0.197,3.5578 2.007,5.5192 5.397,5.5192 2.007,0 3.376,-0.5626 4.577,-1.9614 l 1.718,1.7029 c -1.612,1.8094 -3.421,2.5848 -6.295,2.5848 z m -5.321,-9.959 h 9.396 c -0.289,-3.2233 -1.961,-4.759 -4.5,-4.759 -2.524,0 -4.455,1.5661 -4.896,4.759 z"
     fill="#ffffff"
     id="path19" />
  <path
     d="M 123.281,29.0744 V 6.1611 h 2.615 v 3.4818 h 0.031 c 0.79,-1.9309 2.402,-3.8011 6.142,-3.8011 4.364,0 7.223,3.497 7.223,8.5298 0,5.0479 -2.768,8.5297 -7.131,8.5297 -3.3,0 -5.231,-1.6725 -6.067,-3.6035 h -0.076 v 9.7766 z m 2.737,-14.7028 c 0,4.1204 2.281,6.2034 5.215,6.2034 2.92,0 5.2,-2.083 5.2,-6.2034 0,-4.1053 -2.28,-6.1883 -5.2,-6.1883 -2.934,0 -5.215,2.083 -5.215,6.1883 z"
     fill="#ffffff"
     id="path20" />
  <path
     d="M 109.461,22.9021 C 103.303,22.9021 99,18.6144 99,11.8788 99,5.1584 103.303,0.8555 109.461,0.8555 c 6.173,0 10.46,4.3029 10.46,11.0233 0,6.7356 -4.287,11.0233 -10.46,11.0233 z M 101.95,11.8788 c 0,5.1695 2.904,8.3473 7.511,8.3473 4.607,0 7.511,-3.1778 7.511,-8.3473 0,-5.1544 -2.904,-8.3321 -7.511,-8.3321 -4.607,0 -7.511,3.1777 -7.511,8.3321 z"
     fill="#ffffff"
     id="path21" />
  <path
     fill-rule="evenodd"
     clip-rule="evenodd"
     d="m 37.3669,21.4032 c 0.1203,-0.8589 0.1825,-1.7364 0.1825,-2.6285 0,-0.0243 0,-0.0486 -10e-5,-0.0729 h 4.9746 c -10e-5,0.0243 -10e-5,0.0486 -10e-5,0.0729 0,0.8921 0.0622,1.7696 0.1825,2.6285 z M 21.5149,37.3509 V 21.4032 h 15.852 c -1.1528,8.2284 -7.6391,14.7467 -15.852,15.9477 z m 0,5.3719 v -5.3719 c -0.8821,0.129 -1.784,0.1966 -2.7014,0.1985 V 21.4032 18.7018 h 2.7014 16.0344 C 37.51,8.3663 29.1194,0 18.7747,0 8.4057,0 0,8.4057 0,18.7747 c 0,10.369 8.4057,18.7747 18.7747,18.7747 0.0129,0 0.0259,0 0.0388,0 v 4.975 c -0.0129,-1e-4 -0.0259,-1e-4 -0.0388,-1e-4 C 8.4057,42.5243 0,50.93 0,61.299 c 0,10.369 8.4057,18.775 18.7747,18.775 10.369,0 18.7747,-8.406 18.7747,-18.775 0,-0.0243 0,-0.0486 -10e-5,-0.0729 h 21.0872 2.7014 V 58.5247 37.5494 C 71.689,37.5281 80.073,29.1306 80.073,18.7747 80.073,8.4057 71.667,0 61.2985,0 50.9538,0 42.5632,8.3663 42.5239,18.7018 h 16.1126 2.7014 v 2.7014 16.1462 c -0.0132,0 -0.0263,0 -0.0394,0 -0.9037,0 -1.7925,-0.0638 -2.662,-0.1873 V 21.4032 H 42.7063 c 1.1564,8.2545 7.6803,14.788 15.9302,15.9589 V 58.5247 H 37.3459 C 36.1373,50.3652 29.6792,43.9167 21.5149,42.7228 Z m 15.831,15.8019 c 0.1306,0.882 0.1999,1.784 0.2034,2.7014 H 21.5149 18.8135 V 58.5247 42.5244 c 0.9174,0.0018 1.8193,0.0695 2.7014,0.1984 v 15.8019 z"
     fill="#ffffff"
     id="path22" />
  <path
     fill-rule="evenodd"
     clip-rule="evenodd"
     d="m 61.2981,74.652 c 7.3852,0 13.3719,-5.9863 13.3719,-13.3714 0,-7.3851 -5.9867,-13.3719 -13.3719,-13.3719 -7.3851,0 -13.3719,5.9868 -13.3719,13.3719 0,7.3851 5.9868,13.3714 13.3719,13.3714 z m 0,5.403 c 10.3689,0 18.7749,-8.405 18.7749,-18.7744 0,-10.369 -8.406,-18.7747 -18.7749,-18.7747 -10.3689,0 -18.7747,8.4057 -18.7747,18.7747 0,10.3694 8.4058,18.7744 18.7747,18.7744 z"
     fill="#ffffff"
     id="path23" />
  <path
     fill-rule="evenodd"
     clip-rule="evenodd"
     d="m 79.392,71.23 8.602,8.761 -7.361,7.31 -8.602,-8.761 z"
     fill="#ffffff"
     id="path24" />
  <path
     fill-rule="evenodd"
     clip-rule="evenodd"
     d="m 70.532,58.5765 c -0.795,0.6231 -1.7994,0.9895 -2.8876,0.9763 -2.5366,-0.0306 -4.5681,-2.1117 -4.5375,-4.6482 0.0127,-1.0498 0.3766,-2.0131 0.9786,-2.7795 -0.8384,-0.251 -1.7254,-0.3907 -2.6441,-0.4018 -5.3049,-0.064 -9.6574,4.1847 -9.7214,9.4896 -0.064,5.305 4.1846,9.6571 9.4896,9.7211 5.305,0.064 9.6574,-4.1843 9.7214,-9.4892 0.012,-0.9971 -0.128,-1.9606 -0.399,-2.8683 z"
     fill="#ffffff"
     id="path25" />
</svg>
