<svg width="292" height="140" viewBox="0 0 292 140" fill="none" xmlns="http://www.w3.org/2000/svg">
<rect width="292" height="140" fill="white"/>
<path d="M251.848 115.43C251.164 115.43 250.54 115.369 250.099 115.309V112.952C250.479 113.074 251.042 113.134 251.635 113.134C253.536 113.134 254.281 112.42 254.843 110.93L255.725 108.603L249.172 92.2129H252.091L255.588 101.305C256.044 102.552 256.957 105.228 257.048 105.562C257.169 105.137 258.082 102.826 258.507 101.579L261.716 92.2129H264.62L257.048 111.827C256.151 114.153 255.056 115.43 251.848 115.43Z" fill="black"/>
<path d="M240.008 108.648V92.2119H242.623V95.7241H242.684C243.307 92.9265 244.676 91.8926 246.546 91.8926C247.108 91.8926 247.61 91.9838 247.853 92.0446V94.7358C247.519 94.6294 246.987 94.5686 246.485 94.5686C243.687 94.5686 242.745 96.6668 242.745 100.088V108.648H240.008Z" fill="black"/>
<path d="M229.896 108.952C224.924 108.952 221.625 105.972 221.625 100.422C221.625 94.6902 225.35 91.8926 229.592 91.8926C234.914 91.8926 236.754 96.1651 236.754 99.8294C236.754 100.27 236.738 100.711 236.708 101.107H224.499C224.696 104.664 226.506 106.626 229.896 106.626C231.903 106.626 233.272 106.063 234.473 104.664L236.191 106.367C234.579 108.177 232.77 108.952 229.896 108.952ZM224.575 98.9931H233.971C233.682 95.7697 232.01 94.2341 229.471 94.2341C226.947 94.2341 225.016 95.8001 224.575 98.9931Z" fill="black"/>
<path d="M211.417 108.649L205.594 92.2129H208.528L212.04 102.886C212.345 103.799 212.846 105.38 213.105 106.247C213.348 105.38 213.911 103.799 214.215 102.886L217.864 92.2129H220.783L214.777 108.649H211.417Z" fill="black"/>
<path d="M196.715 108.952C191.925 108.952 188.656 105.47 188.656 100.422C188.656 95.3896 191.925 91.8926 196.715 91.8926C201.519 91.8926 204.788 95.3896 204.788 100.422C204.788 105.47 201.519 108.952 196.715 108.952ZM191.515 100.422C191.515 104.543 193.795 106.626 196.715 106.626C199.649 106.626 201.915 104.543 201.915 100.422C201.915 96.3171 199.649 94.2341 196.715 94.2341C193.795 94.2341 191.515 96.3171 191.515 100.422Z" fill="black"/>
<path d="M180.969 108.952C176.484 108.952 173.062 105.972 173.062 100.422C173.062 94.8879 176.484 91.8926 180.969 91.8926C183.903 91.8926 186.093 93.1394 187.385 95.0247L185.454 96.5756C184.451 95.1159 183.052 94.2341 181.03 94.2341C178.034 94.2341 175.921 96.3171 175.921 100.422C175.921 104.543 178.034 106.626 181.03 106.626C183.052 106.626 184.451 105.744 185.454 104.284L187.385 105.835C186.093 107.721 183.903 108.952 180.969 108.952Z" fill="black"/>
<path d="M164.678 108.952C162.199 108.952 159.858 108.283 158.109 106.367L159.873 104.619C161.348 106.215 162.823 106.687 164.678 106.687C166.457 106.687 168.205 106.124 168.205 104.315C168.205 102.414 166.517 101.928 164.054 101.243C161.591 100.559 158.854 99.6165 158.854 96.4692C158.854 93.4891 161.196 91.8926 164.647 91.8926C166.852 91.8926 169.011 92.6224 170.425 94.0668L168.677 95.8154C167.46 94.599 166.031 94.2037 164.647 94.2037C162.777 94.2037 161.5 94.8575 161.5 96.3475C161.5 97.868 163.218 98.3697 165.681 99.0539C168.008 99.7077 170.881 100.559 170.881 104.102C170.881 107.188 168.327 108.952 164.678 108.952Z" fill="black"/>
<path d="M152.55 108.648V92.2122H155.287V108.648H152.55ZM152.094 87.3163C152.094 86.252 152.869 85.4766 153.918 85.4766C154.983 85.4766 155.758 86.252 155.758 87.3163C155.758 88.3806 154.983 89.1561 153.918 89.1561C152.869 89.1561 152.094 88.3806 152.094 87.3163Z" fill="black"/>
<path d="M131.312 108.648V87.2246H138.854C144.829 87.2246 149.178 90.9649 149.178 97.9286C149.178 104.908 144.829 108.648 138.854 108.648H131.312ZM134.201 106.002H138.717C143.02 106.002 146.228 103.661 146.228 97.9286C146.228 92.2117 143.02 89.8702 138.717 89.8702H134.201V106.002Z" fill="black"/>
<path d="M250.271 80.9267C245.299 80.9267 242 77.9466 242 72.3969C242 66.6648 245.725 63.8672 249.967 63.8672C255.289 63.8672 257.129 68.1397 257.129 71.804C257.129 72.2449 257.113 72.6858 257.083 73.0812H244.874C245.071 76.639 246.881 78.6004 250.271 78.6004C252.278 78.6004 253.647 78.0378 254.848 76.639L256.566 78.3419C254.954 80.1513 253.145 80.9267 250.271 80.9267ZM244.95 70.9677H254.346C254.057 67.7443 252.385 66.2087 249.846 66.2087C247.322 66.2087 245.391 67.7748 244.95 70.9677Z" fill="black"/>
<path d="M234.305 80.9267C229.819 80.9267 226.398 77.9466 226.398 72.3969C226.398 66.8625 229.819 63.8672 234.305 63.8672C237.239 63.8672 239.429 65.114 240.721 66.9993L238.79 68.5502C237.787 67.0906 236.388 66.2087 234.366 66.2087C231.37 66.2087 229.257 68.2917 229.257 72.3969C229.257 76.5174 231.37 78.6004 234.366 78.6004C236.388 78.6004 237.787 77.7185 238.79 76.2589L240.721 77.8098C239.429 79.6951 237.239 80.9267 234.305 80.9267Z" fill="black"/>
<path d="M217.594 80.6226V64.1865H220.209V67.6987H220.27C220.893 64.9011 222.262 63.8672 224.132 63.8672C224.694 63.8672 225.196 63.9584 225.439 64.0192V66.7104C225.105 66.604 224.573 66.5432 224.071 66.5432C221.273 66.5432 220.331 68.6414 220.331 72.0624V80.6226H217.594Z" fill="black"/>
<path d="M205.334 80.9258C201.853 80.9258 200.195 78.5995 200.195 75.148V64.1855H202.932V74.6159C202.932 77.003 203.814 78.5082 206.338 78.5082C208.923 78.5082 210.595 76.7901 210.595 73.7036V64.1855H213.332V80.6217H210.717V77.2006H210.656C210.002 78.9036 208.634 80.9258 205.334 80.9258Z" fill="black"/>
<path d="M189.027 80.9267C184.238 80.9267 180.969 77.4449 180.969 72.3969C180.969 67.3642 184.238 63.8672 189.027 63.8672C193.832 63.8672 197.101 67.3642 197.101 72.3969C197.101 77.4449 193.832 80.9267 189.027 80.9267ZM183.827 72.3969C183.827 76.5174 186.108 78.6004 189.027 78.6004C191.962 78.6004 194.227 76.5174 194.227 72.3969C194.227 68.2917 191.962 66.2087 189.027 66.2087C186.108 66.2087 183.827 68.2917 183.827 72.3969Z" fill="black"/>
<path d="M172.584 80.9267C170.106 80.9267 167.764 80.2577 166.016 78.3419L167.779 76.5934C169.254 78.1899 170.729 78.6612 172.584 78.6612C174.363 78.6612 176.111 78.0987 176.111 76.2893C176.111 74.3887 174.424 73.9022 171.961 73.218C169.497 72.5338 166.761 71.5911 166.761 68.4438C166.761 65.4637 169.102 63.8672 172.554 63.8672C174.758 63.8672 176.917 64.597 178.331 66.0414L176.583 67.79C175.366 66.5736 173.937 66.1783 172.554 66.1783C170.683 66.1783 169.406 66.8321 169.406 68.3221C169.406 69.8426 171.124 70.3443 173.587 71.0285C175.914 71.6823 178.787 72.5338 178.787 76.0764C178.787 79.163 176.233 80.9267 172.584 80.9267Z" fill="black"/>
<path d="M157.342 80.9267C152.37 80.9267 149.07 77.9466 149.07 72.3969C149.07 66.6648 152.795 63.8672 157.037 63.8672C162.359 63.8672 164.199 68.1397 164.199 71.804C164.199 72.2449 164.184 72.6858 164.153 73.0812H151.944C152.142 76.639 153.951 78.6004 157.342 78.6004C159.349 78.6004 160.717 78.0378 161.918 76.639L163.636 78.3419C162.025 80.1513 160.215 80.9267 157.342 80.9267ZM152.02 70.9677H161.416C161.128 67.7443 159.455 66.2087 156.916 66.2087C154.392 66.2087 152.461 67.7748 152.02 70.9677Z" fill="black"/>
<path d="M131.312 80.6244V59.2012H139.538C144.388 59.2012 147.064 61.5731 147.064 65.5263C147.064 68.2023 145.605 70.9239 141.804 71.6689L147.946 80.6244H144.571L138.976 72.0338H134.201V80.6244H131.312ZM134.201 69.449H139.341C142.716 69.449 144.176 67.7309 144.176 65.5567C144.176 63.0631 142.336 61.8468 139.219 61.8468H134.201V69.449Z" fill="black"/>
<path d="M190.93 52.5972V36.1611H193.545V39.5821H193.606C194.259 37.864 195.643 35.8418 198.942 35.8418C202.424 35.8418 204.082 38.1833 204.082 41.6347V52.5972H201.33V42.1669C201.33 39.7646 200.463 38.2745 197.939 38.2745C195.354 38.2745 193.667 39.9926 193.667 43.064V52.5972H190.93Z" fill="black"/>
<path d="M180.81 52.9013C175.838 52.9013 172.539 49.9212 172.539 44.3716C172.539 38.6394 176.264 35.8418 180.506 35.8418C185.828 35.8418 187.668 40.1143 187.668 43.7786C187.668 44.2195 187.652 44.6604 187.622 45.0558H175.413C175.61 48.6136 177.42 50.575 180.81 50.575C182.817 50.575 184.186 50.0124 185.387 48.6136L187.105 50.3165C185.493 52.1259 183.684 52.9013 180.81 52.9013ZM175.489 42.9423H184.885C184.596 39.719 182.924 38.1833 180.385 38.1833C177.861 38.1833 175.93 39.7494 175.489 42.9423Z" fill="black"/>
<path d="M154.281 59.0744V36.1611H156.896V39.6429H156.927C157.717 37.712 159.329 35.8418 163.069 35.8418C167.433 35.8418 170.292 39.3388 170.292 44.3716C170.292 49.4195 167.524 52.9013 163.161 52.9013C159.861 52.9013 157.93 51.2288 157.094 49.2978H157.018V59.0744H154.281ZM157.018 44.3716C157.018 48.492 159.299 50.575 162.233 50.575C165.153 50.575 167.433 48.492 167.433 44.3716C167.433 40.2663 165.153 38.1833 162.233 38.1833C159.299 38.1833 157.018 40.2663 157.018 44.3716Z" fill="black"/>
<path d="M140.461 52.9021C134.303 52.9021 130 48.6144 130 41.8788C130 35.1584 134.303 30.8555 140.461 30.8555C146.634 30.8555 150.921 35.1584 150.921 41.8788C150.921 48.6144 146.634 52.9021 140.461 52.9021ZM132.95 41.8788C132.95 47.0483 135.854 50.2261 140.461 50.2261C145.068 50.2261 147.972 47.0483 147.972 41.8788C147.972 36.7244 145.068 33.5467 140.461 33.5467C135.854 33.5467 132.95 36.7244 132.95 41.8788Z" fill="black"/>
<path fill-rule="evenodd" clip-rule="evenodd" d="M68.3669 51.4032C68.4872 50.5443 68.5494 49.6668 68.5494 48.7747C68.5494 48.7504 68.5494 48.7261 68.5493 48.7018H73.5239C73.5238 48.7261 73.5238 48.7504 73.5238 48.7747C73.5238 49.6668 73.586 50.5443 73.7063 51.4032H68.3669ZM52.5149 67.3509V51.4032H68.3669C67.2141 59.6316 60.7278 66.1499 52.5149 67.3509ZM52.5149 72.7228V67.3509C51.6328 67.4799 50.7309 67.5475 49.8135 67.5494V51.4032V48.7018H52.5149H68.5493C68.51 38.3663 60.1194 30 49.7747 30C39.4057 30 31 38.4057 31 48.7747C31 59.1437 39.4057 67.5494 49.7747 67.5494C49.7876 67.5494 49.8006 67.5494 49.8135 67.5494V72.5244C49.8006 72.5243 49.7876 72.5243 49.7747 72.5243C39.4057 72.5243 31 80.93 31 91.299C31 101.668 39.4057 110.074 49.7747 110.074C60.1437 110.074 68.5494 101.668 68.5494 91.299C68.5494 91.2747 68.5494 91.2504 68.5493 91.2261H89.6365H92.3379V88.5247V67.5494C102.689 67.5281 111.073 59.1306 111.073 48.7747C111.073 38.4057 102.667 30 92.2985 30C81.9538 30 73.5632 38.3663 73.5239 48.7018H89.6365H92.3379V51.4032V67.5494C92.3247 67.5494 92.3116 67.5494 92.2985 67.5494C91.3948 67.5494 90.506 67.4856 89.6365 67.3621V51.4032H73.7063C74.8627 59.6577 81.3866 66.1912 89.6365 67.3621V88.5247H68.3459C67.1373 80.3652 60.6792 73.9167 52.5149 72.7228ZM68.3459 88.5247C68.4765 89.4067 68.5458 90.3087 68.5493 91.2261H52.5149H49.8135V88.5247V72.5244C50.7309 72.5262 51.6328 72.5939 52.5149 72.7228V88.5247H68.3459Z" fill="black"/>
<path fill-rule="evenodd" clip-rule="evenodd" d="M92.2981 104.652C99.6832 104.652 105.67 98.6657 105.67 91.2806C105.67 83.8955 99.6832 77.9087 92.2981 77.9087C84.913 77.9087 78.9262 83.8955 78.9262 91.2806C78.9262 98.6657 84.913 104.652 92.2981 104.652ZM92.2981 110.055C102.667 110.055 111.073 101.65 111.073 91.2806C111.073 80.9116 102.667 72.5059 92.2981 72.5059C81.9292 72.5059 73.5234 80.9116 73.5234 91.2806C73.5234 101.65 81.9292 110.055 92.2981 110.055Z" fill="black"/>
<path fill-rule="evenodd" clip-rule="evenodd" d="M110.392 101.23L118.994 109.991L111.633 117.301L103.031 108.54L110.392 101.23Z" fill="black"/>
<path fill-rule="evenodd" clip-rule="evenodd" d="M101.532 88.5765C100.737 89.1996 99.7326 89.566 98.6444 89.5528C96.1078 89.5222 94.0763 87.4411 94.1069 84.9046C94.1196 83.8548 94.4835 82.8915 95.0855 82.1251C94.2471 81.8741 93.3601 81.7344 92.4414 81.7233C87.1365 81.6593 82.784 85.908 82.72 91.2129C82.656 96.5179 86.9046 100.87 92.2096 100.934C97.5146 100.998 101.867 96.7497 101.931 91.4448C101.943 90.4477 101.803 89.4842 101.532 88.5765Z" fill="black"/>
</svg>
