<?xml version="1.0" encoding="UTF-8"?>
<svg id="a" data-name="Layer 1" xmlns="http://www.w3.org/2000/svg" width="850.39" height="928.09" xmlns:xlink="http://www.w3.org/1999/xlink" viewBox="0 0 850.39 928.09">
  <defs>
    <linearGradient id="c" x1="377.46" y1="441.85" x2="334.81" y2="515.73" gradientUnits="userSpaceOnUse">
      <stop offset="0" stop-color="#fff" stop-opacity="0"/>
      <stop offset="0" stop-color="#000"/>
      <stop offset="1" stop-color="#5279a3"/>
    </linearGradient>
    <linearGradient id="d" x1="235.13" y1="-1465.36" x2="161.92" y2="-1592.16" gradientTransform="translate(0 -1210.77) scale(1 -1)" gradientUnits="userSpaceOnUse">
      <stop offset="0" stop-color="#000"/>
      <stop offset=".13" stop-color="#020305"/>
      <stop offset=".29" stop-color="#0a0f14"/>
      <stop offset=".47" stop-color="#16212d"/>
      <stop offset=".66" stop-color="#283b4f"/>
      <stop offset=".85" stop-color="#3e5b7b"/>
      <stop offset="1" stop-color="#5279a3"/>
    </linearGradient>
    <linearGradient id="e" x1="-6603.83" y1="-1467.71" x2="-6547.14" y2="-1565.88" gradientTransform="translate(-5910.65 -1210.77) rotate(-180)" gradientUnits="userSpaceOnUse">
      <stop offset=".55" stop-color="#000"/>
      <stop offset="1" stop-color="#5279a3"/>
    </linearGradient>
    <linearGradient id="f" x1="-6420.87" y1="-1631.45" x2="-6381.87" y2="-1698.99" gradientTransform="translate(-5910.65 -1210.77) rotate(-180)" gradientUnits="userSpaceOnUse">
      <stop offset="0" stop-color="#000"/>
      <stop offset="1" stop-color="#5279a3"/>
    </linearGradient>
    <linearGradient id="h" x1="-3053.04" y1="1964.25" x2="-3032.11" y2="1952.16" gradientTransform="translate(-1535.53 3676.8) rotate(90) scale(1 -1)" gradientUnits="userSpaceOnUse">
      <stop offset="0" stop-color="#000"/>
      <stop offset="1" stop-color="#5279a3" stop-opacity=".8"/>
    </linearGradient>
    <linearGradient id="i" x1="-3218.47" y1="1964.25" x2="-3197.54" y2="1952.16" gradientTransform="translate(-1535.53 3676.8) rotate(90) scale(1 -1)" gradientUnits="userSpaceOnUse">
      <stop offset="0" stop-color="#000"/>
      <stop offset=".63" stop-color="#354f6a" stop-opacity=".87"/>
      <stop offset="1" stop-color="#5279a3" stop-opacity=".8"/>
    </linearGradient>
    <linearGradient id="j" x1="-3006.95" y1="1964.25" x2="-2986.02" y2="1952.16" gradientTransform="translate(-1535.53 3676.8) rotate(90) scale(1 -1)" gradientUnits="userSpaceOnUse">
      <stop offset="0" stop-color="#000"/>
      <stop offset="1" stop-color="#5279a3"/>
    </linearGradient>
    <linearGradient id="k" x1="-2959.21" y1="1964.25" x2="-2938.27" y2="1952.16" gradientTransform="translate(-1535.53 3676.8) rotate(90) scale(1 -1)" gradientUnits="userSpaceOnUse">
      <stop offset="0" stop-color="#000"/>
      <stop offset="1" stop-color="#5279a3"/>
    </linearGradient>
  </defs>
  <path d="M308.5,840.37c2.61,0,4.95.61,7,1.84,2.05,1.23,3.64,3.01,4.76,5.36h15.04c-1.6-6.08-4.77-10.88-9.52-14.4-4.75-3.52-10.45-5.28-17.12-5.28-5.44,0-10.31,1.21-14.6,3.64-4.29,2.43-7.64,5.81-10.04,10.16-2.4,4.35-3.6,9.29-3.6,14.84s1.2,10.48,3.6,14.8c2.4,4.32,5.75,7.69,10.04,10.12,4.29,2.43,9.16,3.64,14.6,3.64,6.67,0,12.37-1.75,17.12-5.24,4.75-3.49,7.92-8.28,9.52-14.36h-15.04c-1.12,2.35-2.71,4.13-4.76,5.36-2.05,1.23-4.39,1.84-7,1.84-4.21,0-7.63-1.47-10.24-4.4-2.61-2.93-3.92-6.85-3.92-11.76s1.31-8.83,3.92-11.76c2.61-2.93,6.03-4.4,10.24-4.4ZM372.02,842.21c-3.52-1.87-7.47-2.8-11.84-2.8s-8.32.93-11.84,2.8c-3.52,1.87-6.29,4.55-8.32,8.04-2.03,3.49-3.04,7.53-3.04,12.12s1,8.69,3,12.16c2,3.47,4.75,6.13,8.24,8,3.49,1.87,7.43,2.8,11.8,2.8s8.33-.93,11.88-2.8c3.55-1.87,6.35-4.55,8.4-8.04,2.05-3.49,3.08-7.53,3.08-12.12s-1.01-8.63-3.04-12.12c-2.03-3.49-4.8-6.17-8.32-8.04ZM366.7,870.61c-1.84,1.92-4.07,2.88-6.68,2.88s-4.79-.96-6.52-2.88c-1.73-1.92-2.6-4.67-2.6-8.24s.88-6.39,2.64-8.28c1.76-1.89,3.97-2.84,6.64-2.84s4.81.96,6.6,2.88c1.79,1.92,2.68,4.67,2.68,8.24s-.92,6.32-2.76,8.24ZM111.42,831.41c-4.4-2.45-9.24-3.68-14.52-3.68s-10.12,1.23-14.52,3.68c-4.4,2.45-7.89,5.87-10.48,10.24-2.59,4.37-3.88,9.31-3.88,14.8s1.29,10.44,3.88,14.84c2.59,4.4,6.08,7.83,10.48,10.28,4.4,2.45,9.24,3.68,14.52,3.68s10.11-1.23,14.48-3.68c4.37-2.45,7.84-5.88,10.4-10.28,2.56-4.4,3.84-9.35,3.84-14.84s-1.27-10.43-3.8-14.8c-2.53-4.37-6-7.79-10.4-10.24ZM107.66,868.29c-2.69,2.99-6.28,4.48-10.76,4.48s-8.15-1.48-10.84-4.44c-2.69-2.96-4.04-6.92-4.04-11.88s1.35-8.99,4.04-11.92c2.69-2.93,6.31-4.4,10.84-4.4s8.07,1.48,10.76,4.44c2.69,2.96,4.04,6.92,4.04,11.88s-1.35,8.85-4.04,11.84ZM168.66,842.21c-2.99-1.87-6.32-2.8-10-2.8-3.15,0-5.89.64-8.24,1.92-2.35,1.28-4.19,2.96-5.52,5.04v-6.32h-13.68v65.92h13.68v-27.52c1.33,2.03,3.19,3.68,5.56,4.96,2.37,1.28,5.11,1.92,8.2,1.92,3.68,0,7.01-.95,10-2.84,2.99-1.89,5.35-4.59,7.08-8.08,1.73-3.49,2.6-7.53,2.6-12.12s-.87-8.61-2.6-12.08c-1.73-3.47-4.09-6.13-7.08-8ZM161.54,870.41c-1.92,2-4.24,3-6.96,3s-5.03-.99-6.92-2.96c-1.89-1.97-2.84-4.67-2.84-8.08s.95-6.11,2.84-8.08c1.89-1.97,4.2-2.96,6.92-2.96s5.11.97,7,2.92c1.89,1.95,2.84,4.63,2.84,8.04s-.96,6.12-2.88,8.12ZM214.9,842.13c-3.36-1.81-7.2-2.72-11.52-2.72s-8.35.93-11.76,2.8c-3.41,1.87-6.07,4.53-7.96,8-1.89,3.47-2.84,7.52-2.84,12.16s.96,8.69,2.88,12.16c1.92,3.47,4.59,6.13,8,8,3.41,1.87,7.31,2.8,11.68,2.8,3.63,0,6.91-.67,9.84-2,2.93-1.33,5.37-3.17,7.32-5.52,1.95-2.35,3.29-4.99,4.04-7.92h-14.56c-1.33,2.88-3.71,4.32-7.12,4.32-2.29,0-4.23-.73-5.8-2.2-1.57-1.47-2.47-3.59-2.68-6.36h30.96c.16-1.39.24-2.72.24-4,0-4.48-.95-8.4-2.84-11.76-1.89-3.36-4.52-5.95-7.88-7.76ZM194.5,858.05c.37-2.45,1.35-4.35,2.92-5.68,1.57-1.33,3.51-2,5.8-2s4.4.69,6,2.08c1.6,1.39,2.4,3.25,2.4,5.6h-17.12ZM258.02,839.57c-2.93,0-5.57.57-7.92,1.72-2.35,1.15-4.21,2.71-5.6,4.68v-5.92h-13.68v44.64h13.68v-24.24c0-2.99.77-5.31,2.32-6.96,1.55-1.65,3.63-2.48,6.24-2.48s4.69.83,6.24,2.48c1.55,1.65,2.32,3.97,2.32,6.96v24.24h13.6v-26.08c0-5.92-1.56-10.57-4.68-13.96-3.12-3.39-7.29-5.08-12.52-5.08ZM492.74,839.57c-2.93,0-5.6.71-8,2.12-2.4,1.41-4.4,3.35-6,5.8v-7.44h-13.68v44.64h13.68v-20.72c0-3.68.85-6.25,2.56-7.72,1.71-1.47,4.27-2.2,7.68-2.2h3.76v-14.48ZM710.89,839.57c-2.93,0-5.57.57-7.92,1.72-2.35,1.15-4.21,2.71-5.6,4.68v-5.92h-13.68v44.64h13.68v-24.24c0-2.99.77-5.31,2.32-6.96,1.55-1.65,3.63-2.48,6.24-2.48s4.69.83,6.24,2.48c1.55,1.65,2.32,3.97,2.32,6.96v24.24h13.6v-26.08c0-5.92-1.56-10.57-4.68-13.96-3.12-3.39-7.29-5.08-12.52-5.08ZM662.09,846.37c-1.28-2.08-3.11-3.76-5.48-5.04-2.37-1.28-5.13-1.92-8.28-1.92-3.68,0-7.01.93-10,2.8-2.99,1.87-5.35,4.53-7.08,8-1.73,3.47-2.6,7.49-2.6,12.08s.87,8.63,2.6,12.12c1.73,3.49,4.09,6.19,7.08,8.08,2.99,1.89,6.29,2.84,9.92,2.84,3.15,0,5.91-.64,8.28-1.92,2.37-1.28,4.23-2.96,5.56-5.04v6.32h13.68v-44.64h-13.68v6.32ZM659.25,870.45c-1.89,1.97-4.2,2.96-6.92,2.96s-5.03-1-6.92-3c-1.89-2-2.84-4.71-2.84-8.12s.95-6.09,2.84-8.04c1.89-1.95,4.2-2.92,6.92-2.92s5.03.99,6.92,2.96c1.89,1.97,2.84,4.67,2.84,8.08s-.95,6.11-2.84,8.08ZM413.86,839.57c-2.93,0-5.57.57-7.92,1.72-2.35,1.15-4.21,2.71-5.6,4.68v-5.92h-13.68v44.64h13.68v-24.24c0-2.99.77-5.31,2.32-6.96,1.55-1.65,3.63-2.48,6.24-2.48s4.69.83,6.24,2.48c1.55,1.65,2.32,3.97,2.32,6.96v24.24h13.6v-26.08c0-5.92-1.56-10.57-4.68-13.96-3.12-3.39-7.29-5.08-12.52-5.08ZM609.77,884.69h13.68v-59.2h-13.68v59.2ZM777.69,861.65c0-4.48-.95-8.4-2.84-11.76-1.89-3.36-4.52-5.95-7.88-7.76-3.36-1.81-7.2-2.72-11.52-2.72s-8.35.93-11.76,2.8c-3.41,1.87-6.07,4.53-7.96,8-1.89,3.47-2.84,7.52-2.84,12.16s.96,8.69,2.88,12.16c1.92,3.47,4.59,6.13,8,8,3.41,1.87,7.31,2.8,11.68,2.8,3.63,0,6.91-.67,9.84-2,2.93-1.33,5.37-3.17,7.32-5.52,1.95-2.35,3.29-4.99,4.04-7.92h-14.56c-1.33,2.88-3.71,4.32-7.12,4.32-2.29,0-4.23-.73-5.8-2.2-1.57-1.47-2.47-3.59-2.68-6.36h30.96c.16-1.39.24-2.72.24-4ZM746.57,858.05c.37-2.45,1.35-4.35,2.92-5.68,1.57-1.33,3.51-2,5.8-2s4.4.69,6,2.08c1.6,1.39,2.4,3.25,2.4,5.6h-17.12ZM453.38,872.21c-.64-.59-.96-1.55-.96-2.88v-17.92h8.96v-11.36h-8.96v-10.88h-13.68v10.88h-5.44v11.36h5.44v17.76c0,5.49,1.39,9.45,4.16,11.88,2.77,2.43,6.64,3.64,11.6,3.64h6.96v-11.6h-4.88c-1.49,0-2.56-.29-3.2-.88ZM595.37,830.85c-3.09-1.55-6.88-2.32-11.36-2.32h-22.16v56.16h13.68v-20.16h8.48c4.59,0,8.43-.83,11.52-2.48,3.09-1.65,5.39-3.83,6.88-6.52,1.49-2.69,2.24-5.67,2.24-8.92,0-3.52-.77-6.64-2.32-9.36-1.55-2.72-3.87-4.85-6.96-6.4ZM588.81,851.81c-1.28,1.23-3.23,1.84-5.84,1.84h-7.44v-14.08h7.44c2.61,0,4.56.61,5.84,1.84,1.28,1.23,1.92,2.96,1.92,5.2s-.64,3.97-1.92,5.2ZM527.62,842.21c-3.52-1.87-7.47-2.8-11.84-2.8s-8.32.93-11.84,2.8c-3.52,1.87-6.29,4.55-8.32,8.04-2.03,3.49-3.04,7.53-3.04,12.12s1,8.69,3,12.16c2,3.47,4.75,6.13,8.24,8,3.49,1.87,7.43,2.8,11.8,2.8s8.33-.93,11.88-2.8c3.55-1.87,6.35-4.55,8.4-8.04,2.05-3.49,3.08-7.53,3.08-12.12s-1.01-8.63-3.04-12.12c-2.03-3.49-4.8-6.17-8.32-8.04ZM522.3,870.61c-1.84,1.92-4.07,2.88-6.68,2.88s-4.79-.96-6.52-2.88c-1.73-1.92-2.6-4.67-2.6-8.24s.88-6.39,2.64-8.28c1.76-1.89,3.97-2.84,6.64-2.84s4.81.96,6.6,2.88c1.79,1.92,2.68,4.67,2.68,8.24s-.92,6.32-2.76,8.24ZM542.25,884.69h13.68v-59.2h-13.68v59.2Z"/>
  <g id="b" data-name="Layer 5">
    <path d="M161.02,252.42c3.13-29.19,29.33-51.15,65.1-47.3,35.77,3.84,51.75,30.27,48.61,59.47" fill="none" stroke="#221f20" stroke-miterlimit="10" stroke-width="6.5"/>
    <path d="M683.99,253.34c-3.13-29.19-29.33-51.15-65.1-47.3-35.77,3.84-51.75,30.27-48.61,59.47" fill="none" stroke="#221f20" stroke-miterlimit="10" stroke-width="6.5"/>
    <path d="M422.59,572.85l-22.32-102.51c-.3-1.37-1.48-2.36-2.89-2.4-11.84-.35-55.38-2.61-59.44-6.43l-61.71-58.06c-5.97-5.62-9.06-13.62-8.41-21.78,2.39-30,8.33-97.52,9.9-115.91.14-1.66-1.07-3.12-2.73-3.29h0l-114.36-11.66c-1.69-.17-3.19,1.07-3.35,2.76l-15.58,169.64c-.5,7.47,2.51,14.74,8.14,19.64l136.02,130.96c5.16,4.49,8.13,10.99,8.19,17.83l1.12,200.86c0,1.68,1.38,3.04,3.06,3.04l122.76-.47c1.69,0,3.05-1.38,3.04-3.07l-1.38-218.51c0-.21-.02-.42-.07-.63h.02Z"/>
    <path d="M278.73,294.99l-146.63-13.95c-1.7-.16-3.21,1.09-3.36,2.79l-8.88,101.44c-.11,1.3,1.16,2.24,2.41,1.85l154.2-48.73c.82-.26,1.4-1,1.45-1.86l2.48-39.58c.06-1-.68-1.87-1.68-1.96h0Z" fill="#fff"/>
    <path d="M422.12,572.85l22.32-102.51c.3-1.37,1.48-2.36,2.89-2.4,11.84-.35,55.38-2.61,59.44-6.43l61.71-58.06c5.97-5.62,9.06-13.62,8.41-21.78-2.39-30-8.33-97.52-9.9-115.91-.14-1.66,1.07-3.12,2.73-3.29h0l114.36-11.66c1.69-.17,3.19,1.07,3.35,2.76l15.58,169.64c.5,7.47-2.51,14.74-8.14,19.64l-136.02,130.96c-5.16,4.49-8.13,10.99-8.19,17.83l-1.12,200.86c0,1.68-1.38,3.04-3.06,3.04l-122.76-.47c-1.69,0-3.05-1.38-3.04-3.07l1.38-218.51c0-.21.02-.42.07-.63h-.02Z"/>
    <path d="M422.97,470.33l-95.29,40.72c-.79.34-1.67-.24-1.67-1.1v-86.45c0-.88.92-1.46,1.72-1.07l95.29,45.73c.92.45.89,1.76-.05,2.17Z" fill="#fff" isolation="isolate"/>
    <path d="M422.97,470.34l-95.29,40.72c-.79.34-1.67-.24-1.67-1.1v-86.45c0-.88.92-1.46,1.72-1.07l95.29,45.73c.92.45.89,1.76-.05,2.17Z" fill="url(#c)" isolation="isolate" opacity=".42"/>
    <path d="M333.25,58.04c12.3-12.92,20.65-21.69,20.65-21.69,0,0-89.29,124.97-100.53,140.7-1.35,1.63-2.65,3.21-2.65,3.21-6.49,7.85-15.96,10.72-21.15,6.43-5.2-4.29-4.15-14.14,2.33-21.98,0,0,.66-.79,1.52-1.83,3.37-3.53,66.29-69.63,99.84-104.84h-.01Z" fill="#221f20" stroke="#221f20" stroke-miterlimit="10"/>
    <path d="M408.84,444.8s-60.8-17.85-61.15-58.84c-.07-7.92-23.67-12.82-23.67-12.82,0,0,1.29-45.95,4.69-59.2,6.14-23.97,26.14-64.07,83.07-64.07,52.77,0,70.34,37.29,73.81,59.42,4.66,29.7,5.78,78.98-11.62,119.69" fill="none" stroke="#221f20" stroke-linecap="round" stroke-miterlimit="10" stroke-width="6.5"/>
    <path d="M278.68,294.94l-147.81-14.06c-1.04-.1-1.96.67-2.05,1.7l-8.98,102.58c-.12,1.33,1.16,2.36,2.44,1.95l154.3-48.82c.74-.23,1.26-.9,1.31-1.67l2.49-39.7c.06-1.01-.69-1.89-1.7-1.99h0Z" fill="url(#d)" isolation="isolate" opacity=".27"/>
    <path d="M565.97,294.99l146.63-13.95c1.7-.16,3.21,1.09,3.36,2.79l8.88,101.44c.11,1.3-1.16,2.24-2.41,1.85l-154.2-48.73c-.82-.26-1.4-1-1.45-1.86l-2.48-39.58c-.06-1,.68-1.87,1.68-1.96h-.01Z" fill="#fff"/>
    <path d="M422.39,470.33l95.29,40.72c.79.34,1.67-.24,1.67-1.1v-86.45c0-.88-.92-1.46-1.72-1.07l-95.29,45.73c-.92.45-.89,1.76.05,2.17Z" fill="#fff"/>
    <path d="M566.03,294.94l147.81-14.06c1.04-.1,1.96.67,2.05,1.7l8.98,102.58c.12,1.33-1.16,2.36-2.44,1.95l-154.3-48.82c-.74-.23-1.26-.9-1.31-1.67l-2.49-39.7c-.06-1.01.69-1.89,1.7-1.99h0Z" fill="url(#e)" isolation="isolate" opacity=".27"/>
    <path d="M422.11,470.14l95.58,40.9c.79.34,1.66-.24,1.66-1.09v-86.46c0-.75-1.04-1.39-1.72-1.07l-95.55,45.86c-.8.37-.78,1.51.02,1.86h.01Z" fill="url(#f)" isolation="isolate" opacity=".42"/>
  </g>
  <g id="g" data-name="Layer 7">
    <circle cx="142.04" cy="359.79" r="7.87"/>
    <circle cx="700.22" cy="359.79" r="7.87"/>
    <circle cx="422.68" cy="634.22" r="12.08" fill="#fff"/>
    <circle cx="422.68" cy="634.22" r="12.08" fill="url(#h)" opacity=".38"/>
    <circle cx="422.68" cy="468.79" r="12.08" fill="#fff"/>
    <circle cx="422.68" cy="468.79" r="12.08" fill="url(#i)" opacity=".56"/>
    <circle cx="422.68" cy="680.31" r="12.08" fill="#fff"/>
    <circle cx="422.68" cy="680.31" r="12.08" fill="url(#j)" opacity=".38"/>
    <path d="M410.6,728.06c0-6.68,5.41-12.08,12.08-12.08s12.08,5.41,12.08,12.08-5.41,12.08-12.08,12.08-12.08-5.41-12.08-12.08Z" fill="#fff"/>
    <path d="M410.6,728.06c0-6.68,5.41-12.08,12.08-12.08s12.08,5.41,12.08,12.08-5.41,12.08-12.08,12.08-12.08-5.41-12.08-12.08Z" fill="url(#k)" opacity=".38"/>
  </g>
</svg>
