<?xml version="1.0" encoding="UTF-8"?>
<svg id="Layer_1" data-name="Layer 1" xmlns="http://www.w3.org/2000/svg" width="945.12" height="945.12" xmlns:xlink="http://www.w3.org/1999/xlink" viewBox="0 0 945.12 945.12">
  <defs>
    <style>
      .cls-1 {
        mask: url(#mask);
      }

      .cls-2 {
        fill: #eee;
      }

      .cls-2, .cls-3 {
        font-family: Helvetica-Bold, Helvetica;
        font-size: 46.19px;
        font-weight: 700;
      }

      .cls-4, .cls-3 {
        isolation: isolate;
      }

      .cls-5, .cls-3 {
        fill: #fff;
      }

      .cls-6 {
        fill: #333;
      }
    </style>
    <mask id="mask" x="224.23" y="231.9" width="496.84" height="500.39" maskUnits="userSpaceOnUse">
      <g id="mask-1he0h8_xwz-2" data-name="mask-1he0h8 xwz-2">
        <rect id="path-1he0h8_xwz-1" data-name="path-1he0h8 xwz-1" class="cls-5" x="224.23" y="231.9" width="496.84" height="500.39" rx="8" ry="8"/>
      </g>
    </mask>
  </defs>
  <g id="Page-1">
    <g id="ironcore">
      <rect id="Rectangle" class="cls-5" x="217.86" y="225.48" width="509.58" height="513.22"/>
      <g id="Path">
        <g id="Mask">
          <rect id="path-3ulh_37f8a-1" data-name="path-3ulh 37f8a-1" x="224.23" y="231.9" width="496.84" height="500.39" rx="8" ry="8"/>
        </g>
        <g id="Clipped">
          <g class="cls-1">
            <polygon id="Path-2" data-name="Path" class="cls-6" points="347.58 366.66 347.58 488.14 531.04 488.14 531.04 553.48 601.15 553.48 373.39 732.28 224.23 732.28 224.23 464.15 347.58 366.66"/>
          </g>
        </g>
      </g>
      <g id="Group">
        <g id="_1" data-name="+1">
          <polygon id="Path-3" data-name="Path" class="cls-5" points="673.47 283.99 682.12 283.99 682.12 277.9 673.47 277.9 673.47 268.9 667.25 268.9 667.25 277.9 658.63 277.9 658.63 283.99 667.25 283.99 667.25 293.23 673.47 293.23 673.47 283.99"/>
          <polygon id="Path-4" data-name="Path" class="cls-5" points="700.9 293.48 700.9 262.7 693.63 262.7 686.42 267.82 686.42 274.36 693.27 269.51 693.63 269.51 693.63 293.48 700.9 293.48"/>
        </g>
        <g id="Fe">
          <polygon id="Path-5" data-name="Path" class="cls-5" points="394.19 561.64 394.19 488.06 469.05 488.06 469.05 451.47 394.19 451.47 394.19 404.37 476.52 404.37 476.52 366.66 347.58 366.66 347.58 561.64 394.19 561.64"/>
          <path id="Shape" class="cls-5" d="M558.66,564.44c11.2,0,20.87-1.53,29.02-4.58,8.15-3.05,14.9-7.11,20.24-12.17,5.34-5.06,9.43-10.62,12.26-16.68,2.83-6.06,4.54-12.09,5.13-18.09h-41.08c-.6,3.77-2.07,7.01-4.42,9.71s-5.33,4.77-8.93,6.19c-3.6,1.42-7.66,2.14-12.17,2.14-7.78,0-14.34-2.77-19.68-8.31s-8.01-13.17-8.01-22.88v-5.12h95.3v-15.34c0-15.01-2.86-27.97-8.57-38.88s-13.76-19.32-24.14-25.24-22.62-8.88-36.7-8.88c-13.29,0-25.22,2.74-35.77,8.23s-18.89,13.59-25.01,24.32-9.19,23.99-9.19,39.79v12.18c0,16.16,3.01,29.71,9.03,40.63,6.02,10.92,14.43,19.15,25.21,24.68s23.27,8.29,37.45,8.29ZM531.04,468.39v-.15c0-5.65,1.1-10.7,3.3-15.14,2.2-4.44,5.27-7.94,9.2-10.5,3.94-2.56,8.52-3.84,13.76-3.84s9.72,1.28,13.57,3.84c3.85,2.56,6.83,6.06,8.95,10.5s3.18,9.48,3.18,15.14v.15h-51.96Z"/>
        </g>
        <g id="_26" data-name="26">
          <path id="Path-6" data-name="Path" class="cls-5" d="M246.55,272.3v-.47c0-2.05,1.46-3.9,3.92-3.9,2.24,0,3.92,1.62,3.92,3.7,0,2.35-1.77,4.22-3.36,5.86l-10.97,11.43v4.56h22.04v-5.86h-12.09v-.34l6.16-6.61c2.51-2.66,5.46-5.3,5.46-9.79,0-4.96-4.32-8.73-11.02-8.73-7.59,0-10.97,5.03-10.97,9.74v.41h6.92Z"/>
          <path id="Shape-2" data-name="Shape" class="cls-5" d="M290.6,270.34c-.2-3.72-3.67-8.16-10.84-8.16-7.9,0-12.76,5.5-12.76,16.44,0,4.42.87,7.74,2.33,10.15,2.26,3.74,5.98,5.28,10.17,5.28,6.76,0,11.73-4.01,11.73-10.92,0-6.54-4.73-9.86-9.63-9.86-3.92,0-6.16,1.98-7.12,4.06h-.45c-.2-4.94,1.81-9.47,5.69-9.47,2.17,0,3.54,1.17,4.01,2.48h6.87ZM274.81,283.42c0-2.84,1.88-4.85,4.7-4.85,2.6,0,4.66,1.76,4.66,4.85s-1.95,4.96-4.68,4.96-4.68-1.92-4.68-4.96Z"/>
        </g>
        <g id="_55.8457" data-name="55.8457">
          <path id="Path-7" data-name="Path" class="cls-5" d="M239.24,699.28c.19,3.01,2.88,5.2,6.64,5.2,4.3,0,7.23-2.89,7.23-7.13s-2.96-6.62-6.51-6.62c-2.25,0-3.67,1.1-4.09,1.76h-.15l.55-6.57h9.18v-2.39h-11.51l-.91,11.79h2.33c.55-1.01,1.9-2.26,4-2.26,2.3,0,4.34,1.65,4.34,4.36,0,3.07-2.21,4.71-4.3,4.71-1.87,0-3.78-.81-4.18-2.86h-2.63Z"/>
          <path id="Path-8" data-name="Path" class="cls-5" d="M257.12,699.28c.19,3.01,2.88,5.2,6.64,5.2,4.3,0,7.23-2.89,7.23-7.13s-2.96-6.62-6.51-6.62c-2.25,0-3.67,1.1-4.09,1.76h-.15l.55-6.57h9.18v-2.39h-11.51l-.91,11.79h2.33c.55-1.01,1.9-2.26,4-2.26,2.3,0,4.34,1.65,4.34,4.36,0,3.07-2.21,4.71-4.3,4.71-1.87,0-3.78-.81-4.18-2.86h-2.63Z"/>
          <path id="Path-9" data-name="Path" class="cls-5" d="M274.63,702.21c0,1.22.96,2.12,2.13,2.12,1.24,0,2.18-.9,2.18-2.12,0-1.28-.94-2.18-2.18-2.18s-2.13.9-2.13,2.18Z"/>
          <path id="Shape-3" data-name="Shape" class="cls-5" d="M290.43,704.48c4.25,0,7.32-2.47,7.32-6.04,0-3.19-2.39-4.72-4.12-5.14v-.14c1.37-.45,3.34-1.83,3.34-4.57,0-3.17-2.72-5.47-6.46-5.47s-6.46,2.3-6.46,5.47c0,2.69,1.88,4.09,3.31,4.57v.14c-1.7.42-4.12,1.94-4.12,5.17,0,3.58,2.97,6.01,7.2,6.01ZM290.5,692.24c-2.19,0-3.82-1.41-3.82-3.44s1.63-3.38,3.82-3.38,3.79,1.35,3.79,3.38-1.58,3.44-3.79,3.44ZM290.5,702.21c-2.6,0-4.58-1.56-4.58-3.86s1.99-3.89,4.58-3.89,4.55,1.59,4.55,3.89-1.96,3.86-4.55,3.86Z"/>
          <path id="Shape-4" data-name="Shape" class="cls-5" d="M309.51,683.53c-2.9,4.63-5.93,9.26-8.46,13.89v2.42h9.9v4.21h2.63v-4.21h2.64v-2.41h-2.64v-13.91h-4.06ZM303.76,697.44v-.14c2.13-3.77,4.66-7.82,7.03-11.4h.15v11.53h-7.18Z"/>
          <path id="Path-10" data-name="Path" class="cls-5" d="M319.75,699.28c.19,3.01,2.88,5.2,6.64,5.2,4.3,0,7.23-2.89,7.23-7.13s-2.96-6.62-6.51-6.62c-2.25,0-3.67,1.1-4.09,1.76h-.15l.55-6.57h9.18v-2.39h-11.51l-.91,11.79h2.33c.55-1.01,1.9-2.26,4-2.26,2.3,0,4.34,1.65,4.34,4.36,0,3.07-2.21,4.71-4.3,4.71-1.87,0-3.78-.81-4.18-2.86h-2.63Z"/>
          <polygon id="Path-11" data-name="Path" class="cls-5" points="336.81 683.53 336.81 685.94 347.07 685.94 347.07 686.1 338.63 704.06 341.52 704.06 349.86 686.03 349.86 683.53 336.81 683.53"/>
        </g>
        <g id="IronCore" class="cls-4">
          <text class="cls-3" transform="translate(239.24 665.23)"><tspan x="0" y="0">Iron</tspan></text>
          <g class="cls-4">
            <text class="cls-2" transform="translate(325.86 665.23)"><tspan x="0" y="0">Core</tspan></text>
          </g>
        </g>
      </g>
    </g>
  </g>
</svg>
