<?xml version="1.0" encoding="UTF-8" standalone="no"?>
<svg
   id="Layer_1"
   data-name="Layer 1"
   width="496.84"
   height="500.39001"
   viewBox="0 0 496.84 500.39001"
   version="1.1"
   sodipodi:docname="ironcore-stacked-black.svg"
   inkscape:version="1.4.3 (0d15f75, 2025-12-25)"
   inkscape:export-filename="ironcore-stacked-black.png"
   inkscape:export-xdpi="96"
   inkscape:export-ydpi="96"
   xmlns:inkscape="http://www.inkscape.org/namespaces/inkscape"
   xmlns:sodipodi="http://sodipodi.sourceforge.net/DTD/sodipodi-0.dtd"
   xmlns="http://www.w3.org/2000/svg"
   xmlns:svg="http://www.w3.org/2000/svg">
  <sodipodi:namedview
     id="namedview2"
     pagecolor="#ffffff"
     bordercolor="#000000"
     borderopacity="0.25"
     inkscape:showpageshadow="2"
     inkscape:pageopacity="0.0"
     inkscape:pagecheckerboard="0"
     inkscape:deskcolor="#d1d1d1"
     inkscape:zoom="0.26"
     inkscape:cx="248.07692"
     inkscape:cy="240.38462"
     inkscape:current-layer="Layer_1" />
  <defs
     id="defs1">
    <style
       id="style1">
      .cls-1 {
        mask: url(#mask);
      }

      .cls-2 {
        fill: #eee;
      }

      .cls-2, .cls-3 {
        font-family: Helvetica-Bold, Helvetica;
        font-size: 46.19px;
        font-weight: 700;
      }

      .cls-4, .cls-3 {
        isolation: isolate;
      }

      .cls-5, .cls-3 {
        fill: #fff;
      }

      .cls-6 {
        fill: #333;
      }
    </style>
    <mask
       id="mask"
       x="224.23"
       y="231.9"
       width="496.84"
       height="500.39"
       maskUnits="userSpaceOnUse">
      <g
         id="mask-1he0h8_xwz-2"
         data-name="mask-1he0h8 xwz-2">
        <rect
           id="path-1he0h8_xwz-1"
           data-name="path-1he0h8 xwz-1"
           class="cls-5"
           x="224.23"
           y="231.89999"
           width="496.84"
           height="500.39001"
           rx="8"
           ry="8" />
      </g>
    </mask>
  </defs>
  <g
     id="Page-1"
     transform="translate(-224.23,-231.89999)">
    <g
       id="ironcore">
      <g
         id="Path">
        <g
           id="Mask">
          <rect
             id="path-3ulh_37f8a-1"
             data-name="path-3ulh 37f8a-1"
             x="224.23"
             y="231.89999"
             width="496.84"
             height="500.39001"
             rx="8"
             ry="8" />
        </g>
        <g
           id="Clipped">
          <g
             class="cls-1"
             mask="url(#mask)"
             id="g1">
            <polygon
               id="Path-2"
               data-name="Path"
               class="cls-6"
               points="601.15,553.48 373.39,732.28 224.23,732.28 224.23,464.15 347.58,366.66 347.58,488.14 531.04,488.14 531.04,553.48 " />
          </g>
        </g>
      </g>
      <g
         id="Group">
        <g
           id="_1"
           data-name="+1">
          <polygon
             id="Path-3"
             data-name="Path"
             class="cls-5"
             points="673.47,268.9 667.25,268.9 667.25,277.9 658.63,277.9 658.63,283.99 667.25,283.99 667.25,293.23 673.47,293.23 673.47,283.99 682.12,283.99 682.12,277.9 673.47,277.9 " />
          <polygon
             id="Path-4"
             data-name="Path"
             class="cls-5"
             points="686.42,274.36 693.27,269.51 693.63,269.51 693.63,293.48 700.9,293.48 700.9,262.7 693.63,262.7 686.42,267.82 " />
        </g>
        <g
           id="Fe">
          <polygon
             id="Path-5"
             data-name="Path"
             class="cls-5"
             points="394.19,451.47 394.19,404.37 476.52,404.37 476.52,366.66 347.58,366.66 347.58,561.64 394.19,561.64 394.19,488.06 469.05,488.06 469.05,451.47 " />
          <path
             id="Shape"
             class="cls-5"
             d="m 558.66,564.44 c 11.2,0 20.87,-1.53 29.02,-4.58 8.15,-3.05 14.9,-7.11 20.24,-12.17 5.34,-5.06 9.43,-10.62 12.26,-16.68 2.83,-6.06 4.54,-12.09 5.13,-18.09 h -41.08 c -0.6,3.77 -2.07,7.01 -4.42,9.71 -2.35,2.7 -5.33,4.77 -8.93,6.19 -3.6,1.42 -7.66,2.14 -12.17,2.14 -7.78,0 -14.34,-2.77 -19.68,-8.31 -5.34,-5.54 -8.01,-13.17 -8.01,-22.88 v -5.12 h 95.3 v -15.34 c 0,-15.01 -2.86,-27.97 -8.57,-38.88 -5.71,-10.91 -13.76,-19.32 -24.14,-25.24 -10.38,-5.92 -22.62,-8.88 -36.7,-8.88 -13.29,0 -25.22,2.74 -35.77,8.23 -10.55,5.49 -18.89,13.59 -25.01,24.32 -6.12,10.73 -9.19,23.99 -9.19,39.79 v 12.18 c 0,16.16 3.01,29.71 9.03,40.63 6.02,10.92 14.43,19.15 25.21,24.68 10.78,5.53 23.27,8.29 37.45,8.29 z m -27.62,-96.05 v -0.15 c 0,-5.65 1.1,-10.7 3.3,-15.14 2.2,-4.44 5.27,-7.94 9.2,-10.5 3.94,-2.56 8.52,-3.84 13.76,-3.84 5.24,0 9.72,1.28 13.57,3.84 3.85,2.56 6.83,6.06 8.95,10.5 2.12,4.44 3.18,9.48 3.18,15.14 v 0.15 z" />
        </g>
        <g
           id="_26"
           data-name="26">
          <path
             id="Path-6"
             data-name="Path"
             class="cls-5"
             d="m 246.55,272.3 v -0.47 c 0,-2.05 1.46,-3.9 3.92,-3.9 2.24,0 3.92,1.62 3.92,3.7 0,2.35 -1.77,4.22 -3.36,5.86 l -10.97,11.43 v 4.56 h 22.04 v -5.86 h -12.09 v -0.34 l 6.16,-6.61 c 2.51,-2.66 5.46,-5.3 5.46,-9.79 0,-4.96 -4.32,-8.73 -11.02,-8.73 -7.59,0 -10.97,5.03 -10.97,9.74 v 0.41 h 6.92 z" />
          <path
             id="Shape-2"
             data-name="Shape"
             class="cls-5"
             d="m 290.6,270.34 c -0.2,-3.72 -3.67,-8.16 -10.84,-8.16 -7.9,0 -12.76,5.5 -12.76,16.44 0,4.42 0.87,7.74 2.33,10.15 2.26,3.74 5.98,5.28 10.17,5.28 6.76,0 11.73,-4.01 11.73,-10.92 0,-6.54 -4.73,-9.86 -9.63,-9.86 -3.92,0 -6.16,1.98 -7.12,4.06 h -0.45 c -0.2,-4.94 1.81,-9.47 5.69,-9.47 2.17,0 3.54,1.17 4.01,2.48 z m -15.79,13.08 c 0,-2.84 1.88,-4.85 4.7,-4.85 2.6,0 4.66,1.76 4.66,4.85 0,3.09 -1.95,4.96 -4.68,4.96 -2.73,0 -4.68,-1.92 -4.68,-4.96 z" />
        </g>
        <g
           id="_55.8457"
           data-name="55.8457">
          <path
             id="Path-7"
             data-name="Path"
             class="cls-5"
             d="m 239.24,699.28 c 0.19,3.01 2.88,5.2 6.64,5.2 4.3,0 7.23,-2.89 7.23,-7.13 0,-4.24 -2.96,-6.62 -6.51,-6.62 -2.25,0 -3.67,1.1 -4.09,1.76 h -0.15 l 0.55,-6.57 h 9.18 v -2.39 h -11.51 l -0.91,11.79 H 242 c 0.55,-1.01 1.9,-2.26 4,-2.26 2.3,0 4.34,1.65 4.34,4.36 0,3.07 -2.21,4.71 -4.3,4.71 -1.87,0 -3.78,-0.81 -4.18,-2.86 h -2.63 z" />
          <path
             id="Path-8"
             data-name="Path"
             class="cls-5"
             d="m 257.12,699.28 c 0.19,3.01 2.88,5.2 6.64,5.2 4.3,0 7.23,-2.89 7.23,-7.13 0,-4.24 -2.96,-6.62 -6.51,-6.62 -2.25,0 -3.67,1.1 -4.09,1.76 h -0.15 l 0.55,-6.57 h 9.18 v -2.39 h -11.51 l -0.91,11.79 h 2.33 c 0.55,-1.01 1.9,-2.26 4,-2.26 2.3,0 4.34,1.65 4.34,4.36 0,3.07 -2.21,4.71 -4.3,4.71 -1.87,0 -3.78,-0.81 -4.18,-2.86 h -2.63 z" />
          <path
             id="Path-9"
             data-name="Path"
             class="cls-5"
             d="m 274.63,702.21 c 0,1.22 0.96,2.12 2.13,2.12 1.24,0 2.18,-0.9 2.18,-2.12 0,-1.28 -0.94,-2.18 -2.18,-2.18 -1.24,0 -2.13,0.9 -2.13,2.18 z" />
          <path
             id="Shape-3"
             data-name="Shape"
             class="cls-5"
             d="m 290.43,704.48 c 4.25,0 7.32,-2.47 7.32,-6.04 0,-3.19 -2.39,-4.72 -4.12,-5.14 v -0.14 c 1.37,-0.45 3.34,-1.83 3.34,-4.57 0,-3.17 -2.72,-5.47 -6.46,-5.47 -3.74,0 -6.46,2.3 -6.46,5.47 0,2.69 1.88,4.09 3.31,4.57 v 0.14 c -1.7,0.42 -4.12,1.94 -4.12,5.17 0,3.58 2.97,6.01 7.2,6.01 z m 0.07,-12.24 c -2.19,0 -3.82,-1.41 -3.82,-3.44 0,-2.03 1.63,-3.38 3.82,-3.38 2.19,0 3.79,1.35 3.79,3.38 0,2.03 -1.58,3.44 -3.79,3.44 z m 0,9.97 c -2.6,0 -4.58,-1.56 -4.58,-3.86 0,-2.3 1.99,-3.89 4.58,-3.89 2.59,0 4.55,1.59 4.55,3.89 0,2.3 -1.96,3.86 -4.55,3.86 z" />
          <path
             id="Shape-4"
             data-name="Shape"
             class="cls-5"
             d="m 309.51,683.53 c -2.9,4.63 -5.93,9.26 -8.46,13.89 v 2.42 h 9.9 v 4.21 h 2.63 v -4.21 h 2.64 v -2.41 h -2.64 v -13.91 h -4.06 z m -5.75,13.91 v -0.14 c 2.13,-3.77 4.66,-7.82 7.03,-11.4 h 0.15 v 11.53 h -7.18 z" />
          <path
             id="Path-10"
             data-name="Path"
             class="cls-5"
             d="m 319.75,699.28 c 0.19,3.01 2.88,5.2 6.64,5.2 4.3,0 7.23,-2.89 7.23,-7.13 0,-4.24 -2.96,-6.62 -6.51,-6.62 -2.25,0 -3.67,1.1 -4.09,1.76 h -0.15 l 0.55,-6.57 h 9.18 v -2.39 h -11.51 l -0.91,11.79 h 2.33 c 0.55,-1.01 1.9,-2.26 4,-2.26 2.3,0 4.34,1.65 4.34,4.36 0,3.07 -2.21,4.71 -4.3,4.71 -1.87,0 -3.78,-0.81 -4.18,-2.86 h -2.63 z" />
          <polygon
             id="Path-11"
             data-name="Path"
             class="cls-5"
             points="338.63,704.06 341.52,704.06 349.86,686.03 349.86,683.53 336.81,683.53 336.81,685.94 347.07,685.94 347.07,686.1 " />
        </g>
        <g
           id="IronCore"
           class="cls-4">
          <text
             class="cls-3"
             transform="translate(239.24,665.23)"
             id="text1"><tspan
               x="0"
               y="0"
               id="tspan1">Iron</tspan></text>
          <g
             class="cls-4"
             id="g2">
            <text
               class="cls-2"
               transform="translate(325.86,665.23)"
               id="text2"><tspan
                 x="0"
                 y="0"
                 id="tspan2">Core</tspan></text>
          </g>
        </g>
      </g>
    </g>
  </g>
</svg>
