<?xml version="1.0" encoding="UTF-8" standalone="no"?>
<svg
   id="a"
   data-name="Layer 1"
   width="778.92999"
   height="185.73"
   viewBox="0 0 778.93 185.72999"
   version="1.1"
   sodipodi:docname="platform-mesh-horizontal-color.svg"
   inkscape:version="1.4.3 (0d15f75, 2025-12-25)"
   inkscape:export-filename="platform-mesh-horizontal-color.png"
   inkscape:export-xdpi="96"
   inkscape:export-ydpi="96"
   xmlns:inkscape="http://www.inkscape.org/namespaces/inkscape"
   xmlns:sodipodi="http://sodipodi.sourceforge.net/DTD/sodipodi-0.dtd"
   xmlns="http://www.w3.org/2000/svg"
   xmlns:svg="http://www.w3.org/2000/svg">
  <defs
     id="defs48" />
  <sodipodi:namedview
     id="namedview48"
     pagecolor="#ffffff"
     bordercolor="#000000"
     borderopacity="0.25"
     inkscape:showpageshadow="2"
     inkscape:pageopacity="0.0"
     inkscape:pagecheckerboard="0"
     inkscape:deskcolor="#d1d1d1"
     inkscape:zoom="0.084448485"
     inkscape:cx="396.69154"
     inkscape:cy="76.970001"
     inkscape:current-layer="a" />
  <g
     id="g36"
     transform="translate(-110.87,-67.15)">
    <path
       d="m 238.9,120.89 c 4.33,7.49 7.54,15.82 9.58,24.93 0.5,2.24 0.91,4.47 1.22,6.69 2.55,0.77 4.56,2.76 5.36,5.29 12.14,-1.76 25.41,-3.5 31.06,-4.24 0.07,-1.84 0.63,-3.55 1.55,-5.01 -5.79,-4.97 -13.8,-10.8 -23.04,-16.09 -6.88,-3.94 -15.75,-8.31 -25.72,-11.57 z"
       fill="#009dff"
       id="path1" />
    <path
       d="m 171.5,82.2 c -3.58,-0.27 -7.09,-0.28 -10.42,-0.04 -4.24,0.31 -8.07,1.04 -11.29,2.11 -0.14,0.1 -0.28,0.2 -0.42,0.3 6.21,-1.58 12.71,-2.42 19.41,-2.42 0.91,0 1.81,0.02 2.72,0.05 z"
       fill="#0582fa"
       id="path2" />
    <path
       d="m 176.14,239.23 c -0.01,-0.06 -0.03,-0.13 -0.04,-0.19 -2.41,0.22 -4.85,0.34 -7.31,0.34 -5.54,0 -10.95,-0.58 -16.17,-1.67 0.46,0.3 0.92,0.6 1.39,0.89 6.94,1.42 14.41,1.63 22.14,0.63 z"
       fill="#0582fa"
       id="path3" />
    <path
       d="m 207.02,82.22 c 3.1,0.4 7.08,1.06 11.69,2.14 10.08,2.37 25.11,7.32 39.45,17.4 11.01,7.74 20.05,17.15 26.89,27.97 3.49,5.52 5.9,10.68 7.4,14.83 0.8,-0.32 1.64,-0.54 2.53,-0.64 -3.84,-21.98 -15.41,-41.3 -31.81,-55.06 -7.55,-2.54 -18.76,-5.12 -31.31,-6.33 -7.03,-0.67 -15.65,-1.02 -24.84,-0.32 z"
       fill="#009dff"
       id="path4" />
    <path
       d="m 187.81,82.73 c 0.89,-3.9 4.38,-6.81 8.55,-6.81 3.23,0 6.05,1.75 7.57,4.34 10.43,-1.05 20.27,-0.69 28.14,0.06 7.98,0.76 16.08,2.15 23.44,4 0.97,0.24 1.92,0.5 2.85,0.75 -15.37,-11.27 -34.33,-17.92 -54.85,-17.92 -17.64,0 -34.13,4.92 -48.17,13.46 1.77,-0.3 3.63,-0.53 5.59,-0.67 8.38,-0.61 17.81,0.37 26.88,2.78 z"
       fill="#009dff"
       id="path5" />
    <path
       d="m 224.66,216.06 c 3.26,-3.08 6.22,-6.37 8.87,-9.85 -0.14,-0.08 -0.28,-0.16 -0.41,-0.25 -2.53,3.6 -5.36,6.98 -8.45,10.1 z"
       fill="#0582fa"
       id="path6" />
    <path
       d="m 250.97,167.41 c -0.21,0.1 -0.42,0.2 -0.64,0.28 -0.43,7.09 -1.89,13.99 -4.39,20.67 -2.25,6.02 -5.35,11.81 -9.21,17.21 8.83,5.39 16.16,10.78 21.88,16.09 1.8,-1.97 4.37,-3.22 7.23,-3.28 -0.35,-6.5 -1.3,-16.52 -3.87,-26.7 -2.65,-10.47 -6.34,-18.63 -11,-24.28 z"
       fill="#009dff"
       id="path7" />
    <path
       d="m 247.38,152.16 c 0,0 0.02,0 0.03,0 -0.29,-1.94 -0.65,-3.9 -1.09,-5.86 -0.67,-2.99 -1.47,-5.89 -2.39,-8.7 1.44,4.69 2.46,9.56 3,14.58 0.15,0 0.29,-0.01 0.44,-0.01 z"
       fill="#0582fa"
       id="path8" />
    <path
       d="m 247.05,168.25 c -1.25,13.19 -5.75,25.42 -12.69,35.9 0,0 0,0 0,0 0.16,0.1 0.32,0.19 0.48,0.29 3.79,-5.29 6.83,-10.95 9.03,-16.84 2.34,-6.26 3.74,-12.73 4.2,-19.37 -0.23,0.02 -0.46,0.03 -0.69,0.03 -0.11,0 -0.22,0 -0.33,0 z"
       fill="#0582fa"
       id="path9" />
    <path
       d="m 216.69,243.56 c -3.51,0 -6.99,-0.18 -10.45,-0.54 -5.34,-0.55 -10.61,-1.54 -15.79,-2.95 -1.03,2.89 -3.79,4.97 -7.03,4.97 -2.75,0 -5.14,-1.48 -6.44,-3.69 -3.47,0.47 -6.9,0.71 -10.26,0.71 -2.55,0 -5.05,-0.14 -7.51,-0.41 13.17,7.16 28.26,11.23 44.3,11.23 20.36,0 39.19,-6.56 54.5,-17.67 -4.76,2.03 -12.56,4.85 -22.53,6.65 -6.27,1.13 -12.56,1.7 -18.79,1.7 z"
       fill="#009dff"
       id="path10" />
    <path
       d="m 272.19,173.82 c -5.8,-4.34 -11.81,-7.68 -17.69,-9.86 -0.44,0.83 -1.01,1.57 -1.7,2.19 4.81,5.91 8.61,14.3 11.32,24.99 2.66,10.51 3.61,20.84 3.95,27.43 1.99,0.4 3.77,1.4 5.15,2.79 7.37,-8.37 13.26,-18.08 17.25,-28.72 -4.63,-6.79 -11.08,-13.44 -18.29,-18.83 z"
       fill="#009dff"
       id="path11" />
    <path
       d="m 296.19,164.01 c -4.94,0 -9.04,-3.55 -9.91,-8.24 -5.71,0.74 -18.84,2.46 -30.86,4.21 0,0.08 0,0.15 0,0.23 0,0.57 -0.06,1.13 -0.18,1.68 6.09,2.25 12.29,5.69 18.26,10.16 6.94,5.19 13.19,11.52 17.88,18.05 2.82,-8.24 4.51,-17 4.9,-26.1 -0.03,0 -0.07,0 -0.1,0 z"
       fill="#009dff"
       id="path12" />
    <path
       d="m 204.11,88.81 c 8.12,3.97 15.48,9.11 21.71,15.22 4.32,4.24 8.11,8.91 11.34,13.99 11.12,3.37 21.02,8.21 28.56,12.52 9.32,5.33 17.41,11.22 23.32,16.28 0.44,-0.44 0.92,-0.84 1.43,-1.2 -1.26,-3.58 -3.48,-8.66 -7.3,-14.71 -6.59,-10.42 -15.68,-19.88 -26.29,-27.34 -14.03,-9.86 -28.74,-14.71 -38.62,-17.04 -5.37,-1.27 -9.92,-1.94 -13.15,-2.31 0,0.16 0.01,0.32 0.01,0.48 0,1.48 -0.37,2.88 -1.02,4.11 z"
       fill="#009dff"
       id="path13" />
    <path
       d="m 223.32,220.26 c -9.17,7.91 -20.28,14.09 -31.87,17.8 4.91,1.31 9.91,2.23 14.97,2.76 9.39,0.98 19.01,0.6 28.59,-1.12 9.16,-1.64 17,-4.35 22.14,-6.52 -0.75,-1.41 -1.17,-3.01 -1.17,-4.72 0,-1.82 0.48,-3.52 1.32,-4.99 -5.71,-5.33 -13.09,-10.75 -21.87,-16.11 -3.5,4.64 -7.56,8.97 -12.11,12.89 z"
       fill="#009dff"
       id="path14" />
    <path
       d="m 212.12,115.98 c -9.66,-0.25 -19.21,0.83 -28.61,3.22 0,0.23 -0.02,0.46 -0.04,0.68 7.12,1.01 18.57,4.17 30.47,9.6 17.9,8.18 26.61,16.73 30.84,23.12 0.68,-0.23 1.41,-0.38 2.16,-0.42 -0.54,-5.02 -1.56,-9.89 -3,-14.58 -2.09,-6.36 -4.83,-12.27 -8.2,-17.7 -7.45,-2.2 -15.44,-3.71 -23.61,-3.92 z"
       fill="#0582fa"
       id="path15" />
    <path
       d="m 242.78,153.6 c -2.63,-3.9 -6.41,-7.72 -11.29,-11.39 -5.13,-3.86 -11.35,-7.46 -18.48,-10.72 -11.41,-5.22 -23.08,-8.51 -30.16,-9.47 -0.04,0.07 -0.07,0.15 -0.11,0.22 1.29,1.45 2.51,2.96 3.64,4.54 4.93,6.87 8.15,14.76 9.59,23.49 14.37,0.5 30.07,2.27 44.1,6.58 0.6,-1.31 1.55,-2.43 2.72,-3.24 z"
       fill="#0582fa"
       id="path16" />
    <path
       d="m 244.17,167.6 c -4.34,4.21 -12.07,8.83 -21.07,12.51 -9.4,3.85 -18.31,5.92 -25.18,5.92 -0.06,0 -0.11,0 -0.17,0 0,0 0,0.01 0,0.02 13.48,5.64 26.09,11.88 36.6,18.11 6.95,-10.48 11.45,-22.71 12.69,-35.9 -1.02,-0.04 -1.99,-0.27 -2.87,-0.66 z"
       fill="#0582fa"
       id="path17" />
    <path
       d="m 142.78,102.05 c 2.42,0.27 4.83,0.68 7.23,1.24 7.76,-6.96 16.6,-12.48 26.29,-16.45 2.57,-1.05 5.18,-1.96 7.8,-2.75 -4.21,-0.96 -8.46,-1.6 -12.61,-1.9 -0.9,-0.03 -1.81,-0.05 -2.72,-0.05 -6.7,0 -13.2,0.84 -19.41,2.42 -6.92,4.97 -13.13,10.88 -18.44,17.52 3.57,-0.49 7.59,-0.51 11.84,-0.04 z"
       fill="#0582fa"
       id="path18" />
    <path
       d="m 150.31,106.02 c 3.16,0.62 6.23,1.5 9.18,2.63 -2.89,-1.19 -5.85,-2.17 -8.85,-2.93 -0.11,0.1 -0.22,0.2 -0.33,0.3 z"
       fill="#1140e5"
       id="path19" />
    <path
       d="m 197.34,188.27 c -0.68,2.03 -2.15,3.69 -4.04,4.64 1.76,5.13 2.52,11.59 2.11,18.25 -0.5,8.14 -2.69,15.8 -6.2,21.74 0.71,0.88 1.23,1.93 1.48,3.07 11.33,-3.62 22.21,-9.66 31.17,-17.39 0.95,-0.82 1.88,-1.66 2.79,-2.51 3.09,-3.12 5.92,-6.5 8.45,-10.1 -10.25,-6.07 -22.3,-12.05 -35.76,-17.7 z"
       fill="#0582fa"
       id="path20" />
    <path
       d="m 172.91,113.5 c 1.09,-0.74 2.4,-1.18 3.82,-1.18 3.01,0 5.55,1.96 6.44,4.67 9.52,-2.4 19.21,-3.48 29,-3.23 7.48,0.19 14.8,1.45 21.71,3.32 -2.82,-4.13 -6.03,-7.96 -9.62,-11.47 -6.15,-6.02 -13.43,-11.09 -21.46,-14.97 -1.6,1.74 -3.9,2.83 -6.46,2.83 -4.61,0 -8.38,-3.55 -8.74,-8.06 -3.53,0.93 -7.03,2.08 -10.46,3.48 -9,3.68 -17.23,8.73 -24.53,15.06 5.07,1.4 10.03,3.42 14.66,6.01 1.97,1.1 3.85,2.28 5.64,3.54 z"
       fill="#0582fa"
       id="path21" />
    <path
       d="m 160.66,212.43 c 6.6,-2.59 12.6,-6.36 17.58,-11.06 2.81,-2.66 5.28,-5.58 7.38,-8.73 -0.06,-0.04 -0.12,-0.08 -0.19,-0.11 -6.12,8.82 -14.71,15.79 -24.78,19.9 z"
       fill="#1140e5"
       id="path22" />
    <path
       d="m 176.1,239.04 c -0.09,-0.47 -0.14,-0.95 -0.14,-1.45 0,-0.87 0.15,-1.7 0.42,-2.47 -1.64,-0.72 -3.26,-1.48 -4.88,-2.28 -7.01,-3.5 -13.78,-8.61 -20.14,-15.18 -0.05,-0.05 -0.1,-0.11 -0.16,-0.16 -4.22,0.85 -8.59,1.28 -13,1.28 -2.29,0 -4.6,-0.12 -6.9,-0.35 6.05,7.47 13.24,13.99 21.3,19.29 5.22,1.09 10.63,1.67 16.17,1.67 2.47,0 4.9,-0.11 7.31,-0.34 z"
       fill="#0582fa"
       id="path23" />
    <path
       d="m 139.13,216.55 c -3.43,-0.03 -6.79,-0.36 -10.05,-0.98 0.1,0.14 0.21,0.27 0.31,0.41 3.25,0.43 6.51,0.62 9.74,0.58 z"
       fill="#1140e5"
       id="path24" />
    <path
       d="m 183.42,230.13 c 1.53,0 2.95,0.46 4.13,1.25 6.56,-11.43 7.16,-27.58 3.66,-37.76 -0.48,0.09 -0.98,0.14 -1.49,0.14 -0.69,0 -1.37,-0.09 -2.01,-0.25 -2.25,3.42 -4.91,6.59 -7.95,9.47 -6.54,6.18 -14.78,10.81 -23.82,13.38 -0.72,0.2 -1.44,0.39 -2.17,0.57 5.36,5.41 11.61,10.38 18.72,13.93 1.63,0.81 3.27,1.58 4.92,2.3 1.36,-1.84 3.54,-3.03 6,-3.03 z"
       fill="#0582fa"
       id="path25" />
    <path
       d="m 147.58,105.56 c 0.08,-0.08 0.16,-0.16 0.24,-0.23 0.07,-0.07 0.14,-0.13 0.21,-0.2 -1.83,-0.38 -3.66,-0.67 -5.49,-0.88 -5.04,-0.56 -9.69,-0.4 -13.6,0.42 -0.38,0.51 -0.76,1.03 -1.13,1.56 3.79,-0.81 7.73,-1.25 11.76,-1.25 2.72,0 5.39,0.2 8.01,0.57 z"
       fill="#1140e5"
       id="path26" />
    <path
       d="m 197.54,183.81 c 6.61,0.09 15.38,-1.93 24.73,-5.76 8.37,-3.42 15.77,-7.79 19.96,-11.67 -1.77,-1.48 -2.9,-3.7 -2.9,-6.18 0,-0.42 0.03,-0.84 0.1,-1.24 -13.68,-4.21 -29.03,-5.96 -43.13,-6.47 0.06,0.44 0.11,0.87 0.16,1.31 0.97,8.99 0.24,17.54 -2.08,25.33 1.56,1.11 2.71,2.76 3.17,4.67 z"
       fill="#0582fa"
       id="path27" />
    <path
       d="m 189.72,177.66 c 0.93,0 1.82,0.16 2.65,0.45 2.15,-7.41 2.81,-15.53 1.89,-24.06 -0.06,-0.54 -0.13,-1.09 -0.2,-1.62 -7.57,-0.21 -14.73,-0.07 -21,0.22 -19.27,0.89 -36.28,3.5 -44.88,5.53 0.15,0.68 0.23,1.39 0.23,2.12 0,1.76 -0.45,3.41 -1.25,4.84 14.66,1.84 35.47,7.51 56.47,15.32 1.48,-1.71 3.66,-2.8 6.1,-2.8 z"
       fill="#1140e5"
       id="path28" />
    <path
       d="m 151.34,130.3 c 6.2,-3.68 12.51,-6.74 18.91,-9.2 -0.19,-0.63 -0.3,-1.3 -0.3,-1.99 0,-1.51 0.5,-2.91 1.33,-4.04 -1.62,-1.13 -3.32,-2.19 -5.09,-3.17 -2.17,-1.21 -4.42,-2.29 -6.71,-3.24 -2.95,-1.13 -6.02,-2.01 -9.18,-2.63 -0.31,0.29 -0.62,0.58 -0.93,0.87 -6.46,6.18 -12.14,13.43 -16.85,21.55 -5.68,9.77 -8.6,18.49 -9.84,22.82 0.38,0.18 0.75,0.39 1.1,0.61 5.85,-5.98 15.09,-14.18 27.55,-21.58 z"
       fill="#1140e5"
       id="path29" />
    <path
       d="m 193.71,150.2 c -1.42,-8.22 -4.49,-15.65 -9.13,-22.13 -1,-1.39 -2.07,-2.73 -3.2,-4.03 -1.21,1.14 -2.85,1.84 -4.64,1.84 -2.25,0 -4.25,-1.1 -5.48,-2.8 -6.35,2.43 -12.62,5.47 -18.77,9.12 -12.17,7.22 -21.2,15.21 -26.96,21.07 0.8,0.81 1.46,1.75 1.94,2.79 8.33,-1.99 25.04,-4.7 45.49,-5.64 6.21,-0.29 13.28,-0.43 20.76,-0.23 z"
       fill="#1140e5"
       id="path30" />
    <path
       d="m 160.66,212.43 c 10.07,-4.11 18.66,-11.08 24.78,-19.9 -2.26,-1.42 -3.77,-3.94 -3.77,-6.82 0,-1.19 0.26,-2.32 0.73,-3.34 -21.3,-7.9 -42.33,-13.55 -56.76,-15.18 -0.37,0.39 -0.77,0.75 -1.19,1.07 2.6,7.73 7.38,18.47 13.69,28.59 3.47,5.57 8.11,12.1 13.85,18.22 1.13,-0.25 2.25,-0.53 3.35,-0.85 1.81,-0.52 3.59,-1.12 5.32,-1.8 z"
       fill="#1140e5"
       id="path31" />
    <path
       d="m 118.4,150.3 c 0.75,0 1.48,0.09 2.18,0.24 1.28,-4.47 4.22,-13.19 10,-23.14 4.76,-8.21 10.49,-15.56 17,-21.84 -2.62,-0.38 -5.29,-0.57 -8.01,-0.57 -4.04,0 -7.97,0.43 -11.76,1.25 -9.66,13.57 -15.76,29.86 -16.94,47.49 1.83,-2.1 4.53,-3.43 7.53,-3.43 z"
       fill="#1140e5"
       id="path32" />
    <path
       d="m 149.42,215.58 c -4.66,-5.11 -9.08,-11 -13.17,-17.56 -6.27,-10.07 -11.07,-20.76 -13.75,-28.61 -1.25,0.56 -2.64,0.88 -4.1,0.88 -2.98,0 -5.66,-1.31 -7.49,-3.38 1.33,18.17 7.89,34.89 18.18,48.65 3.26,0.62 6.61,0.96 10.05,0.98 3.48,-0.05 6.93,-0.37 10.29,-0.97 z"
       fill="#1140e5"
       id="path33" />
    <path
       d="m 197.76,186.04 c 0,0 0,-0.01 0,-0.02 -0.02,0 -0.03,0 -0.05,0 0.02,0 0.03,0.01 0.05,0.02 z"
       fill="#ffffff"
       id="path34" />
    <path
       d="m 155.34,214.22 c -1.1,0.31 -2.22,0.6 -3.35,0.85 0.02,0.03 0.05,0.05 0.07,0.08 2.97,-0.68 5.84,-1.6 8.6,-2.73 -1.74,0.68 -3.51,1.28 -5.32,1.8 z"
       fill="#1140e5"
       id="path35" />
    <path
       d="m 139.13,216.55 c 0.15,0 0.29,0 0.44,0 3.39,0 6.71,-0.3 9.93,-0.88 -0.03,-0.03 -0.05,-0.06 -0.08,-0.09 -3.36,0.6 -6.81,0.92 -10.29,0.97 z"
       fill="#1140e5"
       id="path36" />
  </g>
  <g
     id="g44"
     transform="translate(-110.87,-67.15)">
    <path
       d="m 327.39,189.2 v -52.4 h 15.76 c 3.89,0 7.35,0.49 10.36,1.48 3.01,0.99 5.37,2.64 7.08,4.96 1.71,2.32 2.56,5.43 2.56,9.32 0,3.89 -0.84,6.91 -2.52,9.36 -1.68,2.45 -4.01,4.28 -7,5.48 -2.99,1.2 -6.37,1.8 -10.16,1.8 h -8.08 v 20 z m 8,-26.48 h 7.28 c 4.27,0 7.43,-0.83 9.48,-2.48 2.05,-1.65 3.08,-4.21 3.08,-7.68 0,-3.47 -1.08,-5.96 -3.24,-7.32 -2.16,-1.36 -5.37,-2.04 -9.64,-2.04 h -6.96 z"
       id="path37" />
    <path
       d="m 373.31,189.2 v -52.4 h 8 v 45.6 h 22.32 v 6.8 z"
       id="path38" />
    <path
       d="m 405.95,189.2 17.44,-52.4 h 9.2 l 17.44,52.4 h -8.48 l -8.56,-28.56 c -0.91,-2.88 -1.76,-5.77 -2.56,-8.68 -0.8,-2.91 -1.6,-5.85 -2.4,-8.84 h -0.32 c -0.75,2.99 -1.53,5.93 -2.36,8.84 -0.83,2.91 -1.7,5.8 -2.6,8.68 l -8.64,28.56 z m 9.76,-15.04 v -6.32 h 24.4 v 6.32 z"
       id="path39" />
    <path
       d="m 462.99,189.2 v -45.6 h -15.52 v -6.8 h 38.96 v 6.8 h -15.44 v 45.6 z"
       id="path40" />
    <path
       d="m 495.47,189.2 v -52.4 h 30.96 v 6.72 h -22.96 v 16.24 h 19.52 v 6.8 h -19.52 v 22.64 z"
       id="path41" />
    <path
       d="m 554.75,190.16 c -4.48,0 -8.43,-1.11 -11.84,-3.32 -3.41,-2.21 -6.09,-5.37 -8.04,-9.48 -1.95,-4.11 -2.92,-8.96 -2.92,-14.56 0,-5.6 0.97,-10.49 2.92,-14.52 1.95,-4.03 4.62,-7.11 8.04,-9.24 3.41,-2.13 7.36,-3.2 11.84,-3.2 4.48,0 8.43,1.07 11.84,3.2 3.41,2.13 6.09,5.21 8.04,9.24 1.95,4.03 2.92,8.87 2.92,14.52 0,5.65 -0.97,10.45 -2.92,14.56 -1.95,4.11 -4.63,7.27 -8.04,9.48 -3.41,2.21 -7.36,3.32 -11.84,3.32 z m 0,-7.04 c 2.93,0 5.48,-0.83 7.64,-2.48 2.16,-1.65 3.84,-4.01 5.04,-7.08 1.2,-3.07 1.8,-6.65 1.8,-10.76 0,-4.11 -0.6,-7.72 -1.8,-10.68 -1.2,-2.96 -2.88,-5.25 -5.04,-6.88 -2.16,-1.63 -4.71,-2.44 -7.64,-2.44 -2.93,0 -5.49,0.81 -7.68,2.44 -2.19,1.63 -3.88,3.92 -5.08,6.88 -1.2,2.96 -1.8,6.52 -1.8,10.68 0,4.16 0.6,7.69 1.8,10.76 1.2,3.07 2.89,5.43 5.08,7.08 2.19,1.65 4.75,2.48 7.68,2.48 z"
       id="path42" />
    <path
       d="m 588.35,189.2 v -52.4 h 17.04 c 3.62,0 6.85,0.47 9.68,1.4 2.83,0.93 5.07,2.52 6.72,4.76 1.65,2.24 2.48,5.23 2.48,8.96 0,3.73 -0.83,6.61 -2.48,8.96 -1.65,2.35 -3.89,4.11 -6.72,5.28 -2.83,1.17 -6.05,1.76 -9.68,1.76 h -9.04 v 21.28 z m 8,-27.76 h 8.08 c 3.89,0 6.85,-0.79 8.88,-2.36 2.03,-1.57 3.04,-3.96 3.04,-7.16 0,-3.2 -1.01,-5.45 -3.04,-6.76 -2.03,-1.31 -4.99,-1.96 -8.88,-1.96 h -8.08 z m 20.72,27.76 -13.2,-23.44 6,-4.56 16.16,28 z"
       id="path43" />
    <path
       d="m 634.83,189.2 v -52.4 h 9.84 l 9.36,26.8 c 0.64,1.71 1.23,3.41 1.76,5.12 0.53,1.71 1.04,3.52 1.52,5.44 h 0.32 c 0.53,-1.92 1.05,-3.73 1.56,-5.44 0.51,-1.71 1.03,-3.41 1.56,-5.12 l 9.44,-26.8 h 9.76 v 52.4 h -7.44 v -26.32 c 0,-1.6 0.05,-3.41 0.16,-5.44 0.11,-2.03 0.25,-4.04 0.44,-6.04 0.19,-2 0.39,-3.8 0.6,-5.4 h -0.32 l -4.16,13.04 -9.12,25.12 h -5.6 L 645.39,159.04 641.31,146 h -0.32 c 0.21,1.6 0.4,3.4 0.56,5.4 0.16,2 0.29,4.01 0.4,6.04 0.11,2.03 0.16,3.84 0.16,5.44 v 26.32 z"
       id="path44" />
  </g>
  <g
     id="g48"
     transform="translate(-110.87,-67.15)">
    <path
       d="m 706.44,190.02 v -52.4 h 9.84 l 9.36,26.8 c 0.64,1.71 1.23,3.41 1.76,5.12 0.53,1.71 1.04,3.52 1.52,5.44 h 0.32 c 0.53,-1.92 1.05,-3.73 1.56,-5.44 0.51,-1.71 1.03,-3.41 1.56,-5.12 l 9.44,-26.8 h 9.76 v 52.4 h -7.44 V 163.7 c 0,-1.6 0.05,-3.41 0.16,-5.44 0.11,-2.03 0.25,-4.04 0.44,-6.04 0.19,-2 0.39,-3.8 0.6,-5.4 H 745 l -4.16,13.04 -9.12,25.12 h -5.6 L 717,159.86 712.92,146.82 h -0.32 c 0.21,1.6 0.4,3.4 0.56,5.4 0.16,2 0.29,4.01 0.4,6.04 0.11,2.03 0.16,3.84 0.16,5.44 v 26.32 z"
       id="path45" />
    <path
       d="m 765.32,190.02 v -52.4 h 30.88 v 6.72 h -22.88 v 14.96 h 19.36 v 6.72 H 773.32 V 183.3 H 797 v 6.72 z"
       id="path46" />
    <path
       d="m 822.84,190.98 c -3.68,0 -7.09,-0.68 -10.24,-2.04 -3.15,-1.36 -5.95,-3.27 -8.4,-5.72 l 4.4,-5.2 c 1.87,1.87 4.07,3.33 6.6,4.4 2.53,1.07 5.13,1.6 7.8,1.6 3.2,0 5.67,-0.71 7.4,-2.12 1.73,-1.41 2.6,-3.27 2.6,-5.56 0,-1.6 -0.36,-2.89 -1.08,-3.88 -0.72,-0.99 -1.72,-1.81 -3,-2.48 -1.28,-0.67 -2.72,-1.35 -4.32,-2.04 l -7.36,-3.2 c -1.71,-0.75 -3.37,-1.71 -5,-2.88 -1.63,-1.17 -2.97,-2.64 -4.04,-4.4 -1.07,-1.76 -1.6,-3.92 -1.6,-6.48 0,-2.72 0.73,-5.16 2.2,-7.32 1.47,-2.16 3.48,-3.87 6.04,-5.12 2.56,-1.25 5.52,-1.88 8.88,-1.88 3.15,0 6.08,0.59 8.8,1.76 2.72,1.17 5.04,2.72 6.96,4.64 l -4.24,5.2 c -1.65,-1.44 -3.45,-2.57 -5.4,-3.4 -1.95,-0.83 -3.99,-1.24 -6.12,-1.24 -2.72,0 -4.91,0.61 -6.56,1.84 -1.65,1.23 -2.48,2.91 -2.48,5.04 0,1.55 0.41,2.8 1.24,3.76 0.83,0.96 1.91,1.76 3.24,2.4 1.33,0.64 2.69,1.28 4.08,1.92 l 7.28,3.12 c 2.08,0.85 3.92,1.88 5.52,3.08 1.6,1.2 2.85,2.68 3.76,4.44 0.91,1.76 1.36,3.92 1.36,6.48 0,2.83 -0.72,5.4 -2.16,7.72 -1.44,2.32 -3.53,4.16 -6.28,5.52 -2.75,1.36 -6.04,2.04 -9.88,2.04 z"
       id="path47" />
    <path
       d="m 851,190.02 v -52.4 h 8 v 21.52 h 22.8 v -21.52 h 8 v 52.4 h -8 V 166.1 H 859 v 23.92 z"
       id="path48" />
  </g>
</svg>
