<?xml version="1.0" encoding="UTF-8"?>
<svg id="a" data-name="Layer 1" xmlns="http://www.w3.org/2000/svg" width="1000" height="1163.74" xmlns:xlink="http://www.w3.org/1999/xlink" viewBox="0 0 1000 1163.74">
  <defs>
    <linearGradient id="f" x1="1677.76" y1="-190.53" x2="1677.76" y2="162.54" gradientTransform="translate(-1345.51 244.6) scale(1.1 1)" gradientUnits="userSpaceOnUse">
      <stop offset="0" stop-color="#fff"/>
      <stop offset="1" stop-color="#fff" stop-opacity="0"/>
    </linearGradient>
    <linearGradient id="h" x1="368" y1="255.11" x2="368" y2="391.17" gradientTransform="translate(134.6 208.7)" gradientUnits="userSpaceOnUse">
      <stop offset="0" stop-color="#fff"/>
      <stop offset="1" stop-color="#bebebe"/>
    </linearGradient>
    <radialGradient id="n" cx="553.61" cy="-2358.38" fx="553.61" fy="-2358.38" r="162.7" gradientTransform="translate(0 -2152.4) scale(1 -1)" gradientUnits="userSpaceOnUse">
      <stop offset="0" stop-color="#dfbe00"/>
      <stop offset=".8" stop-color="#deaf00"/>
      <stop offset="1" stop-color="#dea101"/>
    </radialGradient>
    <radialGradient id="q" cx="176.89" cy="-2451.35" fx="176.89" fy="-2451.35" r="162.6" gradientTransform="translate(0 -2152.4) scale(1 -1)" gradientUnits="userSpaceOnUse">
      <stop offset="0" stop-color="#dfbe00"/>
      <stop offset=".8" stop-color="#deaf00"/>
      <stop offset="1" stop-color="#dea101"/>
    </radialGradient>
    <radialGradient id="x" cx="112.2" cy="-2806.68" fx="112.2" fy="-2806.68" r="73.53" gradientTransform="translate(0 -2152.4) scale(1 -1)" gradientUnits="userSpaceOnUse">
      <stop offset="0" stop-color="#d2d2d2"/>
      <stop offset=".9" stop-color="#d2d2d2"/>
      <stop offset="1" stop-color="gray"/>
    </radialGradient>
    <radialGradient id="z" cx="231.4" cy="-2787.04" fx="231.4" fy="-2787.04" r="73.53" gradientTransform="translate(0 -2152.4) scale(1 -1)" gradientUnits="userSpaceOnUse">
      <stop offset="0" stop-color="#d2d2d2"/>
      <stop offset=".9" stop-color="#d2d2d2"/>
      <stop offset="1" stop-color="gray"/>
    </radialGradient>
    <linearGradient id="ac" x1="279.73" y1="27.43" x2="315.52" y2="84.4" gradientTransform="translate(134.6 208.7)" gradientUnits="userSpaceOnUse">
      <stop offset="0" stop-color="#fff"/>
      <stop offset="1" stop-color="#fff" stop-opacity="0"/>
    </linearGradient>
    <linearGradient id="af" x1="481.19" y1="29.22" x2="511.12" y2="78.9" gradientTransform="translate(134.6 208.7)" gradientUnits="userSpaceOnUse">
      <stop offset="0" stop-color="#fff"/>
      <stop offset="1" stop-color="#fff" stop-opacity="0"/>
    </linearGradient>
    <radialGradient id="ah" cx="-403.37" cy="-2496.81" fx="-403.37" fy="-2496.81" r="85.36" gradientTransform="translate(0 -2152.4) scale(1 -1)" gradientUnits="userSpaceOnUse">
      <stop offset="0" stop-color="#fff"/>
      <stop offset="1" stop-color="#fff" stop-opacity="0"/>
    </radialGradient>
    <radialGradient id="aj" cx="133.59" cy="-878.94" fx="133.59" fy="-878.94" r="85.46" gradientTransform="translate(0 -2152.4) scale(1 -1)" gradientUnits="userSpaceOnUse">
      <stop offset="0" stop-color="#fff"/>
      <stop offset="1" stop-color="#fff" stop-opacity="0"/>
    </radialGradient>
    <radialGradient id="al" cx="360.57" cy="-2709.28" fx="360.57" fy="-2709.28" r="86.6" gradientTransform="translate(0 -2152.4) scale(1 -1)" gradientUnits="userSpaceOnUse">
      <stop offset="0" stop-color="#dfbe00"/>
      <stop offset=".8" stop-color="#deaf00"/>
      <stop offset="1" stop-color="#dea101"/>
    </radialGradient>
    <linearGradient id="an" x1="392.63" y1="156.71" x2="363.21" y2="206.59" gradientTransform="translate(134.6 208.7)" gradientUnits="userSpaceOnUse">
      <stop offset="0" stop-color="#fff"/>
      <stop offset="1" stop-color="#fff" stop-opacity="0"/>
    </linearGradient>
    <linearGradient id="aq" x1="1897.47" y1="135.39" x2="1897.47" y2="214.38" gradientTransform="translate(-2178.13 581.6) scale(1.3 1.5)" gradientUnits="userSpaceOnUse">
      <stop offset="0" stop-color="#fff"/>
      <stop offset="1" stop-color="#fff" stop-opacity="0"/>
    </linearGradient>
    <linearGradient id="at" x1="1881.2" y1="135.39" x2="1881.2" y2="214.38" gradientTransform="translate(-1728.83 581.6) scale(1.3 1.5)" gradientUnits="userSpaceOnUse">
      <stop offset="0" stop-color="#fff"/>
      <stop offset="1" stop-color="#fff" stop-opacity="0"/>
    </linearGradient>
    <linearGradient id="av" x1="-206.88" y1="465.05" x2="82.84" y2="239" gradientTransform="translate(134.6 208.7)" gradientUnits="userSpaceOnUse">
      <stop offset="0" stop-color="#fff"/>
      <stop offset="1" stop-color="#fff" stop-opacity="0"/>
    </linearGradient>
    <linearGradient id="ax" x1="7485.71" y1="420.59" x2="7775.43" y2="194.64" gradientTransform="translate(8557.53 251.1) rotate(-180) scale(1 -1)" gradientUnits="userSpaceOnUse">
      <stop offset="0" stop-color="#fff"/>
      <stop offset="1" stop-color="#fff" stop-opacity="0"/>
    </linearGradient>
    <linearGradient id="az" x1="369.07" y1="693.54" x2="369.27" y2="716.16" gradientTransform="translate(134.6 208.7)" gradientUnits="userSpaceOnUse">
      <stop offset="0" stop-color="#3c3c3c"/>
      <stop offset="1" stop-color="#a0a0a0" stop-opacity="0"/>
    </linearGradient>
    <linearGradient id="bb" x1="336.45" y1="68.33" x2="343.85" y2="95.07" gradientTransform="translate(134.6 208.7)" gradientUnits="userSpaceOnUse">
      <stop offset="0" stop-color="#fff"/>
      <stop offset="1" stop-color="#fff" stop-opacity="0"/>
    </linearGradient>
    <linearGradient id="bd" x1="312.23" y1="96.33" x2="329.2" y2="128.11" gradientTransform="translate(134.6 208.7)" gradientUnits="userSpaceOnUse">
      <stop offset="0" stop-color="#3c3c3c"/>
      <stop offset="1" stop-color="#3c3c3c" stop-opacity="0"/>
    </linearGradient>
    <linearGradient id="bf" x1="389.11" y1="67.51" x2="398.88" y2="96.71" gradientTransform="translate(134.6 208.7)" gradientUnits="userSpaceOnUse">
      <stop offset="0" stop-color="#fff"/>
      <stop offset="1" stop-color="#fff" stop-opacity="0"/>
    </linearGradient>
    <linearGradient id="bh" x1="368.76" y1="98.35" x2="385.62" y2="130.13" gradientTransform="translate(134.6 208.7)" gradientUnits="userSpaceOnUse">
      <stop offset="0" stop-color="#3c3c3c"/>
      <stop offset="1" stop-color="#3c3c3c" stop-opacity="0"/>
    </linearGradient>
    <linearGradient id="bl" x1="2258.1" y1="-1775.6" x2="2259.95" y2="-1773.14" gradientTransform="translate(59028.83 43205.13) rotate(-180) scale(25.9 -24)" gradientUnits="userSpaceOnUse">
      <stop offset="0" stop-color="#fff"/>
      <stop offset="1" stop-color="#439246"/>
    </linearGradient>
    <linearGradient id="bn" x1="2259.14" y1="-1773.69" x2="2261.61" y2="-1769.58" gradientTransform="translate(57883.78 43198.03) rotate(-180) scale(25.4 -24)" gradientUnits="userSpaceOnUse">
      <stop offset="0" stop-color="#fff"/>
      <stop offset="1" stop-color="#439246"/>
    </linearGradient>
    <linearGradient id="bp" x1="2148.64" y1="-1806.57" x2="2150.18" y2="-1804.51" gradientTransform="translate(-87853.36 62948.54) scale(41.1 34.5)" gradientUnits="userSpaceOnUse">
      <stop offset="0" stop-color="#fff"/>
      <stop offset="1" stop-color="#439246"/>
    </linearGradient>
    <linearGradient id="br" x1="2148.71" y1="-1804.97" x2="2150.67" y2="-1801.67" gradientTransform="translate(-86944.63 62562.69) scale(40.7 34.3)" gradientUnits="userSpaceOnUse">
      <stop offset="0" stop-color="#fff"/>
      <stop offset="1" stop-color="#439246"/>
    </linearGradient>
  </defs>
  <g id="b" data-name="Layer 23">
    <g id="c" data-name="g10653" isolation="isolate" opacity=".8">
      <path id="d" data-name="path10633" d="M884.05,924.86c0,19.23-171.96,34.97-384.13,34.97s-384.13-15.63-384.13-34.97,171.96-34.97,384.13-34.97,384.13,15.74,384.13,34.97" fill="#a0a0a0"/>
    </g>
    <path id="e" data-name="path10673" d="M181.72,568.3c-2.06,10.8-2.98,21.7-2.78,32.6,5.04,166.82,144.6,302.26,322.63,302.26s321.08-134.62,322.63-302.26c.1-12.14-2.16-24.17-6.58-35.38,0,0,38.05,8.23,106.24,57.18,59.96,10.9,38.05-38.05,38.05-38.05,0,0-13.68-38.05-100.79-106.24-87.11-68.19-84.74-91.02-94.31-133.19-9.67-42.37-22.73-98.32-22.73-98.32,0,0-20.16-87.93-65.92-133.39-98.42-98.22-257.83-98.11-356.05.31-.21.21-.51.51-.72.72-45.77,46.07-71.48,116.01-71.48,116.01,0,0-14.71,55.54-14.3,99.97.41,43.71-10.28,82.28-97.39,150.46-87.11,68.19-100.79,106.24-100.79,106.24,0,0-20.77,45.87,39.18,35.07,68.19-44.94,105.31-54.1,105.21-54.1h0l-.1.1Z" stroke="#000" stroke-width="2.3"/>
    <path id="g" data-name="path10693" d="M696.67,222.74c0,98.42-88.04,178.33-196.64,178.33s-196.64-79.81-196.64-178.33S391.42,44.4,500.03,44.4s196.64,79.81,196.64,178.33" fill="url(#f)"/>
    <path id="i" data-name="path10713" d="M762.7,656.54c0,82.69-29.11,159.31-76.21,213.51-47.1,54.2-320.67,54.2-367.78,0-47.1-54.2-76.21-129.17-76.21-211.86,0-165.38,116.52-299.59,260.1-299.59,142.54.1,258.35,133.8,260.1,297.94h0Z" fill="url(#h)"/>
    <path id="j" data-name="path10733" d="M262.97,549.68s-8.84,82.58,1.85,130.2c10.7,47.62,22.93,94.93,22.93,94.93l-25.51,7.92c-9.56-11.11-18.41-22.83-26.43-35.07-12.34-19.33-27.36-58.93-27.36-58.93l39.49,30.85s-7.92-33.42-4.42-70.35c3.5-36.92,7.2-75.69,19.34-99.45h0l.1-.1Z" fill="#fff" isolation="isolate" opacity=".4"/>
    <path id="k" data-name="path10753" d="M364.27,414.13s11.42,17.59,19.34,17.79c12.96,1.44,16.66,15.12,29.52,14.19,27.56,33.01,51.73,63.76,77.55,76.62,9.26,5.97,19.13,7.4,27.56-7.2,14.71-12.86,48.54-49.16,55.74-63.04,10.7-12.34,8.23-30.34,8.23-30.34,0,0,18.2-7.3,27.36-7.92,10.18-.82,1.54-18.51,10.49-20.16-2.16-14.6,11.83-14.3-4.73-16.15-16.56-1.85-226.05-12.86-242.61-1.85-16.66,11-19.54,17.79-8.43,37.95h0v.1Z" fill="#a0a0a0"/>
    <path id="l" data-name="path10773" d="M741.41,554.11s8.84,82.58-1.85,130.2c-10.7,47.62-22.93,94.93-22.93,94.93l25.51,7.92c9.56-11.11,18.41-22.83,26.43-35.07,12.34-19.23,27.36-58.93,27.36-58.93l-39.49,30.85s7.92-33.42,4.42-70.35c-3.5-36.92-7.2-75.8-19.34-99.45l-.1-.1Z" fill="#fff" isolation="isolate" opacity=".4"/>
    <path id="m" data-name="path10793" d="M834.59,883.62c0,16.15-4.53,22.01-12.75,35.89h-299.9c-8.23-13.88-12.75-19.75-12.75-35.89,0-64.38,72.81-116.73,162.7-116.73s162.7,52.25,162.7,116.73" fill="#a0a0a0"/>
    <path id="o" data-name="path10813" d="M854.64,889.07c0,16.15-4.53,22.01-12.75,35.89h-299.69c-8.23-13.88-12.75-19.75-12.75-35.89,0-64.38,72.81-116.73,162.7-116.73s162.6,52.25,162.6,116.73" fill="url(#n)"/>
    <path id="p" data-name="path10833" d="M498.07,885.27c0,16.15-4.53,22.01-12.75,35.89H185.63c-8.23-13.88-12.75-19.75-12.75-35.89,0-64.38,72.81-116.73,162.7-116.73s162.6,52.45,162.6,116.73" fill="#a0a0a0"/>
    <path id="r" data-name="path10853" d="M477.92,889.07c0,16.15-4.53,22.01-12.75,35.89H165.47c-8.23-13.88-12.75-19.75-12.75-35.89,0-64.38,72.81-116.73,162.7-116.73s162.6,52.25,162.6,116.73" fill="url(#q)"/>
    <g id="s" data-name="g10893" isolation="isolate" opacity=".9">
      <path id="t" data-name="path10873" d="M705.21,299.87c0,48.65-49.67,88.04-111.07,88.04s-111.07-39.39-111.07-88.04,49.67-88.04,111.07-88.04,111.07,39.39,111.07,88.04"/>
    </g>
    <g id="u" data-name="g10953" isolation="isolate" opacity=".9">
      <path id="v" data-name="path10913" d="M497.77,293.49c0,64.28-42.27,116.42-94.41,116.42s-94.41-52.14-94.41-116.42,42.27-116.42,94.41-116.42,94.41,52.14,94.41,116.42"/>
      <path id="w" data-name="path10933" d="M497.77,293.49c0,64.28-42.27,116.42-94.41,116.42s-94.41-52.14-94.41-116.42,42.27-116.42,94.41-116.42,94.41,52.14,94.41,116.42" fill="none" stroke="#000" stroke-width="2.4"/>
    </g>
    <path id="y" data-name="path10973" d="M492.31,296.37c0,62.84-40.21,113.64-89.89,113.64s-89.89-50.81-89.89-113.64,40.21-113.64,89.89-113.64,89.89,50.81,89.89,113.64" fill="url(#x)"/>
    <path id="aa" data-name="path10993" d="M688.54,306.25c0,46.07-43.61,83.3-97.19,83.3s-97.19-37.33-97.19-83.3,43.61-83.3,97.19-83.3,97.19,37.33,97.19,83.3" fill="url(#z)"/>
    <path id="ab" data-name="path11013" d="M546.1,307.28c0,20.77-11.62,37.74-25.71,37.74s-25.71-16.87-25.71-37.74,11.62-37.74,25.71-37.74,25.71,16.87,25.71,37.74"/>
    <path id="ad" data-name="path11033" d="M345.55,220.99s25.71-47.72,75.28-31.16c49.57,16.56,52.97,45.25,65.82,111.48,12.86,66.23-45.66,6.27-45.66,6.27,0,0-7.4-56.98-40.42-73.43-33.01-16.56-55.02-11-55.02-12.96v-.21Z" fill="url(#ac)" isolation="isolate" opacity=".8"/>
    <path id="ae" data-name="path11053" d="M490.67,306.56c0,20.77-11.62,37.74-25.71,37.74s-25.71-16.87-25.71-37.74,11.62-37.74,25.71-37.74,25.71,16.87,25.71,37.74" stroke="#000" stroke-width="2.3"/>
    <path id="ag" data-name="path11073" d="M577.16,230.14s53.27-9.26,82.69,27.56c29.41,36.82,20.16,49.67,20.16,49.67l-40.42,1.85c.1,0-25.61-58.93-62.43-79.09h0Z" fill="url(#af)" isolation="isolate" opacity=".8"/>
    <path id="ai" data-name="path11093" d="M509.9,345.53s48.34,28.59,90.61,23.04,62.12-21.19,79.19-37.95c-4.32,20.05-44.12,51.73-78.99,53.58-34.86,1.85-90.92-36.82-90.92-38.67h.1Z" fill="url(#ah)" isolation="isolate" opacity=".8"/>
    <path id="ak" data-name="path11113" d="M324.78,264.08s-.31,62.32,37.02,97.91c37.33,35.58,59.65,28.08,89.06,32.5-23.24,9.77-76.41,9.77-104.59-21.49-28.08-31.16-23.45-107.68-21.6-109.02h0l.1.1Z" fill="url(#aj)" isolation="isolate" opacity=".8"/>
    <path id="am" data-name="path11133" d="M501.98,496.61h9.15c0-.1,9.87-11,44.12-46.79,22.93-26.02,30.13-43.09,30.13-43.09,0,0,4.73-17.18-17.69-34.76-29.21-14.6-44.12-14.6-65.82-14.4s-37.74,2.78-65.82,14.6c-28.08,11.83-23.45,35.79-23.45,35.79,0,0,2.06,11.42,36.3,47.21,34.25,35.79,53.07,41.45,53.07,41.45h0Z" fill="url(#al)"/>
    <path id="ao" data-name="path11153" d="M444.29,374.54s44.33,2.98,73.43,20.67c29.11,17.69,39.7,42.27,39.7,42.27,0,0,18.2-19.85,20.67-27.46,2.47-7.51,7.51-22.73-19.03-37.95-26.53-15.22-41.76-10.9-67.57-10.49-25.61.31-47.21,13.37-47.21,12.96h0Z" fill="url(#an)"/>
    <g id="ap" data-name="g11193" isolation="isolate" opacity=".8">
      <path id="ar" data-name="path11173" d="M387.82,852.25c0,36-44.43,65.31-99.25,65.31s-99.25-29.21-99.25-65.31,44.43-65.31,99.25-65.31,99.25,29.21,99.25,65.31" fill="url(#aq)"/>
    </g>
    <g id="as" data-name="g11233" isolation="isolate" opacity=".8">
      <path id="au" data-name="path11213" d="M815.97,852.25c0,36-44.43,65.31-99.25,65.31s-99.25-29.21-99.25-65.31,44.43-65.31,99.25-65.31,99.25,29.21,99.25,65.31" fill="url(#at)"/>
    </g>
    <path id="aw" data-name="path11253" d="M46.07,597.81s154.37-99.25,178.33-117.66c23.96-18.51,1.85-77.24,1.85-77.24-16.15,22.11-34.04,43.09-53.27,62.53-27.56,22.11-49.67,40.42-91.94,75.28-42.27,42.37-34.86,58.93-34.86,57.08h-.1Z" fill="url(#av)"/>
    <path id="ay" data-name="path11273" d="M953.47,595.86s-154.37-99.25-178.33-117.66c-23.96-18.51-1.85-77.24-1.85-77.24,16.15,22.11,34.04,43.09,53.27,62.53,27.56,22.11,49.67,40.42,91.94,75.28,42.27,42.37,34.86,59.03,34.86,57.08h.1Z" fill="url(#ax)"/>
    <path id="ba" data-name="path11292" d="M476.27,902.44s19.75,1.65,27.97,1.54c9.15-.1,21.19-1.03,27.56-1.65,1.95,9.87,8.33,18.72,10.39,21.49,2.57,2.47-76.72.41-76.72.41,0,0,9.87-13.88,10.8-21.7v-.1Z" fill="url(#az)"/>
    <path id="bc" data-name="path11313" d="M459.82,270.25s6.38,18.31,6.79,33.94c13.88-4.73,21.19-9.36,21.19-9.36,0,0-3.5-24.58-27.97-24.58h0Z" fill="url(#bb)"/>
    <path id="be" data-name="path11333" d="M445.42,283.21s-2.37,20.47,6.38,34.35c8.74,13.88,18.62,18.31,26.12,20.05-2.37,2.06-12.96,7.82-22.93-.31-9.87-8.02-14.81-15.74-14.81-26.43s1.85-23.65,5.25-27.67h0Z" fill="url(#bd)"/>
    <path id="bg" data-name="path11353" d="M514.32,271.38s6.38,18.31,6.79,33.94c13.88-4.73,21.19-9.36,21.19-9.36,0,0-3.5-24.58-27.97-24.58h0Z" fill="url(#bf)"/>
    <path id="bi" data-name="path11373" d="M501.88,285.27s-2.37,20.47,6.38,34.35c8.74,13.88,18.62,18.31,26.12,20.05-2.37,2.06-12.96,7.82-22.93-.31-9.87-8.02-14.81-15.74-14.81-26.43s1.95-23.76,5.25-27.67h0Z" fill="url(#bh)"/>
  </g>
  <g id="bj" data-name="Layer 1-23">
    <path id="bk" data-name="path11403" d="M226.46,426.58s103.46,107.27,272.85,104.59c82.48-1.34,190.16,1.44,299.38-112.72l7.4,8.74,54.2,47.31s-49.16,57.18-35.58,91.53c0,0,5.55,34.56,1.03,65.31-6.99,48.03-34.04,117.55-54.1,135.55,0,0-475.87-11.83-537.47,0,0,0-62.53-45.77-69.22-192.84,0,0-8.54-45.66-48.23-77.03l94.31-87.11,15.43,16.76v-.1Z" fill="#027154"/>
  </g>
  <g>
    <path d="M615.11,669.91l-19.13-83.82c-.62-2.67-3.09-5.86-5.55-6.99l-77.44-37.33c-2.47-1.13-6.38-1.13-8.95,0l-77.44,37.33c-2.47,1.13-5.04,4.32-5.55,6.99l-12.96,56.98,68.6-41.76,80.73,82.58-74.46,65.62h68.5c2.67,0,6.27-1.75,8.02-3.81l53.58-67.16c1.75-2.16,2.57-5.97,1.95-8.64h.1v.21-.21Z" fill="#009f76"/>
    <path d="M476.68,601.31l-68.6,41.76-6.17,26.95c-.62,2.67.31,6.58,1.95,8.64l53.58,67.16c1.75,2.16,5.25,3.81,8.02,3.81h17.48l74.46-65.82-80.73-82.58h0v.1Z" fill="#009f76"/>
    <path d="M475.96,601.62l-67.88,41.55-6.17,26.74c-.62,2.67.31,6.58,1.95,8.64l53.58,67.16c1.75,2.16,5.25,3.81,8.02,3.81h17.48l72.61-64.07-79.6-83.92h0v.1Z" isolation="isolate" opacity=".4"/>
  </g>
  <path id="bm" data-name="Combined-Shape5" d="M474.73,636.48c1.03,2.98,3.09,5.66,5.45,7.3l19.95,13.06c3.39,2.26,8.95,2.26,12.34,0l19.95-13.06c3.39-2.26,6.27-7.4,6.27-11.52v-27.46c0-1.85-.62-3.81-1.44-5.66l-62.53,37.44h0v-.1Z" fill="url(#bl)" fill-rule="evenodd"/>
  <path id="bo" data-name="Combined-Shape12" d="M475.96,601.62c-.82,1.85-1.44,3.81-1.44,5.45v27.46c0,4.11,2.67,9.26,6.27,11.52l19.95,13.06c3.39,2.26,8.95,2.26,12.34,0l19.95-13.06c1.75-1.13,3.09-2.88,4.32-4.83" fill="url(#bn)" fill-rule="evenodd"/>
  <path id="bq" data-name="Combined-Shape22" d="M558.86,680.71c-1.13,2.57-2.98,4.83-5.14,5.97l-38.57,22.21c-3.6,1.95-9.26,1.95-12.86,0l-38.57-22.21c-3.6-1.95-6.38-6.99-6.38-11.11v-44.53c0-1.85.62-4.01,1.54-5.86l99.97,55.54h0Z" fill="url(#bp)" fill-rule="evenodd"/>
  <path id="bs" data-name="Combined-Shape32" d="M558.75,625.79c.82,1.75,1.44,3.6,1.44,5.45v44.53c0,4.11-2.88,9.15-6.38,11.11l-38.57,22.21c-3.6,1.95-9.26,1.95-12.86,0l-38.57-22.21c-1.75-1.03-3.09-2.57-4.22-4.42l99.25-56.67h-.1Z" fill="url(#br)" fill-rule="evenodd"/>
  <g id="bt" data-name="text17341">
    <path id="bu" data-name="path1112" d="M130.53,1046.98v58.58h-13.13v-15.79c-3.8,5.31-8.64,9.53-14.52,12.66-5.88,3.13-12.68,4.69-20.38,4.69s-19.29-2.43-26.96-7.27c-7.6-4.89-13.43-11.67-17.5-20.3-4.07-8.64-6.08-18.49-6.08-29.54s2.11-21.25,6.33-29.69c4.22-8.49,10.23-15.02,18.05-19.61,7.82-4.59,16.98-6.88,27.5-6.88s17.38,1.66,24.13,4.99c6.78,3.28,12.86,8.17,18.27,14.69l-11.72,9.28c-3.9-4.99-8.36-8.79-13.35-11.32-4.94-2.56-10.87-3.82-17.8-3.82s-13.75,1.74-19.21,5.24c-5.41,3.5-9.61,8.44-12.58,14.84-2.9,6.35-4.37,13.78-4.37,22.26s1.46,15.94,4.37,22.49c2.98,6.55,7.12,11.69,12.51,15.39,5.36,3.65,11.57,5.46,18.59,5.46s13.13-1.44,17.97-4.29c4.84-2.9,8.46-6.8,10.85-11.64,2.41-4.84,3.62-10.23,3.67-16.16v-.47h-28.42v-13.83h43.81l-.02.02Z" fill="#252525"/>
    <path id="bv" data-name="path1132" d="M174.11,1107.12c-8.59,0-15.14-2.21-19.68-6.63-4.47-4.47-6.73-10.62-6.73-18.44s3.52-16.16,10.55-20.23c7.02-4.12,15.79-6.28,26.24-6.48l16.8-.32v-4.99c0-5.83-1.51-10.4-4.54-13.68-2.98-3.33-7.22-4.99-12.73-4.99-4.47,0-8.54.94-12.19,2.8-3.65,1.89-7.62,5.16-11.94,9.85l-8.84-9.13c3.65-4.47,8.27-8.14,13.83-11.02,5.63-2.9,12.11-4.37,19.46-4.37s12.09,1.24,16.7,3.75c4.64,2.51,8.14,5.93,10.55,10.3,2.41,4.37,3.6,9.41,3.6,15.07v39.04c0,6.68.2,12.63.62,17.9h-13.6c-.42-3.8-.62-7.97-.62-12.51h-.32c-3.18,4.64-6.85,8.14-11.02,10.55-4.12,2.33-9.51,3.52-16.16,3.52h.02ZM177.32,1095.33c4.99,0,9.28-.99,12.88-2.98,3.65-2.04,6.4-4.67,8.29-7.89,1.89-3.28,2.8-6.75,2.8-10.4v-8.04l-13.28.32c-7.77.2-14,1.49-18.74,3.82-4.69,2.28-7.02,6.3-7.02,12.04s1.32,7.22,3.97,9.61c2.71,2.33,6.4,3.52,11.1,3.52h0Z" fill="#252525"/>
    <path id="bw" data-name="path1151" d="M237.61,1040.8c0-8.54-.15-15.09-.47-19.68h13.28c.15,2.23.3,4.74.4,7.5.15,2.71.22,4.89.22,6.55h.32c2.09-5.26,4.77-9.18,8.04-11.79,3.28-2.61,7-3.9,11.17-3.9s5.21.25,7.02.77l-1.09,13.83c-1.89-.57-4.12-.87-6.73-.87-6.21,0-10.75,2.56-13.68,7.65-2.9,5.06-4.37,11.94-4.37,20.7v43.98h-14.15v-64.76l.02.02Z" fill="#252525"/>
    <path id="bx" data-name="path1171" d="M319.25,1107.12c-11.29,0-19.81-3.87-25.54-11.64-5.68-7.77-8.51-18.39-8.51-31.87s1.32-16.66,3.97-23.28c2.66-6.6,6.63-11.74,11.94-15.39,5.36-3.65,11.89-5.46,19.61-5.46s10.25,1.09,14.52,3.28c4.27,2.13,7.52,5.41,9.75,9.85h.15c-.1-1.14-.15-4.57-.15-10.23v-32.81h14.05v98.57c0,3.65.05,7.05.15,10.23.1,3.18.2,5.56.32,7.2h-13.43c-.2-.89-.4-2.58-.55-5.09s-.22-5.01-.22-7.57h-.32c-2.51,4.74-5.98,8.32-10.47,10.7-4.47,2.33-9.58,3.52-15.31,3.52h.05ZM321.36,1094.71c7.3,0,13.06-2.58,17.25-7.74,4.27-5.16,6.4-13.4,6.4-24.77s-2.06-18.59-6.18-23.43c-4.12-4.84-9.58-7.27-16.41-7.27-15.04,0-22.56,10.55-22.56,31.62s1.71,17.75,5.16,23.28c3.5,5.51,8.94,8.29,16.33,8.29h0v.02Z" fill="#252525"/>
    <path id="by" data-name="path1191" d="M415.16,1107.12c-8.22,0-15.27-1.81-21.1-5.46-5.78-3.7-10.18-8.86-13.21-15.46-2.98-6.68-4.44-14.4-4.44-23.21s1.59-17.08,4.77-23.58c3.23-6.55,7.62-11.52,13.21-14.84,5.56-3.38,11.84-5.09,18.81-5.09s15.39,2.01,20.7,6.01c5.31,3.95,9.13,9.01,11.49,15.14,2.33,6.16,3.52,12.68,3.52,19.61s-.1,4.02-.32,6.73h-57.34c0,4.54.87,8.96,2.58,13.28,1.76,4.27,4.44,7.82,8.04,10.62,3.6,2.76,8.02,4.15,13.28,4.15s6.26-.45,8.91-1.32c2.71-.94,5.14-2.13,7.27-3.6,2.18-1.46,4.59-3.33,7.2-5.63l7.65,10.08c-2.66,2.23-5.29,4.22-7.89,5.93s-5.91,3.25-9.93,4.62c-3.95,1.37-8.36,2.04-13.21,2.04h0ZM434.47,1055.17c-.67-8.02-2.78-13.95-6.33-17.8-3.55-3.9-8.51-5.86-14.92-5.86s-6.85.84-10.08,2.51c-3.18,1.61-5.86,4.19-8.04,7.74-2.13,3.55-3.33,8.02-3.6,13.43h42.97v-.02Z" fill="#252525"/>
    <path id="bz" data-name="path1211" d="M467.26,1039.01c0-3.23-.05-6.85-.15-10.85-.1-4.02-.2-6.35-.32-7.02h13.28c.15,1.41.3,3.67.4,6.8.15,3.13.22,5.66.22,7.57h.32c2.85-5.31,6.35-9.28,10.47-11.94,4.17-2.71,9.71-4.07,16.63-4.07s15.71,2.66,20.08,7.97c4.42,5.26,6.63,12.53,6.63,21.79v56.32h-14.15v-53.59c0-6.5-1.37-11.47-4.07-14.84-2.71-3.43-7.15-5.16-13.35-5.16s-8.29.97-11.57,2.88c-3.28,1.94-5.83,4.74-7.65,8.44-1.76,3.65-2.66,8.07-2.66,13.28v48.97h-14.15v-66.55h.02Z" fill="#252525"/>
    <path id="ca" data-name="path1231" d="M602.78,995.5h14.84v96.31h50.93v13.75h-65.78v-110.06Z" fill="#252525"/>
    <path id="cb" data-name="path1251" d="M691.45,1005.43c-2.71,0-4.96-.89-6.8-2.66-1.76-1.81-2.66-4.1-2.66-6.8s.89-4.94,2.66-6.73c1.81-1.81,4.1-2.73,6.8-2.73s4.87.92,6.63,2.73c1.76,1.76,2.66,4.02,2.66,6.73s-.89,4.89-2.66,6.73c-1.76,1.81-3.97,2.73-6.63,2.73h0ZM684.42,1021.12h14.05v84.44h-14.05v-84.44Z" fill="#252525"/>
    <path id="cc" data-name="path1271" d="M720.34,1039.01c0-3.23-.05-6.85-.15-10.85-.1-4.02-.2-6.35-.32-7.02h13.28c.15,1.41.3,3.67.4,6.8.15,3.13.22,5.66.22,7.57h.32c2.85-5.31,6.35-9.28,10.47-11.94,4.17-2.71,9.71-4.07,16.63-4.07s15.71,2.66,20.08,7.97c4.42,5.26,6.63,12.53,6.63,21.79v56.32h-14.15v-53.59c0-6.5-1.37-11.47-4.07-14.84-2.71-3.43-7.15-5.16-13.35-5.16s-8.29.97-11.57,2.88c-3.28,1.94-5.83,4.74-7.65,8.44-1.76,3.65-2.66,8.07-2.66,13.28v48.97h-14.15v-66.55h.02Z" fill="#252525"/>
    <path id="cd" data-name="path1291" d="M835.49,1107.12c-8.86,0-15.51-2.66-20.01-7.97-4.47-5.31-6.73-13.11-6.73-23.36v-54.68h14.05v51.95c0,7.69,1.39,13.25,4.15,16.63,2.8,3.33,7.27,4.99,13.35,4.99,4.07,0,7.77-1.07,11.1-3.2,3.33-2.18,5.96-5.24,7.89-9.13,1.94-3.95,2.88-8.44,2.88-13.43v-47.81h14.05v66.4c0,3.43.05,7.12.15,11.1.15,3.9.3,6.23.4,6.95h-13.28c-.1-.57-.25-2.58-.47-6.01-.15-3.43-.22-6.06-.22-7.89h-.32c-2.76,4.94-6.33,8.79-10.7,11.49-4.37,2.66-9.8,3.97-16.33,3.97h.05Z" fill="#252525"/>
    <path id="ce" data-name="path1311" d="M919.13,1062.2l-28.52-41.08h15.86l20.78,32.42,20.63-32.42h16.01l-28.52,40.93,30.23,43.51h-15.94l-22.41-34.38-22.41,34.38h-15.61l29.91-43.36h0Z" fill="#252525"/>
  </g>
</svg>
