<?xml version="1.0" encoding="UTF-8"?>
<svg id="a" data-name="Layer 1" xmlns="http://www.w3.org/2000/svg" width="1000" height="1000" xmlns:xlink="http://www.w3.org/1999/xlink" viewBox="0 0 1000 1000">
  <defs>
    <linearGradient id="f" x1="1491.75" y1="-215.25" x2="1491.75" y2="158.83" gradientTransform="translate(-1141.88 244.6) scale(1.1 1)" gradientUnits="userSpaceOnUse">
      <stop offset="0" stop-color="#fff"/>
      <stop offset="1" stop-color="#fff" stop-opacity="0"/>
    </linearGradient>
    <linearGradient id="h" x1="367.16" y1="254.77" x2="367.16" y2="398.93" gradientTransform="translate(134.6 208.7)" gradientUnits="userSpaceOnUse">
      <stop offset="0" stop-color="#fff"/>
      <stop offset="1" stop-color="#bebebe"/>
    </linearGradient>
    <radialGradient id="n" cx="555.81" cy="2910.9" fx="555.81" fy="2910.9" r="172.38" gradientTransform="translate(0 3101.19) scale(1 -1)" gradientUnits="userSpaceOnUse">
      <stop offset="0" stop-color="#dfbe00"/>
      <stop offset=".8" stop-color="#deaf00"/>
      <stop offset="1" stop-color="#dea101"/>
    </radialGradient>
    <radialGradient id="q" cx="156.67" cy="2812.4" fx="156.67" fy="2812.4" r="172.27" gradientTransform="translate(0 3101.19) scale(1 -1)" gradientUnits="userSpaceOnUse">
      <stop offset="0" stop-color="#dfbe00"/>
      <stop offset=".8" stop-color="#deaf00"/>
      <stop offset="1" stop-color="#dea101"/>
    </radialGradient>
    <radialGradient id="x" cx="88.13" cy="2435.92" fx="88.13" fy="2435.92" r="77.91" gradientTransform="translate(0 3101.19) scale(1 -1)" gradientUnits="userSpaceOnUse">
      <stop offset="0" stop-color="#d2d2d2"/>
      <stop offset=".9" stop-color="#d2d2d2"/>
      <stop offset="1" stop-color="gray"/>
    </radialGradient>
    <radialGradient id="z" cx="214.42" cy="2456.74" fx="214.42" fy="2456.74" r="77.91" gradientTransform="translate(0 3101.19) scale(1 -1)" gradientUnits="userSpaceOnUse">
      <stop offset="0" stop-color="#d2d2d2"/>
      <stop offset=".9" stop-color="#d2d2d2"/>
      <stop offset="1" stop-color="gray"/>
    </radialGradient>
    <linearGradient id="ac" x1="273.64" y1="13.54" x2="311.56" y2="73.91" gradientTransform="translate(134.6 208.7)" gradientUnits="userSpaceOnUse">
      <stop offset="0" stop-color="#fff"/>
      <stop offset="1" stop-color="#fff" stop-opacity="0"/>
    </linearGradient>
    <linearGradient id="af" x1="487.08" y1="15.44" x2="518.79" y2="68.07" gradientTransform="translate(134.6 208.7)" gradientUnits="userSpaceOnUse">
      <stop offset="0" stop-color="#fff"/>
      <stop offset="1" stop-color="#fff" stop-opacity="0"/>
    </linearGradient>
    <radialGradient id="ah" cx="-458.1" cy="2764.23" fx="-458.1" fy="2764.23" r="90.44" gradientTransform="translate(0 3101.19) scale(1 -1)" gradientUnits="userSpaceOnUse">
      <stop offset="0" stop-color="#fff"/>
      <stop offset="1" stop-color="#fff" stop-opacity="0"/>
    </radialGradient>
    <radialGradient id="aj" cx="110.8" cy="4478.35" fx="110.8" fy="4478.35" r="90.55" gradientTransform="translate(0 3101.19) scale(1 -1)" gradientUnits="userSpaceOnUse">
      <stop offset="0" stop-color="#fff"/>
      <stop offset="1" stop-color="#fff" stop-opacity="0"/>
    </radialGradient>
    <radialGradient id="al" cx="351.28" cy="2539.11" fx="351.28" fy="2539.11" r="91.75" gradientTransform="translate(0 3101.19) scale(1 -1)" gradientUnits="userSpaceOnUse">
      <stop offset="0" stop-color="#dfbe00"/>
      <stop offset=".8" stop-color="#deaf00"/>
      <stop offset="1" stop-color="#dea101"/>
    </radialGradient>
    <linearGradient id="an" x1="393.25" y1="150.52" x2="362.09" y2="203.36" gradientTransform="translate(134.6 208.7)" gradientUnits="userSpaceOnUse">
      <stop offset="0" stop-color="#fff"/>
      <stop offset="1" stop-color="#fff" stop-opacity="0"/>
    </linearGradient>
    <linearGradient id="aq" x1="1417.12" y1="1023.49" x2="1417.12" y2="1107.17" gradientTransform="translate(-1567.25 -731.8) scale(1.3 1.5)" gradientUnits="userSpaceOnUse">
      <stop offset="0" stop-color="#fff"/>
      <stop offset="1" stop-color="#fff" stop-opacity="0"/>
    </linearGradient>
    <linearGradient id="at" x1="1420.44" y1="1023.49" x2="1420.44" y2="1107.17" gradientTransform="translate(-1117.95 -731.8) scale(1.3 1.5)" gradientUnits="userSpaceOnUse">
      <stop offset="0" stop-color="#fff"/>
      <stop offset="1" stop-color="#fff" stop-opacity="0"/>
    </linearGradient>
    <linearGradient id="av" x1="-241.92" y1="477.2" x2="65.03" y2="237.7" gradientTransform="translate(134.6 208.7)" gradientUnits="userSpaceOnUse">
      <stop offset="0" stop-color="#fff"/>
      <stop offset="1" stop-color="#fff" stop-opacity="0"/>
    </linearGradient>
    <linearGradient id="ax" x1="3380.13" y1="432.62" x2="3687.08" y2="193.23" gradientTransform="translate(4484.98 251.1) rotate(-180) scale(1 -1)" gradientUnits="userSpaceOnUse">
      <stop offset="0" stop-color="#fff"/>
      <stop offset="1" stop-color="#fff" stop-opacity="0"/>
    </linearGradient>
    <linearGradient id="az" x1="368.29" y1="719.28" x2="368.51" y2="743.25" gradientTransform="translate(134.6 208.7)" gradientUnits="userSpaceOnUse">
      <stop offset="0" stop-color="#3c3c3c"/>
      <stop offset="1" stop-color="#a0a0a0" stop-opacity="0"/>
    </linearGradient>
    <linearGradient id="bb" x1="333.73" y1="56.88" x2="341.58" y2="85.21" gradientTransform="translate(134.6 208.7)" gradientUnits="userSpaceOnUse">
      <stop offset="0" stop-color="#fff"/>
      <stop offset="1" stop-color="#fff" stop-opacity="0"/>
    </linearGradient>
    <linearGradient id="bd" x1="308.07" y1="86.54" x2="326.05" y2="120.21" gradientTransform="translate(134.6 208.7)" gradientUnits="userSpaceOnUse">
      <stop offset="0" stop-color="#3c3c3c"/>
      <stop offset="1" stop-color="#3c3c3c" stop-opacity="0"/>
    </linearGradient>
    <linearGradient id="bf" x1="389.53" y1="56" x2="399.88" y2="86.95" gradientTransform="translate(134.6 208.7)" gradientUnits="userSpaceOnUse">
      <stop offset="0" stop-color="#fff"/>
      <stop offset="1" stop-color="#fff" stop-opacity="0"/>
    </linearGradient>
    <linearGradient id="bh" x1="367.96" y1="88.68" x2="385.83" y2="122.35" gradientTransform="translate(134.6 208.7)" gradientUnits="userSpaceOnUse">
      <stop offset="0" stop-color="#3c3c3c"/>
      <stop offset="1" stop-color="#3c3c3c" stop-opacity="0"/>
    </linearGradient>
    <linearGradient id="bl" x1="143.14" y1="742.04" x2="145.1" y2="744.66" gradientTransform="translate(4252.99 -17211.2) rotate(-180) scale(25.9 -24)" gradientUnits="userSpaceOnUse">
      <stop offset="0" stop-color="#fff"/>
      <stop offset="1" stop-color="#439246"/>
    </linearGradient>
    <linearGradient id="bn" x1="142.73" y1="744.05" x2="145.35" y2="748.41" gradientTransform="translate(4126.07 -17218.3) rotate(-180) scale(25.4 -24)" gradientUnits="userSpaceOnUse">
      <stop offset="0" stop-color="#fff"/>
      <stop offset="1" stop-color="#439246"/>
    </linearGradient>
    <linearGradient id="bp" x1="161.82" y1="744.36" x2="163.46" y2="746.54" gradientTransform="translate(-6198.67 -25049.16) scale(41.1 34.5)" gradientUnits="userSpaceOnUse">
      <stop offset="0" stop-color="#fff"/>
      <stop offset="1" stop-color="#439246"/>
    </linearGradient>
    <linearGradient id="br" x1="162.45" y1="745.56" x2="164.52" y2="749.05" gradientTransform="translate(-6104.45 -24909.64) scale(40.7 34.3)" gradientUnits="userSpaceOnUse">
      <stop offset="0" stop-color="#fff"/>
      <stop offset="1" stop-color="#439246"/>
    </linearGradient>
  </defs>
  <g id="b" data-name="Layer 23">
    <g id="c" data-name="g10653" isolation="isolate" opacity=".8">
      <path id="d" data-name="path10633" d="M905.91,951.95c0,20.38-182.19,37.05-406.98,37.05s-406.98-16.56-406.98-37.05,182.19-37.05,406.98-37.05,406.98,16.67,406.98,37.05" fill="#a0a0a0"/>
    </g>
    <path id="e" data-name="path10673" d="M161.79,574.17c-2.18,11.44-3.16,22.99-2.94,34.54,5.34,176.74,153.2,320.25,341.82,320.25s340.19-142.63,341.82-320.25c.11-12.86-2.29-25.61-6.97-37.48,0,0,40.32,8.72,112.56,60.58,63.53,11.55,40.32-40.32,40.32-40.32,0,0-14.49-40.32-106.78-112.56-92.29-72.24-89.79-96.43-99.92-141.11-10.24-44.89-24.08-104.17-24.08-104.17,0,0-21.36-93.16-69.85-141.33-104.28-104.06-273.17-103.95-377.23.33-.22.22-.54.54-.76.76-48.49,48.82-75.73,122.91-75.73,122.91,0,0-15.58,58.84-15.15,105.91.44,46.31-10.9,87.17-103.19,159.41-92.29,72.24-106.78,112.56-106.78,112.56,0,0-22.01,48.6,41.52,37.16,72.24-47.62,111.58-57.32,111.47-57.32h0l-.11.11Z" stroke="#000" stroke-width="2.3"/>
    <path id="g" data-name="path10693" d="M707.38,208.05c0,104.28-93.27,188.94-208.34,188.94s-208.34-84.56-208.34-188.94S383.97,19.11,499.04,19.11s208.34,84.56,208.34,188.94" fill="url(#f)"/>
    <path id="i" data-name="path10713" d="M777.33,667.66c0,87.61-30.84,168.79-80.74,226.21-49.91,57.42-339.75,57.42-389.66,0-49.91-57.42-80.74-136.86-80.74-224.47,0-175.21,123.46-317.41,275.57-317.41,151.02.11,273.72,141.76,275.57,315.67h0Z" fill="url(#h)"/>
    <path id="j" data-name="path10733" d="M247.87,554.45s-9.37,87.5,1.96,137.95c11.33,50.45,24.3,100.57,24.3,100.57l-27.02,8.39c-10.13-11.77-19.5-24.19-28-37.16-13.08-20.49-28.98-62.44-28.98-62.44l41.84,32.69s-8.39-35.41-4.69-74.53c3.7-39.12,7.63-80.2,20.49-105.37h0l.11-.11Z" fill="#fff" isolation="isolate" opacity=".4"/>
    <path id="k" data-name="path10753" d="M355.2,410.84s12.09,18.63,20.49,18.85c13.73,1.53,17.65,16.02,31.27,15.04,29.2,34.98,54.81,67.56,82.16,81.18,9.81,6.32,20.27,7.85,29.2-7.63,15.58-13.62,51.43-52.08,59.06-66.8,11.33-13.08,8.72-32.14,8.72-32.14,0,0,19.29-7.74,28.98-8.39,10.79-.87,1.63-19.61,11.11-21.36-2.29-15.47,12.53-15.15-5.01-17.11-17.54-1.96-239.5-13.62-257.05-1.96-17.65,11.66-20.7,18.85-8.94,40.21h0v.11Z" fill="#a0a0a0"/>
    <path id="l" data-name="path10773" d="M754.78,559.14s9.37,87.5-1.96,137.95c-11.33,50.45-24.3,100.57-24.3,100.57l27.02,8.39c10.13-11.77,19.5-24.19,28-37.16,13.08-20.38,28.98-62.44,28.98-62.44l-41.84,32.69s8.39-35.41,4.69-74.53c-3.7-39.12-7.63-80.31-20.49-105.37l-.11-.11Z" fill="#fff" isolation="isolate" opacity=".4"/>
    <path id="m" data-name="path10793" d="M853.5,908.26c0,17.11-4.79,23.32-13.51,38.03h-317.74c-8.72-14.71-13.51-20.92-13.51-38.03,0-68.21,77.15-123.67,172.38-123.67s172.38,55.35,172.38,123.67" fill="#a0a0a0"/>
    <path id="o" data-name="path10813" d="M874.75,914.03c0,17.11-4.79,23.32-13.51,38.03h-317.52c-8.72-14.71-13.51-20.92-13.51-38.03,0-68.21,77.15-123.67,172.38-123.67s172.27,55.35,172.27,123.67" fill="url(#n)"/>
    <path id="p" data-name="path10833" d="M496.97,910c0,17.11-4.79,23.32-13.51,38.03H165.93c-8.72-14.71-13.51-20.92-13.51-38.03,0-68.21,77.15-123.67,172.38-123.67s172.27,55.57,172.27,123.67" fill="#a0a0a0"/>
    <path id="r" data-name="path10853" d="M475.61,914.03c0,17.11-4.79,23.32-13.51,38.03H144.58c-8.72-14.71-13.51-20.92-13.51-38.03,0-68.21,77.15-123.67,172.38-123.67s172.27,55.35,172.27,123.67" fill="url(#q)"/>
    <g id="s" data-name="g10893" isolation="isolate" opacity=".9">
      <path id="t" data-name="path10873" d="M716.42,289.78c0,51.54-52.63,93.27-117.68,93.27s-117.68-41.73-117.68-93.27,52.63-93.27,117.68-93.27,117.68,41.73,117.68,93.27"/>
    </g>
    <g id="u" data-name="g10953" isolation="isolate" opacity=".9">
      <path id="v" data-name="path10913" d="M496.64,283.02c0,68.1-44.78,123.35-100.03,123.35s-100.03-55.24-100.03-123.35,44.78-123.35,100.03-123.35,100.03,55.24,100.03,123.35"/>
      <path id="w" data-name="path10933" d="M496.64,283.02c0,68.1-44.78,123.35-100.03,123.35s-100.03-55.24-100.03-123.35,44.78-123.35,100.03-123.35,100.03,55.24,100.03,123.35" fill="none" stroke="#000" stroke-width="2.4"/>
    </g>
    <path id="y" data-name="path10973" d="M490.86,286.07c0,66.58-42.6,120.41-95.23,120.41s-95.23-53.83-95.23-120.41,42.6-120.41,95.23-120.41,95.23,53.83,95.23,120.41" fill="url(#x)"/>
    <path id="aa" data-name="path10993" d="M698.77,296.53c0,48.82-46.2,88.26-102.97,88.26s-102.97-39.55-102.97-88.26,46.2-88.26,102.97-88.26,102.97,39.55,102.97,88.26" fill="url(#z)"/>
    <path id="ab" data-name="path11013" d="M547.85,297.62c0,22.01-12.31,39.99-27.24,39.99s-27.24-17.87-27.24-39.99,12.31-39.99,27.24-39.99,27.24,17.87,27.24,39.99"/>
    <path id="ad" data-name="path11033" d="M335.37,206.2s27.24-50.56,79.76-33.02c52.52,17.54,56.12,47.94,69.74,118.12,13.62,70.17-48.38,6.65-48.38,6.65,0,0-7.85-60.37-42.82-77.8-34.98-17.54-58.3-11.66-58.3-13.73v-.22Z" fill="url(#ac)" isolation="isolate" opacity=".8"/>
    <path id="ae" data-name="path11053" d="M489.12,296.86c0,22.01-12.31,39.99-27.24,39.99s-27.24-17.87-27.24-39.99,12.31-39.99,27.24-39.99,27.24,17.87,27.24,39.99" stroke="#000" stroke-width="2.3"/>
    <path id="ag" data-name="path11073" d="M580.76,215.9s56.44-9.81,87.61,29.2c31.16,39.01,21.36,52.63,21.36,52.63l-42.82,1.96c.11,0-27.13-62.44-66.14-83.79h0Z" fill="url(#af)" isolation="isolate" opacity=".8"/>
    <path id="ai" data-name="path11093" d="M509.5,338.16s51.21,30.29,96,24.41c44.78-5.88,65.81-22.45,83.9-40.21-4.58,21.25-46.75,54.81-83.68,56.77-36.94,1.96-96.32-39.01-96.32-40.97h.11Z" fill="url(#ah)" isolation="isolate" opacity=".8"/>
    <path id="ak" data-name="path11113" d="M313.36,251.86s-.33,66.03,39.23,103.73c39.55,37.7,63.2,29.75,94.36,34.43-24.63,10.35-80.96,10.35-110.82-22.77-29.75-33.02-24.84-114.09-22.88-115.5h0l.11.11Z" fill="url(#aj)" isolation="isolate" opacity=".8"/>
    <path id="am" data-name="path11133" d="M501.11,498.23h9.7c0-.11,10.46-11.66,46.75-49.58,24.3-27.57,31.93-45.66,31.93-45.66,0,0,5.01-18.2-18.74-36.83-30.95-15.47-46.75-15.47-69.74-15.25-22.99.22-39.99,2.94-69.74,15.47-29.75,12.53-24.84,37.92-24.84,37.92,0,0,2.18,12.1,38.46,50.01,36.29,37.92,56.23,43.91,56.23,43.91h0Z" fill="url(#al)"/>
    <path id="ao" data-name="path11153" d="M439.98,368.88s46.96,3.16,77.8,21.9c30.84,18.74,42.06,44.78,42.06,44.78,0,0,19.29-21.03,21.9-29.09,2.62-7.95,7.95-24.08-20.16-40.21-28.11-16.13-44.24-11.55-71.59-11.11-27.13.33-50.01,14.17-50.01,13.73h0Z" fill="url(#an)"/>
    <g id="ap" data-name="g11193" isolation="isolate" opacity=".8">
      <path id="ar" data-name="path11173" d="M380.16,875.02c0,38.14-47.07,69.19-105.15,69.19s-105.15-30.95-105.15-69.19,47.07-69.19,105.15-69.19,105.15,30.95,105.15,69.19" fill="url(#aq)"/>
    </g>
    <g id="as" data-name="g11233" isolation="isolate" opacity=".8">
      <path id="au" data-name="path11213" d="M833.78,875.02c0,38.14-47.07,69.19-105.15,69.19s-105.15-30.95-105.15-69.19,47.07-69.19,105.15-69.19,105.15,30.95,105.15,69.19" fill="url(#at)"/>
    </g>
    <path id="aw" data-name="path11253" d="M18.07,605.45s163.56-105.15,188.94-124.66c25.39-19.61,1.96-81.83,1.96-81.83-17.11,23.43-36.07,45.66-56.44,66.25-29.2,23.43-52.63,42.82-97.41,79.76-44.78,44.89-36.94,62.44-36.94,60.48h-.11Z" fill="url(#av)"/>
    <path id="ay" data-name="path11273" d="M979.46,603.38s-163.56-105.15-188.94-124.66c-25.39-19.61-1.96-81.83-1.96-81.83,17.11,23.43,36.07,45.66,56.44,66.25,29.2,23.43,52.63,42.82,97.41,79.76,44.78,44.89,36.94,62.55,36.94,60.48h.11Z" fill="url(#ax)"/>
    <path id="ba" data-name="path11292" d="M473.87,928.2s20.92,1.74,29.64,1.63c9.7-.11,22.45-1.09,29.2-1.74,2.07,10.46,8.83,19.83,11.01,22.77,2.72,2.62-81.29.44-81.29.44,0,0,10.46-14.71,11.44-22.99v-.11Z" fill="url(#az)"/>
    <path id="bc" data-name="path11313" d="M456.43,258.4s6.76,19.4,7.19,35.96c14.71-5.01,22.45-9.92,22.45-9.92,0,0-3.7-26.04-29.64-26.04h0Z" fill="url(#bb)"/>
    <path id="be" data-name="path11333" d="M441.18,272.12s-2.51,21.68,6.76,36.39c9.26,14.71,19.72,19.4,27.68,21.25-2.51,2.18-13.73,8.28-24.3-.33-10.46-8.5-15.69-16.67-15.69-28s1.96-25.06,5.56-29.31h0Z" fill="url(#bd)"/>
    <path id="bg" data-name="path11353" d="M514.18,259.59s6.76,19.4,7.19,35.96c14.71-5.01,22.45-9.92,22.45-9.92,0,0-3.7-26.04-29.64-26.04h0Z" fill="url(#bf)"/>
    <path id="bi" data-name="path11373" d="M501,274.3s-2.51,21.68,6.76,36.39c9.26,14.71,19.72,19.4,27.68,21.25-2.51,2.18-13.73,8.28-24.3-.33-10.46-8.5-15.69-16.67-15.69-28s2.07-25.17,5.56-29.31h0Z" fill="url(#bh)"/>
  </g>
  <g id="bj" data-name="Layer 1-23">
    <path id="bk" data-name="path11403" d="M209.19,424.02s109.62,113.65,289.08,110.82c87.39-1.42,201.47,1.53,317.19-119.42l7.85,9.26,57.42,50.12s-52.08,60.58-37.7,96.98c0,0,5.88,36.61,1.09,69.19-7.41,50.89-36.07,124.55-57.32,143.61,0,0-504.18-12.53-569.45,0,0,0-66.25-48.49-73.33-204.31,0,0-9.04-48.38-51.1-81.61l99.92-92.29,16.34,17.76v-.11Z" fill="#027154"/>
  </g>
  <g>
    <path d="M620.97,681.83l-20.27-88.81c-.65-2.83-3.27-6.21-5.88-7.41l-82.05-39.55c-2.62-1.2-6.76-1.2-9.48,0l-82.05,39.55c-2.62,1.2-5.34,4.58-5.88,7.41l-13.73,60.37,72.68-44.24,85.54,87.5-78.89,69.52h72.57c2.83,0,6.65-1.85,8.5-4.03l56.77-71.15c1.85-2.29,2.72-6.32,2.07-9.15h.11v.22-.22Z" fill="#009f76"/>
    <path d="M474.3,609.15l-72.68,44.24-6.54,28.55c-.65,2.83.33,6.97,2.07,9.15l56.77,71.15c1.85,2.29,5.56,4.03,8.5,4.03h18.52l78.89-69.74-85.54-87.5h0v.11Z" fill="#009f76"/>
    <path d="M473.54,609.48l-71.92,44.02-6.54,28.33c-.65,2.83.33,6.97,2.07,9.15l56.77,71.15c1.85,2.29,5.56,4.03,8.5,4.03h18.52l76.93-67.88-84.34-88.91h0v.11Z" isolation="isolate" opacity=".4"/>
  </g>
  <path id="bm" data-name="Combined-Shape5" d="M472.23,646.42c1.09,3.16,3.27,5.99,5.78,7.74l21.14,13.84c3.6,2.4,9.48,2.4,13.08,0l21.14-13.84c3.6-2.4,6.65-7.85,6.65-12.2v-29.09c0-1.96-.65-4.03-1.53-5.99l-66.25,39.66h0v-.11Z" fill="url(#bl)" fill-rule="evenodd"/>
  <path id="bo" data-name="Combined-Shape12" d="M473.54,609.48c-.87,1.96-1.53,4.03-1.53,5.78v29.09c0,4.36,2.83,9.81,6.65,12.2l21.14,13.84c3.6,2.4,9.48,2.4,13.08,0l21.14-13.84c1.85-1.2,3.27-3.05,4.58-5.12" fill="url(#bn)" fill-rule="evenodd"/>
  <path id="bq" data-name="Combined-Shape22" d="M561.36,693.27c-1.2,2.72-3.16,5.12-5.45,6.32l-40.86,23.54c-3.81,2.07-9.81,2.07-13.62,0l-40.86-23.54c-3.81-2.07-6.76-7.41-6.76-11.77v-47.18c0-1.96.65-4.25,1.63-6.21l105.91,58.84h0Z" fill="url(#bp)" fill-rule="evenodd"/>
  <path id="bs" data-name="Combined-Shape32" d="M561.26,635.08c.87,1.85,1.53,3.81,1.53,5.78v47.18c0,4.36-3.05,9.7-6.76,11.77l-40.86,23.54c-3.81,2.07-9.81,2.07-13.62,0l-40.86-23.54c-1.85-1.09-3.27-2.72-4.47-4.69l105.15-60.04h-.11Z" fill="url(#br)" fill-rule="evenodd"/>
</svg>
