<?xml version="1.0" encoding="UTF-8" standalone="no"?>
<svg
   id="a"
   data-name="Layer 1"
   width="789.78003"
   height="791.06"
   viewBox="0 0 789.78004 791.05999"
   version="1.1"
   sodipodi:docname="platform-mesh-icon-color.svg"
   inkscape:version="1.4.3 (0d15f75, 2025-12-25)"
   inkscape:export-filename="platform-mesh-icon-color.png"
   inkscape:export-xdpi="96"
   inkscape:export-ydpi="96"
   xmlns:inkscape="http://www.inkscape.org/namespaces/inkscape"
   xmlns:sodipodi="http://sodipodi.sourceforge.net/DTD/sodipodi-0.dtd"
   xmlns="http://www.w3.org/2000/svg"
   xmlns:svg="http://www.w3.org/2000/svg">
  <defs
     id="defs36" />
  <sodipodi:namedview
     id="namedview36"
     pagecolor="#ffffff"
     bordercolor="#000000"
     borderopacity="0.25"
     inkscape:showpageshadow="2"
     inkscape:pageopacity="0.0"
     inkscape:pagecheckerboard="0"
     inkscape:deskcolor="#d1d1d1"
     inkscape:zoom="0.030666887"
     inkscape:cx="407.60577"
     inkscape:cy="374.99731"
     inkscape:current-layer="a" />
  <path
     d="m 545.36,228.82 c 18.46,31.92 32.12,67.39 40.79,106.18 2.14,9.55 3.86,19.04 5.18,28.49 10.85,3.26 19.44,11.75 22.83,22.54 51.69,-7.51 108.22,-14.93 132.3,-18.04 0.28,-7.84 2.66,-15.14 6.6,-21.36 -24.68,-21.18 -58.76,-45.98 -98.15,-68.51 -29.3,-16.76 -67.11,-35.41 -109.56,-49.29 z"
     fill="#009dff"
     id="path1" />
  <path
     d="m 258.28,64.03 c -15.26,-1.13 -30.18,-1.21 -44.37,-0.17 -18.05,1.32 -34.39,4.43 -48.08,8.99 -0.6,0.42 -1.2,0.84 -1.79,1.26 26.44,-6.71 54.14,-10.29 82.67,-10.29 3.87,0 7.73,0.07 11.57,0.2 z"
     fill="#0582fa"
     id="path2" />
  <path
     d="m 278.04,732.9 c -0.06,-0.27 -0.12,-0.55 -0.18,-0.82 -10.26,0.95 -20.64,1.43 -31.15,1.43 -23.61,0 -46.65,-2.45 -68.88,-7.1 1.95,1.28 3.92,2.55 5.9,3.8 29.56,6.04 61.37,6.95 94.31,2.69 z"
     fill="#0582fa"
     id="path3" />
  <path
     d="m 409.55,64.11 c 13.19,1.71 30.17,4.52 49.8,9.14 42.95,10.1 106.97,31.16 168.03,74.1 46.88,32.97 85.42,73.05 114.54,119.14 14.86,23.52 25.12,45.47 31.53,63.18 3.4,-1.36 7,-2.29 10.76,-2.74 C 767.84,233.31 718.55,151.01 648.71,92.4 616.57,81.58 568.79,70.58 515.33,65.45 485.41,62.58 448.68,61.08 409.54,64.1 Z"
     fill="#009dff"
     id="path4" />
  <path
     d="m 327.73,66.3 c 3.81,-16.6 18.66,-28.99 36.42,-28.99 13.76,0 25.77,7.44 32.26,18.51 44.41,-4.46 86.33,-2.95 119.84,0.26 33.98,3.26 68.51,9.15 99.84,17.05 4.13,1.04 8.19,2.11 12.16,3.21 C 562.79,28.34 482.02,0 394.62,0 319.49,0 249.25,20.96 189.42,57.33 c 7.52,-1.29 15.47,-2.25 23.81,-2.86 35.69,-2.61 75.84,1.58 114.5,11.84 z"
     fill="#009dff"
     id="path5" />
  <path
     d="m 484.69,634.21 c 13.88,-13.1 26.51,-27.15 37.76,-41.95 -0.59,-0.35 -1.17,-0.7 -1.76,-1.05 -10.79,15.33 -22.84,29.72 -36,43 z"
     fill="#0582fa"
     id="path6" />
  <path
     d="m 596.75,426.99 c -0.89,0.44 -1.8,0.85 -2.72,1.21 -1.83,30.18 -8.06,59.61 -18.68,88.06 -9.58,25.64 -22.8,50.29 -39.21,73.31 37.61,22.96 68.81,45.91 93.19,68.53 7.66,-8.39 18.6,-13.72 30.8,-13.97 -1.49,-27.7 -5.55,-70.36 -16.5,-113.71 C 632.36,485.8 616.61,451.08 596.77,427 Z"
     fill="#009dff"
     id="path7" />
  <path
     d="m 581.46,362.03 c 0,0 0.09,0 0.14,0 -1.23,-8.28 -2.77,-16.61 -4.64,-24.98 -2.85,-12.72 -6.24,-25.08 -10.18,-37.06 6.15,19.96 10.47,40.72 12.8,62.08 0.62,-0.03 1.25,-0.05 1.89,-0.05 z"
     fill="#0582fa"
     id="path8" />
  <path
     d="m 580.05,430.56 c -5.31,56.16 -24.48,108.29 -54.07,152.91 0,0 0,0 0.01,0 0.68,0.41 1.36,0.81 2.04,1.22 16.12,-22.51 29.11,-46.64 38.48,-71.73 9.96,-26.67 15.92,-54.24 17.9,-82.51 -0.97,0.08 -1.96,0.13 -2.95,0.13 -0.47,0 -0.94,-0.02 -1.41,-0.04 z"
     fill="#0582fa"
     id="path9" />
  <path
     d="m 450.75,751.35 c -14.93,0 -29.78,-0.76 -44.52,-2.29 -22.74,-2.36 -45.2,-6.56 -67.26,-12.55 -4.37,12.33 -16.12,21.16 -29.95,21.16 -11.7,0 -21.91,-6.32 -27.42,-15.74 -14.8,2.02 -29.4,3.04 -43.69,3.04 -10.85,0 -21.53,-0.59 -31.99,-1.75 56.08,30.5 120.36,47.84 188.69,47.84 86.73,0 166.95,-27.92 232.14,-75.26 -20.29,8.66 -53.52,20.67 -95.97,28.32 -26.7,4.81 -53.49,7.23 -80.04,7.23 z"
     fill="#009dff"
     id="path10" />
  <path
     d="m 687.13,454.29 c -24.72,-18.5 -50.3,-32.71 -75.35,-41.98 -1.86,3.52 -4.31,6.67 -7.22,9.33 20.5,25.16 36.69,60.89 48.2,106.46 11.32,44.78 15.39,88.78 16.84,116.85 8.49,1.72 16.07,5.95 21.94,11.87 31.4,-35.66 56.48,-77.01 73.49,-122.32 -19.73,-28.93 -47.2,-57.25 -77.9,-80.22 z"
     fill="#009dff"
     id="path11" />
  <path
     d="m 789.37,412.49 c -21.03,0 -38.52,-15.13 -42.21,-35.09 -24.31,3.15 -80.24,10.49 -131.44,17.93 0,0.33 0.02,0.65 0.02,0.98 0,2.45 -0.26,4.83 -0.75,7.14 25.93,9.59 52.34,24.25 77.79,43.3 29.55,22.11 56.2,49.08 76.15,76.9 12.01,-35.09 19.22,-72.41 20.85,-111.16 -0.14,0 -0.28,0.01 -0.42,0.01 z"
     fill="#009dff"
     id="path12" />
  <path
     d="m 397.17,92.18 c 34.57,16.89 65.93,38.81 92.48,64.82 18.41,18.04 34.53,37.95 48.3,59.61 47.38,14.36 89.54,34.96 121.65,53.32 39.69,22.7 74.17,47.79 99.33,69.34 1.87,-1.88 3.92,-3.58 6.11,-5.09 -5.38,-15.24 -14.81,-36.9 -31.08,-62.65 C 705.91,227.13 667.18,186.86 621.97,155.06 562.23,113.05 499.54,92.4 457.47,82.49 c -22.85,-5.39 -42.27,-8.28 -56,-9.83 0.04,0.67 0.06,1.35 0.06,2.03 0,6.32 -1.58,12.28 -4.35,17.5 z"
     fill="#009dff"
     id="path13" />
  <path
     d="m 478.98,652.07 c -39.04,33.67 -86.39,60.01 -135.75,75.83 20.92,5.58 42.21,9.52 63.75,11.76 40,4.17 80.98,2.57 121.78,-4.75 39.02,-7 72.43,-18.51 94.32,-27.78 -3.18,-5.99 -4.99,-12.83 -4.99,-20.09 0,-7.74 2.06,-14.99 5.64,-21.26 -24.33,-22.71 -55.74,-45.81 -93.16,-68.63 -14.92,19.75 -32.22,38.2 -51.59,54.91 z"
     fill="#009dff"
     id="path14" />
  <path
     d="m 431.28,207.91 c -41.14,-1.06 -81.84,3.53 -121.87,13.7 -0.01,0.98 -0.07,1.95 -0.18,2.9 30.35,4.3 79.11,17.76 129.78,40.91 76.24,34.84 113.33,71.27 131.36,98.46 2.91,-1 6,-1.62 9.2,-1.79 -2.32,-21.36 -6.65,-42.12 -12.8,-62.08 -8.9,-27.09 -20.56,-52.26 -34.93,-75.38 -31.75,-9.37 -65.77,-15.81 -100.57,-16.71 z"
     fill="#0582fa"
     id="path15" />
  <path
     d="m 561.89,368.17 c -11.18,-16.61 -27.3,-32.88 -48.1,-48.51 -21.87,-16.43 -48.35,-31.8 -78.7,-45.67 -48.62,-22.22 -98.32,-36.24 -128.47,-40.33 -0.15,0.32 -0.31,0.63 -0.47,0.93 5.5,6.18 10.68,12.61 15.49,19.32 20.99,29.27 34.7,62.87 40.86,100.05 61.2,2.13 128.09,9.68 187.82,28.02 2.57,-5.58 6.59,-10.34 11.58,-13.82 z"
     fill="#0582fa"
     id="path16" />
  <path
     d="m 567.82,427.77 c -18.47,17.92 -51.4,37.61 -89.74,53.3 -40.06,16.39 -78,25.22 -107.27,25.22 -0.24,0 -0.47,-0.01 -0.71,-0.01 0,0.03 0,0.05 0,0.08 57.43,24.04 111.11,50.59 155.87,77.12 29.59,-44.62 48.76,-96.75 54.07,-152.91 -4.33,-0.18 -8.46,-1.15 -12.23,-2.79 z"
     fill="#0582fa"
     id="path17" />
  <path
     d="m 135.95,148.59 c 10.29,1.14 20.59,2.92 30.81,5.29 33.07,-29.63 70.69,-53.17 112,-70.05 10.94,-4.47 22.04,-8.34 33.22,-11.69 -17.94,-4.07 -36.05,-6.8 -53.7,-8.1 -3.84,-0.13 -7.7,-0.2 -11.57,-0.2 -28.53,0 -56.22,3.57 -82.67,10.29 -29.48,21.18 -55.91,46.33 -78.54,74.64 15.22,-2.08 32.33,-2.17 50.44,-0.16 z"
     fill="#0582fa"
     id="path18" />
  <path
     d="m 168.01,165.51 c 13.48,2.63 26.54,6.39 39.1,11.2 -12.29,-5.09 -24.93,-9.26 -37.71,-12.48 -0.46,0.43 -0.93,0.85 -1.39,1.28 z"
     fill="#1140e5"
     id="path19" />
  <path
     d="m 368.35,515.84 c -2.9,8.64 -9.15,15.73 -17.2,19.75 7.49,21.87 10.74,49.37 9,77.75 -2.13,34.68 -11.47,67.31 -26.42,92.6 3.03,3.75 5.22,8.2 6.3,13.08 48.28,-15.41 94.6,-41.16 132.78,-74.09 4.05,-3.49 8.01,-7.07 11.87,-10.71 13.15,-13.29 25.2,-27.67 36,-43 -43.67,-25.86 -94.97,-51.31 -152.33,-75.37 z"
     fill="#0582fa"
     id="path20" />
  <path
     d="m 264.3,197.36 c 4.63,-3.16 10.22,-5.01 16.25,-5.01 12.81,0 23.66,8.34 27.44,19.88 40.56,-10.22 81.83,-14.83 123.54,-13.75 31.86,0.82 63.06,6.17 92.49,14.13 -12.01,-17.57 -25.67,-33.89 -40.96,-48.87 -26.19,-25.66 -57.2,-47.22 -91.41,-63.75 -6.83,7.42 -16.62,12.07 -27.5,12.07 -19.62,0 -35.69,-15.12 -37.24,-34.34 -15.02,3.97 -29.95,8.86 -44.57,14.84 -38.33,15.66 -73.4,37.2 -104.49,64.13 21.61,5.96 42.73,14.58 62.45,25.58 8.38,4.67 16.38,9.71 24.01,15.09 z"
     fill="#0582fa"
     id="path21" />
  <path
     d="m 212.11,618.72 c 28.12,-11.05 53.68,-27.09 74.87,-47.12 11.97,-11.32 22.47,-23.76 31.45,-37.18 -0.27,-0.16 -0.53,-0.32 -0.79,-0.48 -26.05,37.57 -62.66,67.25 -105.53,84.78 z"
     fill="#1140e5"
     id="path22" />
  <path
     d="m 277.86,732.07 c -0.39,-2 -0.6,-4.06 -0.6,-6.17 0,-3.69 0.64,-7.23 1.79,-10.53 -6.98,-3.05 -13.9,-6.29 -20.77,-9.72 -29.85,-14.93 -58.71,-36.67 -85.77,-64.64 -0.22,-0.23 -0.44,-0.47 -0.67,-0.7 -17.98,3.61 -36.57,5.43 -55.37,5.43 -9.76,0 -19.58,-0.5 -29.39,-1.48 25.78,31.83 56.39,59.6 90.74,82.14 22.23,4.65 45.27,7.1 68.88,7.1 10.5,0 20.89,-0.49 31.15,-1.43 z"
     fill="#0582fa"
     id="path23" />
  <path
     d="m 120.39,636.28 c -14.62,-0.11 -28.92,-1.55 -42.79,-4.19 0.43,0.58 0.88,1.15 1.32,1.73 13.84,1.83 27.72,2.65 41.47,2.46 z"
     fill="#1140e5"
     id="path24" />
  <path
     d="m 309.03,694.13 c 6.5,0 12.55,1.96 17.58,5.31 27.95,-48.67 30.48,-117.48 15.6,-160.85 -2.06,0.39 -4.18,0.6 -6.35,0.6 -2.95,0 -5.82,-0.37 -8.55,-1.07 -9.59,14.58 -20.9,28.09 -33.86,40.34 -27.86,26.33 -62.94,46.04 -101.45,57 -3.05,0.87 -6.13,1.68 -9.22,2.44 22.83,23.02 49.45,44.2 79.72,59.33 6.93,3.47 13.93,6.73 20.98,9.8 5.79,-7.82 15.07,-12.89 25.55,-12.89 z"
     fill="#0582fa"
     id="path25" />
  <path
     d="m 156.38,163.54 c 0.34,-0.33 0.68,-0.67 1.02,-0.99 0.3,-0.29 0.6,-0.57 0.9,-0.85 -7.78,-1.6 -15.58,-2.86 -23.39,-3.73 -21.46,-2.38 -41.29,-1.72 -57.92,1.81 -1.63,2.19 -3.23,4.4 -4.82,6.62 16.15,-3.47 32.91,-5.31 50.1,-5.31 11.58,0 22.97,0.85 34.11,2.45 z"
     fill="#1140e5"
     id="path26" />
  <path
     d="m 369.18,496.85 c 28.14,0.39 65.52,-8.23 105.33,-24.52 35.64,-14.58 67.16,-33.16 85,-49.69 -7.54,-6.29 -12.33,-15.75 -12.33,-26.33 0,-1.8 0.14,-3.57 0.41,-5.3 -58.29,-17.91 -123.65,-25.38 -183.7,-27.57 0.24,1.86 0.47,3.72 0.67,5.6 4.15,38.28 1.04,74.69 -8.88,107.9 6.64,4.72 11.53,11.74 13.5,19.9 z"
     fill="#0582fa"
     id="path27" />
  <path
     d="m 335.86,470.63 c 3.95,0 7.74,0.68 11.28,1.91 9.17,-31.58 11.99,-66.14 8.05,-102.47 -0.25,-2.32 -0.54,-4.63 -0.85,-6.92 -32.24,-0.89 -62.73,-0.3 -89.47,0.93 -82.09,3.79 -154.53,14.93 -191.17,23.58 0.63,2.91 0.97,5.93 0.97,9.03 0,7.49 -1.94,14.52 -5.33,20.63 62.43,7.86 151.1,31.98 240.54,65.26 6.29,-7.3 15.59,-11.93 25.98,-11.93 z"
     fill="#1140e5"
     id="path28" />
  <path
     d="m 172.41,268.92 c 26.41,-15.66 53.28,-28.73 80.53,-39.2 -0.82,-2.68 -1.27,-5.54 -1.27,-8.49 0,-6.45 2.11,-12.4 5.68,-17.2 -6.91,-4.8 -14.12,-9.31 -21.66,-13.52 -9.25,-5.16 -18.81,-9.76 -28.59,-13.8 -12.56,-4.8 -25.62,-8.57 -39.1,-11.2 -1.32,1.23 -2.64,2.46 -3.94,3.71 -27.54,26.31 -51.69,57.19 -71.79,91.77 -24.19,41.62 -36.65,78.76 -41.93,97.21 1.63,0.77 3.19,1.65 4.7,2.62 24.93,-25.46 64.26,-60.4 117.37,-91.9 z"
     fill="#1140e5"
     id="path29" />
  <path
     d="m 352.88,353.68 c -6.06,-35.02 -19.11,-66.66 -38.91,-94.26 -4.26,-5.94 -8.82,-11.65 -13.64,-17.15 -5.17,4.86 -12.12,7.85 -19.78,7.85 -9.6,0 -18.11,-4.69 -23.36,-11.91 -27.06,10.34 -53.74,23.28 -79.97,38.83 -51.82,30.73 -90.28,64.78 -114.82,89.75 3.39,3.44 6.2,7.46 8.28,11.9 35.47,-8.47 106.67,-20 193.76,-24.03 26.47,-1.22 56.57,-1.81 88.44,-0.98 z"
     fill="#1140e5"
     id="path30" />
  <path
     d="m 212.11,618.72 c 42.87,-17.52 79.48,-47.21 105.53,-84.78 -9.64,-6.07 -16.05,-16.8 -16.05,-29.03 0,-5.08 1.11,-9.89 3.09,-14.22 -90.71,-33.63 -180.29,-57.7 -241.75,-64.66 -1.57,1.65 -3.27,3.18 -5.08,4.56 11.05,32.93 31.44,78.65 58.3,121.8 14.78,23.74 34.52,51.54 59.01,77.61 4.81,-1.07 9.58,-2.27 14.28,-3.61 7.72,-2.19 15.28,-4.76 22.68,-7.66 z"
     fill="#1140e5"
     id="path31" />
  <path
     d="m 32.08,354.09 c 3.19,0 6.3,0.36 9.29,1.03 5.44,-19.04 17.98,-56.18 42.58,-98.57 20.29,-34.98 44.66,-66.26 72.43,-93.01 -11.14,-1.6 -22.53,-2.45 -34.11,-2.45 -17.19,0 -33.94,1.84 -50.1,5.31 C 31.01,224.22 5.03,293.59 0,368.69 c 7.81,-8.94 19.28,-14.6 32.08,-14.6 z"
     fill="#1140e5"
     id="path32" />
  <path
     d="M 164.21,632.17 C 144.36,610.42 125.53,585.31 108.13,557.37 81.42,514.46 60.98,468.93 49.55,435.51 c -5.33,2.4 -11.24,3.75 -17.47,3.75 -12.7,0 -24.1,-5.57 -31.91,-14.39 5.68,77.39 33.6,148.59 77.42,207.23 13.88,2.64 28.18,4.07 42.79,4.19 14.83,-0.21 29.51,-1.58 43.82,-4.11 z"
     fill="#1140e5"
     id="path33" />
  <path
     d="m 370.1,506.35 c 0,0 0,-0.05 0,-0.08 -0.07,0 -0.13,0 -0.2,0 0.07,0.03 0.13,0.06 0.2,0.08 z"
     fill="#ffffff"
     id="path34" />
  <path
     d="m 189.43,626.38 c -4.71,1.34 -9.47,2.54 -14.28,3.61 0.1,0.11 0.21,0.22 0.32,0.33 12.63,-2.89 24.87,-6.79 36.64,-11.61 -7.39,2.9 -14.96,5.47 -22.68,7.66 z"
     fill="#1140e5"
     id="path35" />
  <path
     d="m 120.39,636.28 c 0.63,0 1.25,0.02 1.87,0.02 14.44,0 28.57,-1.29 42.3,-3.76 -0.12,-0.13 -0.23,-0.25 -0.35,-0.38 -14.31,2.54 -28.99,3.91 -43.82,4.11 z"
     fill="#1140e5"
     id="path36" />
</svg>
