<?xml version="1.0" encoding="UTF-8"?>
<svg id="a" data-name="Layer 1" xmlns="http://www.w3.org/2000/svg" width="849.11" height="847.82" viewBox="0 0 849.11 847.82">
  <path d="M573.55,257.2c18.46,31.92,32.12,67.39,40.79,106.18,2.14,9.55,3.86,19.04,5.18,28.49,10.85,3.26,19.44,11.75,22.83,22.54,51.69-7.51,108.22-14.93,132.3-18.04.28-7.84,2.66-15.14,6.6-21.36-24.68-21.18-58.76-45.98-98.15-68.51-29.3-16.76-67.11-35.41-109.56-49.29Z" fill="#009dff"/>
  <path d="M286.47,92.41c-15.26-1.13-30.18-1.21-44.37-.17-18.05,1.32-34.39,4.43-48.08,8.99-.6.42-1.2.84-1.79,1.26,26.44-6.71,54.14-10.29,82.67-10.29,3.87,0,7.73.07,11.57.2Z" fill="#0582fa"/>
  <path d="M306.23,761.28c-.06-.27-.12-.55-.18-.82-10.26.95-20.64,1.43-31.15,1.43-23.61,0-46.65-2.45-68.88-7.1,1.95,1.28,3.92,2.55,5.9,3.8,29.56,6.04,61.37,6.95,94.31,2.69Z" fill="#0582fa"/>
  <path d="M437.74,92.49c13.19,1.71,30.17,4.52,49.8,9.14,42.95,10.1,106.97,31.16,168.03,74.1,46.88,32.97,85.42,73.05,114.54,119.14,14.86,23.52,25.12,45.47,31.53,63.18,3.4-1.36,7-2.29,10.76-2.74-16.37-93.62-65.66-175.92-135.5-234.53-32.14-10.82-79.92-21.82-133.38-26.95-29.92-2.87-66.65-4.37-105.79-1.35Z" fill="#009dff"/>
  <path d="M355.92,94.68c3.81-16.6,18.66-28.99,36.42-28.99,13.76,0,25.77,7.44,32.26,18.51,44.41-4.46,86.33-2.95,119.84.26,33.98,3.26,68.51,9.15,99.84,17.05,4.13,1.04,8.19,2.11,12.16,3.21-65.46-48-146.23-76.34-233.63-76.34-75.13,0-145.37,20.96-205.2,57.33,7.52-1.29,15.47-2.25,23.81-2.86,35.69-2.61,75.84,1.58,114.5,11.84Z" fill="#009dff"/>
  <path d="M512.88,662.59c13.88-13.1,26.51-27.15,37.76-41.95-.59-.35-1.17-.7-1.76-1.05-10.79,15.33-22.84,29.72-36,43Z" fill="#0582fa"/>
  <path d="M624.94,455.37c-.89.44-1.8.85-2.72,1.21-1.83,30.18-8.06,59.61-18.68,88.06-9.58,25.64-22.8,50.29-39.21,73.31,37.61,22.96,68.81,45.91,93.19,68.53,7.66-8.39,18.6-13.72,30.8-13.97-1.49-27.7-5.55-70.36-16.5-113.71-11.27-44.62-27.02-79.34-46.86-103.42Z" fill="#009dff"/>
  <path d="M609.65,390.41s.09,0,.14,0c-1.23-8.28-2.77-16.61-4.64-24.98-2.85-12.72-6.24-25.08-10.18-37.06,6.15,19.96,10.47,40.72,12.8,62.08.62-.03,1.25-.05,1.89-.05Z" fill="#0582fa"/>
  <path d="M608.24,458.94c-5.31,56.16-24.48,108.29-54.07,152.91,0,0,0,0,.01,0,.68.41,1.36.81,2.04,1.22,16.12-22.51,29.11-46.64,38.48-71.73,9.96-26.67,15.92-54.24,17.9-82.51-.97.08-1.96.13-2.95.13-.47,0-.94-.02-1.41-.04Z" fill="#0582fa"/>
  <path d="M478.94,779.73c-14.93,0-29.78-.76-44.52-2.29-22.74-2.36-45.2-6.56-67.26-12.55-4.37,12.33-16.12,21.16-29.95,21.16-11.7,0-21.91-6.32-27.42-15.74-14.8,2.02-29.4,3.04-43.69,3.04-10.85,0-21.53-.59-31.99-1.75,56.08,30.5,120.36,47.84,188.69,47.84,86.73,0,166.95-27.92,232.14-75.26-20.29,8.66-53.52,20.67-95.97,28.32-26.7,4.81-53.49,7.23-80.04,7.23Z" fill="#009dff"/>
  <path d="M715.32,482.67c-24.72-18.5-50.3-32.71-75.35-41.98-1.86,3.52-4.31,6.67-7.22,9.33,20.5,25.16,36.69,60.89,48.2,106.46,11.32,44.78,15.39,88.78,16.84,116.85,8.49,1.72,16.07,5.95,21.94,11.87,31.4-35.66,56.48-77.01,73.49-122.32-19.73-28.93-47.2-57.25-77.9-80.22Z" fill="#009dff"/>
  <path d="M817.56,440.87c-21.03,0-38.52-15.13-42.21-35.09-24.31,3.15-80.24,10.49-131.44,17.93,0,.33.02.65.02.98,0,2.45-.26,4.83-.75,7.14,25.93,9.59,52.34,24.25,77.79,43.3,29.55,22.11,56.2,49.08,76.15,76.9,12.01-35.09,19.22-72.41,20.85-111.16-.14,0-.28.01-.42.01Z" fill="#009dff"/>
  <path d="M425.36,120.56c34.57,16.89,65.93,38.81,92.48,64.82,18.41,18.04,34.53,37.95,48.3,59.61,47.38,14.36,89.54,34.96,121.65,53.32,39.69,22.7,74.17,47.79,99.33,69.34,1.87-1.88,3.92-3.58,6.11-5.09-5.38-15.24-14.81-36.9-31.08-62.65-28.05-44.4-66.78-84.67-111.99-116.47-59.74-42.01-122.43-62.66-164.5-72.57-22.85-5.39-42.27-8.28-56-9.83.04.67.06,1.35.06,2.03,0,6.32-1.58,12.28-4.35,17.5Z" fill="#009dff"/>
  <path d="M507.17,680.45c-39.04,33.67-86.39,60.01-135.75,75.83,20.92,5.58,42.21,9.52,63.75,11.76,40,4.17,80.98,2.57,121.78-4.75,39.02-7,72.43-18.51,94.32-27.78-3.18-5.99-4.99-12.83-4.99-20.09,0-7.74,2.06-14.99,5.64-21.26-24.33-22.71-55.74-45.81-93.16-68.63-14.92,19.75-32.22,38.2-51.59,54.91Z" fill="#009dff"/>
  <path d="M459.47,236.29c-41.14-1.06-81.84,3.53-121.87,13.7-.01.98-.07,1.95-.18,2.9,30.35,4.3,79.11,17.76,129.78,40.91,76.24,34.84,113.33,71.27,131.36,98.46,2.91-1,6-1.62,9.2-1.79-2.32-21.36-6.65-42.12-12.8-62.08-8.9-27.09-20.56-52.26-34.93-75.38-31.75-9.37-65.77-15.81-100.57-16.71Z" fill="#0582fa"/>
  <path d="M590.08,396.55c-11.18-16.61-27.3-32.88-48.1-48.51-21.87-16.43-48.35-31.8-78.7-45.67-48.62-22.22-98.32-36.24-128.47-40.33-.15.32-.31.63-.47.93,5.5,6.18,10.68,12.61,15.49,19.32,20.99,29.27,34.7,62.87,40.86,100.05,61.2,2.13,128.09,9.68,187.82,28.02,2.57-5.58,6.59-10.34,11.58-13.82Z" fill="#0582fa"/>
  <path d="M596.01,456.15c-18.47,17.92-51.4,37.61-89.74,53.3-40.06,16.39-78,25.22-107.27,25.22-.24,0-.47-.01-.71-.01,0,.03,0,.05,0,.08,57.43,24.04,111.11,50.59,155.87,77.12,29.59-44.62,48.76-96.75,54.07-152.91-4.33-.18-8.46-1.15-12.23-2.79Z" fill="#0582fa"/>
  <path d="M164.14,176.97c10.29,1.14,20.59,2.92,30.81,5.29,33.07-29.63,70.69-53.17,112-70.05,10.94-4.47,22.04-8.34,33.22-11.69-17.94-4.07-36.05-6.8-53.7-8.1-3.84-.13-7.7-.2-11.57-.2-28.53,0-56.22,3.57-82.67,10.29-29.48,21.18-55.91,46.33-78.54,74.64,15.22-2.08,32.33-2.17,50.44-.16Z" fill="#0582fa"/>
  <path d="M196.2,193.89c13.48,2.63,26.54,6.39,39.1,11.2-12.29-5.09-24.93-9.26-37.71-12.48-.46.43-.93.85-1.39,1.28Z" fill="#1140e5"/>
  <path d="M396.54,544.22c-2.9,8.64-9.15,15.73-17.2,19.75,7.49,21.87,10.74,49.37,9,77.75-2.13,34.68-11.47,67.31-26.42,92.6,3.03,3.75,5.22,8.2,6.3,13.08,48.28-15.41,94.6-41.16,132.78-74.09,4.05-3.49,8.01-7.07,11.87-10.71,13.15-13.29,25.2-27.67,36-43-43.67-25.86-94.97-51.31-152.33-75.37Z" fill="#0582fa"/>
  <path d="M292.49,225.74c4.63-3.16,10.22-5.01,16.25-5.01,12.81,0,23.66,8.34,27.44,19.88,40.56-10.22,81.83-14.83,123.54-13.75,31.86.82,63.06,6.17,92.49,14.13-12.01-17.57-25.67-33.89-40.96-48.87-26.19-25.66-57.2-47.22-91.41-63.75-6.83,7.42-16.62,12.07-27.5,12.07-19.62,0-35.69-15.12-37.24-34.34-15.02,3.97-29.95,8.86-44.57,14.84-38.33,15.66-73.4,37.2-104.49,64.13,21.61,5.96,42.73,14.58,62.45,25.58,8.38,4.67,16.38,9.71,24.01,15.09Z" fill="#0582fa"/>
  <path d="M240.3,647.1c28.12-11.05,53.68-27.09,74.87-47.12,11.97-11.32,22.47-23.76,31.45-37.18-.27-.16-.53-.32-.79-.48-26.05,37.57-62.66,67.25-105.53,84.78Z" fill="#1140e5"/>
  <path d="M306.05,760.45c-.39-2-.6-4.06-.6-6.17,0-3.69.64-7.23,1.79-10.53-6.98-3.05-13.9-6.29-20.77-9.72-29.85-14.93-58.71-36.67-85.77-64.64-.22-.23-.44-.47-.67-.7-17.98,3.61-36.57,5.43-55.37,5.43-9.76,0-19.58-.5-29.39-1.48,25.78,31.83,56.39,59.6,90.74,82.14,22.23,4.65,45.27,7.1,68.88,7.1,10.5,0,20.89-.49,31.15-1.43Z" fill="#0582fa"/>
  <path d="M148.58,664.66c-14.62-.11-28.92-1.55-42.79-4.19.43.58.88,1.15,1.32,1.73,13.84,1.83,27.72,2.65,41.47,2.46Z" fill="#1140e5"/>
  <path d="M337.22,722.51c6.5,0,12.55,1.96,17.58,5.31,27.95-48.67,30.48-117.48,15.6-160.85-2.06.39-4.18.6-6.35.6-2.95,0-5.82-.37-8.55-1.07-9.59,14.58-20.9,28.09-33.86,40.34-27.86,26.33-62.94,46.04-101.45,57-3.05.87-6.13,1.68-9.22,2.44,22.83,23.02,49.45,44.2,79.72,59.33,6.93,3.47,13.93,6.73,20.98,9.8,5.79-7.82,15.07-12.89,25.55-12.89Z" fill="#0582fa"/>
  <path d="M184.57,191.92c.34-.33.68-.67,1.02-.99.3-.29.6-.57.9-.85-7.78-1.6-15.58-2.86-23.39-3.73-21.46-2.38-41.29-1.72-57.92,1.81-1.63,2.19-3.23,4.4-4.82,6.62,16.15-3.47,32.91-5.31,50.1-5.31,11.58,0,22.97.85,34.11,2.45Z" fill="#1140e5"/>
  <path d="M397.37,525.23c28.14.39,65.52-8.23,105.33-24.52,35.64-14.58,67.16-33.16,85-49.69-7.54-6.29-12.33-15.75-12.33-26.33,0-1.8.14-3.57.41-5.3-58.29-17.91-123.65-25.38-183.7-27.57.24,1.86.47,3.72.67,5.6,4.15,38.28,1.04,74.69-8.88,107.9,6.64,4.72,11.53,11.74,13.5,19.9Z" fill="#0582fa"/>
  <path d="M364.05,499.01c3.95,0,7.74.68,11.28,1.91,9.17-31.58,11.99-66.14,8.05-102.47-.25-2.32-.54-4.63-.85-6.92-32.24-.89-62.73-.3-89.47.93-82.09,3.79-154.53,14.93-191.17,23.58.63,2.91.97,5.93.97,9.03,0,7.49-1.94,14.52-5.33,20.63,62.43,7.86,151.1,31.98,240.54,65.26,6.29-7.3,15.59-11.93,25.98-11.93Z" fill="#1140e5"/>
  <path d="M200.6,297.3c26.41-15.66,53.28-28.73,80.53-39.2-.82-2.68-1.27-5.54-1.27-8.49,0-6.45,2.11-12.4,5.68-17.2-6.91-4.8-14.12-9.31-21.66-13.52-9.25-5.16-18.81-9.76-28.59-13.8-12.56-4.8-25.62-8.57-39.1-11.2-1.32,1.23-2.64,2.46-3.94,3.71-27.54,26.31-51.69,57.19-71.79,91.77-24.19,41.62-36.65,78.76-41.93,97.21,1.63.77,3.19,1.65,4.7,2.62,24.93-25.46,64.26-60.4,117.37-91.9Z" fill="#1140e5"/>
  <path d="M381.07,382.06c-6.06-35.02-19.11-66.66-38.91-94.26-4.26-5.94-8.82-11.65-13.64-17.15-5.17,4.86-12.12,7.85-19.78,7.85-9.6,0-18.11-4.69-23.36-11.91-27.06,10.34-53.74,23.28-79.97,38.83-51.82,30.73-90.28,64.78-114.82,89.75,3.39,3.44,6.2,7.46,8.28,11.9,35.47-8.47,106.67-20,193.76-24.03,26.47-1.22,56.57-1.81,88.44-.98Z" fill="#1140e5"/>
  <path d="M240.3,647.1c42.87-17.52,79.48-47.21,105.53-84.78-9.64-6.07-16.05-16.8-16.05-29.03,0-5.08,1.11-9.89,3.09-14.22-90.71-33.63-180.29-57.7-241.75-64.66-1.57,1.65-3.27,3.18-5.08,4.56,11.05,32.93,31.44,78.65,58.3,121.8,14.78,23.74,34.52,51.54,59.01,77.61,4.81-1.07,9.58-2.27,14.28-3.61,7.72-2.19,15.28-4.76,22.68-7.66Z" fill="#1140e5"/>
  <path d="M60.27,382.47c3.19,0,6.3.36,9.29,1.03,5.44-19.04,17.98-56.18,42.58-98.57,20.29-34.98,44.66-66.26,72.43-93.01-11.14-1.6-22.53-2.45-34.11-2.45-17.19,0-33.94,1.84-50.1,5.31-41.16,57.82-67.14,127.19-72.17,202.29,7.81-8.94,19.28-14.6,32.08-14.6Z" fill="#1140e5"/>
  <path d="M192.4,660.55c-19.85-21.75-38.68-46.86-56.08-74.8-26.71-42.91-47.15-88.44-58.58-121.86-5.33,2.4-11.24,3.75-17.47,3.75-12.7,0-24.1-5.57-31.91-14.39,5.68,77.39,33.6,148.59,77.42,207.23,13.88,2.64,28.18,4.07,42.79,4.19,14.83-.21,29.51-1.58,43.82-4.11Z" fill="#1140e5"/>
  <path d="M398.29,534.73s0-.05,0-.08c-.07,0-.13,0-.2,0,.07.03.13.06.2.08Z" fill="#fff"/>
  <path d="M217.62,654.76c-4.71,1.34-9.47,2.54-14.28,3.61.1.11.21.22.32.33,12.63-2.89,24.87-6.79,36.64-11.61-7.39,2.9-14.96,5.47-22.68,7.66Z" fill="#1140e5"/>
  <path d="M148.58,664.66c.63,0,1.25.02,1.87.02,14.44,0,28.57-1.29,42.3-3.76-.12-.13-.23-.25-.35-.38-14.31,2.54-28.99,3.91-43.82,4.11Z" fill="#1140e5"/>
</svg>
