<?xml version="1.0" encoding="UTF-8"?>
<svg id="a" data-name="Layer 1" xmlns="http://www.w3.org/2000/svg" width="849.11" height="847.82" viewBox="0 0 849.11 847.82">
  <path d="M539.97,306.22c14.16,24.48,24.63,51.69,31.29,81.44,1.64,7.32,2.96,14.61,3.98,21.85,8.32,2.5,14.91,9.01,17.51,17.29,39.65-5.76,83.01-11.45,101.48-13.84.22-6.01,2.04-11.61,5.06-16.38-18.93-16.24-45.07-35.27-75.28-52.55-22.48-12.86-51.47-27.16-84.03-37.81Z" fill="#009dff"/>
  <path d="M319.77,179.82c-11.7-.87-23.15-.92-34.03-.13-13.84,1.02-26.38,3.4-36.88,6.89-.46.32-.92.64-1.37.97,20.28-5.15,41.52-7.89,63.41-7.89,2.97,0,5.93.05,8.87.15Z" fill="#0582fa"/>
  <path d="M334.92,692.86c-.05-.21-.09-.42-.14-.63-7.87.73-15.83,1.1-23.89,1.1-18.11,0-35.78-1.88-52.84-5.45,1.5.98,3.01,1.96,4.53,2.91,22.68,4.63,47.07,5.33,72.34,2.06Z" fill="#0582fa"/>
  <path d="M435.8,179.88c10.12,1.31,23.14,3.46,38.2,7.01,32.94,7.75,82.05,23.9,128.89,56.84,35.96,25.29,65.52,56.03,87.85,91.39,11.4,18.04,19.27,34.88,24.19,48.46,2.6-1.04,5.37-1.76,8.25-2.1-12.56-71.81-50.36-134.93-103.93-179.89-24.65-8.3-61.3-16.74-102.31-20.67-22.95-2.2-51.12-3.35-81.15-1.04Z" fill="#009dff"/>
  <path d="M373.04,181.56c2.92-12.74,14.31-22.24,27.93-22.24,10.55,0,19.77,5.7,24.74,14.19,34.06-3.42,66.22-2.27,91.92.2,26.07,2.5,52.55,7.02,76.58,13.07,3.17.8,6.28,1.62,9.32,2.46-50.21-36.81-112.17-58.56-179.2-58.56-57.63,0-111.5,16.07-157.39,43.98,5.77-.99,11.87-1.73,18.26-2.2,27.37-2.01,58.17,1.21,87.82,9.08Z" fill="#009dff"/>
  <path d="M493.43,617.17c10.65-10.05,20.33-20.83,28.96-32.18-.45-.27-.9-.54-1.35-.81-8.28,11.76-17.52,22.79-27.61,32.99Z" fill="#0582fa"/>
  <path d="M579.38,458.22c-.68.34-1.38.65-2.09.93-1.4,23.15-6.18,45.72-14.33,67.54-7.34,19.67-17.49,38.58-30.07,56.23,28.85,17.61,52.78,35.22,71.48,52.56,5.87-6.43,14.27-10.52,23.62-10.72-1.14-21.25-4.26-53.97-12.66-87.22-8.65-34.22-20.72-60.85-35.95-79.33Z" fill="#009dff"/>
  <path d="M567.66,408.4s.07,0,.11,0c-.94-6.35-2.13-12.74-3.56-19.16-2.18-9.76-4.79-19.23-7.81-28.42,4.71,15.31,8.03,31.23,9.82,47.62.48-.03.96-.04,1.45-.04Z" fill="#0582fa"/>
  <path d="M566.57,460.96c-4.07,43.08-18.78,83.06-41.47,117.29,0,0,0,0,.01,0,.52.31,1.04.62,1.56.93,12.37-17.27,22.33-35.77,29.51-55.02,7.64-20.46,12.21-41.6,13.73-63.29-.75.06-1.5.1-2.26.1-.36,0-.72-.01-1.08-.03Z" fill="#0582fa"/>
  <path d="M467.4,707.01c-11.45,0-22.84-.58-34.14-1.76-17.44-1.81-34.67-5.03-51.59-9.62-3.35,9.45-12.37,16.23-22.97,16.23-8.97,0-16.8-4.85-21.03-12.07-11.35,1.55-22.55,2.33-33.51,2.33-8.32,0-16.51-.45-24.54-1.34,43.02,23.4,92.32,36.7,144.73,36.7,66.53,0,128.05-21.42,178.06-57.73-15.56,6.64-41.05,15.85-73.61,21.72-20.48,3.69-41.03,5.54-61.4,5.54Z" fill="#009dff"/>
  <path d="M648.71,479.16c-18.96-14.19-38.58-25.09-57.8-32.2-1.43,2.7-3.3,5.12-5.54,7.16,15.72,19.3,28.14,46.71,36.97,81.66,8.68,34.35,11.81,68.1,12.92,89.63,6.51,1.32,12.33,4.56,16.83,9.11,24.09-27.35,43.32-59.07,56.37-93.82-15.14-22.19-36.2-43.91-59.75-61.53Z" fill="#009dff"/>
  <path d="M727.13,447.1c-16.13,0-29.55-11.6-32.38-26.91-18.65,2.42-61.55,8.05-100.82,13.75,0,.25.02.5.02.75,0,1.88-.2,3.71-.57,5.47,19.89,7.36,40.14,18.6,59.67,33.21,22.67,16.96,43.11,37.65,58.41,58.99,9.21-26.92,14.74-55.54,16-85.27-.11,0-.22,0-.32,0Z" fill="#009dff"/>
  <path d="M426.3,201.41c26.52,12.96,50.57,29.77,70.94,49.72,14.12,13.84,26.48,29.11,37.05,45.72,36.34,11.02,68.68,26.81,93.31,40.9,30.44,17.41,56.89,36.66,76.19,53.19,1.43-1.44,3-2.75,4.68-3.91-4.12-11.69-11.36-28.3-23.84-48.05-21.52-34.06-51.22-64.95-85.9-89.33-45.82-32.22-93.91-48.06-126.18-55.67-17.53-4.13-32.42-6.35-42.95-7.54.03.52.04,1.03.04,1.56,0,4.85-1.21,9.42-3.33,13.42Z" fill="#009dff"/>
  <path d="M489.05,630.86c-29.94,25.83-66.26,46.03-104.12,58.16,16.05,4.28,32.38,7.3,48.89,9.02,30.68,3.2,62.11,1.97,93.41-3.64,29.93-5.37,55.55-14.2,72.35-21.31-2.44-4.6-3.83-9.84-3.83-15.41,0-5.93,1.58-11.5,4.32-16.3-18.66-17.42-42.75-35.14-71.46-52.64-11.44,15.15-24.71,29.3-39.57,42.12Z" fill="#009dff"/>
  <path d="M452.47,290.18c-31.55-.81-62.78,2.71-93.48,10.51,0,.75-.06,1.49-.14,2.23,23.28,3.3,60.68,13.62,99.54,31.38,58.48,26.72,86.92,54.66,100.76,75.52,2.23-.76,4.6-1.24,7.06-1.37-1.78-16.39-5.1-32.31-9.82-47.62-6.82-20.78-15.77-40.08-26.79-57.82-24.35-7.19-50.45-12.13-77.14-12.82Z" fill="#0582fa"/>
  <path d="M552.65,413.1c-8.58-12.74-20.94-25.22-36.89-37.21-16.77-12.6-37.08-24.39-60.37-35.03-37.29-17.04-75.41-27.8-98.54-30.94-.12.24-.24.48-.36.72,4.22,4.74,8.19,9.67,11.88,14.82,16.1,22.45,26.62,48.23,31.34,76.74,46.94,1.64,98.25,7.42,144.07,21.49,1.97-4.28,5.05-7.93,8.88-10.6Z" fill="#0582fa"/>
  <path d="M557.19,458.81c-14.17,13.75-39.43,28.85-68.83,40.88-30.72,12.57-59.83,19.34-82.28,19.34-.18,0-.36,0-.54,0,0,.02,0,.04,0,.06,44.05,18.44,85.22,38.8,119.56,59.15,22.69-34.23,37.4-74.21,41.47-117.29-3.32-.13-6.49-.88-9.38-2.14Z" fill="#0582fa"/>
  <path d="M225.94,244.68c7.89.88,15.79,2.24,23.63,4.05,25.36-22.73,54.22-40.78,85.91-53.73,8.39-3.43,16.91-6.4,25.48-8.97-13.76-3.12-27.65-5.21-41.19-6.22-2.95-.1-5.9-.15-8.87-.15-21.88,0-43.13,2.74-63.41,7.89-22.61,16.25-42.88,35.53-60.24,57.25,11.68-1.6,24.79-1.67,38.69-.12Z" fill="#0582fa"/>
  <path d="M250.53,257.66c10.34,2.02,20.36,4.9,29.99,8.59-9.43-3.9-19.12-7.11-28.93-9.57-.35.33-.71.65-1.06.98Z" fill="#1140e5"/>
  <path d="M404.2,526.37c-2.23,6.62-7.02,12.07-13.19,15.15,5.75,16.77,8.24,37.87,6.9,59.64-1.64,26.6-8.8,51.63-20.26,71.03,2.33,2.88,4.01,6.29,4.83,10.03,37.03-11.82,72.56-31.57,101.85-56.83,3.11-2.68,6.14-5.42,9.1-8.22,10.09-10.19,19.33-21.23,27.61-32.99-33.5-19.84-72.85-39.35-116.84-57.81Z" fill="#0582fa"/>
  <path d="M324.38,282.09c3.55-2.42,7.84-3.84,12.47-3.84,9.82,0,18.15,6.4,21.05,15.25,31.11-7.84,62.76-11.37,94.76-10.55,24.44.63,48.37,4.73,70.94,10.83-9.21-13.48-19.69-25.99-31.42-37.48-20.08-19.68-43.87-36.22-70.11-48.9-5.24,5.69-12.75,9.26-21.1,9.26-15.05,0-27.38-11.6-28.56-26.34-11.52,3.05-22.97,6.8-34.19,11.38-29.4,12.01-56.3,28.53-80.15,49.19,16.58,4.57,32.77,11.18,47.9,19.62,6.43,3.58,12.57,7.45,18.41,11.57Z" fill="#0582fa"/>
  <path d="M284.35,605.28c21.57-8.47,41.18-20.78,57.43-36.14,9.18-8.68,17.23-18.23,24.12-28.51-.2-.12-.41-.25-.61-.37-19.98,28.81-48.06,51.58-80.95,65.03Z" fill="#1140e5"/>
  <path d="M334.79,692.23c-.3-1.53-.46-3.11-.46-4.74,0-2.83.49-5.55,1.38-8.08-5.35-2.34-10.66-4.82-15.93-7.45-22.9-11.45-45.03-28.13-65.79-49.58-.17-.18-.34-.36-.51-.54-13.79,2.77-28.05,4.17-42.47,4.17-7.49,0-15.02-.38-22.55-1.13,19.78,24.42,43.26,45.71,69.6,63.01,17.05,3.57,34.72,5.45,52.84,5.45,8.06,0,16.02-.37,23.89-1.1Z" fill="#0582fa"/>
  <path d="M214,618.75c-11.21-.09-22.18-1.19-32.82-3.21.33.45.68.88,1.01,1.33,10.61,1.4,21.26,2.03,31.81,1.89Z" fill="#1140e5"/>
  <path d="M358.69,663.12c4.99,0,9.62,1.5,13.49,4.07,21.44-37.33,23.38-90.11,11.97-123.38-1.58.3-3.21.46-4.87.46-2.26,0-4.46-.29-6.56-.82-7.36,11.18-16.03,21.54-25.97,30.94-21.37,20.2-48.28,35.32-77.81,43.72-2.34.67-4.7,1.29-7.08,1.87,17.51,17.66,37.93,33.9,61.15,45.51,5.32,2.66,10.68,5.16,16.09,7.52,4.44-6,11.56-9.88,19.59-9.88Z" fill="#0582fa"/>
  <path d="M241.61,256.15c.26-.25.52-.51.78-.76.23-.22.46-.43.69-.65-5.96-1.23-11.95-2.2-17.94-2.86-16.46-1.83-31.67-1.32-44.43,1.39-1.25,1.68-2.48,3.37-3.7,5.08,12.39-2.66,25.24-4.07,38.43-4.07,8.89,0,17.62.65,26.16,1.88Z" fill="#1140e5"/>
  <path d="M404.83,511.8c21.59.3,50.26-6.31,80.79-18.8,27.34-11.18,51.52-25.44,65.2-38.12-5.78-4.82-9.46-12.08-9.46-20.19,0-1.38.11-2.74.31-4.06-44.71-13.74-94.85-19.47-140.9-21.14.18,1.43.36,2.86.52,4.29,3.18,29.36.8,57.29-6.81,82.77,5.09,3.62,8.84,9,10.35,15.26Z" fill="#0582fa"/>
  <path d="M379.28,491.69c3.03,0,5.94.52,8.65,1.46,7.03-24.22,9.2-50.73,6.17-78.6-.19-1.78-.41-3.55-.65-5.31-24.73-.68-48.11-.23-68.62.71-62.96,2.91-118.53,11.45-146.64,18.08.48,2.23.74,4.55.74,6.92,0,5.74-1.49,11.13-4.09,15.82,47.89,6.03,115.9,24.53,184.5,50.06,4.82-5.6,11.96-9.15,19.93-9.15Z" fill="#1140e5"/>
  <path d="M253.9,336.98c20.26-12.01,40.87-22.04,61.77-30.07-.63-2.06-.97-4.25-.97-6.51,0-4.94,1.62-9.51,4.36-13.19-5.3-3.68-10.83-7.14-16.61-10.37-7.09-3.96-14.43-7.49-21.93-10.59-9.63-3.68-19.65-6.57-29.99-8.59-1.01.94-2.02,1.89-3.02,2.84-21.12,20.18-39.65,43.86-55.07,70.39-18.55,31.92-28.11,60.41-32.16,74.57,1.25.59,2.45,1.27,3.6,2.01,19.12-19.53,49.29-46.33,90.02-70.49Z" fill="#1140e5"/>
  <path d="M392.33,401.98c-4.65-26.86-14.66-51.13-29.84-72.3-3.27-4.55-6.77-8.93-10.47-13.16-3.96,3.73-9.3,6.02-15.17,6.02-7.37,0-13.89-3.6-17.92-9.13-20.75,7.93-41.22,17.85-61.34,29.79-39.74,23.57-69.25,49.69-88.07,68.84,2.6,2.64,4.76,5.72,6.35,9.13,27.21-6.5,81.82-15.34,148.62-18.43,20.3-.94,43.39-1.39,67.84-.75Z" fill="#1140e5"/>
  <path d="M284.35,605.28c32.89-13.44,60.96-36.21,80.95-65.03-7.4-4.65-12.31-12.88-12.31-22.27,0-3.89.85-7.58,2.37-10.91-69.58-25.8-138.29-44.26-185.43-49.6-1.2,1.27-2.51,2.44-3.9,3.5,8.48,25.26,24.11,60.33,44.72,93.42,11.34,18.21,26.48,39.53,45.26,59.53,3.69-.82,7.35-1.74,10.96-2.77,5.92-1.68,11.72-3.65,17.4-5.88Z" fill="#1140e5"/>
  <path d="M146.27,402.3c2.45,0,4.83.28,7.13.79,4.17-14.6,13.79-43.09,32.66-75.61,15.57-26.83,34.26-50.82,55.55-71.34-8.55-1.23-17.28-1.88-26.16-1.88-13.18,0-26.04,1.41-38.43,4.07-31.57,44.35-51.5,97.56-55.36,155.16,5.99-6.86,14.79-11.2,24.61-11.2Z" fill="#1140e5"/>
  <path d="M247.62,615.6c-15.23-16.68-29.67-35.94-43.02-57.38-20.49-32.91-36.17-67.83-44.93-93.47-4.09,1.84-8.62,2.88-13.4,2.88-9.74,0-18.49-4.27-24.47-11.04,4.35,59.36,25.77,113.97,59.39,158.95,10.64,2.02,21.61,3.12,32.82,3.21,11.38-.16,22.64-1.21,33.61-3.16Z" fill="#1140e5"/>
  <path d="M405.54,519.09s0-.04,0-.06c-.05,0-.1,0-.16,0,.05.02.1.04.15.06Z" fill="#fff"/>
  <path d="M266.96,611.16c-3.61,1.03-7.26,1.95-10.96,2.77.08.09.16.17.24.26,9.69-2.22,19.08-5.21,28.11-8.9-5.67,2.23-11.48,4.19-17.4,5.88Z" fill="#1140e5"/>
  <path d="M214,618.75c.48,0,.96.02,1.44.02,11.07,0,21.92-.99,32.44-2.88-.09-.1-.18-.19-.27-.29-10.97,1.95-22.23,3-33.61,3.16Z" fill="#1140e5"/>
</svg>
