<?xml version="1.0" encoding="UTF-8" standalone="no"?>
<svg
   id="a"
   data-name="Layer 1"
   width="606.53998"
   height="607.52002"
   viewBox="0 0 606.53999 607.52001"
   version="1.1"
   sodipodi:docname="platform-mesh-icon-black.svg"
   inkscape:version="1.4.3 (0d15f75, 2025-12-25)"
   inkscape:export-filename="platform-mesh-icon-black.png"
   inkscape:export-xdpi="96"
   inkscape:export-ydpi="96"
   xmlns:inkscape="http://www.inkscape.org/namespaces/inkscape"
   xmlns:sodipodi="http://sodipodi.sourceforge.net/DTD/sodipodi-0.dtd"
   xmlns="http://www.w3.org/2000/svg"
   xmlns:svg="http://www.w3.org/2000/svg">
  <defs
     id="defs38" />
  <sodipodi:namedview
     id="namedview38"
     pagecolor="#ffffff"
     bordercolor="#000000"
     borderopacity="0.25"
     inkscape:showpageshadow="2"
     inkscape:pageopacity="0.0"
     inkscape:pagecheckerboard="0"
     inkscape:deskcolor="#d1d1d1"
     inkscape:zoom="0.030666887"
     inkscape:cx="309.78039"
     inkscape:cy="277.17193"
     inkscape:current-layer="a" />
  <path
     d="m 418.83,175.74 c 14.18,24.51 24.67,51.76 31.33,81.54 1.64,7.33 2.96,14.63 3.98,21.88 8.33,2.5 14.93,9.02 17.53,17.31 39.7,-5.77 83.11,-11.46 101.6,-13.86 0.22,-6.02 2.05,-11.62 5.07,-16.4 -18.96,-16.26 -45.13,-35.31 -75.38,-52.62 -22.5,-12.87 -51.54,-27.2 -84.14,-37.86 z"
     id="path1" />
  <path
     d="m 198.36,49.18 c -11.72,-0.87 -23.18,-0.93 -34.07,-0.13 -13.86,1.02 -26.41,3.4 -36.92,6.9 -0.46,0.32 -0.92,0.64 -1.38,0.97 20.31,-5.16 41.58,-7.9 63.49,-7.9 2.97,0 5.93,0.05 8.88,0.16 z"
     id="path2" />
  <path
     d="m 213.53,562.85 c -0.05,-0.21 -0.09,-0.42 -0.14,-0.63 -7.88,0.73 -15.85,1.1 -23.92,1.1 -18.13,0 -35.83,-1.88 -52.9,-5.45 1.5,0.99 3.01,1.96 4.53,2.92 22.7,4.64 47.13,5.34 72.43,2.06 z"
     id="path3" />
  <path
     d="m 314.53,49.24 c 10.13,1.31 23.17,3.47 38.25,7.02 32.99,7.76 82.15,23.93 129.05,56.91 36,25.32 65.6,56.1 87.96,91.5 11.41,18.06 19.3,34.92 24.22,48.52 2.61,-1.04 5.38,-1.76 8.26,-2.1 C 589.7,179.19 551.85,115.99 498.21,70.98 473.53,62.67 436.83,54.22 395.78,50.29 372.8,48.09 344.59,46.94 314.53,49.25 Z"
     id="path4" />
  <path
     d="m 251.69,50.93 c 2.92,-12.75 14.33,-22.27 27.97,-22.27 10.56,0 19.79,5.71 24.77,14.21 34.11,-3.43 66.3,-2.27 92.04,0.2 26.1,2.5 52.61,7.03 76.68,13.09 3.17,0.8 6.29,1.62 9.34,2.47 C 432.22,21.77 370.19,0 303.07,0 245.37,0 191.43,16.09 145.48,44.03 c 5.77,-0.99 11.88,-1.73 18.28,-2.2 27.41,-2.01 58.25,1.21 87.93,9.09 z"
     id="path5" />
  <path
     d="m 372.24,487.07 c 10.66,-10.06 20.36,-20.85 29,-32.22 -0.45,-0.27 -0.9,-0.54 -1.35,-0.81 -8.29,11.77 -17.54,22.82 -27.64,33.03 z"
     id="path6" />
  <path
     d="m 458.3,327.93 c -0.68,0.34 -1.38,0.65 -2.09,0.93 -1.4,23.18 -6.19,45.78 -14.35,67.63 -7.35,19.69 -17.51,38.63 -30.11,56.3 28.89,17.63 52.85,35.26 71.56,52.63 5.88,-6.44 14.29,-10.53 23.65,-10.73 -1.14,-21.28 -4.26,-54.04 -12.67,-87.33 -8.66,-34.27 -20.75,-60.93 -35.99,-79.43 z"
     id="path7" />
  <path
     d="m 446.55,278.04 c 0,0 0.07,0 0.11,0 -0.95,-6.36 -2.13,-12.76 -3.57,-19.18 -2.19,-9.77 -4.79,-19.26 -7.82,-28.46 4.72,15.33 8.04,31.27 9.83,47.68 0.48,-0.03 0.96,-0.04 1.45,-0.04 z"
     id="path8" />
  <path
     d="m 445.47,330.66 c -4.08,43.13 -18.8,83.16 -41.52,117.43 0,0 0,0 0.01,0 0.53,0.31 1.04,0.62 1.56,0.93 12.38,-17.29 22.35,-35.82 29.55,-55.08 7.65,-20.48 12.23,-41.65 13.75,-63.37 -0.75,0.06 -1.5,0.1 -2.27,0.1 -0.36,0 -0.72,-0.01 -1.08,-0.03 z"
     id="path9" />
  <path
     d="m 346.17,577.03 c -11.47,0 -22.87,-0.59 -34.19,-1.76 -17.46,-1.81 -34.71,-5.03 -51.66,-9.64 -3.35,9.47 -12.38,16.25 -23,16.25 -8.98,0 -16.83,-4.86 -21.06,-12.09 -11.37,1.55 -22.58,2.33 -33.55,2.33 -8.33,0 -16.53,-0.45 -24.57,-1.34 43.07,23.42 92.43,36.74 144.91,36.74 66.61,0 128.21,-21.44 178.28,-57.8 -15.58,6.65 -41.1,15.87 -73.7,21.75 -20.51,3.7 -41.08,5.55 -61.47,5.55 z"
     id="path10" />
  <path
     d="m 527.71,348.89 c -18.99,-14.21 -38.63,-25.12 -57.87,-32.24 -1.43,2.7 -3.31,5.13 -5.55,7.17 15.74,19.32 28.18,46.77 37.02,81.76 8.69,34.39 11.82,68.18 12.94,89.74 6.52,1.32 12.34,4.57 16.85,9.12 24.12,-27.38 43.38,-59.14 56.44,-93.94 -15.16,-22.22 -36.25,-43.96 -59.83,-61.61 z"
     id="path11" />
  <path
     d="m 606.22,316.79 c -16.15,0 -29.58,-11.62 -32.42,-26.95 -18.67,2.42 -61.62,8.06 -100.95,13.77 0,0.25 0.02,0.5 0.02,0.75 0,1.88 -0.2,3.71 -0.57,5.48 19.91,7.37 40.19,18.62 59.74,33.25 22.69,16.98 43.16,37.69 58.48,59.06 9.22,-26.95 14.76,-55.61 16.02,-85.37 -0.11,0 -0.22,0 -0.32,0 z"
     id="path12" />
  <path
     d="m 305.02,70.8 c 26.55,12.97 50.63,29.8 71.03,49.78 14.14,13.86 26.52,29.14 37.09,45.78 36.39,11.03 68.77,26.85 93.42,40.95 30.48,17.44 56.96,36.7 76.28,53.25 1.44,-1.44 3.01,-2.75 4.69,-3.91 -4.13,-11.71 -11.38,-28.34 -23.87,-48.11 -21.54,-34.1 -51.28,-65.03 -86.01,-89.45 C 431.77,86.83 383.62,70.97 351.32,63.35 333.77,59.21 318.86,56.99 308.31,55.8 c 0.03,0.52 0.04,1.04 0.04,1.56 0,4.86 -1.21,9.43 -3.34,13.44 z"
     id="path13" />
  <path
     d="m 367.85,500.78 c -29.98,25.86 -66.35,46.09 -104.25,58.23 16.07,4.29 32.42,7.31 48.96,9.03 30.72,3.2 62.19,1.98 93.53,-3.65 29.97,-5.38 55.62,-14.21 72.44,-21.33 -2.44,-4.6 -3.83,-9.85 -3.83,-15.43 0,-5.94 1.58,-11.51 4.33,-16.33 -18.69,-17.44 -42.81,-35.18 -71.54,-52.71 -11.46,15.17 -24.74,29.34 -39.62,42.17 z"
     id="path14" />
  <path
     d="m 331.22,159.68 c -31.59,-0.81 -62.85,2.71 -93.59,10.52 0,0.75 -0.06,1.5 -0.14,2.23 23.31,3.3 60.75,13.64 99.67,31.42 58.55,26.76 87.03,54.73 100.88,75.61 2.24,-0.76 4.61,-1.24 7.07,-1.37 -1.78,-16.41 -5.11,-32.35 -9.83,-47.68 -6.83,-20.8 -15.79,-40.13 -26.82,-57.89 -24.38,-7.2 -50.51,-12.14 -77.23,-12.83 z"
     id="path15" />
  <path
     d="M 431.53,282.75 C 422.94,270 410.56,257.5 394.59,245.5 377.8,232.88 357.46,221.08 334.15,210.43 296.81,193.37 258.64,182.6 235.49,179.45 c -0.12,0.24 -0.24,0.48 -0.36,0.72 4.23,4.74 8.2,9.68 11.9,14.84 16.12,22.48 26.65,48.29 31.38,76.84 47,1.64 98.37,7.43 144.24,21.52 1.97,-4.28 5.06,-7.94 8.89,-10.61 z"
     id="path16" />
  <path
     d="m 436.08,328.52 c -14.19,13.76 -39.47,28.89 -68.92,40.93 -30.76,12.59 -59.9,19.37 -82.38,19.37 -0.18,0 -0.36,0 -0.54,0 0,0.02 0,0.04 0,0.06 44.1,18.46 85.33,38.85 119.71,59.23 22.72,-34.27 37.45,-74.3 41.52,-117.43 -3.33,-0.13 -6.49,-0.89 -9.39,-2.14 z"
     id="path17" />
  <path
     d="m 104.41,114.12 c 7.9,0.88 15.81,2.24 23.66,4.06 25.4,-22.75 54.29,-40.83 86.01,-53.8 8.4,-3.43 16.93,-6.41 25.51,-8.98 -13.78,-3.13 -27.68,-5.22 -41.24,-6.22 -2.95,-0.1 -5.91,-0.16 -8.88,-0.16 -21.91,0 -43.18,2.74 -63.49,7.9 -22.64,16.27 -42.94,35.58 -60.32,57.32 11.69,-1.6 24.83,-1.67 38.74,-0.12 z"
     id="path18" />
  <path
     d="m 129.03,127.11 c 10.35,2.02 20.38,4.91 30.03,8.6 -9.44,-3.91 -19.14,-7.11 -28.96,-9.58 -0.36,0.33 -0.71,0.65 -1.06,0.98 z"
     id="path19" />
  <path
     d="m 282.89,396.16 c -2.23,6.63 -7.02,12.08 -13.21,15.17 5.75,16.79 8.25,37.91 6.91,59.71 -1.64,26.63 -8.81,51.69 -20.29,71.12 2.33,2.88 4.01,6.3 4.84,10.04 37.07,-11.84 72.65,-31.61 101.97,-56.9 3.11,-2.68 6.15,-5.43 9.12,-8.23 10.1,-10.21 19.35,-21.25 27.64,-33.03 -33.54,-19.86 -72.94,-39.4 -116.99,-57.89 z"
     id="path20" />
  <path
     d="m 202.98,151.57 c 3.56,-2.43 7.85,-3.85 12.48,-3.85 9.83,0 18.17,6.4 21.07,15.27 31.15,-7.85 62.84,-11.39 94.87,-10.56 24.47,0.63 48.43,4.74 71.03,10.85 -9.22,-13.5 -19.71,-26.02 -31.46,-37.53 -20.11,-19.7 -43.93,-36.26 -70.2,-48.96 -5.25,5.7 -12.77,9.27 -21.12,9.27 -15.07,0 -27.41,-11.61 -28.6,-26.37 -11.53,3.05 -23,6.81 -34.23,11.4 -29.44,12.03 -56.37,28.57 -80.25,49.25 16.6,4.58 32.81,11.2 47.96,19.65 6.43,3.59 12.58,7.46 18.44,11.59 z"
     id="path21" />
  <path
     d="m 162.9,475.17 c 21.6,-8.48 41.23,-20.8 57.5,-36.18 9.19,-8.69 17.26,-18.25 24.15,-28.55 -0.2,-0.12 -0.41,-0.25 -0.61,-0.37 -20.01,28.85 -48.12,51.65 -81.05,65.11 z"
     id="path22" />
  <path
     d="m 213.4,562.22 c -0.3,-1.53 -0.46,-3.12 -0.46,-4.74 0,-2.83 0.49,-5.55 1.38,-8.09 -5.36,-2.34 -10.68,-4.83 -15.95,-7.46 -22.92,-11.46 -45.09,-28.16 -65.87,-49.64 -0.17,-0.18 -0.34,-0.36 -0.51,-0.54 -13.81,2.77 -28.09,4.17 -42.52,4.17 -7.5,0 -15.04,-0.38 -22.57,-1.14 19.8,24.45 43.31,45.77 69.69,63.08 17.07,3.57 34.77,5.45 52.9,5.45 8.07,0 16.04,-0.38 23.92,-1.1 z"
     id="path23" />
  <path
     d="m 92.46,488.66 c -11.23,-0.09 -22.21,-1.19 -32.86,-3.22 0.33,0.45 0.68,0.88 1.02,1.33 10.63,1.41 21.29,2.03 31.85,1.89 z"
     id="path24" />
  <path
     d="m 237.33,533.08 c 4.99,0 9.64,1.5 13.5,4.08 21.46,-37.38 23.41,-90.22 11.98,-123.53 -1.58,0.3 -3.21,0.46 -4.88,0.46 -2.27,0 -4.47,-0.29 -6.56,-0.83 -7.37,11.2 -16.05,21.57 -26,30.98 -21.39,20.22 -48.34,35.36 -77.91,43.77 -2.34,0.67 -4.71,1.29 -7.08,1.87 17.53,17.68 37.98,33.94 61.22,45.56 5.32,2.66 10.69,5.17 16.11,7.53 4.44,-6 11.58,-9.9 19.62,-9.9 z"
     id="path25" />
  <path
     d="m 120.1,125.6 c 0.26,-0.25 0.52,-0.51 0.78,-0.76 0.23,-0.22 0.46,-0.44 0.69,-0.65 -5.97,-1.23 -11.97,-2.2 -17.96,-2.86 -16.48,-1.83 -31.71,-1.32 -44.48,1.39 -1.25,1.68 -2.48,3.38 -3.7,5.09 12.4,-2.66 25.27,-4.08 38.47,-4.08 8.9,0 17.64,0.65 26.2,1.88 z"
     id="path26" />
  <path
     d="m 283.53,381.58 c 21.61,0.3 50.32,-6.32 80.89,-18.83 27.37,-11.2 51.58,-25.47 65.28,-38.16 -5.79,-4.83 -9.47,-12.09 -9.47,-20.22 0,-1.38 0.11,-2.74 0.31,-4.07 -44.76,-13.76 -94.96,-19.49 -141.08,-21.17 0.18,1.43 0.36,2.86 0.52,4.3 3.19,29.4 0.8,57.36 -6.82,82.87 5.1,3.62 8.85,9.01 10.37,15.28 z"
     id="path27" />
  <path
     d="m 257.94,361.44 c 3.03,0 5.95,0.52 8.66,1.46 7.04,-24.25 9.21,-50.8 6.18,-78.7 -0.19,-1.78 -0.41,-3.55 -0.65,-5.32 -24.76,-0.68 -48.17,-0.23 -68.71,0.72 -63.04,2.91 -118.67,11.46 -146.82,18.11 0.48,2.24 0.74,4.55 0.74,6.93 0,5.75 -1.49,11.15 -4.09,15.84 47.95,6.03 116.04,24.56 184.73,50.12 4.83,-5.61 11.97,-9.16 19.95,-9.16 z"
     id="path28" />
  <path
     d="m 132.41,206.53 c 20.28,-12.03 40.92,-22.06 61.85,-30.11 -0.63,-2.06 -0.98,-4.25 -0.98,-6.52 0,-4.95 1.62,-9.52 4.36,-13.21 -5.3,-3.68 -10.85,-7.15 -16.64,-10.38 -7.1,-3.96 -14.45,-7.5 -21.95,-10.6 -9.64,-3.69 -19.68,-6.58 -30.03,-8.6 -1.01,0.94 -2.02,1.89 -3.03,2.85 -21.15,20.2 -39.7,43.92 -55.13,70.48 -18.57,31.96 -28.14,60.48 -32.2,74.66 1.25,0.59 2.45,1.27 3.61,2.01 19.14,-19.55 49.35,-46.38 90.14,-70.58 z"
     id="path29" />
  <path
     d="m 271.01,271.62 c -4.66,-26.89 -14.68,-51.2 -29.88,-72.39 -3.27,-4.56 -6.77,-8.95 -10.48,-13.17 -3.97,3.74 -9.31,6.03 -15.19,6.03 -7.38,0 -13.91,-3.6 -17.94,-9.14 -20.78,7.94 -41.27,17.88 -61.41,29.82 -39.79,23.6 -69.33,49.75 -88.18,68.93 2.61,2.64 4.76,5.73 6.36,9.14 27.24,-6.51 81.92,-15.36 148.8,-18.45 20.33,-0.94 43.45,-1.39 67.92,-0.75 z"
     id="path30" />
  <path
     d="m 162.9,475.17 c 32.93,-13.46 61.04,-36.26 81.05,-65.11 -7.4,-4.66 -12.33,-12.9 -12.33,-22.29 0,-3.9 0.85,-7.59 2.37,-10.92 -69.66,-25.83 -138.46,-44.32 -185.66,-49.66 -1.21,1.27 -2.51,2.44 -3.9,3.5 8.49,25.29 24.14,60.4 44.77,93.54 11.35,18.23 26.51,39.58 45.32,59.6 3.7,-0.82 7.36,-1.75 10.97,-2.77 5.93,-1.69 11.74,-3.65 17.42,-5.89 z"
     id="path31" />
  <path
     d="m 24.64,271.94 c 2.45,0 4.84,0.28 7.14,0.79 4.17,-14.62 13.81,-43.14 32.7,-75.7 15.58,-26.86 34.3,-50.89 55.62,-71.43 -8.56,-1.23 -17.3,-1.88 -26.2,-1.88 -13.2,0 -26.07,1.41 -38.47,4.08 C 23.82,172.2 3.87,225.48 0,283.16 6,276.29 14.81,271.95 24.64,271.95 Z"
     id="path32" />
  <path
     d="M 126.12,485.5 C 110.87,468.8 96.41,449.52 83.05,428.05 62.53,395.1 46.84,360.13 38.07,334.47 c -4.1,1.85 -8.63,2.88 -13.42,2.88 -9.76,0 -18.51,-4.28 -24.5,-11.05 4.36,59.43 25.8,114.12 59.46,159.15 10.66,2.03 21.64,3.13 32.86,3.22 11.39,-0.16 22.67,-1.21 33.65,-3.16 z"
     id="path33" />
  <path
     d="m 284.24,388.87 c 0,0 0,-0.04 0,-0.06 -0.05,0 -0.1,0 -0.16,0 0.05,0.02 0.1,0.04 0.15,0.06 z"
     fill="#ffffff"
     id="path34" />
  <path
     d="m 435.28,230.4 c -6.28,-20.41 -15.04,-39.73 -25.91,-57.63 -0.3,-0.09 -0.61,-0.18 -0.91,-0.27 11.03,17.76 19.99,37.09 26.82,57.89 z"
     id="path35" />
  <path
     d="m 261.15,552.2 c 0.07,0.31 0.13,0.63 0.19,0.95 42.56,-12.36 80.56,-35.42 110.9,-66.08 -2.97,2.8 -6,5.54 -9.12,8.23 -29.32,25.29 -64.9,45.06 -101.97,56.9 z"
     id="path36" />
  <path
     d="m 145.48,481.05 c -3.61,1.03 -7.27,1.95 -10.97,2.77 0.08,0.09 0.16,0.17 0.24,0.26 9.7,-2.22 19.1,-5.22 28.14,-8.91 -5.68,2.23 -11.49,4.2 -17.42,5.89 z"
     id="path37" />
  <path
     d="m 92.46,488.66 c 0.48,0 0.96,0.02 1.44,0.02 11.09,0 21.94,-0.99 32.48,-2.89 -0.09,-0.1 -0.18,-0.19 -0.27,-0.29 -10.99,1.95 -22.26,3 -33.65,3.16 z"
     id="path38" />
</svg>
