<?xml version="1.0" encoding="UTF-8"?>
<svg id="a" data-name="Layer 1" xmlns="http://www.w3.org/2000/svg" width="849.11" height="847.82" viewBox="0 0 849.11 847.82">
  <path d="M551.47,306.33c14.18,24.51,24.67,51.76,31.33,81.54,1.64,7.33,2.96,14.63,3.98,21.88,8.33,2.5,14.93,9.02,17.53,17.31,39.7-5.77,83.11-11.46,101.6-13.86.22-6.02,2.05-11.62,5.07-16.4-18.96-16.26-45.13-35.31-75.38-52.62-22.5-12.87-51.54-27.2-84.14-37.86Z"/>
  <path d="M331,179.77c-11.72-.87-23.18-.93-34.07-.13-13.86,1.02-26.41,3.4-36.92,6.9-.46.32-.92.64-1.38.97,20.31-5.16,41.58-7.9,63.49-7.9,2.97,0,5.93.05,8.88.16Z"/>
  <path d="M346.17,693.44c-.05-.21-.09-.42-.14-.63-7.88.73-15.85,1.1-23.92,1.1-18.13,0-35.83-1.88-52.9-5.45,1.5.99,3.01,1.96,4.53,2.92,22.7,4.64,47.13,5.34,72.43,2.06Z"/>
  <path d="M447.17,179.83c10.13,1.31,23.17,3.47,38.25,7.02,32.99,7.76,82.15,23.93,129.05,56.91,36,25.32,65.6,56.1,87.96,91.5,11.41,18.06,19.3,34.92,24.22,48.52,2.61-1.04,5.38-1.76,8.26-2.1-12.57-71.9-50.42-135.1-104.06-180.11-24.68-8.31-61.38-16.76-102.43-20.69-22.98-2.2-51.19-3.35-81.25-1.04Z"/>
  <path d="M384.33,181.52c2.92-12.75,14.33-22.27,27.97-22.27,10.56,0,19.79,5.71,24.77,14.21,34.11-3.43,66.3-2.27,92.04.2,26.1,2.5,52.61,7.03,76.68,13.09,3.17.8,6.29,1.62,9.34,2.47-50.27-36.86-112.3-58.63-179.42-58.63-57.7,0-111.64,16.09-157.59,44.03,5.77-.99,11.88-1.73,18.28-2.2,27.41-2.01,58.25,1.21,87.93,9.09Z"/>
  <path d="M504.88,617.66c10.66-10.06,20.36-20.85,29-32.22-.45-.27-.9-.54-1.35-.81-8.29,11.77-17.54,22.82-27.64,33.03Z"/>
  <path d="M590.94,458.52c-.68.34-1.38.65-2.09.93-1.4,23.18-6.19,45.78-14.35,67.63-7.35,19.69-17.51,38.63-30.11,56.3,28.89,17.63,52.85,35.26,71.56,52.63,5.88-6.44,14.29-10.53,23.65-10.73-1.14-21.28-4.26-54.04-12.67-87.33-8.66-34.27-20.75-60.93-35.99-79.43Z"/>
  <path d="M579.19,408.63s.07,0,.11,0c-.95-6.36-2.13-12.76-3.57-19.18-2.19-9.77-4.79-19.26-7.82-28.46,4.72,15.33,8.04,31.27,9.83,47.68.48-.03.96-.04,1.45-.04Z"/>
  <path d="M578.11,461.25c-4.08,43.13-18.8,83.16-41.52,117.43,0,0,0,0,.01,0,.53.31,1.04.62,1.56.93,12.38-17.29,22.35-35.82,29.55-55.08,7.65-20.48,12.23-41.65,13.75-63.37-.75.06-1.5.1-2.27.1-.36,0-.72-.01-1.08-.03Z"/>
  <path d="M478.81,707.62c-11.47,0-22.87-.59-34.19-1.76-17.46-1.81-34.71-5.03-51.66-9.64-3.35,9.47-12.38,16.25-23,16.25-8.98,0-16.83-4.86-21.06-12.09-11.37,1.55-22.58,2.33-33.55,2.33-8.33,0-16.53-.45-24.57-1.34,43.07,23.42,92.43,36.74,144.91,36.74,66.61,0,128.21-21.44,178.28-57.8-15.58,6.65-41.1,15.87-73.7,21.75-20.51,3.7-41.08,5.55-61.47,5.55Z"/>
  <path d="M660.35,479.48c-18.99-14.21-38.63-25.12-57.87-32.24-1.43,2.7-3.31,5.13-5.55,7.17,15.74,19.32,28.18,46.77,37.02,81.76,8.69,34.39,11.82,68.18,12.94,89.74,6.52,1.32,12.34,4.57,16.85,9.12,24.12-27.38,43.38-59.14,56.44-93.94-15.16-22.22-36.25-43.96-59.83-61.61Z"/>
  <path d="M738.86,447.38c-16.15,0-29.58-11.62-32.42-26.95-18.67,2.42-61.62,8.06-100.95,13.77,0,.25.02.5.02.75,0,1.88-.2,3.71-.57,5.48,19.91,7.37,40.19,18.62,59.74,33.25,22.69,16.98,43.16,37.69,58.48,59.06,9.22-26.95,14.76-55.61,16.02-85.37-.11,0-.22,0-.32,0Z"/>
  <path d="M437.66,201.39c26.55,12.97,50.63,29.8,71.03,49.78,14.14,13.86,26.52,29.14,37.09,45.78,36.39,11.03,68.77,26.85,93.42,40.95,30.48,17.44,56.96,36.7,76.28,53.25,1.44-1.44,3.01-2.75,4.69-3.91-4.13-11.71-11.38-28.34-23.87-48.11-21.54-34.1-51.28-65.03-86.01-89.45-45.88-32.26-94.03-48.12-126.33-55.74-17.55-4.14-32.46-6.36-43.01-7.55.03.52.04,1.04.04,1.56,0,4.86-1.21,9.43-3.34,13.44Z"/>
  <path d="M500.49,631.37c-29.98,25.86-66.35,46.09-104.25,58.23,16.07,4.29,32.42,7.31,48.96,9.03,30.72,3.2,62.19,1.98,93.53-3.65,29.97-5.38,55.62-14.21,72.44-21.33-2.44-4.6-3.83-9.85-3.83-15.43,0-5.94,1.58-11.51,4.33-16.33-18.69-17.44-42.81-35.18-71.54-52.71-11.46,15.17-24.74,29.34-39.62,42.17Z"/>
  <path d="M463.86,290.27c-31.59-.81-62.85,2.71-93.59,10.52,0,.75-.06,1.5-.14,2.23,23.31,3.3,60.75,13.64,99.67,31.42,58.55,26.76,87.03,54.73,100.88,75.61,2.24-.76,4.61-1.24,7.07-1.37-1.78-16.41-5.11-32.35-9.83-47.68-6.83-20.8-15.79-40.13-26.82-57.89-24.38-7.2-50.51-12.14-77.23-12.83Z"/>
  <path d="M564.17,413.34c-8.59-12.75-20.97-25.25-36.94-37.25-16.79-12.62-37.13-24.42-60.44-35.07-37.34-17.06-75.51-27.83-98.66-30.98-.12.24-.24.48-.36.72,4.23,4.74,8.2,9.68,11.9,14.84,16.12,22.48,26.65,48.29,31.38,76.84,47,1.64,98.37,7.43,144.24,21.52,1.97-4.28,5.06-7.94,8.89-10.61Z"/>
  <path d="M568.72,459.11c-14.19,13.76-39.47,28.89-68.92,40.93-30.76,12.59-59.9,19.37-82.38,19.37-.18,0-.36,0-.54,0,0,.02,0,.04,0,.06,44.1,18.46,85.33,38.85,119.71,59.23,22.72-34.27,37.45-74.3,41.52-117.43-3.33-.13-6.49-.89-9.39-2.14Z"/>
  <path d="M237.05,244.71c7.9.88,15.81,2.24,23.66,4.06,25.4-22.75,54.29-40.83,86.01-53.8,8.4-3.43,16.93-6.41,25.51-8.98-13.78-3.13-27.68-5.22-41.24-6.22-2.95-.1-5.91-.16-8.88-.16-21.91,0-43.18,2.74-63.49,7.9-22.64,16.27-42.94,35.58-60.32,57.32,11.69-1.6,24.83-1.67,38.74-.12Z"/>
  <path d="M261.67,257.7c10.35,2.02,20.38,4.91,30.03,8.6-9.44-3.91-19.14-7.11-28.96-9.58-.36.33-.71.65-1.06.98Z"/>
  <path d="M415.53,526.75c-2.23,6.63-7.02,12.08-13.21,15.17,5.75,16.79,8.25,37.91,6.91,59.71-1.64,26.63-8.81,51.69-20.29,71.12,2.33,2.88,4.01,6.3,4.84,10.04,37.07-11.84,72.65-31.61,101.97-56.9,3.11-2.68,6.15-5.43,9.12-8.23,10.1-10.21,19.35-21.25,27.64-33.03-33.54-19.86-72.94-39.4-116.99-57.89Z"/>
  <path d="M335.62,282.16c3.56-2.43,7.85-3.85,12.48-3.85,9.83,0,18.17,6.4,21.07,15.27,31.15-7.85,62.84-11.39,94.87-10.56,24.47.63,48.43,4.74,71.03,10.85-9.22-13.5-19.71-26.02-31.46-37.53-20.11-19.7-43.93-36.26-70.2-48.96-5.25,5.7-12.77,9.27-21.12,9.27-15.07,0-27.41-11.61-28.6-26.37-11.53,3.05-23,6.81-34.23,11.4-29.44,12.03-56.37,28.57-80.25,49.25,16.6,4.58,32.81,11.2,47.96,19.65,6.43,3.59,12.58,7.46,18.44,11.59Z"/>
  <path d="M295.54,605.76c21.6-8.48,41.23-20.8,57.5-36.18,9.19-8.69,17.26-18.25,24.15-28.55-.2-.12-.41-.25-.61-.37-20.01,28.85-48.12,51.65-81.05,65.11Z"/>
  <path d="M346.04,692.81c-.3-1.53-.46-3.12-.46-4.74,0-2.83.49-5.55,1.38-8.09-5.36-2.34-10.68-4.83-15.95-7.46-22.92-11.46-45.09-28.16-65.87-49.64-.17-.18-.34-.36-.51-.54-13.81,2.77-28.09,4.17-42.52,4.17-7.5,0-15.04-.38-22.57-1.14,19.8,24.45,43.31,45.77,69.69,63.08,17.07,3.57,34.77,5.45,52.9,5.45,8.07,0,16.04-.38,23.92-1.1Z"/>
  <path d="M225.1,619.25c-11.23-.09-22.21-1.19-32.86-3.22.33.45.68.88,1.02,1.33,10.63,1.41,21.29,2.03,31.85,1.89Z"/>
  <path d="M369.97,663.67c4.99,0,9.64,1.5,13.5,4.08,21.46-37.38,23.41-90.22,11.98-123.53-1.58.3-3.21.46-4.88.46-2.27,0-4.47-.29-6.56-.83-7.37,11.2-16.05,21.57-26,30.98-21.39,20.22-48.34,35.36-77.91,43.77-2.34.67-4.71,1.29-7.08,1.87,17.53,17.68,37.98,33.94,61.22,45.56,5.32,2.66,10.69,5.17,16.11,7.53,4.44-6,11.58-9.9,19.62-9.9Z"/>
  <path d="M252.74,256.19c.26-.25.52-.51.78-.76.23-.22.46-.44.69-.65-5.97-1.23-11.97-2.2-17.96-2.86-16.48-1.83-31.71-1.32-44.48,1.39-1.25,1.68-2.48,3.38-3.7,5.09,12.4-2.66,25.27-4.08,38.47-4.08,8.9,0,17.64.65,26.2,1.88Z"/>
  <path d="M416.17,512.17c21.61.3,50.32-6.32,80.89-18.83,27.37-11.2,51.58-25.47,65.28-38.16-5.79-4.83-9.47-12.09-9.47-20.22,0-1.38.11-2.74.31-4.07-44.76-13.76-94.96-19.49-141.08-21.17.18,1.43.36,2.86.52,4.3,3.19,29.4.8,57.36-6.82,82.87,5.1,3.62,8.85,9.01,10.37,15.28Z"/>
  <path d="M390.58,492.03c3.03,0,5.95.52,8.66,1.46,7.04-24.25,9.21-50.8,6.18-78.7-.19-1.78-.41-3.55-.65-5.32-24.76-.68-48.17-.23-68.71.72-63.04,2.91-118.67,11.46-146.82,18.11.48,2.24.74,4.55.74,6.93,0,5.75-1.49,11.15-4.09,15.84,47.95,6.03,116.04,24.56,184.73,50.12,4.83-5.61,11.97-9.16,19.95-9.16Z"/>
  <path d="M265.05,337.12c20.28-12.03,40.92-22.06,61.85-30.11-.63-2.06-.98-4.25-.98-6.52,0-4.95,1.62-9.52,4.36-13.21-5.3-3.68-10.85-7.15-16.64-10.38-7.1-3.96-14.45-7.5-21.95-10.6-9.64-3.69-19.68-6.58-30.03-8.6-1.01.94-2.02,1.89-3.03,2.85-21.15,20.2-39.7,43.92-55.13,70.48-18.57,31.96-28.14,60.48-32.2,74.66,1.25.59,2.45,1.27,3.61,2.01,19.14-19.55,49.35-46.38,90.14-70.58Z"/>
  <path d="M403.65,402.21c-4.66-26.89-14.68-51.2-29.88-72.39-3.27-4.56-6.77-8.95-10.48-13.17-3.97,3.74-9.31,6.03-15.19,6.03-7.38,0-13.91-3.6-17.94-9.14-20.78,7.94-41.27,17.88-61.41,29.82-39.79,23.6-69.33,49.75-88.18,68.93,2.61,2.64,4.76,5.73,6.36,9.14,27.24-6.51,81.92-15.36,148.8-18.45,20.33-.94,43.45-1.39,67.92-.75Z"/>
  <path d="M295.54,605.76c32.93-13.46,61.04-36.26,81.05-65.11-7.4-4.66-12.33-12.9-12.33-22.29,0-3.9.85-7.59,2.37-10.92-69.66-25.83-138.46-44.32-185.66-49.66-1.21,1.27-2.51,2.44-3.9,3.5,8.49,25.29,24.14,60.4,44.77,93.54,11.35,18.23,26.51,39.58,45.32,59.6,3.7-.82,7.36-1.75,10.97-2.77,5.93-1.69,11.74-3.65,17.42-5.89Z"/>
  <path d="M157.28,402.53c2.45,0,4.84.28,7.14.79,4.17-14.62,13.81-43.14,32.7-75.7,15.58-26.86,34.3-50.89,55.62-71.43-8.56-1.23-17.3-1.88-26.2-1.88-13.2,0-26.07,1.41-38.47,4.08-31.61,44.4-51.56,97.68-55.43,155.36,6-6.87,14.81-11.21,24.64-11.21Z"/>
  <path d="M258.76,616.09c-15.25-16.7-29.71-35.98-43.07-57.45-20.52-32.95-36.21-67.92-44.98-93.58-4.1,1.85-8.63,2.88-13.42,2.88-9.76,0-18.51-4.28-24.5-11.05,4.36,59.43,25.8,114.12,59.46,159.15,10.66,2.03,21.64,3.13,32.86,3.22,11.39-.16,22.67-1.21,33.65-3.16Z"/>
  <path d="M416.88,519.46s0-.04,0-.06c-.05,0-.1,0-.16,0,.05.02.1.04.15.06Z" fill="#fff"/>
  <path d="M567.92,360.99c-6.28-20.41-15.04-39.73-25.91-57.63-.3-.09-.61-.18-.91-.27,11.03,17.76,19.99,37.09,26.82,57.89Z"/>
  <path d="M393.79,682.79c.07.31.13.63.19.95,42.56-12.36,80.56-35.42,110.9-66.08-2.97,2.8-6,5.54-9.12,8.23-29.32,25.29-64.9,45.06-101.97,56.9Z"/>
  <path d="M278.12,611.64c-3.61,1.03-7.27,1.95-10.97,2.77.08.09.16.17.24.26,9.7-2.22,19.1-5.22,28.14-8.91-5.68,2.23-11.49,4.2-17.42,5.89Z"/>
  <path d="M225.1,619.25c.48,0,.96.02,1.44.02,11.09,0,21.94-.99,32.48-2.89-.09-.1-.18-.19-.27-.29-10.99,1.95-22.26,3-33.65,3.16Z"/>
</svg>
