<?xml version="1.0" encoding="UTF-8"?>
<svg id="a" data-name="Layer 1" xmlns="http://www.w3.org/2000/svg" width="4412.36" height="945.12" xmlns:xlink="http://www.w3.org/1999/xlink" viewBox="0 0 4412.36 945.12">
  <defs>
    <linearGradient id="c" x1="831.5" y1="845.35" x2="-6.22" y2="0" gradientUnits="userSpaceOnUse">
      <stop offset="0" stop-color="#000"/>
      <stop offset="1" stop-color="#333"/>
    </linearGradient>
    <linearGradient id="f" x1="821.83" y1="832.17" x2="-145.36" y2="-135.01" gradientUnits="userSpaceOnUse">
      <stop offset="0" stop-color="#333"/>
      <stop offset="1" stop-color="#999"/>
    </linearGradient>
    <linearGradient id="i" x1="761.99" y1="769.98" x2="213.66" y2="236.89" gradientUnits="userSpaceOnUse">
      <stop offset="0" stop-color="#999"/>
      <stop offset="1" stop-color="#fff"/>
    </linearGradient>
  </defs>
  <g id="b" data-name="layer1">
    <path id="d" data-name="rect2727" d="M182.8,65.23h694.57v822.66H54.71V193.32c0-70.74,57.35-128.09,128.09-128.09Z" fill="url(#c)"/>
  </g>
  <g id="e" data-name="layer2">
    <path id="g" data-name="rect6963" d="M390.14,272.21h487.24v615.68H262.04v-487.59c0-70.74,57.35-128.09,128.09-128.09h0Z" fill="url(#f)"/>
  </g>
  <g id="h" data-name="layer3">
    <path id="j" data-name="rect12826" d="M592.64,475.07h284.73v412.82h-412.82v-284.73c0-70.74,57.35-128.09,128.09-128.09h0Z" fill="url(#i)"/>
  </g>
  <path d="M3907.62,666.54V170.57h210.15c123.91,0,182,63.71,182,158.05,0,88-56.67,162.98-177.06,162.98h-121.43v174.95h-93.65ZM4001.27,412.05h108.4c65.48,0,96.1-31.68,96.1-82.38s-33.79-78.48-98.9-78.48h-105.6v160.87Z"/>
  <path d="M3513.71,666.54V170.57h325.61v82.02h-231.97v134.81h223.87v81.33h-223.87v197.83h-93.65Z"/>
  <path d="M2902.08,666.54V170.57h131.64l105.6,294.62c6.33,19.73,18.31,61.25,21.84,80.27,3.86-19.02,17.23-59.49,23.93-79.56l103.84-295.33h128.5v495.98h-85.89v-300.97c0-44,.71-77.43,2.46-102.78-7.04,26.04-20.42,70.75-32.03,103.83l-105.95,299.92h-71.46l-107.37-299.92c-11.98-34.48-26.04-78.14-32.03-103.83,1.4,25.69,1.77,61.94,1.77,102.78v300.97h-84.84Z"/>
  <path d="M2423.86,666.54v-385.1h86.24v80.96h1.41c17.59-44,52.81-88.35,126.38-88.35,82.71,0,119.67,56.32,119.67,138.34v254.15h-89.06v-232.68c0-51.76-17.94-83.09-69.7-83.09s-85.88,35.21-85.88,99.98v215.79h-89.06Z"/>
  <path d="M2194.43,673.57c-123.55,0-201-70.75-201-199.57s88.35-199.94,193.25-199.94c128.83,0,174.59,94.34,174.59,187.96,0,11.26-.7,22.87-1.41,33.79h-272.45c6.34,73.21,44.35,108.06,111.23,108.06,43.3,0,72.16-12.66,98.21-42.93l51.74,51.73c-35.9,40.47-79.9,60.89-154.18,60.89ZM2088.83,440.55h183.75c-4.93-67.93-38.02-97.85-88-97.85s-86.95,29.92-95.75,97.85Z"/>
  <path d="M1567.38,816.49V281.44h86.24v79.2h1.06c18.66-44.35,54.91-86.58,136.23-86.58,97.86,0,163.33,76.03,163.33,199.94s-60.19,199.57-160.16,199.57c-74.63,0-117.57-39.76-135.87-83.42h-1.76v226.34h-89.06ZM1655.74,473.99c0,82.71,42.59,127.42,102.43,127.42s102.79-44.71,102.79-127.42-42.94-127.44-102.79-127.44-102.43,44.37-102.43,127.44Z"/>
  <path d="M1256.47,673.57c-142.56,0-249.92-94.68-249.92-255.2s107.36-255.2,249.92-255.2,249.22,95.05,249.22,255.2-107.01,255.2-249.22,255.2ZM1103.35,418.36c0,106.31,58.08,172.48,153.12,172.48s152.42-66.17,152.42-172.48-57.73-172.13-152.42-172.13-153.12,66.19-153.12,172.13Z"/>
</svg>
