<svg width="2308" height="477" viewBox="0 0 2308 477" fill="none" xmlns="http://www.w3.org/2000/svg">
<path fill-rule="evenodd" clip-rule="evenodd" d="M226.053 410.62C228.554 411.87 231.495 411.873 233.999 410.631L379.986 338.18C384.396 335.992 386.197 330.643 384.008 326.233C381.82 321.824 376.471 320.023 372.061 322.211L230.05 392.689L93.9981 324.719V166.302L230.251 84.1899L371.695 161.486C376.015 163.847 381.431 162.259 383.791 157.939C386.152 153.619 384.564 148.203 380.244 145.843L234.308 66.0918C231.527 64.5718 228.147 64.6432 225.433 66.2792L80.4836 153.632C77.8072 155.245 76.1709 158.142 76.1709 161.267V330.23C76.1709 333.607 78.0796 336.694 81.1008 338.204L226.053 410.62Z" fill="white"/>
<path fill-rule="evenodd" clip-rule="evenodd" d="M222.363 361.282C224.405 362.276 226.799 362.237 228.808 361.177L325.5 310.18L374.192 335.185C377.696 336.984 381.994 335.603 383.793 332.099C385.592 328.596 384.211 324.298 380.707 322.499L340.577 301.891L380.916 279.453C383.191 278.188 384.595 275.784 384.581 273.181C384.566 270.578 383.134 268.19 380.846 266.951L337.422 243.436L380.762 220.707C383.101 219.48 384.571 217.06 384.581 214.418C384.591 211.777 383.139 209.346 380.809 208.102L337.665 185.058L380.859 161.546C384.318 159.664 385.596 155.333 383.713 151.874C381.83 148.415 377.5 147.137 374.041 149.02L322.608 177.017L236.616 131.088C234.432 129.922 231.8 129.972 229.662 131.22L132.119 188.158C129.846 189.484 128.489 191.955 128.588 194.585C128.687 197.215 130.227 199.576 132.593 200.728L174.733 221.237L132.103 246.271C129.839 247.6 128.489 250.066 128.588 252.689C128.687 255.313 130.22 257.67 132.578 258.824L175.422 279.801L132.121 305.057C129.847 306.383 128.489 308.855 128.588 311.485C128.687 314.116 130.228 316.478 132.595 317.629L222.363 361.282ZM190.223 271.169L150.766 251.85L233.398 203.324L362.63 273.305L325.338 294.048L236.539 247.994C234.37 246.869 231.775 246.933 229.664 248.165L190.223 271.169ZM310.07 302.195L233.458 262.462L150.846 310.646L225.35 346.877L310.07 302.195ZM189.502 212.563L150.836 193.746L233.411 145.545L362.206 214.334L322.314 235.255L236.652 188.868C234.456 187.679 231.799 187.725 229.645 188.989L189.502 212.563Z" fill="white"/>
<path d="M2114.12 332.964V143.597H2242.98V180.222H2155.35V219.018H2230.5V255.372H2155.35V296.339H2242.98V332.964H2114.12Z" fill="white"/>
<path d="M1972.54 332.964H1931.31V143.597H2021.11C2029.79 143.597 2037.66 145.044 2044.71 147.937C2051.76 150.831 2057.73 154.991 2062.62 160.417C2067.68 165.662 2071.57 171.993 2074.28 179.408C2076.99 186.824 2078.35 195.053 2078.35 204.097C2078.35 216.938 2075.46 228.152 2069.67 237.738C2064.06 247.324 2055.47 254.287 2043.9 258.628L2081.06 332.964H2035.21L2002.12 263.511H1972.54V332.964ZM2015.95 228.785C2022.1 228.785 2026.89 227.248 2030.33 224.173C2033.95 220.917 2035.76 216.215 2035.76 210.065V198.128C2035.76 191.979 2033.95 187.366 2030.33 184.292C2026.89 181.036 2022.1 179.408 2015.95 179.408H1972.54V228.785H2015.95Z" fill="white"/>
<path d="M1813.6 336.219C1801.12 336.219 1789.72 334.139 1779.41 329.98C1769.11 325.82 1760.33 319.67 1753.1 311.531C1745.86 303.211 1740.26 292.992 1736.28 280.874C1732.3 268.575 1730.31 254.377 1730.31 238.28C1730.31 222.183 1732.3 208.075 1736.28 195.957C1740.26 183.658 1745.86 173.439 1753.1 165.3C1760.33 156.981 1769.11 150.741 1779.41 146.581C1789.72 142.421 1801.12 140.341 1813.6 140.341C1826.08 140.341 1837.47 142.421 1847.78 146.581C1858.09 150.741 1866.86 156.981 1874.1 165.3C1881.33 173.439 1886.94 183.658 1890.92 195.957C1894.9 208.075 1896.89 222.183 1896.89 238.28C1896.89 254.377 1894.9 268.575 1890.92 280.874C1886.94 292.992 1881.33 303.211 1874.1 311.531C1866.86 319.67 1858.09 325.82 1847.78 329.98C1837.47 334.139 1826.08 336.219 1813.6 336.219ZM1813.6 299.594C1826.08 299.594 1835.75 295.524 1842.63 287.385C1849.68 279.246 1853.21 267.581 1853.21 252.388V224.173C1853.21 208.98 1849.68 197.314 1842.63 189.175C1835.75 181.036 1826.08 176.966 1813.6 176.966C1801.12 176.966 1791.35 181.036 1784.3 189.175C1777.43 197.314 1773.99 208.98 1773.99 224.173V252.388C1773.99 267.581 1777.43 279.246 1784.3 287.385C1791.35 295.524 1801.12 299.594 1813.6 299.594Z" fill="white"/>
<path d="M1640.87 336.219C1628.03 336.219 1616.45 334.23 1606.14 330.251C1595.83 326.091 1587.06 320.032 1579.83 312.074C1572.59 303.935 1566.98 293.897 1563.01 281.959C1559.03 269.841 1557.04 255.734 1557.04 239.637C1557.04 223.72 1559.03 209.613 1563.01 197.314C1566.98 184.834 1572.59 174.434 1579.83 166.114C1587.06 157.614 1595.83 151.193 1606.14 146.852C1616.45 142.511 1628.03 140.341 1640.87 140.341C1658.41 140.341 1672.88 143.958 1684.28 151.193C1695.67 158.247 1704.81 169.46 1711.68 184.834L1676.14 203.282C1673.61 195.324 1669.63 188.994 1664.2 184.291C1658.96 179.408 1651.18 176.966 1640.87 176.966C1628.75 176.966 1618.98 180.945 1611.57 188.904C1604.33 196.681 1600.72 208.075 1600.72 223.087V253.473C1600.72 268.485 1604.33 279.97 1611.57 287.928C1618.98 295.705 1628.75 299.594 1640.87 299.594C1651 299.594 1659.05 296.881 1665.01 291.455C1671.16 285.848 1675.69 279.156 1678.58 271.379L1712.22 290.912C1705.17 305.382 1695.85 316.595 1684.28 324.554C1672.88 332.331 1658.41 336.219 1640.87 336.219Z" fill="white"/>
<path d="M1420.76 180.222V332.964H1379.52V180.222H1328.25V143.597H1472.04V180.222H1420.76Z" fill="white"/>
<path d="M1218.08 332.964V143.597H1259.32V296.339H1331.49V332.964H1218.08Z" fill="white"/>
<path d="M1149.02 332.964L1135.45 287.928H1072.24L1058.68 332.964H1016.9L1079.3 143.597H1130.3L1191.88 332.964H1149.02ZM1104.26 181.036H1102.9L1082.01 252.931H1125.42L1104.26 181.036Z" fill="white"/>
<path d="M855.38 143.597H947.351C963.086 143.597 975.294 148.028 983.976 156.89C992.839 165.753 997.27 177.509 997.27 192.159C997.27 199.394 996.275 205.543 994.285 210.608C992.477 215.672 989.945 219.832 986.689 223.088C983.614 226.343 979.907 228.785 975.566 230.413C971.406 231.86 966.884 232.674 962.001 232.854V234.482C966.522 234.482 971.225 235.296 976.108 236.924C981.173 238.552 985.785 241.174 989.945 244.792C994.105 248.228 997.541 252.75 1000.25 258.357C1003.15 263.963 1004.59 270.836 1004.59 278.975C1004.59 286.391 1003.33 293.445 1000.8 300.137C998.445 306.648 995.099 312.345 990.759 317.229C986.418 322.112 981.263 326.001 975.294 328.895C969.326 331.608 962.815 332.964 955.761 332.964H855.38V143.597ZM896.617 298.238H944.095C949.521 298.238 953.771 296.791 956.846 293.897C960.102 290.822 961.729 286.572 961.729 281.146V271.922C961.729 266.496 960.102 262.336 956.846 259.442C953.771 256.367 949.521 254.83 944.095 254.83H896.617V298.238ZM896.617 221.188H937.584C943.01 221.188 947.26 219.651 950.335 216.576C953.41 213.502 954.947 209.251 954.947 203.825V195.686C954.947 190.26 953.41 186.01 950.335 182.935C947.26 179.86 943.01 178.323 937.584 178.323H896.617V221.188Z" fill="white"/>
<path d="M737.671 336.219C725.191 336.219 713.797 334.139 703.487 329.98C693.178 325.82 684.406 319.67 677.171 311.531C669.936 303.211 664.329 292.992 660.35 280.874C656.371 268.575 654.382 254.377 654.382 238.28C654.382 222.183 656.371 208.075 660.35 195.957C664.329 183.658 669.936 173.439 677.171 165.3C684.406 156.981 693.178 150.741 703.487 146.581C713.797 142.421 725.191 140.341 737.671 140.341C750.151 140.341 761.545 142.421 771.855 146.581C782.164 150.741 790.936 156.981 798.171 165.3C805.405 173.439 811.012 183.658 814.991 195.957C818.97 208.075 820.96 222.183 820.96 238.28C820.96 254.377 818.97 268.575 814.991 280.874C811.012 292.992 805.405 303.211 798.171 311.531C790.936 319.67 782.164 325.82 771.855 329.98C761.545 334.139 750.151 336.219 737.671 336.219ZM737.671 299.594C750.151 299.594 759.827 295.524 766.7 287.385C773.754 279.246 777.281 267.581 777.281 252.388V224.173C777.281 208.98 773.754 197.314 766.7 189.175C759.827 181.036 750.151 176.966 737.671 176.966C725.191 176.966 715.424 181.036 708.371 189.175C701.498 197.314 698.061 208.98 698.061 224.173V252.388C698.061 267.581 701.498 279.246 708.371 287.385C715.424 295.524 725.191 299.594 737.671 299.594Z" fill="white"/>
<path d="M564.942 336.219C552.101 336.219 540.525 334.23 530.216 330.251C519.906 326.091 511.134 320.032 503.9 312.074C496.665 303.935 491.058 293.897 487.079 281.959C483.1 269.841 481.11 255.734 481.11 239.637C481.11 223.72 483.1 209.613 487.079 197.314C491.058 184.834 496.665 174.434 503.9 166.114C511.134 157.614 519.906 151.193 530.216 146.852C540.525 142.511 552.101 140.341 564.942 140.341C582.486 140.341 596.955 143.958 608.35 151.193C619.745 158.247 628.878 169.46 635.751 184.834L600.211 203.282C597.679 195.324 593.7 188.994 588.274 184.291C583.029 179.408 575.251 176.966 564.942 176.966C552.824 176.966 543.057 180.945 535.642 188.904C528.407 196.681 524.79 208.075 524.79 223.087V253.473C524.79 268.485 528.407 279.97 535.642 287.928C543.057 295.705 552.824 299.594 564.942 299.594C575.071 299.594 583.119 296.881 589.088 291.455C595.237 285.848 599.759 279.156 602.653 271.379L636.294 290.912C629.24 305.382 619.926 316.595 608.35 324.554C596.955 332.331 582.486 336.219 564.942 336.219Z" fill="white"/>
</svg>
