<?xml version="1.0" encoding="UTF-8"?>
<svg id="Layer_1" data-name="Layer 1" xmlns="http://www.w3.org/2000/svg" viewBox="0 0 1221 1221">
  <defs>
    <style>
      .cls-1 {
        fill: #fff;
      }
    </style>
  </defs>
  <circle class="cls-1" cx="607.95" cy="627.79" r="503.29"/>
  <g>
    <path d="M799.88,415.53c23.49,40.62,40.87,85.76,51.91,135.12,2.72,12.15,4.91,24.24,6.6,36.25,13.81,4.15,24.73,14.95,29.05,28.69,65.78-9.56,137.72-19,168.36-22.96.36-9.97,3.39-19.26,8.4-27.18-31.41-26.95-74.78-58.52-124.9-87.19-37.29-21.33-85.4-45.07-139.42-62.73Z"/>
    <path d="M434.54,205.82c-19.42-1.44-38.41-1.53-56.46-.21-22.97,1.68-43.77,5.63-61.18,11.44-.76.54-1.52,1.06-2.28,1.61,33.65-8.54,68.89-13.09,105.2-13.09,4.93,0,9.83.09,14.72.26Z"/>
    <path d="M459.69,1057c-.08-.35-.16-.7-.23-1.05-13.05,1.2-26.27,1.83-39.64,1.83-30.05,0-59.37-3.12-87.66-9.03,2.49,1.63,4.99,3.24,7.51,4.83,37.62,7.69,78.09,8.85,120.02,3.42Z"/>
    <path d="M627.04,205.92c16.78,2.18,38.39,5.75,63.38,11.63,54.66,12.86,136.12,39.65,213.84,94.3,59.66,41.96,108.7,92.97,145.76,151.62,18.91,29.93,31.97,57.87,40.13,80.4,4.32-1.73,8.91-2.91,13.69-3.48-20.83-119.14-83.55-223.87-172.43-298.45-40.9-13.78-101.7-27.77-169.74-34.29-38.08-3.65-84.82-5.56-134.63-1.72Z"/>
    <path d="M522.92,208.71c4.84-21.13,23.75-36.9,46.35-36.9,17.51,0,32.79,9.47,41.05,23.55,56.52-5.68,109.87-3.76,152.51.33,43.25,4.15,87.18,11.65,127.06,21.69,5.26,1.32,10.42,2.69,15.47,4.09-83.31-61.08-186.09-97.15-297.31-97.15-95.62,0-185,26.67-261.13,72.96,9.57-1.64,19.69-2.87,30.3-3.65,45.41-3.33,96.52,2.01,145.71,15.07Z"/>
    <path d="M722.67,931.42c17.66-16.67,33.74-34.55,48.05-53.39-.75-.45-1.49-.89-2.25-1.34-13.74,19.51-29.07,37.82-45.81,54.73Z"/>
    <path d="M865.27,667.72c-1.13.56-2.29,1.08-3.47,1.54-2.33,38.41-10.25,75.86-23.78,112.06-12.19,32.63-29.02,64-49.9,93.29,47.86,29.22,87.57,58.43,118.59,87.21,9.75-10.67,23.67-17.45,39.19-17.78-1.89-35.26-7.06-89.54-21-144.71-14.35-56.78-34.38-100.96-59.64-131.62Z"/>
    <path d="M845.81,585.05c.06,0,.12,0,.18,0-1.57-10.54-3.53-21.14-5.91-31.79-3.62-16.19-7.95-31.91-12.95-47.16,7.82,25.4,13.33,51.82,16.28,79.01.8-.04,1.59-.07,2.4-.07Z"/>
    <path d="M844.02,672.25c-6.75,71.47-31.16,137.8-68.81,194.59,0,0,.01,0,.02.01.87.52,1.73,1.03,2.59,1.55,20.52-28.65,37.04-59.35,48.97-91.28,12.67-33.94,20.26-69.02,22.78-105-1.24.11-2.49.17-3.76.17-.6,0-1.2-.02-1.79-.05Z"/>
    <path d="M679.48,1080.49c-19,0-37.9-.97-56.65-2.91-28.94-3-57.52-8.34-85.6-15.97-5.56,15.69-20.52,26.92-38.11,26.92-14.88,0-27.88-8.05-34.9-20.03-18.84,2.57-37.41,3.86-55.6,3.86-13.81,0-27.4-.75-40.71-2.23,71.37,38.82,153.17,60.88,240.13,60.88,110.38,0,212.45-35.53,295.42-95.77-25.82,11.02-68.11,26.3-122.13,36.04-33.98,6.13-68.07,9.2-101.86,9.2Z"/>
    <path d="M980.29,702.46c-31.46-23.54-64.01-41.63-95.9-53.43-2.37,4.48-5.48,8.49-9.19,11.88,26.08,32.02,46.69,77.49,61.34,135.48,14.4,56.99,19.59,112.98,21.44,148.71,10.81,2.19,20.46,7.57,27.92,15.11,39.96-45.37,71.88-98,93.52-155.66-25.11-36.82-60.06-72.85-99.14-102.09Z"/>
    <path d="M1110.39,649.26c-26.77,0-49.02-19.25-53.72-44.65-30.94,4.01-102.11,13.35-167.27,22.82.01.42.03.83.03,1.25,0,3.11-.33,6.15-.95,9.08,33,12.21,66.6,30.86,99,55.1,37.61,28.14,71.52,62.46,96.91,97.86,15.28-44.66,24.46-92.14,26.54-141.47-.18,0-.36.01-.54.01Z"/>
    <path d="M611.29,241.64c43.99,21.49,83.9,49.38,117.69,82.49,23.43,22.96,43.94,48.29,61.47,75.85,60.3,18.28,113.95,44.49,154.8,67.85,50.51,28.89,94.39,60.82,126.4,88.24,2.38-2.39,4.98-4.56,7.77-6.48-6.84-19.4-18.85-46.95-39.55-79.72-35.7-56.5-84.98-107.75-142.52-148.22-76.03-53.46-155.81-79.73-209.34-92.36-29.08-6.86-53.79-10.54-71.26-12.51.05.86.07,1.72.07,2.58,0,8.05-2.01,15.62-5.53,22.26Z"/>
    <path d="M715.4,954.14c-49.68,42.85-109.94,76.37-172.75,96.49,26.63,7.11,53.71,12.11,81.12,14.97,50.91,5.31,103.05,3.27,154.98-6.04,49.66-8.91,92.17-23.55,120.03-35.35-4.05-7.63-6.35-16.32-6.35-25.56,0-9.85,2.62-19.07,7.17-27.05-30.96-28.9-70.93-58.29-118.55-87.34-18.98,25.13-41,48.61-65.66,69.88Z"/>
    <path d="M654.7,388.91c-52.35-1.35-104.15,4.49-155.09,17.43-.02,1.25-.09,2.48-.23,3.69,38.62,5.47,100.67,22.6,165.15,52.06,97.02,44.34,144.22,90.69,167.17,125.3,3.71-1.27,7.63-2.06,11.71-2.28-2.95-27.19-8.46-53.6-16.28-79.01-11.32-34.47-26.17-66.5-44.45-95.93-40.41-11.93-83.7-20.12-127.98-21.26Z"/>
    <path d="M820.92,592.86c-14.23-21.13-34.74-41.84-61.21-61.73-27.83-20.91-61.53-40.46-100.16-58.12-61.87-28.27-125.12-46.12-163.49-51.33-.19.4-.4.8-.6,1.19,7,7.86,13.59,16.05,19.71,24.59,26.72,37.25,44.16,80.01,52,127.33,77.88,2.71,163.01,12.31,239.02,35.66,3.27-7.1,8.38-13.16,14.73-17.58Z"/>
    <path d="M828.46,668.7c-23.51,22.81-65.41,47.86-114.2,67.82-50.98,20.86-99.27,32.09-136.51,32.09-.3,0-.6-.01-.9-.01,0,.03,0,.07,0,.1,73.08,30.6,141.39,64.38,198.36,98.14,37.65-56.79,62.06-123.12,68.81-194.59-5.51-.22-10.76-1.47-15.56-3.55Z"/>
    <path d="M278.87,313.43c13.09,1.45,26.2,3.71,39.21,6.73,42.08-37.7,89.96-67.66,142.53-89.14,13.92-5.69,28.05-10.62,42.27-14.88-22.83-5.18-45.87-8.65-68.34-10.31-4.89-.17-9.79-.26-14.72-.26-36.31,0-71.55,4.55-105.2,13.09-37.51,26.96-71.15,58.95-99.95,94.99,19.37-2.65,41.14-2.77,64.19-.21Z"/>
    <path d="M319.66,334.95c17.15,3.34,33.78,8.14,49.76,14.25-15.65-6.47-31.72-11.79-47.99-15.88-.59.54-1.18,1.08-1.76,1.63Z"/>
    <path d="M574.62,780.78c-3.69,10.99-11.64,20.02-21.89,25.14,9.53,27.83,13.67,62.83,11.45,98.94-2.71,44.13-14.6,85.66-33.62,117.84,3.86,4.77,6.65,10.44,8.02,16.64,61.44-19.62,120.39-52.38,168.98-94.29,5.16-4.45,10.19-8.99,15.11-13.63,16.74-16.91,32.07-35.22,45.81-54.73-55.58-32.91-120.86-65.29-193.86-95.92Z"/>
    <path d="M442.2,375.49c5.89-4.02,13.01-6.37,20.68-6.37,16.3,0,30.11,10.61,34.92,25.3,51.62-13,104.13-18.87,157.21-17.5,40.55,1.04,80.25,7.85,117.7,17.98-15.28-22.36-32.66-43.12-52.12-62.19-33.32-32.65-72.79-60.09-116.32-81.13-8.69,9.44-21.15,15.37-35,15.37-24.97,0-45.42-19.24-47.39-43.7-19.11,5.06-38.11,11.28-56.72,18.88-48.78,19.93-93.41,47.34-132.98,81.61,27.51,7.58,54.37,18.55,79.48,32.56,10.66,5.95,20.85,12.35,30.55,19.2Z"/>
    <path d="M375.78,911.7c35.79-14.06,68.32-34.47,95.28-59.96,15.24-14.4,28.59-30.24,40.02-47.31-.34-.2-.67-.41-1.01-.62-33.16,47.81-79.74,85.58-134.3,107.89Z"/>
    <path d="M459.46,1055.96c-.5-2.54-.77-5.17-.77-7.86,0-4.7.81-9.2,2.28-13.4-8.88-3.88-17.69-8-26.43-12.37-37.99-18.99-74.71-46.67-109.15-82.26-.28-.29-.56-.59-.85-.89-22.88,4.59-46.54,6.91-70.46,6.91-12.43,0-24.92-.63-37.41-1.88,32.81,40.51,71.77,75.84,115.47,104.53,28.29,5.92,57.61,9.03,87.66,9.03,13.37,0,26.59-.62,39.64-1.83Z"/>
    <path d="M259.07,934.06c-18.6-.15-36.8-1.97-54.46-5.33.55.74,1.13,1.46,1.68,2.2,17.61,2.33,35.28,3.37,52.77,3.13Z"/>
    <path d="M499.12,1007.67c8.28,0,15.97,2.49,22.38,6.76,35.57-61.94,38.79-149.51,19.86-204.69-2.62.49-5.32.76-8.08.76-3.76,0-7.4-.48-10.88-1.37-12.21,18.55-26.6,35.74-43.09,51.33-35.45,33.51-80.1,58.59-129.1,72.53-3.88,1.1-7.8,2.14-11.74,3.1,29.06,29.3,62.93,56.24,101.45,75.5,8.82,4.41,17.72,8.56,26.69,12.47,7.36-9.95,19.18-16.4,32.51-16.4Z"/>
    <path d="M304.86,332.45c.43-.42.86-.85,1.3-1.26.38-.36.77-.72,1.15-1.08-9.9-2.04-19.83-3.64-29.76-4.74-27.31-3.03-52.55-2.18-73.71,2.3-2.07,2.79-4.12,5.6-6.13,8.43,20.56-4.41,41.88-6.76,63.75-6.76,14.74,0,29.23,1.08,43.41,3.11Z"/>
    <path d="M575.67,756.62c35.81.49,83.38-10.47,134.04-31.2,45.36-18.56,85.47-42.2,108.17-63.24-9.59-8-15.69-20.04-15.69-33.51,0-2.29.18-4.55.52-6.74-74.18-22.79-157.36-32.3-233.77-35.08.31,2.37.6,4.74.86,7.13,5.28,48.71,1.32,95.05-11.3,137.32,8.45,6,14.67,14.94,17.18,25.32Z"/>
    <path d="M533.27,723.25c5.03,0,9.85.86,14.35,2.43,11.67-40.18,15.26-84.17,10.24-130.41-.32-2.95-.68-5.89-1.08-8.81-41.03-1.13-79.82-.39-113.85,1.19-104.46,4.83-196.65,19-243.28,30,.8,3.7,1.23,7.54,1.23,11.49,0,9.53-2.47,18.47-6.78,26.25,79.45,10,192.29,40.7,306.11,83.05,8-9.29,19.84-15.19,33.06-15.19Z"/>
    <path d="M325.26,466.56c33.61-19.93,67.81-36.56,102.48-49.89-1.05-3.42-1.62-7.04-1.62-10.81,0-8.2,2.69-15.78,7.23-21.89-8.79-6.1-17.97-11.85-27.57-17.2-11.77-6.56-23.94-12.42-36.38-17.57-15.98-6.11-32.61-10.9-49.76-14.25-1.68,1.56-3.35,3.13-5.02,4.72-35.04,33.48-65.78,72.77-91.36,116.79-30.78,52.96-46.64,100.22-53.36,123.71,2.07.98,4.06,2.1,5.98,3.33,31.72-32.39,81.77-76.86,149.36-116.95Z"/>
    <path d="M554.93,574.41c-7.72-44.56-24.32-84.83-49.51-119.96-5.42-7.56-11.22-14.82-17.36-21.83-6.58,6.19-15.43,9.99-25.17,9.99-12.22,0-23.04-5.97-29.73-15.15-34.43,13.15-68.39,29.62-101.77,49.42-65.94,39.11-114.89,82.43-146.12,114.22,4.32,4.38,7.9,9.5,10.53,15.14,45.14-10.78,135.75-25.45,246.58-30.57,33.68-1.56,72-2.3,112.55-1.25Z"/>
    <path d="M375.78,911.7c54.56-22.3,101.14-60.08,134.3-107.89-12.27-7.72-20.43-21.37-20.43-36.94,0-6.46,1.41-12.58,3.93-18.1-115.44-42.8-229.43-73.43-307.65-82.29-2,2.1-4.16,4.04-6.47,5.8,14.07,41.91,40.01,100.09,74.19,155,18.81,30.21,43.94,65.58,75.09,98.76,6.13-1.36,12.19-2.89,18.18-4.59,9.82-2.79,19.45-6.06,28.86-9.75Z"/>
    <path d="M146.68,574.94c4.06,0,8.02.46,11.82,1.31,6.92-24.23,22.89-71.49,54.18-125.44,25.83-44.52,56.84-84.32,92.17-118.36-14.18-2.04-28.67-3.11-43.41-3.11-21.87,0-43.2,2.34-63.75,6.76-52.38,73.58-85.44,161.86-91.85,257.43,9.93-11.38,24.54-18.58,40.83-18.58Z"/>
    <path d="M314.83,928.82c-25.26-27.67-49.23-59.63-71.37-95.2-34-54.6-60.01-112.55-74.54-155.07-6.79,3.06-14.31,4.77-22.24,4.77-16.17,0-30.67-7.09-40.6-18.32,7.22,98.48,42.76,189.1,98.53,263.72,17.66,3.36,35.86,5.18,54.46,5.33,18.88-.26,37.56-2.01,55.77-5.23Z"/>
    <path class="cls-1" d="M576.85,768.7s0-.07,0-.1c-.09,0-.17,0-.26,0,.08.04.17.07.26.11Z"/>
    <path d="M827.13,506.11c-10.41-33.82-24.92-65.84-42.94-95.49-.5-.15-1.01-.3-1.51-.44,18.28,29.43,33.13,61.46,44.45,95.93Z"/>
    <path d="M538.58,1039.34c.11.52.22,1.04.31,1.57,70.52-20.48,133.49-58.69,183.77-109.49-4.91,4.64-9.95,9.19-15.11,13.63-48.59,41.91-107.54,74.67-168.98,94.29Z"/>
    <path d="M346.92,921.45c-5.99,1.7-12.05,3.23-18.18,4.59.13.14.27.28.4.42,16.07-3.68,31.65-8.65,46.63-14.77-9.41,3.7-19.04,6.96-28.86,9.75Z"/>
    <path d="M259.07,934.06c.8,0,1.59.03,2.38.03,18.37,0,36.36-1.64,53.83-4.78-.15-.16-.3-.32-.45-.48-18.21,3.23-36.89,4.97-55.77,5.23Z"/>
  </g>
</svg>
