<?xml version="1.0" encoding="UTF-8"?>
<svg id="a" data-name="Layer 1" xmlns="http://www.w3.org/2000/svg" width="678.31" height="664.28" viewBox="0 0 678.31 664.28">
  <g>
    <rect x="156.92" y="459.64" width="342.15" height="67.11" fill="none"/>
    <path d="M163.29,512.11v-48.47h14.58c3.6,0,6.79.46,9.58,1.37,2.79.91,4.97,2.44,6.55,4.59,1.58,2.15,2.37,5.02,2.37,8.62s-.78,6.39-2.33,8.66c-1.55,2.27-3.71,3.96-6.48,5.07s-5.9,1.67-9.4,1.67h-7.47v18.5h-7.4ZM170.69,487.61h6.73c3.95,0,6.87-.76,8.77-2.29,1.9-1.53,2.85-3.9,2.85-7.1s-1-5.51-3-6.77-4.97-1.89-8.92-1.89h-6.44v18.06Z"/>
    <path d="M205.76,512.11v-48.47h7.4v42.18h20.65v6.29h-28.05Z"/>
    <path d="M235.95,512.11l16.13-48.47h8.51l16.13,48.47h-7.84l-7.92-26.42c-.84-2.66-1.63-5.34-2.37-8.03-.74-2.69-1.48-5.41-2.22-8.18h-.3c-.69,2.76-1.42,5.49-2.18,8.18-.77,2.69-1.57,5.37-2.41,8.03l-7.99,26.42h-7.55ZM244.98,498.2v-5.85h22.57v5.85h-22.57Z"/>
    <path d="M288.71,512.11v-42.18h-14.36v-6.29h36.04v6.29h-14.28v42.18h-7.4Z"/>
    <path d="M318.76,512.11v-48.47h28.64v6.22h-21.24v15.02h18.06v6.29h-18.06v20.94h-7.4Z"/>
    <path d="M373.59,513c-4.14,0-7.8-1.02-10.95-3.07-3.16-2.05-5.64-4.97-7.44-8.77-1.8-3.8-2.7-8.29-2.7-13.47s.9-9.71,2.7-13.43c1.8-3.72,4.28-6.57,7.44-8.55,3.16-1.97,6.81-2.96,10.95-2.96s7.79.99,10.95,2.96c3.16,1.97,5.64,4.82,7.44,8.55s2.7,8.2,2.7,13.43-.9,9.67-2.7,13.47c-1.8,3.8-4.28,6.72-7.44,8.77-3.16,2.05-6.81,3.07-10.95,3.07ZM373.59,506.48c2.71,0,5.07-.76,7.07-2.29,2-1.53,3.55-3.71,4.66-6.55,1.11-2.84,1.67-6.15,1.67-9.95s-.55-7.14-1.67-9.88c-1.11-2.74-2.66-4.86-4.66-6.36-2-1.5-4.35-2.26-7.07-2.26s-5.08.75-7.1,2.26c-2.02,1.51-3.59,3.63-4.7,6.36-1.11,2.74-1.67,6.03-1.67,9.88s.55,7.12,1.67,9.95c1.11,2.84,2.67,5.02,4.7,6.55,2.02,1.53,4.39,2.29,7.1,2.29Z"/>
    <path d="M404.67,512.11v-48.47h15.76c3.35,0,6.34.43,8.95,1.29,2.61.86,4.69,2.33,6.22,4.4,1.53,2.07,2.29,4.84,2.29,8.29s-.77,6.12-2.29,8.29c-1.53,2.17-3.6,3.8-6.22,4.88-2.62,1.08-5.6,1.63-8.95,1.63h-8.36v19.68h-7.4ZM412.07,486.43h7.47c3.6,0,6.34-.73,8.21-2.18,1.87-1.45,2.81-3.66,2.81-6.62s-.94-5.04-2.81-6.25c-1.88-1.21-4.61-1.81-8.21-1.81h-7.47v16.87ZM431.24,512.11l-12.21-21.68,5.55-4.22,14.95,25.9h-8.29Z"/>
    <path d="M447.66,512.11v-48.47h9.1l8.66,24.79c.59,1.58,1.13,3.16,1.63,4.74.49,1.58.96,3.26,1.41,5.03h.3c.49-1.78.97-3.45,1.44-5.03.47-1.58.95-3.16,1.44-4.74l8.73-24.79h9.03v48.47h-6.88v-24.35c0-1.48.05-3.16.15-5.03.1-1.87.23-3.74.41-5.59.17-1.85.36-3.52.55-5h-.3l-3.85,12.06-8.44,23.24h-5.18l-8.44-23.24-3.77-12.06h-.3c.2,1.48.37,3.14.52,5,.15,1.85.27,3.71.37,5.59.1,1.88.15,3.55.15,5.03v24.35h-6.73Z"/>
  </g>
  <g>
    <rect x="209.57" y="514.37" width="228.01" height="69.32" fill="none"/>
    <path d="M242.78,564.36v-46.18h8.67l8.25,23.62c.56,1.5,1.08,3.01,1.55,4.51.47,1.5.92,3.1,1.34,4.79h.28c.47-1.69.93-3.29,1.38-4.79.45-1.5.9-3.01,1.38-4.51l8.32-23.62h8.6v46.18h-6.56v-23.2c0-1.41.05-3.01.14-4.79.09-1.79.22-3.56.39-5.32.16-1.76.34-3.35.53-4.76h-.28l-3.67,11.49-8.04,22.14h-4.93l-8.04-22.14-3.6-11.49h-.28c.19,1.41.35,3,.49,4.76.14,1.76.26,3.54.35,5.32.09,1.79.14,3.38.14,4.79v23.2h-6.42Z"/>
    <path d="M294.67,564.36v-46.18h27.21v5.92h-20.16v13.18h17.06v5.92h-17.06v15.23h20.87v5.92h-27.92Z"/>
    <path d="M345.36,565.2c-3.24,0-6.25-.6-9.02-1.8-2.77-1.2-5.24-2.88-7.4-5.04l3.88-4.58c1.64,1.65,3.58,2.94,5.82,3.88,2.23.94,4.52,1.41,6.87,1.41,2.82,0,4.99-.62,6.52-1.87,1.53-1.24,2.29-2.88,2.29-4.9,0-1.41-.32-2.55-.95-3.42-.63-.87-1.52-1.6-2.64-2.19-1.13-.59-2.4-1.19-3.81-1.8l-6.49-2.82c-1.5-.66-2.97-1.5-4.41-2.54-1.43-1.03-2.62-2.33-3.56-3.88-.94-1.55-1.41-3.46-1.41-5.71,0-2.4.65-4.55,1.94-6.45,1.29-1.9,3.07-3.41,5.32-4.51,2.26-1.1,4.86-1.66,7.83-1.66,2.77,0,5.36.52,7.76,1.55,2.4,1.03,4.44,2.4,6.13,4.09l-3.74,4.58c-1.46-1.27-3.04-2.27-4.76-3-1.72-.73-3.51-1.09-5.39-1.09-2.4,0-4.32.54-5.78,1.62-1.46,1.08-2.19,2.56-2.19,4.44,0,1.36.36,2.47,1.09,3.31.73.85,1.68,1.55,2.86,2.12,1.17.56,2.37,1.13,3.6,1.69l6.42,2.75c1.83.75,3.46,1.66,4.86,2.71,1.41,1.06,2.51,2.36,3.31,3.91.8,1.55,1.2,3.46,1.2,5.71,0,2.49-.63,4.76-1.9,6.8-1.27,2.04-3.11,3.67-5.54,4.86-2.42,1.2-5.32,1.8-8.71,1.8Z"/>
    <path d="M370.18,564.36v-46.18h7.05v18.97h20.09v-18.97h7.05v46.18h-7.05v-21.08h-20.09v21.08h-7.05Z"/>
  </g>
  <g>
    <path d="M387.92,194.64c7.68,13.27,13.36,28.02,16.96,44.15.89,3.97,1.6,7.92,2.16,11.85,4.51,1.36,8.08,4.89,9.49,9.37,21.5-3.12,45-6.21,55.02-7.5.12-3.26,1.11-6.29,2.74-8.88-10.26-8.81-24.44-19.12-40.81-28.49-12.19-6.97-27.91-14.73-45.56-20.5Z"/>
    <path d="M268.54,126.12c-6.35-.47-12.55-.5-18.45-.07-7.51.55-14.3,1.84-19.99,3.74-.25.18-.5.35-.74.52,11-2.79,22.51-4.28,34.38-4.28,1.61,0,3.21.03,4.81.08Z"/>
    <path d="M276.75,404.26c-.03-.11-.05-.23-.07-.34-4.26.39-8.58.6-12.95.6-9.82,0-19.4-1.02-28.65-2.95.81.53,1.63,1.06,2.45,1.58,12.29,2.51,25.52,2.89,39.22,1.12Z"/>
    <path d="M331.44,126.15c5.48.71,12.54,1.88,20.71,3.8,17.86,4.2,44.48,12.96,69.88,30.82,19.5,13.71,35.52,30.38,47.63,49.55,6.18,9.78,10.45,18.91,13.11,26.27,1.41-.56,2.91-.95,4.47-1.14-6.81-38.93-27.3-73.15-56.34-97.53-13.36-4.5-33.23-9.07-55.46-11.21-12.44-1.19-27.72-1.82-43.99-.56Z"/>
    <path d="M297.42,127.06c1.58-6.9,7.76-12.06,15.14-12.06,5.72,0,10.72,3.09,13.41,7.7,18.47-1.86,35.9-1.23,49.84.11,14.13,1.35,28.49,3.81,41.52,7.09,1.72.43,3.41.88,5.06,1.34-27.22-19.96-60.81-31.75-97.15-31.75-31.24,0-60.45,8.71-85.33,23.84,3.13-.54,6.43-.94,9.9-1.19,14.84-1.09,31.54.66,47.61,4.92Z"/>
    <path d="M362.69,363.22c5.77-5.45,11.02-11.29,15.7-17.45-.24-.15-.49-.29-.73-.44-4.49,6.38-9.5,12.36-14.97,17.88Z"/>
    <path d="M409.29,277.05c-.37.18-.75.35-1.13.5-.76,12.55-3.35,24.79-7.77,36.62-3.98,10.66-9.48,20.91-16.3,30.49,15.64,9.55,28.61,19.09,38.75,28.5,3.19-3.49,7.74-5.7,12.81-5.81-.62-11.52-2.31-29.26-6.86-47.29-4.69-18.55-11.23-32.99-19.49-43.01Z"/>
    <path d="M402.93,250.04s.04,0,.06,0c-.51-3.44-1.15-6.91-1.93-10.39-1.18-5.29-2.6-10.43-4.23-15.41,2.56,8.3,4.36,16.93,5.32,25.82.26-.01.52-.02.78-.02Z"/>
    <path d="M402.34,278.53c-2.21,23.36-10.18,45.03-22.48,63.59,0,0,0,0,0,0,.28.17.56.34.85.51,6.71-9.36,12.1-19.39,16-29.83,4.14-11.09,6.62-22.55,7.45-34.31-.41.03-.81.06-1.23.06-.2,0-.39,0-.59-.01Z"/>
    <path d="M348.57,411.93c-6.21,0-12.38-.32-18.51-.95-9.46-.98-18.8-2.73-27.97-5.22-1.82,5.13-6.7,8.8-12.45,8.8-4.86,0-9.11-2.63-11.4-6.54-6.15.84-12.22,1.26-18.17,1.26-4.51,0-8.95-.24-13.3-.73,23.32,12.68,50.05,19.89,78.47,19.89,36.07,0,69.42-11.61,96.53-31.3-8.44,3.6-22.26,8.6-39.91,11.78-11.1,2-22.24,3.01-33.29,3.01Z"/>
    <path d="M446.87,288.4c-10.28-7.69-20.92-13.6-31.34-17.46-.77,1.46-1.79,2.78-3,3.88,8.52,10.46,15.26,25.32,20.04,44.27,4.71,18.62,6.4,36.92,7,48.59,3.53.71,6.68,2.47,9.12,4.94,13.06-14.83,23.49-32.02,30.56-50.86-8.21-12.03-19.63-23.81-32.4-33.36Z"/>
    <path d="M489.38,271.02c-8.75,0-16.02-6.29-17.55-14.59-10.11,1.31-33.37,4.36-54.66,7.46,0,.14.01.27.01.41,0,1.02-.11,2.01-.31,2.97,10.78,3.99,21.76,10.08,32.35,18,12.29,9.2,23.37,20.41,31.67,31.98,4.99-14.59,7.99-30.11,8.67-46.23-.06,0-.12,0-.18,0Z"/>
    <path d="M326.29,137.82c14.38,7.02,27.42,16.14,38.46,26.96,7.66,7.5,14.36,15.78,20.09,24.79,19.7,5.97,37.24,14.54,50.59,22.17,16.51,9.44,30.84,19.87,41.3,28.83.78-.78,1.63-1.49,2.54-2.12-2.24-6.34-6.16-15.34-12.93-26.05-11.67-18.46-27.77-35.21-46.57-48.43-24.84-17.47-50.91-26.05-68.41-30.18-9.5-2.24-17.58-3.44-23.29-4.09.01.28.02.56.02.84,0,2.63-.66,5.1-1.81,7.28Z"/>
    <path d="M360.31,370.64c-16.23,14-35.92,24.96-56.45,31.53,8.7,2.32,17.55,3.96,26.51,4.89,16.64,1.73,33.67,1.07,50.64-1.97,16.23-2.91,30.12-7.7,39.22-11.55-1.32-2.49-2.07-5.33-2.07-8.35,0-3.22.86-6.23,2.34-8.84-10.12-9.44-23.18-19.05-38.74-28.54-6.2,8.21-13.4,15.88-21.45,22.84Z"/>
    <path d="M340.48,185.95c-17.11-.44-34.03,1.47-50.68,5.7,0,.41-.03.81-.08,1.21,12.62,1.79,32.9,7.38,53.97,17.01,31.7,14.49,47.13,29.64,54.62,40.94,1.21-.41,2.49-.67,3.83-.74-.97-8.88-2.77-17.52-5.32-25.82-3.7-11.27-8.55-21.73-14.52-31.35-13.2-3.9-27.35-6.58-41.82-6.95Z"/>
    <path d="M394.79,252.59c-4.65-6.91-11.35-13.67-20-20.17-9.09-6.83-20.1-13.22-32.73-18.99-20.22-9.24-40.89-15.07-53.42-16.77-.06.13-.13.26-.2.39,2.29,2.57,4.44,5.24,6.44,8.03,8.73,12.17,14.43,26.15,16.99,41.61,25.45.89,53.26,4.02,78.1,11.65,1.07-2.32,2.74-4.3,4.81-5.75Z"/>
    <path d="M397.26,277.37c-7.68,7.45-21.37,15.64-37.32,22.16-16.66,6.81-32.44,10.49-44.61,10.49-.1,0-.19,0-.29,0,0,.01,0,.02,0,.03,23.88,10,46.2,21.04,64.82,32.07,12.3-18.56,20.28-40.23,22.48-63.59-1.8-.07-3.52-.48-5.09-1.16Z"/>
    <path d="M217.67,161.28c4.28.47,8.56,1.21,12.81,2.2,13.75-12.32,29.39-22.11,46.57-29.13,4.55-1.86,9.17-3.47,13.81-4.86-7.46-1.69-14.99-2.83-22.33-3.37-1.6-.05-3.2-.08-4.81-.08-11.86,0-23.38,1.49-34.38,4.28-12.26,8.81-23.25,19.26-32.66,31.04,6.33-.87,13.44-.9,20.98-.07Z"/>
    <path d="M231,168.31c5.6,1.09,11.04,2.66,16.26,4.66-5.11-2.11-10.37-3.85-15.68-5.19-.19.18-.38.35-.58.53Z"/>
    <path d="M314.31,313.99c-1.21,3.59-3.8,6.54-7.15,8.21,3.11,9.09,4.47,20.53,3.74,32.33-.89,14.42-4.77,27.99-10.98,38.51,1.26,1.56,2.17,3.41,2.62,5.44,20.08-6.41,39.34-17.11,55.22-30.81,1.68-1.45,3.33-2.94,4.94-4.45,5.47-5.53,10.48-11.51,14.97-17.88-18.16-10.76-39.49-21.34-63.35-31.34Z"/>
    <path d="M271.04,181.56c1.93-1.31,4.25-2.08,6.76-2.08,5.33,0,9.84,3.47,11.41,8.27,16.87-4.25,34.03-6.17,51.37-5.72,13.25.34,26.22,2.56,38.46,5.87-4.99-7.31-10.67-14.09-17.03-20.32-10.89-10.67-23.78-19.63-38.01-26.51-2.84,3.09-6.91,5.02-11.44,5.02-8.16,0-14.84-6.29-15.49-14.28-6.24,1.65-12.45,3.69-18.54,6.17-15.94,6.51-30.52,15.47-43.45,26.67,8.99,2.48,17.77,6.06,25.97,10.64,3.48,1.94,6.81,4.04,9.98,6.27Z"/>
    <path d="M249.34,356.78c11.69-4.59,22.32-11.26,31.13-19.59,4.98-4.71,9.34-9.88,13.08-15.46-.11-.07-.22-.13-.33-.2-10.83,15.62-26.06,27.97-43.88,35.25Z"/>
    <path d="M276.68,403.91c-.16-.83-.25-1.69-.25-2.57,0-1.53.26-3.01.75-4.38-2.9-1.27-5.78-2.61-8.64-4.04-12.41-6.21-24.41-15.25-35.67-26.88-.09-.1-.18-.19-.28-.29-7.48,1.5-15.21,2.26-23.02,2.26-4.06,0-8.14-.21-12.22-.62,10.72,13.24,23.45,24.78,37.73,34.16,9.25,1.93,18.83,2.95,28.65,2.95,4.37,0,8.69-.2,12.95-.6Z"/>
    <path d="M211.2,364.08c-6.08-.05-12.03-.64-17.79-1.74.18.24.37.48.55.72,5.75.76,11.53,1.1,17.24,1.02Z"/>
    <path d="M289.64,388.14c2.7,0,5.22.81,7.31,2.21,11.62-20.24,12.67-48.85,6.49-66.89-.86.16-1.74.25-2.64.25-1.23,0-2.42-.16-3.55-.45-3.99,6.06-8.69,11.68-14.08,16.77-11.58,10.95-26.17,19.15-42.19,23.7-1.27.36-2.55.7-3.84,1.01,9.49,9.57,20.56,18.38,33.15,24.67,2.88,1.44,5.79,2.8,8.72,4.07,2.41-3.25,6.27-5.36,10.62-5.36Z"/>
    <path d="M226.16,167.49c.14-.14.28-.28.42-.41.12-.12.25-.24.37-.35-3.23-.67-6.48-1.19-9.72-1.55-8.92-.99-17.17-.71-24.09.75-.68.91-1.35,1.83-2,2.75,6.72-1.44,13.68-2.21,20.83-2.21,4.82,0,9.55.35,14.18,1.02Z"/>
    <path d="M314.65,306.1c11.7.16,27.25-3.42,43.8-10.19,14.82-6.06,27.93-13.79,35.35-20.66-3.13-2.61-5.13-6.55-5.13-10.95,0-.75.06-1.49.17-2.2-24.24-7.45-51.42-10.55-76.39-11.46.1.77.19,1.55.28,2.33,1.73,15.92.43,31.06-3.69,44.87,2.76,1.96,4.79,4.88,5.61,8.27Z"/>
    <path d="M300.8,295.2c1.64,0,3.22.28,4.69.79,3.81-13.13,4.99-27.5,3.35-42.61-.1-.97-.22-1.92-.35-2.88-13.41-.37-26.08-.13-37.2.39-34.14,1.58-64.26,6.21-79.5,9.8.26,1.21.4,2.47.4,3.75,0,3.11-.81,6.04-2.22,8.58,25.96,3.27,62.83,13.3,100.03,27.14,2.61-3.04,6.48-4.96,10.8-4.96Z"/>
    <path d="M232.83,211.32c10.98-6.51,22.16-11.95,33.49-16.3-.34-1.12-.53-2.3-.53-3.53,0-2.68.88-5.16,2.36-7.15-2.87-1.99-5.87-3.87-9.01-5.62-3.84-2.15-7.82-4.06-11.89-5.74-5.22-2-10.66-3.56-16.26-4.66-.55.51-1.1,1.02-1.64,1.54-11.45,10.94-21.49,23.78-29.85,38.16-10.06,17.31-15.24,32.75-17.44,40.43.68.32,1.33.69,1.95,1.09,10.37-10.59,26.72-25.12,48.81-38.21Z"/>
    <path d="M307.88,246.56c-2.52-14.56-7.95-27.72-16.18-39.2-1.77-2.47-3.67-4.84-5.67-7.13-2.15,2.02-5.04,3.26-8.23,3.26-3.99,0-7.53-1.95-9.71-4.95-11.25,4.3-22.35,9.68-33.25,16.15-21.55,12.78-37.54,26.94-47.75,37.32,1.41,1.43,2.58,3.1,3.44,4.95,14.75-3.52,44.36-8.32,80.57-9.99,11.01-.51,23.53-.75,36.78-.41Z"/>
    <path d="M249.34,356.78c17.83-7.29,33.05-19.63,43.88-35.25-4.01-2.52-6.68-6.98-6.68-12.07,0-2.11.46-4.11,1.29-5.91-37.72-13.99-74.97-24-100.53-26.89-.65.69-1.36,1.32-2.11,1.9,4.6,13.69,13.07,32.71,24.24,50.65,6.15,9.87,14.36,21.43,24.54,32.27,2-.44,3.98-.95,5.94-1.5,3.21-.91,6.36-1.98,9.43-3.19Z"/>
    <path d="M174.47,246.73c1.33,0,2.62.15,3.86.43,2.26-7.92,7.48-23.36,17.71-40.99,8.44-14.55,18.57-27.55,30.12-38.68-4.63-.67-9.37-1.02-14.18-1.02-7.15,0-14.12.77-20.83,2.21-17.12,24.04-27.92,52.89-30.01,84.12,3.25-3.72,8.02-6.07,13.34-6.07Z"/>
    <path d="M229.42,362.37c-8.26-9.04-16.09-19.48-23.32-31.11-11.11-17.84-19.61-36.78-24.36-50.67-2.22,1-4.68,1.56-7.27,1.56-5.28,0-10.02-2.32-13.27-5.99,2.36,32.18,13.97,61.79,32.2,86.17,5.77,1.1,11.72,1.69,17.79,1.74,6.17-.09,12.27-.66,18.22-1.71Z"/>
    <path d="M315.04,310.05s0-.02,0-.03c-.03,0-.06,0-.08,0,.03.01.06.02.08.03Z" fill="#fff"/>
    <path d="M396.82,224.24c-3.4-11.05-8.14-21.51-14.03-31.2-.16-.05-.33-.1-.49-.15,5.97,9.62,10.83,20.08,14.52,31.35Z"/>
    <path d="M302.54,398.49c.04.17.07.34.1.51,23.04-6.69,43.62-19.18,60.05-35.78-1.61,1.52-3.25,3-4.94,4.45-15.88,13.7-35.14,24.4-55.22,30.81Z"/>
    <path d="M239.9,359.96c-1.96.56-3.94,1.06-5.94,1.5.04.05.09.09.13.14,5.25-1.2,10.34-2.83,15.24-4.83-3.08,1.21-6.22,2.27-9.43,3.19Z"/>
    <path d="M211.2,364.08c.26,0,.52,0,.78,0,6,0,11.88-.54,17.59-1.56-.05-.05-.1-.1-.15-.16-5.95,1.05-12.05,1.63-18.22,1.71Z"/>
  </g>
</svg>
