<?xml version="1.0" encoding="UTF-8" standalone="no"?>
<svg
   id="a"
   data-name="Layer 1"
   width="342.14999"
   height="484.19998"
   viewBox="0 0 342.15 484.19996"
   version="1.1"
   sodipodi:docname="platform-mesh-stacked-black.svg"
   inkscape:version="1.4.3 (0d15f75, 2025-12-25)"
   inkscape:export-filename="platform-mesh-stacked-black.png"
   inkscape:export-xdpi="96"
   inkscape:export-ydpi="96"
   xmlns:inkscape="http://www.inkscape.org/namespaces/inkscape"
   xmlns:sodipodi="http://sodipodi.sourceforge.net/DTD/sodipodi-0.dtd"
   xmlns="http://www.w3.org/2000/svg"
   xmlns:svg="http://www.w3.org/2000/svg">
  <defs
     id="defs50" />
  <sodipodi:namedview
     id="namedview50"
     pagecolor="#ffffff"
     bordercolor="#000000"
     borderopacity="0.25"
     inkscape:showpageshadow="2"
     inkscape:pageopacity="0.0"
     inkscape:pagecheckerboard="0"
     inkscape:deskcolor="#d1d1d1"
     inkscape:zoom="0.03914012"
     inkscape:cx="191.61924"
     inkscape:cy="217.16847"
     inkscape:current-layer="a" />
  <g
     id="g8"
     transform="translate(-156.92,-99.49)">
    <rect
       x="156.92"
       y="459.64001"
       width="342.14999"
       height="67.110001"
       fill="none"
       id="rect1" />
    <path
       d="m 163.29,512.11 v -48.47 h 14.58 c 3.6,0 6.79,0.46 9.58,1.37 2.79,0.91 4.97,2.44 6.55,4.59 1.58,2.15 2.37,5.02 2.37,8.62 0,3.6 -0.78,6.39 -2.33,8.66 -1.55,2.27 -3.71,3.96 -6.48,5.07 -2.77,1.11 -5.9,1.67 -9.4,1.67 h -7.47 v 18.5 h -7.4 z m 7.4,-24.5 h 6.73 c 3.95,0 6.87,-0.76 8.77,-2.29 1.9,-1.53 2.85,-3.9 2.85,-7.1 0,-3.2 -1,-5.51 -3,-6.77 -2,-1.26 -4.97,-1.89 -8.92,-1.89 h -6.44 v 18.06 z"
       id="path1" />
    <path
       d="m 205.76,512.11 v -48.47 h 7.4 v 42.18 h 20.65 v 6.29 z"
       id="path2" />
    <path
       d="m 235.95,512.11 16.13,-48.47 h 8.51 l 16.13,48.47 h -7.84 l -7.92,-26.42 c -0.84,-2.66 -1.63,-5.34 -2.37,-8.03 -0.74,-2.69 -1.48,-5.41 -2.22,-8.18 h -0.3 c -0.69,2.76 -1.42,5.49 -2.18,8.18 -0.77,2.69 -1.57,5.37 -2.41,8.03 l -7.99,26.42 h -7.55 z m 9.03,-13.91 v -5.85 h 22.57 v 5.85 z"
       id="path3" />
    <path
       d="m 288.71,512.11 v -42.18 h -14.36 v -6.29 h 36.04 v 6.29 h -14.28 v 42.18 z"
       id="path4" />
    <path
       d="m 318.76,512.11 v -48.47 h 28.64 v 6.22 h -21.24 v 15.02 h 18.06 v 6.29 h -18.06 v 20.94 z"
       id="path5" />
    <path
       d="m 373.59,513 c -4.14,0 -7.8,-1.02 -10.95,-3.07 -3.16,-2.05 -5.64,-4.97 -7.44,-8.77 -1.8,-3.8 -2.7,-8.29 -2.7,-13.47 0,-5.18 0.9,-9.71 2.7,-13.43 1.8,-3.72 4.28,-6.57 7.44,-8.55 3.16,-1.97 6.81,-2.96 10.95,-2.96 4.14,0 7.79,0.99 10.95,2.96 3.16,1.97 5.64,4.82 7.44,8.55 1.8,3.73 2.7,8.2 2.7,13.43 0,5.23 -0.9,9.67 -2.7,13.47 -1.8,3.8 -4.28,6.72 -7.44,8.77 -3.16,2.05 -6.81,3.07 -10.95,3.07 z m 0,-6.52 c 2.71,0 5.07,-0.76 7.07,-2.29 2,-1.53 3.55,-3.71 4.66,-6.55 1.11,-2.84 1.67,-6.15 1.67,-9.95 0,-3.8 -0.55,-7.14 -1.67,-9.88 -1.11,-2.74 -2.66,-4.86 -4.66,-6.36 -2,-1.5 -4.35,-2.26 -7.07,-2.26 -2.72,0 -5.08,0.75 -7.1,2.26 -2.02,1.51 -3.59,3.63 -4.7,6.36 -1.11,2.74 -1.67,6.03 -1.67,9.88 0,3.85 0.55,7.12 1.67,9.95 1.11,2.84 2.67,5.02 4.7,6.55 2.02,1.53 4.39,2.29 7.1,2.29 z"
       id="path6" />
    <path
       d="m 404.67,512.11 v -48.47 h 15.76 c 3.35,0 6.34,0.43 8.95,1.29 2.61,0.86 4.69,2.33 6.22,4.4 1.53,2.07 2.29,4.84 2.29,8.29 0,3.45 -0.77,6.12 -2.29,8.29 -1.53,2.17 -3.6,3.8 -6.22,4.88 -2.62,1.08 -5.6,1.63 -8.95,1.63 h -8.36 v 19.68 h -7.4 z m 7.4,-25.68 h 7.47 c 3.6,0 6.34,-0.73 8.21,-2.18 1.87,-1.45 2.81,-3.66 2.81,-6.62 0,-2.96 -0.94,-5.04 -2.81,-6.25 -1.88,-1.21 -4.61,-1.81 -8.21,-1.81 h -7.47 v 16.87 z m 19.17,25.68 -12.21,-21.68 5.55,-4.22 14.95,25.9 z"
       id="path7" />
    <path
       d="m 447.66,512.11 v -48.47 h 9.1 l 8.66,24.79 c 0.59,1.58 1.13,3.16 1.63,4.74 0.49,1.58 0.96,3.26 1.41,5.03 h 0.3 c 0.49,-1.78 0.97,-3.45 1.44,-5.03 0.47,-1.58 0.95,-3.16 1.44,-4.74 l 8.73,-24.79 h 9.03 v 48.47 h -6.88 v -24.35 c 0,-1.48 0.05,-3.16 0.15,-5.03 0.1,-1.87 0.23,-3.74 0.41,-5.59 0.17,-1.85 0.36,-3.52 0.55,-5 h -0.3 l -3.85,12.06 -8.44,23.24 h -5.18 l -8.44,-23.24 -3.77,-12.06 h -0.3 c 0.2,1.48 0.37,3.14 0.52,5 0.15,1.85 0.27,3.71 0.37,5.59 0.1,1.88 0.15,3.55 0.15,5.03 v 24.35 z"
       id="path8" />
  </g>
  <g
     id="g12"
     transform="translate(-156.92,-99.49)">
    <rect
       x="209.57001"
       y="514.37"
       width="228.00999"
       height="69.32"
       fill="none"
       id="rect8" />
    <path
       d="m 242.78,564.36 v -46.18 h 8.67 l 8.25,23.62 c 0.56,1.5 1.08,3.01 1.55,4.51 0.47,1.5 0.92,3.1 1.34,4.79 h 0.28 c 0.47,-1.69 0.93,-3.29 1.38,-4.79 0.45,-1.5 0.9,-3.01 1.38,-4.51 l 8.32,-23.62 h 8.6 v 46.18 h -6.56 v -23.2 c 0,-1.41 0.05,-3.01 0.14,-4.79 0.09,-1.79 0.22,-3.56 0.39,-5.32 0.16,-1.76 0.34,-3.35 0.53,-4.76 h -0.28 l -3.67,11.49 -8.04,22.14 h -4.93 l -8.04,-22.14 -3.6,-11.49 h -0.28 c 0.19,1.41 0.35,3 0.49,4.76 0.14,1.76 0.26,3.54 0.35,5.32 0.09,1.79 0.14,3.38 0.14,4.79 v 23.2 h -6.42 z"
       id="path9" />
    <path
       d="m 294.67,564.36 v -46.18 h 27.21 v 5.92 h -20.16 v 13.18 h 17.06 v 5.92 h -17.06 v 15.23 h 20.87 v 5.92 h -27.92 z"
       id="path10" />
    <path
       d="m 345.36,565.2 c -3.24,0 -6.25,-0.6 -9.02,-1.8 -2.77,-1.2 -5.24,-2.88 -7.4,-5.04 l 3.88,-4.58 c 1.64,1.65 3.58,2.94 5.82,3.88 2.23,0.94 4.52,1.41 6.87,1.41 2.82,0 4.99,-0.62 6.52,-1.87 1.53,-1.24 2.29,-2.88 2.29,-4.9 0,-1.41 -0.32,-2.55 -0.95,-3.42 -0.63,-0.87 -1.52,-1.6 -2.64,-2.19 -1.13,-0.59 -2.4,-1.19 -3.81,-1.8 l -6.49,-2.82 c -1.5,-0.66 -2.97,-1.5 -4.41,-2.54 -1.43,-1.03 -2.62,-2.33 -3.56,-3.88 -0.94,-1.55 -1.41,-3.46 -1.41,-5.71 0,-2.4 0.65,-4.55 1.94,-6.45 1.29,-1.9 3.07,-3.41 5.32,-4.51 2.26,-1.1 4.86,-1.66 7.83,-1.66 2.77,0 5.36,0.52 7.76,1.55 2.4,1.03 4.44,2.4 6.13,4.09 l -3.74,4.58 c -1.46,-1.27 -3.04,-2.27 -4.76,-3 -1.72,-0.73 -3.51,-1.09 -5.39,-1.09 -2.4,0 -4.32,0.54 -5.78,1.62 -1.46,1.08 -2.19,2.56 -2.19,4.44 0,1.36 0.36,2.47 1.09,3.31 0.73,0.85 1.68,1.55 2.86,2.12 1.17,0.56 2.37,1.13 3.6,1.69 l 6.42,2.75 c 1.83,0.75 3.46,1.66 4.86,2.71 1.41,1.06 2.51,2.36 3.31,3.91 0.8,1.55 1.2,3.46 1.2,5.71 0,2.49 -0.63,4.76 -1.9,6.8 -1.27,2.04 -3.11,3.67 -5.54,4.86 -2.42,1.2 -5.32,1.8 -8.71,1.8 z"
       id="path11" />
    <path
       d="m 370.18,564.36 v -46.18 h 7.05 v 18.97 h 20.09 v -18.97 h 7.05 v 46.18 h -7.05 v -21.08 h -20.09 v 21.08 z"
       id="path12" />
  </g>
  <g
     id="g50"
     transform="translate(-156.92,-99.49)">
    <path
       d="m 387.92,194.64 c 7.68,13.27 13.36,28.02 16.96,44.15 0.89,3.97 1.6,7.92 2.16,11.85 4.51,1.36 8.08,4.89 9.49,9.37 21.5,-3.12 45,-6.21 55.02,-7.5 0.12,-3.26 1.11,-6.29 2.74,-8.88 -10.26,-8.81 -24.44,-19.12 -40.81,-28.49 -12.19,-6.97 -27.91,-14.73 -45.56,-20.5 z"
       id="path13" />
    <path
       d="m 268.54,126.12 c -6.35,-0.47 -12.55,-0.5 -18.45,-0.07 -7.51,0.55 -14.3,1.84 -19.99,3.74 -0.25,0.18 -0.5,0.35 -0.74,0.52 11,-2.79 22.51,-4.28 34.38,-4.28 1.61,0 3.21,0.03 4.81,0.08 z"
       id="path14" />
    <path
       d="m 276.75,404.26 c -0.03,-0.11 -0.05,-0.23 -0.07,-0.34 -4.26,0.39 -8.58,0.6 -12.95,0.6 -9.82,0 -19.4,-1.02 -28.65,-2.95 0.81,0.53 1.63,1.06 2.45,1.58 12.29,2.51 25.52,2.89 39.22,1.12 z"
       id="path15" />
    <path
       d="m 331.44,126.15 c 5.48,0.71 12.54,1.88 20.71,3.8 17.86,4.2 44.48,12.96 69.88,30.82 19.5,13.71 35.52,30.38 47.63,49.55 6.18,9.78 10.45,18.91 13.11,26.27 1.41,-0.56 2.91,-0.95 4.47,-1.14 -6.81,-38.93 -27.3,-73.15 -56.34,-97.53 -13.36,-4.5 -33.23,-9.07 -55.46,-11.21 -12.44,-1.19 -27.72,-1.82 -43.99,-0.56 z"
       id="path16" />
    <path
       d="m 297.42,127.06 c 1.58,-6.9 7.76,-12.06 15.14,-12.06 5.72,0 10.72,3.09 13.41,7.7 18.47,-1.86 35.9,-1.23 49.84,0.11 14.13,1.35 28.49,3.81 41.52,7.09 1.72,0.43 3.41,0.88 5.06,1.34 -27.22,-19.96 -60.81,-31.75 -97.15,-31.75 -31.24,0 -60.45,8.71 -85.33,23.84 3.13,-0.54 6.43,-0.94 9.9,-1.19 14.84,-1.09 31.54,0.66 47.61,4.92 z"
       id="path17" />
    <path
       d="m 362.69,363.22 c 5.77,-5.45 11.02,-11.29 15.7,-17.45 -0.24,-0.15 -0.49,-0.29 -0.73,-0.44 -4.49,6.38 -9.5,12.36 -14.97,17.88 z"
       id="path18" />
    <path
       d="m 409.29,277.05 c -0.37,0.18 -0.75,0.35 -1.13,0.5 -0.76,12.55 -3.35,24.79 -7.77,36.62 -3.98,10.66 -9.48,20.91 -16.3,30.49 15.64,9.55 28.61,19.09 38.75,28.5 3.19,-3.49 7.74,-5.7 12.81,-5.81 -0.62,-11.52 -2.31,-29.26 -6.86,-47.29 -4.69,-18.55 -11.23,-32.99 -19.49,-43.01 z"
       id="path19" />
    <path
       d="m 402.93,250.04 c 0,0 0.04,0 0.06,0 -0.51,-3.44 -1.15,-6.91 -1.93,-10.39 -1.18,-5.29 -2.6,-10.43 -4.23,-15.41 2.56,8.3 4.36,16.93 5.32,25.82 0.26,-0.01 0.52,-0.02 0.78,-0.02 z"
       id="path20" />
    <path
       d="m 402.34,278.53 c -2.21,23.36 -10.18,45.03 -22.48,63.59 0,0 0,0 0,0 0.28,0.17 0.56,0.34 0.85,0.51 6.71,-9.36 12.1,-19.39 16,-29.83 4.14,-11.09 6.62,-22.55 7.45,-34.31 -0.41,0.03 -0.81,0.06 -1.23,0.06 -0.2,0 -0.39,0 -0.59,-0.01 z"
       id="path21" />
    <path
       d="m 348.57,411.93 c -6.21,0 -12.38,-0.32 -18.51,-0.95 -9.46,-0.98 -18.8,-2.73 -27.97,-5.22 -1.82,5.13 -6.7,8.8 -12.45,8.8 -4.86,0 -9.11,-2.63 -11.4,-6.54 -6.15,0.84 -12.22,1.26 -18.17,1.26 -4.51,0 -8.95,-0.24 -13.3,-0.73 23.32,12.68 50.05,19.89 78.47,19.89 36.07,0 69.42,-11.61 96.53,-31.3 -8.44,3.6 -22.26,8.6 -39.91,11.78 -11.1,2 -22.24,3.01 -33.29,3.01 z"
       id="path22" />
    <path
       d="m 446.87,288.4 c -10.28,-7.69 -20.92,-13.6 -31.34,-17.46 -0.77,1.46 -1.79,2.78 -3,3.88 8.52,10.46 15.26,25.32 20.04,44.27 4.71,18.62 6.4,36.92 7,48.59 3.53,0.71 6.68,2.47 9.12,4.94 13.06,-14.83 23.49,-32.02 30.56,-50.86 -8.21,-12.03 -19.63,-23.81 -32.4,-33.36 z"
       id="path23" />
    <path
       d="m 489.38,271.02 c -8.75,0 -16.02,-6.29 -17.55,-14.59 -10.11,1.31 -33.37,4.36 -54.66,7.46 0,0.14 0.01,0.27 0.01,0.41 0,1.02 -0.11,2.01 -0.31,2.97 10.78,3.99 21.76,10.08 32.35,18 12.29,9.2 23.37,20.41 31.67,31.98 4.99,-14.59 7.99,-30.11 8.67,-46.23 -0.06,0 -0.12,0 -0.18,0 z"
       id="path24" />
    <path
       d="m 326.29,137.82 c 14.38,7.02 27.42,16.14 38.46,26.96 7.66,7.5 14.36,15.78 20.09,24.79 19.7,5.97 37.24,14.54 50.59,22.17 16.51,9.44 30.84,19.87 41.3,28.83 0.78,-0.78 1.63,-1.49 2.54,-2.12 -2.24,-6.34 -6.16,-15.34 -12.93,-26.05 -11.67,-18.46 -27.77,-35.21 -46.57,-48.43 -24.84,-17.47 -50.91,-26.05 -68.41,-30.18 -9.5,-2.24 -17.58,-3.44 -23.29,-4.09 0.01,0.28 0.02,0.56 0.02,0.84 0,2.63 -0.66,5.1 -1.81,7.28 z"
       id="path25" />
    <path
       d="m 360.31,370.64 c -16.23,14 -35.92,24.96 -56.45,31.53 8.7,2.32 17.55,3.96 26.51,4.89 16.64,1.73 33.67,1.07 50.64,-1.97 16.23,-2.91 30.12,-7.7 39.22,-11.55 -1.32,-2.49 -2.07,-5.33 -2.07,-8.35 0,-3.22 0.86,-6.23 2.34,-8.84 -10.12,-9.44 -23.18,-19.05 -38.74,-28.54 -6.2,8.21 -13.4,15.88 -21.45,22.84 z"
       id="path26" />
    <path
       d="m 340.48,185.95 c -17.11,-0.44 -34.03,1.47 -50.68,5.7 0,0.41 -0.03,0.81 -0.08,1.21 12.62,1.79 32.9,7.38 53.97,17.01 31.7,14.49 47.13,29.64 54.62,40.94 1.21,-0.41 2.49,-0.67 3.83,-0.74 -0.97,-8.88 -2.77,-17.52 -5.32,-25.82 -3.7,-11.27 -8.55,-21.73 -14.52,-31.35 -13.2,-3.9 -27.35,-6.58 -41.82,-6.95 z"
       id="path27" />
    <path
       d="m 394.79,252.59 c -4.65,-6.91 -11.35,-13.67 -20,-20.17 -9.09,-6.83 -20.1,-13.22 -32.73,-18.99 -20.22,-9.24 -40.89,-15.07 -53.42,-16.77 -0.06,0.13 -0.13,0.26 -0.2,0.39 2.29,2.57 4.44,5.24 6.44,8.03 8.73,12.17 14.43,26.15 16.99,41.61 25.45,0.89 53.26,4.02 78.1,11.65 1.07,-2.32 2.74,-4.3 4.81,-5.75 z"
       id="path28" />
    <path
       d="m 397.26,277.37 c -7.68,7.45 -21.37,15.64 -37.32,22.16 -16.66,6.81 -32.44,10.49 -44.61,10.49 -0.1,0 -0.19,0 -0.29,0 0,0.01 0,0.02 0,0.03 23.88,10 46.2,21.04 64.82,32.07 12.3,-18.56 20.28,-40.23 22.48,-63.59 -1.8,-0.07 -3.52,-0.48 -5.09,-1.16 z"
       id="path29" />
    <path
       d="m 217.67,161.28 c 4.28,0.47 8.56,1.21 12.81,2.2 13.75,-12.32 29.39,-22.11 46.57,-29.13 4.55,-1.86 9.17,-3.47 13.81,-4.86 -7.46,-1.69 -14.99,-2.83 -22.33,-3.37 -1.6,-0.05 -3.2,-0.08 -4.81,-0.08 -11.86,0 -23.38,1.49 -34.38,4.28 -12.26,8.81 -23.25,19.26 -32.66,31.04 6.33,-0.87 13.44,-0.9 20.98,-0.07 z"
       id="path30" />
    <path
       d="m 231,168.31 c 5.6,1.09 11.04,2.66 16.26,4.66 -5.11,-2.11 -10.37,-3.85 -15.68,-5.19 -0.19,0.18 -0.38,0.35 -0.58,0.53 z"
       id="path31" />
    <path
       d="m 314.31,313.99 c -1.21,3.59 -3.8,6.54 -7.15,8.21 3.11,9.09 4.47,20.53 3.74,32.33 -0.89,14.42 -4.77,27.99 -10.98,38.51 1.26,1.56 2.17,3.41 2.62,5.44 20.08,-6.41 39.34,-17.11 55.22,-30.81 1.68,-1.45 3.33,-2.94 4.94,-4.45 5.47,-5.53 10.48,-11.51 14.97,-17.88 C 359.51,334.58 338.18,324 314.32,314 Z"
       id="path32" />
    <path
       d="m 271.04,181.56 c 1.93,-1.31 4.25,-2.08 6.76,-2.08 5.33,0 9.84,3.47 11.41,8.27 16.87,-4.25 34.03,-6.17 51.37,-5.72 13.25,0.34 26.22,2.56 38.46,5.87 -4.99,-7.31 -10.67,-14.09 -17.03,-20.32 -10.89,-10.67 -23.78,-19.63 -38.01,-26.51 -2.84,3.09 -6.91,5.02 -11.44,5.02 -8.16,0 -14.84,-6.29 -15.49,-14.28 -6.24,1.65 -12.45,3.69 -18.54,6.17 -15.94,6.51 -30.52,15.47 -43.45,26.67 8.99,2.48 17.77,6.06 25.97,10.64 3.48,1.94 6.81,4.04 9.98,6.27 z"
       id="path33" />
    <path
       d="m 249.34,356.78 c 11.69,-4.59 22.32,-11.26 31.13,-19.59 4.98,-4.71 9.34,-9.88 13.08,-15.46 -0.11,-0.07 -0.22,-0.13 -0.33,-0.2 -10.83,15.62 -26.06,27.97 -43.88,35.25 z"
       id="path34" />
    <path
       d="m 276.68,403.91 c -0.16,-0.83 -0.25,-1.69 -0.25,-2.57 0,-1.53 0.26,-3.01 0.75,-4.38 -2.9,-1.27 -5.78,-2.61 -8.64,-4.04 -12.41,-6.21 -24.41,-15.25 -35.67,-26.88 -0.09,-0.1 -0.18,-0.19 -0.28,-0.29 -7.48,1.5 -15.21,2.26 -23.02,2.26 -4.06,0 -8.14,-0.21 -12.22,-0.62 10.72,13.24 23.45,24.78 37.73,34.16 9.25,1.93 18.83,2.95 28.65,2.95 4.37,0 8.69,-0.2 12.95,-0.6 z"
       id="path35" />
    <path
       d="m 211.2,364.08 c -6.08,-0.05 -12.03,-0.64 -17.79,-1.74 0.18,0.24 0.37,0.48 0.55,0.72 5.75,0.76 11.53,1.1 17.24,1.02 z"
       id="path36" />
    <path
       d="m 289.64,388.14 c 2.7,0 5.22,0.81 7.31,2.21 11.62,-20.24 12.67,-48.85 6.49,-66.89 -0.86,0.16 -1.74,0.25 -2.64,0.25 -1.23,0 -2.42,-0.16 -3.55,-0.45 -3.99,6.06 -8.69,11.68 -14.08,16.77 -11.58,10.95 -26.17,19.15 -42.19,23.7 -1.27,0.36 -2.55,0.7 -3.84,1.01 9.49,9.57 20.56,18.38 33.15,24.67 2.88,1.44 5.79,2.8 8.72,4.07 2.41,-3.25 6.27,-5.36 10.62,-5.36 z"
       id="path37" />
    <path
       d="m 226.16,167.49 c 0.14,-0.14 0.28,-0.28 0.42,-0.41 0.12,-0.12 0.25,-0.24 0.37,-0.35 -3.23,-0.67 -6.48,-1.19 -9.72,-1.55 -8.92,-0.99 -17.17,-0.71 -24.09,0.75 -0.68,0.91 -1.35,1.83 -2,2.75 6.72,-1.44 13.68,-2.21 20.83,-2.21 4.82,0 9.55,0.35 14.18,1.02 z"
       id="path38" />
    <path
       d="m 314.65,306.1 c 11.7,0.16 27.25,-3.42 43.8,-10.19 14.82,-6.06 27.93,-13.79 35.35,-20.66 -3.13,-2.61 -5.13,-6.55 -5.13,-10.95 0,-0.75 0.06,-1.49 0.17,-2.2 -24.24,-7.45 -51.42,-10.55 -76.39,-11.46 0.1,0.77 0.19,1.55 0.28,2.33 1.73,15.92 0.43,31.06 -3.69,44.87 2.76,1.96 4.79,4.88 5.61,8.27 z"
       id="path39" />
    <path
       d="m 300.8,295.2 c 1.64,0 3.22,0.28 4.69,0.79 3.81,-13.13 4.99,-27.5 3.35,-42.61 -0.1,-0.97 -0.22,-1.92 -0.35,-2.88 -13.41,-0.37 -26.08,-0.13 -37.2,0.39 -34.14,1.58 -64.26,6.21 -79.5,9.8 0.26,1.21 0.4,2.47 0.4,3.75 0,3.11 -0.81,6.04 -2.22,8.58 25.96,3.27 62.83,13.3 100.03,27.14 2.61,-3.04 6.48,-4.96 10.8,-4.96 z"
       id="path40" />
    <path
       d="m 232.83,211.32 c 10.98,-6.51 22.16,-11.95 33.49,-16.3 -0.34,-1.12 -0.53,-2.3 -0.53,-3.53 0,-2.68 0.88,-5.16 2.36,-7.15 -2.87,-1.99 -5.87,-3.87 -9.01,-5.62 -3.84,-2.15 -7.82,-4.06 -11.89,-5.74 -5.22,-2 -10.66,-3.56 -16.26,-4.66 -0.55,0.51 -1.1,1.02 -1.64,1.54 -11.45,10.94 -21.49,23.78 -29.85,38.16 -10.06,17.31 -15.24,32.75 -17.44,40.43 0.68,0.32 1.33,0.69 1.95,1.09 10.37,-10.59 26.72,-25.12 48.81,-38.21 z"
       id="path41" />
    <path
       d="m 307.88,246.56 c -2.52,-14.56 -7.95,-27.72 -16.18,-39.2 -1.77,-2.47 -3.67,-4.84 -5.67,-7.13 -2.15,2.02 -5.04,3.26 -8.23,3.26 -3.99,0 -7.53,-1.95 -9.71,-4.95 -11.25,4.3 -22.35,9.68 -33.25,16.15 -21.55,12.78 -37.54,26.94 -47.75,37.32 1.41,1.43 2.58,3.1 3.44,4.95 14.75,-3.52 44.36,-8.32 80.57,-9.99 11.01,-0.51 23.53,-0.75 36.78,-0.41 z"
       id="path42" />
    <path
       d="m 249.34,356.78 c 17.83,-7.29 33.05,-19.63 43.88,-35.25 -4.01,-2.52 -6.68,-6.98 -6.68,-12.07 0,-2.11 0.46,-4.11 1.29,-5.91 -37.72,-13.99 -74.97,-24 -100.53,-26.89 -0.65,0.69 -1.36,1.32 -2.11,1.9 4.6,13.69 13.07,32.71 24.24,50.65 6.15,9.87 14.36,21.43 24.54,32.27 2,-0.44 3.98,-0.95 5.94,-1.5 3.21,-0.91 6.36,-1.98 9.43,-3.19 z"
       id="path43" />
    <path
       d="m 174.47,246.73 c 1.33,0 2.62,0.15 3.86,0.43 2.26,-7.92 7.48,-23.36 17.71,-40.99 8.44,-14.55 18.57,-27.55 30.12,-38.68 -4.63,-0.67 -9.37,-1.02 -14.18,-1.02 -7.15,0 -14.12,0.77 -20.83,2.21 -17.12,24.04 -27.92,52.89 -30.01,84.12 3.25,-3.72 8.02,-6.07 13.34,-6.07 z"
       id="path44" />
    <path
       d="m 229.42,362.37 c -8.26,-9.04 -16.09,-19.48 -23.32,-31.11 -11.11,-17.84 -19.61,-36.78 -24.36,-50.67 -2.22,1 -4.68,1.56 -7.27,1.56 -5.28,0 -10.02,-2.32 -13.27,-5.99 2.36,32.18 13.97,61.79 32.2,86.17 5.77,1.1 11.72,1.69 17.79,1.74 6.17,-0.09 12.27,-0.66 18.22,-1.71 z"
       id="path45" />
    <path
       d="m 315.04,310.05 c 0,0 0,-0.02 0,-0.03 -0.03,0 -0.06,0 -0.08,0 0.03,0.01 0.06,0.02 0.08,0.03 z"
       fill="#ffffff"
       id="path46" />
    <path
       d="m 396.82,224.24 c -3.4,-11.05 -8.14,-21.51 -14.03,-31.2 -0.16,-0.05 -0.33,-0.1 -0.49,-0.15 5.97,9.62 10.83,20.08 14.52,31.35 z"
       id="path47" />
    <path
       d="m 302.54,398.49 c 0.04,0.17 0.07,0.34 0.1,0.51 23.04,-6.69 43.62,-19.18 60.05,-35.78 -1.61,1.52 -3.25,3 -4.94,4.45 -15.88,13.7 -35.14,24.4 -55.22,30.81 z"
       id="path48" />
    <path
       d="m 239.9,359.96 c -1.96,0.56 -3.94,1.06 -5.94,1.5 0.04,0.05 0.09,0.09 0.13,0.14 5.25,-1.2 10.34,-2.83 15.24,-4.83 -3.08,1.21 -6.22,2.27 -9.43,3.19 z"
       id="path49" />
    <path
       d="m 211.2,364.08 c 0.26,0 0.52,0 0.78,0 6,0 11.88,-0.54 17.59,-1.56 -0.05,-0.05 -0.1,-0.1 -0.15,-0.16 -5.95,1.05 -12.05,1.63 -18.22,1.71 z"
       id="path50" />
  </g>
</svg>
