<?xml version="1.0" encoding="UTF-8"?>
<svg id="Layer_1" data-name="Layer 1" xmlns="http://www.w3.org/2000/svg" width="364.38cm" height="42.33cm" viewBox="0 0 10329 1200">
  <path d="M1182.17,812.63c77.51,29.95,239.25,81.76,430.77,81.76s346.39-45.12,416.03-70.25c-79.79,151.59-238.14,254.86-420.47,254.86s-348.63-108.53-426.33-266.37ZM2041.08,401.58c27.55,60.58,42.92,127.94,42.92,198.92,0,.57-.01,1.13-.01,1.7-38.85-.98-137.19,5.34-329.71,66.19-87.99,27.81-98.18,40.12-220.45,59.18-148.7,23.18-324.96,14.1-382.6,4.58-11.87-41.83-18.23-85.99-18.23-131.65,0-70.04,14.95-136.56,41.82-196.51,56.26,11.2,218.81,39.29,434.92,39.29,233.89,0,393-32.91,431.34-41.7ZM1608.5,122c139.66,0,265.26,60.59,352.25,157.08-57.87,10.18-184.46,28.36-351.01,28.36-152.43,0-283.94-15.24-355.95-25.62,87.08-98.08,213.73-159.82,354.71-159.82Z"/>
  <path d="M8761.13,113c69.45,0,134.79,11.87,196.02,35.61,61.22,22.82,112.85,57.51,154.89,104.07l-64.43,64.36c-39.29-40.17-82.7-68.92-130.22-86.27-47.51-18.26-98.69-27.39-153.51-27.39-57.57,0-111.03,10.04-160.38,30.13-49.34,19.17-92.29,47.01-128.84,83.53-36.55,35.6-65.34,77.6-86.35,125.98-20.11,47.47-30.16,99.97-30.16,157.48s10.05,110.46,30.16,158.85c21.01,47.47,49.8,89.46,86.35,125.98,36.55,35.6,79.5,63.45,128.84,83.53,49.35,19.17,102.81,28.76,160.38,28.76,54.82,0,106-9.13,153.51-27.39,47.52-18.26,90.93-47.47,130.22-87.64l64.43,64.36c-42.04,46.56-93.67,81.71-154.89,105.45-61.23,23.73-127.03,35.6-197.39,35.6s-138.89-11.87-200.12-35.6c-61.22-24.65-114.22-58.89-159-102.71-44.78-43.82-79.96-95.4-105.54-154.74-24.68-59.34-37.01-124.16-37.01-194.45s12.33-135.12,37.01-194.46c25.58-59.34,60.76-110.92,105.54-154.74,45.69-43.82,99.15-77.6,160.37-101.33,61.22-24.65,127.93-36.98,200.12-36.98Z"/>
  <path d="M2990.98,898.64V121.22h100.05v958.57h-83.61l-616.81-777.32v777.32h-101.43V121.22h83.61l618.19,777.42Z"/>
  <path d="M4144.39,208.86h-556.51v376.58h496.2v87.64h-496.2v406.71h-101.43V121.22h657.94v87.64Z"/>
  <path d="M4537.52,1079.79h-101.43V121.22h101.43v958.57Z"/>
  <path d="M5322.6,121.22c102.35,0,191.9,20.54,268.66,61.62,77.67,40.17,137.99,96.31,180.94,168.43,42.95,72.12,64.41,155.2,64.41,249.23s-21.47,177.11-64.41,249.23c-42.95,72.12-103.27,128.72-180.94,169.8-76.76,40.17-166.31,60.26-268.66,60.26h-390.65v-451.9h101.43v364.25h283.74c84.98,0,158.55-16.43,220.68-49.3,63.06-33.78,111.94-79.89,146.67-138.31,34.72-59.34,52.09-127.35,52.09-204.03s-17.37-145.61-52.09-204.04c-34.73-58.43-83.61-104.07-146.67-136.94-62.13-33.78-135.7-50.67-220.68-50.67h-385.17v-87.64h390.65Z"/>
  <path d="M6804.56,208.86h-556.5v340.97h496.2v86.27h-496.2v356.04h577.06v87.65h-678.49V121.22h657.93v87.64Z"/>
  <path d="M7847.6,898.64V121.22h100.05v958.57h-83.61l-616.81-777.32v777.32h-101.44V121.22h83.62l618.19,777.42Z"/>
  <path d="M10068.4,208.86h-556.46v340.97h496.16v86.27h-496.16v356.04h577.06v87.65h-678.5V121.22h657.9v87.64Z"/>
  <path d="M341.43,698.59L904.79,119.85h116.51l-414.84,434.56,443.62,524.01h-120.62l-391.65-450.87-196.38,198.72v252.14h-101.43V119.85h101.43v578.74Z"/>
</svg>
