<?xml version="1.0" encoding="UTF-8"?>
<svg id="a" data-name="Layer 1" xmlns="http://www.w3.org/2000/svg" width="1004.12" height="307.88" viewBox="0 0 1004.12 307.88">
  <rect x="-358.78" y="133.3" width="385.06" height="59.61" fill="none"/>
  <g>
    <path d="M238.9,120.89c4.33,7.49,7.54,15.82,9.58,24.93.5,2.24.91,4.47,1.22,6.69,2.55.77,4.56,2.76,5.36,5.29,12.14-1.76,25.41-3.5,31.06-4.24.07-1.84.63-3.55,1.55-5.01-5.79-4.97-13.8-10.8-23.04-16.09-6.88-3.94-15.75-8.31-25.72-11.57Z" fill="#009dff"/>
    <path d="M171.5,82.2c-3.58-.27-7.09-.28-10.42-.04-4.24.31-8.07,1.04-11.29,2.11-.14.1-.28.2-.42.3,6.21-1.58,12.71-2.42,19.41-2.42.91,0,1.81.02,2.72.05Z" fill="#0582fa"/>
    <path d="M176.14,239.23c-.01-.06-.03-.13-.04-.19-2.41.22-4.85.34-7.31.34-5.54,0-10.95-.58-16.17-1.67.46.3.92.6,1.39.89,6.94,1.42,14.41,1.63,22.14.63Z" fill="#0582fa"/>
    <path d="M207.02,82.22c3.1.4,7.08,1.06,11.69,2.14,10.08,2.37,25.11,7.32,39.45,17.4,11.01,7.74,20.05,17.15,26.89,27.97,3.49,5.52,5.9,10.68,7.4,14.83.8-.32,1.64-.54,2.53-.64-3.84-21.98-15.41-41.3-31.81-55.06-7.55-2.54-18.76-5.12-31.31-6.33-7.03-.67-15.65-1.02-24.84-.32Z" fill="#009dff"/>
    <path d="M187.81,82.73c.89-3.9,4.38-6.81,8.55-6.81,3.23,0,6.05,1.75,7.57,4.34,10.43-1.05,20.27-.69,28.14.06,7.98.76,16.08,2.15,23.44,4,.97.24,1.92.5,2.85.75-15.37-11.27-34.33-17.92-54.85-17.92-17.64,0-34.13,4.92-48.17,13.46,1.77-.3,3.63-.53,5.59-.67,8.38-.61,17.81.37,26.88,2.78Z" fill="#009dff"/>
    <path d="M224.66,216.06c3.26-3.08,6.22-6.37,8.87-9.85-.14-.08-.28-.16-.41-.25-2.53,3.6-5.36,6.98-8.45,10.1Z" fill="#0582fa"/>
    <path d="M250.97,167.41c-.21.1-.42.2-.64.28-.43,7.09-1.89,13.99-4.39,20.67-2.25,6.02-5.35,11.81-9.21,17.21,8.83,5.39,16.16,10.78,21.88,16.09,1.8-1.97,4.37-3.22,7.23-3.28-.35-6.5-1.3-16.52-3.87-26.7-2.65-10.47-6.34-18.63-11-24.28Z" fill="#009dff"/>
    <path d="M247.38,152.16s.02,0,.03,0c-.29-1.94-.65-3.9-1.09-5.86-.67-2.99-1.47-5.89-2.39-8.7,1.44,4.69,2.46,9.56,3,14.58.15,0,.29-.01.44-.01Z" fill="#0582fa"/>
    <path d="M247.05,168.25c-1.25,13.19-5.75,25.42-12.69,35.9,0,0,0,0,0,0,.16.1.32.19.48.29,3.79-5.29,6.83-10.95,9.03-16.84,2.34-6.26,3.74-12.73,4.2-19.37-.23.02-.46.03-.69.03-.11,0-.22,0-.33,0Z" fill="#0582fa"/>
    <path d="M216.69,243.56c-3.51,0-6.99-.18-10.45-.54-5.34-.55-10.61-1.54-15.79-2.95-1.03,2.89-3.79,4.97-7.03,4.97-2.75,0-5.14-1.48-6.44-3.69-3.47.47-6.9.71-10.26.71-2.55,0-5.05-.14-7.51-.41,13.17,7.16,28.26,11.23,44.3,11.23,20.36,0,39.19-6.56,54.5-17.67-4.76,2.03-12.56,4.85-22.53,6.65-6.27,1.13-12.56,1.7-18.79,1.7Z" fill="#009dff"/>
    <path d="M272.19,173.82c-5.8-4.34-11.81-7.68-17.69-9.86-.44.83-1.01,1.57-1.7,2.19,4.81,5.91,8.61,14.3,11.32,24.99,2.66,10.51,3.61,20.84,3.95,27.43,1.99.4,3.77,1.4,5.15,2.79,7.37-8.37,13.26-18.08,17.25-28.72-4.63-6.79-11.08-13.44-18.29-18.83Z" fill="#009dff"/>
    <path d="M296.19,164.01c-4.94,0-9.04-3.55-9.91-8.24-5.71.74-18.84,2.46-30.86,4.21,0,.08,0,.15,0,.23,0,.57-.06,1.13-.18,1.68,6.09,2.25,12.29,5.69,18.26,10.16,6.94,5.19,13.19,11.52,17.88,18.05,2.82-8.24,4.51-17,4.9-26.1-.03,0-.07,0-.1,0Z" fill="#009dff"/>
    <path d="M204.11,88.81c8.12,3.97,15.48,9.11,21.71,15.22,4.32,4.24,8.11,8.91,11.34,13.99,11.12,3.37,21.02,8.21,28.56,12.52,9.32,5.33,17.41,11.22,23.32,16.28.44-.44.92-.84,1.43-1.2-1.26-3.58-3.48-8.66-7.3-14.71-6.59-10.42-15.68-19.88-26.29-27.34-14.03-9.86-28.74-14.71-38.62-17.04-5.37-1.27-9.92-1.94-13.15-2.31,0,.16.01.32.01.48,0,1.48-.37,2.88-1.02,4.11Z" fill="#009dff"/>
    <path d="M223.32,220.26c-9.17,7.91-20.28,14.09-31.87,17.8,4.91,1.31,9.91,2.23,14.97,2.76,9.39.98,19.01.6,28.59-1.12,9.16-1.64,17-4.35,22.14-6.52-.75-1.41-1.17-3.01-1.17-4.72,0-1.82.48-3.52,1.32-4.99-5.71-5.33-13.09-10.75-21.87-16.11-3.5,4.64-7.56,8.97-12.11,12.89Z" fill="#009dff"/>
    <path d="M212.12,115.98c-9.66-.25-19.21.83-28.61,3.22,0,.23-.02.46-.04.68,7.12,1.01,18.57,4.17,30.47,9.6,17.9,8.18,26.61,16.73,30.84,23.12.68-.23,1.41-.38,2.16-.42-.54-5.02-1.56-9.89-3-14.58-2.09-6.36-4.83-12.27-8.2-17.7-7.45-2.2-15.44-3.71-23.61-3.92Z" fill="#0582fa"/>
    <path d="M242.78,153.6c-2.63-3.9-6.41-7.72-11.29-11.39-5.13-3.86-11.35-7.46-18.48-10.72-11.41-5.22-23.08-8.51-30.16-9.47-.04.07-.07.15-.11.22,1.29,1.45,2.51,2.96,3.64,4.54,4.93,6.87,8.15,14.76,9.59,23.49,14.37.5,30.07,2.27,44.1,6.58.6-1.31,1.55-2.43,2.72-3.24Z" fill="#0582fa"/>
    <path d="M244.17,167.6c-4.34,4.21-12.07,8.83-21.07,12.51-9.4,3.85-18.31,5.92-25.18,5.92-.06,0-.11,0-.17,0,0,0,0,.01,0,.02,13.48,5.64,26.09,11.88,36.6,18.11,6.95-10.48,11.45-22.71,12.69-35.9-1.02-.04-1.99-.27-2.87-.66Z" fill="#0582fa"/>
    <path d="M142.78,102.05c2.42.27,4.83.68,7.23,1.24,7.76-6.96,16.6-12.48,26.29-16.45,2.57-1.05,5.18-1.96,7.8-2.75-4.21-.96-8.46-1.6-12.61-1.9-.9-.03-1.81-.05-2.72-.05-6.7,0-13.2.84-19.41,2.42-6.92,4.97-13.13,10.88-18.44,17.52,3.57-.49,7.59-.51,11.84-.04Z" fill="#0582fa"/>
    <path d="M150.31,106.02c3.16.62,6.23,1.5,9.18,2.63-2.89-1.19-5.85-2.17-8.85-2.93-.11.1-.22.2-.33.3Z" fill="#1140e5"/>
    <path d="M197.34,188.27c-.68,2.03-2.15,3.69-4.04,4.64,1.76,5.13,2.52,11.59,2.11,18.25-.5,8.14-2.69,15.8-6.2,21.74.71.88,1.23,1.93,1.48,3.07,11.33-3.62,22.21-9.66,31.17-17.39.95-.82,1.88-1.66,2.79-2.51,3.09-3.12,5.92-6.5,8.45-10.1-10.25-6.07-22.3-12.05-35.76-17.7Z" fill="#0582fa"/>
    <path d="M172.91,113.5c1.09-.74,2.4-1.18,3.82-1.18,3.01,0,5.55,1.96,6.44,4.67,9.52-2.4,19.21-3.48,29-3.23,7.48.19,14.8,1.45,21.71,3.32-2.82-4.13-6.03-7.96-9.62-11.47-6.15-6.02-13.43-11.09-21.46-14.97-1.6,1.74-3.9,2.83-6.46,2.83-4.61,0-8.38-3.55-8.74-8.06-3.53.93-7.03,2.08-10.46,3.48-9,3.68-17.23,8.73-24.53,15.06,5.07,1.4,10.03,3.42,14.66,6.01,1.97,1.1,3.85,2.28,5.64,3.54Z" fill="#0582fa"/>
    <path d="M160.66,212.43c6.6-2.59,12.6-6.36,17.58-11.06,2.81-2.66,5.28-5.58,7.38-8.73-.06-.04-.12-.08-.19-.11-6.12,8.82-14.71,15.79-24.78,19.9Z" fill="#1140e5"/>
    <path d="M176.1,239.04c-.09-.47-.14-.95-.14-1.45,0-.87.15-1.7.42-2.47-1.64-.72-3.26-1.48-4.88-2.28-7.01-3.5-13.78-8.61-20.14-15.18-.05-.05-.1-.11-.16-.16-4.22.85-8.59,1.28-13,1.28-2.29,0-4.6-.12-6.9-.35,6.05,7.47,13.24,13.99,21.3,19.29,5.22,1.09,10.63,1.67,16.17,1.67,2.47,0,4.9-.11,7.31-.34Z" fill="#0582fa"/>
    <path d="M139.13,216.55c-3.43-.03-6.79-.36-10.05-.98.1.14.21.27.31.41,3.25.43,6.51.62,9.74.58Z" fill="#1140e5"/>
    <path d="M183.42,230.13c1.53,0,2.95.46,4.13,1.25,6.56-11.43,7.16-27.58,3.66-37.76-.48.09-.98.14-1.49.14-.69,0-1.37-.09-2.01-.25-2.25,3.42-4.91,6.59-7.95,9.47-6.54,6.18-14.78,10.81-23.82,13.38-.72.2-1.44.39-2.17.57,5.36,5.41,11.61,10.38,18.72,13.93,1.63.81,3.27,1.58,4.92,2.3,1.36-1.84,3.54-3.03,6-3.03Z" fill="#0582fa"/>
    <path d="M147.58,105.56c.08-.08.16-.16.24-.23.07-.07.14-.13.21-.2-1.83-.38-3.66-.67-5.49-.88-5.04-.56-9.69-.4-13.6.42-.38.51-.76,1.03-1.13,1.56,3.79-.81,7.73-1.25,11.76-1.25,2.72,0,5.39.2,8.01.57Z" fill="#1140e5"/>
    <path d="M197.54,183.81c6.61.09,15.38-1.93,24.73-5.76,8.37-3.42,15.77-7.79,19.96-11.67-1.77-1.48-2.9-3.7-2.9-6.18,0-.42.03-.84.1-1.24-13.68-4.21-29.03-5.96-43.13-6.47.06.44.11.87.16,1.31.97,8.99.24,17.54-2.08,25.33,1.56,1.11,2.71,2.76,3.17,4.67Z" fill="#0582fa"/>
    <path d="M189.72,177.66c.93,0,1.82.16,2.65.45,2.15-7.41,2.81-15.53,1.89-24.06-.06-.54-.13-1.09-.2-1.62-7.57-.21-14.73-.07-21,.22-19.27.89-36.28,3.5-44.88,5.53.15.68.23,1.39.23,2.12,0,1.76-.45,3.41-1.25,4.84,14.66,1.84,35.47,7.51,56.47,15.32,1.48-1.71,3.66-2.8,6.1-2.8Z" fill="#1140e5"/>
    <path d="M151.34,130.3c6.2-3.68,12.51-6.74,18.91-9.2-.19-.63-.3-1.3-.3-1.99,0-1.51.5-2.91,1.33-4.04-1.62-1.13-3.32-2.19-5.09-3.17-2.17-1.21-4.42-2.29-6.71-3.24-2.95-1.13-6.02-2.01-9.18-2.63-.31.29-.62.58-.93.87-6.46,6.18-12.14,13.43-16.85,21.55-5.68,9.77-8.6,18.49-9.84,22.82.38.18.75.39,1.1.61,5.85-5.98,15.09-14.18,27.55-21.58Z" fill="#1140e5"/>
    <path d="M193.71,150.2c-1.42-8.22-4.49-15.65-9.13-22.13-1-1.39-2.07-2.73-3.2-4.03-1.21,1.14-2.85,1.84-4.64,1.84-2.25,0-4.25-1.1-5.48-2.8-6.35,2.43-12.62,5.47-18.77,9.12-12.17,7.22-21.2,15.21-26.96,21.07.8.81,1.46,1.75,1.94,2.79,8.33-1.99,25.04-4.7,45.49-5.64,6.21-.29,13.28-.43,20.76-.23Z" fill="#1140e5"/>
    <path d="M160.66,212.43c10.07-4.11,18.66-11.08,24.78-19.9-2.26-1.42-3.77-3.94-3.77-6.82,0-1.19.26-2.32.73-3.34-21.3-7.9-42.33-13.55-56.76-15.18-.37.39-.77.75-1.19,1.07,2.6,7.73,7.38,18.47,13.69,28.59,3.47,5.57,8.11,12.1,13.85,18.22,1.13-.25,2.25-.53,3.35-.85,1.81-.52,3.59-1.12,5.32-1.8Z" fill="#1140e5"/>
    <path d="M118.4,150.3c.75,0,1.48.09,2.18.24,1.28-4.47,4.22-13.19,10-23.14,4.76-8.21,10.49-15.56,17-21.84-2.62-.38-5.29-.57-8.01-.57-4.04,0-7.97.43-11.76,1.25-9.66,13.57-15.76,29.86-16.94,47.49,1.83-2.1,4.53-3.43,7.53-3.43Z" fill="#1140e5"/>
    <path d="M149.42,215.58c-4.66-5.11-9.08-11-13.17-17.56-6.27-10.07-11.07-20.76-13.75-28.61-1.25.56-2.64.88-4.1.88-2.98,0-5.66-1.31-7.49-3.38,1.33,18.17,7.89,34.89,18.18,48.65,3.26.62,6.61.96,10.05.98,3.48-.05,6.93-.37,10.29-.97Z" fill="#1140e5"/>
    <path d="M197.76,186.04s0-.01,0-.02c-.02,0-.03,0-.05,0,.02,0,.03.01.05.02Z" fill="#fff"/>
    <path d="M155.34,214.22c-1.1.31-2.22.6-3.35.85.02.03.05.05.07.08,2.97-.68,5.84-1.6,8.6-2.73-1.74.68-3.51,1.28-5.32,1.8Z" fill="#1140e5"/>
    <path d="M139.13,216.55c.15,0,.29,0,.44,0,3.39,0,6.71-.3,9.93-.88-.03-.03-.05-.06-.08-.09-3.36.6-6.81.92-10.29.97Z" fill="#1140e5"/>
  </g>
  <g>
    <rect x="320.51" y="132.48" width="449.97" height="65.06" fill="none"/>
    <path d="M327.39,189.2v-52.4h15.76c3.89,0,7.35.49,10.36,1.48,3.01.99,5.37,2.64,7.08,4.96,1.71,2.32,2.56,5.43,2.56,9.32s-.84,6.91-2.52,9.36c-1.68,2.45-4.01,4.28-7,5.48-2.99,1.2-6.37,1.8-10.16,1.8h-8.08v20h-8ZM335.39,162.72h7.28c4.27,0,7.43-.83,9.48-2.48,2.05-1.65,3.08-4.21,3.08-7.68s-1.08-5.96-3.24-7.32-5.37-2.04-9.64-2.04h-6.96v19.52Z"/>
    <path d="M373.31,189.2v-52.4h8v45.6h22.32v6.8h-30.32Z"/>
    <path d="M405.95,189.2l17.44-52.4h9.2l17.44,52.4h-8.48l-8.56-28.56c-.91-2.88-1.76-5.77-2.56-8.68-.8-2.91-1.6-5.85-2.4-8.84h-.32c-.75,2.99-1.53,5.93-2.36,8.84-.83,2.91-1.7,5.8-2.6,8.68l-8.64,28.56h-8.16ZM415.71,174.16v-6.32h24.4v6.32h-24.4Z"/>
    <path d="M462.99,189.2v-45.6h-15.52v-6.8h38.96v6.8h-15.44v45.6h-8Z"/>
    <path d="M495.47,189.2v-52.4h30.96v6.72h-22.96v16.24h19.52v6.8h-19.52v22.64h-8Z"/>
    <path d="M554.75,190.16c-4.48,0-8.43-1.11-11.84-3.32-3.41-2.21-6.09-5.37-8.04-9.48-1.95-4.11-2.92-8.96-2.92-14.56s.97-10.49,2.92-14.52c1.95-4.03,4.62-7.11,8.04-9.24,3.41-2.13,7.36-3.2,11.84-3.2s8.43,1.07,11.84,3.2c3.41,2.13,6.09,5.21,8.04,9.24,1.95,4.03,2.92,8.87,2.92,14.52s-.97,10.45-2.92,14.56c-1.95,4.11-4.63,7.27-8.04,9.48-3.41,2.21-7.36,3.32-11.84,3.32ZM554.75,183.12c2.93,0,5.48-.83,7.64-2.48,2.16-1.65,3.84-4.01,5.04-7.08,1.2-3.07,1.8-6.65,1.8-10.76s-.6-7.72-1.8-10.68c-1.2-2.96-2.88-5.25-5.04-6.88-2.16-1.63-4.71-2.44-7.64-2.44s-5.49.81-7.68,2.44c-2.19,1.63-3.88,3.92-5.08,6.88-1.2,2.96-1.8,6.52-1.8,10.68s.6,7.69,1.8,10.76c1.2,3.07,2.89,5.43,5.08,7.08,2.19,1.65,4.75,2.48,7.68,2.48Z"/>
    <path d="M588.35,189.2v-52.4h17.04c3.62,0,6.85.47,9.68,1.4,2.83.93,5.07,2.52,6.72,4.76,1.65,2.24,2.48,5.23,2.48,8.96s-.83,6.61-2.48,8.96c-1.65,2.35-3.89,4.11-6.72,5.28-2.83,1.17-6.05,1.76-9.68,1.76h-9.04v21.28h-8ZM596.35,161.44h8.08c3.89,0,6.85-.79,8.88-2.36,2.03-1.57,3.04-3.96,3.04-7.16s-1.01-5.45-3.04-6.76c-2.03-1.31-4.99-1.96-8.88-1.96h-8.08v18.24ZM617.07,189.2l-13.2-23.44,6-4.56,16.16,28h-8.96Z"/>
    <path d="M634.83,189.2v-52.4h9.84l9.36,26.8c.64,1.71,1.23,3.41,1.76,5.12.53,1.71,1.04,3.52,1.52,5.44h.32c.53-1.92,1.05-3.73,1.56-5.44.51-1.71,1.03-3.41,1.56-5.12l9.44-26.8h9.76v52.4h-7.44v-26.32c0-1.6.05-3.41.16-5.44.11-2.03.25-4.04.44-6.04s.39-3.8.6-5.4h-.32l-4.16,13.04-9.12,25.12h-5.6l-9.12-25.12-4.08-13.04h-.32c.21,1.6.4,3.4.56,5.4.16,2,.29,4.01.4,6.04.11,2.03.16,3.84.16,5.44v26.32h-7.28Z"/>
  </g>
  <g>
    <rect x="699.56" y="133.3" width="385.06" height="59.61" fill="none"/>
    <path d="M706.44,190.02v-52.4h9.84l9.36,26.8c.64,1.71,1.23,3.41,1.76,5.12.53,1.71,1.04,3.52,1.52,5.44h.32c.53-1.92,1.05-3.73,1.56-5.44.51-1.71,1.03-3.41,1.56-5.12l9.44-26.8h9.76v52.4h-7.44v-26.32c0-1.6.05-3.41.16-5.44.11-2.03.25-4.04.44-6.04.19-2,.39-3.8.6-5.4h-.32l-4.16,13.04-9.12,25.12h-5.6l-9.12-25.12-4.08-13.04h-.32c.21,1.6.4,3.4.56,5.4s.29,4.01.4,6.04c.11,2.03.16,3.84.16,5.44v26.32h-7.28Z"/>
    <path d="M765.32,190.02v-52.4h30.88v6.72h-22.88v14.96h19.36v6.72h-19.36v17.28h23.68v6.72h-31.68Z"/>
    <path d="M822.84,190.98c-3.68,0-7.09-.68-10.24-2.04-3.15-1.36-5.95-3.27-8.4-5.72l4.4-5.2c1.87,1.87,4.07,3.33,6.6,4.4,2.53,1.07,5.13,1.6,7.8,1.6,3.2,0,5.67-.71,7.4-2.12,1.73-1.41,2.6-3.27,2.6-5.56,0-1.6-.36-2.89-1.08-3.88-.72-.99-1.72-1.81-3-2.48-1.28-.67-2.72-1.35-4.32-2.04l-7.36-3.2c-1.71-.75-3.37-1.71-5-2.88-1.63-1.17-2.97-2.64-4.04-4.4-1.07-1.76-1.6-3.92-1.6-6.48,0-2.72.73-5.16,2.2-7.32,1.47-2.16,3.48-3.87,6.04-5.12,2.56-1.25,5.52-1.88,8.88-1.88,3.15,0,6.08.59,8.8,1.76,2.72,1.17,5.04,2.72,6.96,4.64l-4.24,5.2c-1.65-1.44-3.45-2.57-5.4-3.4-1.95-.83-3.99-1.24-6.12-1.24-2.72,0-4.91.61-6.56,1.84-1.65,1.23-2.48,2.91-2.48,5.04,0,1.55.41,2.8,1.24,3.76.83.96,1.91,1.76,3.24,2.4,1.33.64,2.69,1.28,4.08,1.92l7.28,3.12c2.08.85,3.92,1.88,5.52,3.08,1.6,1.2,2.85,2.68,3.76,4.44.91,1.76,1.36,3.92,1.36,6.48,0,2.83-.72,5.4-2.16,7.72s-3.53,4.16-6.28,5.52c-2.75,1.36-6.04,2.04-9.88,2.04Z"/>
    <path d="M851,190.02v-52.4h8v21.52h22.8v-21.52h8v52.4h-8v-23.92h-22.8v23.92h-8Z"/>
  </g>
</svg>