<?xml version="1.0" encoding="UTF-8"?>
<svg id="a" data-name="Layer 1" xmlns="http://www.w3.org/2000/svg" width="1004.12" height="307.88" viewBox="0 0 1004.12 307.88">
  <rect x="-370.22" y="133.3" width="385.06" height="59.61" fill="none"/>
  <g>
    <rect x="320.51" y="132.48" width="449.97" height="65.06" fill="none"/>
    <path d="M327.39,189.2v-52.4h15.76c3.89,0,7.35.49,10.36,1.48,3.01.99,5.37,2.64,7.08,4.96,1.71,2.32,2.56,5.43,2.56,9.32s-.84,6.91-2.52,9.36c-1.68,2.45-4.01,4.28-7,5.48-2.99,1.2-6.37,1.8-10.16,1.8h-8.08v20h-8ZM335.39,162.72h7.28c4.27,0,7.43-.83,9.48-2.48,2.05-1.65,3.08-4.21,3.08-7.68s-1.08-5.96-3.24-7.32-5.37-2.04-9.64-2.04h-6.96v19.52Z" fill="#fff"/>
    <path d="M373.31,189.2v-52.4h8v45.6h22.32v6.8h-30.32Z" fill="#fff"/>
    <path d="M405.95,189.2l17.44-52.4h9.2l17.44,52.4h-8.48l-8.56-28.56c-.91-2.88-1.76-5.77-2.56-8.68-.8-2.91-1.6-5.85-2.4-8.84h-.32c-.75,2.99-1.53,5.93-2.36,8.84-.83,2.91-1.7,5.8-2.6,8.68l-8.64,28.56h-8.16ZM415.71,174.16v-6.32h24.4v6.32h-24.4Z" fill="#fff"/>
    <path d="M462.99,189.2v-45.6h-15.52v-6.8h38.96v6.8h-15.44v45.6h-8Z" fill="#fff"/>
    <path d="M495.47,189.2v-52.4h30.96v6.72h-22.96v16.24h19.52v6.8h-19.52v22.64h-8Z" fill="#fff"/>
    <path d="M554.75,190.16c-4.48,0-8.43-1.11-11.84-3.32-3.41-2.21-6.09-5.37-8.04-9.48-1.95-4.11-2.92-8.96-2.92-14.56s.97-10.49,2.92-14.52c1.95-4.03,4.63-7.11,8.04-9.24,3.41-2.13,7.36-3.2,11.84-3.2s8.43,1.07,11.84,3.2c3.41,2.13,6.09,5.21,8.04,9.24,1.95,4.03,2.92,8.87,2.92,14.52s-.97,10.45-2.92,14.56c-1.95,4.11-4.63,7.27-8.04,9.48-3.41,2.21-7.36,3.32-11.84,3.32ZM554.75,183.12c2.93,0,5.48-.83,7.64-2.48,2.16-1.65,3.84-4.01,5.04-7.08,1.2-3.07,1.8-6.65,1.8-10.76s-.6-7.72-1.8-10.68-2.88-5.25-5.04-6.88c-2.16-1.63-4.71-2.44-7.64-2.44s-5.49.81-7.68,2.44c-2.19,1.63-3.88,3.92-5.08,6.88-1.2,2.96-1.8,6.52-1.8,10.68s.6,7.69,1.8,10.76c1.2,3.07,2.89,5.43,5.08,7.08,2.19,1.65,4.75,2.48,7.68,2.48Z" fill="#fff"/>
    <path d="M588.35,189.2v-52.4h17.04c3.63,0,6.85.47,9.68,1.4,2.83.93,5.07,2.52,6.72,4.76,1.65,2.24,2.48,5.23,2.48,8.96s-.83,6.61-2.48,8.96c-1.65,2.35-3.89,4.11-6.72,5.28-2.83,1.17-6.05,1.76-9.68,1.76h-9.04v21.28h-8ZM596.35,161.44h8.08c3.89,0,6.85-.79,8.88-2.36,2.03-1.57,3.04-3.96,3.04-7.16s-1.01-5.45-3.04-6.76c-2.03-1.31-4.99-1.96-8.88-1.96h-8.08v18.24ZM617.07,189.2l-13.2-23.44,6-4.56,16.16,28h-8.96Z" fill="#fff"/>
    <path d="M634.83,189.2v-52.4h9.84l9.36,26.8c.64,1.71,1.23,3.41,1.76,5.12.53,1.71,1.04,3.52,1.52,5.44h.32c.53-1.92,1.05-3.73,1.56-5.44.51-1.71,1.03-3.41,1.56-5.12l9.44-26.8h9.76v52.4h-7.44v-26.32c0-1.6.05-3.41.16-5.44.11-2.03.25-4.04.44-6.04.19-2,.38-3.8.6-5.4h-.32l-4.16,13.04-9.12,25.12h-5.6l-9.12-25.12-4.08-13.04h-.32c.21,1.6.4,3.4.56,5.4s.29,4.01.4,6.04c.11,2.03.16,3.84.16,5.44v26.32h-7.28Z" fill="#fff"/>
  </g>
  <g>
    <rect x="699.56" y="133.3" width="385.06" height="59.61" fill="none"/>
    <path d="M706.44,190.02v-52.4h9.84l9.36,26.8c.64,1.71,1.23,3.41,1.76,5.12.53,1.71,1.04,3.52,1.52,5.44h.32c.53-1.92,1.05-3.73,1.56-5.44.51-1.71,1.03-3.41,1.56-5.12l9.44-26.8h9.76v52.4h-7.44v-26.32c0-1.6.05-3.41.16-5.44.11-2.03.25-4.04.44-6.04.19-2,.39-3.8.6-5.4h-.32l-4.16,13.04-9.12,25.12h-5.6l-9.12-25.12-4.08-13.04h-.32c.21,1.6.4,3.4.56,5.4.16,2,.29,4.01.4,6.04.11,2.03.16,3.84.16,5.44v26.32h-7.28Z" fill="#fff"/>
    <path d="M765.32,190.02v-52.4h30.88v6.72h-22.88v14.96h19.36v6.72h-19.36v17.28h23.68v6.72h-31.68Z" fill="#fff"/>
    <path d="M822.84,190.98c-3.68,0-7.09-.68-10.24-2.04-3.15-1.36-5.95-3.27-8.4-5.72l4.4-5.2c1.87,1.87,4.07,3.33,6.6,4.4,2.53,1.07,5.13,1.6,7.8,1.6,3.2,0,5.67-.71,7.4-2.12,1.73-1.41,2.6-3.27,2.6-5.56,0-1.6-.36-2.89-1.08-3.88-.72-.99-1.72-1.81-3-2.48-1.28-.67-2.72-1.35-4.32-2.04l-7.36-3.2c-1.71-.75-3.37-1.71-5-2.88-1.63-1.17-2.97-2.64-4.04-4.4-1.07-1.76-1.6-3.92-1.6-6.48,0-2.72.73-5.16,2.2-7.32,1.47-2.16,3.48-3.87,6.04-5.12,2.56-1.25,5.52-1.88,8.88-1.88,3.15,0,6.08.59,8.8,1.76,2.72,1.17,5.04,2.72,6.96,4.64l-4.24,5.2c-1.65-1.44-3.45-2.57-5.4-3.4-1.95-.83-3.99-1.24-6.12-1.24-2.72,0-4.91.61-6.56,1.84-1.65,1.23-2.48,2.91-2.48,5.04,0,1.55.41,2.8,1.24,3.76.83.96,1.91,1.76,3.24,2.4,1.33.64,2.69,1.28,4.08,1.92l7.28,3.12c2.08.85,3.92,1.88,5.52,3.08,1.6,1.2,2.85,2.68,3.76,4.44.91,1.76,1.36,3.92,1.36,6.48,0,2.83-.72,5.4-2.16,7.72s-3.53,4.16-6.28,5.52c-2.75,1.36-6.04,2.04-9.88,2.04Z" fill="#fff"/>
    <path d="M851,190.02v-52.4h8v21.52h22.8v-21.52h8v52.4h-8v-23.92h-22.8v23.92h-8Z" fill="#fff"/>
  </g>
  <g>
    <path d="M248.06,120.98c4.33,7.49,7.53,15.81,9.57,24.91.5,2.24.91,4.47,1.22,6.68,2.55.77,4.56,2.76,5.36,5.29,12.13-1.76,25.39-3.5,31.04-4.23.07-1.84.62-3.55,1.55-5.01-5.79-4.97-13.79-10.79-23.03-16.07-6.87-3.93-15.74-8.31-25.7-11.56Z" fill="#fff"/>
    <path d="M180.71,82.32c-3.58-.27-7.08-.28-10.41-.04-4.23.31-8.07,1.04-11.28,2.11-.14.1-.28.2-.42.3,6.2-1.58,12.7-2.41,19.39-2.41.91,0,1.81.02,2.71.05Z" fill="#fff"/>
    <path d="M185.34,239.23c-.01-.06-.03-.13-.04-.19-2.41.22-4.84.34-7.31.34-5.54,0-10.94-.57-16.16-1.67.46.3.92.6,1.38.89,6.94,1.42,14.4,1.63,22.13.63Z" fill="#fff"/>
    <path d="M216.2,82.34c3.09.4,7.08,1.06,11.68,2.14,10.08,2.37,25.09,7.31,39.42,17.38,11,7.73,20.04,17.14,26.87,27.95,3.49,5.52,5.89,10.67,7.4,14.82.8-.32,1.64-.54,2.52-.64-3.84-21.96-15.4-41.27-31.79-55.02-7.54-2.54-18.75-5.12-31.29-6.32-7.02-.67-15.64-1.02-24.82-.32Z" fill="#fff"/>
    <path d="M197,82.85c.89-3.9,4.38-6.8,8.54-6.8,3.23,0,6.05,1.74,7.57,4.34,10.42-1.05,20.25-.69,28.12.06,7.97.76,16.07,2.15,23.42,4,.97.24,1.92.5,2.85.75-15.36-11.26-34.31-17.91-54.81-17.91-17.63,0-34.1,4.92-48.14,13.45,1.76-.3,3.63-.53,5.59-.67,8.37-.61,17.79.37,26.86,2.78Z" fill="#fff"/>
    <path d="M233.82,216.08c3.26-3.07,6.22-6.37,8.86-9.84-.14-.08-.28-.16-.41-.25-2.53,3.6-5.36,6.97-8.44,10.09Z" fill="#fff"/>
    <path d="M260.11,167.47c-.21.1-.42.2-.64.28-.43,7.08-1.89,13.98-4.38,20.66-2.25,6.02-5.35,11.8-9.2,17.2,8.82,5.39,16.14,10.77,21.86,16.08,1.8-1.97,4.36-3.22,7.22-3.28-.35-6.5-1.3-16.51-3.87-26.68-2.64-10.47-6.34-18.61-10.99-24.26Z" fill="#fff"/>
    <path d="M256.53,152.23s.02,0,.03,0c-.29-1.94-.65-3.9-1.09-5.86-.67-2.98-1.46-5.88-2.39-8.69,1.44,4.68,2.46,9.55,3,14.57.15,0,.29-.01.44-.01Z" fill="#fff"/>
    <path d="M256.2,168.3c-1.24,13.18-5.74,25.4-12.69,35.87,0,0,0,0,0,0,.16.1.32.19.48.29,3.78-5.28,6.83-10.94,9.03-16.83,2.34-6.26,3.74-12.72,4.2-19.36-.23.02-.46.03-.69.03-.11,0-.22,0-.33,0Z" fill="#fff"/>
    <path d="M225.86,243.56c-3.5,0-6.99-.18-10.44-.54-5.33-.55-10.6-1.54-15.78-2.94-1.02,2.89-3.78,4.96-7.03,4.96-2.74,0-5.14-1.48-6.43-3.69-3.47.47-6.9.71-10.25.71-2.55,0-5.05-.14-7.51-.41,13.16,7.16,28.24,11.22,44.27,11.22,20.35,0,39.17-6.55,54.46-17.66-4.76,2.03-12.56,4.85-22.51,6.64-6.26,1.13-12.55,1.7-18.78,1.7Z" fill="#fff"/>
    <path d="M281.32,173.87c-5.8-4.34-11.8-7.67-17.68-9.85-.44.83-1.01,1.57-1.69,2.19,4.81,5.9,8.61,14.29,11.31,24.98,2.65,10.51,3.61,20.83,3.95,27.41,1.99.4,3.77,1.39,5.15,2.79,7.37-8.36,13.25-18.07,17.24-28.7-4.63-6.79-11.07-13.43-18.28-18.82Z" fill="#fff"/>
    <path d="M305.3,164.07c-4.93,0-9.04-3.55-9.9-8.23-5.7.74-18.82,2.46-30.84,4.21,0,.08,0,.15,0,.23,0,.57-.06,1.13-.18,1.67,6.08,2.25,12.28,5.69,18.25,10.16,6.93,5.19,13.18,11.51,17.87,18.04,2.82-8.23,4.51-16.99,4.89-26.08-.03,0-.07,0-.1,0Z" fill="#fff"/>
    <path d="M213.29,88.92c8.11,3.96,15.47,9.1,21.7,15.21,4.32,4.23,8.1,8.9,11.33,13.98,11.12,3.37,21.01,8.2,28.54,12.51,9.31,5.33,17.4,11.21,23.3,16.27.44-.44.92-.84,1.43-1.19-1.26-3.58-3.47-8.66-7.29-14.7-6.58-10.42-15.67-19.86-26.27-27.32-14.02-9.86-28.72-14.7-38.59-17.03-5.36-1.26-9.92-1.94-13.14-2.31,0,.16.01.32.01.48,0,1.48-.37,2.88-1.02,4.1Z" fill="#fff"/>
    <path d="M232.49,220.27c-9.16,7.9-20.27,14.08-31.85,17.79,4.91,1.31,9.9,2.23,14.95,2.76,9.39.98,19,.6,28.57-1.11,9.15-1.64,16.99-4.34,22.13-6.52-.75-1.41-1.17-3.01-1.17-4.71,0-1.81.48-3.52,1.32-4.99-5.71-5.33-13.08-10.75-21.86-16.1-3.5,4.63-7.56,8.96-12.1,12.88Z" fill="#fff"/>
    <path d="M221.29,116.07c-9.65-.25-19.2.83-28.59,3.21,0,.23-.02.46-.04.68,7.12,1.01,18.56,4.17,30.45,9.6,17.89,8.17,26.59,16.72,30.82,23.1.68-.23,1.41-.38,2.16-.42-.54-5.01-1.56-9.88-3-14.57-2.09-6.36-4.82-12.26-8.19-17.69-7.45-2.2-15.43-3.71-23.59-3.92Z" fill="#fff"/>
    <path d="M251.94,153.67c-2.62-3.9-6.41-7.71-11.28-11.38-5.13-3.85-11.34-7.46-18.46-10.71-11.41-5.21-23.07-8.5-30.14-9.46-.04.07-.07.15-.11.22,1.29,1.45,2.51,2.96,3.63,4.53,4.93,6.87,8.14,14.75,9.59,23.47,14.36.5,30.05,2.27,44.06,6.57.6-1.31,1.55-2.43,2.72-3.24Z" fill="#fff"/>
    <path d="M253.33,167.65c-4.33,4.2-12.06,8.82-21.05,12.5-9.4,3.84-18.3,5.92-25.17,5.92-.06,0-.11,0-.17,0,0,0,0,.01,0,.02,13.47,5.64,26.07,11.87,36.57,18.09,6.94-10.47,11.44-22.7,12.69-35.87-1.02-.04-1.98-.27-2.87-.66Z" fill="#fff"/>
    <path d="M152.01,102.16c2.41.27,4.83.68,7.23,1.24,7.76-6.95,16.58-12.47,26.28-16.43,2.57-1.05,5.17-1.96,7.79-2.74-4.21-.95-8.46-1.59-12.6-1.9-.9-.03-1.81-.05-2.71-.05-6.69,0-13.19.84-19.39,2.41-6.92,4.97-13.12,10.87-18.43,17.51,3.57-.49,7.58-.51,11.83-.04Z" fill="#fff"/>
    <path d="M159.53,106.12c3.16.62,6.23,1.5,9.17,2.63-2.88-1.19-5.85-2.17-8.85-2.93-.11.1-.22.2-.33.3Z" fill="#fff"/>
    <path d="M206.53,188.31c-.68,2.03-2.15,3.69-4.04,4.63,1.76,5.13,2.52,11.58,2.11,18.24-.5,8.14-2.69,15.79-6.2,21.72.71.88,1.23,1.92,1.48,3.07,11.33-3.62,22.19-9.66,31.15-17.38.95-.82,1.88-1.66,2.78-2.51,3.09-3.12,5.91-6.49,8.44-10.09-10.25-6.07-22.28-12.04-35.74-17.68Z" fill="#fff"/>
    <path d="M182.12,113.6c1.09-.74,2.4-1.17,3.81-1.17,3,0,5.55,1.96,6.44,4.66,9.52-2.4,19.2-3.48,28.98-3.23,7.48.19,14.79,1.45,21.7,3.31-2.82-4.12-6.02-7.95-9.61-11.47-6.14-6.02-13.42-11.08-21.44-14.96-1.6,1.74-3.9,2.83-6.45,2.83-4.6,0-8.37-3.55-8.74-8.06-3.52.93-7.03,2.08-10.46,3.48-8.99,3.67-17.22,8.73-24.51,15.05,5.07,1.4,10.02,3.42,14.65,6,1.97,1.1,3.84,2.28,5.63,3.54Z" fill="#fff"/>
    <path d="M185.3,239.04c-.09-.47-.14-.95-.14-1.45,0-.87.15-1.7.42-2.47-1.64-.72-3.26-1.48-4.87-2.28-7-3.5-13.77-8.6-20.12-15.17-.05-.05-.1-.11-.16-.16-4.22.85-8.58,1.27-12.99,1.27-2.29,0-4.59-.12-6.9-.35,6.05,7.47,13.23,13.98,21.29,19.27,5.22,1.09,10.62,1.67,16.16,1.67,2.46,0,4.9-.11,7.31-.34Z" fill="#fff"/>
    <path d="M148.36,216.57c-3.43-.03-6.78-.36-10.04-.98.1.14.21.27.31.41,3.25.43,6.5.62,9.73.58Z" fill="#fff"/>
    <path d="M192.61,230.14c1.53,0,2.94.46,4.13,1.25,6.56-11.42,7.15-27.56,3.66-37.74-.48.09-.98.14-1.49.14-.69,0-1.36-.09-2.01-.25-2.25,3.42-4.9,6.59-7.94,9.46-6.54,6.18-14.77,10.8-23.8,13.37-.72.2-1.44.39-2.16.57,5.36,5.4,11.6,10.37,18.7,13.92,1.63.81,3.27,1.58,4.92,2.3,1.36-1.83,3.54-3.02,5.99-3.02Z" fill="#fff"/>
    <path d="M156.8,105.66c.08-.08.16-.16.24-.23.07-.07.14-.13.21-.2-1.82-.38-3.66-.67-5.49-.87-5.03-.56-9.69-.4-13.59.42-.38.51-.76,1.03-1.13,1.55,3.79-.81,7.72-1.25,11.75-1.25,2.72,0,5.39.2,8,.57Z" fill="#fff"/>
    <path d="M206.73,183.86c6.6.09,15.37-1.93,24.71-5.75,8.36-3.42,15.76-7.78,19.94-11.66-1.77-1.48-2.89-3.69-2.89-6.18,0-.42.03-.84.1-1.24-13.67-4.2-29.01-5.95-43.1-6.47.06.44.11.87.16,1.31.97,8.98.24,17.52-2.08,25.31,1.56,1.11,2.7,2.75,3.17,4.67Z" fill="#fff"/>
    <path d="M198.91,177.71c.93,0,1.82.16,2.65.45,2.15-7.41,2.81-15.52,1.89-24.04-.06-.54-.13-1.09-.2-1.62-7.56-.21-14.72-.07-20.99.22-19.26.89-36.25,3.5-44.85,5.53.15.68.23,1.39.23,2.12,0,1.76-.45,3.41-1.25,4.84,14.65,1.84,35.45,7.5,56.43,15.31,1.47-1.71,3.66-2.8,6.1-2.8Z" fill="#fff"/>
    <path d="M160.56,130.38c6.2-3.67,12.5-6.74,18.89-9.2-.19-.63-.3-1.3-.3-1.99,0-1.51.5-2.91,1.33-4.04-1.62-1.13-3.31-2.18-5.08-3.17-2.17-1.21-4.41-2.29-6.71-3.24-2.95-1.13-6.01-2.01-9.17-2.63-.31.29-.62.58-.92.87-6.46,6.17-12.13,13.42-16.84,21.53-5.67,9.76-8.6,18.48-9.84,22.81.38.18.75.39,1.1.61,5.85-5.97,15.07-14.17,27.53-21.56Z" fill="#fff"/>
    <path d="M202.9,150.27c-1.42-8.21-4.48-15.64-9.13-22.11-1-1.39-2.07-2.73-3.2-4.02-1.21,1.14-2.84,1.84-4.64,1.84-2.25,0-4.25-1.1-5.48-2.79-6.35,2.43-12.61,5.46-18.76,9.11-12.16,7.21-21.18,15.2-26.94,21.06.8.81,1.46,1.75,1.94,2.79,8.32-1.99,25.02-4.69,45.46-5.64,6.21-.29,13.27-.42,20.75-.23Z" fill="#fff"/>
    <path d="M169.88,212.45c10.06-4.11,18.65-11.08,24.76-19.89-2.26-1.42-3.77-3.94-3.77-6.81,0-1.19.26-2.32.73-3.34-21.28-7.89-42.3-13.54-56.72-15.17-.37.39-.77.75-1.19,1.07,2.59,7.73,7.38,18.45,13.68,28.57,3.47,5.57,8.1,12.09,13.84,18.21,1.13-.25,2.25-.53,3.35-.85,1.81-.51,3.59-1.12,5.32-1.8Z" fill="#fff"/>
    <path d="M127.64,150.37c.75,0,1.48.09,2.18.24,1.28-4.47,4.22-13.18,9.99-23.12,4.76-8.21,10.48-15.54,16.99-21.82-2.61-.38-5.28-.57-8-.57-4.03,0-7.96.43-11.75,1.25-9.66,13.56-15.75,29.84-16.93,47.46,1.83-2.1,4.52-3.43,7.53-3.43Z" fill="#fff"/>
    <path d="M158.64,215.6c-4.66-5.1-9.08-10.99-13.16-17.55-6.27-10.07-11.06-20.75-13.74-28.59-1.25.56-2.64.88-4.1.88-2.98,0-5.65-1.31-7.49-3.38,1.33,18.16,7.88,34.86,18.16,48.62,3.26.62,6.61.96,10.04.98,3.48-.05,6.92-.37,10.28-.97Z" fill="#fff"/>
    <path d="M191.71,122.07c.08.09.15.18.23.26.04-.07.08-.15.11-.22-.12-.02-.23-.03-.34-.04Z" fill="#fff"/>
    <path d="M206.94,186.09s0-.01,0-.02c-.02,0-.03,0-.05,0,.02,0,.03.01.05.02Z" fill="#fff"/>
    <path d="M164.55,214.25c-1.1.31-2.22.6-3.35.85.02.03.05.05.07.08,2.96-.68,5.83-1.59,8.6-2.72-1.73.68-3.51,1.28-5.32,1.8Z" fill="#fff"/>
    <path d="M148.36,216.57c.15,0,.29,0,.44,0,3.39,0,6.7-.3,9.92-.88-.03-.03-.05-.06-.08-.09-3.36.6-6.8.92-10.28.97Z" fill="#fff"/>
  </g>
</svg>
