<?xml version="1.0" encoding="UTF-8"?>
<svg id="a" data-name="Layer 1" xmlns="http://www.w3.org/2000/svg" width="1008.3" height="1161.77" xmlns:xlink="http://www.w3.org/1999/xlink" viewBox="0 0 1008.3 1161.77">
  <defs>
    <linearGradient id="c" x1="887.76" y1="859.11" x2="109.67" y2="81.03" gradientUnits="userSpaceOnUse">
      <stop offset="0" stop-color="#bcbcbc"/>
      <stop offset="1" stop-color="#eee"/>
    </linearGradient>
    <linearGradient id="f" x1="882.3" y1="860.28" x2="373.55" y2="338.71" gradientUnits="userSpaceOnUse">
      <stop offset="0" stop-color="#eee"/>
      <stop offset="1" stop-color="#fff"/>
    </linearGradient>
    <linearGradient id="i" x1="901.69" y1="861.9" x2="606.7" y2="584.01" gradientUnits="userSpaceOnUse">
      <stop offset=".01" stop-color="#f7f7f7"/>
      <stop offset="1" stop-color="#fff"/>
    </linearGradient>
  </defs>
  <g id="b" data-name="layer1">
    <path id="d" data-name="rect2727" d="M222.13,65.54h693.75v821.69H94.19V193.48c0-70.66,57.28-127.94,127.94-127.94Z" fill="url(#c)"/>
  </g>
  <g id="e" data-name="layer2">
    <path id="g" data-name="rect6963" d="M429.22,272.28h486.66l.19,614.96H301.47l-.19-487.05c0-70.65,57.28-127.92,127.94-127.92h0Z" fill="url(#f)"/>
  </g>
  <g id="h" data-name="layer3">
    <path id="j" data-name="rect12826" d="M631.49,474.91h284.45v412.33h-412.4v-284.39c0-70.66,57.28-127.94,127.94-127.94h0Z" fill="url(#i)"/>
  </g>
  <path d="M816.7,1072.33v-123.29h52.24c30.8,0,45.24,15.84,45.24,39.29,0,21.88-14.09,40.51-44.02,40.51h-30.19v43.49h-23.28ZM839.97,1009.07h26.95c16.28,0,23.89-7.88,23.89-20.48s-8.4-19.51-24.59-19.51h-26.25v39.99Z" fill="#fff"/>
  <path d="M718.77,1072.33v-123.29h80.94v20.39h-57.66v33.51h55.65v20.22h-55.65v49.18h-23.28Z" fill="#fff"/>
  <path d="M566.73,1072.33v-123.29h32.72l26.25,73.24c1.57,4.9,4.55,15.23,5.43,19.95.96-4.73,4.28-14.79,5.95-19.78l25.81-73.42h31.94v123.29h-21.35v-74.82c0-10.94.18-19.25.61-25.55-1.75,6.47-5.08,17.59-7.96,25.81l-26.34,74.56h-17.76l-26.69-74.56c-2.98-8.57-6.47-19.42-7.96-25.81.35,6.39.44,15.4.44,25.55v74.82h-21.09Z" fill="#fff"/>
  <path d="M447.85,1072.33v-95.73h21.44v20.13h.35c4.37-10.94,13.13-21.96,31.42-21.96,20.56,0,29.75,14,29.75,34.39v63.18h-22.14v-57.84c0-12.87-4.46-20.66-17.33-20.66s-21.35,8.75-21.35,24.85v53.64h-22.14Z" fill="#fff"/>
  <path d="M390.81,1074.08c-30.71,0-49.97-17.59-49.97-49.61s21.96-49.7,48.04-49.7c32.03,0,43.4,23.45,43.4,46.73,0,2.8-.18,5.69-.35,8.4h-67.73c1.58,18.2,11.03,26.86,27.65,26.86,10.76,0,17.94-3.15,24.41-10.67l12.86,12.86c-8.93,10.06-19.86,15.14-38.33,15.14ZM364.56,1016.15h45.68c-1.23-16.89-9.45-24.32-21.88-24.32s-21.61,7.44-23.8,24.32Z" fill="#fff"/>
  <path d="M234.94,1109.61v-133.01h21.44v19.69h.26c4.64-11.02,13.65-21.52,33.86-21.52,24.33,0,40.6,18.9,40.6,49.7s-14.96,49.61-39.81,49.61c-18.55,0-29.23-9.88-33.78-20.74h-.44v56.27h-22.14ZM256.9,1024.47c0,20.56,10.59,31.68,25.46,31.68s25.55-11.12,25.55-31.68-10.68-31.68-25.55-31.68-25.46,11.03-25.46,31.68Z" fill="#fff"/>
  <path d="M157.65,1074.08c-35.44,0-62.13-23.54-62.13-63.44s26.69-63.44,62.13-63.44,61.95,23.63,61.95,63.44-26.6,63.44-61.95,63.44ZM119.58,1010.64c0,26.43,14.44,42.88,38.06,42.88s37.89-16.45,37.89-42.88-14.35-42.79-37.89-42.79-38.06,16.45-38.06,42.79Z" fill="#fff"/>
</svg>
