<?xml version="1.0" encoding="UTF-8"?>
<svg id="a" data-name="Layer 1" xmlns="http://www.w3.org/2000/svg" width="500" height="440" xmlns:xlink="http://www.w3.org/1999/xlink" viewBox="0 0 500 440">
  <defs>
    <linearGradient id="b" x1="129.45" y1="143.71" x2="291.6" y2="165.62" gradientUnits="userSpaceOnUse">
      <stop offset="0" stop-color="#0f6bff"/>
      <stop offset=".23" stop-color="#0f6afc"/>
      <stop offset=".35" stop-color="#1068f4"/>
      <stop offset=".45" stop-color="#1364e6"/>
      <stop offset=".54" stop-color="#165fd3"/>
      <stop offset=".62" stop-color="#1b58b9"/>
      <stop offset=".69" stop-color="#204f9a"/>
      <stop offset=".76" stop-color="#274575"/>
      <stop offset=".82" stop-color="#2e394c"/>
      <stop offset=".85" stop-color="#333"/>
    </linearGradient>
    <linearGradient id="c" x1="-6869.11" y1="143.71" x2="-6706.96" y2="165.62" gradientTransform="translate(-6501.9856) scale(-1 1)" xlink:href="#b"/>
  </defs>
  <g>
    <g>
      <path d="M130.42,339.05c-7.98,0-15.09,3.62-19.9,9.23-.44-.56-.94-1.06-1.43-1.56-1.5-1.5-3.18-2.81-4.93-3.87-4.12-2.49-8.86-3.74-13.54-3.81h0c-6.67,0-13.41,2.56-18.46,7.67-5.11,5.11-7.67,11.79-7.67,18.46,0,4.68,1.25,9.42,3.74,13.54,1.06,1.75,2.37,3.43,3.87,4.93,1.5,1.5,3.18,2.81,4.93,3.87,10.04,6.11,23.39,4.8,32.06-3.87.5-.5,1-1.06,1.43-1.56,4.8,5.61,11.91,9.23,19.9,9.23,14.41,0,26.14-11.73,26.14-26.14s-11.73-26.14-26.14-26.14h0ZM76.9,365.18c0-3.49,1.31-6.99,3.99-9.67,2.68-2.68,6.18-3.99,9.67-3.99h0c1.43,0,2.87.25,4.24.69l-10.79,10.79-6.42,6.42c-.44-1.37-.69-2.81-.69-4.24h0ZM100.29,374.85c-3.74,3.74-9.17,4.87-13.91,3.37l6.67-6.67,10.54-10.54,1.25-1.25c-.37,1.75-.56,3.62-.56,5.49,0,3.49-1.31,6.99-3.99,9.67v-.06h0ZM130.42,378.91c-7.55,0-13.72-6.11-13.72-13.72s6.11-13.72,13.72-13.72,13.72,6.11,13.72,13.72-6.11,13.72-13.72,13.72Z" fill="#333"/>
      <polygon points="44.09 360.75 18.39 320.9 3.42 320.9 3.42 390.88 18.39 390.88 18.39 347.09 46.4 390.88 59.12 390.88 59.12 320.9 44.09 320.9 44.09 360.75" fill="#333"/>
      <polygon points="205.89 360.75 180.19 320.9 165.22 320.9 165.22 390.88 180.19 390.88 180.19 347.09 208.2 390.88 220.86 390.88 220.86 320.9 205.89 320.9 205.89 360.75" fill="#0f6bff"/>
      <path d="M265.33,343.04c-3.74-2.31-8.05-3.43-12.85-3.43s-9.54,1.12-13.47,3.37c-3.93,2.25-6.99,5.36-9.17,9.29-2.18,3.93-3.31,8.36-3.31,13.16s1.12,9.23,3.37,13.16c2.25,3.93,5.36,7.05,9.42,9.29,4.05,2.25,8.73,3.37,14.1,3.37s8.92-.87,12.54-2.68c3.62-1.75,6.61-4.3,8.92-7.67l-10.6-6.3c-1.12,1.43-2.62,2.62-4.55,3.43-1.93.87-3.93,1.31-5.93,1.31-3.37,0-6.05-.75-8.17-2.18-2.12-1.5-3.74-3.74-4.99-6.74h36.43c.25-1.5.37-3.18.37-4.99,0-4.8-1.06-9.17-3.12-13.1-2.12-3.93-5.05-7.05-8.8-9.36l-.19.06h0ZM240.26,359.57c.13-2.18,1.37-3.99,3.74-5.55,2.37-1.56,5.18-2.31,8.36-2.31s5.68.69,7.8,2.06c2.12,1.37,3.43,3.31,3.87,5.8h-23.83.06Z" fill="#0f6bff"/>
      <path d="M326.77,342.98c-3.74-2.25-8.23-3.37-13.47-3.37s-5.36.44-7.92,1.37c-2.56.87-4.93,2.18-7.17,3.87v-3.87h-14.28v69.98h14.28v-23.7c2.18,1.68,4.62,2.93,7.17,3.87,2.62.87,5.24,1.37,7.92,1.37,5.18,0,9.67-1.12,13.47-3.43,3.74-2.31,6.67-5.43,8.67-9.42,2-3.99,2.99-8.54,2.99-13.6s-1-9.61-2.99-13.54c-2-3.99-4.87-7.11-8.67-9.36v-.19h0ZM320.53,375.04c-2.37,2.31-5.43,3.43-9.17,3.43s-6.92-1.12-9.42-3.43c-2.49-2.31-3.74-5.3-3.74-9.04s1.25-6.8,3.81-9.17c2.56-2.37,5.68-3.62,9.42-3.62s6.8,1.19,9.17,3.49c2.37,2.31,3.56,5.43,3.56,9.17s-1.19,6.86-3.56,9.17h-.06Z" fill="#0f6bff"/>
      <path d="M378.92,341.73c-2.99-1.25-5.86-1.87-8.73-1.87-4.24,0-8.23,1.56-11.91,4.62v-23.58h-14.28v69.98h14.28v-30.56c.37-2.74,1.37-4.74,2.87-6.05,1.56-1.31,3.31-1.93,5.43-1.93s4.62.69,6.42,2.12c1.81,1.43,2.68,3.74,2.68,6.92v29.5h14.28v-29.88c-.06-5.3-1.19-9.54-3.37-12.72-2.18-3.12-4.74-5.3-7.67-6.55h0Z" fill="#0f6bff"/>
      <path d="M434.31,343.04c-3.93-2.31-8.23-3.49-12.85-3.49s-9.04,1.19-12.97,3.49c-3.93,2.31-7.11,5.43-9.42,9.42-2.31,3.93-3.49,8.3-3.49,12.97s1.19,8.92,3.49,12.91c2.31,3.99,5.43,7.11,9.42,9.42,3.93,2.31,8.3,3.49,12.97,3.49s8.92-1.19,12.85-3.49c3.93-2.31,7.05-5.49,9.42-9.42,2.31-3.99,3.49-8.3,3.49-12.91s-1.19-9.04-3.49-12.97c-2.31-3.93-5.43-7.05-9.42-9.42h0ZM429.75,373.79c-2.37,2.31-5.18,3.49-8.42,3.49s-6.05-1.19-8.36-3.49c-2.31-2.31-3.49-5.11-3.49-8.36s1.19-6.05,3.49-8.42c2.31-2.37,5.11-3.49,8.36-3.49s6.05,1.19,8.42,3.49c2.37,2.37,3.49,5.18,3.49,8.42s-1.19,6.05-3.49,8.36Z" fill="#0f6bff"/>
      <path d="M493.37,366.24c-1.93-2.18-4.18-3.74-6.67-4.68-2.56-.94-5.74-1.81-9.61-2.62-2.99-.56-5.18-1.19-6.55-1.68-1.37-.56-2.06-1.37-2.06-2.49s.56-2.25,1.68-2.99c1.12-.75,2.62-1.12,4.49-1.12s3.87.37,5.24,1.19c1.31.81,2.37,2,3.18,3.62l11.35-5.55c-1.93-3.31-4.68-5.86-8.11-7.61-3.43-1.75-7.36-2.62-11.66-2.62s-7.05.62-10.1,1.87c-3.12,1.25-5.55,3.06-7.36,5.43-1.81,2.37-2.74,5.18-2.74,8.36s.94,5.99,2.74,7.98c1.81,2,3.99,3.43,6.55,4.43,2.56.94,5.74,1.87,9.48,2.68,3.31.75,5.74,1.43,7.3,2.06,1.56.62,2.31,1.62,2.31,2.93s-.81,2.68-2.49,3.49c-1.68.81-3.62,1.25-5.8,1.25-5.43,0-8.92-2.06-10.48-6.24l-11.48,5.86c1.87,3.81,4.68,6.61,8.42,8.54,3.74,1.93,8.23,2.87,13.54,2.87s7.42-.62,10.79-1.81c3.31-1.19,5.99-2.99,8.05-5.36,2-2.37,3.06-5.24,3.06-8.54s-.94-6.86-2.87-9.04l-.19-.19h0Z" fill="#0f6bff"/>
      <path d="M112.71,408.7c-1.09-.86-2.26-1.44-3.51-1.74-1.25-.3-2.36-.46-3.33-.46-1.57,0-2.99.33-4.24.99-1.25.66-2.32,1.46-3.22,2.39v-2.68h-5.63v26.82h5.63v-15.02c0-1.47.19-2.68.56-3.65.38-.97.87-1.73,1.47-2.31.61-.57,1.28-.97,2.01-1.21.73-.23,1.44-.35,2.12-.35.72,0,1.45.1,2.2.29.75.2,1.44.55,2.06,1.05.62.5,1.14,1.16,1.56,1.99.41.82.62,1.88.62,3.17v16.04h5.63v-16.04c0-2.36-.39-4.28-1.15-5.77-.77-1.48-1.7-2.65-2.79-3.51h0ZM3.73,434.02h5.95v-15.72h15.34v-5.63h-15.34v-10.57h15.99v-5.63H3.73v37.55ZM53.48,410.69c-1.27-1.29-2.76-2.3-4.48-3.03-1.72-.73-3.54-1.1-5.47-1.1s-3.76.37-5.47,1.1c-1.72.73-3.21,1.74-4.48,3.03-1.27,1.29-2.27,2.78-3,4.48-.73,1.7-1.1,3.51-1.1,5.45s.37,3.76,1.1,5.47c.73,1.72,1.73,3.22,3,4.51,1.27,1.29,2.76,2.3,4.48,3.03,1.72.73,3.54,1.1,5.47,1.1s3.76-.37,5.47-1.1c1.72-.73,3.21-1.74,4.48-3.03,1.27-1.29,2.27-2.79,3-4.51.73-1.72,1.1-3.54,1.1-5.47s-.37-3.75-1.1-5.45c-.73-1.7-1.73-3.19-3-4.48ZM51.28,423.91c-.45,1.02-1.05,1.91-1.8,2.68-.75.77-1.64,1.38-2.65,1.82-1.02.45-2.12.67-3.3.67s-2.28-.22-3.3-.67c-1.02-.45-1.91-1.05-2.68-1.82-.77-.77-1.38-1.66-1.82-2.68-.45-1.02-.67-2.12-.67-3.3s.22-2.28.67-3.3c.45-1.02,1.05-1.9,1.82-2.65.77-.75,1.66-1.35,2.68-1.8,1.02-.45,2.12-.67,3.3-.67s2.28.22,3.3.67c1.02.45,1.9,1.05,2.65,1.8.75.75,1.35,1.64,1.8,2.65.45,1.02.67,2.12.67,3.3s-.22,2.28-.67,3.3ZM81.25,422.17c0,1.47-.2,2.68-.59,3.65-.39.97-.88,1.73-1.47,2.31-.59.57-1.25.98-1.99,1.21-.73.23-1.46.35-2.17.35s-1.4-.1-2.17-.29c-.77-.2-1.46-.54-2.06-1.02-.61-.48-1.12-1.14-1.53-1.96-.41-.82-.62-1.88-.62-3.17v-16.04h-5.63v16.04c0,2.36.38,4.28,1.15,5.77.77,1.48,1.7,2.65,2.79,3.51,1.09.86,2.26,1.44,3.51,1.74,1.25.3,2.36.46,3.33.46,1.54,0,2.93-.33,4.18-.99,1.25-.66,2.34-1.46,3.27-2.39v2.68h5.63v-26.82h-5.63v14.97h0ZM175.18,410.9c-.97-1.29-2.16-2.33-3.59-3.14-1.43-.81-3.11-1.21-5.04-1.21-2.04,0-3.87.36-5.5,1.07-1.63.72-3.01,1.71-4.16,2.98-1.14,1.27-2.03,2.76-2.66,4.48-.63,1.72-.94,3.58-.94,5.58s.31,3.81.94,5.52c.62,1.72,1.51,3.21,2.66,4.48,1.14,1.27,2.53,2.26,4.16,2.98s3.46,1.07,5.5,1.07c1.93,0,3.61-.4,5.04-1.21,1.43-.8,2.63-1.85,3.59-3.14v3.65h5.63v-26.82h-5.63v3.7ZM174.54,424.12c-.43,1.09-1.02,2.03-1.77,2.82-.75.79-1.65,1.4-2.68,1.85-1.04.45-2.16.67-3.38.67s-2.25-.23-3.22-.7c-.97-.46-1.8-1.1-2.49-1.9-.7-.8-1.23-1.73-1.61-2.79-.38-1.05-.56-2.19-.56-3.41s.19-2.35.56-3.41c.38-1.05.91-1.99,1.61-2.79.7-.81,1.53-1.44,2.49-1.9.97-.46,2.04-.7,3.22-.7s2.34.21,3.38.64c1.04.43,1.93,1.04,2.68,1.82.75.79,1.34,1.72,1.77,2.79.43,1.07.64,2.24.64,3.49s-.21,2.42-.64,3.51h0ZM243.18,410.69c-1.27-1.29-2.76-2.3-4.48-3.03-1.72-.73-3.54-1.1-5.47-1.1s-3.76.37-5.47,1.1c-1.72.73-3.21,1.74-4.48,3.03-1.27,1.29-2.27,2.78-3,4.48-.73,1.7-1.1,3.51-1.1,5.45s.37,3.76,1.1,5.47c.73,1.72,1.73,3.22,3,4.51,1.27,1.29,2.76,2.3,4.48,3.03,1.72.73,3.54,1.1,5.47,1.1s3.76-.37,5.47-1.1c1.72-.73,3.21-1.74,4.48-3.03,1.27-1.29,2.27-2.79,3-4.51.73-1.72,1.1-3.54,1.1-5.47s-.37-3.75-1.1-5.45c-.73-1.7-1.73-3.19-3-4.48ZM240.98,423.91c-.45,1.02-1.05,1.91-1.8,2.68-.75.77-1.64,1.38-2.65,1.82-1.02.45-2.12.67-3.3.67s-2.28-.22-3.3-.67c-1.02-.45-1.91-1.05-2.68-1.82-.77-.77-1.38-1.66-1.82-2.68-.45-1.02-.67-2.12-.67-3.3s.22-2.28.67-3.3c.45-1.02,1.05-1.9,1.82-2.65.77-.75,1.66-1.35,2.68-1.8,1.02-.45,2.12-.67,3.3-.67s2.28.22,3.3.67c1.02.45,1.9,1.05,2.65,1.8.75.75,1.35,1.64,1.8,2.65.45,1.02.67,2.12.67,3.3s-.22,2.28-.67,3.3ZM274.88,412.22c-.77-1.48-1.7-2.65-2.79-3.51-1.09-.86-2.26-1.44-3.51-1.74-1.25-.3-2.36-.46-3.33-.46-1.57,0-2.99.33-4.24.99-1.25.66-2.32,1.46-3.22,2.39v-2.68h-5.63v26.82h5.63v-15.02c0-1.47.19-2.68.56-3.65s.87-1.73,1.47-2.31c.61-.57,1.28-.97,2.01-1.21.73-.23,1.44-.35,2.12-.35.72,0,1.45.1,2.2.29.75.2,1.44.55,2.06,1.05.62.5,1.14,1.16,1.56,1.99.41.82.62,1.88.62,3.17v16.04h5.63v-16.04c0-2.36-.39-4.28-1.15-5.77h0ZM211.12,394.22c-.86,0-1.6.3-2.23.91-.63.61-.94,1.36-.94,2.25s.31,1.6.94,2.23c.62.63,1.37.94,2.23.94s1.6-.31,2.23-.94c.62-.62.94-1.37.94-2.23s-.31-1.64-.94-2.25c-.63-.61-1.37-.91-2.23-.91ZM199.38,429.03c-1.25,0-2.19-.26-2.82-.78-.63-.52-.94-1.53-.94-3.03v-12.93h6.22v-5.1h-6.22v-8.91l-5.63,1.93v6.97h-5.52v5.1h5.52v13.3c0,1.72.18,3.13.54,4.24.36,1.11.87,1.99,1.53,2.66.66.66,1.48,1.13,2.47,1.4.98.27,2.12.4,3.41.4.61,0,1.25-.03,1.93-.08.68-.05,1.38-.12,2.09-.19v-5.2c-.5.07-.96.13-1.37.16-.41.04-.81.05-1.21.05h0ZM208.28,434.02h5.63v-26.82h-5.63v26.82ZM143.1,410.9c-1-1.29-2.21-2.33-3.62-3.14-1.41-.81-3.08-1.21-5.02-1.21-2.04,0-3.87.36-5.5,1.07-1.63.72-3.01,1.71-4.16,2.98-1.14,1.27-2.03,2.76-2.65,4.48-.63,1.72-.94,3.58-.94,5.58s.31,3.81.94,5.52c.62,1.72,1.51,3.21,2.65,4.48,1.14,1.27,2.53,2.26,4.16,2.98,1.63.72,3.46,1.07,5.5,1.07,1.93,0,3.6-.4,5.02-1.21,1.41-.8,2.62-1.83,3.62-3.08v3.59h5.63v-37.55h-5.63v14.43ZM142.46,424.12c-.43,1.09-1.02,2.03-1.77,2.82-.75.79-1.65,1.4-2.68,1.85-1.04.45-2.16.67-3.38.67s-2.25-.23-3.22-.7c-.97-.46-1.8-1.1-2.49-1.9-.7-.8-1.23-1.73-1.61-2.79-.38-1.05-.56-2.19-.56-3.41s.19-2.35.56-3.41c.38-1.05.91-1.99,1.61-2.79.7-.8,1.53-1.44,2.49-1.9.97-.46,2.04-.7,3.22-.7s2.34.21,3.38.64c1.04.43,1.93,1.04,2.68,1.82.75.79,1.34,1.72,1.77,2.79.43,1.07.64,2.24.64,3.49s-.21,2.42-.64,3.51h0Z" fill="#333"/>
    </g>
    <g>
      <path d="M130.42,339.05c-7.98,0-15.09,3.62-19.9,9.23-.44-.56-.94-1.06-1.43-1.56-1.5-1.5-3.18-2.81-4.93-3.87-4.12-2.49-8.86-3.74-13.54-3.81h0c-6.67,0-13.41,2.56-18.46,7.67-5.11,5.11-7.67,11.79-7.67,18.46,0,4.68,1.25,9.42,3.74,13.54,1.06,1.75,2.37,3.43,3.87,4.93,1.5,1.5,3.18,2.81,4.93,3.87,10.04,6.11,23.39,4.8,32.06-3.87.5-.5,1-1.06,1.43-1.56,4.8,5.61,11.91,9.23,19.9,9.23,14.41,0,26.14-11.73,26.14-26.14s-11.73-26.14-26.14-26.14h0ZM76.9,365.18c0-3.49,1.31-6.99,3.99-9.67,2.68-2.68,6.18-3.99,9.67-3.99h0c1.43,0,2.87.25,4.24.69l-10.79,10.79-6.42,6.42c-.44-1.37-.69-2.81-.69-4.24h0ZM100.29,374.85c-3.74,3.74-9.17,4.87-13.91,3.37l6.67-6.67,10.54-10.54,1.25-1.25c-.37,1.75-.56,3.62-.56,5.49,0,3.49-1.31,6.99-3.99,9.67v-.06h0ZM130.42,378.91c-7.55,0-13.72-6.11-13.72-13.72s6.11-13.72,13.72-13.72,13.72,6.11,13.72,13.72-6.11,13.72-13.72,13.72Z" fill="#333"/>
      <polygon points="44.09 360.75 18.39 320.9 3.42 320.9 3.42 390.88 18.39 390.88 18.39 347.09 46.4 390.88 59.12 390.88 59.12 320.9 44.09 320.9 44.09 360.75" fill="#333"/>
      <polygon points="205.89 360.75 180.19 320.9 165.22 320.9 165.22 390.88 180.19 390.88 180.19 347.09 208.2 390.88 220.86 390.88 220.86 320.9 205.89 320.9 205.89 360.75" fill="#0f6bff"/>
      <path d="M265.33,343.04c-3.74-2.31-8.05-3.43-12.85-3.43s-9.54,1.12-13.47,3.37c-3.93,2.25-6.99,5.36-9.17,9.29-2.18,3.93-3.31,8.36-3.31,13.16s1.12,9.23,3.37,13.16c2.25,3.93,5.36,7.05,9.42,9.29,4.05,2.25,8.73,3.37,14.1,3.37s8.92-.87,12.54-2.68c3.62-1.75,6.61-4.3,8.92-7.67l-10.6-6.3c-1.12,1.43-2.62,2.62-4.55,3.43-1.93.87-3.93,1.31-5.93,1.31-3.37,0-6.05-.75-8.17-2.18-2.12-1.5-3.74-3.74-4.99-6.74h36.43c.25-1.5.37-3.18.37-4.99,0-4.8-1.06-9.17-3.12-13.1-2.12-3.93-5.05-7.05-8.8-9.36l-.19.06h0ZM240.26,359.57c.13-2.18,1.37-3.99,3.74-5.55,2.37-1.56,5.18-2.31,8.36-2.31s5.68.69,7.8,2.06c2.12,1.37,3.43,3.31,3.87,5.8h-23.83.06Z" fill="#0f6bff"/>
      <path d="M326.77,342.98c-3.74-2.25-8.23-3.37-13.47-3.37s-5.36.44-7.92,1.37c-2.56.87-4.93,2.18-7.17,3.87v-3.87h-14.28v69.98h14.28v-23.7c2.18,1.68,4.62,2.93,7.17,3.87,2.62.87,5.24,1.37,7.92,1.37,5.18,0,9.67-1.12,13.47-3.43,3.74-2.31,6.67-5.43,8.67-9.42,2-3.99,2.99-8.54,2.99-13.6s-1-9.61-2.99-13.54c-2-3.99-4.87-7.11-8.67-9.36v-.19h0ZM320.53,375.04c-2.37,2.31-5.43,3.43-9.17,3.43s-6.92-1.12-9.42-3.43c-2.49-2.31-3.74-5.3-3.74-9.04s1.25-6.8,3.81-9.17c2.56-2.37,5.68-3.62,9.42-3.62s6.8,1.19,9.17,3.49c2.37,2.31,3.56,5.43,3.56,9.17s-1.19,6.86-3.56,9.17h-.06Z" fill="#0f6bff"/>
      <path d="M378.92,341.73c-2.99-1.25-5.86-1.87-8.73-1.87-4.24,0-8.23,1.56-11.91,4.62v-23.58h-14.28v69.98h14.28v-30.56c.37-2.74,1.37-4.74,2.87-6.05,1.56-1.31,3.31-1.93,5.43-1.93s4.62.69,6.42,2.12c1.81,1.43,2.68,3.74,2.68,6.92v29.5h14.28v-29.88c-.06-5.3-1.19-9.54-3.37-12.72-2.18-3.12-4.74-5.3-7.67-6.55h0Z" fill="#0f6bff"/>
      <path d="M434.31,343.04c-3.93-2.31-8.23-3.49-12.85-3.49s-9.04,1.19-12.97,3.49c-3.93,2.31-7.11,5.43-9.42,9.42-2.31,3.93-3.49,8.3-3.49,12.97s1.19,8.92,3.49,12.91c2.31,3.99,5.43,7.11,9.42,9.42,3.93,2.31,8.3,3.49,12.97,3.49s8.92-1.19,12.85-3.49c3.93-2.31,7.05-5.49,9.42-9.42,2.31-3.99,3.49-8.3,3.49-12.91s-1.19-9.04-3.49-12.97c-2.31-3.93-5.43-7.05-9.42-9.42h0ZM429.75,373.79c-2.37,2.31-5.18,3.49-8.42,3.49s-6.05-1.19-8.36-3.49c-2.31-2.31-3.49-5.11-3.49-8.36s1.19-6.05,3.49-8.42c2.31-2.37,5.11-3.49,8.36-3.49s6.05,1.19,8.42,3.49c2.37,2.37,3.49,5.18,3.49,8.42s-1.19,6.05-3.49,8.36Z" fill="#0f6bff"/>
      <path d="M493.37,366.24c-1.93-2.18-4.18-3.74-6.67-4.68-2.56-.94-5.74-1.81-9.61-2.62-2.99-.56-5.18-1.19-6.55-1.68-1.37-.56-2.06-1.37-2.06-2.49s.56-2.25,1.68-2.99c1.12-.75,2.62-1.12,4.49-1.12s3.87.37,5.24,1.19c1.31.81,2.37,2,3.18,3.62l11.35-5.55c-1.93-3.31-4.68-5.86-8.11-7.61-3.43-1.75-7.36-2.62-11.66-2.62s-7.05.62-10.1,1.87c-3.12,1.25-5.55,3.06-7.36,5.43-1.81,2.37-2.74,5.18-2.74,8.36s.94,5.99,2.74,7.98c1.81,2,3.99,3.43,6.55,4.43,2.56.94,5.74,1.87,9.48,2.68,3.31.75,5.74,1.43,7.3,2.06,1.56.62,2.31,1.62,2.31,2.93s-.81,2.68-2.49,3.49c-1.68.81-3.62,1.25-5.8,1.25-5.43,0-8.92-2.06-10.48-6.24l-11.48,5.86c1.87,3.81,4.68,6.61,8.42,8.54,3.74,1.93,8.23,2.87,13.54,2.87s7.42-.62,10.79-1.81c3.31-1.19,5.99-2.99,8.05-5.36,2-2.37,3.06-5.24,3.06-8.54s-.94-6.86-2.87-9.04l-.19-.19h0Z" fill="#0f6bff"/>
      <path d="M112.71,408.7c-1.09-.86-2.26-1.44-3.51-1.74-1.25-.3-2.36-.46-3.33-.46-1.57,0-2.99.33-4.24.99-1.25.66-2.32,1.46-3.22,2.39v-2.68h-5.63v26.82h5.63v-15.02c0-1.47.19-2.68.56-3.65.38-.97.87-1.73,1.47-2.31.61-.57,1.28-.97,2.01-1.21.73-.23,1.44-.35,2.12-.35.72,0,1.45.1,2.2.29.75.2,1.44.55,2.06,1.05.62.5,1.14,1.16,1.56,1.99.41.82.62,1.88.62,3.17v16.04h5.63v-16.04c0-2.36-.39-4.28-1.15-5.77-.77-1.48-1.7-2.65-2.79-3.51h0ZM3.73,434.02h5.95v-15.72h15.34v-5.63h-15.34v-10.57h15.99v-5.63H3.73v37.55ZM53.48,410.69c-1.27-1.29-2.76-2.3-4.48-3.03-1.72-.73-3.54-1.1-5.47-1.1s-3.76.37-5.47,1.1c-1.72.73-3.21,1.74-4.48,3.03-1.27,1.29-2.27,2.78-3,4.48-.73,1.7-1.1,3.51-1.1,5.45s.37,3.76,1.1,5.47c.73,1.72,1.73,3.22,3,4.51,1.27,1.29,2.76,2.3,4.48,3.03,1.72.73,3.54,1.1,5.47,1.1s3.76-.37,5.47-1.1c1.72-.73,3.21-1.74,4.48-3.03,1.27-1.29,2.27-2.79,3-4.51.73-1.72,1.1-3.54,1.1-5.47s-.37-3.75-1.1-5.45c-.73-1.7-1.73-3.19-3-4.48ZM51.28,423.91c-.45,1.02-1.05,1.91-1.8,2.68-.75.77-1.64,1.38-2.65,1.82-1.02.45-2.12.67-3.3.67s-2.28-.22-3.3-.67c-1.02-.45-1.91-1.05-2.68-1.82-.77-.77-1.38-1.66-1.82-2.68-.45-1.02-.67-2.12-.67-3.3s.22-2.28.67-3.3c.45-1.02,1.05-1.9,1.82-2.65.77-.75,1.66-1.35,2.68-1.8,1.02-.45,2.12-.67,3.3-.67s2.28.22,3.3.67c1.02.45,1.9,1.05,2.65,1.8.75.75,1.35,1.64,1.8,2.65.45,1.02.67,2.12.67,3.3s-.22,2.28-.67,3.3ZM81.25,422.17c0,1.47-.2,2.68-.59,3.65-.39.97-.88,1.73-1.47,2.31-.59.57-1.25.98-1.99,1.21-.73.23-1.46.35-2.17.35s-1.4-.1-2.17-.29c-.77-.2-1.46-.54-2.06-1.02-.61-.48-1.12-1.14-1.53-1.96-.41-.82-.62-1.88-.62-3.17v-16.04h-5.63v16.04c0,2.36.38,4.28,1.15,5.77.77,1.48,1.7,2.65,2.79,3.51,1.09.86,2.26,1.44,3.51,1.74,1.25.3,2.36.46,3.33.46,1.54,0,2.93-.33,4.18-.99,1.25-.66,2.34-1.46,3.27-2.39v2.68h5.63v-26.82h-5.63v14.97h0ZM175.18,410.9c-.97-1.29-2.16-2.33-3.59-3.14-1.43-.81-3.11-1.21-5.04-1.21-2.04,0-3.87.36-5.5,1.07-1.63.72-3.01,1.71-4.16,2.98-1.14,1.27-2.03,2.76-2.66,4.48-.63,1.72-.94,3.58-.94,5.58s.31,3.81.94,5.52c.62,1.72,1.51,3.21,2.66,4.48,1.14,1.27,2.53,2.26,4.16,2.98s3.46,1.07,5.5,1.07c1.93,0,3.61-.4,5.04-1.21,1.43-.8,2.63-1.85,3.59-3.14v3.65h5.63v-26.82h-5.63v3.7ZM174.54,424.12c-.43,1.09-1.02,2.03-1.77,2.82-.75.79-1.65,1.4-2.68,1.85-1.04.45-2.16.67-3.38.67s-2.25-.23-3.22-.7c-.97-.46-1.8-1.1-2.49-1.9-.7-.8-1.23-1.73-1.61-2.79-.38-1.05-.56-2.19-.56-3.41s.19-2.35.56-3.41c.38-1.05.91-1.99,1.61-2.79.7-.81,1.53-1.44,2.49-1.9.97-.46,2.04-.7,3.22-.7s2.34.21,3.38.64c1.04.43,1.93,1.04,2.68,1.82.75.79,1.34,1.72,1.77,2.79.43,1.07.64,2.24.64,3.49s-.21,2.42-.64,3.51h0ZM243.18,410.69c-1.27-1.29-2.76-2.3-4.48-3.03-1.72-.73-3.54-1.1-5.47-1.1s-3.76.37-5.47,1.1c-1.72.73-3.21,1.74-4.48,3.03-1.27,1.29-2.27,2.78-3,4.48-.73,1.7-1.1,3.51-1.1,5.45s.37,3.76,1.1,5.47c.73,1.72,1.73,3.22,3,4.51,1.27,1.29,2.76,2.3,4.48,3.03,1.72.73,3.54,1.1,5.47,1.1s3.76-.37,5.47-1.1c1.72-.73,3.21-1.74,4.48-3.03,1.27-1.29,2.27-2.79,3-4.51.73-1.72,1.1-3.54,1.1-5.47s-.37-3.75-1.1-5.45c-.73-1.7-1.73-3.19-3-4.48ZM240.98,423.91c-.45,1.02-1.05,1.91-1.8,2.68-.75.77-1.64,1.38-2.65,1.82-1.02.45-2.12.67-3.3.67s-2.28-.22-3.3-.67c-1.02-.45-1.91-1.05-2.68-1.82-.77-.77-1.38-1.66-1.82-2.68-.45-1.02-.67-2.12-.67-3.3s.22-2.28.67-3.3c.45-1.02,1.05-1.9,1.82-2.65.77-.75,1.66-1.35,2.68-1.8,1.02-.45,2.12-.67,3.3-.67s2.28.22,3.3.67c1.02.45,1.9,1.05,2.65,1.8.75.75,1.35,1.64,1.8,2.65.45,1.02.67,2.12.67,3.3s-.22,2.28-.67,3.3ZM274.88,412.22c-.77-1.48-1.7-2.65-2.79-3.51-1.09-.86-2.26-1.44-3.51-1.74-1.25-.3-2.36-.46-3.33-.46-1.57,0-2.99.33-4.24.99-1.25.66-2.32,1.46-3.22,2.39v-2.68h-5.63v26.82h5.63v-15.02c0-1.47.19-2.68.56-3.65s.87-1.73,1.47-2.31c.61-.57,1.28-.97,2.01-1.21.73-.23,1.44-.35,2.12-.35.72,0,1.45.1,2.2.29.75.2,1.44.55,2.06,1.05.62.5,1.14,1.16,1.56,1.99.41.82.62,1.88.62,3.17v16.04h5.63v-16.04c0-2.36-.39-4.28-1.15-5.77h0ZM211.12,394.22c-.86,0-1.6.3-2.23.91-.63.61-.94,1.36-.94,2.25s.31,1.6.94,2.23c.62.63,1.37.94,2.23.94s1.6-.31,2.23-.94c.62-.62.94-1.37.94-2.23s-.31-1.64-.94-2.25c-.63-.61-1.37-.91-2.23-.91ZM199.38,429.03c-1.25,0-2.19-.26-2.82-.78-.63-.52-.94-1.53-.94-3.03v-12.93h6.22v-5.1h-6.22v-8.91l-5.63,1.93v6.97h-5.52v5.1h5.52v13.3c0,1.72.18,3.13.54,4.24.36,1.11.87,1.99,1.53,2.66.66.66,1.48,1.13,2.47,1.4.98.27,2.12.4,3.41.4.61,0,1.25-.03,1.93-.08.68-.05,1.38-.12,2.09-.19v-5.2c-.5.07-.96.13-1.37.16-.41.04-.81.05-1.21.05h0ZM208.28,434.02h5.63v-26.82h-5.63v26.82ZM143.1,410.9c-1-1.29-2.21-2.33-3.62-3.14-1.41-.81-3.08-1.21-5.02-1.21-2.04,0-3.87.36-5.5,1.07-1.63.72-3.01,1.71-4.16,2.98-1.14,1.27-2.03,2.76-2.65,4.48-.63,1.72-.94,3.58-.94,5.58s.31,3.81.94,5.52c.62,1.72,1.51,3.21,2.65,4.48,1.14,1.27,2.53,2.26,4.16,2.98,1.63.72,3.46,1.07,5.5,1.07,1.93,0,3.6-.4,5.02-1.21,1.41-.8,2.62-1.83,3.62-3.08v3.59h5.63v-37.55h-5.63v14.43ZM142.46,424.12c-.43,1.09-1.02,2.03-1.77,2.82-.75.79-1.65,1.4-2.68,1.85-1.04.45-2.16.67-3.38.67s-2.25-.23-3.22-.7c-.97-.46-1.8-1.1-2.49-1.9-.7-.8-1.23-1.73-1.61-2.79-.38-1.05-.56-2.19-.56-3.41s.19-2.35.56-3.41c.38-1.05.91-1.99,1.61-2.79.7-.8,1.53-1.44,2.49-1.9.97-.46,2.04-.7,3.22-.7s2.34.21,3.38.64c1.04.43,1.93,1.04,2.68,1.82.75.79,1.34,1.72,1.77,2.79.43,1.07.64,2.24.64,3.49s-.21,2.42-.64,3.51h0Z" fill="#333"/>
    </g>
  </g>
  <path d="M88.86,288.59h99.2c51.19,0,56.06-81.55,56.01-130.04l4.22-149.14L88.86,288.59Z" fill="url(#b)"/>
  <path d="M407.71,288.59h-99.2c-51.19,0-56.06-81.55-56.01-130.04l-4.22-149.14,159.43,279.18Z" fill="url(#c)"/>
</svg>
