<svg width="2398" height="477" viewBox="0 0 2398 477" fill="none" xmlns="http://www.w3.org/2000/svg">
<path fill-rule="evenodd" clip-rule="evenodd" d="M225.069 65.993C227.763 64.669 230.917 64.669 233.611 65.993L388.248 141.993C393.059 144.358 395.218 148.05 392.859 152.874C390.5 157.699 384.518 161.828 379.706 159.464L229.34 85.562L84.4054 156.794V392.106H229.34C234.698 392.106 239.043 396.461 239.043 401.834C239.043 407.207 234.698 411.562 229.34 411.562H74.7027C69.3441 411.562 65 407.207 65 401.834V150.728C65 147.016 67.1073 143.627 70.432 141.993L225.069 65.993Z" fill="white"/>
<path fill-rule="evenodd" clip-rule="evenodd" d="M225.069 65.993C227.763 64.669 230.917 64.669 233.611 65.993L388.248 141.993C393.059 144.358 395.218 148.05 392.859 152.874C390.5 157.699 384.518 161.828 379.706 159.464L229.34 85.562L84.4054 156.794V392.106H229.34C234.698 392.106 239.043 396.461 239.043 401.834C239.043 407.207 234.698 411.562 229.34 411.562H74.7027C69.3441 411.562 65 407.207 65 401.834V150.728C65 147.016 67.1073 143.627 70.432 141.993L225.069 65.993Z" fill="white"/>
<path fill-rule="evenodd" clip-rule="evenodd" d="M388.248 141.993C393.409 144.53 396.105 147.18 396.105 152.552V401.834C396.105 407.207 391.761 411.562 386.403 411.562C381.044 411.562 376.7 407.207 376.7 401.834V152.552C376.7 147.18 382.889 141.993 388.248 141.993Z" fill="white"/>
<path fill-rule="evenodd" clip-rule="evenodd" d="M230.554 355.356L176.38 329.056C172.462 327.153 167.747 328.796 165.849 332.725C163.952 336.654 165.59 341.381 169.509 343.284L227.05 371.218C227.173 371.279 227.297 371.337 227.422 371.391C228.44 371.834 229.505 372.044 230.554 372.044C231.604 372.044 232.669 371.834 233.687 371.391C233.812 371.337 233.936 371.279 234.059 371.218L349.21 315.315C353.129 313.413 354.767 308.686 352.87 304.757C350.972 300.828 346.257 299.185 342.339 301.087L230.554 355.356Z" fill="white"/>
<path fill-rule="evenodd" clip-rule="evenodd" d="M230.553 224.476C235.911 224.451 239.624 225.531 239.649 230.904L240.862 401.788C240.887 407.161 236.563 411.537 231.204 411.562C225.846 411.587 221.481 407.252 221.456 401.879L220.244 230.995C220.219 225.622 225.194 224.501 230.553 224.476Z" fill="white"/>
<path fill-rule="evenodd" clip-rule="evenodd" d="M230.554 289.691L176.38 263.391C172.462 261.488 167.747 263.131 165.849 267.06C163.952 270.989 165.59 275.716 169.509 277.619L227.05 305.553C227.173 305.614 227.297 305.672 227.422 305.726C228.44 306.169 229.505 306.379 230.554 306.379C231.604 306.379 232.669 306.169 233.687 305.726C233.812 305.672 233.936 305.614 234.059 305.553L349.21 249.65C353.129 247.748 354.767 243.021 352.87 239.092C350.972 235.163 346.257 233.52 342.339 235.423L230.554 289.691Z" fill="white"/>
<path fill-rule="evenodd" clip-rule="evenodd" d="M230.457 223.374L176.38 197.121C172.462 195.218 167.747 196.861 165.849 200.79C163.952 204.719 165.59 209.446 169.509 211.349L227.038 239.278C227.185 239.351 227.333 239.419 227.484 239.483C228.511 239.919 229.584 240.12 230.64 240.108C231.697 240.097 232.767 239.872 233.785 239.413C233.934 239.346 234.081 239.274 234.226 239.198L388.175 160.196C392.051 158.207 393.585 153.445 391.601 149.559C389.617 145.673 384.867 144.135 380.991 146.124L230.457 223.374Z" fill="white"/>
<path d="M2203.93 332.965V143.598H2332.79V180.223H2245.16V219.019H2320.31V255.373H2245.16V296.34H2332.79V332.965H2203.93Z" fill="white"/>
<path d="M2095.94 336.22C2079.3 336.22 2065.19 333.417 2053.62 327.81C2042.04 322.022 2032.19 314.607 2024.05 305.563L2051.18 278.162C2064.02 292.632 2079.85 299.866 2098.66 299.866C2108.78 299.866 2116.29 297.786 2121.17 293.626C2126.06 289.466 2128.5 283.95 2128.5 277.077C2128.5 271.832 2127.05 267.491 2124.16 264.055C2121.26 260.437 2115.39 257.996 2106.52 256.729L2087.8 254.288C2067.73 251.756 2052.99 245.697 2043.58 236.111C2034.36 226.525 2029.75 213.774 2029.75 197.857C2029.75 189.357 2031.37 181.579 2034.63 174.526C2037.88 167.472 2042.5 161.413 2048.46 156.349C2054.61 151.284 2062.03 147.396 2070.71 144.683C2079.57 141.789 2089.61 140.342 2100.83 140.342C2115.11 140.342 2127.68 142.603 2138.54 147.124C2149.39 151.646 2158.7 158.248 2166.48 166.929L2139.08 194.602C2134.56 189.357 2129.04 185.106 2122.53 181.851C2116.2 178.414 2108.15 176.696 2098.38 176.696C2089.16 176.696 2082.29 178.324 2077.77 181.579C2073.24 184.835 2070.98 189.357 2070.98 195.144C2070.98 201.656 2072.7 206.358 2076.14 209.252C2079.75 212.146 2085.54 214.226 2093.5 215.492L2112.22 218.476C2131.75 221.551 2146.22 227.61 2155.63 236.653C2165.03 245.516 2169.74 258.176 2169.74 274.635C2169.74 283.679 2168.11 291.998 2164.85 299.595C2161.6 307.191 2156.8 313.702 2150.47 319.128C2144.32 324.554 2136.64 328.805 2127.41 331.88C2118.19 334.773 2107.7 336.22 2095.94 336.22Z" fill="white"/>
<path d="M1885.32 143.598V259.714C1885.32 273.098 1887.94 283.136 1893.19 289.828C1898.44 296.34 1907.21 299.595 1919.51 299.595C1931.81 299.595 1940.58 296.34 1945.82 289.828C1951.07 283.136 1953.69 273.098 1953.69 259.714V143.598H1993.84V255.373C1993.84 269.3 1992.49 281.418 1989.77 291.727C1987.24 301.856 1982.99 310.266 1977.02 316.958C1971.05 323.47 1963.37 328.353 1953.96 331.609C1944.56 334.683 1933.07 336.221 1919.51 336.221C1905.94 336.221 1894.46 334.683 1885.05 331.609C1875.65 328.353 1867.96 323.47 1861.99 316.958C1856.02 310.266 1851.68 301.856 1848.97 291.727C1846.44 281.418 1845.17 269.3 1845.17 255.373V143.598H1885.32Z" fill="white"/>
<path d="M1728.55 336.22C1716.07 336.22 1704.67 334.14 1694.36 329.98C1684.05 325.821 1675.28 319.671 1668.05 311.532C1660.81 303.212 1655.21 292.993 1651.23 280.875C1647.25 268.576 1645.26 254.378 1645.26 238.281C1645.26 222.184 1647.25 208.076 1651.23 195.958C1655.21 183.659 1660.81 173.44 1668.05 165.301C1675.28 156.982 1684.05 150.742 1694.36 146.582C1704.67 142.422 1716.07 140.342 1728.55 140.342C1741.03 140.342 1752.42 142.422 1762.73 146.582C1773.04 150.742 1781.81 156.982 1789.05 165.301C1796.28 173.44 1801.89 183.659 1805.87 195.958C1809.85 208.076 1811.84 222.184 1811.84 238.281C1811.84 254.378 1809.85 268.576 1805.87 280.875C1801.89 292.993 1796.28 303.212 1789.05 311.532C1781.81 319.671 1773.04 325.821 1762.73 329.98C1752.42 334.14 1741.03 336.22 1728.55 336.22ZM1728.55 299.595C1741.03 299.595 1750.7 295.525 1757.58 287.386C1764.63 279.247 1768.16 267.582 1768.16 252.389V224.173C1768.16 208.981 1764.63 197.315 1757.58 189.176C1750.7 181.037 1741.03 176.967 1728.55 176.967C1716.07 176.967 1706.3 181.037 1699.25 189.176C1692.37 197.315 1688.94 208.981 1688.94 224.173V252.389C1688.94 267.582 1692.37 279.247 1699.25 287.386C1706.3 295.525 1716.07 299.595 1728.55 299.595Z" fill="white"/>
<path d="M1569.67 255.373H1497.5V332.965H1456.26V143.598H1497.5V219.019H1569.67V143.598H1610.9V332.965H1569.67V255.373Z" fill="white"/>
<path d="M1253.61 243.436L1235.43 205.454H1234.62V332.965H1195.82V143.598H1240.86L1292.68 233.127L1310.86 271.109H1311.67V143.598H1350.47V332.965H1305.43L1253.61 243.436Z" fill="white"/>
<path d="M1031.03 332.965V143.598H1159.9V180.223H1072.27V219.019H1147.42V255.373H1072.27V296.34H1159.9V332.965H1031.03Z" fill="white"/>
<path d="M866.237 332.965V143.598H995.105V180.223H907.475V219.019H982.625V255.373H907.475V296.34H995.105V332.965H866.237Z" fill="white"/>
<path d="M724.665 332.965H683.428V143.598H773.228C781.91 143.598 789.777 145.045 796.831 147.938C803.885 150.832 809.854 154.992 814.737 160.418C819.801 165.663 823.69 171.994 826.403 179.409C829.116 186.825 830.472 195.054 830.472 204.098C830.472 216.939 827.578 228.153 821.791 237.739C816.184 247.325 807.593 254.288 796.017 258.629L833.185 332.965H787.336L754.237 263.512H724.665V332.965ZM768.073 228.786C774.223 228.786 779.016 227.248 782.452 224.174C786.07 220.918 787.878 216.216 787.878 210.066V198.129C787.878 191.979 786.07 187.367 782.452 184.293C779.016 181.037 774.223 179.409 768.073 179.409H724.665V228.786H768.073Z" fill="white"/>
<path d="M608.616 302.85H607.26C605.813 312.436 600.93 320.395 592.61 326.725C584.29 333.055 572.986 336.22 558.697 336.22C547.845 336.22 537.717 334.14 528.312 329.98C518.907 325.821 510.677 319.671 503.623 311.532C496.57 303.393 491.053 293.265 487.074 281.146C483.095 269.028 481.105 255.011 481.105 239.095C481.105 223.179 483.185 209.071 487.345 196.772C491.505 184.473 497.293 174.164 504.709 165.844C512.305 157.524 521.348 151.194 531.839 146.853C542.329 142.512 553.995 140.342 566.836 140.342C583.838 140.342 598.488 144.05 610.787 151.465C623.086 158.7 632.762 169.642 639.816 184.292L606.175 203.555C603.281 196.139 598.759 189.899 592.61 184.835C586.46 179.59 577.869 176.967 566.836 176.967C553.995 176.967 543.776 180.675 536.179 188.091C528.583 195.506 524.785 207.172 524.785 223.088V253.474C524.785 269.209 528.583 280.875 536.179 288.472C543.776 295.887 553.995 299.595 566.836 299.595C571.901 299.595 576.694 299.052 581.215 297.967C585.737 296.701 589.716 294.892 593.152 292.541C596.589 290.009 599.211 287.025 601.02 283.588C603.01 280.152 604.004 276.082 604.004 271.38V261.884H568.735V227.429H643.343V332.965H608.616V302.85Z" fill="white"/>
</svg>
