<?xml version="1.0" encoding="UTF-8" standalone="no"?>
<svg
   width="2267.79"
   height="346.5621"
   viewBox="0 0 2267.79 346.5621"
   fill="none"
   version="1.1"
   id="svg17"
   sodipodi:docname="greenhouse-horizontal-white.svg"
   inkscape:version="1.4.3 (0d15f75, 2025-12-25)"
   inkscape:export-filename="greenhouse-horizontal-white.png"
   inkscape:export-xdpi="96"
   inkscape:export-ydpi="96"
   xmlns:inkscape="http://www.inkscape.org/namespaces/inkscape"
   xmlns:sodipodi="http://sodipodi.sourceforge.net/DTD/sodipodi-0.dtd"
   xmlns="http://www.w3.org/2000/svg"
   xmlns:svg="http://www.w3.org/2000/svg">
  <defs
     id="defs17" />
  <sodipodi:namedview
     id="namedview17"
     pagecolor="#ffffff"
     bordercolor="#000000"
     borderopacity="0.25"
     inkscape:showpageshadow="2"
     inkscape:pageopacity="0.0"
     inkscape:pagecheckerboard="0"
     inkscape:deskcolor="#d1d1d1"
     inkscape:zoom="0.054507338"
     inkscape:cx="1128.2885"
     inkscape:cy="155.94231"
     inkscape:current-layer="svg17" />
  <path
     fill-rule="evenodd"
     clip-rule="evenodd"
     d="m 160.069,0.993 c 2.694,-1.324 5.848,-1.324 8.542,0 l 154.637,76 c 4.811,2.365 6.97,6.057 4.611,10.881 -2.359,4.825 -8.341,8.954 -13.153,6.59 L 164.34,20.562 19.4054,91.794 V 327.106 H 164.34 c 5.358,0 9.703,4.355 9.703,9.728 0,5.373 -4.345,9.728 -9.703,9.728 H 9.7027 C 4.3441,346.562 0,342.207 0,336.834 V 85.728 c 0,-3.712 2.1073,-7.101 5.432,-8.735 z"
     fill="#ffffff"
     id="path1" />
  <path
     fill-rule="evenodd"
     clip-rule="evenodd"
     d="m 160.069,0.993 c 2.694,-1.324 5.848,-1.324 8.542,0 l 154.637,76 c 4.811,2.365 6.97,6.057 4.611,10.881 -2.359,4.825 -8.341,8.954 -13.153,6.59 L 164.34,20.562 19.4054,91.794 V 327.106 H 164.34 c 5.358,0 9.703,4.355 9.703,9.728 0,5.373 -4.345,9.728 -9.703,9.728 H 9.7027 C 4.3441,346.562 0,342.207 0,336.834 V 85.728 c 0,-3.712 2.1073,-7.101 5.432,-8.735 z"
     fill="#ffffff"
     id="path2" />
  <path
     fill-rule="evenodd"
     clip-rule="evenodd"
     d="m 323.248,76.993 c 5.161,2.537 7.857,5.187 7.857,10.559 v 249.282 c 0,5.373 -4.344,9.728 -9.702,9.728 -5.359,0 -9.703,-4.355 -9.703,-9.728 V 87.552 c 0,-5.372 6.189,-10.559 11.548,-10.559 z"
     fill="#ffffff"
     id="path3" />
  <path
     fill-rule="evenodd"
     clip-rule="evenodd"
     d="m 165.554,290.356 -54.174,-26.3 c -3.918,-1.903 -8.633,-0.26 -10.531,3.669 -1.897,3.929 -0.259,8.656 3.66,10.559 l 57.541,27.934 c 0.123,0.061 0.247,0.119 0.372,0.173 1.018,0.443 2.083,0.653 3.132,0.653 1.05,0 2.115,-0.21 3.133,-0.653 0.125,-0.054 0.249,-0.112 0.372,-0.173 L 284.21,250.315 c 3.919,-1.902 5.557,-6.629 3.66,-10.558 -1.898,-3.929 -6.613,-5.572 -10.531,-3.67 z"
     fill="#ffffff"
     id="path4" />
  <path
     fill-rule="evenodd"
     clip-rule="evenodd"
     d="m 165.553,159.476 c 5.358,-0.025 9.071,1.055 9.096,6.428 l 1.213,170.884 c 0.025,5.373 -4.299,9.749 -9.658,9.774 -5.358,0.025 -9.723,-4.31 -9.748,-9.683 l -1.212,-170.884 c -0.025,-5.373 4.95,-6.494 10.309,-6.519 z"
     fill="#ffffff"
     id="path5" />
  <path
     fill-rule="evenodd"
     clip-rule="evenodd"
     d="m 165.554,224.691 -54.174,-26.3 c -3.918,-1.903 -8.633,-0.26 -10.531,3.669 -1.897,3.929 -0.259,8.656 3.66,10.559 l 57.541,27.934 c 0.123,0.061 0.247,0.119 0.372,0.173 1.018,0.443 2.083,0.653 3.132,0.653 1.05,0 2.115,-0.21 3.133,-0.653 0.125,-0.054 0.249,-0.112 0.372,-0.173 L 284.21,184.65 c 3.919,-1.902 5.557,-6.629 3.66,-10.558 -1.898,-3.929 -6.613,-5.572 -10.531,-3.669 z"
     fill="#ffffff"
     id="path6" />
  <path
     fill-rule="evenodd"
     clip-rule="evenodd"
     d="M 165.457,158.374 111.38,132.121 c -3.918,-1.903 -8.633,-0.26 -10.531,3.669 -1.897,3.929 -0.259,8.656 3.66,10.559 l 57.529,27.929 c 0.147,0.073 0.295,0.141 0.446,0.205 1.027,0.436 2.1,0.637 3.156,0.625 1.057,-0.011 2.127,-0.236 3.145,-0.695 0.149,-0.067 0.296,-0.139 0.441,-0.215 L 323.175,95.196 c 3.876,-1.989 5.41,-6.751 3.426,-10.637 -1.984,-3.886 -6.734,-5.424 -10.61,-3.435 z"
     fill="#ffffff"
     id="path7" />
  <path
     d="M 2138.93,267.965 V 78.598 h 128.86 v 36.625 h -87.63 v 38.796 h 75.15 v 36.354 h -75.15 v 40.967 h 87.63 v 36.625 z"
     fill="#ffffff"
     id="path8" />
  <path
     d="m 2030.94,271.22 c -16.64,0 -30.75,-2.803 -42.32,-8.41 -11.58,-5.788 -21.43,-13.203 -29.57,-22.247 l 27.13,-27.401 c 12.84,14.47 28.67,21.704 47.48,21.704 10.12,0 17.63,-2.08 22.51,-6.24 4.89,-4.16 7.33,-9.676 7.33,-16.549 0,-5.245 -1.45,-9.586 -4.34,-13.022 -2.9,-3.618 -8.77,-6.059 -17.64,-7.326 l -18.72,-2.441 c -20.07,-2.532 -34.81,-8.591 -44.22,-18.177 -9.22,-9.586 -13.83,-22.337 -13.83,-38.254 0,-8.5 1.62,-16.278 4.88,-23.331 3.25,-7.054 7.87,-13.113 13.83,-18.177 6.15,-5.065 13.57,-8.953 22.25,-11.666 8.86,-2.894 18.9,-4.341 30.12,-4.341 14.28,0 26.85,2.261 37.71,6.782 10.85,4.522 20.16,11.124 27.94,19.805 l -27.4,27.673 c -4.52,-5.245 -10.04,-9.496 -16.55,-12.751 -6.33,-3.437 -14.38,-5.155 -24.15,-5.155 -9.22,0 -16.09,1.628 -20.61,4.883 -4.53,3.256 -6.79,7.778 -6.79,13.565 0,6.512 1.72,11.214 5.16,14.108 3.61,2.894 9.4,4.974 17.36,6.24 l 18.72,2.984 c 19.53,3.075 34,9.134 43.41,18.177 9.4,8.863 14.11,21.523 14.11,37.982 0,9.044 -1.63,17.363 -4.89,24.96 -3.25,7.596 -8.05,14.107 -14.38,19.533 -6.15,5.426 -13.83,9.677 -23.06,12.752 -9.22,2.893 -19.71,4.34 -31.47,4.34 z"
     fill="#ffffff"
     id="path9" />
  <path
     d="m 1820.32,78.598 v 116.116 c 0,13.384 2.62,23.422 7.87,30.114 5.25,6.512 14.02,9.767 26.32,9.767 12.3,0 21.07,-3.255 26.31,-9.767 5.25,-6.692 7.87,-16.73 7.87,-30.114 V 78.598 h 40.15 v 111.775 c 0,13.927 -1.35,26.045 -4.07,36.354 -2.53,10.129 -6.78,18.539 -12.75,25.231 -5.97,6.512 -13.65,11.395 -23.06,14.651 -9.4,3.074 -20.89,4.612 -34.45,4.612 -13.57,0 -25.05,-1.538 -34.46,-4.612 -9.4,-3.256 -17.09,-8.139 -23.06,-14.651 -5.97,-6.692 -10.31,-15.102 -13.02,-25.231 -2.53,-10.309 -3.8,-22.427 -3.8,-36.354 V 78.598 Z"
     fill="#ffffff"
     id="path10" />
  <path
     d="m 1663.55,271.22 c -12.48,0 -23.88,-2.08 -34.19,-6.24 -10.31,-4.159 -19.08,-10.309 -26.31,-18.448 -7.24,-8.32 -12.84,-18.539 -16.82,-30.657 -3.98,-12.299 -5.97,-26.497 -5.97,-42.594 0,-16.097 1.99,-30.205 5.97,-42.323 3.98,-12.299 9.58,-22.518 16.82,-30.657 7.23,-8.319 16,-14.559 26.31,-18.719 10.31,-4.16 21.71,-6.24 34.19,-6.24 12.48,0 23.87,2.08 34.18,6.24 10.31,4.16 19.08,10.4 26.32,18.719 7.23,8.139 12.84,18.358 16.82,30.657 3.98,12.118 5.97,26.226 5.97,42.323 0,16.097 -1.99,30.295 -5.97,42.594 -3.98,12.118 -9.59,22.337 -16.82,30.657 -7.24,8.139 -16.01,14.289 -26.32,18.448 -10.31,4.16 -21.7,6.24 -34.18,6.24 z m 0,-36.625 c 12.48,0 22.15,-4.07 29.03,-12.209 7.05,-8.139 10.58,-19.804 10.58,-34.997 v -28.216 c 0,-15.192 -3.53,-26.858 -10.58,-34.997 -6.88,-8.139 -16.55,-12.209 -29.03,-12.209 -12.48,0 -22.25,4.07 -29.3,12.209 -6.88,8.139 -10.31,19.805 -10.31,34.997 v 28.216 c 0,15.193 3.43,26.858 10.31,34.997 7.05,8.139 16.82,12.209 29.3,12.209 z"
     fill="#ffffff"
     id="path11" />
  <path
     d="m 1504.67,190.373 h -72.17 v 77.592 h -41.24 V 78.598 h 41.24 v 75.421 h 72.17 V 78.598 h 41.23 v 189.367 h -41.23 z"
     fill="#ffffff"
     id="path12" />
  <path
     d="m 1188.61,178.436 -18.18,-37.982 h -0.81 v 127.511 h -38.8 V 78.598 h 45.04 l 51.82,89.529 18.18,37.982 h 0.81 V 78.598 h 38.8 v 189.367 h -45.04 z"
     fill="#ffffff"
     id="path13" />
  <path
     d="M 966.03,267.965 V 78.598 h 128.87 v 36.625 h -87.63 v 38.796 h 75.15 v 36.354 h -75.15 v 40.967 h 87.63 v 36.625 z"
     fill="#ffffff"
     id="path14" />
  <path
     d="M 801.237,267.965 V 78.598 h 128.868 v 36.625 h -87.63 v 38.796 h 75.15 v 36.354 h -75.15 v 40.967 h 87.63 v 36.625 z"
     fill="#ffffff"
     id="path15" />
  <path
     d="M 659.665,267.965 H 618.428 V 78.598 h 89.8 c 8.682,0 16.549,1.447 23.603,4.34 7.054,2.894 13.023,7.054 17.906,12.48 5.064,5.245 8.953,11.576 11.666,18.991 2.713,7.416 4.069,15.645 4.069,24.689 0,12.841 -2.894,24.055 -8.681,33.641 -5.607,9.586 -14.198,16.549 -25.774,20.89 l 37.168,74.336 h -45.849 l -33.099,-69.453 h -29.572 z m 43.408,-104.179 c 6.15,0 10.943,-1.538 14.379,-4.612 3.618,-3.256 5.426,-7.958 5.426,-14.108 v -11.937 c 0,-6.15 -1.808,-10.762 -5.426,-13.836 -3.436,-3.256 -8.229,-4.884 -14.379,-4.884 h -43.408 v 49.377 z"
     fill="#ffffff"
     id="path16" />
  <path
     d="m 543.616,237.85 h -1.356 c -1.447,9.586 -6.33,17.545 -14.65,23.875 -8.32,6.33 -19.624,9.495 -33.913,9.495 -10.852,0 -20.98,-2.08 -30.385,-6.24 -9.405,-4.159 -17.635,-10.309 -24.689,-18.448 -7.053,-8.139 -12.57,-18.267 -16.549,-30.386 -3.979,-12.118 -5.969,-26.135 -5.969,-42.051 0,-15.916 2.08,-30.024 6.24,-42.323 4.16,-12.299 9.948,-22.608 17.364,-30.928 7.596,-8.32 16.639,-14.65 27.13,-18.991 10.49,-4.341 22.156,-6.511 34.997,-6.511 17.002,0 31.652,3.708 43.951,11.123 12.299,7.235 21.975,18.177 29.029,32.827 l -33.641,19.263 c -2.894,-7.416 -7.416,-13.656 -13.565,-18.72 -6.15,-5.245 -14.741,-7.868 -25.774,-7.868 -12.841,0 -23.06,3.708 -30.657,11.124 -7.596,7.415 -11.394,19.081 -11.394,34.997 v 30.386 c 0,15.735 3.798,27.401 11.394,34.998 7.597,7.415 17.816,11.123 30.657,11.123 5.065,0 9.858,-0.543 14.379,-1.628 4.522,-1.266 8.501,-3.075 11.937,-5.426 3.437,-2.532 6.059,-5.516 7.868,-8.953 1.99,-3.436 2.984,-7.506 2.984,-12.208 v -9.496 h -35.269 v -34.455 h 74.608 v 105.536 h -34.727 z"
     fill="#ffffff"
     id="path17" />
</svg>
