<svg width="1024" height="1024" viewBox="0 0 1024 1024" fill="none" xmlns="http://www.w3.org/2000/svg">
<g clip-path="url(#clip0_443_5662)">
<g filter="url(#filter0_d_443_5662)">
<path d="M97.7727 716.813C173.083 745.728 330.231 795.755 516.318 795.755C705.147 795.755 852.871 752.194 920.53 727.924C843.012 874.285 689.155 974 512 974C330.397 974 173.272 869.216 97.7727 716.813ZM932.299 319.943C959.069 378.431 974 443.471 974 512C974 512.546 973.989 513.092 973.987 513.637C936.244 512.693 840.695 518.789 653.642 577.549C568.154 604.404 558.251 616.288 439.452 634.693C294.975 657.075 123.714 648.303 67.7117 639.114C56.1791 598.73 50 556.087 50 512C50 444.378 64.5258 380.148 90.6312 322.263C145.292 333.08 303.235 360.2 513.205 360.2C740.459 360.2 895.048 328.428 932.299 319.943ZM512 50C647.696 50 769.73 108.5 854.253 201.658C798.026 211.486 675.03 229.044 513.205 229.044C365.099 229.044 237.323 214.331 167.363 204.307C251.967 109.611 375.022 50 512 50Z" fill="url(#paint0_linear_443_5662)"/>
</g>
</g>
<defs>
<filter id="filter0_d_443_5662" x="-0.0999985" y="-0.0999985" width="1024.2" height="1024.2" filterUnits="userSpaceOnUse" color-interpolation-filters="sRGB">
<feFlood flood-opacity="0" result="BackgroundImageFix"/>
<feColorMatrix in="SourceAlpha" type="matrix" values="0 0 0 0 0 0 0 0 0 0 0 0 0 0 0 0 0 0 127 0" result="hardAlpha"/>
<feOffset/>
<feGaussianBlur stdDeviation="25.05"/>
<feComposite in2="hardAlpha" operator="out"/>
<feColorMatrix type="matrix" values="0 0 0 0 1 0 0 0 0 0.686275 0 0 0 0 0.160784 0 0 0 0.6 0"/>
<feBlend mode="normal" in2="BackgroundImageFix" result="effect1_dropShadow_443_5662"/>
<feBlend mode="normal" in="SourceGraphic" in2="effect1_dropShadow_443_5662" result="shape"/>
</filter>
<linearGradient id="paint0_linear_443_5662" x1="584.6" y1="50" x2="380" y2="974" gradientUnits="userSpaceOnUse">
<stop stop-color="#FFCB49"/>
<stop offset="1" stop-color="#FF960C"/>
</linearGradient>
<clipPath id="clip0_443_5662">
<rect width="1024" height="1024" fill="white"/>
</clipPath>
</defs>
</svg>
