<?xml version="1.0" encoding="UTF-8" standalone="no"?>
<svg
   width="9849"
   height="975"
   viewBox="0 0 9849 975"
   fill="none"
   version="1.1"
   id="svg38"
   sodipodi:docname="konfidence-horizontal-color.svg"
   inkscape:version="1.4.3 (0d15f75, 2025-12-25)"
   inkscape:export-filename="konfidence-horizontal-color.png"
   inkscape:export-xdpi="96"
   inkscape:export-ydpi="96"
   xmlns:inkscape="http://www.inkscape.org/namespaces/inkscape"
   xmlns:sodipodi="http://sodipodi.sourceforge.net/DTD/sodipodi-0.dtd"
   xmlns="http://www.w3.org/2000/svg"
   xmlns:svg="http://www.w3.org/2000/svg">
  <sodipodi:namedview
     id="namedview38"
     pagecolor="#ffffff"
     bordercolor="#000000"
     borderopacity="0.25"
     inkscape:showpageshadow="2"
     inkscape:pageopacity="0.0"
     inkscape:pagecheckerboard="0"
     inkscape:deskcolor="#d1d1d1"
     inkscape:zoom="0.021666667"
     inkscape:cx="4915.3846"
     inkscape:cy="484.61538"
     inkscape:current-layer="svg38" />
  <path
     d="m 942.17,699.627 c 77.51,29.949 239.25,81.762 430.77,81.762 194.35,0 346.39,-45.116 416.03,-70.253 C 1709.18,862.724 1550.83,966 1368.5,966 1181.59,966 1019.87,857.474 942.17,699.627 Z m 858.91,-411.044 c 27.55,60.577 42.92,127.94 42.92,198.917 0,0.565 -0.01,1.131 -0.01,1.696 -38.85,-0.978 -137.19,5.336 -329.71,66.194 -87.99,27.814 -98.18,40.123 -220.45,59.185 -148.7,23.182 -324.96,14.096 -382.6,4.579 C 899.36,577.328 893,533.161 893,487.5 c 0,-70.037 14.95,-136.561 41.82,-196.513 56.26,11.203 218.81,39.291 434.92,39.292 233.89,0 393,-32.907 431.34,-41.696 z M 1368.5,9 c 139.66,0 265.26,60.59 352.25,157.075 -57.87,10.178 -184.46,28.364 -351.01,28.364 -152.43,0 -283.94,-15.239 -355.95,-25.621 C 1100.87,70.74 1227.52,9 1368.5,9 Z"
     fill="url(#paint0_linear_442_5238)"
     id="path1"
     style="fill:url(#paint0_linear_442_5238)" />
  <path
     d="m 8521.13,0 c 69.45,0 134.79,11.871 196.02,35.606 61.22,22.823 112.85,57.514 154.89,104.072 l -64.43,64.359 c -39.29,-40.167 -82.7,-68.923 -130.22,-86.268 -47.51,-18.257 -98.69,-27.387 -153.51,-27.387 -57.57,0 -111.03,10.043 -160.38,30.127 -49.34,19.171 -92.29,47.013 -128.84,83.528 -36.55,35.604 -65.34,77.6 -86.35,125.984 -20.11,47.472 -30.16,99.967 -30.16,157.481 0,57.513 10.05,110.463 30.16,158.847 21.01,47.47 49.8,89.463 86.35,125.979 36.55,35.603 79.5,63.449 128.84,83.533 49.35,19.171 102.81,28.761 160.38,28.762 54.82,-0.001 106,-9.131 153.51,-27.388 47.52,-18.258 90.93,-47.475 130.22,-87.642 l 64.43,64.36 c -42.04,46.558 -93.67,81.707 -154.89,105.447 -61.23,23.73 -127.03,35.6 -197.39,35.6 -72.19,0 -138.89,-11.87 -200.12,-35.6 -61.22,-24.65 -114.22,-58.888 -159,-102.708 -44.78,-43.819 -79.96,-95.398 -105.54,-154.737 -24.68,-59.339 -37.01,-124.159 -37.01,-194.453 0,-70.295 12.33,-135.117 37.01,-194.457 25.58,-59.338 60.76,-110.918 105.54,-154.737 45.69,-43.819 99.15,-77.596 160.37,-101.332 C 8382.23,12.328 8448.94,0 8521.13,0 Z"
     fill="url(#paint1_linear_442_5238)"
     id="path2"
     style="fill:url(#paint1_linear_442_5238)" />
  <path
     d="M 2750.98,785.643 V 8.219 h 100.05 V 966.79 h -83.61 L 2150.61,189.471 V 966.79 H 2049.18 V 8.219 h 83.61 z"
     fill="url(#paint2_linear_442_5238)"
     id="path3"
     style="fill:url(#paint2_linear_442_5238)" />
  <path
     d="m 3904.39,95.857 h -556.51 v 376.577 h 496.2 v 87.642 h -496.2 V 966.79 H 3246.45 V 8.219 h 657.94 z"
     fill="url(#paint3_linear_442_5238)"
     id="path4"
     style="fill:url(#paint3_linear_442_5238)" />
  <path
     d="M 4297.52,966.79 H 4196.09 V 8.219 h 101.43 z"
     fill="url(#paint4_linear_442_5238)"
     id="path5"
     style="fill:url(#paint4_linear_442_5238)" />
  <path
     d="m 5082.6,8.219 c 102.35,0 191.9,20.539 268.66,61.62 77.67,40.168 137.99,96.311 180.94,168.431 42.95,72.12 64.41,155.201 64.41,249.232 0,94.03 -21.47,177.108 -64.41,249.228 -42.95,72.121 -103.27,128.72 -180.94,169.8 -76.76,40.17 -166.31,60.26 -268.66,60.26 h -390.65 v -451.9 h 101.43 v 364.253 h 283.74 c 84.98,0 158.55,-16.431 220.68,-49.296 63.06,-33.778 111.94,-79.885 146.67,-138.312 34.72,-59.339 52.09,-127.349 52.09,-204.033 0,-77.598 -17.37,-145.611 -52.09,-204.037 -34.73,-58.426 -83.61,-104.073 -146.67,-136.938 -62.13,-33.778 -135.7,-50.67 -220.68,-50.67 H 4793.38 4691.95 V 8.219 Z"
     fill="url(#paint5_linear_442_5238)"
     id="path6"
     style="fill:url(#paint5_linear_442_5238)" />
  <path
     d="m 6564.56,95.857 h -556.5 v 340.975 h 496.2 v 86.272 h -496.2 v 356.039 h 577.06 V 966.79 H 5906.63 V 8.219 h 657.93 z"
     fill="url(#paint6_linear_442_5238)"
     id="path7"
     style="fill:url(#paint6_linear_442_5238)" />
  <path
     d="M 7607.6,785.643 V 8.219 h 100.05 V 966.79 h -83.61 L 7007.23,189.471 V 966.79 H 6905.79 V 8.219 h 83.62 z"
     fill="url(#paint7_linear_442_5238)"
     id="path8"
     style="fill:url(#paint7_linear_442_5238)" />
  <path
     d="m 9828.4,95.857 h -556.46 v 340.975 h 496.16 v 86.272 H 9271.94 V 879.143 H 9849 V 966.79 H 9170.5 V 8.219 h 657.9 z"
     fill="url(#paint8_linear_442_5238)"
     id="path9"
     style="fill:url(#paint8_linear_442_5238)" />
  <path
     d="M 101.431,585.588 664.789,6.845 H 781.3 L 366.46,441.401 810.08,965.41 H 689.462 L 297.814,514.545 101.431,713.269 V 965.41 H 0 V 6.845 h 101.431 z"
     fill="url(#paint9_linear_442_5238)"
     id="path10"
     style="fill:url(#paint9_linear_442_5238)" />
  <defs
     id="defs38">
    <linearGradient
       id="paint0_linear_442_5238"
       x1="1683.22"
       y1="122"
       x2="1470.1"
       y2="1078.4301"
       gradientUnits="userSpaceOnUse"
       gradientTransform="translate(-240,-113)">
      <stop
         stop-color="#FFCB49"
         id="stop10" />
      <stop
         offset="1"
         stop-color="#FF960C"
         id="stop11" />
    </linearGradient>
    <linearGradient
       id="paint1_linear_442_5238"
       x1="9.7000198"
       y1="602.95001"
       x2="11940.5"
       y2="861.05499"
       gradientUnits="userSpaceOnUse"
       gradientTransform="translate(-240,-113)">
      <stop
         stop-color="#1FACD0"
         id="stop12" />
      <stop
         offset="0.359639"
         stop-color="#B9E6EB"
         id="stop13" />
      <stop
         offset="0.92984"
         stop-color="#0CA1CB"
         id="stop14" />
    </linearGradient>
    <linearGradient
       id="paint2_linear_442_5238"
       x1="9.7000198"
       y1="602.95001"
       x2="11940.5"
       y2="861.05499"
       gradientUnits="userSpaceOnUse"
       gradientTransform="translate(-240,-113)">
      <stop
         stop-color="#1FACD0"
         id="stop15" />
      <stop
         offset="0.359639"
         stop-color="#B9E6EB"
         id="stop16" />
      <stop
         offset="0.92984"
         stop-color="#0CA1CB"
         id="stop17" />
    </linearGradient>
    <linearGradient
       id="paint3_linear_442_5238"
       x1="9.7000198"
       y1="602.95001"
       x2="11940.5"
       y2="861.05499"
       gradientUnits="userSpaceOnUse"
       gradientTransform="translate(-240,-113)">
      <stop
         stop-color="#1FACD0"
         id="stop18" />
      <stop
         offset="0.359639"
         stop-color="#B9E6EB"
         id="stop19" />
      <stop
         offset="0.92984"
         stop-color="#0CA1CB"
         id="stop20" />
    </linearGradient>
    <linearGradient
       id="paint4_linear_442_5238"
       x1="9.7000198"
       y1="602.95001"
       x2="11940.5"
       y2="861.05499"
       gradientUnits="userSpaceOnUse"
       gradientTransform="translate(-240,-113)">
      <stop
         stop-color="#1FACD0"
         id="stop21" />
      <stop
         offset="0.359639"
         stop-color="#B9E6EB"
         id="stop22" />
      <stop
         offset="0.92984"
         stop-color="#0CA1CB"
         id="stop23" />
    </linearGradient>
    <linearGradient
       id="paint5_linear_442_5238"
       x1="9.7000198"
       y1="602.95001"
       x2="11940.5"
       y2="861.05499"
       gradientUnits="userSpaceOnUse"
       gradientTransform="translate(-240,-113)">
      <stop
         stop-color="#1FACD0"
         id="stop24" />
      <stop
         offset="0.359639"
         stop-color="#B9E6EB"
         id="stop25" />
      <stop
         offset="0.92984"
         stop-color="#0CA1CB"
         id="stop26" />
    </linearGradient>
    <linearGradient
       id="paint6_linear_442_5238"
       x1="9.7000198"
       y1="602.95001"
       x2="11940.5"
       y2="861.05499"
       gradientUnits="userSpaceOnUse"
       gradientTransform="translate(-240,-113)">
      <stop
         stop-color="#1FACD0"
         id="stop27" />
      <stop
         offset="0.359639"
         stop-color="#B9E6EB"
         id="stop28" />
      <stop
         offset="0.92984"
         stop-color="#0CA1CB"
         id="stop29" />
    </linearGradient>
    <linearGradient
       id="paint7_linear_442_5238"
       x1="9.7000198"
       y1="602.95001"
       x2="11940.5"
       y2="861.05499"
       gradientUnits="userSpaceOnUse"
       gradientTransform="translate(-240,-113)">
      <stop
         stop-color="#1FACD0"
         id="stop30" />
      <stop
         offset="0.359639"
         stop-color="#B9E6EB"
         id="stop31" />
      <stop
         offset="0.92984"
         stop-color="#0CA1CB"
         id="stop32" />
    </linearGradient>
    <linearGradient
       id="paint8_linear_442_5238"
       x1="9.7000198"
       y1="602.95001"
       x2="11940.5"
       y2="861.05499"
       gradientUnits="userSpaceOnUse"
       gradientTransform="translate(-240,-113)">
      <stop
         stop-color="#1FACD0"
         id="stop33" />
      <stop
         offset="0.359639"
         stop-color="#B9E6EB"
         id="stop34" />
      <stop
         offset="0.92984"
         stop-color="#0CA1CB"
         id="stop35" />
    </linearGradient>
    <linearGradient
       id="paint9_linear_442_5238"
       x1="9.7000198"
       y1="602.95001"
       x2="11940.5"
       y2="861.05499"
       gradientUnits="userSpaceOnUse"
       gradientTransform="translate(-240,-113)">
      <stop
         stop-color="#1FACD0"
         id="stop36" />
      <stop
         offset="0.359639"
         stop-color="#B9E6EB"
         id="stop37" />
      <stop
         offset="0.92984"
         stop-color="#0CA1CB"
         id="stop38" />
    </linearGradient>
  </defs>
</svg>
