<?xml version="1.0" encoding="UTF-8"?>
<svg id="a" data-name="Layer 1" xmlns="http://www.w3.org/2000/svg" width="932.88" height="180" viewBox="0 0 932.88 180">
  <path d="M802.51,110.94h38.57c19.9,0,21.8-31.71,21.78-50.57l1.64-57.99-61.99,108.56Z"/>
  <path d="M926.5,110.94h-38.57c-19.9,0-21.8-31.71-21.78-50.57l-1.64-57.99,61.99,108.56Z"/>
  <g>
    <g>
      <path d="M198.95,31.26c-12.31,0-23.28,5.58-30.69,14.24-.67-.87-1.44-1.63-2.21-2.41-2.31-2.31-4.91-4.33-7.6-5.96-6.35-3.85-13.66-5.77-20.87-5.87h0c-10.29,0-20.68,3.94-28.47,11.83-7.89,7.89-11.83,18.18-11.83,28.47,0,7.22,1.92,14.53,5.77,20.87,1.63,2.69,3.66,5.29,5.96,7.6s4.91,4.33,7.6,5.96c15.49,9.43,36.07,7.41,49.44-5.96.77-.77,1.54-1.63,2.21-2.41,7.41,8.66,18.37,14.24,30.69,14.24,22.22,0,40.31-18.09,40.31-40.31s-18.09-40.31-40.31-40.31h0ZM116.41,71.56c0-5.39,2.02-10.77,6.16-14.91,4.14-4.14,9.52-6.16,14.91-6.16h0c2.21,0,4.42.38,6.54,1.06l-16.64,16.64-9.91,9.91c-.67-2.12-1.06-4.33-1.06-6.54h0ZM152.49,86.48c-5.77,5.77-14.14,7.5-21.45,5.19l10.29-10.29,16.26-16.26,1.92-1.92c-.58,2.69-.87,5.58-.87,8.46,0,5.39-2.02,10.77-6.16,14.91v-.1h0ZM198.95,92.73c-11.64,0-21.16-9.43-21.16-21.16s9.43-21.16,21.16-21.16,21.16,9.43,21.16,21.16-9.43,21.16-21.16,21.16Z"/>
      <polygon points="65.81 64.73 26.18 3.27 3.09 3.27 3.09 111.2 26.18 111.2 26.18 43.67 69.37 111.2 89 111.2 89 3.27 65.81 3.27 65.81 64.73"/>
      <polygon points="315.34 64.73 275.71 3.27 252.63 3.27 252.63 111.2 275.71 111.2 275.71 43.67 318.9 111.2 338.43 111.2 338.43 3.27 315.34 3.27 315.34 64.73"/>
      <path d="M407.02,37.41c-5.77-3.56-12.41-5.29-19.82-5.29s-14.72,1.73-20.78,5.19c-6.06,3.46-10.77,8.27-14.14,14.33-3.37,6.06-5.1,12.89-5.1,20.3s1.73,14.24,5.19,20.3c3.46,6.06,8.27,10.87,14.53,14.33,6.25,3.46,13.47,5.19,21.74,5.19s13.76-1.35,19.34-4.14c5.58-2.69,10.2-6.64,13.76-11.83l-16.35-9.71c-1.73,2.21-4.04,4.04-7.02,5.29-2.98,1.35-6.06,2.02-9.14,2.02-5.19,0-9.33-1.15-12.6-3.37-3.27-2.31-5.77-5.77-7.7-10.39h56.18c.38-2.31.58-4.91.58-7.7,0-7.41-1.63-14.14-4.81-20.2-3.27-6.06-7.79-10.87-13.56-14.43l-.29.1h0ZM368.35,62.91c.19-3.37,2.12-6.16,5.77-8.56,3.66-2.41,7.98-3.56,12.89-3.56s8.75,1.06,12.02,3.18c3.27,2.12,5.29,5.1,5.96,8.95h-36.75.1Z"/>
      <path d="M501.77,37.32c-5.77-3.46-12.7-5.19-20.78-5.19s-8.27.67-12.22,2.12c-3.94,1.35-7.6,3.37-11.06,5.96v-5.96h-22.03v107.93h22.03v-36.55c3.37,2.6,7.12,4.52,11.06,5.96,4.04,1.35,8.08,2.12,12.22,2.12,7.98,0,14.91-1.73,20.78-5.29,5.77-3.56,10.29-8.37,13.37-14.53,3.08-6.16,4.62-13.18,4.62-20.97s-1.54-14.82-4.62-20.87c-3.08-6.16-7.5-10.97-13.37-14.43v-.29h0ZM492.15,86.76c-3.66,3.56-8.37,5.29-14.14,5.29s-10.68-1.73-14.53-5.29c-3.85-3.56-5.77-8.18-5.77-13.95s1.92-10.49,5.87-14.14c3.94-3.66,8.75-5.58,14.53-5.58s10.49,1.83,14.14,5.39c3.66,3.56,5.48,8.37,5.48,14.14s-1.83,10.58-5.48,14.14h-.1Z"/>
      <path d="M582.19,35.4c-4.62-1.92-9.04-2.89-13.47-2.89-6.54,0-12.7,2.41-18.37,7.12V3.27h-22.03v107.93h22.03v-47.14c.58-4.23,2.12-7.31,4.42-9.33,2.41-2.02,5.1-2.98,8.37-2.98s7.12,1.06,9.91,3.27c2.79,2.21,4.14,5.77,4.14,10.68v45.5h22.03v-46.08c-.1-8.18-1.83-14.72-5.19-19.62-3.37-4.81-7.31-8.18-11.83-10.1h0Z"/>
      <path d="M667.61,37.41c-6.06-3.56-12.7-5.39-19.82-5.39s-13.95,1.83-20.01,5.39c-6.06,3.56-10.97,8.37-14.53,14.53-3.56,6.06-5.39,12.79-5.39,20.01s1.83,13.76,5.39,19.91c3.56,6.16,8.37,10.97,14.53,14.53,6.06,3.56,12.79,5.39,20.01,5.39s13.75-1.83,19.82-5.39c6.06-3.56,10.87-8.46,14.53-14.53,3.56-6.16,5.39-12.79,5.39-19.91s-1.83-13.95-5.39-20.01c-3.56-6.06-8.37-10.87-14.53-14.53h0ZM660.59,84.84c-3.66,3.56-7.98,5.39-12.99,5.39s-9.33-1.83-12.89-5.39c-3.56-3.56-5.39-7.89-5.39-12.89s1.83-9.33,5.39-12.99c3.56-3.66,7.89-5.39,12.89-5.39s9.33,1.83,12.99,5.39c3.66,3.66,5.39,7.98,5.39,12.99s-1.83,9.33-5.39,12.89Z"/>
      <path d="M758.71,73.2c-2.98-3.37-6.45-5.77-10.29-7.22-3.94-1.44-8.85-2.79-14.82-4.04-4.62-.87-7.98-1.83-10.1-2.6-2.12-.87-3.18-2.12-3.18-3.85s.87-3.46,2.6-4.62c1.73-1.15,4.04-1.73,6.93-1.73s5.96.58,8.08,1.83c2.02,1.25,3.66,3.08,4.91,5.58l17.51-8.56c-2.98-5.1-7.22-9.04-12.5-11.74-5.29-2.69-11.35-4.04-17.99-4.04s-10.87.96-15.58,2.89c-4.81,1.92-8.56,4.71-11.35,8.37-2.79,3.66-4.23,7.98-4.23,12.89s1.44,9.23,4.23,12.31c2.79,3.08,6.16,5.29,10.1,6.83,3.94,1.44,8.85,2.89,14.62,4.14,5.1,1.15,8.85,2.21,11.26,3.18,2.41.96,3.56,2.5,3.56,4.52s-1.25,4.14-3.85,5.39c-2.6,1.25-5.58,1.92-8.95,1.92-8.37,0-13.75-3.18-16.16-9.62l-17.7,9.04c2.89,5.87,7.22,10.2,12.99,13.18,5.77,2.98,12.7,4.42,20.87,4.42s11.45-.96,16.64-2.79c5.1-1.83,9.23-4.62,12.41-8.27,3.08-3.66,4.71-8.08,4.71-13.18s-1.44-10.58-4.42-13.95l-.29-.29h0Z"/>
      <path d="M171.64,138.68c-1.68-1.32-3.49-2.22-5.42-2.69-1.93-.47-3.64-.7-5.13-.7-2.43,0-4.61.51-6.54,1.53-1.93,1.02-3.59,2.25-4.96,3.68v-4.14h-8.69v41.37h8.69v-23.17c0-2.26.29-4.14.87-5.63.58-1.49,1.34-2.68,2.27-3.56.94-.88,1.97-1.5,3.1-1.86,1.13-.36,2.22-.54,3.27-.54,1.1,0,2.23.15,3.39.45,1.16.3,2.22.84,3.18,1.61.96.77,1.77,1.79,2.4,3.06.63,1.27.95,2.89.95,4.88v24.74h8.69v-24.74c0-3.64-.59-6.6-1.78-8.89-1.19-2.29-2.62-4.09-4.3-5.42h0ZM3.56,177.73h9.18v-24.24h23.66v-8.69H12.74v-16.3h24.66v-8.69H3.56v57.91ZM80.3,141.74c-1.96-1.98-4.26-3.54-6.91-4.67-2.65-1.13-5.46-1.69-8.44-1.69s-5.79.57-8.44,1.69c-2.65,1.13-4.95,2.69-6.91,4.67-1.96,1.98-3.5,4.29-4.63,6.91-1.13,2.62-1.7,5.42-1.7,8.4s.57,5.79,1.7,8.44c1.13,2.65,2.68,4.96,4.63,6.95,1.96,1.98,4.26,3.55,6.91,4.67,2.65,1.13,5.46,1.7,8.44,1.7s5.79-.57,8.44-1.7c2.65-1.13,4.95-2.69,6.91-4.67,1.96-1.98,3.5-4.3,4.63-6.95,1.13-2.65,1.69-5.46,1.69-8.44s-.57-5.78-1.69-8.4c-1.13-2.62-2.68-4.92-4.63-6.91ZM76.9,162.13c-.69,1.57-1.61,2.95-2.77,4.14-1.16,1.19-2.52,2.12-4.09,2.81-1.57.69-3.27,1.03-5.09,1.03s-3.52-.34-5.09-1.03c-1.57-.69-2.95-1.63-4.14-2.81-1.19-1.19-2.12-2.56-2.81-4.14-.69-1.57-1.03-3.27-1.03-5.09s.34-3.52,1.03-5.09c.69-1.57,1.63-2.94,2.81-4.09,1.19-1.16,2.56-2.08,4.14-2.77,1.57-.69,3.27-1.03,5.09-1.03s3.52.34,5.09,1.03c1.57.69,2.94,1.61,4.09,2.77,1.16,1.16,2.08,2.52,2.77,4.09.69,1.57,1.03,3.27,1.03,5.09s-.34,3.52-1.03,5.09ZM123.11,159.45c0,2.26-.3,4.14-.91,5.63-.61,1.49-1.36,2.68-2.27,3.56-.91.88-1.93,1.5-3.06,1.86-1.13.36-2.25.54-3.35.54s-2.17-.15-3.35-.45c-1.19-.3-2.25-.83-3.18-1.57-.94-.74-1.72-1.75-2.36-3.02s-.95-2.9-.95-4.88v-24.74h-8.69v24.74c0,3.64.59,6.61,1.78,8.89,1.19,2.29,2.62,4.09,4.3,5.42,1.68,1.32,3.49,2.22,5.42,2.69,1.93.47,3.64.7,5.13.7,2.37,0,4.52-.51,6.45-1.53,1.93-1.02,3.61-2.25,5.05-3.68v4.14h8.69v-41.37h-8.69v23.08h0ZM267.98,142.07c-1.49-1.98-3.34-3.6-5.54-4.84-2.21-1.24-4.8-1.86-7.78-1.86-3.14,0-5.97.55-8.48,1.65-2.51,1.1-4.65,2.64-6.41,4.59-1.77,1.96-3.13,4.26-4.1,6.91-.97,2.65-1.45,5.52-1.45,8.6s.48,5.87,1.45,8.52c.96,2.65,2.33,4.95,4.1,6.91,1.77,1.96,3.9,3.49,6.41,4.59,2.51,1.1,5.34,1.65,8.48,1.65,2.98,0,5.57-.62,7.78-1.86,2.21-1.24,4.05-2.85,5.54-4.84v5.63h8.69v-41.37h-8.69v5.71ZM266.99,162.47c-.66,1.68-1.57,3.13-2.73,4.34-1.16,1.21-2.54,2.17-4.14,2.85-1.6.69-3.34,1.03-5.21,1.03s-3.47-.36-4.96-1.07c-1.49-.72-2.77-1.7-3.85-2.94-1.07-1.24-1.9-2.68-2.48-4.3-.58-1.63-.87-3.38-.87-5.25s.29-3.62.87-5.25c.58-1.63,1.41-3.06,2.48-4.3,1.07-1.24,2.36-2.22,3.85-2.94,1.49-.72,3.14-1.07,4.96-1.07s3.61.33,5.21.99c1.6.66,2.98,1.6,4.14,2.81,1.16,1.21,2.07,2.65,2.73,4.3.66,1.65.99,3.45.99,5.38s-.33,3.74-.99,5.42h0ZM372.85,141.74c-1.96-1.98-4.26-3.54-6.91-4.67-2.65-1.13-5.46-1.69-8.44-1.69s-5.79.57-8.44,1.69c-2.65,1.13-4.95,2.69-6.91,4.67-1.96,1.98-3.5,4.29-4.63,6.91-1.13,2.62-1.7,5.42-1.7,8.4s.57,5.79,1.7,8.44c1.13,2.65,2.68,4.96,4.63,6.95,1.96,1.98,4.26,3.55,6.91,4.67,2.65,1.13,5.46,1.7,8.44,1.7s5.79-.57,8.44-1.7c2.65-1.13,4.95-2.69,6.91-4.67,1.96-1.98,3.5-4.3,4.63-6.95,1.13-2.65,1.69-5.46,1.69-8.44s-.57-5.78-1.69-8.4c-1.13-2.62-2.68-4.92-4.63-6.91ZM369.46,162.13c-.69,1.57-1.61,2.95-2.77,4.14-1.16,1.19-2.52,2.12-4.09,2.81-1.57.69-3.27,1.03-5.09,1.03s-3.52-.34-5.09-1.03c-1.57-.69-2.95-1.63-4.14-2.81-1.19-1.19-2.12-2.56-2.81-4.14-.69-1.57-1.03-3.27-1.03-5.09s.34-3.52,1.03-5.09c.69-1.57,1.63-2.94,2.81-4.09,1.19-1.16,2.56-2.08,4.14-2.77,1.57-.69,3.27-1.03,5.09-1.03s3.52.34,5.09,1.03c1.57.69,2.94,1.61,4.09,2.77,1.16,1.16,2.08,2.52,2.77,4.09.69,1.57,1.03,3.27,1.03,5.09s-.34,3.52-1.03,5.09ZM421.74,144.1c-1.19-2.29-2.62-4.09-4.3-5.42-1.68-1.32-3.49-2.22-5.42-2.69-1.93-.47-3.64-.7-5.13-.7-2.43,0-4.61.51-6.54,1.53-1.93,1.02-3.59,2.25-4.96,3.68v-4.14h-8.69v41.37h8.69v-23.17c0-2.26.29-4.14.87-5.63.58-1.49,1.34-2.68,2.27-3.56.94-.88,1.97-1.5,3.1-1.86,1.13-.36,2.22-.54,3.27-.54,1.1,0,2.23.15,3.39.45,1.16.3,2.22.84,3.18,1.61.96.77,1.77,1.79,2.4,3.06.63,1.27.95,2.89.95,4.88v24.74h8.69v-24.74c0-3.64-.59-6.6-1.78-8.89h0ZM323.41,116.34c-1.32,0-2.47.47-3.43,1.41-.97.94-1.45,2.1-1.45,3.47s.48,2.47,1.45,3.43c.96.97,2.11,1.45,3.43,1.45s2.47-.48,3.43-1.45c.96-.96,1.45-2.11,1.45-3.43s-.48-2.54-1.45-3.47c-.97-.94-2.11-1.41-3.43-1.41ZM305.29,170.03c-1.93,0-3.38-.4-4.34-1.2-.97-.8-1.45-2.36-1.45-4.67v-19.94h9.6v-7.86h-9.6v-13.74l-8.69,2.98v10.76h-8.52v7.86h8.52v20.52c0,2.65.28,4.83.83,6.54.55,1.71,1.34,3.08,2.36,4.1,1.02,1.02,2.29,1.74,3.81,2.15,1.52.42,3.27.62,5.25.62.94,0,1.93-.04,2.98-.13,1.05-.08,2.12-.18,3.23-.29v-8.03c-.77.11-1.48.19-2.11.25-.63.06-1.25.08-1.86.08h0ZM319.03,177.73h8.69v-41.37h-8.69v41.37ZM218.51,142.07c-1.54-1.98-3.41-3.6-5.58-4.84-2.18-1.24-4.76-1.86-7.74-1.86-3.14,0-5.97.55-8.48,1.65-2.51,1.1-4.65,2.64-6.41,4.59-1.77,1.96-3.13,4.26-4.09,6.91-.97,2.65-1.45,5.52-1.45,8.6s.48,5.87,1.45,8.52c.96,2.65,2.33,4.95,4.09,6.91,1.77,1.96,3.9,3.49,6.41,4.59,2.51,1.1,5.34,1.65,8.48,1.65,2.98,0,5.56-.62,7.74-1.86,2.18-1.24,4.04-2.83,5.58-4.76v5.54h8.69v-57.91h-8.69v22.26ZM217.51,162.47c-.66,1.68-1.57,3.13-2.73,4.34-1.16,1.21-2.54,2.17-4.14,2.85-1.6.69-3.34,1.03-5.21,1.03s-3.47-.36-4.96-1.07c-1.49-.72-2.77-1.7-3.85-2.94-1.07-1.24-1.9-2.68-2.48-4.3-.58-1.63-.87-3.38-.87-5.25s.29-3.62.87-5.25c.58-1.63,1.41-3.06,2.48-4.3,1.07-1.24,2.36-2.22,3.85-2.94,1.49-.72,3.14-1.07,4.96-1.07s3.61.33,5.21.99c1.6.66,2.98,1.6,4.14,2.81,1.16,1.21,2.07,2.65,2.73,4.3.66,1.65.99,3.45.99,5.38s-.33,3.74-.99,5.42h0Z"/>
    </g>
    <g>
      <path d="M198.95,31.26c-12.31,0-23.28,5.58-30.69,14.24-.67-.87-1.44-1.63-2.21-2.41-2.31-2.31-4.91-4.33-7.6-5.96-6.35-3.85-13.66-5.77-20.87-5.87h0c-10.29,0-20.68,3.94-28.47,11.83-7.89,7.89-11.83,18.18-11.83,28.47,0,7.22,1.92,14.53,5.77,20.87,1.63,2.69,3.66,5.29,5.96,7.6s4.91,4.33,7.6,5.96c15.49,9.43,36.07,7.41,49.44-5.96.77-.77,1.54-1.63,2.21-2.41,7.41,8.66,18.37,14.24,30.69,14.24,22.22,0,40.31-18.09,40.31-40.31s-18.09-40.31-40.31-40.31h0ZM116.41,71.56c0-5.39,2.02-10.77,6.16-14.91,4.14-4.14,9.52-6.16,14.91-6.16h0c2.21,0,4.42.38,6.54,1.06l-16.64,16.64-9.91,9.91c-.67-2.12-1.06-4.33-1.06-6.54h0ZM152.49,86.48c-5.77,5.77-14.14,7.5-21.45,5.19l10.29-10.29,16.26-16.26,1.92-1.92c-.58,2.69-.87,5.58-.87,8.46,0,5.39-2.02,10.77-6.16,14.91v-.1h0ZM198.95,92.73c-11.64,0-21.16-9.43-21.16-21.16s9.43-21.16,21.16-21.16,21.16,9.43,21.16,21.16-9.43,21.16-21.16,21.16Z"/>
      <polygon points="65.81 64.73 26.18 3.27 3.09 3.27 3.09 111.2 26.18 111.2 26.18 43.67 69.37 111.2 89 111.2 89 3.27 65.81 3.27 65.81 64.73"/>
      <polygon points="315.34 64.73 275.71 3.27 252.63 3.27 252.63 111.2 275.71 111.2 275.71 43.67 318.9 111.2 338.43 111.2 338.43 3.27 315.34 3.27 315.34 64.73"/>
      <path d="M407.02,37.41c-5.77-3.56-12.41-5.29-19.82-5.29s-14.72,1.73-20.78,5.19c-6.06,3.46-10.77,8.27-14.14,14.33-3.37,6.06-5.1,12.89-5.1,20.3s1.73,14.24,5.19,20.3c3.46,6.06,8.27,10.87,14.53,14.33,6.25,3.46,13.47,5.19,21.74,5.19s13.76-1.35,19.34-4.14c5.58-2.69,10.2-6.64,13.76-11.83l-16.35-9.71c-1.73,2.21-4.04,4.04-7.02,5.29-2.98,1.35-6.06,2.02-9.14,2.02-5.19,0-9.33-1.15-12.6-3.37-3.27-2.31-5.77-5.77-7.7-10.39h56.18c.38-2.31.58-4.91.58-7.7,0-7.41-1.63-14.14-4.81-20.2-3.27-6.06-7.79-10.87-13.56-14.43l-.29.1h0ZM368.35,62.91c.19-3.37,2.12-6.16,5.77-8.56,3.66-2.41,7.98-3.56,12.89-3.56s8.75,1.06,12.02,3.18c3.27,2.12,5.29,5.1,5.96,8.95h-36.75.1Z"/>
      <path d="M501.77,37.32c-5.77-3.46-12.7-5.19-20.78-5.19s-8.27.67-12.22,2.12c-3.94,1.35-7.6,3.37-11.06,5.96v-5.96h-22.03v107.93h22.03v-36.55c3.37,2.6,7.12,4.52,11.06,5.96,4.04,1.35,8.08,2.12,12.22,2.12,7.98,0,14.91-1.73,20.78-5.29,5.77-3.56,10.29-8.37,13.37-14.53,3.08-6.16,4.62-13.18,4.62-20.97s-1.54-14.82-4.62-20.87c-3.08-6.16-7.5-10.97-13.37-14.43v-.29h0ZM492.15,86.76c-3.66,3.56-8.37,5.29-14.14,5.29s-10.68-1.73-14.53-5.29c-3.85-3.56-5.77-8.18-5.77-13.95s1.92-10.49,5.87-14.14c3.94-3.66,8.75-5.58,14.53-5.58s10.49,1.83,14.14,5.39c3.66,3.56,5.48,8.37,5.48,14.14s-1.83,10.58-5.48,14.14h-.1Z"/>
      <path d="M582.19,35.4c-4.62-1.92-9.04-2.89-13.47-2.89-6.54,0-12.7,2.41-18.37,7.12V3.27h-22.03v107.93h22.03v-47.14c.58-4.23,2.12-7.31,4.42-9.33,2.41-2.02,5.1-2.98,8.37-2.98s7.12,1.06,9.91,3.27c2.79,2.21,4.14,5.77,4.14,10.68v45.5h22.03v-46.08c-.1-8.18-1.83-14.72-5.19-19.62-3.37-4.81-7.31-8.18-11.83-10.1h0Z"/>
      <path d="M667.61,37.41c-6.06-3.56-12.7-5.39-19.82-5.39s-13.95,1.83-20.01,5.39c-6.06,3.56-10.97,8.37-14.53,14.53-3.56,6.06-5.39,12.79-5.39,20.01s1.83,13.76,5.39,19.91c3.56,6.16,8.37,10.97,14.53,14.53,6.06,3.56,12.79,5.39,20.01,5.39s13.75-1.83,19.82-5.39c6.06-3.56,10.87-8.46,14.53-14.53,3.56-6.16,5.39-12.79,5.39-19.91s-1.83-13.95-5.39-20.01c-3.56-6.06-8.37-10.87-14.53-14.53h0ZM660.59,84.84c-3.66,3.56-7.98,5.39-12.99,5.39s-9.33-1.83-12.89-5.39c-3.56-3.56-5.39-7.89-5.39-12.89s1.83-9.33,5.39-12.99c3.56-3.66,7.89-5.39,12.89-5.39s9.33,1.83,12.99,5.39c3.66,3.66,5.39,7.98,5.39,12.99s-1.83,9.33-5.39,12.89Z"/>
      <path d="M758.71,73.2c-2.98-3.37-6.45-5.77-10.29-7.22-3.94-1.44-8.85-2.79-14.82-4.04-4.62-.87-7.98-1.83-10.1-2.6-2.12-.87-3.18-2.12-3.18-3.85s.87-3.46,2.6-4.62c1.73-1.15,4.04-1.73,6.93-1.73s5.96.58,8.08,1.83c2.02,1.25,3.66,3.08,4.91,5.58l17.51-8.56c-2.98-5.1-7.22-9.04-12.5-11.74-5.29-2.69-11.35-4.04-17.99-4.04s-10.87.96-15.58,2.89c-4.81,1.92-8.56,4.71-11.35,8.37-2.79,3.66-4.23,7.98-4.23,12.89s1.44,9.23,4.23,12.31c2.79,3.08,6.16,5.29,10.1,6.83,3.94,1.44,8.85,2.89,14.62,4.14,5.1,1.15,8.85,2.21,11.26,3.18,2.41.96,3.56,2.5,3.56,4.52s-1.25,4.14-3.85,5.39c-2.6,1.25-5.58,1.92-8.95,1.92-8.37,0-13.75-3.18-16.16-9.62l-17.7,9.04c2.89,5.87,7.22,10.2,12.99,13.18,5.77,2.98,12.7,4.42,20.87,4.42s11.45-.96,16.64-2.79c5.1-1.83,9.23-4.62,12.41-8.27,3.08-3.66,4.71-8.08,4.71-13.18s-1.44-10.58-4.42-13.95l-.29-.29h0Z"/>
      <path d="M171.64,138.68c-1.68-1.32-3.49-2.22-5.42-2.69-1.93-.47-3.64-.7-5.13-.7-2.43,0-4.61.51-6.54,1.53-1.93,1.02-3.59,2.25-4.96,3.68v-4.14h-8.69v41.37h8.69v-23.17c0-2.26.29-4.14.87-5.63.58-1.49,1.34-2.68,2.27-3.56.94-.88,1.97-1.5,3.1-1.86,1.13-.36,2.22-.54,3.27-.54,1.1,0,2.23.15,3.39.45,1.16.3,2.22.84,3.18,1.61.96.77,1.77,1.79,2.4,3.06.63,1.27.95,2.89.95,4.88v24.74h8.69v-24.74c0-3.64-.59-6.6-1.78-8.89-1.19-2.29-2.62-4.09-4.3-5.42h0ZM3.56,177.73h9.18v-24.24h23.66v-8.69H12.74v-16.3h24.66v-8.69H3.56v57.91ZM80.3,141.74c-1.96-1.98-4.26-3.54-6.91-4.67-2.65-1.13-5.46-1.69-8.44-1.69s-5.79.57-8.44,1.69c-2.65,1.13-4.95,2.69-6.91,4.67-1.96,1.98-3.5,4.29-4.63,6.91-1.13,2.62-1.7,5.42-1.7,8.4s.57,5.79,1.7,8.44c1.13,2.65,2.68,4.96,4.63,6.95,1.96,1.98,4.26,3.55,6.91,4.67,2.65,1.13,5.46,1.7,8.44,1.7s5.79-.57,8.44-1.7c2.65-1.13,4.95-2.69,6.91-4.67,1.96-1.98,3.5-4.3,4.63-6.95,1.13-2.65,1.69-5.46,1.69-8.44s-.57-5.78-1.69-8.4c-1.13-2.62-2.68-4.92-4.63-6.91ZM76.9,162.13c-.69,1.57-1.61,2.95-2.77,4.14-1.16,1.19-2.52,2.12-4.09,2.81-1.57.69-3.27,1.03-5.09,1.03s-3.52-.34-5.09-1.03c-1.57-.69-2.95-1.63-4.14-2.81-1.19-1.19-2.12-2.56-2.81-4.14-.69-1.57-1.03-3.27-1.03-5.09s.34-3.52,1.03-5.09c.69-1.57,1.63-2.94,2.81-4.09,1.19-1.16,2.56-2.08,4.14-2.77,1.57-.69,3.27-1.03,5.09-1.03s3.52.34,5.09,1.03c1.57.69,2.94,1.61,4.09,2.77,1.16,1.16,2.08,2.52,2.77,4.09.69,1.57,1.03,3.27,1.03,5.09s-.34,3.52-1.03,5.09ZM123.11,159.45c0,2.26-.3,4.14-.91,5.63-.61,1.49-1.36,2.68-2.27,3.56-.91.88-1.93,1.5-3.06,1.86-1.13.36-2.25.54-3.35.54s-2.17-.15-3.35-.45c-1.19-.3-2.25-.83-3.18-1.57-.94-.74-1.72-1.75-2.36-3.02s-.95-2.9-.95-4.88v-24.74h-8.69v24.74c0,3.64.59,6.61,1.78,8.89,1.19,2.29,2.62,4.09,4.3,5.42,1.68,1.32,3.49,2.22,5.42,2.69,1.93.47,3.64.7,5.13.7,2.37,0,4.52-.51,6.45-1.53,1.93-1.02,3.61-2.25,5.05-3.68v4.14h8.69v-41.37h-8.69v23.08h0ZM267.98,142.07c-1.49-1.98-3.34-3.6-5.54-4.84-2.21-1.24-4.8-1.86-7.78-1.86-3.14,0-5.97.55-8.48,1.65-2.51,1.1-4.65,2.64-6.41,4.59-1.77,1.96-3.13,4.26-4.1,6.91-.97,2.65-1.45,5.52-1.45,8.6s.48,5.87,1.45,8.52c.96,2.65,2.33,4.95,4.1,6.91,1.77,1.96,3.9,3.49,6.41,4.59,2.51,1.1,5.34,1.65,8.48,1.65,2.98,0,5.57-.62,7.78-1.86,2.21-1.24,4.05-2.85,5.54-4.84v5.63h8.69v-41.37h-8.69v5.71ZM266.99,162.47c-.66,1.68-1.57,3.13-2.73,4.34-1.16,1.21-2.54,2.17-4.14,2.85-1.6.69-3.34,1.03-5.21,1.03s-3.47-.36-4.96-1.07c-1.49-.72-2.77-1.7-3.85-2.94-1.07-1.24-1.9-2.68-2.48-4.3-.58-1.63-.87-3.38-.87-5.25s.29-3.62.87-5.25c.58-1.63,1.41-3.06,2.48-4.3,1.07-1.24,2.36-2.22,3.85-2.94,1.49-.72,3.14-1.07,4.96-1.07s3.61.33,5.21.99c1.6.66,2.98,1.6,4.14,2.81,1.16,1.21,2.07,2.65,2.73,4.3.66,1.65.99,3.45.99,5.38s-.33,3.74-.99,5.42h0ZM372.85,141.74c-1.96-1.98-4.26-3.54-6.91-4.67-2.65-1.13-5.46-1.69-8.44-1.69s-5.79.57-8.44,1.69c-2.65,1.13-4.95,2.69-6.91,4.67-1.96,1.98-3.5,4.29-4.63,6.91-1.13,2.62-1.7,5.42-1.7,8.4s.57,5.79,1.7,8.44c1.13,2.65,2.68,4.96,4.63,6.95,1.96,1.98,4.26,3.55,6.91,4.67,2.65,1.13,5.46,1.7,8.44,1.7s5.79-.57,8.44-1.7c2.65-1.13,4.95-2.69,6.91-4.67,1.96-1.98,3.5-4.3,4.63-6.95,1.13-2.65,1.69-5.46,1.69-8.44s-.57-5.78-1.69-8.4c-1.13-2.62-2.68-4.92-4.63-6.91ZM369.46,162.13c-.69,1.57-1.61,2.95-2.77,4.14-1.16,1.19-2.52,2.12-4.09,2.81-1.57.69-3.27,1.03-5.09,1.03s-3.52-.34-5.09-1.03c-1.57-.69-2.95-1.63-4.14-2.81-1.19-1.19-2.12-2.56-2.81-4.14-.69-1.57-1.03-3.27-1.03-5.09s.34-3.52,1.03-5.09c.69-1.57,1.63-2.94,2.81-4.09,1.19-1.16,2.56-2.08,4.14-2.77,1.57-.69,3.27-1.03,5.09-1.03s3.52.34,5.09,1.03c1.57.69,2.94,1.61,4.09,2.77,1.16,1.16,2.08,2.52,2.77,4.09.69,1.57,1.03,3.27,1.03,5.09s-.34,3.52-1.03,5.09ZM421.74,144.1c-1.19-2.29-2.62-4.09-4.3-5.42-1.68-1.32-3.49-2.22-5.42-2.69-1.93-.47-3.64-.7-5.13-.7-2.43,0-4.61.51-6.54,1.53-1.93,1.02-3.59,2.25-4.96,3.68v-4.14h-8.69v41.37h8.69v-23.17c0-2.26.29-4.14.87-5.63.58-1.49,1.34-2.68,2.27-3.56.94-.88,1.97-1.5,3.1-1.86,1.13-.36,2.22-.54,3.27-.54,1.1,0,2.23.15,3.39.45,1.16.3,2.22.84,3.18,1.61.96.77,1.77,1.79,2.4,3.06.63,1.27.95,2.89.95,4.88v24.74h8.69v-24.74c0-3.64-.59-6.6-1.78-8.89h0ZM323.41,116.34c-1.32,0-2.47.47-3.43,1.41-.97.94-1.45,2.1-1.45,3.47s.48,2.47,1.45,3.43c.96.97,2.11,1.45,3.43,1.45s2.47-.48,3.43-1.45c.96-.96,1.45-2.11,1.45-3.43s-.48-2.54-1.45-3.47c-.97-.94-2.11-1.41-3.43-1.41ZM305.29,170.03c-1.93,0-3.38-.4-4.34-1.2-.97-.8-1.45-2.36-1.45-4.67v-19.94h9.6v-7.86h-9.6v-13.74l-8.69,2.98v10.76h-8.52v7.86h8.52v20.52c0,2.65.28,4.83.83,6.54.55,1.71,1.34,3.08,2.36,4.1,1.02,1.02,2.29,1.74,3.81,2.15,1.52.42,3.27.62,5.25.62.94,0,1.93-.04,2.98-.13,1.05-.08,2.12-.18,3.23-.29v-8.03c-.77.11-1.48.19-2.11.25-.63.06-1.25.08-1.86.08h0ZM319.03,177.73h8.69v-41.37h-8.69v41.37ZM218.51,142.07c-1.54-1.98-3.41-3.6-5.58-4.84-2.18-1.24-4.76-1.86-7.74-1.86-3.14,0-5.97.55-8.48,1.65-2.51,1.1-4.65,2.64-6.41,4.59-1.77,1.96-3.13,4.26-4.09,6.91-.97,2.65-1.45,5.52-1.45,8.6s.48,5.87,1.45,8.52c.96,2.65,2.33,4.95,4.09,6.91,1.77,1.96,3.9,3.49,6.41,4.59,2.51,1.1,5.34,1.65,8.48,1.65,2.98,0,5.56-.62,7.74-1.86,2.18-1.24,4.04-2.83,5.58-4.76v5.54h8.69v-57.91h-8.69v22.26ZM217.51,162.47c-.66,1.68-1.57,3.13-2.73,4.34-1.16,1.21-2.54,2.17-4.14,2.85-1.6.69-3.34,1.03-5.21,1.03s-3.47-.36-4.96-1.07c-1.49-.72-2.77-1.7-3.85-2.94-1.07-1.24-1.9-2.68-2.48-4.3-.58-1.63-.87-3.38-.87-5.25s.29-3.62.87-5.25c.58-1.63,1.41-3.06,2.48-4.3,1.07-1.24,2.36-2.22,3.85-2.94,1.49-.72,3.14-1.07,4.96-1.07s3.61.33,5.21.99c1.6.66,2.98,1.6,4.14,2.81,1.16,1.21,2.07,2.65,2.73,4.3.66,1.65.99,3.45.99,5.38s-.33,3.74-.99,5.42h0Z"/>
    </g>
  </g>
</svg>
