<?xml version="1.0" encoding="UTF-8"?>
<svg id="a" data-name="Layer 1" xmlns="http://www.w3.org/2000/svg" width="932.41" height="144" viewBox="0 0 932.41 144">
  <path d="M199.62,30.28c-12.37,0-23.39,5.6-30.83,14.3-.68-.87-1.45-1.64-2.22-2.41-2.32-2.32-4.93-4.35-7.64-5.99-6.38-3.87-13.73-5.79-20.97-5.9h0c-10.34,0-20.78,3.96-28.61,11.88-7.92,7.92-11.88,18.27-11.88,28.61,0,7.24,1.94,14.6,5.79,20.97,1.64,2.7,3.68,5.32,5.99,7.64,2.32,2.32,4.93,4.35,7.64,5.99,15.56,9.47,36.24,7.45,49.68-5.99.77-.77,1.55-1.64,2.22-2.41,7.45,8.7,18.46,14.3,30.83,14.3,22.33,0,40.49-18.18,40.49-40.49s-18.18-40.49-40.49-40.49h0v-.02ZM116.7,70.77c0-5.41,2.03-10.82,6.19-14.98,4.15-4.15,9.56-6.19,14.98-6.19h0c2.22,0,4.45.38,6.58,1.06l-16.72,16.72-9.96,9.96c-.68-2.13-1.06-4.35-1.06-6.58h-.01ZM152.94,85.75c-5.79,5.79-14.2,7.54-21.55,5.22l10.34-10.34,16.33-16.33,1.94-1.94c-.58,2.7-.87,5.6-.87,8.51,0,5.41-2.03,10.82-6.19,14.98v-.1ZM199.62,92.03c-11.69,0-21.26-9.47-21.26-21.26s9.47-21.26,21.26-21.26,21.26,9.47,21.26,21.26-9.47,21.26-21.26,21.26Z"/>
  <polygon points="65.87 63.91 26.04 2.15 2.85 2.15 2.85 110.59 26.04 110.59 26.04 42.75 69.44 110.59 89.16 110.59 89.16 2.15 65.87 2.15 65.87 63.91"/>
  <polygon points="316.57 63.91 276.75 2.15 253.55 2.15 253.55 110.59 276.75 110.59 276.75 42.75 320.15 110.59 339.76 110.59 339.76 2.15 316.57 2.15 316.57 63.91"/>
  <path d="M408.67,36.45c-5.79-3.58-12.47-5.32-19.91-5.32s-14.79,1.74-20.88,5.22c-6.09,3.47-10.82,8.31-14.2,14.4-3.38,6.09-5.13,12.95-5.13,20.39s1.74,14.3,5.22,20.39c3.47,6.09,8.31,10.92,14.6,14.4,6.28,3.47,13.54,5.22,21.84,5.22s13.82-1.36,19.43-4.15c5.6-2.7,10.24-6.67,13.82-11.88l-16.43-9.77c-1.74,2.22-4.06,4.06-7.05,5.32-3,1.36-6.09,2.03-9.18,2.03-5.22,0-9.37-1.15-12.66-3.38-3.28-2.32-5.79-5.79-7.73-10.43h56.44c.38-2.32.58-4.93.58-7.73,0-7.45-1.64-14.2-4.83-20.29-3.28-6.09-7.83-10.92-13.63-14.5l-.29.1ZM369.82,62.08c.19-3.38,2.13-6.19,5.79-8.6,3.68-2.41,8.02-3.58,12.95-3.58s8.79,1.06,12.08,3.19c3.28,2.13,5.32,5.13,5.99,8.99h-36.92.11Z"/>
  <path d="M503.87,36.36c-5.79-3.47-12.75-5.22-20.88-5.22s-8.31.68-12.28,2.13c-3.96,1.36-7.64,3.38-11.11,5.99v-5.99h-22.14v108.44h22.14v-36.72c3.38,2.61,7.15,4.54,11.11,5.99,4.06,1.36,8.11,2.13,12.28,2.13,8.02,0,14.98-1.74,20.88-5.32,5.79-3.58,10.34-8.41,13.43-14.6,3.09-6.19,4.64-13.24,4.64-21.07s-1.55-14.88-4.64-20.97c-3.09-6.19-7.54-11.02-13.43-14.5v-.29h0ZM494.2,86.03c-3.68,3.58-8.41,5.32-14.2,5.32s-10.73-1.74-14.6-5.32c-3.87-3.58-5.79-8.22-5.79-14.01s1.94-10.54,5.9-14.2c3.96-3.68,8.79-5.6,14.6-5.6s10.54,1.83,14.2,5.41c3.68,3.58,5.51,8.41,5.51,14.2s-1.83,10.63-5.51,14.2h-.1Z"/>
  <path d="M584.66,34.43c-4.64-1.94-9.09-2.9-13.54-2.9-6.58,0-12.75,2.41-18.46,7.15V2.15h-22.14v108.44h22.14v-47.36c.58-4.26,2.13-7.34,4.45-9.37,2.41-2.03,5.13-3,8.41-3s7.15,1.06,9.96,3.28c2.81,2.22,4.15,5.79,4.15,10.73v45.71h22.14v-46.3c-.1-8.22-1.83-14.79-5.22-19.71-3.38-4.83-7.34-8.22-11.88-10.15h-.01Z"/>
  <path d="M670.49,36.45c-6.09-3.58-12.75-5.41-19.91-5.41s-14.01,1.83-20.1,5.41c-6.09,3.58-11.02,8.41-14.6,14.6-3.58,6.09-5.41,12.86-5.41,20.1s1.83,13.82,5.41,20.01c3.58,6.19,8.41,11.02,14.6,14.6,6.09,3.58,12.86,5.41,20.1,5.41s13.82-1.83,19.91-5.41,10.92-8.51,14.6-14.6c3.58-6.19,5.41-12.86,5.41-20.01s-1.83-14.01-5.41-20.1c-3.58-6.09-8.41-10.92-14.6-14.6ZM663.44,84.11c-3.68,3.58-8.02,5.41-13.05,5.41s-9.37-1.83-12.95-5.41c-3.58-3.58-5.41-7.92-5.41-12.95s1.83-9.37,5.41-13.05c3.58-3.68,7.92-5.41,12.95-5.41s9.37,1.83,13.05,5.41c3.68,3.68,5.41,8.02,5.41,13.05s-1.83,9.37-5.41,12.95Z"/>
  <path d="M762.01,72.41c-3-3.38-6.47-5.79-10.34-7.24-3.96-1.45-8.9-2.81-14.88-4.06-4.64-.87-8.02-1.83-10.15-2.61-2.13-.87-3.19-2.13-3.19-3.87s.87-3.47,2.61-4.64c1.74-1.15,4.06-1.74,6.96-1.74s5.99.58,8.11,1.83c2.03,1.26,3.68,3.09,4.93,5.6l17.59-8.6c-3-5.13-7.24-9.09-12.56-11.79-5.32-2.7-11.41-4.06-18.07-4.06s-10.92.96-15.65,2.9c-4.83,1.94-8.6,4.73-11.41,8.41-2.81,3.68-4.26,8.02-4.26,12.95s1.45,9.28,4.26,12.37c2.81,3.09,6.19,5.32,10.15,6.86,3.96,1.45,8.9,2.9,14.69,4.15,5.13,1.15,8.9,2.22,11.31,3.19,2.41.96,3.58,2.51,3.58,4.54s-1.26,4.15-3.87,5.41c-2.61,1.26-5.6,1.94-8.99,1.94-8.41,0-13.82-3.19-16.24-9.66l-17.78,9.09c2.9,5.9,7.24,10.24,13.05,13.24,5.79,3,12.75,4.45,20.97,4.45s11.5-.96,16.72-2.81c5.13-1.83,9.28-4.64,12.47-8.31,3.09-3.68,4.73-8.11,4.73-13.24s-1.45-10.63-4.45-14.01l-.29-.29v.03Z"/>
  <path d="M806.01,111.22h38.75c20,0,21.9-31.86,21.88-50.8l1.65-58.26-62.28,109.06Z"/>
  <path d="M930.57,111.22h-38.75c-20,0-21.9-31.86-21.88-50.8l-1.65-58.26,62.28,109.06Z"/>
</svg>