<?xml version="1.0" encoding="UTF-8"?>
<svg id="a" data-name="Layer 1" xmlns="http://www.w3.org/2000/svg" width="500" height="440" viewBox="0 0 500 440">
  <g>
    <g>
      <path d="M132.06,334.39c-7.87,0-14.89,3.57-19.62,9.11-.43-.55-.92-1.05-1.41-1.54-1.48-1.48-3.14-2.77-4.86-3.81-4.06-2.46-8.73-3.69-13.35-3.75h0c-6.58,0-13.23,2.52-18.21,7.57-5.04,5.04-7.57,11.63-7.57,18.21,0,4.61,1.23,9.29,3.69,13.35,1.05,1.72,2.34,3.38,3.81,4.86,1.48,1.48,3.14,2.77,4.86,3.81,9.9,6.03,23.07,4.74,31.62-3.81.49-.49.98-1.05,1.41-1.54,4.74,5.54,11.75,9.11,19.62,9.11,14.21,0,25.78-11.57,25.78-25.78s-11.57-25.78-25.78-25.78h0ZM79.28,360.16c0-3.45,1.29-6.89,3.94-9.53,2.65-2.65,6.09-3.94,9.53-3.94h0c1.41,0,2.83.25,4.18.68l-10.64,10.64-6.34,6.34c-.43-1.35-.68-2.77-.68-4.18h0ZM102.35,369.7c-3.69,3.69-9.04,4.8-13.72,3.32l6.58-6.58,10.4-10.4,1.23-1.23c-.37,1.72-.55,3.57-.55,5.41,0,3.45-1.29,6.89-3.94,9.53v-.06h0ZM132.06,373.7c-7.44,0-13.53-6.03-13.53-13.53s6.03-13.53,13.53-13.53,13.53,6.03,13.53,13.53-6.03,13.53-13.53,13.53Z" fill="#fff"/>
      <polygon points="46.92 355.79 21.58 316.48 6.81 316.48 6.81 385.51 21.58 385.51 21.58 342.32 49.2 385.51 61.75 385.51 61.75 316.48 46.92 316.48 46.92 355.79" fill="#fff"/>
      <polygon points="206.5 355.79 181.15 316.48 166.39 316.48 166.39 385.51 181.15 385.51 181.15 342.32 208.77 385.51 221.26 385.51 221.26 316.48 206.5 316.48 206.5 355.79" fill="#fff"/>
      <path d="M265.12,338.32c-3.69-2.28-7.94-3.38-12.67-3.38s-9.41,1.11-13.29,3.32c-3.88,2.21-6.89,5.29-9.04,9.17-2.15,3.88-3.26,8.24-3.26,12.98s1.11,9.11,3.32,12.98c2.21,3.88,5.29,6.95,9.29,9.17,4,2.21,8.61,3.32,13.9,3.32s8.8-.86,12.37-2.65c3.57-1.72,6.52-4.25,8.8-7.57l-10.46-6.21c-1.11,1.41-2.58,2.58-4.49,3.38-1.91.86-3.88,1.29-5.84,1.29-3.32,0-5.97-.74-8.06-2.15-2.09-1.48-3.69-3.69-4.92-6.64h35.93c.25-1.48.37-3.14.37-4.92,0-4.74-1.05-9.04-3.08-12.92-2.09-3.88-4.98-6.95-8.67-9.23l-.18.06h0ZM240.39,354.62c.12-2.15,1.35-3.94,3.69-5.47,2.34-1.54,5.11-2.28,8.24-2.28s5.6.68,7.69,2.03c2.09,1.35,3.38,3.26,3.81,5.72h-23.5.06Z" fill="#fff"/>
      <path d="M325.72,338.26c-3.69-2.21-8.12-3.32-13.29-3.32s-5.29.43-7.81,1.35c-2.52.86-4.86,2.15-7.07,3.81v-3.81h-14.09v69.02h14.09v-23.38c2.15,1.66,4.55,2.89,7.07,3.81,2.58.86,5.17,1.35,7.81,1.35,5.11,0,9.53-1.11,13.29-3.38,3.69-2.28,6.58-5.35,8.55-9.29,1.97-3.94,2.95-8.43,2.95-13.41s-.98-9.47-2.95-13.35c-1.97-3.94-4.8-7.01-8.55-9.23v-.19h0ZM319.56,369.88c-2.34,2.28-5.35,3.38-9.04,3.38s-6.83-1.11-9.29-3.38c-2.46-2.28-3.69-5.23-3.69-8.92s1.23-6.71,3.75-9.04c2.52-2.34,5.6-3.57,9.29-3.57s6.71,1.17,9.04,3.45c2.34,2.28,3.51,5.35,3.51,9.04s-1.17,6.77-3.51,9.04h-.06Z" fill="#fff"/>
      <path d="M377.14,337.03c-2.95-1.23-5.78-1.85-8.61-1.85-4.18,0-8.12,1.54-11.75,4.55v-23.25h-14.09v69.02h14.09v-30.14c.37-2.71,1.35-4.67,2.83-5.97,1.54-1.29,3.26-1.91,5.35-1.91s4.55.68,6.34,2.09c1.78,1.41,2.65,3.69,2.65,6.83v29.1h14.09v-29.47c-.06-5.23-1.17-9.41-3.32-12.55-2.15-3.08-4.67-5.23-7.57-6.46h0Z" fill="#fff"/>
      <path d="M431.77,338.32c-3.88-2.28-8.12-3.45-12.67-3.45s-8.92,1.17-12.8,3.45c-3.88,2.28-7.01,5.35-9.29,9.29-2.28,3.88-3.45,8.18-3.45,12.8s1.17,8.8,3.45,12.73c2.28,3.94,5.35,7.01,9.29,9.29,3.88,2.28,8.18,3.45,12.8,3.45s8.8-1.17,12.67-3.45c3.88-2.28,6.95-5.41,9.29-9.29,2.28-3.94,3.45-8.18,3.45-12.73s-1.17-8.92-3.45-12.8c-2.28-3.88-5.35-6.95-9.29-9.29h0ZM427.28,368.65c-2.34,2.28-5.11,3.45-8.31,3.45s-5.97-1.17-8.24-3.45c-2.28-2.28-3.45-5.04-3.45-8.24s1.17-5.97,3.45-8.31c2.28-2.34,5.04-3.45,8.24-3.45s5.97,1.17,8.31,3.45c2.34,2.34,3.45,5.11,3.45,8.31s-1.17,5.97-3.45,8.24Z" fill="#fff"/>
      <path d="M490.03,361.21c-1.91-2.15-4.12-3.69-6.58-4.61-2.52-.92-5.66-1.78-9.47-2.58-2.95-.55-5.11-1.17-6.46-1.66-1.35-.55-2.03-1.35-2.03-2.46s.55-2.21,1.66-2.95c1.11-.74,2.58-1.11,4.43-1.11s3.81.37,5.17,1.17c1.29.8,2.34,1.97,3.14,3.57l11.2-5.47c-1.91-3.26-4.61-5.78-8-7.51-3.38-1.72-7.26-2.58-11.5-2.58s-6.95.61-9.97,1.85c-3.08,1.23-5.47,3.01-7.26,5.35-1.78,2.34-2.71,5.11-2.71,8.24s.92,5.91,2.71,7.87c1.78,1.97,3.94,3.38,6.46,4.37,2.52.92,5.66,1.85,9.35,2.65,3.26.74,5.66,1.41,7.2,2.03,1.54.61,2.28,1.6,2.28,2.89s-.8,2.65-2.46,3.45c-1.66.8-3.57,1.23-5.72,1.23-5.35,0-8.8-2.03-10.33-6.15l-11.32,5.78c1.85,3.75,4.61,6.52,8.31,8.43,3.69,1.91,8.12,2.83,13.35,2.83s7.32-.61,10.64-1.78c3.26-1.17,5.91-2.95,7.94-5.29,1.97-2.34,3.01-5.17,3.01-8.43s-.92-6.77-2.83-8.92l-.18-.19h0Z" fill="#fff"/>
      <path d="M114.6,403.08c-1.08-.85-2.23-1.42-3.47-1.72-1.23-.3-2.33-.45-3.28-.45-1.55,0-2.95.33-4.18.98-1.23.65-2.29,1.44-3.17,2.35v-2.65h-5.55v26.45h5.55v-14.81c0-1.45.19-2.65.55-3.6.37-.95.85-1.71,1.45-2.27.6-.56,1.26-.96,1.98-1.19.72-.23,1.42-.34,2.09-.34.71,0,1.43.1,2.17.29.74.19,1.42.54,2.04,1.03.62.49,1.13,1.15,1.53,1.96.41.81.61,1.85.61,3.12v15.82h5.55v-15.82c0-2.33-.38-4.22-1.14-5.69-.76-1.46-1.68-2.62-2.75-3.47h0ZM7.11,428.05h5.87v-15.5h15.13v-5.55h-15.13v-10.42h15.77v-5.56H7.11v37.04ZM56.18,405.04c-1.25-1.27-2.73-2.27-4.42-2.99-1.69-.72-3.49-1.08-5.4-1.08s-3.7.36-5.4,1.08c-1.69.72-3.17,1.72-4.42,2.99-1.25,1.27-2.24,2.74-2.96,4.42-.72,1.68-1.09,3.47-1.09,5.37s.36,3.7,1.09,5.4c.72,1.69,1.71,3.17,2.96,4.44,1.25,1.27,2.73,2.27,4.42,2.99,1.69.72,3.49,1.09,5.4,1.09s3.7-.36,5.4-1.09c1.69-.72,3.17-1.72,4.42-2.99,1.25-1.27,2.24-2.75,2.96-4.44.72-1.69,1.08-3.49,1.08-5.4s-.36-3.69-1.08-5.37c-.72-1.67-1.71-3.15-2.96-4.42ZM54.02,418.08c-.44,1.01-1.03,1.89-1.77,2.65-.74.76-1.61,1.36-2.62,1.8-1.01.44-2.09.66-3.25.66s-2.25-.22-3.25-.66c-1.01-.44-1.89-1.04-2.65-1.8-.76-.76-1.36-1.64-1.8-2.65-.44-1.01-.66-2.09-.66-3.25s.22-2.25.66-3.25c.44-1.01,1.04-1.88,1.8-2.62.76-.74,1.64-1.33,2.65-1.77,1.01-.44,2.09-.66,3.25-.66s2.25.22,3.25.66c1.01.44,1.88,1.03,2.62,1.77.74.74,1.33,1.61,1.77,2.62.44,1.01.66,2.09.66,3.25s-.22,2.25-.66,3.25ZM83.57,416.36c0,1.45-.19,2.65-.58,3.6-.39.95-.87,1.71-1.45,2.27-.58.57-1.23.96-1.96,1.19-.72.23-1.44.34-2.14.34s-1.39-.1-2.14-.29c-.76-.19-1.44-.53-2.04-1.01-.6-.48-1.1-1.12-1.51-1.93-.41-.81-.61-1.85-.61-3.12v-15.82h-5.56v15.82c0,2.33.38,4.23,1.14,5.69.76,1.46,1.67,2.62,2.75,3.47,1.08.85,2.23,1.42,3.47,1.72,1.23.3,2.33.45,3.28.45,1.52,0,2.89-.33,4.13-.98,1.23-.65,2.31-1.44,3.23-2.35v2.65h5.55v-26.45h-5.55v14.76h0ZM176.21,405.25c-.95-1.27-2.13-2.3-3.55-3.09-1.41-.79-3.07-1.19-4.97-1.19-2.01,0-3.82.35-5.42,1.06-1.61.71-2.97,1.69-4.1,2.94-1.13,1.25-2,2.73-2.62,4.42-.62,1.69-.93,3.53-.93,5.5s.31,3.76.93,5.45c.62,1.69,1.49,3.17,2.62,4.42,1.13,1.25,2.49,2.23,4.1,2.94,1.61.71,3.41,1.06,5.42,1.06,1.91,0,3.56-.4,4.97-1.19,1.41-.79,2.59-1.83,3.55-3.09v3.6h5.55v-26.45h-5.55v3.65ZM175.57,418.29c-.42,1.08-1.01,2-1.75,2.78-.74.78-1.62,1.39-2.65,1.83-1.02.44-2.13.66-3.33.66s-2.22-.23-3.17-.69c-.95-.46-1.77-1.09-2.46-1.88-.69-.79-1.22-1.71-1.59-2.75-.37-1.04-.56-2.16-.56-3.36s.19-2.32.56-3.36c.37-1.04.9-1.96,1.59-2.75.69-.79,1.51-1.42,2.46-1.88.95-.46,2.01-.69,3.17-.69s2.31.21,3.33.63c1.02.42,1.91,1.02,2.65,1.8.74.78,1.32,1.69,1.75,2.75.42,1.06.63,2.21.63,3.44s-.21,2.39-.63,3.47h0ZM243.27,405.04c-1.25-1.27-2.73-2.27-4.42-2.99-1.69-.72-3.49-1.08-5.4-1.08s-3.7.36-5.4,1.08c-1.69.72-3.17,1.72-4.42,2.99-1.25,1.27-2.24,2.74-2.96,4.42-.72,1.68-1.09,3.47-1.09,5.37s.36,3.7,1.09,5.4c.72,1.69,1.71,3.17,2.96,4.44,1.25,1.27,2.73,2.27,4.42,2.99,1.69.72,3.49,1.09,5.4,1.09s3.7-.36,5.4-1.09c1.69-.72,3.17-1.72,4.42-2.99,1.25-1.27,2.24-2.75,2.96-4.44.72-1.69,1.08-3.49,1.08-5.4s-.36-3.69-1.08-5.37c-.72-1.67-1.71-3.15-2.96-4.42ZM241.1,418.08c-.44,1.01-1.03,1.89-1.77,2.65-.74.76-1.61,1.36-2.62,1.8-1.01.44-2.09.66-3.25.66s-2.25-.22-3.25-.66c-1.01-.44-1.89-1.04-2.65-1.8-.76-.76-1.36-1.64-1.8-2.65-.44-1.01-.66-2.09-.66-3.25s.22-2.25.66-3.25c.44-1.01,1.04-1.88,1.8-2.62.76-.74,1.64-1.33,2.65-1.77,1.01-.44,2.09-.66,3.25-.66s2.25.22,3.25.66c1.01.44,1.88,1.03,2.62,1.77.74.74,1.33,1.61,1.77,2.62.44,1.01.66,2.09.66,3.25s-.22,2.25-.66,3.25ZM274.54,406.55c-.76-1.46-1.68-2.62-2.75-3.47-1.08-.85-2.23-1.42-3.47-1.72s-2.33-.45-3.28-.45c-1.55,0-2.95.33-4.18.98-1.23.65-2.29,1.44-3.17,2.35v-2.65h-5.55v26.45h5.55v-14.81c0-1.45.19-2.65.56-3.6s.85-1.71,1.45-2.27c.6-.56,1.26-.96,1.98-1.19.72-.23,1.42-.34,2.09-.34.71,0,1.43.1,2.17.29.74.19,1.42.54,2.04,1.03.62.49,1.13,1.15,1.53,1.96.41.81.61,1.85.61,3.12v15.82h5.55v-15.82c0-2.33-.38-4.22-1.14-5.69h0ZM211.66,388.8c-.85,0-1.58.3-2.2.9-.62.6-.93,1.34-.93,2.22s.31,1.58.93,2.2c.62.62,1.35.93,2.2.93s1.58-.31,2.2-.93c.62-.62.93-1.35.93-2.2s-.31-1.62-.93-2.22c-.62-.6-1.35-.9-2.2-.9ZM200.07,423.13c-1.23,0-2.16-.26-2.78-.77-.62-.51-.93-1.51-.93-2.99v-12.75h6.14v-5.03h-6.14v-8.78l-5.56,1.91v6.88h-5.45v5.03h5.45v13.12c0,1.69.18,3.09.53,4.18.35,1.09.85,1.97,1.51,2.62.65.65,1.46,1.11,2.43,1.38.97.27,2.09.4,3.36.4.6,0,1.23-.03,1.91-.08.67-.05,1.36-.11,2.06-.19v-5.13c-.49.07-.94.12-1.35.16-.41.04-.8.05-1.19.05h0ZM208.85,428.05h5.56v-26.45h-5.56v26.45ZM144.57,405.25c-.99-1.27-2.18-2.3-3.57-3.09-1.39-.79-3.04-1.19-4.95-1.19-2.01,0-3.82.35-5.42,1.06-1.61.71-2.97,1.69-4.1,2.94-1.13,1.25-2,2.73-2.62,4.42-.62,1.69-.93,3.53-.93,5.5s.31,3.76.93,5.45c.62,1.69,1.49,3.17,2.62,4.42,1.13,1.25,2.49,2.23,4.1,2.94,1.61.71,3.41,1.06,5.42,1.06,1.91,0,3.55-.4,4.95-1.19,1.39-.79,2.58-1.81,3.57-3.04v3.55h5.56v-37.04h-5.56v14.23ZM143.93,418.29c-.42,1.08-1.01,2-1.75,2.78-.74.78-1.62,1.39-2.65,1.83-1.02.44-2.13.66-3.33.66s-2.22-.23-3.17-.69c-.95-.46-1.77-1.09-2.46-1.88-.69-.79-1.22-1.71-1.59-2.75-.37-1.04-.55-2.16-.55-3.36s.19-2.32.55-3.36c.37-1.04.9-1.96,1.59-2.75.69-.79,1.51-1.42,2.46-1.88.95-.46,2.01-.69,3.17-.69s2.31.21,3.33.63c1.02.42,1.91,1.02,2.65,1.8.74.78,1.32,1.69,1.75,2.75.42,1.06.63,2.21.63,3.44s-.21,2.39-.63,3.47h0Z" fill="#fff"/>
    </g>
    <g>
      <path d="M132.06,334.39c-7.87,0-14.89,3.57-19.62,9.11-.43-.55-.92-1.05-1.41-1.54-1.48-1.48-3.14-2.77-4.86-3.81-4.06-2.46-8.73-3.69-13.35-3.75h0c-6.58,0-13.23,2.52-18.21,7.57-5.04,5.04-7.57,11.63-7.57,18.21,0,4.61,1.23,9.29,3.69,13.35,1.05,1.72,2.34,3.38,3.81,4.86,1.48,1.48,3.14,2.77,4.86,3.81,9.9,6.03,23.07,4.74,31.62-3.81.49-.49.98-1.05,1.41-1.54,4.74,5.54,11.75,9.11,19.62,9.11,14.21,0,25.78-11.57,25.78-25.78s-11.57-25.78-25.78-25.78h0ZM79.28,360.16c0-3.45,1.29-6.89,3.94-9.53,2.65-2.65,6.09-3.94,9.53-3.94h0c1.41,0,2.83.25,4.18.68l-10.64,10.64-6.34,6.34c-.43-1.35-.68-2.77-.68-4.18h0ZM102.35,369.7c-3.69,3.69-9.04,4.8-13.72,3.32l6.58-6.58,10.4-10.4,1.23-1.23c-.37,1.72-.55,3.57-.55,5.41,0,3.45-1.29,6.89-3.94,9.53v-.06h0ZM132.06,373.7c-7.44,0-13.53-6.03-13.53-13.53s6.03-13.53,13.53-13.53,13.53,6.03,13.53,13.53-6.03,13.53-13.53,13.53Z" fill="#fff"/>
      <polygon points="46.92 355.79 21.58 316.48 6.81 316.48 6.81 385.51 21.58 385.51 21.58 342.32 49.2 385.51 61.75 385.51 61.75 316.48 46.92 316.48 46.92 355.79" fill="#fff"/>
      <polygon points="206.5 355.79 181.15 316.48 166.39 316.48 166.39 385.51 181.15 385.51 181.15 342.32 208.77 385.51 221.26 385.51 221.26 316.48 206.5 316.48 206.5 355.79" fill="#fff"/>
      <path d="M265.12,338.32c-3.69-2.28-7.94-3.38-12.67-3.38s-9.41,1.11-13.29,3.32c-3.88,2.21-6.89,5.29-9.04,9.17-2.15,3.88-3.26,8.24-3.26,12.98s1.11,9.11,3.32,12.98c2.21,3.88,5.29,6.95,9.29,9.17,4,2.21,8.61,3.32,13.9,3.32s8.8-.86,12.37-2.65c3.57-1.72,6.52-4.25,8.8-7.57l-10.46-6.21c-1.11,1.41-2.58,2.58-4.49,3.38-1.91.86-3.88,1.29-5.84,1.29-3.32,0-5.97-.74-8.06-2.15-2.09-1.48-3.69-3.69-4.92-6.64h35.93c.25-1.48.37-3.14.37-4.92,0-4.74-1.05-9.04-3.08-12.92-2.09-3.88-4.98-6.95-8.67-9.23l-.18.06h0ZM240.39,354.62c.12-2.15,1.35-3.94,3.69-5.47,2.34-1.54,5.11-2.28,8.24-2.28s5.6.68,7.69,2.03c2.09,1.35,3.38,3.26,3.81,5.72h-23.5.06Z" fill="#fff"/>
      <path d="M325.72,338.26c-3.69-2.21-8.12-3.32-13.29-3.32s-5.29.43-7.81,1.35c-2.52.86-4.86,2.15-7.07,3.81v-3.81h-14.09v69.02h14.09v-23.38c2.15,1.66,4.55,2.89,7.07,3.81,2.58.86,5.17,1.35,7.81,1.35,5.11,0,9.53-1.11,13.29-3.38,3.69-2.28,6.58-5.35,8.55-9.29,1.97-3.94,2.95-8.43,2.95-13.41s-.98-9.47-2.95-13.35c-1.97-3.94-4.8-7.01-8.55-9.23v-.19h0ZM319.56,369.88c-2.34,2.28-5.35,3.38-9.04,3.38s-6.83-1.11-9.29-3.38c-2.46-2.28-3.69-5.23-3.69-8.92s1.23-6.71,3.75-9.04c2.52-2.34,5.6-3.57,9.29-3.57s6.71,1.17,9.04,3.45c2.34,2.28,3.51,5.35,3.51,9.04s-1.17,6.77-3.51,9.04h-.06Z" fill="#fff"/>
      <path d="M377.14,337.03c-2.95-1.23-5.78-1.85-8.61-1.85-4.18,0-8.12,1.54-11.75,4.55v-23.25h-14.09v69.02h14.09v-30.14c.37-2.71,1.35-4.67,2.83-5.97,1.54-1.29,3.26-1.91,5.35-1.91s4.55.68,6.34,2.09c1.78,1.41,2.65,3.69,2.65,6.83v29.1h14.09v-29.47c-.06-5.23-1.17-9.41-3.32-12.55-2.15-3.08-4.67-5.23-7.57-6.46h0Z" fill="#fff"/>
      <path d="M431.77,338.32c-3.88-2.28-8.12-3.45-12.67-3.45s-8.92,1.17-12.8,3.45c-3.88,2.28-7.01,5.35-9.29,9.29-2.28,3.88-3.45,8.18-3.45,12.8s1.17,8.8,3.45,12.73c2.28,3.94,5.35,7.01,9.29,9.29,3.88,2.28,8.18,3.45,12.8,3.45s8.8-1.17,12.67-3.45c3.88-2.28,6.95-5.41,9.29-9.29,2.28-3.94,3.45-8.18,3.45-12.73s-1.17-8.92-3.45-12.8c-2.28-3.88-5.35-6.95-9.29-9.29h0ZM427.28,368.65c-2.34,2.28-5.11,3.45-8.31,3.45s-5.97-1.17-8.24-3.45c-2.28-2.28-3.45-5.04-3.45-8.24s1.17-5.97,3.45-8.31c2.28-2.34,5.04-3.45,8.24-3.45s5.97,1.17,8.31,3.45c2.34,2.34,3.45,5.11,3.45,8.31s-1.17,5.97-3.45,8.24Z" fill="#fff"/>
      <path d="M490.03,361.21c-1.91-2.15-4.12-3.69-6.58-4.61-2.52-.92-5.66-1.78-9.47-2.58-2.95-.55-5.11-1.17-6.46-1.66-1.35-.55-2.03-1.35-2.03-2.46s.55-2.21,1.66-2.95c1.11-.74,2.58-1.11,4.43-1.11s3.81.37,5.17,1.17c1.29.8,2.34,1.97,3.14,3.57l11.2-5.47c-1.91-3.26-4.61-5.78-8-7.51-3.38-1.72-7.26-2.58-11.5-2.58s-6.95.61-9.97,1.85c-3.08,1.23-5.47,3.01-7.26,5.35-1.78,2.34-2.71,5.11-2.71,8.24s.92,5.91,2.71,7.87c1.78,1.97,3.94,3.38,6.46,4.37,2.52.92,5.66,1.85,9.35,2.65,3.26.74,5.66,1.41,7.2,2.03,1.54.61,2.28,1.6,2.28,2.89s-.8,2.65-2.46,3.45c-1.66.8-3.57,1.23-5.72,1.23-5.35,0-8.8-2.03-10.33-6.15l-11.32,5.78c1.85,3.75,4.61,6.52,8.31,8.43,3.69,1.91,8.12,2.83,13.35,2.83s7.32-.61,10.64-1.78c3.26-1.17,5.91-2.95,7.94-5.29,1.97-2.34,3.01-5.17,3.01-8.43s-.92-6.77-2.83-8.92l-.18-.19h0Z" fill="#fff"/>
      <path d="M114.6,403.08c-1.08-.85-2.23-1.42-3.47-1.72-1.23-.3-2.33-.45-3.28-.45-1.55,0-2.95.33-4.18.98-1.23.65-2.29,1.44-3.17,2.35v-2.65h-5.55v26.45h5.55v-14.81c0-1.45.19-2.65.55-3.6.37-.95.85-1.71,1.45-2.27.6-.56,1.26-.96,1.98-1.19.72-.23,1.42-.34,2.09-.34.71,0,1.43.1,2.17.29.74.19,1.42.54,2.04,1.03.62.49,1.13,1.15,1.53,1.96.41.81.61,1.85.61,3.12v15.82h5.55v-15.82c0-2.33-.38-4.22-1.14-5.69-.76-1.46-1.68-2.62-2.75-3.47h0ZM7.11,428.05h5.87v-15.5h15.13v-5.55h-15.13v-10.42h15.77v-5.56H7.11v37.04ZM56.18,405.04c-1.25-1.27-2.73-2.27-4.42-2.99-1.69-.72-3.49-1.08-5.4-1.08s-3.7.36-5.4,1.08c-1.69.72-3.17,1.72-4.42,2.99-1.25,1.27-2.24,2.74-2.96,4.42-.72,1.68-1.09,3.47-1.09,5.37s.36,3.7,1.09,5.4c.72,1.69,1.71,3.17,2.96,4.44,1.25,1.27,2.73,2.27,4.42,2.99,1.69.72,3.49,1.09,5.4,1.09s3.7-.36,5.4-1.09c1.69-.72,3.17-1.72,4.42-2.99,1.25-1.27,2.24-2.75,2.96-4.44.72-1.69,1.08-3.49,1.08-5.4s-.36-3.69-1.08-5.37c-.72-1.67-1.71-3.15-2.96-4.42ZM54.02,418.08c-.44,1.01-1.03,1.89-1.77,2.65-.74.76-1.61,1.36-2.62,1.8-1.01.44-2.09.66-3.25.66s-2.25-.22-3.25-.66c-1.01-.44-1.89-1.04-2.65-1.8-.76-.76-1.36-1.64-1.8-2.65-.44-1.01-.66-2.09-.66-3.25s.22-2.25.66-3.25c.44-1.01,1.04-1.88,1.8-2.62.76-.74,1.64-1.33,2.65-1.77,1.01-.44,2.09-.66,3.25-.66s2.25.22,3.25.66c1.01.44,1.88,1.03,2.62,1.77.74.74,1.33,1.61,1.77,2.62.44,1.01.66,2.09.66,3.25s-.22,2.25-.66,3.25ZM83.57,416.36c0,1.45-.19,2.65-.58,3.6-.39.95-.87,1.71-1.45,2.27-.58.57-1.23.96-1.96,1.19-.72.23-1.44.34-2.14.34s-1.39-.1-2.14-.29c-.76-.19-1.44-.53-2.04-1.01-.6-.48-1.1-1.12-1.51-1.93-.41-.81-.61-1.85-.61-3.12v-15.82h-5.56v15.82c0,2.33.38,4.23,1.14,5.69.76,1.46,1.67,2.62,2.75,3.47,1.08.85,2.23,1.42,3.47,1.72,1.23.3,2.33.45,3.28.45,1.52,0,2.89-.33,4.13-.98,1.23-.65,2.31-1.44,3.23-2.35v2.65h5.55v-26.45h-5.55v14.76h0ZM176.21,405.25c-.95-1.27-2.13-2.3-3.55-3.09-1.41-.79-3.07-1.19-4.97-1.19-2.01,0-3.82.35-5.42,1.06-1.61.71-2.97,1.69-4.1,2.94-1.13,1.25-2,2.73-2.62,4.42-.62,1.69-.93,3.53-.93,5.5s.31,3.76.93,5.45c.62,1.69,1.49,3.17,2.62,4.42,1.13,1.25,2.49,2.23,4.1,2.94,1.61.71,3.41,1.06,5.42,1.06,1.91,0,3.56-.4,4.97-1.19,1.41-.79,2.59-1.83,3.55-3.09v3.6h5.55v-26.45h-5.55v3.65ZM175.57,418.29c-.42,1.08-1.01,2-1.75,2.78-.74.78-1.62,1.39-2.65,1.83-1.02.44-2.13.66-3.33.66s-2.22-.23-3.17-.69c-.95-.46-1.77-1.09-2.46-1.88-.69-.79-1.22-1.71-1.59-2.75-.37-1.04-.56-2.16-.56-3.36s.19-2.32.56-3.36c.37-1.04.9-1.96,1.59-2.75.69-.79,1.51-1.42,2.46-1.88.95-.46,2.01-.69,3.17-.69s2.31.21,3.33.63c1.02.42,1.91,1.02,2.65,1.8.74.78,1.32,1.69,1.75,2.75.42,1.06.63,2.21.63,3.44s-.21,2.39-.63,3.47h0ZM243.27,405.04c-1.25-1.27-2.73-2.27-4.42-2.99-1.69-.72-3.49-1.08-5.4-1.08s-3.7.36-5.4,1.08c-1.69.72-3.17,1.72-4.42,2.99-1.25,1.27-2.24,2.74-2.96,4.42-.72,1.68-1.09,3.47-1.09,5.37s.36,3.7,1.09,5.4c.72,1.69,1.71,3.17,2.96,4.44,1.25,1.27,2.73,2.27,4.42,2.99,1.69.72,3.49,1.09,5.4,1.09s3.7-.36,5.4-1.09c1.69-.72,3.17-1.72,4.42-2.99,1.25-1.27,2.24-2.75,2.96-4.44.72-1.69,1.08-3.49,1.08-5.4s-.36-3.69-1.08-5.37c-.72-1.67-1.71-3.15-2.96-4.42ZM241.1,418.08c-.44,1.01-1.03,1.89-1.77,2.65-.74.76-1.61,1.36-2.62,1.8-1.01.44-2.09.66-3.25.66s-2.25-.22-3.25-.66c-1.01-.44-1.89-1.04-2.65-1.8-.76-.76-1.36-1.64-1.8-2.65-.44-1.01-.66-2.09-.66-3.25s.22-2.25.66-3.25c.44-1.01,1.04-1.88,1.8-2.62.76-.74,1.64-1.33,2.65-1.77,1.01-.44,2.09-.66,3.25-.66s2.25.22,3.25.66c1.01.44,1.88,1.03,2.62,1.77.74.74,1.33,1.61,1.77,2.62.44,1.01.66,2.09.66,3.25s-.22,2.25-.66,3.25ZM274.54,406.55c-.76-1.46-1.68-2.62-2.75-3.47-1.08-.85-2.23-1.42-3.47-1.72s-2.33-.45-3.28-.45c-1.55,0-2.95.33-4.18.98-1.23.65-2.29,1.44-3.17,2.35v-2.65h-5.55v26.45h5.55v-14.81c0-1.45.19-2.65.56-3.6s.85-1.71,1.45-2.27c.6-.56,1.26-.96,1.98-1.19.72-.23,1.42-.34,2.09-.34.71,0,1.43.1,2.17.29.74.19,1.42.54,2.04,1.03.62.49,1.13,1.15,1.53,1.96.41.81.61,1.85.61,3.12v15.82h5.55v-15.82c0-2.33-.38-4.22-1.14-5.69h0ZM211.66,388.8c-.85,0-1.58.3-2.2.9-.62.6-.93,1.34-.93,2.22s.31,1.58.93,2.2c.62.62,1.35.93,2.2.93s1.58-.31,2.2-.93c.62-.62.93-1.35.93-2.2s-.31-1.62-.93-2.22c-.62-.6-1.35-.9-2.2-.9ZM200.07,423.13c-1.23,0-2.16-.26-2.78-.77-.62-.51-.93-1.51-.93-2.99v-12.75h6.14v-5.03h-6.14v-8.78l-5.56,1.91v6.88h-5.45v5.03h5.45v13.12c0,1.69.18,3.09.53,4.18.35,1.09.85,1.97,1.51,2.62.65.65,1.46,1.11,2.43,1.38.97.27,2.09.4,3.36.4.6,0,1.23-.03,1.91-.08.67-.05,1.36-.11,2.06-.19v-5.13c-.49.07-.94.12-1.35.16-.41.04-.8.05-1.19.05h0ZM208.85,428.05h5.56v-26.45h-5.56v26.45ZM144.57,405.25c-.99-1.27-2.18-2.3-3.57-3.09-1.39-.79-3.04-1.19-4.95-1.19-2.01,0-3.82.35-5.42,1.06-1.61.71-2.97,1.69-4.1,2.94-1.13,1.25-2,2.73-2.62,4.42-.62,1.69-.93,3.53-.93,5.5s.31,3.76.93,5.45c.62,1.69,1.49,3.17,2.62,4.42,1.13,1.25,2.49,2.23,4.1,2.94,1.61.71,3.41,1.06,5.42,1.06,1.91,0,3.55-.4,4.95-1.19,1.39-.79,2.58-1.81,3.57-3.04v3.55h5.56v-37.04h-5.56v14.23ZM143.93,418.29c-.42,1.08-1.01,2-1.75,2.78-.74.78-1.62,1.39-2.65,1.83-1.02.44-2.13.66-3.33.66s-2.22-.23-3.17-.69c-.95-.46-1.77-1.09-2.46-1.88-.69-.79-1.22-1.71-1.59-2.75-.37-1.04-.55-2.16-.55-3.36s.19-2.32.55-3.36c.37-1.04.9-1.96,1.59-2.75.69-.79,1.51-1.42,2.46-1.88.95-.46,2.01-.69,3.17-.69s2.31.21,3.33.63c1.02.42,1.91,1.02,2.65,1.8.74.78,1.32,1.69,1.75,2.75.42,1.06.63,2.21.63,3.44s-.21,2.39-.63,3.47h0Z" fill="#fff"/>
    </g>
  </g>
  <path d="M91.08,284.62h97.83c50.49,0,55.29-80.43,55.24-128.26l4.16-147.09L91.08,284.62Z" fill="#fff"/>
  <path d="M405.54,284.62h-97.83c-50.49,0-55.29-80.43-55.24-128.26l-4.16-147.09,157.23,275.35Z" fill="#fff"/>
</svg>
