<?xml version="1.0" encoding="UTF-8" standalone="no"?>
<svg
   width="267"
   height="479.00082"
   fill="none"
   viewBox="0 0 267 479.00082"
   version="1.1"
   id="svg6"
   sodipodi:docname="greenhouse-stacked-color.svg"
   inkscape:version="1.4.3 (0d15f75, 2025-12-25)"
   inkscape:export-filename="greenhouse-stacked-color.png"
   inkscape:export-xdpi="96"
   inkscape:export-ydpi="96"
   xmlns:inkscape="http://www.inkscape.org/namespaces/inkscape"
   xmlns:sodipodi="http://sodipodi.sourceforge.net/DTD/sodipodi-0.dtd"
   xmlns="http://www.w3.org/2000/svg"
   xmlns:svg="http://www.w3.org/2000/svg">
  <defs
     id="defs6" />
  <sodipodi:namedview
     id="namedview6"
     pagecolor="#ffffff"
     bordercolor="#000000"
     borderopacity="0.25"
     inkscape:showpageshadow="2"
     inkscape:pageopacity="0.0"
     inkscape:pagecheckerboard="0"
     inkscape:deskcolor="#d1d1d1"
     inkscape:zoom="0.24"
     inkscape:cx="135.41667"
     inkscape:cy="243.75"
     inkscape:current-layer="svg6" />
  <path
     fill="#000000"
     fill-rule="evenodd"
     d="m 129.078,0.80082334 a 7.806,7.806 0 0 1 6.888,0 L 260.664,62.087823 c 3.88,1.907 5.62,4.884 3.718,8.774 -1.902,3.89 -6.726,7.22 -10.606,5.313 l -121.254,-59.593 -116.874,57.441 V 263.77582 h 116.874 c 4.321,0 7.824,3.512 7.824,7.845 0,4.332 -3.503,7.844 -7.824,7.844 H 7.824 c -4.321,0 -7.824,-3.512 -7.824,-7.844 V 69.131823 c 0,-2.994 1.7,-5.727 4.38,-7.044 z"
     clip-rule="evenodd"
     id="path1" />
  <path
     fill="#000000"
     fill-rule="evenodd"
     d="m 129.078,0.80082334 a 7.806,7.806 0 0 1 6.888,0 L 260.664,62.087823 c 3.88,1.907 5.62,4.884 3.718,8.774 -1.902,3.89 -6.726,7.22 -10.606,5.313 l -121.254,-59.593 -116.874,57.441 V 263.77582 h 116.874 c 4.321,0 7.824,3.512 7.824,7.845 0,4.332 -3.503,7.844 -7.824,7.844 H 7.824 c -4.321,0 -7.824,-3.512 -7.824,-7.844 V 69.131823 c 0,-2.994 1.7,-5.727 4.38,-7.044 z"
     clip-rule="evenodd"
     id="path2" />
  <path
     fill="#000000"
     fill-rule="evenodd"
     d="m 260.664,62.087823 c 4.162,2.045 6.336,4.182 6.336,8.514 V 271.62082 c 0,4.332 -3.503,7.844 -7.824,7.844 -4.321,0 -7.824,-3.512 -7.824,-7.844 V 70.601823 c 0,-4.332 4.99,-8.514 9.312,-8.514 z M 133.501,234.14082 89.816,212.93282 a 6.349,6.349 0 0 0 -8.492,2.959 c -1.53,3.168 -0.209,6.98 2.951,8.514 l 46.401,22.526 a 6.302,6.302 0 0 0 2.825,0.666 6.303,6.303 0 0 0 2.826,-0.666 l 92.857,-45.079 c 3.16,-1.534 4.481,-5.346 2.951,-8.515 a 6.349,6.349 0 0 0 -8.492,-2.958 z"
     clip-rule="evenodd"
     id="path3" />
  <path
     fill="#000000"
     fill-rule="evenodd"
     d="m 133.5,128.60082 c 4.321,-0.021 7.315,0.851 7.335,5.183 l 0.978,137.8 c 0.02,4.332 -3.466,7.861 -7.787,7.881 -4.322,0.02 -7.841,-3.475 -7.861,-7.808 l -0.978,-137.8 c -0.02,-4.332 3.992,-5.236 8.313,-5.256 z"
     clip-rule="evenodd"
     id="path4" />
  <path
     fill="#000000"
     fill-rule="evenodd"
     d="m 133.501,181.18882 -43.685,-21.208 a 6.35,6.35 0 0 0 -8.492,2.959 c -1.53,3.168 -0.209,6.98 2.951,8.515 l 46.401,22.526 a 6.302,6.302 0 0 0 2.825,0.665 6.303,6.303 0 0 0 2.826,-0.665 l 92.857,-45.08 c 3.16,-1.534 4.481,-5.346 2.951,-8.514 a 6.35,6.35 0 0 0 -8.492,-2.959 z m -0.078,-53.477 -43.607,-21.17 a 6.349,6.349 0 0 0 -8.492,2.959 c -1.53,3.168 -0.209,6.98 2.951,8.514 l 46.391,22.522 a 6.307,6.307 0 0 0 2.905,0.669 6.309,6.309 0 0 0 2.891,-0.734 L 260.605,76.765823 c 3.126,-1.604 4.362,-5.444 2.763,-8.578 a 6.35,6.35 0 0 0 -8.556,-2.77 z"
     clip-rule="evenodd"
     id="path5" />
  <path
     fill="#000000"
     d="m 225.835,478.02382 v -56.792 h 38.547 v 10.984 H 238.17 v 11.636 h 22.479 v 10.902 H 238.17 v 12.286 h 26.212 v 10.984 z m -32.301,0.977 c -4.977,0 -9.197,-0.841 -12.659,-2.522 -3.463,-1.736 -6.411,-3.96 -8.846,-6.672 l 8.115,-8.218 c 3.842,4.34 8.575,6.509 14.202,6.509 3.03,0 5.275,-0.624 6.736,-1.871 1.46,-1.248 2.191,-2.902 2.191,-4.963 0,-1.573 -0.433,-2.875 -1.299,-3.906 -0.865,-1.085 -2.624,-1.817 -5.275,-2.197 l -5.599,-0.732 c -6.005,-0.759 -10.415,-2.576 -13.228,-5.451 -2.759,-2.875 -4.139,-6.699 -4.139,-11.473 0,-2.549 0.487,-4.882 1.461,-6.997 a 15.684,15.684 0 0 1 4.139,-5.451 c 1.839,-1.519 4.057,-2.685 6.654,-3.499 2.651,-0.868 5.654,-1.302 9.008,-1.302 4.274,0 8.034,0.678 11.28,2.034 a 22.902,22.902 0 0 1 8.359,5.94 l -8.196,8.299 c -1.353,-1.573 -3.003,-2.848 -4.951,-3.824 -1.893,-1.031 -4.301,-1.546 -7.222,-1.546 -2.759,0 -4.815,0.488 -6.168,1.464 -1.352,0.977 -2.029,2.333 -2.029,4.069 0,1.952 0.514,3.363 1.542,4.231 1.082,0.867 2.814,1.491 5.194,1.871 l 5.6,0.895 c 5.843,0.922 10.171,2.739 12.984,5.451 2.813,2.658 4.22,6.455 4.22,11.391 0,2.713 -0.487,5.208 -1.461,7.486 a 15.834,15.834 0 0 1 -4.301,5.858 c -1.839,1.627 -4.139,2.902 -6.898,3.824 -2.759,0.868 -5.897,1.302 -9.414,1.302 z m -63.001,-57.769 v 34.824 c 0,4.014 0.785,7.025 2.354,9.032 1.569,1.952 4.193,2.929 7.872,2.929 3.678,0 6.302,-0.977 7.871,-2.929 1.569,-2.007 2.354,-5.018 2.354,-9.032 v -34.824 h 12.01 v 33.522 c 0,4.177 -0.405,7.811 -1.217,10.903 -0.757,3.038 -2.029,5.56 -3.814,7.567 -1.786,1.953 -4.085,3.417 -6.898,4.394 -2.813,0.922 -6.249,1.383 -10.306,1.383 -4.058,0 -7.493,-0.461 -10.307,-1.383 -2.813,-0.977 -5.112,-2.441 -6.898,-4.394 -1.785,-2.007 -3.083,-4.529 -3.895,-7.567 -0.757,-3.092 -1.136,-6.726 -1.136,-10.903 v -33.522 z m -46.895,57.769 c -3.733,0 -7.141,-0.624 -10.225,-1.871 -3.084,-1.248 -5.708,-3.092 -7.872,-5.533 -2.164,-2.495 -3.841,-5.56 -5.031,-9.194 -1.191,-3.689 -1.786,-7.947 -1.786,-12.774 0,-4.828 0.595,-9.059 1.786,-12.693 1.19,-3.689 2.867,-6.753 5.031,-9.194 a 20.381,20.381 0 0 1 7.872,-5.614 c 3.084,-1.248 6.492,-1.872 10.225,-1.872 3.733,0 7.141,0.624 10.225,1.872 a 20.381,20.381 0 0 1 7.872,5.614 c 2.164,2.441 3.841,5.505 5.031,9.194 1.191,3.634 1.786,7.865 1.786,12.693 0,4.827 -0.595,9.085 -1.786,12.774 -1.19,3.634 -2.867,6.699 -5.031,9.194 -2.164,2.441 -4.788,4.285 -7.872,5.533 -3.084,1.247 -6.492,1.871 -10.225,1.871 z m 0,-10.984 c 3.733,0 6.628,-1.221 8.683,-3.661 2.11,-2.441 3.165,-5.94 3.165,-10.497 v -8.461 c 0,-4.557 -1.055,-8.055 -3.165,-10.496 -2.055,-2.441 -4.95,-3.662 -8.683,-3.662 -3.733,0 -6.654,1.221 -8.764,3.662 -2.056,2.441 -3.084,5.939 -3.084,10.496 v 8.461 c 0,4.557 1.028,8.056 3.084,10.497 2.11,2.44 5.031,3.661 8.764,3.661 z m -47.525,-13.263 H 14.526 v 23.27 H 2.191 v -56.792 h 12.335 v 22.62 h 21.587 v -22.62 h 12.335 v 56.792 H 36.113 Z m 194.961,-102.379 -5.437,-11.391 h -0.243 v 38.241 h -11.605 v -56.792 h 13.471 l 15.5,26.85 5.438,11.391 h 0.243 v -38.241 h 11.605 v 56.792 h -13.471 z m -66.579,26.85 v -56.792 h 38.548 v 10.984 h -26.212 v 11.635 h 22.479 v 10.903 h -22.479 v 12.286 h 26.212 v 10.984 z m -49.293,0 v -56.792 h 38.547 v 10.984 h -26.212 v 11.635 h 22.479 v 10.903 h -22.479 v 12.286 h 26.212 v 10.984 z m -42.348,0 H 60.519 v -56.792 h 26.862 c 2.596,0 4.95,0.434 7.06,1.302 2.11,0.868 3.895,2.115 5.356,3.743 1.515,1.573 2.678,3.471 3.489,5.695 0.812,2.224 1.218,4.692 1.218,7.404 0,3.852 -0.866,7.215 -2.597,10.089 -1.677,2.875 -4.247,4.964 -7.71,6.265 l 11.118,22.294 H 91.6 l -9.9,-20.829 h -8.846 z m 12.985,-31.244 c 1.839,0 3.273,-0.461 4.301,-1.383 1.082,-0.976 1.623,-2.386 1.623,-4.231 v -3.58 c 0,-1.844 -0.541,-3.227 -1.623,-4.149 -1.028,-0.977 -2.462,-1.465 -4.301,-1.465 H 72.854 v 14.808 z m -47.698,22.213 h -0.405 c -0.433,2.875 -1.894,5.262 -4.383,7.16 -2.488,1.899 -5.87,2.848 -10.143,2.848 -3.247,0 -6.276,-0.624 -9.09,-1.872 -2.813,-1.247 -5.274,-3.091 -7.384,-5.532 -2.11,-2.441 -3.76,-5.479 -4.95,-9.113 -1.19,-3.634 -1.786,-7.838 -1.786,-12.612 0,-4.773 0.622,-9.004 1.867,-12.692 1.244,-3.689 2.975,-6.781 5.193,-9.276 a 22.495,22.495 0 0 1 8.115,-5.695 c 3.138,-1.302 6.628,-1.953 10.47,-1.953 5.085,0 9.467,1.112 13.146,3.336 3.679,2.17 6.573,5.451 8.683,9.845 l -10.063,5.777 a 13.523,13.523 0 0 0 -4.058,-5.614 c -1.839,-1.573 -4.409,-2.36 -7.709,-2.36 -3.841,0 -6.898,1.112 -9.17,3.336 -2.272,2.224 -3.409,5.723 -3.409,10.496 v 9.113 c 0,4.719 1.137,8.217 3.409,10.496 2.272,2.224 5.329,3.336 9.17,3.336 1.515,0 2.949,-0.163 4.301,-0.489 1.353,-0.379 2.543,-0.922 3.57,-1.627 1.029,-0.759 1.813,-1.654 2.354,-2.685 0.595,-1.031 0.893,-2.251 0.893,-3.661 v -2.848 h -10.55 v -10.333 h 22.317 v 31.65 H 38.141 Z"
     id="path6" />
</svg>
