<?xml version="1.0" encoding="UTF-8"?>
<svg id="a" data-name="Layer 1" xmlns="http://www.w3.org/2000/svg" width="1000" height="1000" xmlns:xlink="http://www.w3.org/1999/xlink" viewBox="0 0 1000 1000">
  <defs>
    <linearGradient id="f" x1="1299.72" y1="-190.87" x2="1299.72" y2="163.07" gradientTransform="translate(-929.92 244.6) scale(1.1 1)" gradientUnits="userSpaceOnUse">
      <stop offset="0" stop-color="#fff"/>
      <stop offset="1" stop-color="#fff" stop-opacity="0"/>
    </linearGradient>
    <linearGradient id="j" x1="505.68" y1="183.93" x2="498.45" y2="1245.63" gradientUnits="userSpaceOnUse">
      <stop offset="0" stop-color="#fff"/>
      <stop offset="1" stop-color="#bebebe"/>
    </linearGradient>
    <linearGradient id="x" x1="279.26" y1="27.59" x2="315.04" y2="84.71" gradientTransform="translate(134.6 208.7)" gradientUnits="userSpaceOnUse">
      <stop offset="0" stop-color="#fff"/>
      <stop offset="1" stop-color="#fff" stop-opacity="0"/>
    </linearGradient>
    <linearGradient id="aa" x1="481.26" y1="29.37" x2="511.16" y2="79.17" gradientTransform="translate(134.6 208.7)" gradientUnits="userSpaceOnUse">
      <stop offset="0" stop-color="#fff"/>
      <stop offset="1" stop-color="#fff" stop-opacity="0"/>
    </linearGradient>
    <radialGradient id="ac" cx="-4668.71" cy="2756.41" fx="-4668.71" fy="2756.41" r="85.57" gradientTransform="translate(0 3101.19) scale(1 -1)" gradientUnits="userSpaceOnUse">
      <stop offset="0" stop-color="#fff"/>
      <stop offset="1" stop-color="#fff" stop-opacity="0"/>
    </radialGradient>
    <radialGradient id="ae" cx="-3019.12" cy="8173.46" fx="-3019.12" fy="8173.46" r="85.68" gradientTransform="translate(0 3101.19) scale(1 -1)" gradientUnits="userSpaceOnUse">
      <stop offset="0" stop-color="#fff"/>
      <stop offset="1" stop-color="#fff" stop-opacity="0"/>
    </radialGradient>
    <linearGradient id="ah" x1="392.43" y1="157.14" x2="362.94" y2="207.14" gradientTransform="translate(134.6 208.7)" gradientUnits="userSpaceOnUse">
      <stop offset="0" stop-color="#fff"/>
      <stop offset="1" stop-color="#fff" stop-opacity="0"/>
    </linearGradient>
    <linearGradient id="ak" x1="937.82" y1="1011.96" x2="937.82" y2="1091.14" gradientTransform="translate(-931.37 -731.8) scale(1.3 1.5)" gradientUnits="userSpaceOnUse">
      <stop offset="0" stop-color="#fff"/>
      <stop offset="1" stop-color="#fff" stop-opacity="0"/>
    </linearGradient>
    <linearGradient id="an" x1="922.44" y1="1011.96" x2="922.44" y2="1091.14" gradientTransform="translate(-482.07 -731.8) scale(1.3 1.5)" gradientUnits="userSpaceOnUse">
      <stop offset="0" stop-color="#fff"/>
      <stop offset="1" stop-color="#fff" stop-opacity="0"/>
    </linearGradient>
    <linearGradient id="ap" x1="-208.55" y1="466.24" x2="81.88" y2="239.63" gradientTransform="translate(134.6 208.7)" gradientUnits="userSpaceOnUse">
      <stop offset="0" stop-color="#fff"/>
      <stop offset="1" stop-color="#fff" stop-opacity="0"/>
    </linearGradient>
    <linearGradient id="ar" x1="-827.18" y1="421.78" x2="-536.85" y2="195.27" gradientTransform="translate(245.79 251.1) rotate(-180) scale(1 -1)" gradientUnits="userSpaceOnUse">
      <stop offset="0" stop-color="#fff"/>
      <stop offset="1" stop-color="#fff" stop-opacity="0"/>
    </linearGradient>
    <linearGradient id="at" x1="336.22" y1="68.54" x2="343.64" y2="95.35" gradientTransform="translate(134.6 208.7)" gradientUnits="userSpaceOnUse">
      <stop offset="0" stop-color="#fff"/>
      <stop offset="1" stop-color="#fff" stop-opacity="0"/>
    </linearGradient>
    <linearGradient id="av" x1="311.92" y1="96.62" x2="328.83" y2="128.47" gradientTransform="translate(134.6 208.7)" gradientUnits="userSpaceOnUse">
      <stop offset="0" stop-color="#e2e2e2"/>
      <stop offset="1" stop-color="#fff" stop-opacity="0"/>
    </linearGradient>
    <linearGradient id="ax" x1="389.01" y1="67.72" x2="398.81" y2="97" gradientTransform="translate(134.6 208.7)" gradientUnits="userSpaceOnUse">
      <stop offset="0" stop-color="#fff"/>
      <stop offset="1" stop-color="#fff" stop-opacity="0"/>
    </linearGradient>
    <linearGradient id="az" x1="367.21" y1="98.86" x2="383.87" y2="130.07" gradientTransform="translate(134.6 208.7)" gradientUnits="userSpaceOnUse">
      <stop offset="0" stop-color="#d7d7d7"/>
      <stop offset="1" stop-color="#e2e2e2" stop-opacity="0"/>
    </linearGradient>
  </defs>
  <g id="b" data-name="Layer 26">
    <g id="c" data-name="g10656" isolation="isolate" opacity=".8">
      <path id="d" data-name="path10636" d="M884.74,926.67c0,19.28-172.38,35.05-385.08,35.05s-385.08-15.67-385.08-35.05,172.38-35.05,385.08-35.05,385.08,15.77,385.08,35.05" fill="#d7d7d7"/>
    </g>
    <path id="e" data-name="path10676" d="M180.67,569.23c-2.06,10.83-2.99,21.75-2.78,32.68,5.05,167.23,144.96,303.01,323.42,303.01s321.88-134.96,323.42-303.01c.1-12.17-2.17-24.23-6.6-35.47,0,0,38.15,8.25,106.5,57.32,60.11,10.93,38.15-38.15,38.15-38.15,0,0-13.71-38.15-101.04-106.5-87.33-68.35-84.95-91.24-94.54-133.51-9.69-42.48-22.78-98.56-22.78-98.56,0,0-20.21-88.15-66.09-133.72-98.67-98.46-258.47-98.36-356.93.31-.21.21-.52.52-.72.72-45.88,46.19-71.65,116.3-71.65,116.3,0,0-14.74,55.67-14.33,100.21.41,43.82-10.31,82.48-97.64,150.83-87.33,68.35-101.04,106.5-101.04,106.5,0,0-20.83,45.98,39.28,35.16,68.35-45.05,105.57-54.23,105.47-54.23h0l-.1.1Z" fill="#efefef" stroke="#efefef" stroke-width="2.3"/>
    <path id="g" data-name="path10696" d="M696.89,222.81c0,98.67-88.25,178.77-197.13,178.77s-197.13-80.01-197.13-178.77S391,44.14,499.77,44.14s197.13,80.01,197.13,178.77" fill="url(#f)"/>
    <g id="h" data-name="g10896" isolation="isolate">
      <path id="i" data-name="path10876" d="M705.55,300.14c0,48.77-49.8,88.25-111.35,88.25s-111.35-39.49-111.35-88.25,49.8-88.25,111.35-88.25,111.35,39.49,111.35,88.25" fill="#cdcdcd" stroke="#cdcdcd" stroke-miterlimit="10"/>
    </g>
    <path id="k" data-name="path10716" d="M763.18,657.69c0,82.89-29.18,159.7-76.4,214.03-47.22,54.33-321.46,54.33-368.68,0-47.22-54.33-76.4-129.49-76.4-212.38,0-165.78,116.81-300.33,260.74-300.33,142.9.1,258.99,134.13,260.74,298.68Z" fill="url(#j)"/>
    <path id="l" data-name="path10736" d="M262.12,550.57s-8.87,82.79,1.86,130.52,22.99,95.16,22.99,95.16l-25.57,7.94c-9.59-11.13-18.45-22.89-26.5-35.16-12.37-19.38-27.42-59.08-27.42-59.08l39.59,30.93s-7.94-33.51-4.43-70.52c3.51-37.01,7.22-75.88,19.38-99.7h0l.1-.1Z" fill="#fff" isolation="isolate" opacity=".4"/>
    <path id="m" data-name="path10756" d="M363.67,414.68s11.44,17.63,19.38,17.84c12.99,1.44,16.7,15.16,29.59,14.23,27.63,33.09,51.86,63.92,77.74,76.81,9.28,5.98,19.18,7.42,27.63-7.22,14.74-12.89,48.66-49.28,55.88-63.2,10.72-12.37,8.25-30.41,8.25-30.41,0,0,18.25-7.32,27.42-7.94,10.21-.82,1.55-18.56,10.52-20.21-2.17-14.64,11.86-14.33-4.74-16.19-16.6-1.86-226.61-12.89-243.21-1.86-16.7,11.03-19.59,17.84-8.45,38.04h0v.1Z" fill="#cbcbcb"/>
    <path id="n" data-name="path10776" d="M741.74,555s8.87,82.79-1.86,130.52c-10.72,47.73-22.99,95.16-22.99,95.16l25.57,7.94c9.59-11.13,18.45-22.89,26.5-35.16,12.37-19.28,27.42-59.08,27.42-59.08l-39.59,30.93s7.94-33.51,4.43-70.52c-3.51-37.01-7.22-75.98-19.38-99.7l-.1-.1Z" fill="#fff" isolation="isolate" opacity=".4"/>
    <path id="o" data-name="path10796" d="M835.25,885.33c0,16.19-4.54,22.06-12.78,35.98h-300.64c-8.25-13.92-12.78-19.8-12.78-35.98,0-64.54,72.99-117.02,163.1-117.02s163.1,52.37,163.1,117.02" fill="#cbcbcb"/>
    <path id="p" data-name="path10816" d="M855.36,890.79c0,16.19-4.54,22.06-12.78,35.98h-300.43c-8.25-13.92-12.78-19.8-12.78-35.98,0-64.54,72.99-117.02,163.1-117.02s163,52.37,163,117.02" fill="#efefef" stroke="#efefef" stroke-width="2.3"/>
    <path id="q" data-name="path10836" d="M497.91,886.98c0,16.19-4.54,22.06-12.78,35.98H184.59c-8.25-13.92-12.78-19.8-12.78-35.98,0-64.54,72.99-117.02,163.1-117.02s163,52.58,163,117.02" fill="#cbcbcb"/>
    <path id="r" data-name="path10856" d="M477.7,890.79c0,16.19-4.54,22.06-12.78,35.98H164.38c-8.25-13.92-12.78-19.8-12.78-35.98,0-64.54,72.99-117.02,163.1-117.02s163,52.37,163,117.02" fill="#efefef" stroke="#efefef" stroke-width="2.3"/>
    <g id="s" data-name="g10956" isolation="isolate">
      <path id="t" data-name="path10916" d="M497.6,293.75c0,64.44-42.37,116.71-94.65,116.71s-94.65-52.27-94.65-116.71,42.37-116.71,94.65-116.71,94.65,52.27,94.65,116.71" fill="#cdcdcd"/>
    </g>
    <path id="u" data-name="path10976" d="M492.14,296.63c0,62.99-40.31,113.92-90.11,113.92s-90.11-50.93-90.11-113.92,40.31-113.92,90.11-113.92,90.11,50.93,90.11,113.92" fill="#d7d7d7"/>
    <path id="v" data-name="path10996" d="M688.85,306.53c0,46.19-43.71,83.51-97.43,83.51s-97.43-37.43-97.43-83.51,43.71-83.51,97.43-83.51,97.43,37.43,97.43,83.51" fill="#d7d7d7"/>
    <path id="w" data-name="path11016" d="M545.95,307.56c0,20.83-11.65,37.84-25.77,37.84s-25.77-16.91-25.77-37.84,11.65-37.84,25.77-37.84,25.77,16.91,25.77,37.84" fill="#a2a2a2" stroke="#a2a2a2" stroke-miterlimit="10"/>
    <path id="y" data-name="path11036" d="M344.91,221.06s25.77-47.84,75.47-31.24c49.69,16.6,53.1,45.36,65.98,111.76,12.89,66.4-45.78,6.29-45.78,6.29,0,0-7.42-57.12-40.52-73.61-33.09-16.6-55.16-11.03-55.16-12.99v-.21Z" fill="url(#x)" isolation="isolate" opacity=".8"/>
    <path id="z" data-name="path11056" d="M490.38,306.84c0,20.83-11.65,37.84-25.77,37.84s-25.77-16.91-25.77-37.84,11.65-37.84,25.77-37.84,25.77,16.91,25.77,37.84" fill="#a2a2a2" stroke="#a2a2a2" stroke-width="2.3"/>
    <path id="ab" data-name="path11076" d="M577.09,230.24s53.41-9.28,82.89,27.63c29.49,36.91,20.21,49.8,20.21,49.8l-40.52,1.86c.1,0-25.67-59.08-62.58-79.28h0Z" fill="url(#aa)" isolation="isolate" opacity=".8"/>
    <path id="ad" data-name="path11096" d="M509.77,345.91s48.46,28.66,90.83,23.09c42.37-5.57,62.27-21.24,79.39-38.04-4.33,20.1-44.23,51.86-79.18,53.71-34.95,1.86-91.14-36.91-91.14-38.77h.1Z" fill="url(#ac)" isolation="isolate" opacity=".8"/>
    <path id="af" data-name="path11116" d="M324.08,264.26s-.31,62.48,37.12,98.15c37.43,35.67,59.8,28.15,89.28,32.58-23.3,9.79-76.6,9.79-104.85-21.55-28.15-31.24-23.51-107.95-21.65-109.29h0l.1.1Z" fill="url(#ae)" isolation="isolate" opacity=".8"/>
    <path id="ag" data-name="path11136" d="M501.72,497.37h9.18c0-.1,9.9-11.03,44.23-46.91,22.99-26.08,30.21-43.2,30.21-43.2,0,0,4.74-17.22-17.73-34.85-29.28-14.64-44.23-14.64-65.98-14.43s-37.84,2.78-65.98,14.64c-28.15,11.86-23.51,35.88-23.51,35.88,0,0,2.06,11.44,36.39,47.32,34.33,35.88,53.2,41.55,53.2,41.55h0Z" fill="#d7d7d7"/>
    <path id="ai" data-name="path11156" d="M443.89,374.99s44.44,2.99,73.61,20.72c29.18,17.73,39.8,42.37,39.8,42.37,0,0,18.25-19.9,20.72-27.53,2.47-7.53,7.53-22.78-19.07-38.04-26.6-15.26-41.86-10.93-67.74-10.52-25.67.31-47.32,13.4-47.32,12.99h0Z" fill="url(#ah)"/>
    <g id="aj" data-name="g11196" isolation="isolate" opacity=".8">
      <path id="al" data-name="path11176" d="M387.28,853.89c0,36.08-44.54,65.47-99.49,65.47s-99.49-29.28-99.49-65.47,44.54-65.47,99.49-65.47,99.49,29.28,99.49,65.47" fill="url(#ak)"/>
    </g>
    <g id="am" data-name="g11236" isolation="isolate" opacity=".8">
      <path id="ao" data-name="path11216" d="M816.59,853.89c0,36.08-44.54,65.47-99.49,65.47s-99.49-29.28-99.49-65.47,44.54-65.47,99.49-65.47,99.49,29.28,99.49,65.47" fill="url(#an)"/>
    </g>
    <path id="aq" data-name="path11256" d="M44.69,598.82s154.75-99.49,178.77-117.95c24.02-18.56,1.86-77.43,1.86-77.43-16.19,22.17-34.13,43.2-53.41,62.68-27.63,22.17-49.8,40.52-92.17,75.47-42.37,42.48-34.95,59.08-34.95,57.22h-.1Z" fill="url(#ap)"/>
    <path id="as" data-name="path11276" d="M954.43,596.86s-154.75-99.49-178.77-117.95c-24.02-18.56-1.86-77.43-1.86-77.43,16.19,22.17,34.13,43.2,53.41,62.68,27.63,22.17,49.8,40.52,92.17,75.47,42.37,42.48,34.95,59.18,34.95,57.22h.1Z" fill="url(#ar)"/>
    <path id="au" data-name="path11316" d="M459.56,270.45s6.39,18.35,6.8,34.02c13.92-4.74,21.24-9.38,21.24-9.38,0,0-3.51-24.64-28.04-24.64h0Z" fill="url(#at)"/>
    <path id="aw" data-name="path11336" d="M445.02,283.44s-2.37,20.52,6.39,34.44c8.76,13.92,18.66,18.35,26.19,20.1-2.37,2.06-12.99,7.84-22.99-.31-9.9-8.04-14.85-15.77-14.85-26.5s1.86-23.71,5.26-27.73h0Z" fill="url(#av)"/>
    <path id="ay" data-name="path11356" d="M514.2,271.58s6.39,18.35,6.8,34.02c13.92-4.74,21.24-9.38,21.24-9.38,0,0-3.51-24.64-28.04-24.64h0Z" fill="url(#ax)"/>
    <path id="ba" data-name="path11376" d="M501.62,285.5s-2.37,20.52,6.39,34.44c8.76,13.92,15.87,18.09,23.4,19.85-2.37,2.06-10.2,8.09-20.2-.05-9.9-8.04-14.85-15.77-14.85-26.5s1.96-23.82,5.26-27.73h0Z" fill="url(#az)"/>
  </g>
  <g id="bb" data-name="Layer 1-26">
    <path id="bc" data-name="path11406" d="M225.52,427.16s103.72,107.53,273.52,104.85c82.69-1.34,190.63,1.44,300.12-113l7.42,8.76,54.33,47.43s-49.28,57.32-35.67,91.76c0,0,5.57,34.64,1.03,65.47-7.01,48.15-34.13,117.84-54.23,135.88,0,0-477.04-11.86-538.8,0,0,0-62.68-45.88-69.39-193.31,0,0-8.56-45.78-48.35-77.22l94.54-87.33,15.46,16.81v-.1Z" fill="#f4f4f4"/>
  </g>
  <path d="M612.29,670.53l-18.6-81.57c-.6-2.59-3.08-5.67-5.37-6.76l-75.31-36.31c-2.39-1.09-6.27-1.09-8.75,0l-75.31,36.31c-2.39,1.09-4.87,4.18-5.37,6.76l-12.63,55.41-5.97,26.06c-.6,2.59.3,6.37,1.89,8.46l52.03,65.36c1.69,2.09,5.07,3.78,7.76,3.78h83.66c2.59,0,6.07-1.69,7.76-3.78l52.03-65.36c1.69-2.09,2.49-5.77,1.89-8.46h.1v.1h.2ZM536.58,601.89c.8,1.79,1.29,3.58,1.29,5.47v26.76c0,1.49-.4,2.98-.9,4.58l-2.19,1.29-29.84-19.2,31.63-18.9h0ZM475.6,609.45c0-3.28,1.29-5.37,1.29-5.37l56.6,36.61-22.58,12.83-35.41-19.6v-24.37l.1-.1ZM458.89,676.2v-43.37c0-1.79.6-3.88,1.49-5.67l48.84,27.16h0l-48.75,27.85c-.99-1.89-1.69-3.98-1.69-5.77v-.1l.1-.1ZM558.17,679.88c-.7,2.19-1.79,4.08-5.57,7.16-3.78,3.08-37.5,21.59-37.5,21.59-3.48,1.89-8.95,1.89-12.43,0,0,0-31.93-17.91-37.5-21.59-.9-.6-3.18-2.69-3.78-3.48h0l73.42-41.98,22.98-13.03c.6,1.49.99,3.08.99,4.48,0,0,.2,32.33,0,43.37,0,.9-.2,2.19-.6,3.48h0Z" fill="#cbcbcb"/>
</svg>
