<?xml version="1.0" encoding="UTF-8"?>
<svg id="a" data-name="Layer 1" xmlns="http://www.w3.org/2000/svg" width="850.39" height="1109.97" xmlns:xlink="http://www.w3.org/1999/xlink" viewBox="0 0 850.39 1109.97">
  <defs>
    <linearGradient id="c" x1="248.57" y1="-1468.2" x2="175.6" y2="-1594.58" gradientTransform="translate(0 -1210.77) scale(1 -1)" gradientUnits="userSpaceOnUse">
      <stop offset="0" stop-color="#fff" stop-opacity="0"/>
      <stop offset=".12" stop-color="#c8d4e1" stop-opacity=".32"/>
      <stop offset=".25" stop-color="#95adc6" stop-opacity=".61"/>
      <stop offset=".37" stop-color="#7090b3" stop-opacity=".82"/>
      <stop offset=".46" stop-color="#5a7fa7" stop-opacity=".95"/>
      <stop offset=".52" stop-color="#5279a3"/>
    </linearGradient>
    <linearGradient id="d" x1="389.27" y1="-1657.07" x2="352.24" y2="-1721.22" gradientTransform="translate(0 -1210.77) scale(1 -1)" gradientUnits="userSpaceOnUse">
      <stop offset="0" stop-color="#fff" stop-opacity="0"/>
      <stop offset="0" stop-color="#fbfcfd" stop-opacity=".02"/>
      <stop offset=".08" stop-color="#ced9e5" stop-opacity=".28"/>
      <stop offset=".17" stop-color="#a8bbd0" stop-opacity=".5"/>
      <stop offset=".25" stop-color="#88a3c0" stop-opacity=".68"/>
      <stop offset=".35" stop-color="#7090b3" stop-opacity=".82"/>
      <stop offset=".44" stop-color="#5f83aa" stop-opacity=".92"/>
      <stop offset=".55" stop-color="#557ba4" stop-opacity=".98"/>
      <stop offset=".7" stop-color="#5279a3"/>
    </linearGradient>
    <linearGradient id="e" x1="-8400.59" y1="-1470.53" x2="-8344.08" y2="-1568.39" gradientTransform="translate(-7695.45 -1210.77) rotate(-180)" gradientUnits="userSpaceOnUse">
      <stop offset="0" stop-color="#fff" stop-opacity="0"/>
      <stop offset=".15" stop-color="#c8d4e1" stop-opacity=".32"/>
      <stop offset=".3" stop-color="#95adc6" stop-opacity=".61"/>
      <stop offset=".44" stop-color="#7090b3" stop-opacity=".82"/>
      <stop offset=".55" stop-color="#5a7fa7" stop-opacity=".95"/>
      <stop offset=".63" stop-color="#5279a3"/>
    </linearGradient>
    <linearGradient id="f" x1="-8218.22" y1="-1633.75" x2="-8179.35" y2="-1701.06" gradientTransform="translate(-7695.45 -1210.77) rotate(-180)" gradientUnits="userSpaceOnUse">
      <stop offset="0" stop-color="#fff" stop-opacity="0"/>
      <stop offset=".02" stop-color="#f5f7fa" stop-opacity=".05"/>
      <stop offset=".16" stop-color="#c4d1df" stop-opacity=".34"/>
      <stop offset=".29" stop-color="#9bb1c9" stop-opacity=".58"/>
      <stop offset=".42" stop-color="#7b98b8" stop-opacity=".76"/>
      <stop offset=".55" stop-color="#6487ac" stop-opacity=".89"/>
      <stop offset=".67" stop-color="#567ca5" stop-opacity=".97"/>
      <stop offset=".79" stop-color="#5279a3"/>
    </linearGradient>
    <linearGradient id="h" x1="-4108.69" y1="2869.47" x2="-4087.83" y2="2857.41" gradientTransform="translate(-2427.93 4569.2) rotate(90) scale(1 -1)" gradientUnits="userSpaceOnUse">
      <stop offset="0" stop-color="#fff" stop-opacity="0"/>
      <stop offset=".08" stop-color="#e5ebf1" stop-opacity=".12"/>
      <stop offset=".29" stop-color="#a6bacf" stop-opacity=".41"/>
      <stop offset=".47" stop-color="#7896b7" stop-opacity=".62"/>
      <stop offset=".63" stop-color="#5c80a8" stop-opacity=".75"/>
      <stop offset=".73" stop-color="#5279a3" stop-opacity=".8"/>
    </linearGradient>
    <linearGradient id="i" x1="-3897.86" y1="2869.47" x2="-3877" y2="2857.41" gradientTransform="translate(-2427.93 4569.2) rotate(90) scale(1 -1)" gradientUnits="userSpaceOnUse">
      <stop offset="0" stop-color="#fff" stop-opacity="0"/>
      <stop offset=".08" stop-color="#e5ebf1" stop-opacity=".12"/>
      <stop offset=".29" stop-color="#a6bacf" stop-opacity=".41"/>
      <stop offset=".47" stop-color="#7896b7" stop-opacity=".62"/>
      <stop offset=".63" stop-color="#5c80a8" stop-opacity=".75"/>
      <stop offset=".73" stop-color="#5279a3" stop-opacity=".8"/>
    </linearGradient>
    <linearGradient id="j" x1="-3945.16" y1="2869.47" x2="-3924.29" y2="2857.41" xlink:href="#i"/>
    <linearGradient id="k" x1="-3850.27" y1="2869.47" x2="-3829.41" y2="2857.41" gradientTransform="translate(-2427.93 4569.2) rotate(90) scale(1 -1)" gradientUnits="userSpaceOnUse">
      <stop offset="0" stop-color="#fff" stop-opacity="0"/>
      <stop offset=".08" stop-color="#e5ebf1" stop-opacity=".12"/>
      <stop offset=".29" stop-color="#a6bacf" stop-opacity=".41"/>
      <stop offset=".47" stop-color="#7896b7" stop-opacity=".62"/>
      <stop offset=".63" stop-color="#5c80a8" stop-opacity=".75"/>
      <stop offset=".73" stop-color="#5279a3" stop-opacity=".8"/>
    </linearGradient>
  </defs>
  <path d="M618.33,1017.57c-2.93,0-5.57.57-7.92,1.72-2.35,1.15-4.21,2.71-5.6,4.68v-5.92h-13.68v44.64h13.68v-24.24c0-2.99.77-5.31,2.32-6.96,1.54-1.65,3.62-2.48,6.24-2.48s4.69.83,6.24,2.48c1.54,1.65,2.32,3.97,2.32,6.96v24.24h13.6v-26.08c0-5.92-1.56-10.57-4.68-13.96-3.12-3.39-7.29-5.08-12.52-5.08ZM200.98,1018.37c2.61,0,4.95.61,7,1.84,2.05,1.23,3.64,3.01,4.76,5.36h15.04c-1.6-6.08-4.77-10.88-9.52-14.4-4.75-3.52-10.45-5.28-17.12-5.28-5.44,0-10.31,1.21-14.6,3.64-4.29,2.43-7.64,5.81-10.04,10.16-2.4,4.35-3.6,9.29-3.6,14.84s1.2,10.48,3.6,14.8,5.75,7.69,10.04,10.12c4.29,2.43,9.16,3.64,14.6,3.64,6.67,0,12.37-1.75,17.12-5.24s7.92-8.28,9.52-14.36h-15.04c-1.12,2.35-2.71,4.13-4.76,5.36-2.05,1.23-4.39,1.84-7,1.84-4.21,0-7.63-1.47-10.24-4.4-2.61-2.93-3.92-6.85-3.92-11.76s1.31-8.83,3.92-11.76c2.61-2.93,6.03-4.4,10.24-4.4ZM256.5,939.93l12.64,33.76h11.04l12.56-33.68v33.68h13.68v-56.16h-16.08l-15.6,38.88-15.76-38.88h-16.16v56.16h13.68v-33.76ZM321.21,971.49c2.99,1.89,6.29,2.84,9.92,2.84,3.15,0,5.91-.64,8.28-1.92,2.37-1.28,4.23-2.96,5.56-5.04v6.32h13.68v-44.64h-13.68v6.32c-1.28-2.08-3.11-3.76-5.48-5.04-2.38-1.28-5.13-1.92-8.28-1.92-3.68,0-7.01.93-10,2.8-2.99,1.87-5.35,4.53-7.08,8-1.73,3.47-2.6,7.49-2.6,12.08s.87,8.63,2.6,12.12c1.73,3.49,4.09,6.19,7.08,8.08ZM328.29,943.25c1.89-1.95,4.2-2.92,6.92-2.92s5.03.99,6.92,2.96c1.89,1.97,2.84,4.67,2.84,8.08s-.95,6.11-2.84,8.08c-1.89,1.97-4.2,2.96-6.92,2.96s-5.03-1-6.92-3-2.84-4.71-2.84-8.12.95-6.09,2.84-8.04ZM601.13,967.29v6.4h13.68v-59.2h-13.68v20.72c-1.39-2.08-3.29-3.73-5.72-4.96-2.43-1.23-5.11-1.84-8.04-1.84-3.68,0-7.01.93-10,2.8-2.99,1.87-5.35,4.53-7.08,8-1.73,3.47-2.6,7.49-2.6,12.08s.87,8.63,2.6,12.12c1.73,3.49,4.09,6.19,7.08,8.08,2.99,1.89,6.32,2.84,10,2.84,3.15,0,5.91-.64,8.28-1.92,2.37-1.28,4.2-2.99,5.48-5.12ZM584.45,959.41c-1.89-2-2.84-4.71-2.84-8.12s.95-6.09,2.84-8.04c1.89-1.95,4.2-2.92,6.92-2.92s5.03.99,6.92,2.96c1.89,1.97,2.84,4.67,2.84,8.08s-.95,6.11-2.84,8.08c-1.89,1.97-4.2,2.96-6.92,2.96s-5.03-1-6.92-3ZM447.93,882.53c3.41,1.87,7.3,2.8,11.68,2.8,3.62,0,6.91-.67,9.84-2,2.93-1.33,5.37-3.17,7.32-5.52,1.95-2.35,3.29-4.99,4.04-7.92h-14.56c-1.33,2.88-3.71,4.32-7.12,4.32-2.29,0-4.23-.73-5.8-2.2-1.57-1.47-2.47-3.59-2.68-6.36h30.96c.16-1.39.24-2.72.24-4,0-4.48-.95-8.4-2.84-11.76-1.89-3.36-4.52-5.95-7.88-7.76-3.36-1.81-7.2-2.72-11.52-2.72s-8.35.93-11.76,2.8c-3.41,1.87-6.07,4.53-7.96,8-1.89,3.47-2.84,7.52-2.84,12.16s.96,8.69,2.88,12.16c1.92,3.47,4.59,6.13,8,8ZM453.65,852.37c1.57-1.33,3.51-2,5.8-2s4.4.69,6,2.08c1.6,1.39,2.4,3.25,2.4,5.6h-17.12c.37-2.45,1.35-4.35,2.92-5.68ZM685.13,1039.65c0-4.48-.95-8.4-2.84-11.76-1.89-3.36-4.52-5.95-7.88-7.76-3.36-1.81-7.2-2.72-11.52-2.72s-8.35.93-11.76,2.8c-3.41,1.87-6.07,4.53-7.96,8-1.89,3.47-2.84,7.52-2.84,12.16s.96,8.69,2.88,12.16c1.92,3.47,4.59,6.13,8,8,3.41,1.87,7.3,2.8,11.68,2.8,3.62,0,6.91-.67,9.84-2,2.93-1.33,5.37-3.17,7.32-5.52,1.95-2.35,3.29-4.99,4.04-7.92h-14.56c-1.33,2.88-3.71,4.32-7.12,4.32-2.29,0-4.23-.73-5.8-2.2-1.57-1.47-2.47-3.59-2.68-6.36h30.96c.16-1.39.24-2.72.24-4ZM654.01,1036.05c.37-2.45,1.35-4.35,2.92-5.68,1.57-1.33,3.51-2,5.8-2s4.4.69,6,2.08c1.6,1.39,2.4,3.25,2.4,5.6h-17.12ZM401.13,878.45c1.33,2.03,3.19,3.68,5.56,4.96s5.11,1.92,8.2,1.92c3.68,0,7.01-.95,10-2.84,2.99-1.89,5.35-4.59,7.08-8.08,1.73-3.49,2.6-7.53,2.6-12.12s-.87-8.61-2.6-12.08c-1.73-3.47-4.09-6.13-7.08-8-2.99-1.87-6.32-2.8-10-2.8-3.15,0-5.89.64-8.24,1.92-2.35,1.28-4.19,2.96-5.52,5.04v-6.32h-13.68v65.92h13.68v-27.52ZM403.89,854.29c1.89-1.97,4.2-2.96,6.92-2.96s5.11.97,7,2.92c1.89,1.95,2.84,4.63,2.84,8.04s-.96,6.12-2.88,8.12-4.24,3-6.96,3-5.03-.99-6.92-2.96c-1.89-1.97-2.84-4.67-2.84-8.08s.95-6.11,2.84-8.08ZM338.61,881.57c4.4,2.45,9.24,3.68,14.52,3.68s10.11-1.23,14.48-3.68c4.37-2.45,7.84-5.88,10.4-10.28,2.56-4.4,3.84-9.35,3.84-14.84s-1.27-10.43-3.8-14.8c-2.54-4.37-6-7.79-10.4-10.24-4.4-2.45-9.24-3.68-14.52-3.68s-10.12,1.23-14.52,3.68c-4.4,2.45-7.89,5.87-10.48,10.24-2.59,4.37-3.88,9.31-3.88,14.8s1.29,10.44,3.88,14.84c2.59,4.4,6.08,7.83,10.48,10.28ZM342.29,844.53c2.69-2.93,6.31-4.4,10.84-4.4s8.07,1.48,10.76,4.44c2.69,2.96,4.04,6.92,4.04,11.88s-1.35,8.85-4.04,11.84c-2.7,2.99-6.28,4.48-10.76,4.48s-8.15-1.48-10.84-4.44-4.04-6.92-4.04-11.88,1.35-8.99,4.04-11.92ZM517.21,1062.69h13.68v-59.2h-13.68v59.2ZM380.25,934.97v-5.92h-13.68v44.64h13.68v-24.24c0-2.99.77-5.31,2.32-6.96,1.54-1.65,3.62-2.48,6.24-2.48s4.69.83,6.24,2.48c1.54,1.65,2.32,3.97,2.32,6.96v24.24h13.6v-26.08c0-5.92-1.56-10.57-4.68-13.96-3.12-3.39-7.29-5.08-12.52-5.08-2.93,0-5.57.57-7.92,1.72-2.35,1.15-4.21,2.71-5.6,4.68ZM569.53,1024.37c-1.28-2.08-3.11-3.76-5.48-5.04-2.38-1.28-5.13-1.92-8.28-1.92-3.68,0-7.01.93-10,2.8-2.99,1.87-5.35,4.53-7.08,8-1.73,3.47-2.6,7.49-2.6,12.08s.87,8.63,2.6,12.12c1.73,3.49,4.09,6.19,7.08,8.08,2.99,1.89,6.29,2.84,9.92,2.84,3.15,0,5.91-.64,8.28-1.92,2.37-1.28,4.23-2.96,5.56-5.04v6.32h13.68v-44.64h-13.68v6.32ZM566.69,1048.45c-1.89,1.97-4.2,2.96-6.92,2.96s-5.03-1-6.92-3-2.84-4.71-2.84-8.12.95-6.09,2.84-8.04c1.89-1.95,4.2-2.92,6.92-2.92s5.03.99,6.92,2.96c1.89,1.97,2.84,4.67,2.84,8.08s-.95,6.11-2.84,8.08ZM502.81,1008.85c-3.09-1.55-6.88-2.32-11.36-2.32h-22.16v56.16h13.68v-20.16h8.48c4.59,0,8.43-.83,11.52-2.48,3.09-1.65,5.39-3.83,6.88-6.52,1.49-2.69,2.24-5.67,2.24-8.92,0-3.52-.77-6.64-2.32-9.36-1.55-2.72-3.87-4.85-6.96-6.4ZM496.25,1029.81c-1.28,1.23-3.23,1.84-5.84,1.84h-7.44v-14.08h7.44c2.61,0,4.56.61,5.84,1.84,1.28,1.23,1.92,2.96,1.92,5.2s-.64,3.97-1.92,5.2ZM449.21,935.37c-1.28-2.08-3.11-3.76-5.48-5.04-2.38-1.28-5.13-1.92-8.28-1.92-3.68,0-7.01.93-10,2.8-2.99,1.87-5.35,4.53-7.08,8-1.73,3.47-2.6,7.49-2.6,12.08s.87,8.63,2.6,12.12c1.73,3.49,4.09,6.19,7.08,8.08,2.99,1.89,6.29,2.84,9.92,2.84,3.15,0,5.91-.64,8.28-1.92,2.37-1.28,4.23-2.96,5.56-5.04v6.32h13.68v-44.64h-13.68v6.32ZM446.37,959.45c-1.89,1.97-4.2,2.96-6.92,2.96s-5.03-1-6.92-3-2.84-4.71-2.84-8.12.95-6.09,2.84-8.04c1.89-1.95,4.2-2.92,6.92-2.92s5.03.99,6.92,2.96c1.89,1.97,2.84,4.67,2.84,8.08s-.95,6.11-2.84,8.08ZM552.81,972.33c2.93-1.33,5.37-3.17,7.32-5.52,1.95-2.35,3.29-4.99,4.04-7.92h-14.56c-1.33,2.88-3.71,4.32-7.12,4.32-2.29,0-4.23-.73-5.8-2.2-1.57-1.47-2.47-3.59-2.68-6.36h30.96c.16-1.39.24-2.72.24-4,0-4.48-.95-8.4-2.84-11.76-1.89-3.36-4.52-5.95-7.88-7.76-3.36-1.81-7.2-2.72-11.52-2.72s-8.35.93-11.76,2.8c-3.41,1.87-6.07,4.53-7.96,8-1.89,3.47-2.84,7.52-2.84,12.16s.96,8.69,2.88,12.16c1.92,3.47,4.59,6.13,8,8,3.41,1.87,7.3,2.8,11.68,2.8,3.62,0,6.91-.67,9.84-2ZM537.01,941.37c1.57-1.33,3.51-2,5.8-2s4.4.69,6,2.08c1.6,1.39,2.4,3.25,2.4,5.6h-17.12c.37-2.45,1.35-4.35,2.92-5.68ZM517.85,884.69h13.6v-26.08c0-5.92-1.56-10.57-4.68-13.96-3.12-3.39-7.29-5.08-12.52-5.08-2.93,0-5.57.57-7.92,1.72-2.35,1.15-4.21,2.71-5.6,4.68v-5.92h-13.68v44.64h13.68v-24.24c0-2.99.77-5.31,2.32-6.96,1.54-1.65,3.62-2.48,6.24-2.48s4.69.83,6.24,2.48c1.54,1.65,2.32,3.97,2.32,6.96v24.24ZM501.53,935.37c-1.28-2.08-3.11-3.76-5.48-5.04-2.38-1.28-5.13-1.92-8.28-1.92-3.68,0-7.01.93-10,2.8-2.99,1.87-5.35,4.53-7.08,8-1.73,3.47-2.6,7.49-2.6,12.08s.87,8.63,2.6,12.12c1.73,3.49,4.09,6.19,7.08,8.08,2.99,1.89,6.32,2.84,10,2.84,3.15,0,5.89-.65,8.24-1.96,2.35-1.31,4.19-3,5.52-5.08v6.32c0,3.57-.84,6.17-2.52,7.8-1.68,1.63-3.93,2.44-6.76,2.44-2.35,0-4.32-.49-5.92-1.48-1.6-.99-2.61-2.33-3.04-4.04h-13.52c.59,5.33,2.93,9.56,7.04,12.68,4.11,3.12,9.46,4.68,16.08,4.68,4.96,0,9.11-.99,12.44-2.96,3.33-1.97,5.81-4.63,7.44-7.96,1.63-3.33,2.44-7.05,2.44-11.16v-44.56h-13.68v6.32ZM498.69,959.45c-1.89,1.97-4.2,2.96-6.92,2.96s-5.03-1-6.92-3-2.84-4.71-2.84-8.12.95-6.09,2.84-8.04c1.89-1.95,4.2-2.92,6.92-2.92s5.03.99,6.92,2.96c1.89,1.97,2.84,4.67,2.84,8.08s-.95,6.11-2.84,8.08ZM385.21,1017.57c-2.93,0-5.6.71-8,2.12-2.4,1.41-4.4,3.35-6,5.8v-7.44h-13.68v44.64h13.68v-20.72c0-3.68.85-6.25,2.56-7.72,1.71-1.47,4.27-2.2,7.68-2.2h3.76v-14.48ZM306.33,1017.57c-2.93,0-5.57.57-7.92,1.72-2.35,1.15-4.21,2.71-5.6,4.68v-5.92h-13.68v44.64h13.68v-24.24c0-2.99.77-5.31,2.32-6.96,1.54-1.65,3.62-2.48,6.24-2.48s4.69.83,6.24,2.48c1.54,1.65,2.32,3.97,2.32,6.96v24.24h13.6v-26.08c0-5.92-1.56-10.57-4.68-13.96-3.12-3.39-7.29-5.08-12.52-5.08ZM434.73,1062.69h13.68v-59.2h-13.68v59.2ZM345.85,1050.21c-.64-.59-.96-1.55-.96-2.88v-17.92h8.96v-11.36h-8.96v-10.88h-13.68v10.88h-5.44v11.36h5.44v17.76c0,5.49,1.38,9.45,4.16,11.88,2.77,2.43,6.64,3.64,11.6,3.64h6.96v-11.6h-4.88c-1.49,0-2.56-.29-3.2-.88ZM420.09,1020.21c-3.52-1.87-7.47-2.8-11.84-2.8s-8.32.93-11.84,2.8c-3.52,1.87-6.29,4.55-8.32,8.04-2.03,3.49-3.04,7.53-3.04,12.12s1,8.69,3,12.16c2,3.47,4.75,6.13,8.24,8,3.49,1.87,7.43,2.8,11.8,2.8s8.33-.93,11.88-2.8c3.55-1.87,6.35-4.55,8.4-8.04,2.05-3.49,3.08-7.53,3.08-12.12s-1.01-8.63-3.04-12.12c-2.03-3.49-4.8-6.17-8.32-8.04ZM414.77,1048.61c-1.84,1.92-4.07,2.88-6.68,2.88s-4.79-.96-6.52-2.88-2.6-4.67-2.6-8.24.88-6.39,2.64-8.28c1.76-1.89,3.97-2.84,6.64-2.84s4.81.96,6.6,2.88c1.79,1.92,2.68,4.67,2.68,8.24s-.92,6.32-2.76,8.24ZM264.5,1020.21c-3.52-1.87-7.47-2.8-11.84-2.8s-8.32.93-11.84,2.8c-3.52,1.87-6.29,4.55-8.32,8.04-2.03,3.49-3.04,7.53-3.04,12.12s1,8.69,3,12.16c2,3.47,4.75,6.13,8.24,8,3.49,1.87,7.43,2.8,11.8,2.8s8.33-.93,11.88-2.8c3.55-1.87,6.35-4.55,8.4-8.04,2.05-3.49,3.08-7.53,3.08-12.12s-1.01-8.63-3.04-12.12c-2.03-3.49-4.8-6.17-8.32-8.04ZM259.17,1048.61c-1.84,1.92-4.07,2.88-6.68,2.88s-4.79-.96-6.52-2.88-2.6-4.67-2.6-8.24.88-6.39,2.64-8.28c1.76-1.89,3.97-2.84,6.64-2.84s4.81.96,6.6,2.88c1.79,1.92,2.68,4.67,2.68,8.24s-.92,6.32-2.76,8.24Z" fill="#fff"/>
  <g id="b" data-name="Layer 5">
    <path d="M174.7,258.25c3.12-29.1,29.24-53.97,64.89-50.14,35.65,3.83,50.58,30.17,47.46,59.28" fill="none" stroke="#fff" stroke-miterlimit="10" stroke-width="6.5"/>
    <path d="M695.98,256.18c-3.12-29.1-29.24-50.98-64.89-47.15-35.65,3.83-51.58,30.17-48.45,59.28" fill="none" stroke="#fff" stroke-miterlimit="10" stroke-width="6.5"/>
    <path d="M435.42,574.65l-22.25-102.18c-.3-1.37-1.48-2.35-2.88-2.39-11.8-.35-55.2-2.6-59.25-6.41l-61.51-57.87c-5.95-5.6-9.03-13.58-8.38-21.71,2.38-29.91,8.3-97.2,9.87-115.53.14-1.66-1.07-3.11-2.72-3.28h0l-113.99-11.62c-1.69-.17-3.18,1.07-3.34,2.75l-15.53,169.09c-.5,7.44,2.5,14.69,8.11,19.58l135.58,130.54c5.14,4.48,8.1,10.96,8.16,17.77l1.12,200.21c0,1.68,1.38,3.03,3.05,3.03l122.36-.47c1.69,0,3.04-1.38,3.03-3.06l-1.38-217.8c0-.21-.02-.42-.07-.63h.02Z" fill="#fff"/>
    <path d="M292.04,297.69l-146.15-13.9c-1.7-.16-3.2,1.09-3.35,2.78l-8.85,101.11c-.11,1.3,1.16,2.24,2.4,1.85l153.7-48.57c.82-.26,1.4-1,1.45-1.86l2.47-39.45c.06-1-.68-1.87-1.68-1.96h0Z" fill="#fff"/>
    <path d="M434.96,574.65l22.25-102.18c.3-1.37,1.48-2.35,2.88-2.39,11.8-.35,55.2-2.6,59.25-6.41l61.51-57.87c5.95-5.6,9.03-13.58,8.38-21.71-2.38-29.91-8.3-97.2-9.87-115.53-.14-1.66,1.07-3.11,2.72-3.28h0l113.99-11.62c1.69-.17,3.18,1.07,3.34,2.75l15.53,169.09c.5,7.44-2.5,14.69-8.11,19.58l-135.58,130.54c-5.14,4.48-8.1,10.96-8.16,17.77l-1.12,200.21c0,1.68-1.38,3.03-3.05,3.03l-122.36-.47c-1.69,0-3.04-1.38-3.03-3.06l1.38-217.8c0-.21.02-.42.07-.63h-.02Z" fill="#fff"/>
    <path d="M435.8,472.46l-94.98,40.59c-.79.34-1.67-.24-1.67-1.1v-86.17c0-.88.92-1.46,1.72-1.07l94.98,45.58c.92.45.89,1.76-.05,2.17Z" fill="#fff"/>
    <path d="M346.38,61.51c12.26-12.88,20.59-21.62,20.59-21.62,0,0-89,124.56-100.2,140.25-1.35,1.63-2.64,3.2-2.64,3.2-6.47,7.82-15.91,10.69-21.08,6.41-5.18-4.28-4.14-14.09,2.32-21.91,0,0,.66-.79,1.52-1.83,3.36-3.52,66.08-69.4,99.51-104.5h0Z" fill="#fff" stroke="#fff" stroke-miterlimit="10"/>
    <path d="M421.71,447.02s-60.6-17.79-60.95-58.65c-.07-7.89-23.59-12.78-23.59-12.78,0,0,1.29-45.8,4.67-59.01,6.12-23.89,26.05-63.86,82.8-63.86,52.6,0,70.11,37.17,73.57,59.23,4.64,29.61,5.76,78.72-11.58,119.3" fill="none" stroke="#fff" stroke-linecap="round" stroke-miterlimit="10" stroke-width="6.5"/>
    <path d="M291.99,297.64l-147.33-14.01c-1.04-.1-1.96.67-2.05,1.7l-8.95,102.25c-.12,1.33,1.16,2.35,2.43,1.95l153.8-48.66c.74-.23,1.26-.9,1.31-1.67l2.48-39.57c.06-1.01-.69-1.89-1.7-1.99h0Z" fill="url(#c)" isolation="isolate" opacity=".27"/>
    <path d="M436.09,472.29l-95.27,40.77c-.79.34-1.66-.24-1.66-1.09v-86.18c0-.75,1.04-1.39,1.72-1.07l95.24,45.71c.8.37.78,1.51-.02,1.86h0Z" fill="url(#d)" isolation="isolate" opacity=".42"/>
    <path d="M578.33,297.69l146.15-13.9c1.7-.16,3.2,1.09,3.35,2.78l8.85,101.11c.11,1.3-1.16,2.24-2.4,1.85l-153.7-48.57c-.82-.26-1.4-1-1.45-1.86l-2.47-39.45c-.06-1,.68-1.87,1.68-1.96h0Z" fill="#fff"/>
    <path d="M435.22,472.46l94.98,40.59c.79.34,1.67-.24,1.67-1.1v-86.17c0-.88-.92-1.46-1.72-1.07l-94.98,45.58c-.92.45-.89,1.76.05,2.17Z" fill="#fff"/>
    <path d="M578.39,297.64l147.33-14.01c1.04-.1,1.96.67,2.05,1.7l8.95,102.25c.12,1.33-1.16,2.35-2.43,1.95l-153.8-48.66c-.74-.23-1.26-.9-1.31-1.67l-2.48-39.57c-.06-1.01.69-1.89,1.7-1.99h0Z" fill="url(#e)" isolation="isolate" opacity=".27"/>
    <path d="M434.95,472.27l95.27,40.77c.79.34,1.66-.24,1.66-1.09v-86.18c0-.75-1.04-1.39-1.72-1.07l-95.24,45.71c-.8.37-.78,1.51.02,1.86h0Z" fill="url(#f)" isolation="isolate" opacity=".42"/>
  </g>
  <g id="g" data-name="Layer 7">
    <circle cx="155.78" cy="362.28" r="7.84" fill="#5279a3"/>
    <circle cx="712.15" cy="362.28" r="7.84" fill="#5279a3"/>
    <circle cx="435.51" cy="635.83" r="12.04" fill="#fff"/>
    <circle cx="435.51" cy="635.83" r="12.04" fill="#fff"/>
    <circle cx="435.51" cy="470.94" r="12.04" fill="#fff"/>
    <circle cx="435.51" cy="470.94" r="12.04" fill="url(#h)"/>
    <circle cx="435.51" cy="681.77" r="12.04" fill="#fff"/>
    <circle cx="435.51" cy="681.77" r="12.04" fill="url(#i)"/>
    <circle cx="435.51" cy="634.47" r="12.04" fill="url(#j)"/>
    <path d="M423.47,729.36c0-6.66,5.39-12.04,12.04-12.04s12.04,5.39,12.04,12.04-5.39,12.04-12.04,12.04-12.04-5.39-12.04-12.04Z" fill="#fff"/>
    <path d="M423.47,729.36c0-6.66,5.39-12.04,12.04-12.04s12.04,5.39,12.04,12.04-5.39,12.04-12.04,12.04-12.04-5.39-12.04-12.04Z" fill="url(#k)"/>
  </g>
</svg>
