<?xml version="1.0" encoding="UTF-8"?>
<svg xmlns="http://www.w3.org/2000/svg" width="978.36" height="197.6" viewBox="0 0 978.36 197.6">
  <g id="a" data-name="Layer 1">
    <circle cx="43.83" cy="149.47" r="8.71" fill="#fff"/>
    <circle cx="166.25" cy="149.47" r="8.71" fill="#fff"/>
  </g>
  <g id="b" data-name="Layer 2">
    <g>
      <rect x="84.01" y="126.15" width="17.67" height="0" transform="translate(-62.83 143.49) rotate(-60)" fill="#fff"/>
      <path d="M103.87,118.5l-8.84,15.31h71.71c4.91,0,9.3,2.27,12.17,5.82l-12.2-21.13h-62.84Z" fill="#fff"/>
      <path d="M169.82,165.2c-1,.2-2.03.31-3.08.31h-1.95c1.67.17,3.36.07,5.03-.31Z" fill="#fff"/>
      <path d="M173.2,180.14c-.12.03-.23.05-.35.07.12-.02.23-.05.35-.07Z" fill="#fff"/>
      <path d="M139.58,165.51h-69.46l-.06.11c-4.99,8.64-13.54,13.96-22.74,15.2h116.88c-9.89-.7-19.27-6.12-24.62-15.31Z" fill="#fff"/>
      <path d="M42.99,133.81h21.16l8.84-15.31h-30s0,0-.01,0l-12.31,21.33c2.87-3.66,7.33-6.02,12.33-6.02Z" fill="#fff"/>
      <polygon points="70.77 133.81 88.42 133.81 97.26 118.5 79.6 118.5 70.77 133.81" fill="#fff"/>
      <path d="M70.06,165.62l.06-.11h-23.97c-3.56.68-7.36.14-10.74-1.81l-.34-.2c-3.62-2.09-6.21-5.47-7.29-9.51-.65-2.43-.71-4.93-.19-7.32.46-2.55,1.54-4.89,3.08-6.85l12.31-21.33c-10.36,0-19.55,5.13-25.17,12.98l-1.72,2.98c-1.66,2.87-2.82,5.93-3.49,9.08-.37,1.92-.58,3.9-.58,5.93v.39c0,17.07,13.89,30.96,30.96,30.96h4.33c9.2-1.23,17.75-6.56,22.74-15.2Z" fill="#fff"/>
      <path d="M116.96,53.78l-8.81,15.26,8.84,15.31,14.95-25.9s.04-.07.05-.1l-2.64-4.57h-12.39Z" fill="#fff"/>
      <path d="M173.37,180.09c-.06.01-.12.03-.18.04.06-.01.12-.03.18-.04Z" fill="#fff"/>
      <path d="M182.4,149.85v-.39c0-3.72-1.31-7.14-3.49-9.83l1.32,2.29c4.32,7.48,1.75,17.07-5.73,21.39l-.34.19c-1.39.8-2.85,1.37-4.34,1.71,7.16-1.44,12.58-7.77,12.58-15.35Z" fill="#fff"/>
      <path d="M182.16,176.56c14.79-8.54,19.87-27.51,11.33-42.3l-1.79-3.09c-5.64-7.67-14.73-12.67-24.96-12.67h-.03l12.2,21.13c2.18,2.69,3.49,6.11,3.49,9.83v.39c0,7.58-5.41,13.91-12.58,15.35-1.67.38-3.37.47-5.03.31h-25.22c5.35,9.19,14.73,14.61,24.62,15.31h2.55c2.09,0,4.13-.21,6.1-.61.12-.02.23-.05.35-.07.06-.01.12-.03.18-.04,2.9-.67,5.74-1.78,8.45-3.34l.34-.19Z" fill="#fff"/>
      <path d="M117.73,33.76c.22.32.43.65.62.99l1.03,1.79c-.44-.99-.98-1.92-1.61-2.78h-.05Z" fill="#fff"/>
      <polygon points="113.67 90.07 104.84 74.77 96.05 89.98 104.89 105.29 113.67 90.07" fill="#fff"/>
      <path d="M178.37,33.76h-42.9s-17.68,0-17.68,0h0s-55.61,0-55.61,0c-.34,0-.67.03-1,.08-.4-2.26-2.34-3.99-4.7-4.07-4.06-7.31-11.86-12.26-20.81-12.26-13.14,0-23.8,10.66-23.8,23.8s10.66,23.8,23.8,23.8c8.98,0,16.8-4.98,20.85-12.32,2.59-.11,4.66-2.2,4.74-4.8.3.04.61.07.92.07h57.75s0,0,0,0h23.78s12.4,0,12.4,0v14.16h6.92v-8.28h7.13v8.28h6.92v-14.16h1.28c3.95,0,7.15-3.2,7.15-7.15s-3.2-7.15-7.15-7.15ZM35.58,53.59c-6.78,0-12.28-5.5-12.28-12.28s5.5-12.28,12.28-12.28,12.28,5.5,12.28,12.28-5.5,12.28-12.28,12.28Z" fill="#fff"/>
      <path d="M77.65,58.25l.06.1,12-20.79c1.2-3.4,3.56-6.42,6.93-8.36l.34-.19c2.46-1.42,5.15-2.09,7.8-2.09,1.99,0,3.95.38,5.79,1.11h21.59l-.54-.94c-.94-1.62-2-3.12-3.17-4.5-2.21-2.53-4.85-4.71-7.84-6.44l-.34-.2c-14.79-8.54-33.76-3.45-42.3,11.33l-2.07,3.59c-3.57,8.6-3.25,18.7,1.76,27.37Z" fill="#fff"/>
      <path d="M90.9,50.6c-2.37-4.11-2.66-8.87-1.2-13.03,1.2-3.4,3.56-6.42,6.93-8.36l.34-.19c2.46-1.42,5.15-2.09,7.8-2.09,1.99,0,3.95.38,5.79,1.11h21.59l-.54-.94c-.94-1.62-2-3.12-3.17-4.5-2.21-2.53-4.85-4.71-7.84-6.44l-.34-.2c-14.79-8.54-33.76-3.45-42.3,11.33l-2.07,3.59c-3.57,8.6-3.25,18.7,1.76,27.37l.06.1,17.04,29.52,14.38,24.9h17.67l-23.69-41.04-12.21-21.14Z" fill="#fff"/>
      <path d="M129.35,53.78l2.64,4.57c.85-1.48,1.56-3.01,2.15-4.57h-4.79Z" fill="#fff"/>
      <path d="M193.49,134.26l-1.79-3.09-44.68-77.39h-17.67l2.64,4.57c.42-.74.81-1.49,1.17-2.25-.36.76-.75,1.51-1.17,2.25l34.73,60.15,12.2,21.13c2.18,2.69,3.49,6.11,3.49,9.83v.39c0,7.58-5.41,13.91-12.58,15.35-1.67.38-3.37.47-5.03.31-4.84-.49-9.4-3.21-12.01-7.74l-10.53-18.23h-17.67l14.95,25.89s.04.06.05.09c5.35,9.19,14.73,14.61,24.62,15.31h2.55c2.09,0,4.13-.21,6.1-.61.12-.02.23-.05.35-.07.06-.01.12-.03.18-.04,2.9-.67,5.74-1.78,8.45-3.34l.34-.19c14.79-8.54,19.87-27.51,11.33-42.3Z" fill="#fff"/>
      <path d="M92.75,95.71l-35.95,62.26c-2.37,4.1-6.32,6.72-10.65,7.54-3.56.68-7.36.14-10.74-1.81l-.34-.2c-3.62-2.09-6.21-5.47-7.29-9.51-.65-2.43-.71-4.93-.19-7.32.46-2.55,1.54-4.89,3.08-6.85l12.31-21.33,34.73-60.15-.06-.1c-5-8.67-5.32-18.77-1.76-27.37l-58.08,100.6-1.72,2.98c-1.66,2.87-2.82,5.93-3.49,9.08-.37,1.92-.58,3.9-.58,5.93v.39c0,17.07,13.89,30.96,30.96,30.96h4.33c9.2-1.23,17.75-6.56,22.74-15.2l.06-.11,18.3-31.7,8.84-15.31,4.32-7.49-8.84-15.31Z" fill="#fff"/>
    </g>
    <path d="M329.73,150.22l-9.67-26.17h-14.33l17.03,40.42-9.6,21.3h13.8l26.25-61.72h-13.88l-9.6,26.17ZM295.53,125.99c-3.15-1.7-6.75-2.55-10.8-2.55s-7.83.88-11.03,2.62c-3.2,1.75-5.69,4.25-7.46,7.5-1.78,3.25-2.66,7.05-2.66,11.4s.9,8.15,2.7,11.4c1.8,3.25,4.3,5.75,7.5,7.5,3.2,1.75,6.85,2.62,10.95,2.62,3.4,0,6.47-.62,9.22-1.88,2.75-1.25,5.04-2.97,6.86-5.17,1.82-2.2,3.09-4.67,3.79-7.42h-13.65c-1.25,2.7-3.48,4.05-6.67,4.05-2.15,0-3.96-.69-5.44-2.06-1.48-1.37-2.31-3.36-2.51-5.96h29.03c.15-1.3.22-2.55.22-3.75,0-4.2-.89-7.88-2.66-11.03-1.78-3.15-4.24-5.57-7.39-7.28ZM276.41,140.92c.35-2.3,1.26-4.08,2.74-5.33,1.47-1.25,3.29-1.88,5.44-1.88s4.12.65,5.62,1.95c1.5,1.3,2.25,3.05,2.25,5.25h-16.05ZM383.06,63.17c0-2.8.72-4.97,2.18-6.53,1.45-1.55,3.4-2.33,5.85-2.33s4.4.78,5.85,2.33c1.45,1.55,2.18,3.73,2.18,6.53v22.72h12.75v-24.45c0-5.55-1.46-9.91-4.39-13.09-2.92-3.17-6.84-4.76-11.74-4.76-2.75,0-5.23.54-7.43,1.61-2.2,1.08-3.95,2.54-5.25,4.39v-5.55h-12.82v41.85h12.82v-22.72ZM915.7,125.99c-3.15-1.7-6.75-2.55-10.8-2.55s-7.83.88-11.03,2.62c-3.2,1.75-5.69,4.25-7.46,7.5-1.78,3.25-2.66,7.05-2.66,11.4s.9,8.15,2.7,11.4c1.8,3.25,4.3,5.75,7.5,7.5,3.2,1.75,6.85,2.62,10.95,2.62,3.4,0,6.47-.62,9.22-1.88,2.75-1.25,5.04-2.97,6.86-5.17,1.82-2.2,3.09-4.67,3.79-7.42h-13.65c-1.25,2.7-3.48,4.05-6.67,4.05-2.15,0-3.96-.69-5.44-2.06-1.48-1.37-2.31-3.36-2.51-5.96h29.03c.15-1.3.22-2.55.22-3.75,0-4.2-.89-7.88-2.66-11.03-1.78-3.15-4.24-5.57-7.39-7.28ZM896.57,140.92c.35-2.3,1.26-4.08,2.74-5.33,1.47-1.25,3.29-1.88,5.44-1.88s4.12.65,5.62,1.95c1.5,1.3,2.25,3.05,2.25,5.25h-16.05ZM814,129.97c-1.2-1.95-2.91-3.53-5.14-4.73-2.23-1.2-4.81-1.8-7.76-1.8-3.45,0-6.58.88-9.38,2.62-2.8,1.75-5.01,4.25-6.64,7.5-1.62,3.25-2.44,7.03-2.44,11.33s.81,8.09,2.44,11.36c1.62,3.28,3.84,5.8,6.64,7.58,2.8,1.78,5.9,2.66,9.3,2.66,2.95,0,5.54-.6,7.76-1.8,2.22-1.2,3.96-2.77,5.21-4.72v5.92h12.83v-41.85h-12.83v5.92ZM811.34,152.54c-1.78,1.85-3.94,2.77-6.49,2.77s-4.71-.94-6.49-2.81c-1.78-1.88-2.66-4.41-2.66-7.61s.89-5.71,2.66-7.54c1.77-1.83,3.94-2.74,6.49-2.74s4.71.93,6.49,2.78c1.77,1.85,2.66,4.38,2.66,7.58s-.89,5.73-2.66,7.58ZM286.68,80.04c1.25,1.9,2.99,3.45,5.21,4.65,2.22,1.2,4.79,1.8,7.69,1.8,3.45,0,6.57-.89,9.38-2.66,2.8-1.77,5.01-4.3,6.64-7.58,1.62-3.27,2.44-7.06,2.44-11.36s-.81-8.07-2.44-11.33c-1.63-3.25-3.84-5.75-6.64-7.5-2.8-1.75-5.92-2.62-9.38-2.62-2.95,0-5.53.6-7.72,1.8-2.2,1.2-3.93,2.78-5.18,4.73v-5.92h-12.82v61.8h12.82v-25.8ZM289.27,57.39c1.77-1.85,3.94-2.78,6.49-2.78s4.79.91,6.56,2.74c1.77,1.83,2.66,4.34,2.66,7.54s-.9,5.74-2.7,7.61-3.98,2.81-6.53,2.81-4.71-.92-6.49-2.77c-1.78-1.85-2.66-4.38-2.66-7.58s.89-5.72,2.66-7.58ZM950.57,125.58c-2.25,1.33-4.12,3.14-5.62,5.44v-6.97h-12.82v41.85h12.82v-19.42c0-3.45.8-5.86,2.4-7.24,1.6-1.38,4-2.06,7.2-2.06h3.52v-13.58c-2.75,0-5.25.66-7.5,1.99ZM353.81,45.99c-3.15-1.7-6.75-2.55-10.8-2.55s-7.83.88-11.03,2.62c-3.2,1.75-5.69,4.25-7.46,7.5-1.78,3.25-2.66,7.05-2.66,11.4s.9,8.15,2.7,11.4c1.8,3.25,4.3,5.75,7.5,7.5,3.2,1.75,6.85,2.62,10.95,2.62,3.4,0,6.47-.62,9.22-1.88,2.75-1.25,5.04-2.97,6.86-5.17,1.82-2.2,3.09-4.67,3.79-7.42h-13.65c-1.25,2.7-3.48,4.05-6.67,4.05-2.15,0-3.96-.69-5.44-2.06-1.48-1.37-2.31-3.36-2.51-5.96h29.03c.15-1.3.22-2.55.22-3.75,0-4.2-.89-7.88-2.66-11.03-1.78-3.15-4.24-5.57-7.39-7.28ZM334.68,60.92c.35-2.3,1.26-4.08,2.74-5.33,1.47-1.25,3.29-1.88,5.44-1.88s4.12.65,5.62,1.95c1.5,1.3,2.25,3.05,2.25,5.25h-16.05ZM228.07,82.97c4.12,2.3,8.66,3.45,13.61,3.45s9.47-1.15,13.58-3.45c4.1-2.3,7.35-5.51,9.75-9.64s3.6-8.76,3.6-13.91-1.19-9.78-3.56-13.88-5.62-7.3-9.75-9.6c-4.12-2.3-8.66-3.45-13.61-3.45s-9.49,1.15-13.61,3.45c-4.12,2.3-7.4,5.5-9.83,9.6-2.43,4.1-3.64,8.73-3.64,13.88s1.21,9.79,3.64,13.91c2.42,4.12,5.7,7.34,9.83,9.64ZM231.52,48.24c2.52-2.75,5.91-4.12,10.16-4.12s7.56,1.39,10.09,4.16c2.52,2.77,3.79,6.49,3.79,11.14s-1.26,8.3-3.79,11.1c-2.53,2.8-5.89,4.2-10.09,4.2s-7.64-1.39-10.16-4.16c-2.53-2.77-3.79-6.49-3.79-11.14s1.26-8.42,3.79-11.18ZM262.23,113.24h-15.07l-17.55,23.1v-23.1h-12.82v52.65h12.82v-23.25l17.7,23.25h15.67l-21.15-26.85,20.4-25.8ZM645.93,149.69l-14.78-36.45h-15.15v52.65h12.82v-31.65l11.85,31.65h10.35l11.78-31.58v31.58h12.83v-52.65h-15.08l-14.62,36.45ZM575.8,123.59c-2.75,0-5.23.54-7.43,1.61-2.2,1.08-3.95,2.54-5.25,4.39v-5.55h-12.82v41.85h12.82v-22.72c0-2.8.72-4.97,2.18-6.53,1.45-1.55,3.4-2.33,5.85-2.33s4.4.78,5.85,2.33c1.45,1.55,2.18,3.73,2.18,6.53v22.72h12.75v-24.45c0-5.55-1.46-9.91-4.39-13.09-2.92-3.17-6.84-4.76-11.74-4.76ZM535,105.81c-2.25,0-4.09.66-5.51,1.99-1.43,1.33-2.14,2.99-2.14,4.99s.71,3.59,2.14,4.91c1.42,1.33,3.26,1.99,5.51,1.99s4.01-.66,5.44-1.99c1.43-1.32,2.14-2.96,2.14-4.91s-.71-3.66-2.14-4.99c-1.42-1.32-3.24-1.99-5.44-1.99ZM760.53,123.59c-2.75,0-5.23.54-7.43,1.61-2.2,1.08-3.95,2.54-5.25,4.39v-5.55h-12.82v41.85h12.82v-22.72c0-2.8.72-4.97,2.18-6.53,1.45-1.55,3.4-2.33,5.85-2.33s4.4.78,5.85,2.33c1.45,1.55,2.18,3.73,2.18,6.53v22.72h12.75v-24.45c0-5.55-1.46-9.91-4.39-13.09-2.92-3.17-6.84-4.76-11.74-4.76ZM713.28,129.97c-1.2-1.95-2.91-3.53-5.14-4.73-2.23-1.2-4.81-1.8-7.76-1.8-3.45,0-6.58.88-9.38,2.62-2.8,1.75-5.01,4.25-6.64,7.5-1.62,3.25-2.44,7.03-2.44,11.33s.81,8.09,2.44,11.36c1.62,3.28,3.84,5.8,6.64,7.58,2.8,1.78,5.9,2.66,9.3,2.66,2.95,0,5.54-.6,7.76-1.8,2.22-1.2,3.96-2.77,5.21-4.72v5.92h12.83v-41.85h-12.83v5.92ZM710.61,152.54c-1.78,1.85-3.94,2.77-6.49,2.77s-4.71-.94-6.49-2.81c-1.78-1.88-2.66-4.41-2.66-7.61s.89-5.71,2.66-7.54c1.77-1.83,3.94-2.74,6.49-2.74s4.71.93,6.49,2.78c1.77,1.85,2.66,4.38,2.66,7.58s-.89,5.73-2.66,7.58ZM453.56,123.59c-2.8,0-5.33.55-7.58,1.65-2.25,1.1-4.03,2.58-5.33,4.43v-19.28h-12.82v55.5h12.82v-22.72c0-2.8.72-4.97,2.18-6.53,1.45-1.55,3.4-2.33,5.85-2.33s4.4.78,5.85,2.33c1.45,1.55,2.18,3.73,2.18,6.53v22.72h12.75v-24.45c0-5.55-1.45-9.91-4.35-13.09-2.9-3.17-6.75-4.76-11.55-4.76ZM528.55,165.89h12.82v-41.85h-12.82v41.85ZM864.55,129.97c-1.2-1.95-2.91-3.53-5.14-4.73-2.23-1.2-4.81-1.8-7.76-1.8-3.45,0-6.58.88-9.38,2.62-2.8,1.75-5.01,4.25-6.64,7.5-1.62,3.25-2.44,7.03-2.44,11.33s.81,8.09,2.44,11.36c1.62,3.28,3.84,5.8,6.64,7.58,2.8,1.78,5.92,2.66,9.38,2.66,2.95,0,5.52-.61,7.73-1.84,2.2-1.22,3.92-2.81,5.17-4.76v5.92c0,3.35-.79,5.79-2.36,7.31-1.58,1.52-3.69,2.29-6.34,2.29-2.2,0-4.05-.46-5.55-1.39-1.5-.93-2.45-2.19-2.85-3.79h-12.67c.55,5,2.75,8.96,6.6,11.89,3.85,2.92,8.87,4.39,15.07,4.39,4.65,0,8.54-.93,11.66-2.78,3.12-1.85,5.45-4.34,6.97-7.46,1.52-3.13,2.29-6.61,2.29-10.46v-41.77h-12.83v5.92ZM861.89,152.54c-1.78,1.85-3.94,2.77-6.49,2.77s-4.71-.94-6.49-2.81c-1.78-1.88-2.66-4.41-2.66-7.61s.89-5.71,2.66-7.54c1.77-1.83,3.94-2.74,6.49-2.74s4.71.93,6.49,2.78c1.77,1.85,2.66,4.38,2.66,7.58s-.89,5.73-2.66,7.58ZM395.21,124.34c2.45,0,4.64.58,6.56,1.72,1.92,1.15,3.41,2.83,4.46,5.03h14.1c-1.5-5.7-4.48-10.2-8.92-13.5-4.45-3.3-9.8-4.95-16.05-4.95-5.1,0-9.66,1.14-13.69,3.41-4.03,2.28-7.16,5.45-9.41,9.53-2.25,4.08-3.38,8.71-3.38,13.91s1.12,9.83,3.38,13.88c2.25,4.05,5.39,7.21,9.41,9.49,4.02,2.28,8.59,3.41,13.69,3.41,6.25,0,11.6-1.64,16.05-4.91,4.45-3.27,7.42-7.76,8.92-13.46h-14.1c-1.05,2.2-2.54,3.88-4.46,5.03s-4.11,1.72-6.56,1.72c-3.95,0-7.15-1.38-9.6-4.12-2.45-2.75-3.67-6.42-3.67-11.03s1.22-8.27,3.67-11.02c2.45-2.75,5.65-4.12,9.6-4.12ZM506.81,129.97c-1.2-1.95-2.91-3.53-5.14-4.73-2.23-1.2-4.81-1.8-7.76-1.8-3.45,0-6.58.88-9.38,2.62-2.8,1.75-5.01,4.25-6.64,7.5-1.62,3.25-2.44,7.03-2.44,11.33s.81,8.09,2.44,11.36c1.62,3.28,3.84,5.8,6.64,7.58,2.8,1.78,5.9,2.66,9.3,2.66,2.95,0,5.54-.6,7.76-1.8,2.22-1.2,3.96-2.77,5.21-4.72v5.92h12.83v-41.85h-12.83v5.92ZM504.14,152.54c-1.78,1.85-3.94,2.77-6.49,2.77s-4.71-.94-6.49-2.81c-1.78-1.88-2.66-4.41-2.66-7.61s.89-5.71,2.66-7.54c1.77-1.83,3.94-2.74,6.49-2.74s4.71.93,6.49,2.78c1.77,1.85,2.66,4.38,2.66,7.58s-.89,5.73-2.66,7.58Z" fill="#fff"/>
  </g>
</svg>
