<?xml version="1.0" encoding="UTF-8"?>
<svg xmlns="http://www.w3.org/2000/svg" width="365.61" height="344.24" xmlns:xlink="http://www.w3.org/1999/xlink" viewBox="0 0 365.61 344.24">
  <defs>
    <radialGradient id="b" cx="67.93" cy="272.28" fx="67.93" fy="272.28" r="16.42" gradientUnits="userSpaceOnUse">
      <stop offset="0" stop-color="#289152"/>
      <stop offset=".23" stop-color="#248b4e"/>
      <stop offset=".52" stop-color="#1a7c43"/>
      <stop offset=".84" stop-color="#0a6331"/>
      <stop offset="1" stop-color="#005426"/>
    </radialGradient>
    <radialGradient id="c" cx="298.62" fx="298.62" xlink:href="#b"/>
    <linearGradient id="e" x1="357.89" y1="228.35" x2="8" y2="228.35" gradientTransform="translate(277.91 -24.63) rotate(60)" gradientUnits="userSpaceOnUse">
      <stop offset="0" stop-color="#6584d6"/>
      <stop offset=".24" stop-color="#5373be"/>
      <stop offset=".66" stop-color="#395a99"/>
      <stop offset=".88" stop-color="#2f518b"/>
    </linearGradient>
    <linearGradient id="f" x1="164.42" y1="233.84" x2="322.48" y2="233.84" gradientUnits="userSpaceOnUse">
      <stop offset="0" stop-color="#289152"/>
      <stop offset=".25" stop-color="#268d50"/>
      <stop offset=".46" stop-color="#21834a"/>
      <stop offset=".66" stop-color="#187240"/>
      <stop offset=".84" stop-color="#0d5933"/>
      <stop offset="1" stop-color="#003f24"/>
    </linearGradient>
    <linearGradient id="g" x1="74.5" y1="316.94" x2="294.75" y2="316.94" gradientUnits="userSpaceOnUse">
      <stop offset=".11" stop-color="#003f24"/>
      <stop offset=".18" stop-color="#0e5c34"/>
      <stop offset=".25" stop-color="#197341"/>
      <stop offset=".33" stop-color="#21844a"/>
      <stop offset=".41" stop-color="#268d50"/>
      <stop offset=".52" stop-color="#289152"/>
      <stop offset=".6" stop-color="#258c4f"/>
      <stop offset=".68" stop-color="#1f8048"/>
      <stop offset=".77" stop-color="#156b3d"/>
      <stop offset=".86" stop-color="#074e2c"/>
      <stop offset=".89" stop-color="#014226"/>
    </linearGradient>
    <linearGradient id="h" x1="122.08" y1="232.86" x2="56.53" y2="233.99" xlink:href="#f"/>
    <linearGradient id="i" x1="357.89" x2="8" gradientTransform="matrix(1,0,0,1,0,0)" xlink:href="#e"/>
    <linearGradient id="j" x1="-4636.35" y1="32.99" x2="-4402.44" y2="32.99" gradientTransform="translate(-4278.6 363.03) rotate(-180)" gradientUnits="userSpaceOnUse">
      <stop offset="0" stop-color="#6584d6"/>
      <stop offset=".24" stop-color="#5373be"/>
      <stop offset=".66" stop-color="#395a99"/>
      <stop offset=".88" stop-color="#2f518b"/>
    </linearGradient>
    <linearGradient id="k" x1="-4636.35" y1="85.18" x2="-4402.44" y2="85.18" xlink:href="#j"/>
    <linearGradient id="l" x1="241.79" y1="160.27" x2="7.81" y2="160.27" gradientTransform="matrix(1,0,0,1,0,0)" xlink:href="#e"/>
    <linearGradient id="m" x1="7.69" y1="68.46" x2="334.91" y2="68.46" gradientUnits="userSpaceOnUse">
      <stop offset="0" stop-color="#289152"/>
      <stop offset=".11" stop-color="#268d50"/>
      <stop offset=".19" stop-color="#21834a"/>
      <stop offset=".27" stop-color="#187240"/>
      <stop offset=".35" stop-color="#0d5933"/>
      <stop offset=".42" stop-color="#003f24"/>
      <stop offset=".45" stop-color="#074e2c"/>
      <stop offset=".5" stop-color="#116438"/>
      <stop offset=".56" stop-color="#197641"/>
      <stop offset=".63" stop-color="#1e8248"/>
      <stop offset=".74" stop-color="#22894b"/>
      <stop offset="1" stop-color="#238b4d"/>
    </linearGradient>
    <linearGradient id="n" x1="241.79" y1="56.73" x2="7.81" y2="56.73" gradientTransform="matrix(1,0,0,1,0,0)" xlink:href="#e"/>
    <linearGradient id="o" x1="241.79" y1="96.27" x2="7.81" y2="96.27" gradientTransform="matrix(1,0,0,1,0,0)" xlink:href="#e"/>
    <linearGradient id="p" x1="-42.06" y1="249.04" x2="169.58" y2="163.54" gradientUnits="userSpaceOnUse">
      <stop offset="0" stop-color="#009f76"/>
      <stop offset=".47" stop-color="#009d76"/>
      <stop offset=".63" stop-color="#009676"/>
      <stop offset=".75" stop-color="#008a76"/>
      <stop offset=".85" stop-color="#007976"/>
      <stop offset=".93" stop-color="#006476"/>
    </linearGradient>
    <linearGradient id="q" x1="318.03" y1="213.55" x2="242.85" y2="89.94" gradientUnits="userSpaceOnUse">
      <stop offset=".3" stop-color="#009f76"/>
      <stop offset=".48" stop-color="#009b76"/>
      <stop offset=".63" stop-color="#009276"/>
      <stop offset=".75" stop-color="#008276"/>
      <stop offset=".87" stop-color="#006b76"/>
      <stop offset=".9" stop-color="#006476"/>
    </linearGradient>
    <linearGradient id="r" x1="326.11" y1="342.1" x2="254.89" y2="239.42" gradientUnits="userSpaceOnUse">
      <stop offset=".3" stop-color="#009f76"/>
      <stop offset=".48" stop-color="#009c76"/>
      <stop offset=".61" stop-color="#009276"/>
      <stop offset=".73" stop-color="#008276"/>
      <stop offset=".85" stop-color="#006c76"/>
      <stop offset=".88" stop-color="#006476"/>
    </linearGradient>
    <linearGradient id="s" x1="124.13" y1="12.34" x2="240.46" y2="47.37" gradientUnits="userSpaceOnUse">
      <stop offset=".35" stop-color="#009f76"/>
      <stop offset=".44" stop-color="#009776"/>
      <stop offset=".57" stop-color="#008276"/>
      <stop offset=".72" stop-color="#006476"/>
    </linearGradient>
    <linearGradient id="t" x1="124.14" y1="30.45" x2="230.52" y2="210.57" gradientUnits="userSpaceOnUse">
      <stop offset=".25" stop-color="#009f76"/>
      <stop offset=".49" stop-color="#009c76"/>
      <stop offset=".63" stop-color="#009476"/>
      <stop offset=".74" stop-color="#008676"/>
      <stop offset=".84" stop-color="#007276"/>
      <stop offset=".9" stop-color="#006476"/>
    </linearGradient>
  </defs>
  <g id="a" data-name="Layer 1">
    <circle cx="67.93" cy="272.28" r="16.42" fill="url(#b)"/>
    <circle cx="298.62" cy="272.28" r="16.42" fill="url(#c)"/>
  </g>
  <g id="d" data-name="Layer 2">
    <g>
      <rect x="143.63" y="228.35" width="33.31" height="0" transform="translate(-117.61 253) rotate(-60)" fill="url(#e)"/>
      <path d="M181.07,213.93l-16.65,28.84h135.13c9.25,0,17.52,4.29,22.93,10.97l-22.99-39.82h-118.42Z" fill="url(#f)"/>
      <path d="M305.35,301.94c-1.88.38-3.82.58-5.81.58h-3.68c3.14.32,6.34.14,9.48-.58Z" fill="#3771c8"/>
      <path d="M311.71,330.07c-.22.05-.44.09-.66.14.22-.04.44-.09.66-.14Z" fill="#3771c8"/>
      <path d="M248.35,302.51H117.47l-.12.21c-9.4,16.28-25.51,26.31-42.84,28.64h220.24c-18.64-1.32-36.32-11.53-46.4-28.84Z" fill="url(#g)"/>
      <path d="M66.35,242.77h39.87l16.65-28.84h-56.53s-.02,0-.02,0l-23.2,40.19c5.41-6.9,13.8-11.34,23.23-11.34Z" fill="url(#h)"/>
      <polygon points="118.68 242.77 151.96 242.77 168.61 213.93 135.33 213.93 118.68 242.77" fill="url(#i)"/>
      <path d="M117.35,302.72l.12-.21h-45.16c-6.71,1.28-13.88.26-20.24-3.42l-.64-.37c-6.82-3.94-11.71-10.3-13.75-17.91-1.23-4.58-1.33-9.29-.36-13.79.87-4.81,2.9-9.21,5.8-12.91l23.2-40.19c-19.53,0-36.84,9.67-47.43,24.46l-3.24,5.62c-3.12,5.41-5.31,11.17-6.57,17.1-.7,3.62-1.08,7.35-1.08,11.17v.73c0,32.17,26.17,58.35,58.35,58.35h8.16c17.33-2.32,33.45-12.36,42.84-28.64Z" fill="#3771c8"/>
      <path d="M205.72,91.96l-16.61,28.76,16.65,28.84,28.18-48.81c.04-.06.07-.12.1-.19l-4.98-8.62h-23.35Z" fill="#006476"/>
      <path d="M312.04,330c-.11.02-.22.05-.33.08.11-.03.22-.05.33-.08Z" fill="url(#j)"/>
      <path d="M329.05,273.01v-.73c0-7.01-2.47-13.46-6.57-18.53l2.49,4.31c8.13,14.09,3.29,32.17-10.8,40.3l-.63.37c-2.62,1.51-5.38,2.57-8.18,3.21,13.5-2.7,23.7-14.65,23.7-28.93Z" fill="url(#k)"/>
      <path d="M328.59,323.34c27.86-16.09,37.44-51.84,21.36-79.7l-3.37-5.83c-10.63-14.46-27.75-23.87-47.03-23.87h-.05l22.99,39.82c4.1,5.07,6.57,11.52,6.57,18.53v.73c0,14.28-10.2,26.22-23.7,28.93-3.14.72-6.34.89-9.48.58h-47.52c10.07,17.32,27.76,27.52,46.4,28.84h4.8c3.94,0,7.78-.4,11.5-1.14.22-.05.44-.09.66-.14.11-.02.22-.05.33-.08,5.46-1.27,10.82-3.35,15.92-6.29l.63-.37Z" fill="#3771c8"/>
      <path d="M207.19,54.23c.41.6.81,1.22,1.18,1.86l1.95,3.37c-.83-1.86-1.85-3.61-3.03-5.24h-.09Z" fill="#00baff"/>
      <polygon points="199.54 160.36 182.88 131.52 166.34 160.18 182.99 189.02 199.54 160.36" fill="url(#l)"/>
      <path d="M321.45,54.24h-80.85s-33.31,0-33.31,0h0s-104.79,0-104.79,0c-.64,0-1.26.06-1.88.15-.76-4.26-4.41-7.51-8.85-7.67-7.66-13.78-22.35-23.1-39.22-23.1-24.77,0-44.85,20.08-44.85,44.85s20.08,44.85,44.85,44.85c16.93,0,31.66-9.38,39.29-23.22,4.88-.21,8.79-4.15,8.92-9.05.57.07,1.15.13,1.74.13h108.83s0,0,0,0h44.82s23.37,0,23.37,0v26.68h13.04v-15.61h13.43v15.61h13.04v-26.68h2.42c7.44,0,13.46-6.03,13.46-13.46s-6.03-13.46-13.46-13.46ZM52.37,91.6c-12.78,0-23.14-10.36-23.14-23.14s10.36-23.14,23.14-23.14,23.14,10.36,23.14,23.14-10.36,23.14-23.14,23.14Z" fill="url(#m)"/>
      <path d="M131.65,100.39l.11.19,22.61-39.17c2.26-6.42,6.72-12.09,13.05-15.75l.63-.37c4.64-2.68,9.7-3.95,14.7-3.95,3.74,0,7.45.72,10.92,2.09h40.68l-1.02-1.77c-1.76-3.06-3.78-5.88-5.98-8.49-4.17-4.76-9.13-8.87-14.77-12.13l-.64-.37c-27.86-16.08-63.62-6.5-79.7,21.36l-3.91,6.77c-6.72,16.2-6.12,35.24,3.31,51.57Z" fill="url(#n)"/>
      <path d="M229.07,91.96l4.98,8.62c1.6-2.79,2.94-5.67,4.04-8.62h-9.02Z" fill="url(#o)"/>
      <path d="M160.1,170.97l-67.74,117.33c-4.46,7.73-11.92,12.67-20.06,14.22-6.71,1.28-13.88.26-20.24-3.42l-.64-.37c-6.82-3.94-11.71-10.3-13.75-17.91-1.23-4.58-1.33-9.29-.36-13.79.87-4.81,2.9-9.21,5.8-12.91l23.2-40.19,65.44-113.35-.11-.19c-9.43-16.33-10.03-35.37-3.31-51.57L18.89,238.39l-3.24,5.62c-3.12,5.41-5.31,11.17-6.57,17.1-.7,3.62-1.08,7.35-1.08,11.17v.73c0,32.17,26.17,58.35,58.35,58.35h8.16c17.33-2.32,33.45-12.36,42.84-28.64l.12-.21,34.49-59.74,16.65-28.84,8.15-14.11-16.65-28.84Z" fill="url(#p)"/>
    </g>
    <path d="M262.38,91.96h-33.31l4.98,8.62c.8-1.39,1.53-2.81,2.2-4.25-.67,1.44-1.41,2.85-2.2,4.25l56.82,98.41,34.7,2.41-63.19-109.45Z" fill="url(#q)"/>
    <g>
      <path d="M349.95,243.63l-3.37-5.83-21.01-36.4-34.7-2.41,8.62,14.94,22.99,39.82c4.1,5.07,6.57,11.52,6.57,18.53v.73c0,4.65-1.09,9.05-3.02,12.97l23.37,16.87c10.54-17.59,11.5-40.24.54-59.22Z" fill="#009f76"/>
      <path d="M326.03,285.98c-3.99,8.11-11.58,14.13-20.68,15.95-3.14.72-6.34.89-9.48.58-9.13-.92-17.71-6.05-22.64-14.59l-19.84-34.36h-33.31l28.16,48.78c.03.06.07.11.1.17,10.07,17.32,27.76,27.52,46.4,28.84h4.8c3.94,0,7.78-.4,11.5-1.14.22-.05.44-.09.66-.14.11-.02.22-.05.33-.08,5.46-1.27,10.82-3.35,15.92-6.29l.63-.37c8.88-5.13,15.89-12.25,20.82-20.48l-23.37-16.87Z" fill="url(#r)"/>
    </g>
    <g>
      <path d="M182.77,41.35c3.74,0,7.45.72,10.92,2.09h40.68l-1.02-1.77c-1.76-3.06-3.78-5.88-5.98-8.49-4.17-4.76-9.13-8.87-14.77-12.13l-.64-.37c-22.6-13.05-50.4-9.21-68.67,7.58l24.78,17.02c4.64-2.68,9.7-3.95,14.7-3.95Z" fill="url(#s)"/>
      <path d="M156.63,85.97c-4.47-7.75-5.01-16.71-2.25-24.55,2.26-6.42,6.72-12.09,13.05-15.75l.63-.37-24.78-17.02c-4.25,3.91-7.99,8.51-11.03,13.77l-3.91,6.77c-6.72,16.2-6.12,35.24,3.31,51.57l.11.19,32.12,55.63,27.09,46.92h33.31l-44.65-77.33-23-39.84Z" fill="url(#t)"/>
    </g>
  </g>
</svg>
