<?xml version="1.0" encoding="UTF-8" standalone="no"?>
<svg
   id="a"
   data-name="Layer 1"
   width="5438.83"
   height="749.28"
   viewBox="0 0 5438.83 749.28"
   version="1.1"
   sodipodi:docname="open-managed-control-planes-horizontal-color.svg"
   inkscape:export-filename="open-managed-control-planes-horizontal-color.png"
   inkscape:export-xdpi="96"
   inkscape:export-ydpi="96"
   inkscape:version="1.4.3 (0d15f75, 2025-12-25)"
   xmlns:inkscape="http://www.inkscape.org/namespaces/inkscape"
   xmlns:sodipodi="http://sodipodi.sourceforge.net/DTD/sodipodi-0.dtd"
   xmlns="http://www.w3.org/2000/svg"
   xmlns:svg="http://www.w3.org/2000/svg">
  <sodipodi:namedview
     id="namedview96"
     pagecolor="#ffffff"
     bordercolor="#000000"
     borderopacity="0.25"
     inkscape:showpageshadow="2"
     inkscape:pageopacity="0.0"
     inkscape:pagecheckerboard="0"
     inkscape:deskcolor="#d1d1d1"
     inkscape:zoom="0.034699977"
     inkscape:cx="2723.3447"
     inkscape:cy="360.23078"
     inkscape:current-layer="a" />
  <defs
     id="defs74">
    <linearGradient
       id="c"
       x1="-5288.02"
       y1="-404.06"
       x2="-4964"
       y2="-728.08"
       gradientTransform="translate(5417.06 -131.78) scale(1 -1)"
       gradientUnits="userSpaceOnUse">
      <stop
         offset="0"
         stop-color="#53b7f9"
         id="stop1" />
      <stop
         offset=".14"
         stop-color="#50b2f8"
         id="stop2" />
      <stop
         offset=".31"
         stop-color="#49a3f5"
         id="stop3" />
      <stop
         offset=".49"
         stop-color="#3e8bf2"
         id="stop4" />
      <stop
         offset=".49"
         stop-color="#3e8bf2"
         id="stop5" />
      <stop
         offset=".6"
         stop-color="#3a82f0"
         id="stop6" />
      <stop
         offset=".76"
         stop-color="#326cec"
         id="stop7" />
      <stop
         offset=".96"
         stop-color="#2348e5"
         id="stop8" />
      <stop
         offset=".99"
         stop-color="#2142e4"
         id="stop9" />
    </linearGradient>
    <linearGradient
       id="d"
       x1="8714.76"
       y1="-404.06"
       x2="9038.78"
       y2="-728.08"
       gradientTransform="translate(9387.48 -131.78) rotate(-180)"
       gradientUnits="userSpaceOnUse">
      <stop
         offset="0"
         stop-color="#53b7f9"
         id="stop10" />
      <stop
         offset=".14"
         stop-color="#50b2f8"
         id="stop11" />
      <stop
         offset=".31"
         stop-color="#49a3f5"
         id="stop12" />
      <stop
         offset=".49"
         stop-color="#3e8bf2"
         id="stop13" />
      <stop
         offset=".49"
         stop-color="#3e8bf2"
         id="stop14" />
      <stop
         offset=".6"
         stop-color="#3a82f0"
         id="stop15" />
      <stop
         offset=".76"
         stop-color="#326cec"
         id="stop16" />
      <stop
         offset=".96"
         stop-color="#2348e5"
         id="stop17" />
      <stop
         offset=".99"
         stop-color="#2142e4"
         id="stop18" />
    </linearGradient>
    <linearGradient
       id="e"
       x1="250.62"
       y1="-346.59"
       x2="191.87"
       y2="-448.36"
       gradientTransform="translate(0 -131.78) scale(1 -1)"
       gradientUnits="userSpaceOnUse">
      <stop
         offset="0"
         stop-color="#fff"
         stop-opacity="0"
         id="stop19" />
      <stop
         offset=".12"
         stop-color="#c8d4e1"
         stop-opacity=".32"
         id="stop20" />
      <stop
         offset=".25"
         stop-color="#95adc6"
         stop-opacity=".61"
         id="stop21" />
      <stop
         offset=".37"
         stop-color="#7090b3"
         stop-opacity=".82"
         id="stop22" />
      <stop
         offset=".46"
         stop-color="#5a7fa7"
         stop-opacity=".95"
         id="stop23" />
      <stop
         offset=".52"
         stop-color="#5279a3"
         id="stop24" />
    </linearGradient>
    <linearGradient
       id="f"
       x1="363.9"
       y1="-498.67"
       x2="334.09"
       y2="-550.32"
       gradientTransform="translate(0 -131.78) scale(1 -1)"
       gradientUnits="userSpaceOnUse">
      <stop
         offset="0"
         stop-color="#fff"
         stop-opacity="0"
         id="stop25" />
      <stop
         offset="0"
         stop-color="#fbfcfd"
         stop-opacity=".02"
         id="stop26" />
      <stop
         offset=".08"
         stop-color="#ced9e5"
         stop-opacity=".28"
         id="stop27" />
      <stop
         offset=".17"
         stop-color="#a8bbd0"
         stop-opacity=".5"
         id="stop28" />
      <stop
         offset=".25"
         stop-color="#88a3c0"
         stop-opacity=".68"
         id="stop29" />
      <stop
         offset=".35"
         stop-color="#7090b3"
         stop-opacity=".82"
         id="stop30" />
      <stop
         offset=".44"
         stop-color="#5f83aa"
         stop-opacity=".92"
         id="stop31" />
      <stop
         offset=".55"
         stop-color="#557ba4"
         stop-opacity=".98"
         id="stop32" />
      <stop
         offset=".7"
         stop-color="#5279a3"
         id="stop33" />
    </linearGradient>
    <linearGradient
       id="g"
       x1="14186.3"
       y1="-348.48"
       x2="14231.8"
       y2="-427.27"
       gradientTransform="translate(14804.54 -131.78) rotate(-180)"
       gradientUnits="userSpaceOnUse">
      <stop
         offset="0"
         stop-color="#fff"
         stop-opacity="0"
         id="stop34" />
      <stop
         offset=".15"
         stop-color="#c8d4e1"
         stop-opacity=".32"
         id="stop35" />
      <stop
         offset=".3"
         stop-color="#95adc6"
         stop-opacity=".61"
         id="stop36" />
      <stop
         offset=".44"
         stop-color="#7090b3"
         stop-opacity=".82"
         id="stop37" />
      <stop
         offset=".55"
         stop-color="#5a7fa7"
         stop-opacity=".95"
         id="stop38" />
      <stop
         offset=".63"
         stop-color="#5279a3"
         id="stop39" />
    </linearGradient>
    <linearGradient
       id="h"
       x1="14333.15"
       y1="-479.89"
       x2="14364.44"
       y2="-534.09"
       gradientTransform="translate(14804.54 -131.78) rotate(-180)"
       gradientUnits="userSpaceOnUse">
      <stop
         offset="0"
         stop-color="#fff"
         stop-opacity="0"
         id="stop40" />
      <stop
         offset=".02"
         stop-color="#f5f7fa"
         stop-opacity=".05"
         id="stop41" />
      <stop
         offset=".16"
         stop-color="#c4d1df"
         stop-opacity=".34"
         id="stop42" />
      <stop
         offset=".29"
         stop-color="#9bb1c9"
         stop-opacity=".58"
         id="stop43" />
      <stop
         offset=".42"
         stop-color="#7b98b8"
         stop-opacity=".76"
         id="stop44" />
      <stop
         offset=".55"
         stop-color="#6487ac"
         stop-opacity=".89"
         id="stop45" />
      <stop
         offset=".67"
         stop-color="#567ca5"
         stop-opacity=".97"
         id="stop46" />
      <stop
         offset=".79"
         stop-color="#5279a3"
         id="stop47" />
    </linearGradient>
    <linearGradient
       id="j"
       x1="6652.4"
       y1="-7876.58"
       x2="6669.2"
       y2="-7886.29"
       gradientTransform="translate(8282.58 -6141.31) rotate(90) scale(1 -1)"
       gradientUnits="userSpaceOnUse">
      <stop
         offset="0"
         stop-color="#fff"
         stop-opacity="0"
         id="stop48" />
      <stop
         offset=".08"
         stop-color="#e5ebf1"
         stop-opacity=".12"
         id="stop49" />
      <stop
         offset=".29"
         stop-color="#a6bacf"
         stop-opacity=".41"
         id="stop50" />
      <stop
         offset=".47"
         stop-color="#7896b7"
         stop-opacity=".62"
         id="stop51" />
      <stop
         offset=".63"
         stop-color="#5c80a8"
         stop-opacity=".75"
         id="stop52" />
      <stop
         offset=".73"
         stop-color="#5279a3"
         stop-opacity=".8"
         id="stop53" />
    </linearGradient>
    <linearGradient
       id="k"
       x1="6519.63"
       y1="-7876.58"
       x2="6536.43"
       y2="-7886.29"
       gradientTransform="translate(8282.58 -6141.31) rotate(90) scale(1 -1)"
       gradientUnits="userSpaceOnUse">
      <stop
         offset="0"
         stop-color="#fff"
         stop-opacity="0"
         id="stop54" />
      <stop
         offset=".08"
         stop-color="#e5ebf1"
         stop-opacity=".12"
         id="stop55" />
      <stop
         offset=".29"
         stop-color="#a6bacf"
         stop-opacity=".41"
         id="stop56" />
      <stop
         offset=".47"
         stop-color="#7896b7"
         stop-opacity=".62"
         id="stop57" />
      <stop
         offset=".63"
         stop-color="#5c80a8"
         stop-opacity=".75"
         id="stop58" />
      <stop
         offset=".73"
         stop-color="#5279a3"
         stop-opacity=".8"
         id="stop59" />
    </linearGradient>
    <linearGradient
       id="l"
       x1="6689.39"
       y1="-7876.58"
       x2="6706.19"
       y2="-7886.29"
       gradientTransform="translate(8282.58 -6141.31) rotate(90) scale(1 -1)"
       gradientUnits="userSpaceOnUse">
      <stop
         offset="0"
         stop-color="#fff"
         stop-opacity="0"
         id="stop60" />
      <stop
         offset=".08"
         stop-color="#e5ebf1"
         stop-opacity=".12"
         id="stop61" />
      <stop
         offset=".29"
         stop-color="#a6bacf"
         stop-opacity=".41"
         id="stop62" />
      <stop
         offset=".47"
         stop-color="#7896b7"
         stop-opacity=".62"
         id="stop63" />
      <stop
         offset=".63"
         stop-color="#5c80a8"
         stop-opacity=".75"
         id="stop64" />
      <stop
         offset=".73"
         stop-color="#5279a3"
         stop-opacity=".8"
         id="stop65" />
    </linearGradient>
    <linearGradient
       id="m"
       x1="6727.7"
       y1="-7876.58"
       x2="6744.5"
       y2="-7886.29"
       gradientTransform="translate(8282.58 -6141.31) rotate(90) scale(1 -1)"
       gradientUnits="userSpaceOnUse">
      <stop
         offset="0"
         stop-color="#fff"
         stop-opacity="0"
         id="stop66" />
      <stop
         offset=".08"
         stop-color="#e5ebf1"
         stop-opacity=".12"
         id="stop67" />
      <stop
         offset=".29"
         stop-color="#a6bacf"
         stop-opacity=".41"
         id="stop68" />
      <stop
         offset=".47"
         stop-color="#7896b7"
         stop-opacity=".62"
         id="stop69" />
      <stop
         offset=".63"
         stop-color="#5c80a8"
         stop-opacity=".75"
         id="stop70" />
      <stop
         offset=".73"
         stop-color="#5279a3"
         stop-opacity=".8"
         id="stop71" />
    </linearGradient>
    <linearGradient
       id="n"
       x1="-105.15"
       y1="-55.58"
       x2="4917.31"
       y2="711.29"
       gradientUnits="userSpaceOnUse">
      <stop
         offset="0"
         stop-color="#53b7f9"
         id="stop72" />
      <stop
         offset=".5"
         stop-color="#3a82f0"
         id="stop73" />
      <stop
         offset=".99"
         stop-color="#2142e4"
         id="stop74" />
    </linearGradient>
  </defs>
  <g
     id="b"
     data-name="Layer 5">
    <path
       d="M191.14,213.07c2.51-23.43,23.54-41.05,52.25-37.96,28.71,3.09,41.53,24.3,39.01,47.73"
       fill="none"
       stroke="#221f20"
       stroke-miterlimit="10"
       stroke-width="6.5"
       id="path74" />
    <path
       d="M610.86,213.81c-2.51-23.43-23.54-41.05-52.25-37.96-28.71,3.09-41.53,24.3-39.01,47.73"
       fill="none"
       stroke="#221f20"
       stroke-miterlimit="10"
       stroke-width="6.5"
       id="path75" />
    <polygon
       points="382.94 389.23 399.25 479.54 427.47 386.73 382.94 389.23"
       fill="#fff"
       id="polygon75" />
    <path
       d="M401.07,470.23l-17.92-82.27c-.24-1.1-1.19-1.9-2.32-1.93-9.5-.28-44.45-2.1-47.71-5.16l-49.52-46.6c-4.79-4.51-7.27-10.93-6.75-17.48,1.92-24.08,6.68-78.26,7.95-93.02.11-1.33-.86-2.51-2.19-2.64h0l-91.78-9.36c-1.36-.14-2.56.86-2.69,2.22l-12.5,136.15c-.4,5.99,2.02,11.83,6.53,15.76l109.16,105.11c4.14,3.61,6.52,8.82,6.57,14.31l.9,161.2c0,1.35,1.11,2.44,2.46,2.44l98.53-.38c1.36,0,2.45-1.11,2.44-2.47l-1.11-175.37c0-.17-.02-.34-.06-.51h.02Z"
       fill="url(#c)"
       id="path76" />
    <path
       d="M285.62,247.23l-117.68-11.19c-1.37-.13-2.58.88-2.7,2.24l-7.13,81.41c-.09,1.04.93,1.8,1.94,1.49l123.75-39.11c.66-.21,1.12-.8,1.16-1.49l1.99-31.77c.05-.8-.55-1.5-1.35-1.57h0Z"
       fill="#fff"
       id="path77" />
    <path
       d="M400.69,470.23l17.92-82.27c.24-1.1,1.19-1.9,2.32-1.93,9.5-.28,44.45-2.1,47.71-5.16l49.52-46.6c4.79-4.51,7.27-10.93,6.75-17.48-1.92-24.08-6.68-78.26-7.95-93.02-.11-1.33.86-2.51,2.19-2.64h0l91.78-9.36c1.36-.14,2.56.86,2.69,2.22l12.5,136.15c.4,5.99-2.02,11.83-6.53,15.76l-109.16,105.11c-4.14,3.61-6.52,8.82-6.57,14.31l-.9,161.2c0,1.35-1.11,2.44-2.46,2.44l-98.53-.38c-1.36,0-2.45-1.11-2.44-2.47l1.11-175.37c0-.17.02-.34.06-.51h-.02Z"
       fill="url(#d)"
       id="path78" />
    <path
       d="M401.37,387.95l-76.48,32.68c-.63.27-1.34-.19-1.34-.88v-69.38c0-.71.74-1.17,1.38-.86l76.48,36.7c.74.36.72,1.41-.04,1.74Z"
       fill="#fff"
       id="path79" />
    <path
       d="M329.37,57.07c9.87-10.37,16.57-17.41,16.57-17.41,0,0-71.66,100.29-80.68,112.92-1.08,1.31-2.13,2.58-2.13,2.58-5.21,6.3-12.81,8.6-16.98,5.16-4.17-3.45-3.33-11.34,1.87-17.64,0,0,.53-.63,1.22-1.47,2.71-2.84,53.2-55.88,80.13-84.14h0Z"
       fill="#221f20"
       stroke="#221f20"
       stroke-miterlimit="10"
       id="path80" />
    <path
       d="M390.03,367.47s-48.79-14.33-49.07-47.23c-.06-6.36-18.99-10.29-18.99-10.29,0,0,1.04-36.88,3.76-47.52,4.93-19.23,20.98-51.42,66.67-51.42,42.35,0,56.45,29.93,59.24,47.69,3.74,23.84,4.64,63.38-9.33,96.06"
       fill="none"
       stroke="#221f20"
       stroke-linecap="round"
       stroke-miterlimit="10"
       stroke-width="6.5"
       id="path81" />
    <path
       d="M285.58,247.19l-118.63-11.28c-.84-.08-1.57.54-1.65,1.37l-7.21,82.33c-.1,1.07.93,1.9,1.96,1.57l123.83-39.18c.59-.18,1.01-.72,1.05-1.34l2-31.86c.05-.81-.55-1.52-1.37-1.6h0Z"
       fill="url(#e)"
       isolation="isolate"
       opacity=".27"
       id="path82" />
    <path
       d="M401.61,387.82l-76.71,32.83c-.63.27-1.33-.19-1.33-.88v-69.39c0-.6.84-1.12,1.38-.86l76.69,36.81c.64.3.63,1.21-.02,1.49h0Z"
       fill="url(#f)"
       isolation="isolate"
       opacity=".42"
       id="path83" />
    <path
       d="M516.14,247.23l117.68-11.19c1.37-.13,2.58.88,2.7,2.24l7.13,81.41c.09,1.04-.93,1.8-1.94,1.49l-123.75-39.11c-.66-.21-1.12-.8-1.16-1.49l-1.99-31.77c-.05-.8.55-1.5,1.35-1.57h0Z"
       fill="#fff"
       id="path84" />
    <path
       d="M400.91,387.95l76.48,32.68c.63.27,1.34-.19,1.34-.88v-69.38c0-.71-.74-1.17-1.38-.86l-76.48,36.7c-.74.36-.72,1.41.04,1.74Z"
       fill="#fff"
       id="path85" />
    <path
       d="M516.19,247.19l118.63-11.28c.84-.08,1.57.54,1.65,1.37l7.21,82.33c.1,1.07-.93,1.9-1.96,1.57l-123.83-39.18c-.59-.18-1.01-.72-1.05-1.34l-2-31.86c-.05-.81.55-1.52,1.37-1.6h0Z"
       fill="url(#g)"
       isolation="isolate"
       opacity=".27"
       id="path86" />
    <path
       d="M400.68,387.8l76.71,32.83c.63.27,1.33-.19,1.33-.88v-69.39c0-.6-.84-1.12-1.38-.86l-76.69,36.81c-.64.3-.63,1.21.02,1.49h0Z"
       fill="url(#h)"
       isolation="isolate"
       opacity=".42"
       id="path87" />
  </g>
  <g
     id="i"
     data-name="Layer 7">
    <circle
       cx="175.91"
       cy="299.24"
       r="6.31"
       fill="#5279a3"
       id="circle87" />
    <circle
       cx="623.89"
       cy="299.24"
       r="6.31"
       fill="#5279a3"
       id="circle88" />
    <circle
       cx="401.14"
       cy="519.49"
       r="9.7"
       fill="#fff"
       id="circle89" />
    <circle
       cx="401.14"
       cy="519.49"
       r="9.7"
       fill="url(#j)"
       id="circle90" />
    <circle
       cx="401.14"
       cy="386.73"
       r="9.7"
       fill="#fff"
       id="circle91" />
    <circle
       cx="401.14"
       cy="386.73"
       r="9.7"
       fill="url(#k)"
       id="circle92" />
    <circle
       cx="401.14"
       cy="556.48"
       r="9.7"
       fill="#fff"
       id="circle93" />
    <circle
       cx="401.14"
       cy="556.48"
       r="9.7"
       fill="url(#l)"
       id="circle94" />
    <path
       d="M391.44,594.8c0-5.36,4.34-9.7,9.7-9.7s9.7,4.34,9.7,9.7-4.34,9.7-9.7,9.7-9.7-4.34-9.7-9.7Z"
       fill="#fff"
       id="path94" />
    <path
       d="M391.44,594.8c0-5.36,4.34-9.7,9.7-9.7s9.7,4.34,9.7,9.7-4.34,9.7-9.7,9.7-9.7-4.34-9.7-9.7Z"
       fill="url(#m)"
       id="path95" />
  </g>
  <rect
     x="677.06"
     y="564.34"
     width="3.13"
     height="0"
     fill="none"
     id="rect95" />
  <path
     d="M2512.05,357.06c-5.21-8.47-12.65-15.31-22.31-20.52-9.67-5.21-20.91-7.82-33.72-7.82-14.99,0-28.56,3.8-40.72,11.4-12.17,7.6-21.77,18.46-28.83,32.58-7.06,14.12-10.59,30.51-10.59,49.19s3.53,35.13,10.59,49.35c7.05,14.23,16.66,25.2,28.83,32.9,12.16,7.71,25.62,11.56,40.39,11.56,12.81,0,24.05-2.61,33.72-7.82,9.66-5.21,17.21-12.05,22.64-20.52v25.74h55.71v-181.78h-55.71v25.74ZM2500.49,455.12c-7.71,8.04-17.1,12.05-28.18,12.05s-20.47-4.07-28.18-12.22c-7.71-8.14-11.56-19.16-11.56-33.06s3.85-24.81,11.56-32.74c7.71-7.93,17.1-11.89,28.18-11.89s20.47,4.02,28.18,12.05c7.71,8.04,11.56,19.01,11.56,32.9s-3.86,24.87-11.56,32.9ZM1334.43,339.79c-13.68-7.38-29.32-11.08-46.91-11.08s-33.99,3.8-47.89,11.4c-13.9,7.6-24.71,18.46-32.41,32.58-7.71,14.12-11.56,30.62-11.56,49.52s3.91,35.4,11.73,49.52c7.82,14.12,18.68,24.98,32.58,32.58,13.9,7.6,29.75,11.4,47.56,11.4,14.77,0,28.12-2.71,40.07-8.14,11.94-5.43,21.88-12.92,29.81-22.48,7.92-9.55,13.41-20.3,16.45-32.25h-59.29c-5.43,11.73-15.1,17.59-28.99,17.59-9.34,0-17.21-2.98-23.62-8.96-6.41-5.97-10.05-14.6-10.91-25.9h126.07c.65-5.64.98-11.08.98-16.29,0-18.24-3.86-34.21-11.56-47.89-7.71-13.68-18.41-24.21-32.09-31.6ZM1251.36,404.62c1.52-9.99,5.48-17.7,11.89-23.13,6.4-5.43,14.28-8.14,23.62-8.14s17.92,2.83,24.43,8.47c6.52,5.65,9.77,13.25,9.77,22.8h-69.71ZM1510.02,329.37c-11.95,0-22.7,2.34-32.25,7-9.56,4.67-17.16,11.02-22.8,19.06v-24.11h-55.71v181.78h55.71v-98.71c0-12.16,3.15-21.61,9.45-28.34,6.3-6.73,14.77-10.1,25.41-10.1s19.11,3.37,25.41,10.1c6.3,6.73,9.45,16.18,9.45,28.34v98.71h55.38v-106.2c0-24.11-6.35-43.05-19.06-56.85-12.71-13.79-29.7-20.69-50.98-20.69ZM2725.09,357.06c-5.21-8.47-12.65-15.31-22.31-20.52-9.67-5.21-20.91-7.82-33.72-7.82-14.99,0-28.56,3.8-40.72,11.4-12.17,7.6-21.77,18.46-28.83,32.58-7.06,14.12-10.59,30.51-10.59,49.19s3.53,35.13,10.59,49.35c7.05,14.23,16.66,25.2,28.83,32.9,12.16,7.71,25.74,11.56,40.72,11.56,12.81,0,23.99-2.66,33.55-7.98,9.55-5.32,17.05-12.22,22.48-20.69v25.73c0,14.55-3.42,25.13-10.26,31.76-6.84,6.62-16.02,9.94-27.53,9.94-9.56,0-17.59-2.01-24.11-6.03-6.52-4.02-10.64-9.5-12.38-16.45h-55.05c2.39,21.71,11.94,38.93,28.67,51.63,16.72,12.71,38.55,19.06,65.48,19.06,20.2,0,37.08-4.02,50.66-12.05,13.57-8.04,23.67-18.84,30.3-32.41,6.62-13.58,9.94-28.72,9.94-45.44v-181.45h-55.71v25.74ZM2713.53,455.12c-7.71,8.04-17.1,12.05-28.18,12.05s-20.47-4.07-28.18-12.22c-7.71-8.14-11.56-19.16-11.56-33.06s3.85-24.81,11.56-32.74c7.71-7.93,17.1-11.89,28.18-11.89s20.47,4.02,28.18,12.05c7.71,8.04,11.56,19.01,11.56,32.9s-3.86,24.87-11.56,32.9ZM2286.3,329.37c-11.95,0-22.7,2.34-32.25,7-9.56,4.67-17.16,11.02-22.8,19.06v-24.11h-55.71v181.78h55.71v-98.71c0-12.16,3.15-21.61,9.45-28.34,6.3-6.73,14.77-10.1,25.41-10.1s19.11,3.37,25.41,10.1c6.3,6.73,9.45,16.18,9.45,28.34v98.71h55.38v-106.2c0-24.11-6.35-43.05-19.06-56.85-12.71-13.79-29.7-20.69-50.98-20.69ZM913.07,296.14c-17.92-9.99-37.62-14.99-59.12-14.99s-41.21,5-59.13,14.99c-17.92,9.99-32.14,23.89-42.67,41.7-10.54,17.81-15.8,37.9-15.8,60.27s5.26,42.51,15.8,60.43c10.53,17.92,24.76,31.87,42.67,41.86,17.92,9.99,37.62,14.99,59.13,14.99s41.15-4.99,58.96-14.99c17.8-9.99,31.92-23.94,42.35-41.86,10.42-17.92,15.64-38.06,15.64-60.43s-5.16-42.46-15.47-60.27c-10.32-17.8-24.43-31.71-42.35-41.7ZM897.75,446.32c-10.97,12.17-25.57,18.24-43.81,18.24s-33.18-6.03-44.14-18.08c-10.97-12.05-16.45-28.18-16.45-48.38s5.48-36.59,16.45-48.54c10.96-11.94,25.68-17.92,44.14-17.92s32.85,6.03,43.81,18.08c10.96,12.05,16.45,28.18,16.45,48.38s-5.49,36.05-16.45,48.21ZM2087.59,357.06c-5.21-8.47-12.65-15.31-22.31-20.52-9.67-5.21-20.91-7.82-33.72-7.82-14.99,0-28.56,3.8-40.72,11.4-12.17,7.6-21.77,18.46-28.83,32.58-7.06,14.12-10.59,30.51-10.59,49.19s3.53,35.13,10.59,49.35c7.05,14.23,16.66,25.2,28.83,32.9,12.16,7.71,25.62,11.56,40.39,11.56,12.81,0,24.05-2.61,33.72-7.82,9.66-5.21,17.21-12.05,22.64-20.52v25.74h55.71v-181.78h-55.71v25.74ZM2076.03,455.12c-7.71,8.04-17.1,12.05-28.18,12.05s-20.47-4.07-28.18-12.22c-7.71-8.14-11.56-19.16-11.56-33.06s3.85-24.81,11.56-32.74c7.71-7.93,17.1-11.89,28.18-11.89s20.47,4.02,28.18,12.05c7.71,8.04,11.56,19.01,11.56,32.9s-3.86,24.87-11.56,32.9ZM1801.57,442.74l-64.17-158.32h-65.8v228.68h55.71v-137.47l51.47,137.47h44.96l51.14-137.15v137.15h55.71v-228.68h-65.48l-63.52,158.32ZM1146.15,340.12c-12.17-7.6-25.74-11.4-40.72-11.4-12.82,0-24,2.61-33.55,7.82-9.56,5.21-17.05,12.05-22.48,20.52v-25.74h-55.71v268.43h55.71v-112.06c5.43,8.26,12.97,14.98,22.64,20.2,9.66,5.21,20.79,7.82,33.39,7.82,14.99,0,28.55-3.85,40.72-11.56,12.16-7.71,21.77-18.68,28.83-32.9,7.05-14.22,10.59-30.67,10.59-49.35s-3.53-35.07-10.59-49.19c-7.06-14.11-16.67-24.97-28.83-32.58ZM1117.15,454.95c-7.82,8.14-17.27,12.22-28.34,12.22s-20.47-4.02-28.18-12.05c-7.71-8.03-11.56-19-11.56-32.9s3.85-24.86,11.56-32.9c7.71-8.03,17.1-12.05,28.18-12.05s20.79,3.96,28.5,11.89c7.71,7.93,11.56,18.84,11.56,32.74s-3.91,24.92-11.73,33.06ZM4276.67,340.12c-14.33-7.6-30.41-11.4-48.21-11.4s-33.88,3.8-48.21,11.4c-14.33,7.6-25.63,18.52-33.88,32.74-8.26,14.23-12.38,30.68-12.38,49.35s4.07,35.4,12.22,49.52c8.14,14.12,19.33,24.98,33.55,32.58,14.22,7.6,30.24,11.4,48.05,11.4s33.93-3.8,48.38-11.4c14.44-7.6,25.84-18.51,34.21-32.74,8.36-14.22,12.54-30.67,12.54-49.35s-4.13-35.13-12.38-49.35c-8.26-14.22-19.55-25.13-33.88-32.74ZM4255.01,455.77c-7.49,7.82-16.56,11.73-27.2,11.73s-19.49-3.91-26.55-11.73c-7.06-7.82-10.59-19-10.59-33.55s3.58-26,10.75-33.72c7.17-7.71,16.18-11.57,27.04-11.57s19.6,3.91,26.88,11.73c7.27,7.82,10.91,19.01,10.91,33.55s-3.75,25.74-11.24,33.55ZM4336.29,513.1h55.71v-241.06h-55.71v241.06ZM4672.14,513.1h55.71v-241.06h-55.71v241.06ZM4613.51,293.86c-12.6-6.3-28.02-9.45-46.26-9.45h-90.24v228.68h55.71v-82.09h34.53c18.67,0,34.31-3.36,46.91-10.1,12.59-6.73,21.93-15.58,28.02-26.55,6.08-10.96,9.12-23.07,9.12-36.32,0-14.33-3.15-27.04-9.45-38.11-6.3-11.08-15.75-19.76-28.34-26.06ZM4586.79,379.21c-5.21,5-13.14,7.49-23.78,7.49h-30.3v-57.33h30.3c10.64,0,18.57,2.5,23.78,7.49,5.21,5,7.82,12.05,7.82,21.17s-2.61,16.18-7.82,21.17ZM5355.91,419.28c0-18.24-3.86-34.21-11.56-47.89-7.71-13.68-18.41-24.21-32.09-31.6-13.68-7.38-29.32-11.08-46.91-11.08s-33.99,3.8-47.89,11.4c-13.9,7.6-24.71,18.46-32.41,32.58-7.71,14.12-11.56,30.62-11.56,49.52s3.91,35.4,11.73,49.52c7.82,14.12,18.68,24.98,32.58,32.58,13.9,7.6,29.75,11.4,47.56,11.4,14.77,0,28.12-2.71,40.07-8.14,11.94-5.43,21.88-12.92,29.81-22.48,7.92-9.55,13.41-20.3,16.45-32.25h-59.29c-5.43,11.73-15.1,17.59-28.99,17.59-9.34,0-17.21-2.98-23.62-8.96-6.41-5.97-10.05-14.6-10.91-25.9h126.07c.65-5.64.98-11.08.98-16.29ZM5229.19,404.62c1.52-9.99,5.48-17.7,11.89-23.13,6.4-5.43,14.28-8.14,23.62-8.14s17.92,2.83,24.43,8.47c6.52,5.65,9.77,13.25,9.77,22.8h-69.71ZM5083.9,329.37c-11.95,0-22.7,2.34-32.25,7-9.56,4.67-17.16,11.02-22.8,19.06v-24.11h-55.71v181.78h55.71v-98.71c0-12.16,3.15-21.61,9.45-28.34,6.3-6.73,14.77-10.1,25.41-10.1s19.11,3.37,25.41,10.1c6.3,6.73,9.45,16.18,9.45,28.34v98.71h55.38v-106.2c0-24.11-6.35-43.05-19.06-56.85-12.71-13.79-29.7-20.69-50.98-20.69ZM4885.19,357.06c-5.21-8.47-12.65-15.31-22.31-20.52-9.67-5.21-20.91-7.82-33.72-7.82-14.99,0-28.56,3.8-40.72,11.4-12.17,7.6-21.77,18.46-28.83,32.58-7.06,14.12-10.59,30.51-10.59,49.19s3.53,35.13,10.59,49.35c7.05,14.23,16.66,25.2,28.83,32.9,12.16,7.71,25.62,11.56,40.39,11.56,12.81,0,24.05-2.61,33.72-7.82,9.66-5.21,17.21-12.05,22.64-20.52v25.74h55.71v-181.78h-55.71v25.74ZM4873.63,455.12c-7.71,8.04-17.1,12.05-28.18,12.05s-20.47-4.07-28.18-12.22c-7.71-8.14-11.56-19.16-11.56-33.06s3.85-24.81,11.56-32.74c7.71-7.93,17.1-11.89,28.18-11.89s20.47,4.02,28.18,12.05c7.71,8.04,11.56,19.01,11.56,32.9s-3.86,24.87-11.56,32.9ZM2940.74,339.79c-13.68-7.38-29.32-11.08-46.91-11.08s-33.99,3.8-47.89,11.4c-13.9,7.6-24.71,18.46-32.41,32.58-7.71,14.12-11.56,30.62-11.56,49.52s3.91,35.4,11.73,49.52c7.82,14.12,18.68,24.98,32.58,32.58,13.9,7.6,29.75,11.4,47.56,11.4,14.77,0,28.12-2.71,40.07-8.14,11.94-5.43,21.88-12.92,29.81-22.48,7.92-9.55,13.41-20.3,16.45-32.25h-59.29c-5.43,11.73-15.1,17.59-28.99,17.59-9.34,0-17.21-2.98-23.62-8.96-6.41-5.97-10.05-14.6-10.91-25.9h126.07c.65-5.64.98-11.08.98-16.29,0-18.24-3.86-34.21-11.56-47.89-7.71-13.68-18.41-24.21-32.09-31.6ZM2857.67,404.62c1.52-9.99,5.48-17.7,11.89-23.13,6.4-5.43,14.28-8.14,23.62-8.14s17.92,2.83,24.43,8.47c6.52,5.65,9.77,13.25,9.77,22.8h-69.71ZM3384.42,332.63c10.64,0,20.14,2.5,28.5,7.49,8.36,5,14.82,12.27,19.38,21.83h61.24c-6.51-24.76-19.44-44.3-38.77-58.64-19.33-14.33-42.57-21.5-69.71-21.5-22.15,0-41.97,4.94-59.45,14.82-17.48,9.88-31.11,23.67-40.88,41.37-9.77,17.7-14.66,37.84-14.66,60.43s4.89,42.67,14.66,60.27c9.77,17.59,23.4,31.33,40.88,41.21,17.48,9.88,37.3,14.82,59.45,14.82,27.15,0,50.38-7.11,69.71-21.34,19.33-14.22,32.25-33.72,38.77-58.47h-61.24c-4.56,9.56-11.02,16.83-19.38,21.83-8.36,5-17.87,7.49-28.5,7.49-17.16,0-31.06-5.97-41.7-17.92-10.64-11.94-15.96-27.9-15.96-47.89s5.32-35.94,15.96-47.89c10.64-11.94,24.54-17.92,41.7-17.92ZM3130.66,356.41c-5.65-8.47-13.41-15.2-23.29-20.2-9.88-4.99-20.8-7.49-32.74-7.49-14.99,0-28.56,3.8-40.72,11.4-12.17,7.6-21.77,18.46-28.83,32.58-7.06,14.12-10.59,30.51-10.59,49.19s3.53,35.13,10.59,49.35c7.05,14.23,16.66,25.2,28.83,32.9,12.16,7.71,25.74,11.56,40.72,11.56,12.81,0,24.05-2.61,33.72-7.82,9.66-5.21,17.1-12.16,22.31-20.85v26.06h55.71v-241.06h-55.71v84.37ZM3119.1,455.12c-7.71,8.04-17.1,12.05-28.18,12.05s-20.47-4.07-28.18-12.22c-7.71-8.14-11.56-19.16-11.56-33.06s3.85-24.81,11.56-32.74c7.71-7.93,17.1-11.89,28.18-11.89s20.47,4.02,28.18,12.05c7.71,8.04,11.56,19.01,11.56,32.9s-3.86,24.87-11.56,32.9ZM3643.08,340.12c-14.33-7.6-30.41-11.4-48.21-11.4s-33.88,3.8-48.21,11.4c-14.33,7.6-25.63,18.52-33.88,32.74-8.26,14.23-12.38,30.68-12.38,49.35s4.07,35.4,12.22,49.52c8.14,14.12,19.33,24.98,33.55,32.58,14.22,7.6,30.24,11.4,48.05,11.4s33.93-3.8,48.38-11.4c14.44-7.6,25.84-18.51,34.21-32.74,8.36-14.22,12.54-30.67,12.54-49.35s-4.13-35.13-12.38-49.35c-8.26-14.22-19.55-25.13-33.88-32.74ZM3621.41,455.77c-7.49,7.82-16.56,11.73-27.2,11.73s-19.49-3.91-26.55-11.73c-7.06-7.82-10.59-19-10.59-33.55s3.58-26,10.75-33.72c7.17-7.71,16.18-11.57,27.04-11.57s19.6,3.91,26.88,11.73c7.27,7.82,10.91,19.01,10.91,33.55s-3.75,25.74-11.24,33.55ZM3813.45,329.37c-11.95,0-22.7,2.34-32.25,7-9.56,4.67-17.16,11.02-22.8,19.06v-24.11h-55.71v181.78h55.71v-98.71c0-12.16,3.15-21.61,9.45-28.34,6.3-6.73,14.77-10.1,25.41-10.1s19.11,3.37,25.41,10.1c6.3,6.73,9.45,16.18,9.45,28.34v98.71h55.38v-106.2c0-24.11-6.35-43.05-19.06-56.85-12.71-13.79-29.7-20.69-50.98-20.69ZM4134.64,329.37c-11.95,0-22.8,2.88-32.58,8.63-9.77,5.76-17.92,13.63-24.43,23.62v-30.3h-55.71v181.78h55.71v-84.37c0-14.99,3.47-25.46,10.42-31.44,6.95-5.97,17.37-8.96,31.27-8.96h15.31v-58.96ZM3974.37,462.28c-2.61-2.39-3.91-6.3-3.91-11.73v-72.97h36.49v-46.26h-36.49v-44.3h-55.71v44.3h-22.15v46.26h22.15v72.32c0,22.37,5.64,38.5,16.94,48.38,11.29,9.88,27.04,14.82,47.24,14.82h28.34v-47.24h-19.87c-6.08,0-10.42-1.19-13.03-3.58Z"
     fill="url(#n)"
     id="path96" />
</svg>
