<?xml version="1.0" encoding="UTF-8" standalone="no"?>
<svg
   id="Layer_1"
   data-name="Layer 1"
   width="347.42349cm"
   height="34.393482cm"
   viewBox="0 0 9848.3375 975.01008"
   version="1.1"
   sodipodi:docname="konfidence-horizontal-black.svg"
   inkscape:version="1.4.3 (0d15f75, 2025-12-25)"
   inkscape:export-filename="konfidence-horizontal-black.png"
   inkscape:export-xdpi="96"
   inkscape:export-ydpi="96"
   xmlns:inkscape="http://www.inkscape.org/namespaces/inkscape"
   xmlns:sodipodi="http://sodipodi.sourceforge.net/DTD/sodipodi-0.dtd"
   xmlns="http://www.w3.org/2000/svg"
   xmlns:svg="http://www.w3.org/2000/svg">
  <defs
     id="defs10" />
  <sodipodi:namedview
     id="namedview10"
     pagecolor="#ffffff"
     bordercolor="#000000"
     borderopacity="0.25"
     inkscape:showpageshadow="2"
     inkscape:pageopacity="0.0"
     inkscape:pagecheckerboard="0"
     inkscape:deskcolor="#d1d1d1"
     inkscape:document-units="cm"
     inkscape:zoom="0.016251279"
     inkscape:cx="6553.3304"
     inkscape:cy="646.103"
     inkscape:current-layer="Layer_1" />
  <path
     d="m 941.8227,699.64 c 77.51,29.95 239.25,81.76 430.77,81.76 191.52,0 346.39,-45.12 416.03,-70.25 -79.79,151.59 -238.14,254.86 -420.47,254.86 -182.33,0 -348.63,-108.53 -426.33,-266.37 z m 858.91,-411.05 c 27.55,60.58 42.92,127.94 42.92,198.92 0,0.57 -0.01,1.13 -0.01,1.7 -38.85,-0.98 -137.19,5.34 -329.71,66.19 -87.99,27.81 -98.18,40.12 -220.45,59.18 -148.7,23.18 -324.96,14.1 -382.6,4.58 -11.87,-41.83 -18.23,-85.99 -18.23,-131.65 0,-70.04 14.95,-136.56 41.82,-196.51 56.26,11.2 218.81,39.29 434.92,39.29 233.89,0 393,-32.91 431.34,-41.7 z M 1368.1527,9.01 c 139.66,0 265.26,60.59 352.25,157.08 -57.87,10.18 -184.46,28.36 -351.01,28.36 -152.43,0 -283.94,-15.24 -355.95,-25.62 87.08,-98.08 213.73,-159.82 354.71,-159.82 z"
     id="path1" />
  <path
     d="m 8520.7827,0.01 c 69.45,0 134.79,11.87 196.02,35.61 61.22,22.82 112.85,57.51 154.89,104.07 l -64.43,64.36 c -39.29,-40.17 -82.7,-68.92 -130.22,-86.27 -47.51,-18.26 -98.69,-27.39 -153.51,-27.39 -57.57,0 -111.03,10.04 -160.38,30.13 -49.34,19.17 -92.29,47.01 -128.84,83.53 -36.55,35.6 -65.34,77.6 -86.35,125.98 -20.11,47.47 -30.16,99.97 -30.16,157.48 0,57.51 10.05,110.46 30.16,158.85 21.01,47.47 49.8,89.46 86.35,125.98 36.55,35.6 79.5,63.45 128.84,83.53 49.35,19.17 102.81,28.76 160.38,28.76 54.82,0 106,-9.13 153.51,-27.39 47.52,-18.26 90.93,-47.47 130.22,-87.64 l 64.43,64.36 c -42.04,46.56 -93.67,81.71 -154.89,105.45 -61.23,23.73 -127.03,35.6 -197.39,35.6 -70.36,0 -138.89,-11.87 -200.12,-35.6 -61.22,-24.65 -114.22,-58.89 -159,-102.71 -44.78,-43.82 -79.96,-95.4 -105.54,-154.74 -24.68,-59.34 -37.01,-124.16 -37.01,-194.45 0,-70.29 12.33,-135.12 37.01,-194.46 25.58,-59.34 60.76,-110.92 105.54,-154.74 45.69,-43.82 99.15,-77.6 160.37,-101.33 61.22,-24.65 127.93,-36.98 200.12,-36.98 z"
     id="path2" />
  <path
     d="M 2750.6327,785.65 V 8.23 h 100.05 V 966.8 h -83.61 l -616.81,-777.32 V 966.8 h -101.43 V 8.23 h 83.61 z"
     id="path3" />
  <path
     d="m 3904.0427,95.87 h -556.51 v 376.58 h 496.2 v 87.64 h -496.2 V 966.8 h -101.43 V 8.23 h 657.94 z"
     id="path4" />
  <path
     d="m 4297.1727,966.8 h -101.43 V 8.23 h 101.43 z"
     id="path5" />
  <path
     d="m 5082.2527,8.23 c 102.35,0 191.9,20.54 268.66,61.62 77.67,40.17 137.99,96.31 180.94,168.43 42.95,72.12 64.41,155.2 64.41,249.23 0,94.03 -21.47,177.11 -64.41,249.23 -42.95,72.12 -103.27,128.72 -180.94,169.8 -76.76,40.17 -166.31,60.26 -268.66,60.26 h -390.65 V 514.9 h 101.43 v 364.25 h 283.74 c 84.98,0 158.55,-16.43 220.68,-49.3 63.06,-33.78 111.94,-79.89 146.67,-138.31 34.72,-59.34 52.09,-127.35 52.09,-204.03 0,-76.68 -17.37,-145.61 -52.09,-204.04 -34.73,-58.43 -83.61,-104.07 -146.67,-136.94 -62.13,-33.78 -135.7,-50.67 -220.68,-50.67 h -385.17 V 8.22 h 390.65 z"
     id="path6" />
  <path
     d="m 6564.2127,95.87 h -556.5 v 340.97 h 496.2 v 86.27 h -496.2 v 356.04 h 577.06 v 87.65 h -678.49 V 8.23 h 657.93 z"
     id="path7" />
  <path
     d="M 7607.2527,785.65 V 8.23 h 100.05 V 966.8 h -83.61 l -616.81,-777.32 V 966.8 h -101.44 V 8.23 h 83.62 z"
     id="path8" />
  <path
     d="m 9828.0527,95.87 h -556.46 v 340.97 h 496.16 v 86.27 h -496.16 v 356.04 h 577.06 v 87.65 h -678.5 V 8.23 h 657.9 z"
     id="path9" />
  <path
     d="M 101.0827,585.6 664.4427,6.86 h 116.51 l -414.84,434.56 443.62,524.01 h -120.62 l -391.65,-450.87 -196.38,198.72 V 965.42 H -0.34730206 V 6.86 H 101.0827 Z"
     id="path10" />
</svg>
