<?xml version="1.0" encoding="UTF-8" standalone="no"?>
<svg
   id="Layer_1"
   data-name="Layer 1"
   viewBox="0 0 346.2851 346.29984"
   version="1.1"
   sodipodi:docname="konfidence-icon-black.svg"
   width="346.2851"
   height="346.29984"
   inkscape:version="1.4.3 (0d15f75, 2025-12-25)"
   inkscape:export-filename="konfidence-icon-black.png"
   inkscape:export-xdpi="96"
   inkscape:export-ydpi="96"
   xmlns:inkscape="http://www.inkscape.org/namespaces/inkscape"
   xmlns:sodipodi="http://sodipodi.sourceforge.net/DTD/sodipodi-0.dtd"
   xmlns="http://www.w3.org/2000/svg"
   xmlns:svg="http://www.w3.org/2000/svg">
  <defs
     id="defs3" />
  <sodipodi:namedview
     id="namedview3"
     pagecolor="#ffffff"
     bordercolor="#000000"
     borderopacity="0.25"
     inkscape:showpageshadow="2"
     inkscape:pageopacity="0.0"
     inkscape:pagecheckerboard="0"
     inkscape:deskcolor="#d1d1d1"
     inkscape:zoom="0.052"
     inkscape:cx="163.46154"
     inkscape:cy="163.46154"
     inkscape:current-layer="Layer_1" />
  <path
     d="m 217.14509,197.62657 c 51.17,-17.2 80.74,-23.95 129.14,-24.6 -0.02,-23.37 -4.8,-46.24 -13.72,-67.31 -14.19,-0.04 -34.22,1.21 -59.71,6 -84.8,15.95 -196.379997,7.87 -258.669997,-7.11 -1.73,4.03 -3.33,8.15 -4.7700002,12.37 -11.61,33.83 -12.13,68.79 -3.5,100.91 45.7900002,9.41 134.7399972,5.45 211.2499972,-20.27 z"
     id="path1" />
  <path
     d="m 60.015093,265.58657 c -18.3,-7.67 -31.54,-12.97 -41.71,-15.06 19.58,39.19 53.95,71.02 98.659997,86.36 83.52,28.65 173.88,-10.24 211.65,-87.59 -13.18,5.3 -31.5,11.7 -55.77,18.19 -74.11,19.83 -167.77,16.98 -212.829997,-1.9 z"
     id="path2" />
  <path
     d="m 298.28509,53.506571 c -18.52,-19.41 -41.84,-34.79 -68.97,-44.0899998 -67.99,-23.3300002 -140.519997,-1.89 -185.519997,48.6299998 76.039997,17.47 193.859997,11.03 254.479997,-4.53 z"
     id="path3" />
</svg>
