<?xml version="1.0" encoding="UTF-8"?>
<svg id="Layer_1" data-name="Layer 1" xmlns="http://www.w3.org/2000/svg" viewBox="0 0 1221 1221">
  <defs>
    <style>
      .cls-1 {
        fill: #fff;
      }

      .cls-2 {
        fill: #0582fa;
      }
    </style>
  </defs>
  <circle cx="577.59" cy="627.8" r="502.58"/>
  <g>
    <path class="cls-1" d="M769.63,415.64c23.5,40.63,40.89,85.8,51.94,135.18,2.72,12.16,4.91,24.25,6.6,36.27,13.81,4.15,24.74,14.96,29.06,28.7,65.81-9.56,137.77-19,168.43-22.97.36-9.98,3.39-19.27,8.4-27.19-31.42-26.96-74.81-58.54-124.95-87.22-37.31-21.34-85.43-45.09-139.48-62.76Z"/>
    <path class="cls-1" d="M404.15,205.85c-19.43-1.44-38.42-1.53-56.48-.21-22.98,1.69-43.78,5.64-61.21,11.44-.76.54-1.53,1.06-2.28,1.61,33.66-8.55,68.92-13.1,105.24-13.1,4.93,0,9.84.09,14.73.26Z"/>
    <path class="cls-1" d="M429.3,1057.39c-.08-.35-.16-.7-.23-1.05-13.06,1.2-26.28,1.83-39.65,1.83-30.06,0-59.39-3.12-87.7-9.04,2.49,1.63,4.99,3.25,7.51,4.84,37.64,7.69,78.13,8.85,120.07,3.42Z"/>
    <path class="cls-1" d="M596.73,205.95c16.79,2.18,38.41,5.75,63.41,11.63,54.68,12.86,136.18,39.67,213.93,94.34,59.69,41.97,108.75,93.01,145.82,151.68,18.92,29.94,31.99,57.89,40.14,80.43,4.32-1.73,8.91-2.91,13.7-3.49-20.84-119.19-83.59-223.96-172.5-298.58-40.92-13.78-101.75-27.78-169.81-34.3-38.1-3.65-84.85-5.56-134.69-1.72Z"/>
    <path class="cls-1" d="M492.56,208.74c4.85-21.14,23.76-36.91,46.37-36.91,17.51,0,32.81,9.47,41.07,23.56,56.54-5.68,109.91-3.76,152.57.33,43.26,4.15,87.22,11.65,127.11,21.7,5.26,1.32,10.43,2.69,15.48,4.09-83.34-61.1-186.17-97.19-297.43-97.19-95.65,0-185.07,26.68-261.24,72.99,9.57-1.64,19.7-2.87,30.31-3.65,45.43-3.33,96.56,2.01,145.77,15.08Z"/>
    <path class="cls-1" d="M692.39,931.75c17.67-16.68,33.75-34.57,48.07-53.41-.75-.45-1.49-.89-2.25-1.34-13.74,19.52-29.08,37.83-45.83,54.75Z"/>
    <path class="cls-1" d="M835.05,667.94c-1.13.56-2.29,1.08-3.47,1.54-2.33,38.43-10.26,75.89-23.79,112.11-12.19,32.65-29.03,64.03-49.92,93.33,47.88,29.23,87.6,58.45,118.63,87.24,9.75-10.68,23.68-17.46,39.21-17.79-1.89-35.27-7.06-89.58-21.01-144.77-14.35-56.8-34.4-101-59.66-131.67Z"/>
    <path class="cls-1" d="M815.59,585.24c.06,0,.12,0,.18,0-1.57-10.55-3.53-21.15-5.91-31.8-3.62-16.2-7.95-31.92-12.96-47.18,7.83,25.41,13.34,51.84,16.29,79.04.8-.04,1.6-.07,2.4-.07Z"/>
    <path class="cls-1" d="M813.79,672.48c-6.76,71.5-31.17,137.86-68.84,194.67,0,0,.01,0,.02.01.87.52,1.73,1.03,2.59,1.55,20.53-28.66,37.06-59.37,48.99-91.31,12.68-33.95,20.27-69.05,22.79-105.04-1.24.11-2.49.17-3.76.17-.6,0-1.2-.02-1.79-.05Z"/>
    <path class="cls-1" d="M649.18,1080.88c-19.01,0-37.92-.97-56.67-2.92-28.95-3-57.54-8.35-85.63-15.97-5.56,15.69-20.53,26.93-38.12,26.93-14.89,0-27.89-8.05-34.91-20.03-18.84,2.57-37.42,3.86-55.62,3.86-13.82,0-27.41-.75-40.73-2.23,71.4,38.83,153.23,60.91,240.23,60.91,110.42,0,212.54-35.55,295.54-95.81-25.83,11.02-68.13,26.31-122.18,36.06-34,6.13-68.1,9.2-101.9,9.2Z"/>
    <path class="cls-1" d="M950.12,702.7c-31.47-23.55-64.04-41.64-95.93-53.45-2.37,4.48-5.49,8.5-9.2,11.88,26.09,32.03,46.71,77.52,61.37,135.54,14.41,57.01,19.6,113.03,21.44,148.77,10.81,2.19,20.46,7.57,27.94,15.12,39.98-45.39,71.91-98.04,93.56-155.72-25.12-36.83-60.09-72.88-99.18-102.13Z"/>
    <path class="cls-1" d="M1080.27,649.48c-26.78,0-49.04-19.26-53.74-44.67-30.95,4.01-102.15,13.35-167.34,22.83.01.42.03.83.03,1.25,0,3.12-.33,6.15-.95,9.08,33.01,12.21,66.63,30.87,99.04,55.12,37.62,28.15,71.55,62.48,96.95,97.9,15.29-44.67,24.47-92.18,26.55-141.52-.18,0-.36.01-.54.01Z"/>
    <path class="cls-1" d="M580.97,241.69c44.01,21.5,83.94,49.4,117.74,82.53,23.44,22.97,43.96,48.31,61.49,75.89,60.32,18.29,114,44.5,154.87,67.88,50.53,28.9,94.43,60.85,126.45,88.28,2.38-2.39,4.99-4.56,7.78-6.48-6.85-19.41-18.86-46.97-39.57-79.76-35.71-56.52-85.02-107.8-142.58-148.28-76.06-53.49-155.87-79.77-209.43-92.39-29.1-6.86-53.81-10.55-71.29-12.52.05.86.07,1.72.07,2.58,0,8.05-2.01,15.63-5.53,22.27Z"/>
    <path class="cls-1" d="M685.12,954.48c-49.7,42.87-109.98,76.4-172.82,96.53,26.64,7.11,53.74,12.12,81.16,14.98,50.93,5.31,103.09,3.27,155.04-6.05,49.68-8.91,92.21-23.56,120.08-35.36-4.05-7.63-6.35-16.33-6.35-25.57,0-9.85,2.62-19.08,7.18-27.06-30.98-28.92-70.96-58.32-118.6-87.38-18.99,25.14-41.01,48.63-65.68,69.91Z"/>
    <path class="cls-1" d="M624.39,389.02c-52.37-1.35-104.2,4.49-155.15,17.44-.02,1.25-.09,2.48-.23,3.69,38.63,5.47,100.71,22.61,165.22,52.08,97.06,44.35,144.28,90.73,167.23,125.35,3.71-1.27,7.63-2.06,11.72-2.28-2.96-27.2-8.47-53.62-16.29-79.04-11.32-34.49-26.18-66.53-44.47-95.97-40.42-11.93-83.74-20.13-128.03-21.27Z"/>
    <path class="cls-1" d="M790.68,593.05c-14.24-21.14-34.76-41.86-61.24-61.76-27.84-20.92-61.55-40.48-100.2-58.14-61.9-28.29-125.17-46.14-163.56-51.35-.19.4-.4.8-.6,1.19,7,7.86,13.6,16.05,19.72,24.6,26.73,37.27,44.18,80.04,52.02,127.38,77.91,2.71,163.07,12.32,239.12,35.67,3.27-7.1,8.39-13.17,14.74-17.59Z"/>
    <path class="cls-1" d="M798.22,668.92c-23.52,22.82-65.44,47.88-114.25,67.85-51,20.86-99.31,32.1-136.56,32.1-.3,0-.6-.01-.9-.01,0,.03,0,.07,0,.1,73.11,30.61,141.45,64.41,198.44,98.18,37.67-56.81,62.08-123.17,68.84-194.67-5.52-.22-10.77-1.47-15.57-3.55Z"/>
    <path class="cls-1" d="M248.41,313.51c13.1,1.45,26.21,3.71,39.23,6.73,42.1-37.72,89.99-67.69,142.59-89.18,13.93-5.69,28.06-10.62,42.29-14.89-22.84-5.18-45.89-8.65-68.36-10.32-4.89-.17-9.8-.26-14.73-.26-36.32,0-71.58,4.55-105.24,13.1-37.53,26.97-71.18,58.98-99.99,95.02,19.38-2.65,41.15-2.77,64.22-.21Z"/>
    <path class="cls-1" d="M289.22,335.04c17.16,3.35,33.79,8.14,49.78,14.25-15.65-6.48-31.74-11.79-48.01-15.88-.59.54-1.18,1.08-1.76,1.63Z"/>
    <path class="cls-1" d="M544.28,781.04c-3.7,10.99-11.64,20.03-21.9,25.15,9.54,27.84,13.68,62.85,11.46,98.98-2.71,44.15-14.6,85.69-33.63,117.89,3.86,4.77,6.65,10.44,8.02,16.65,61.46-19.62,120.44-52.4,169.05-94.33,5.16-4.45,10.2-9,15.11-13.64,16.75-16.92,32.08-35.23,45.83-54.75-55.6-32.93-120.91-65.32-193.94-95.96Z"/>
    <path class="cls-1" d="M411.8,375.59c5.89-4.02,13.02-6.37,20.69-6.37,16.3,0,30.12,10.62,34.93,25.31,51.64-13.01,104.17-18.87,157.27-17.51,40.57,1.04,80.28,7.85,117.75,17.98-15.29-22.37-32.68-43.14-52.14-62.22-33.34-32.66-72.82-60.11-116.37-81.16-8.7,9.45-21.16,15.37-35.01,15.37-24.98,0-45.44-19.25-47.41-43.72-19.12,5.06-38.13,11.28-56.75,18.89-48.8,19.94-93.45,47.36-133.03,81.65,27.52,7.59,54.4,18.56,79.51,32.57,10.66,5.95,20.86,12.36,30.56,19.21Z"/>
    <path class="cls-2" d="M345.36,912.02c35.8-14.06,68.34-34.48,95.32-59.98,15.24-14.41,28.61-30.25,40.04-47.33-.34-.2-.67-.41-1.01-.62-33.17,47.83-79.77,85.62-134.35,107.93Z"/>
    <path class="cls-1" d="M429.07,1056.34c-.5-2.54-.77-5.17-.77-7.86,0-4.7.81-9.21,2.28-13.4-8.88-3.88-17.7-8-26.44-12.37-38-19-74.74-46.69-109.19-82.3-.28-.29-.56-.59-.85-.89-22.89,4.59-46.56,6.92-70.49,6.92-12.43,0-24.93-.63-37.42-1.88,32.82,40.53,71.8,75.87,115.52,104.58,28.3,5.92,57.64,9.04,87.7,9.04,13.37,0,26.6-.62,39.65-1.83Z"/>
    <path class="cls-1" d="M228.6,934.39c-18.61-.15-36.81-1.97-54.48-5.33.55.74,1.13,1.47,1.68,2.2,17.62,2.33,35.29,3.37,52.8,3.13Z"/>
    <path class="cls-1" d="M468.75,1008.03c8.28,0,15.97,2.49,22.39,6.76,35.58-61.97,38.8-149.57,19.87-204.78-2.62.49-5.32.76-8.09.76-3.76,0-7.4-.48-10.88-1.37-12.21,18.56-26.61,35.76-43.1,51.35-35.47,33.53-80.13,58.62-129.16,72.56-3.88,1.11-7.8,2.14-11.74,3.11,29.07,29.31,62.96,56.27,101.49,75.53,8.82,4.41,17.73,8.57,26.7,12.48,7.37-9.95,19.19-16.41,32.52-16.41Z"/>
    <path class="cls-1" d="M274.41,332.53c.43-.42.86-.85,1.3-1.26.38-.36.77-.72,1.15-1.08-9.9-2.04-19.84-3.64-29.77-4.75-27.32-3.03-52.57-2.18-73.74,2.3-2.07,2.79-4.12,5.6-6.14,8.43,20.56-4.41,41.9-6.76,63.78-6.76,14.75,0,29.24,1.08,43.43,3.12Z"/>
    <path class="cls-1" d="M545.33,756.87c35.83.49,83.42-10.48,134.1-31.21,45.37-18.56,85.51-42.22,108.22-63.26-9.59-8.01-15.7-20.05-15.7-33.52,0-2.29.18-4.55.52-6.75-74.21-22.8-157.42-32.31-233.87-35.1.31,2.37.6,4.74.86,7.13,5.29,48.73,1.32,95.09-11.3,137.37,8.46,6.01,14.68,14.94,17.18,25.33Z"/>
    <path class="cls-1" d="M502.91,723.49c5.03,0,9.86.86,14.36,2.43,11.67-40.2,15.26-84.21,10.25-130.46-.32-2.96-.68-5.89-1.08-8.81-41.05-1.13-79.86-.39-113.9,1.19-104.51,4.83-196.73,19-243.38,30.01.8,3.71,1.23,7.55,1.23,11.49,0,9.53-2.47,18.48-6.78,26.26,79.48,10,192.37,40.72,306.24,83.08,8-9.3,19.85-15.19,33.08-15.19Z"/>
    <path class="cls-1" d="M294.82,466.7c33.62-19.94,67.83-36.58,102.53-49.91-1.05-3.42-1.62-7.05-1.62-10.81,0-8.21,2.69-15.78,7.24-21.9-8.79-6.11-17.98-11.86-27.58-17.21-11.77-6.57-23.95-12.43-36.39-17.57-15.99-6.11-32.62-10.91-49.78-14.25-1.68,1.56-3.36,3.13-5.02,4.72-35.06,33.49-65.81,72.8-91.4,116.84-30.79,52.98-46.66,100.26-53.38,123.76,2.07.98,4.06,2.1,5.98,3.33,31.73-32.41,81.8-76.89,149.42-117Z"/>
    <path class="cls-1" d="M524.58,574.6c-7.72-44.58-24.33-84.87-49.53-120.01-5.42-7.56-11.23-14.83-17.37-21.84-6.58,6.19-15.43,9.99-25.18,9.99-12.23,0-23.05-5.97-29.74-15.16-34.45,13.16-68.42,29.64-101.81,49.44-65.97,39.12-114.94,82.47-146.18,114.26,4.32,4.38,7.9,9.5,10.54,15.15,45.16-10.79,135.8-25.46,246.68-30.59,33.7-1.56,72.02-2.3,112.6-1.25Z"/>
    <path class="cls-1" d="M345.36,912.02c54.58-22.31,101.18-60.1,134.35-107.93-12.28-7.72-20.44-21.38-20.44-36.96,0-6.46,1.42-12.59,3.94-18.11-115.49-42.82-229.53-73.46-307.78-82.32-2,2.1-4.16,4.04-6.47,5.8,14.07,41.92,40.02,100.13,74.22,155.06,18.82,30.23,43.95,65.61,75.13,98.8,6.13-1.36,12.19-2.89,18.18-4.6,9.82-2.79,19.46-6.06,28.87-9.76Z"/>
    <path class="cls-1" d="M116.17,575.13c4.06,0,8.02.46,11.83,1.31,6.92-24.24,22.9-71.52,54.21-125.49,25.84-44.53,56.86-84.36,92.21-118.41-14.18-2.04-28.68-3.12-43.43-3.12-21.88,0-43.21,2.34-63.78,6.76-52.4,73.61-85.48,161.92-91.88,257.54,9.94-11.38,24.55-18.59,40.85-18.59Z"/>
    <path class="cls-1" d="M284.39,929.15c-25.28-27.68-49.25-59.65-71.4-95.23-34.01-54.63-60.03-112.59-74.57-155.14-6.79,3.06-14.31,4.78-22.24,4.78-16.17,0-30.69-7.09-40.62-18.32,7.23,98.52,42.77,189.17,98.57,263.82,17.66,3.36,35.87,5.19,54.48,5.33,18.88-.26,37.57-2.01,55.79-5.24Z"/>
    <path class="cls-1" d="M463.82,421.57c.42.47.83.95,1.26,1.43.21-.39.41-.79.6-1.19-.63-.09-1.24-.16-1.86-.24Z"/>
    <path class="cls-1" d="M546.51,768.96s0-.07,0-.1c-.09,0-.17,0-.26,0,.08.04.17.07.26.11Z"/>
    <path class="cls-1" d="M316.49,921.78c-5.99,1.7-12.05,3.24-18.18,4.6.13.14.27.28.4.42,16.08-3.68,31.66-8.65,46.65-14.78-9.41,3.7-19.05,6.96-28.87,9.76Z"/>
    <path class="cls-1" d="M228.6,934.39c.8,0,1.59.03,2.39.03,18.38,0,36.37-1.64,53.85-4.78-.15-.16-.3-.32-.45-.48-18.21,3.23-36.9,4.98-55.79,5.24Z"/>
  </g>
</svg>
