<?xml version="1.0" encoding="UTF-8"?>
<svg id="a" data-name="Layer 1" xmlns="http://www.w3.org/2000/svg" width="678.31" height="664.28" viewBox="0 0 678.31 664.28">
  <g>
    <rect x="156.92" y="459.64" width="342.15" height="67.11" fill="none"/>
    <path d="M163.29,512.11v-48.47h14.58c3.6,0,6.79.46,9.58,1.37,2.79.91,4.97,2.44,6.55,4.59,1.58,2.15,2.37,5.02,2.37,8.62s-.78,6.39-2.33,8.66c-1.55,2.27-3.71,3.96-6.48,5.07s-5.9,1.67-9.4,1.67h-7.47v18.5h-7.4ZM170.68,487.61h6.73c3.95,0,6.87-.76,8.77-2.29,1.9-1.53,2.85-3.9,2.85-7.1s-1-5.51-3-6.77-4.97-1.89-8.92-1.89h-6.44v18.06Z" fill="#fff"/>
    <path d="M205.76,512.11v-48.47h7.4v42.18h20.65v6.29h-28.05Z" fill="#fff"/>
    <path d="M235.95,512.11l16.13-48.47h8.51l16.13,48.47h-7.84l-7.92-26.42c-.84-2.66-1.63-5.34-2.37-8.03-.74-2.69-1.48-5.41-2.22-8.18h-.3c-.69,2.76-1.42,5.49-2.18,8.18-.77,2.69-1.57,5.37-2.41,8.03l-7.99,26.42h-7.55ZM244.98,498.2v-5.85h22.57v5.85h-22.57Z" fill="#fff"/>
    <path d="M288.71,512.11v-42.18h-14.36v-6.29h36.04v6.29h-14.28v42.18h-7.4Z" fill="#fff"/>
    <path d="M318.76,512.11v-48.47h28.64v6.22h-21.24v15.02h18.06v6.29h-18.06v20.94h-7.4Z" fill="#fff"/>
    <path d="M373.59,513c-4.14,0-7.8-1.02-10.95-3.07-3.16-2.05-5.64-4.97-7.44-8.77-1.8-3.8-2.7-8.29-2.7-13.47s.9-9.71,2.7-13.43c1.8-3.72,4.28-6.57,7.44-8.55,3.16-1.97,6.81-2.96,10.95-2.96s7.79.99,10.95,2.96c3.16,1.97,5.64,4.82,7.44,8.55s2.7,8.2,2.7,13.43-.9,9.67-2.7,13.47c-1.8,3.8-4.28,6.72-7.44,8.77-3.16,2.05-6.81,3.07-10.95,3.07ZM373.59,506.48c2.71,0,5.07-.76,7.07-2.29,2-1.53,3.55-3.71,4.66-6.55,1.11-2.84,1.67-6.15,1.67-9.95s-.55-7.14-1.67-9.88c-1.11-2.74-2.66-4.86-4.66-6.36-2-1.5-4.35-2.26-7.07-2.26s-5.08.75-7.1,2.26c-2.02,1.51-3.59,3.63-4.7,6.36-1.11,2.74-1.67,6.03-1.67,9.88s.55,7.12,1.67,9.95c1.11,2.84,2.67,5.02,4.7,6.55,2.02,1.53,4.39,2.29,7.1,2.29Z" fill="#fff"/>
    <path d="M404.67,512.11v-48.47h15.76c3.35,0,6.34.43,8.95,1.29,2.61.86,4.69,2.33,6.22,4.4,1.53,2.07,2.29,4.84,2.29,8.29s-.77,6.12-2.29,8.29c-1.53,2.17-3.6,3.8-6.22,4.88-2.62,1.08-5.6,1.63-8.95,1.63h-8.36v19.68h-7.4ZM412.07,486.43h7.47c3.6,0,6.34-.73,8.21-2.18,1.87-1.45,2.81-3.66,2.81-6.62s-.94-5.04-2.81-6.25c-1.88-1.21-4.61-1.81-8.21-1.81h-7.47v16.87ZM431.24,512.11l-12.21-21.68,5.55-4.22,14.95,25.9h-8.29Z" fill="#fff"/>
    <path d="M447.66,512.11v-48.47h9.1l8.66,24.79c.59,1.58,1.13,3.16,1.63,4.74.49,1.58.96,3.26,1.41,5.03h.3c.49-1.78.97-3.45,1.44-5.03.47-1.58.95-3.16,1.44-4.74l8.73-24.79h9.03v48.47h-6.88v-24.35c0-1.48.05-3.16.15-5.03.1-1.87.23-3.74.41-5.59.17-1.85.36-3.52.55-5h-.3l-3.85,12.06-8.44,23.24h-5.18l-8.44-23.24-3.77-12.06h-.3c.2,1.48.37,3.14.52,5,.15,1.85.27,3.71.37,5.59.1,1.88.15,3.55.15,5.03v24.35h-6.73Z" fill="#fff"/>
  </g>
  <g>
    <rect x="209.57" y="514.37" width="228.01" height="69.32" fill="none"/>
    <path d="M242.78,564.36v-46.18h8.67l8.25,23.62c.56,1.5,1.08,3.01,1.55,4.51.47,1.5.92,3.1,1.34,4.79h.28c.47-1.69.93-3.29,1.38-4.79.45-1.5.9-3.01,1.38-4.51l8.32-23.62h8.6v46.18h-6.56v-23.2c0-1.41.05-3.01.14-4.79s.22-3.56.39-5.32c.16-1.76.34-3.35.53-4.76h-.28l-3.67,11.49-8.04,22.14h-4.94l-8.04-22.14-3.6-11.49h-.28c.19,1.41.35,3,.49,4.76.14,1.76.26,3.54.35,5.32.09,1.79.14,3.38.14,4.79v23.2h-6.42Z" fill="#fff"/>
    <path d="M294.67,564.36v-46.18h27.21v5.92h-20.16v13.18h17.06v5.92h-17.06v15.23h20.87v5.92h-27.92Z" fill="#fff"/>
    <path d="M345.36,565.2c-3.24,0-6.25-.6-9.03-1.8-2.77-1.2-5.24-2.88-7.4-5.04l3.88-4.58c1.64,1.65,3.58,2.94,5.82,3.88,2.23.94,4.52,1.41,6.87,1.41,2.82,0,4.99-.62,6.52-1.87,1.53-1.24,2.29-2.88,2.29-4.9,0-1.41-.32-2.55-.95-3.42-.63-.87-1.52-1.6-2.64-2.19-1.13-.59-2.4-1.19-3.81-1.8l-6.49-2.82c-1.5-.66-2.97-1.5-4.41-2.54-1.43-1.03-2.62-2.33-3.56-3.88-.94-1.55-1.41-3.46-1.41-5.71,0-2.4.65-4.55,1.94-6.45,1.29-1.9,3.07-3.41,5.32-4.51s4.87-1.66,7.83-1.66c2.77,0,5.36.52,7.76,1.55,2.4,1.03,4.44,2.4,6.13,4.09l-3.74,4.58c-1.46-1.27-3.04-2.27-4.76-3-1.71-.73-3.51-1.09-5.39-1.09-2.4,0-4.32.54-5.78,1.62-1.46,1.08-2.19,2.56-2.19,4.44,0,1.36.36,2.47,1.09,3.31.73.85,1.68,1.55,2.86,2.12,1.18.56,2.37,1.13,3.6,1.69l6.42,2.75c1.83.75,3.46,1.66,4.87,2.71,1.41,1.06,2.51,2.36,3.31,3.91.8,1.55,1.2,3.46,1.2,5.71,0,2.49-.63,4.76-1.9,6.8-1.27,2.04-3.12,3.67-5.54,4.86-2.42,1.2-5.32,1.8-8.71,1.8Z" fill="#fff"/>
    <path d="M370.18,564.36v-46.18h7.05v18.97h20.09v-18.97h7.05v46.18h-7.05v-21.08h-20.09v21.08h-7.05Z" fill="#fff"/>
  </g>
  <g>
    <path d="M389.34,194.88c7.67,13.26,13.35,28,16.95,44.12.89,3.97,1.6,7.91,2.15,11.84,4.51,1.36,8.08,4.88,9.49,9.37,21.48-3.12,44.97-6.2,54.98-7.5.12-3.26,1.11-6.29,2.74-8.87-10.26-8.8-24.42-19.11-40.78-28.47-12.18-6.97-27.89-14.72-45.53-20.48Z" fill="#fff"/>
    <path d="M270.05,126.4c-6.34-.47-12.54-.5-18.44-.07-7.5.55-14.29,1.84-19.98,3.74-.25.18-.5.35-.74.52,10.99-2.79,22.5-4.27,34.35-4.27,1.61,0,3.21.03,4.81.08Z" fill="#fff"/>
    <path d="M278.26,404.34c-.03-.11-.05-.23-.07-.34-4.26.39-8.58.6-12.94.6-9.81,0-19.39-1.02-28.62-2.95.81.53,1.63,1.06,2.45,1.58,12.28,2.51,25.5,2.89,39.19,1.12Z" fill="#fff"/>
    <path d="M332.91,126.44c5.48.71,12.54,1.88,20.7,3.8,17.85,4.2,44.45,12.95,69.82,30.79,19.48,13.7,35.49,30.36,47.59,49.51,6.17,9.77,10.44,18.9,13.1,26.25,1.41-.56,2.91-.95,4.47-1.14-6.8-38.9-27.28-73.1-56.3-97.45-13.36-4.5-33.21-9.07-55.42-11.2-12.43-1.19-27.7-1.81-43.96-.56Z" fill="#fff"/>
    <path d="M298.9,127.35c1.58-6.9,7.75-12.05,15.13-12.05,5.72,0,10.71,3.09,13.4,7.69,18.45-1.85,35.87-1.23,49.8.11,14.12,1.35,28.47,3.8,41.49,7.08,1.72.43,3.4.88,5.05,1.33-27.2-19.94-60.77-31.72-97.08-31.72-31.22,0-60.41,8.71-85.27,23.82,3.12-.54,6.43-.94,9.89-1.19,14.83-1.09,31.52.66,47.58,4.92Z" fill="#fff"/>
    <path d="M364.13,363.33c5.77-5.44,11.02-11.28,15.69-17.43-.24-.15-.49-.29-.73-.44-4.49,6.37-9.49,12.35-14.96,17.87Z" fill="#fff"/>
    <path d="M410.69,277.23c-.37.18-.75.35-1.13.5-.76,12.54-3.35,24.77-7.76,36.59-3.98,10.66-9.47,20.9-16.29,30.46,15.63,9.54,28.59,19.08,38.72,28.48,3.18-3.49,7.73-5.7,12.8-5.81-.62-11.51-2.31-29.24-6.86-47.25-4.68-18.54-11.23-32.97-19.47-42.98Z" fill="#fff"/>
    <path d="M404.34,250.23s.04,0,.06,0c-.51-3.44-1.15-6.9-1.93-10.38-1.18-5.29-2.59-10.42-4.23-15.4,2.55,8.3,4.35,16.92,5.32,25.8.26-.01.52-.02.78-.02Z" fill="#fff"/>
    <path d="M403.75,278.71c-2.2,23.34-10.17,45-22.47,63.54,0,0,0,0,0,0,.28.17.56.34.85.51,6.7-9.36,12.1-19.38,15.99-29.8,4.14-11.08,6.62-22.54,7.44-34.29-.4.03-.81.06-1.23.06-.2,0-.39,0-.59-.01Z" fill="#fff"/>
    <path d="M350.03,412.01c-6.2,0-12.38-.32-18.5-.95-9.45-.98-18.78-2.72-27.95-5.21-1.82,5.12-6.7,8.79-12.44,8.79-4.86,0-9.1-2.63-11.4-6.54-6.15.84-12.22,1.26-18.15,1.26-4.51,0-8.95-.24-13.29-.73,23.3,12.67,50.01,19.88,78.41,19.88,36.04,0,69.37-11.6,96.46-31.27-8.43,3.6-22.24,8.59-39.88,11.77-11.1,2-22.23,3-33.26,3Z" fill="#fff"/>
    <path d="M448.25,288.57c-10.27-7.69-20.9-13.59-31.31-17.45-.77,1.46-1.79,2.77-3,3.88,8.52,10.46,15.25,25.3,20.03,44.24,4.7,18.61,6.4,36.89,7,48.56,3.53.71,6.68,2.47,9.12,4.93,13.05-14.82,23.47-32,30.54-50.83-8.2-12.02-19.61-23.79-32.37-33.34Z" fill="#fff"/>
    <path d="M490.73,271.2c-8.74,0-16.01-6.29-17.54-14.58-10.1,1.31-33.34,4.36-54.62,7.45,0,.14.01.27.01.41,0,1.02-.11,2.01-.31,2.96,10.77,3.99,21.75,10.08,32.32,17.99,12.28,9.19,23.35,20.39,31.64,31.96,4.99-14.58,7.99-30.09,8.67-46.19-.06,0-.12,0-.18,0Z" fill="#fff"/>
    <path d="M327.76,138.1c14.37,7.02,27.4,16.13,38.43,26.94,7.65,7.5,14.35,15.77,20.07,24.77,19.69,5.97,37.21,14.53,50.55,22.16,16.49,9.43,30.82,19.86,41.27,28.81.78-.78,1.63-1.49,2.54-2.12-2.23-6.33-6.15-15.33-12.92-26.03-11.66-18.45-27.75-35.18-46.54-48.4-24.83-17.46-50.88-26.04-68.36-30.16-9.5-2.24-17.56-3.44-23.27-4.09.01.28.02.56.02.84,0,2.63-.65,5.1-1.81,7.27Z" fill="#fff"/>
    <path d="M361.76,370.75c-16.22,13.99-35.9,24.94-56.41,31.51,8.69,2.32,17.54,3.95,26.49,4.89,16.62,1.73,33.65,1.07,50.61-1.97,16.21-2.91,30.1-7.69,39.19-11.54-1.32-2.49-2.07-5.33-2.07-8.35,0-3.21.85-6.23,2.34-8.83-10.11-9.44-23.16-19.03-38.71-28.52-6.2,8.21-13.39,15.87-21.44,22.82Z" fill="#fff"/>
    <path d="M341.94,186.19c-17.09-.44-34.01,1.47-50.64,5.69,0,.41-.03.81-.08,1.21,12.61,1.79,32.87,7.38,53.93,17,31.68,14.48,47.09,29.61,54.58,40.91,1.21-.41,2.49-.67,3.82-.74-.96-8.88-2.76-17.5-5.32-25.8-3.7-11.26-8.54-21.71-14.51-31.32-13.19-3.89-27.33-6.57-41.79-6.94Z" fill="#fff"/>
    <path d="M396.21,252.78c-4.65-6.9-11.35-13.66-19.99-20.16-9.09-6.83-20.09-13.21-32.7-18.98-20.2-9.23-40.86-15.06-53.39-16.76-.06.13-.13.26-.2.39,2.29,2.57,4.44,5.24,6.44,8.03,8.72,12.16,14.42,26.13,16.98,41.58,25.43.89,53.23,4.02,78.05,11.64,1.07-2.32,2.74-4.3,4.81-5.74Z" fill="#fff"/>
    <path d="M398.67,277.55c-7.68,7.45-21.36,15.63-37.29,22.15-16.65,6.81-32.41,10.48-44.57,10.48-.1,0-.19,0-.29,0,0,.01,0,.02,0,.03,23.86,9.99,46.17,21.02,64.77,32.05,12.29-18.54,20.26-40.2,22.47-63.54-1.8-.07-3.51-.48-5.08-1.16Z" fill="#fff"/>
    <path d="M219.21,161.54c4.27.47,8.56,1.21,12.8,2.2,13.74-12.31,29.37-22.09,46.54-29.11,4.55-1.86,9.16-3.47,13.8-4.86-7.46-1.69-14.98-2.82-22.31-3.37-1.6-.05-3.2-.08-4.81-.08-11.86,0-23.36,1.48-34.35,4.27-12.25,8.8-23.23,19.25-32.64,31.02,6.33-.87,13.43-.9,20.96-.07Z" fill="#fff"/>
    <path d="M232.54,168.57c5.6,1.09,11.03,2.66,16.25,4.65-5.11-2.11-10.36-3.85-15.67-5.18-.19.18-.38.35-.58.53Z" fill="#fff"/>
    <path d="M315.79,314.14c-1.21,3.59-3.8,6.54-7.15,8.21,3.11,9.09,4.46,20.51,3.74,32.31-.89,14.41-4.77,27.97-10.98,38.48,1.26,1.56,2.17,3.41,2.62,5.43,20.06-6.41,39.31-17.1,55.18-30.79,1.68-1.45,3.33-2.94,4.93-4.45,5.47-5.52,10.47-11.5,14.96-17.87-18.15-10.75-39.46-21.32-63.3-31.32Z" fill="#fff"/>
    <path d="M272.55,181.81c1.92-1.31,4.25-2.08,6.75-2.08,5.32,0,9.83,3.47,11.4,8.26,16.86-4.25,34-6.16,51.33-5.71,13.24.34,26.2,2.56,38.43,5.87-4.99-7.3-10.67-14.08-17.02-20.31-10.88-10.66-23.77-19.62-37.98-26.49-2.84,3.08-6.91,5.02-11.43,5.02-8.15,0-14.83-6.28-15.47-14.27-6.24,1.65-12.44,3.68-18.52,6.17-15.93,6.51-30.5,15.46-43.42,26.65,8.98,2.48,17.75,6.06,25.95,10.63,3.48,1.94,6.81,4.03,9.98,6.27Z" fill="#fff"/>
    <path d="M278.18,404c-.16-.83-.25-1.69-.25-2.57,0-1.53.26-3.01.75-4.37-2.9-1.27-5.78-2.61-8.63-4.04-12.4-6.2-24.39-15.24-35.64-26.86-.09-.1-.18-.19-.28-.29-7.47,1.5-15.2,2.26-23.01,2.26-4.06,0-8.14-.21-12.21-.61,10.71,13.23,23.43,24.76,37.71,34.13,9.24,1.93,18.81,2.95,28.62,2.95,4.36,0,8.68-.2,12.94-.6Z" fill="#fff"/>
    <path d="M212.75,364.19c-6.07-.05-12.02-.64-17.78-1.74.18.24.37.48.55.72,5.75.76,11.52,1.1,17.23,1.02Z" fill="#fff"/>
    <path d="M291.13,388.23c2.7,0,5.21.81,7.31,2.21,11.61-20.23,12.66-48.82,6.48-66.84-.86.16-1.74.25-2.64.25-1.23,0-2.42-.16-3.55-.45-3.99,6.06-8.68,11.67-14.07,16.76-11.58,10.94-26.15,19.13-42.16,23.68-1.27.36-2.55.7-3.83,1.01,9.49,9.57,20.55,18.36,33.13,24.65,2.88,1.44,5.79,2.8,8.72,4.07,2.4-3.25,6.26-5.35,10.62-5.35Z" fill="#fff"/>
    <path d="M227.7,167.75c.14-.14.28-.28.42-.41.12-.12.25-.24.37-.35-3.23-.67-6.48-1.19-9.72-1.55-8.92-.99-17.16-.71-24.07.75-.68.91-1.34,1.83-2,2.75,6.71-1.44,13.67-2.21,20.82-2.21,4.81,0,9.54.35,14.17,1.02Z" fill="#fff"/>
    <path d="M316.13,306.25c11.69.16,27.23-3.42,43.77-10.19,14.81-6.06,27.91-13.78,35.32-20.65-3.13-2.61-5.12-6.54-5.12-10.94,0-.75.06-1.48.17-2.2-24.22-7.44-51.38-10.55-76.33-11.45.1.77.19,1.55.28,2.33,1.73,15.91.43,31.04-3.69,44.84,2.76,1.96,4.79,4.88,5.61,8.27Z" fill="#fff"/>
    <path d="M302.28,295.36c1.64,0,3.22.28,4.69.79,3.81-13.12,4.98-27.48,3.34-42.58-.1-.96-.22-1.92-.35-2.88-13.4-.37-26.06-.13-37.18.39-34.11,1.58-64.21,6.2-79.44,9.8.26,1.21.4,2.46.4,3.75,0,3.11-.81,6.03-2.21,8.57,25.94,3.27,62.79,13.29,99.95,27.12,2.61-3.03,6.48-4.96,10.8-4.96Z" fill="#fff"/>
    <path d="M234.37,211.54c10.97-6.51,22.14-11.94,33.46-16.29-.34-1.12-.53-2.3-.53-3.53,0-2.68.88-5.15,2.36-7.15-2.87-1.99-5.87-3.87-9-5.62-3.84-2.14-7.82-4.06-11.88-5.74-5.22-2-10.65-3.56-16.25-4.65-.55.51-1.1,1.02-1.64,1.54-11.44,10.93-21.48,23.76-29.83,38.14-10.05,17.29-15.23,32.73-17.42,40.4.68.32,1.33.69,1.95,1.09,10.36-10.58,26.7-25.1,48.77-38.19Z" fill="#fff"/>
    <path d="M309.36,246.76c-2.52-14.55-7.94-27.7-16.17-39.17-1.77-2.47-3.67-4.84-5.67-7.13-2.15,2.02-5.04,3.26-8.22,3.26-3.99,0-7.52-1.95-9.71-4.95-11.24,4.3-22.33,9.67-33.23,16.14-21.53,12.77-37.51,26.92-47.71,37.29,1.41,1.43,2.58,3.1,3.44,4.94,14.74-3.52,44.32-8.31,80.51-9.98,11-.51,23.51-.75,36.75-.41Z" fill="#fff"/>
    <path d="M250.86,356.89c17.82-7.28,33.03-19.62,43.85-35.23-4.01-2.52-6.67-6.98-6.67-12.06,0-2.11.46-4.11,1.28-5.91-37.69-13.98-74.92-23.98-100.46-26.87-.65.69-1.36,1.32-2.11,1.89,4.59,13.68,13.06,32.68,24.23,50.61,6.14,9.87,14.35,21.42,24.52,32.25,2-.44,3.98-.94,5.93-1.5,3.21-.91,6.35-1.98,9.42-3.18Z" fill="#fff"/>
    <path d="M176.05,246.93c1.33,0,2.62.15,3.86.43,2.26-7.91,7.47-23.34,17.69-40.96,8.43-14.54,18.56-27.53,30.1-38.65-4.63-.67-9.36-1.02-14.17-1.02-7.14,0-14.1.77-20.82,2.21-17.1,24.03-27.9,52.85-29.99,84.06,3.24-3.72,8.01-6.07,13.33-6.07Z" fill="#fff"/>
    <path d="M230.96,362.48c-8.25-9.04-16.07-19.47-23.31-31.08-11.1-17.83-19.59-36.75-24.34-50.64-2.22,1-4.67,1.56-7.26,1.56-5.28,0-10.02-2.31-13.26-5.98,2.36,32.16,13.96,61.75,32.17,86.11,5.77,1.1,11.71,1.69,17.78,1.74,6.16-.09,12.26-.66,18.21-1.71Z" fill="#fff"/>
    <path d="M289.53,196.81c.14.15.27.31.41.47.07-.13.13-.26.2-.39-.21-.03-.4-.05-.61-.08Z" fill="#fff"/>
    <path d="M316.51,310.2s0-.02,0-.03c-.03,0-.06,0-.08,0,.03.01.06.02.08.03Z" fill="#fff"/>
    <path d="M241.44,360.08c-1.96.56-3.93,1.06-5.93,1.5.04.05.09.09.13.14,5.25-1.2,10.33-2.82,15.23-4.82-3.07,1.21-6.22,2.27-9.42,3.18Z" fill="#fff"/>
    <path d="M212.75,364.19c.26,0,.52,0,.78,0,6,0,11.87-.54,17.58-1.56-.05-.05-.1-.1-.15-.16-5.95,1.05-12.05,1.62-18.21,1.71Z" fill="#fff"/>
  </g>
</svg>
