<?xml version="1.0" encoding="UTF-8" standalone="no"?>
<svg
   id="a"
   data-name="Layer 1"
   width="342.14999"
   height="483.89999"
   viewBox="0 0 342.15 483.89997"
   version="1.1"
   sodipodi:docname="platform-mesh-stacked-white.svg"
   inkscape:version="1.4.3 (0d15f75, 2025-12-25)"
   inkscape:export-filename="platform-mesh-stacked-white.png"
   inkscape:export-xdpi="96"
   inkscape:export-ydpi="96"
   xmlns:inkscape="http://www.inkscape.org/namespaces/inkscape"
   xmlns:sodipodi="http://sodipodi.sourceforge.net/DTD/sodipodi-0.dtd"
   xmlns="http://www.w3.org/2000/svg"
   xmlns:svg="http://www.w3.org/2000/svg">
  <defs
     id="defs48" />
  <sodipodi:namedview
     id="namedview48"
     pagecolor="#ffffff"
     bordercolor="#000000"
     borderopacity="0.25"
     inkscape:showpageshadow="2"
     inkscape:pageopacity="0.0"
     inkscape:pagecheckerboard="0"
     inkscape:deskcolor="#d1d1d1"
     inkscape:zoom="0.24"
     inkscape:cx="185.41667"
     inkscape:cy="227.08333"
     inkscape:current-layer="a" />
  <g
     id="g8"
     transform="translate(-156.92,-99.79)">
    <rect
       x="156.92"
       y="459.64001"
       width="342.14999"
       height="67.110001"
       fill="none"
       id="rect1" />
    <path
       d="m 163.29,512.11 v -48.47 h 14.58 c 3.6,0 6.79,0.46 9.58,1.37 2.79,0.91 4.97,2.44 6.55,4.59 1.58,2.15 2.37,5.02 2.37,8.62 0,3.6 -0.78,6.39 -2.33,8.66 -1.55,2.27 -3.71,3.96 -6.48,5.07 -2.77,1.11 -5.9,1.67 -9.4,1.67 h -7.47 v 18.5 h -7.4 z m 7.39,-24.5 h 6.73 c 3.95,0 6.87,-0.76 8.77,-2.29 1.9,-1.53 2.85,-3.9 2.85,-7.1 0,-3.2 -1,-5.51 -3,-6.77 -2,-1.26 -4.97,-1.89 -8.92,-1.89 h -6.44 v 18.06 z"
       fill="#ffffff"
       id="path1" />
    <path
       d="m 205.76,512.11 v -48.47 h 7.4 v 42.18 h 20.65 v 6.29 z"
       fill="#ffffff"
       id="path2" />
    <path
       d="m 235.95,512.11 16.13,-48.47 h 8.51 l 16.13,48.47 h -7.84 l -7.92,-26.42 c -0.84,-2.66 -1.63,-5.34 -2.37,-8.03 -0.74,-2.69 -1.48,-5.41 -2.22,-8.18 h -0.3 c -0.69,2.76 -1.42,5.49 -2.18,8.18 -0.77,2.69 -1.57,5.37 -2.41,8.03 l -7.99,26.42 h -7.55 z m 9.03,-13.91 v -5.85 h 22.57 v 5.85 z"
       fill="#ffffff"
       id="path3" />
    <path
       d="m 288.71,512.11 v -42.18 h -14.36 v -6.29 h 36.04 v 6.29 h -14.28 v 42.18 z"
       fill="#ffffff"
       id="path4" />
    <path
       d="m 318.76,512.11 v -48.47 h 28.64 v 6.22 h -21.24 v 15.02 h 18.06 v 6.29 h -18.06 v 20.94 z"
       fill="#ffffff"
       id="path5" />
    <path
       d="m 373.59,513 c -4.14,0 -7.8,-1.02 -10.95,-3.07 -3.16,-2.05 -5.64,-4.97 -7.44,-8.77 -1.8,-3.8 -2.7,-8.29 -2.7,-13.47 0,-5.18 0.9,-9.71 2.7,-13.43 1.8,-3.72 4.28,-6.57 7.44,-8.55 3.16,-1.97 6.81,-2.96 10.95,-2.96 4.14,0 7.79,0.99 10.95,2.96 3.16,1.97 5.64,4.82 7.44,8.55 1.8,3.73 2.7,8.2 2.7,13.43 0,5.23 -0.9,9.67 -2.7,13.47 -1.8,3.8 -4.28,6.72 -7.44,8.77 -3.16,2.05 -6.81,3.07 -10.95,3.07 z m 0,-6.52 c 2.71,0 5.07,-0.76 7.07,-2.29 2,-1.53 3.55,-3.71 4.66,-6.55 1.11,-2.84 1.67,-6.15 1.67,-9.95 0,-3.8 -0.55,-7.14 -1.67,-9.88 -1.11,-2.74 -2.66,-4.86 -4.66,-6.36 -2,-1.5 -4.35,-2.26 -7.07,-2.26 -2.72,0 -5.08,0.75 -7.1,2.26 -2.02,1.51 -3.59,3.63 -4.7,6.36 -1.11,2.74 -1.67,6.03 -1.67,9.88 0,3.85 0.55,7.12 1.67,9.95 1.11,2.84 2.67,5.02 4.7,6.55 2.02,1.53 4.39,2.29 7.1,2.29 z"
       fill="#ffffff"
       id="path6" />
    <path
       d="m 404.67,512.11 v -48.47 h 15.76 c 3.35,0 6.34,0.43 8.95,1.29 2.61,0.86 4.69,2.33 6.22,4.4 1.53,2.07 2.29,4.84 2.29,8.29 0,3.45 -0.77,6.12 -2.29,8.29 -1.53,2.17 -3.6,3.8 -6.22,4.88 -2.62,1.08 -5.6,1.63 -8.95,1.63 h -8.36 v 19.68 h -7.4 z m 7.4,-25.68 h 7.47 c 3.6,0 6.34,-0.73 8.21,-2.18 1.87,-1.45 2.81,-3.66 2.81,-6.62 0,-2.96 -0.94,-5.04 -2.81,-6.25 -1.88,-1.21 -4.61,-1.81 -8.21,-1.81 h -7.47 v 16.87 z m 19.17,25.68 -12.21,-21.68 5.55,-4.22 14.95,25.9 z"
       fill="#ffffff"
       id="path7" />
    <path
       d="m 447.66,512.11 v -48.47 h 9.1 l 8.66,24.79 c 0.59,1.58 1.13,3.16 1.63,4.74 0.49,1.58 0.96,3.26 1.41,5.03 h 0.3 c 0.49,-1.78 0.97,-3.45 1.44,-5.03 0.47,-1.58 0.95,-3.16 1.44,-4.74 l 8.73,-24.79 h 9.03 v 48.47 h -6.88 v -24.35 c 0,-1.48 0.05,-3.16 0.15,-5.03 0.1,-1.87 0.23,-3.74 0.41,-5.59 0.17,-1.85 0.36,-3.52 0.55,-5 h -0.3 l -3.85,12.06 -8.44,23.24 h -5.18 l -8.44,-23.24 -3.77,-12.06 h -0.3 c 0.2,1.48 0.37,3.14 0.52,5 0.15,1.85 0.27,3.71 0.37,5.59 0.1,1.88 0.15,3.55 0.15,5.03 v 24.35 z"
       fill="#ffffff"
       id="path8" />
  </g>
  <g
     id="g12"
     transform="translate(-156.92,-99.79)">
    <rect
       x="209.57001"
       y="514.37"
       width="228.00999"
       height="69.32"
       fill="none"
       id="rect8" />
    <path
       d="m 242.78,564.36 v -46.18 h 8.67 l 8.25,23.62 c 0.56,1.5 1.08,3.01 1.55,4.51 0.47,1.5 0.92,3.1 1.34,4.79 h 0.28 c 0.47,-1.69 0.93,-3.29 1.38,-4.79 0.45,-1.5 0.9,-3.01 1.38,-4.51 l 8.32,-23.62 h 8.6 v 46.18 h -6.56 v -23.2 c 0,-1.41 0.05,-3.01 0.14,-4.79 0.09,-1.78 0.22,-3.56 0.39,-5.32 0.16,-1.76 0.34,-3.35 0.53,-4.76 h -0.28 l -3.67,11.49 -8.04,22.14 h -4.94 l -8.04,-22.14 -3.6,-11.49 h -0.28 c 0.19,1.41 0.35,3 0.49,4.76 0.14,1.76 0.26,3.54 0.35,5.32 0.09,1.79 0.14,3.38 0.14,4.79 v 23.2 h -6.42 z"
       fill="#ffffff"
       id="path9" />
    <path
       d="m 294.67,564.36 v -46.18 h 27.21 v 5.92 h -20.16 v 13.18 h 17.06 v 5.92 h -17.06 v 15.23 h 20.87 v 5.92 h -27.92 z"
       fill="#ffffff"
       id="path10" />
    <path
       d="m 345.36,565.2 c -3.24,0 -6.25,-0.6 -9.03,-1.8 -2.77,-1.2 -5.24,-2.88 -7.4,-5.04 l 3.88,-4.58 c 1.64,1.65 3.58,2.94 5.82,3.88 2.23,0.94 4.52,1.41 6.87,1.41 2.82,0 4.99,-0.62 6.52,-1.87 1.53,-1.24 2.29,-2.88 2.29,-4.9 0,-1.41 -0.32,-2.55 -0.95,-3.42 -0.63,-0.87 -1.52,-1.6 -2.64,-2.19 -1.13,-0.59 -2.4,-1.19 -3.81,-1.8 l -6.49,-2.82 c -1.5,-0.66 -2.97,-1.5 -4.41,-2.54 -1.43,-1.03 -2.62,-2.33 -3.56,-3.88 -0.94,-1.55 -1.41,-3.46 -1.41,-5.71 0,-2.4 0.65,-4.55 1.94,-6.45 1.29,-1.9 3.07,-3.41 5.32,-4.51 2.25,-1.1 4.87,-1.66 7.83,-1.66 2.77,0 5.36,0.52 7.76,1.55 2.4,1.03 4.44,2.4 6.13,4.09 l -3.74,4.58 c -1.46,-1.27 -3.04,-2.27 -4.76,-3 -1.71,-0.73 -3.51,-1.09 -5.39,-1.09 -2.4,0 -4.32,0.54 -5.78,1.62 -1.46,1.08 -2.19,2.56 -2.19,4.44 0,1.36 0.36,2.47 1.09,3.31 0.73,0.85 1.68,1.55 2.86,2.12 1.18,0.56 2.37,1.13 3.6,1.69 l 6.42,2.75 c 1.83,0.75 3.46,1.66 4.87,2.71 1.41,1.06 2.51,2.36 3.31,3.91 0.8,1.55 1.2,3.46 1.2,5.71 0,2.49 -0.63,4.76 -1.9,6.8 -1.27,2.04 -3.12,3.67 -5.54,4.86 -2.42,1.2 -5.32,1.8 -8.71,1.8 z"
       fill="#ffffff"
       id="path11" />
    <path
       d="m 370.18,564.36 v -46.18 h 7.05 v 18.97 h 20.09 v -18.97 h 7.05 v 46.18 h -7.05 v -21.08 h -20.09 v 21.08 z"
       fill="#ffffff"
       id="path12" />
  </g>
  <g
     id="g48"
     transform="translate(-156.92,-99.79)">
    <path
       d="m 389.34,194.88 c 7.67,13.26 13.35,28 16.95,44.12 0.89,3.97 1.6,7.91 2.15,11.84 4.51,1.36 8.08,4.88 9.49,9.37 21.48,-3.12 44.97,-6.2 54.98,-7.5 0.12,-3.26 1.11,-6.29 2.74,-8.87 -10.26,-8.8 -24.42,-19.11 -40.78,-28.47 -12.18,-6.97 -27.89,-14.72 -45.53,-20.48 z"
       fill="#ffffff"
       id="path13" />
    <path
       d="m 270.05,126.4 c -6.34,-0.47 -12.54,-0.5 -18.44,-0.07 -7.5,0.55 -14.29,1.84 -19.98,3.74 -0.25,0.18 -0.5,0.35 -0.74,0.52 10.99,-2.79 22.5,-4.27 34.35,-4.27 1.61,0 3.21,0.03 4.81,0.08 z"
       fill="#ffffff"
       id="path14" />
    <path
       d="m 278.26,404.34 c -0.03,-0.11 -0.05,-0.23 -0.07,-0.34 -4.26,0.39 -8.58,0.6 -12.94,0.6 -9.81,0 -19.39,-1.02 -28.62,-2.95 0.81,0.53 1.63,1.06 2.45,1.58 12.28,2.51 25.5,2.89 39.19,1.12 z"
       fill="#ffffff"
       id="path15" />
    <path
       d="m 332.91,126.44 c 5.48,0.71 12.54,1.88 20.7,3.8 17.85,4.2 44.45,12.95 69.82,30.79 19.48,13.7 35.49,30.36 47.59,49.51 6.17,9.77 10.44,18.9 13.1,26.25 1.41,-0.56 2.91,-0.95 4.47,-1.14 -6.8,-38.9 -27.28,-73.1 -56.3,-97.45 -13.36,-4.5 -33.21,-9.07 -55.42,-11.2 -12.43,-1.19 -27.7,-1.81 -43.96,-0.56 z"
       fill="#ffffff"
       id="path16" />
    <path
       d="m 298.9,127.35 c 1.58,-6.9 7.75,-12.05 15.13,-12.05 5.72,0 10.71,3.09 13.4,7.69 18.45,-1.85 35.87,-1.23 49.8,0.11 14.12,1.35 28.47,3.8 41.49,7.08 1.72,0.43 3.4,0.88 5.05,1.33 -27.2,-19.94 -60.77,-31.72 -97.08,-31.72 -31.22,0 -60.41,8.71 -85.27,23.82 3.12,-0.54 6.43,-0.94 9.89,-1.19 14.83,-1.09 31.52,0.66 47.58,4.92 z"
       fill="#ffffff"
       id="path17" />
    <path
       d="m 364.13,363.33 c 5.77,-5.44 11.02,-11.28 15.69,-17.43 -0.24,-0.15 -0.49,-0.29 -0.73,-0.44 -4.49,6.37 -9.49,12.35 -14.96,17.87 z"
       fill="#ffffff"
       id="path18" />
    <path
       d="m 410.69,277.23 c -0.37,0.18 -0.75,0.35 -1.13,0.5 -0.76,12.54 -3.35,24.77 -7.76,36.59 -3.98,10.66 -9.47,20.9 -16.29,30.46 15.63,9.54 28.59,19.08 38.72,28.48 3.18,-3.49 7.73,-5.7 12.8,-5.81 -0.62,-11.51 -2.31,-29.24 -6.86,-47.25 -4.68,-18.54 -11.23,-32.97 -19.47,-42.98 z"
       fill="#ffffff"
       id="path19" />
    <path
       d="m 404.34,250.23 c 0,0 0.04,0 0.06,0 -0.51,-3.44 -1.15,-6.9 -1.93,-10.38 -1.18,-5.29 -2.59,-10.42 -4.23,-15.4 2.55,8.3 4.35,16.92 5.32,25.8 0.26,-0.01 0.52,-0.02 0.78,-0.02 z"
       fill="#ffffff"
       id="path20" />
    <path
       d="m 403.75,278.71 c -2.2,23.34 -10.17,45 -22.47,63.54 0,0 0,0 0,0 0.28,0.17 0.56,0.34 0.85,0.51 6.7,-9.36 12.1,-19.38 15.99,-29.8 4.14,-11.08 6.62,-22.54 7.44,-34.29 -0.4,0.03 -0.81,0.06 -1.23,0.06 -0.2,0 -0.39,0 -0.59,-0.01 z"
       fill="#ffffff"
       id="path21" />
    <path
       d="m 350.03,412.01 c -6.2,0 -12.38,-0.32 -18.5,-0.95 -9.45,-0.98 -18.78,-2.72 -27.95,-5.21 -1.82,5.12 -6.7,8.79 -12.44,8.79 -4.86,0 -9.1,-2.63 -11.4,-6.54 -6.15,0.84 -12.22,1.26 -18.15,1.26 -4.51,0 -8.95,-0.24 -13.29,-0.73 23.3,12.67 50.01,19.88 78.41,19.88 36.04,0 69.37,-11.6 96.46,-31.27 -8.43,3.6 -22.24,8.59 -39.88,11.77 -11.1,2 -22.23,3 -33.26,3 z"
       fill="#ffffff"
       id="path22" />
    <path
       d="m 448.25,288.57 c -10.27,-7.69 -20.9,-13.59 -31.31,-17.45 -0.77,1.46 -1.79,2.77 -3,3.88 8.52,10.46 15.25,25.3 20.03,44.24 4.7,18.61 6.4,36.89 7,48.56 3.53,0.71 6.68,2.47 9.12,4.93 13.05,-14.82 23.47,-32 30.54,-50.83 -8.2,-12.02 -19.61,-23.79 -32.37,-33.34 z"
       fill="#ffffff"
       id="path23" />
    <path
       d="m 490.73,271.2 c -8.74,0 -16.01,-6.29 -17.54,-14.58 -10.1,1.31 -33.34,4.36 -54.62,7.45 0,0.14 0.01,0.27 0.01,0.41 0,1.02 -0.11,2.01 -0.31,2.96 10.77,3.99 21.75,10.08 32.32,17.99 12.28,9.19 23.35,20.39 31.64,31.96 4.99,-14.58 7.99,-30.09 8.67,-46.19 -0.06,0 -0.12,0 -0.18,0 z"
       fill="#ffffff"
       id="path24" />
    <path
       d="m 327.76,138.1 c 14.37,7.02 27.4,16.13 38.43,26.94 7.65,7.5 14.35,15.77 20.07,24.77 19.69,5.97 37.21,14.53 50.55,22.16 16.49,9.43 30.82,19.86 41.27,28.81 0.78,-0.78 1.63,-1.49 2.54,-2.12 -2.23,-6.33 -6.15,-15.33 -12.92,-26.03 -11.66,-18.45 -27.75,-35.18 -46.54,-48.4 -24.83,-17.46 -50.88,-26.04 -68.36,-30.16 -9.5,-2.24 -17.56,-3.44 -23.27,-4.09 0.01,0.28 0.02,0.56 0.02,0.84 0,2.63 -0.65,5.1 -1.81,7.27 z"
       fill="#ffffff"
       id="path25" />
    <path
       d="m 361.76,370.75 c -16.22,13.99 -35.9,24.94 -56.41,31.51 8.69,2.32 17.54,3.95 26.49,4.89 16.62,1.73 33.65,1.07 50.61,-1.97 16.21,-2.91 30.1,-7.69 39.19,-11.54 -1.32,-2.49 -2.07,-5.33 -2.07,-8.35 0,-3.21 0.85,-6.23 2.34,-8.83 -10.11,-9.44 -23.16,-19.03 -38.71,-28.52 -6.2,8.21 -13.39,15.87 -21.44,22.82 z"
       fill="#ffffff"
       id="path26" />
    <path
       d="m 341.94,186.19 c -17.09,-0.44 -34.01,1.47 -50.64,5.69 0,0.41 -0.03,0.81 -0.08,1.21 12.61,1.79 32.87,7.38 53.93,17 31.68,14.48 47.09,29.61 54.58,40.91 1.21,-0.41 2.49,-0.67 3.82,-0.74 -0.96,-8.88 -2.76,-17.5 -5.32,-25.8 -3.7,-11.26 -8.54,-21.71 -14.51,-31.32 -13.19,-3.89 -27.33,-6.57 -41.79,-6.94 z"
       fill="#ffffff"
       id="path27" />
    <path
       d="m 396.21,252.78 c -4.65,-6.9 -11.35,-13.66 -19.99,-20.16 -9.09,-6.83 -20.09,-13.21 -32.7,-18.98 -20.2,-9.23 -40.86,-15.06 -53.39,-16.76 -0.06,0.13 -0.13,0.26 -0.2,0.39 2.29,2.57 4.44,5.24 6.44,8.03 8.72,12.16 14.42,26.13 16.98,41.58 25.43,0.89 53.23,4.02 78.05,11.64 1.07,-2.32 2.74,-4.3 4.81,-5.74 z"
       fill="#ffffff"
       id="path28" />
    <path
       d="m 398.67,277.55 c -7.68,7.45 -21.36,15.63 -37.29,22.15 -16.65,6.81 -32.41,10.48 -44.57,10.48 -0.1,0 -0.19,0 -0.29,0 0,0.01 0,0.02 0,0.03 23.86,9.99 46.17,21.02 64.77,32.05 12.29,-18.54 20.26,-40.2 22.47,-63.54 -1.8,-0.07 -3.51,-0.48 -5.08,-1.16 z"
       fill="#ffffff"
       id="path29" />
    <path
       d="m 219.21,161.54 c 4.27,0.47 8.56,1.21 12.8,2.2 13.74,-12.31 29.37,-22.09 46.54,-29.11 4.55,-1.86 9.16,-3.47 13.8,-4.86 -7.46,-1.69 -14.98,-2.82 -22.31,-3.37 -1.6,-0.05 -3.2,-0.08 -4.81,-0.08 -11.86,0 -23.36,1.48 -34.35,4.27 -12.25,8.8 -23.23,19.25 -32.64,31.02 6.33,-0.87 13.43,-0.9 20.96,-0.07 z"
       fill="#ffffff"
       id="path30" />
    <path
       d="m 232.54,168.57 c 5.6,1.09 11.03,2.66 16.25,4.65 -5.11,-2.11 -10.36,-3.85 -15.67,-5.18 -0.19,0.18 -0.38,0.35 -0.58,0.53 z"
       fill="#ffffff"
       id="path31" />
    <path
       d="m 315.79,314.14 c -1.21,3.59 -3.8,6.54 -7.15,8.21 3.11,9.09 4.46,20.51 3.74,32.31 -0.89,14.41 -4.77,27.97 -10.98,38.48 1.26,1.56 2.17,3.41 2.62,5.43 20.06,-6.41 39.31,-17.1 55.18,-30.79 1.68,-1.45 3.33,-2.94 4.93,-4.45 5.47,-5.52 10.47,-11.5 14.96,-17.87 -18.15,-10.75 -39.46,-21.32 -63.3,-31.32 z"
       fill="#ffffff"
       id="path32" />
    <path
       d="m 272.55,181.81 c 1.92,-1.31 4.25,-2.08 6.75,-2.08 5.32,0 9.83,3.47 11.4,8.26 16.86,-4.25 34,-6.16 51.33,-5.71 13.24,0.34 26.2,2.56 38.43,5.87 -4.99,-7.3 -10.67,-14.08 -17.02,-20.31 -10.88,-10.66 -23.77,-19.62 -37.98,-26.49 -2.84,3.08 -6.91,5.02 -11.43,5.02 -8.15,0 -14.83,-6.28 -15.47,-14.27 -6.24,1.65 -12.44,3.68 -18.52,6.17 -15.93,6.51 -30.5,15.46 -43.42,26.65 8.98,2.48 17.75,6.06 25.95,10.63 3.48,1.94 6.81,4.03 9.98,6.27 z"
       fill="#ffffff"
       id="path33" />
    <path
       d="m 278.18,404 c -0.16,-0.83 -0.25,-1.69 -0.25,-2.57 0,-1.53 0.26,-3.01 0.75,-4.37 -2.9,-1.27 -5.78,-2.61 -8.63,-4.04 -12.4,-6.2 -24.39,-15.24 -35.64,-26.86 -0.09,-0.1 -0.18,-0.19 -0.28,-0.29 -7.47,1.5 -15.2,2.26 -23.01,2.26 -4.06,0 -8.14,-0.21 -12.21,-0.61 10.71,13.23 23.43,24.76 37.71,34.13 9.24,1.93 18.81,2.95 28.62,2.95 4.36,0 8.68,-0.2 12.94,-0.6 z"
       fill="#ffffff"
       id="path34" />
    <path
       d="m 212.75,364.19 c -6.07,-0.05 -12.02,-0.64 -17.78,-1.74 0.18,0.24 0.37,0.48 0.55,0.72 5.75,0.76 11.52,1.1 17.23,1.02 z"
       fill="#ffffff"
       id="path35" />
    <path
       d="m 291.13,388.23 c 2.7,0 5.21,0.81 7.31,2.21 11.61,-20.23 12.66,-48.82 6.48,-66.84 -0.86,0.16 -1.74,0.25 -2.64,0.25 -1.23,0 -2.42,-0.16 -3.55,-0.45 -3.99,6.06 -8.68,11.67 -14.07,16.76 -11.58,10.94 -26.15,19.13 -42.16,23.68 -1.27,0.36 -2.55,0.7 -3.83,1.01 9.49,9.57 20.55,18.36 33.13,24.65 2.88,1.44 5.79,2.8 8.72,4.07 2.4,-3.25 6.26,-5.35 10.62,-5.35 z"
       fill="#ffffff"
       id="path36" />
    <path
       d="m 227.7,167.75 c 0.14,-0.14 0.28,-0.28 0.42,-0.41 0.12,-0.12 0.25,-0.24 0.37,-0.35 -3.23,-0.67 -6.48,-1.19 -9.72,-1.55 -8.92,-0.99 -17.16,-0.71 -24.07,0.75 -0.68,0.91 -1.34,1.83 -2,2.75 6.71,-1.44 13.67,-2.21 20.82,-2.21 4.81,0 9.54,0.35 14.17,1.02 z"
       fill="#ffffff"
       id="path37" />
    <path
       d="m 316.13,306.25 c 11.69,0.16 27.23,-3.42 43.77,-10.19 14.81,-6.06 27.91,-13.78 35.32,-20.65 -3.13,-2.61 -5.12,-6.54 -5.12,-10.94 0,-0.75 0.06,-1.48 0.17,-2.2 -24.22,-7.44 -51.38,-10.55 -76.33,-11.45 0.1,0.77 0.19,1.55 0.28,2.33 1.73,15.91 0.43,31.04 -3.69,44.84 2.76,1.96 4.79,4.88 5.61,8.27 z"
       fill="#ffffff"
       id="path38" />
    <path
       d="m 302.28,295.36 c 1.64,0 3.22,0.28 4.69,0.79 3.81,-13.12 4.98,-27.48 3.34,-42.58 -0.1,-0.96 -0.22,-1.92 -0.35,-2.88 -13.4,-0.37 -26.06,-0.13 -37.18,0.39 -34.11,1.58 -64.21,6.2 -79.44,9.8 0.26,1.21 0.4,2.46 0.4,3.75 0,3.11 -0.81,6.03 -2.21,8.57 25.94,3.27 62.79,13.29 99.95,27.12 2.61,-3.03 6.48,-4.96 10.8,-4.96 z"
       fill="#ffffff"
       id="path39" />
    <path
       d="m 234.37,211.54 c 10.97,-6.51 22.14,-11.94 33.46,-16.29 -0.34,-1.12 -0.53,-2.3 -0.53,-3.53 0,-2.68 0.88,-5.15 2.36,-7.15 -2.87,-1.99 -5.87,-3.87 -9,-5.62 -3.84,-2.14 -7.82,-4.06 -11.88,-5.74 -5.22,-2 -10.65,-3.56 -16.25,-4.65 -0.55,0.51 -1.1,1.02 -1.64,1.54 -11.44,10.93 -21.48,23.76 -29.83,38.14 -10.05,17.29 -15.23,32.73 -17.42,40.4 0.68,0.32 1.33,0.69 1.95,1.09 10.36,-10.58 26.7,-25.1 48.77,-38.19 z"
       fill="#ffffff"
       id="path40" />
    <path
       d="m 309.36,246.76 c -2.52,-14.55 -7.94,-27.7 -16.17,-39.17 -1.77,-2.47 -3.67,-4.84 -5.67,-7.13 -2.15,2.02 -5.04,3.26 -8.22,3.26 -3.99,0 -7.52,-1.95 -9.71,-4.95 -11.24,4.3 -22.33,9.67 -33.23,16.14 -21.53,12.77 -37.51,26.92 -47.71,37.29 1.41,1.43 2.58,3.1 3.44,4.94 14.74,-3.52 44.32,-8.31 80.51,-9.98 11,-0.51 23.51,-0.75 36.75,-0.41 z"
       fill="#ffffff"
       id="path41" />
    <path
       d="m 250.86,356.89 c 17.82,-7.28 33.03,-19.62 43.85,-35.23 -4.01,-2.52 -6.67,-6.98 -6.67,-12.06 0,-2.11 0.46,-4.11 1.28,-5.91 -37.69,-13.98 -74.92,-23.98 -100.46,-26.87 -0.65,0.69 -1.36,1.32 -2.11,1.89 4.59,13.68 13.06,32.68 24.23,50.61 6.14,9.87 14.35,21.42 24.52,32.25 2,-0.44 3.98,-0.94 5.93,-1.5 3.21,-0.91 6.35,-1.98 9.42,-3.18 z"
       fill="#ffffff"
       id="path42" />
    <path
       d="m 176.05,246.93 c 1.33,0 2.62,0.15 3.86,0.43 2.26,-7.91 7.47,-23.34 17.69,-40.96 8.43,-14.54 18.56,-27.53 30.1,-38.65 -4.63,-0.67 -9.36,-1.02 -14.17,-1.02 -7.14,0 -14.1,0.77 -20.82,2.21 -17.1,24.03 -27.9,52.85 -29.99,84.06 3.24,-3.72 8.01,-6.07 13.33,-6.07 z"
       fill="#ffffff"
       id="path43" />
    <path
       d="m 230.96,362.48 c -8.25,-9.04 -16.07,-19.47 -23.31,-31.08 -11.1,-17.83 -19.59,-36.75 -24.34,-50.64 -2.22,1 -4.67,1.56 -7.26,1.56 -5.28,0 -10.02,-2.31 -13.26,-5.98 2.36,32.16 13.96,61.75 32.17,86.11 5.77,1.1 11.71,1.69 17.78,1.74 6.16,-0.09 12.26,-0.66 18.21,-1.71 z"
       fill="#ffffff"
       id="path44" />
    <path
       d="m 289.53,196.81 c 0.14,0.15 0.27,0.31 0.41,0.47 0.07,-0.13 0.13,-0.26 0.2,-0.39 -0.21,-0.03 -0.4,-0.05 -0.61,-0.08 z"
       fill="#ffffff"
       id="path45" />
    <path
       d="m 316.51,310.2 c 0,0 0,-0.02 0,-0.03 -0.03,0 -0.06,0 -0.08,0 0.03,0.01 0.06,0.02 0.08,0.03 z"
       fill="#ffffff"
       id="path46" />
    <path
       d="m 241.44,360.08 c -1.96,0.56 -3.93,1.06 -5.93,1.5 0.04,0.05 0.09,0.09 0.13,0.14 5.25,-1.2 10.33,-2.82 15.23,-4.82 -3.07,1.21 -6.22,2.27 -9.42,3.18 z"
       fill="#ffffff"
       id="path47" />
    <path
       d="m 212.75,364.19 c 0.26,0 0.52,0 0.78,0 6,0 11.87,-0.54 17.58,-1.56 -0.05,-0.05 -0.1,-0.1 -0.15,-0.16 -5.95,1.05 -12.05,1.62 -18.21,1.71 z"
       fill="#ffffff"
       id="path48" />
  </g>
</svg>
