<?xml version="1.0" encoding="UTF-8"?>
<svg id="a" data-name="Layer 1" xmlns="http://www.w3.org/2000/svg" width="932.74" height="180.7" xmlns:xlink="http://www.w3.org/1999/xlink" viewBox="0 0 932.74 180.7">
  <defs>
    <linearGradient id="b" x1="819.79" y1="53.99" x2="882.97" y2="62.53" gradientUnits="userSpaceOnUse">
      <stop offset="0" stop-color="#0f6bff"/>
      <stop offset=".23" stop-color="#0f6afc"/>
      <stop offset=".35" stop-color="#1068f4"/>
      <stop offset=".45" stop-color="#1364e6"/>
      <stop offset=".54" stop-color="#165fd3"/>
      <stop offset=".62" stop-color="#1b58b9"/>
      <stop offset=".69" stop-color="#204f9a"/>
      <stop offset=".76" stop-color="#274575"/>
      <stop offset=".82" stop-color="#2e394c"/>
      <stop offset=".85" stop-color="#333"/>
    </linearGradient>
    <linearGradient id="c" x1="-8786.98" y1="53.99" x2="-8723.79" y2="62.53" gradientTransform="translate(-7874.5782) scale(-1 1)" xlink:href="#b"/>
  </defs>
  <path d="M803.97,110.45h38.65c19.95,0,21.85-31.78,21.83-50.68l1.64-58.12-62.13,108.79Z" fill="url(#b)"/>
  <path d="M928.22,110.45h-38.65c-19.95,0-21.85-31.78-21.83-50.68l-1.64-58.12,62.13,108.79Z" fill="url(#c)"/>
  <g>
    <g>
      <path d="M199.09,30.41c-12.34,0-23.33,5.59-30.75,14.27-.68-.87-1.45-1.64-2.22-2.41-2.31-2.31-4.92-4.34-7.62-5.98-6.36-3.86-13.69-5.78-20.92-5.88h0c-10.31,0-20.73,3.95-28.54,11.86-7.9,7.9-11.86,18.22-11.86,28.54,0,7.23,1.93,14.56,5.78,20.92,1.64,2.7,3.66,5.3,5.98,7.62,2.31,2.31,4.92,4.34,7.62,5.98,15.52,9.45,36.15,7.42,49.55-5.98.77-.77,1.54-1.64,2.22-2.41,7.42,8.68,18.41,14.27,30.75,14.27,22.27,0,40.39-18.12,40.39-40.39s-18.12-40.39-40.39-40.39h0ZM116.37,70.8c0-5.4,2.03-10.8,6.17-14.94,4.15-4.15,9.55-6.17,14.94-6.17h0c2.22,0,4.43.38,6.56,1.06l-16.68,16.68-9.93,9.93c-.68-2.12-1.06-4.34-1.06-6.56h0ZM152.53,85.74c-5.78,5.78-14.17,7.52-21.5,5.21l10.31-10.31,16.29-16.29,1.93-1.93c-.58,2.7-.87,5.59-.87,8.48,0,5.4-2.03,10.8-6.17,14.94v-.1h0ZM199.09,92.01c-11.67,0-21.21-9.45-21.21-21.21s9.45-21.21,21.21-21.21,21.21,9.45,21.21,21.21-9.45,21.21-21.21,21.21Z" fill="#333"/>
      <polygon points="65.67 63.96 25.95 2.35 2.81 2.35 2.81 110.52 25.95 110.52 25.95 42.84 69.23 110.52 88.9 110.52 88.9 2.35 65.67 2.35 65.67 63.96" fill="#333"/>
      <polygon points="315.74 63.96 276.02 2.35 252.88 2.35 252.88 110.52 276.02 110.52 276.02 42.84 319.31 110.52 338.88 110.52 338.88 2.35 315.74 2.35 315.74 63.96" fill="#0f6bff"/>
      <path d="M407.61,36.58c-5.78-3.57-12.44-5.3-19.86-5.3s-14.75,1.74-20.82,5.21c-6.07,3.47-10.8,8.29-14.17,14.36-3.37,6.07-5.11,12.92-5.11,20.34s1.74,14.27,5.21,20.34c3.47,6.07,8.29,10.89,14.56,14.36,6.27,3.47,13.5,5.21,21.79,5.21s13.78-1.35,19.38-4.15c5.59-2.7,10.22-6.65,13.78-11.86l-16.39-9.74c-1.74,2.22-4.05,4.05-7.04,5.3-2.99,1.35-6.07,2.03-9.16,2.03-5.21,0-9.35-1.16-12.63-3.37-3.28-2.31-5.78-5.78-7.71-10.41h56.3c.38-2.31.58-4.92.58-7.71,0-7.42-1.64-14.17-4.82-20.24-3.28-6.07-7.81-10.89-13.59-14.46l-.29.1h0ZM368.86,62.12c.19-3.37,2.12-6.17,5.78-8.58,3.66-2.41,8-3.57,12.92-3.57s8.77,1.06,12.05,3.18c3.28,2.12,5.3,5.11,5.98,8.97h-36.83.1Z" fill="#0f6bff"/>
      <path d="M502.57,36.48c-5.78-3.47-12.72-5.21-20.82-5.21s-8.29.68-12.24,2.12c-3.95,1.35-7.62,3.37-11.09,5.98v-5.98h-22.08v108.17h22.08v-36.63c3.37,2.6,7.13,4.53,11.09,5.98,4.05,1.35,8.1,2.12,12.24,2.12,8,0,14.94-1.74,20.82-5.3,5.78-3.57,10.31-8.39,13.4-14.56,3.09-6.17,4.63-13.21,4.63-21.02s-1.54-14.85-4.63-20.92c-3.09-6.17-7.52-10.99-13.4-14.46v-.29h0ZM492.93,86.03c-3.66,3.57-8.39,5.3-14.17,5.3s-10.7-1.74-14.56-5.3c-3.86-3.57-5.78-8.19-5.78-13.98s1.93-10.51,5.88-14.17c3.95-3.66,8.77-5.59,14.56-5.59s10.51,1.83,14.17,5.4c3.66,3.57,5.5,8.39,5.5,14.17s-1.83,10.61-5.5,14.17h-.1Z" fill="#0f6bff"/>
      <path d="M583.17,34.55c-4.63-1.93-9.06-2.89-13.5-2.89-6.56,0-12.72,2.41-18.41,7.13V2.36h-22.08v108.17h22.08v-47.24c.58-4.24,2.12-7.33,4.43-9.35,2.41-2.03,5.11-2.99,8.39-2.99s7.13,1.06,9.93,3.28c2.8,2.22,4.15,5.78,4.15,10.7v45.6h22.08v-46.18c-.1-8.19-1.83-14.75-5.21-19.67-3.37-4.82-7.33-8.19-11.86-10.12h0Z" fill="#0f6bff"/>
      <path d="M668.77,36.58c-6.07-3.57-12.72-5.4-19.86-5.4s-13.98,1.83-20.05,5.4c-6.07,3.57-10.99,8.39-14.56,14.56-3.57,6.07-5.4,12.82-5.4,20.05s1.83,13.78,5.4,19.96c3.57,6.17,8.39,10.99,14.56,14.56,6.07,3.57,12.82,5.4,20.05,5.4s13.78-1.83,19.86-5.4c6.07-3.57,10.89-8.48,14.56-14.56,3.57-6.17,5.4-12.82,5.4-19.96s-1.83-13.98-5.4-20.05c-3.57-6.07-8.39-10.89-14.56-14.56h0ZM661.74,84.11c-3.66,3.57-8,5.4-13.02,5.4s-9.35-1.83-12.92-5.4c-3.57-3.57-5.4-7.9-5.4-12.92s1.83-9.35,5.4-13.02c3.57-3.66,7.9-5.4,12.92-5.4s9.35,1.83,13.02,5.4c3.66,3.66,5.4,8,5.4,13.02s-1.83,9.35-5.4,12.92Z" fill="#0f6bff"/>
      <path d="M760.07,72.44c-2.99-3.37-6.46-5.78-10.31-7.23-3.95-1.45-8.87-2.8-14.85-4.05-4.63-.87-8-1.83-10.12-2.6-2.12-.87-3.18-2.12-3.18-3.86s.87-3.47,2.6-4.63c1.74-1.16,4.05-1.74,6.94-1.74s5.98.58,8.1,1.83c2.03,1.25,3.66,3.09,4.92,5.59l17.55-8.58c-2.99-5.11-7.23-9.06-12.53-11.76-5.3-2.7-11.37-4.05-18.03-4.05s-10.89.96-15.62,2.89c-4.82,1.93-8.58,4.72-11.37,8.39-2.8,3.66-4.24,8-4.24,12.92s1.45,9.25,4.24,12.34c2.8,3.09,6.17,5.3,10.12,6.84,3.95,1.45,8.87,2.89,14.65,4.15,5.11,1.16,8.87,2.22,11.28,3.18,2.41.96,3.57,2.51,3.57,4.53s-1.25,4.15-3.86,5.4c-2.6,1.25-5.59,1.93-8.97,1.93-8.39,0-13.78-3.18-16.2-9.64l-17.74,9.06c2.89,5.88,7.23,10.22,13.02,13.21,5.78,2.99,12.72,4.43,20.92,4.43s11.47-.96,16.68-2.8c5.11-1.83,9.25-4.63,12.44-8.29,3.09-3.66,4.72-8.1,4.72-13.21s-1.45-10.61-4.43-13.98l-.29-.29h0Z" fill="#0f6bff"/>
      <path d="M171.72,138.06c-1.69-1.33-3.5-2.23-5.43-2.7-1.93-.47-3.65-.7-5.14-.7-2.43,0-4.62.51-6.55,1.53-1.93,1.02-3.59,2.25-4.97,3.69v-4.15h-8.7v41.46h8.7v-23.22c0-2.27.29-4.15.87-5.64.58-1.49,1.34-2.68,2.28-3.56.94-.88,1.97-1.5,3.11-1.87,1.13-.36,2.23-.54,3.27-.54,1.11,0,2.24.15,3.4.46,1.16.3,2.23.84,3.19,1.62.97.78,1.77,1.8,2.4,3.07.64,1.27.95,2.9.95,4.89v24.79h8.7v-24.79c0-3.65-.6-6.62-1.78-8.91-1.19-2.29-2.63-4.1-4.31-5.43h0ZM3.28,177.2h9.2v-24.29h23.71v-8.7H12.48v-16.34h24.71v-8.71H3.28v58.04ZM80.18,141.13c-1.96-1.99-4.27-3.55-6.92-4.68-2.65-1.13-5.47-1.7-8.46-1.7s-5.8.57-8.46,1.7c-2.65,1.13-4.96,2.7-6.92,4.68-1.96,1.99-3.51,4.3-4.64,6.92-1.13,2.63-1.7,5.43-1.7,8.42s.57,5.8,1.7,8.46c1.13,2.65,2.68,4.97,4.64,6.96,1.96,1.99,4.27,3.55,6.92,4.68,2.65,1.13,5.47,1.7,8.46,1.7s5.8-.57,8.46-1.7c2.65-1.13,4.96-2.7,6.92-4.68,1.96-1.99,3.51-4.31,4.64-6.96,1.13-2.65,1.7-5.47,1.7-8.46s-.57-5.79-1.7-8.42c-1.13-2.62-2.68-4.93-4.64-6.92ZM76.78,161.57c-.69,1.58-1.62,2.96-2.78,4.15-1.16,1.19-2.53,2.13-4.1,2.82-1.58.69-3.27,1.04-5.1,1.04s-3.52-.34-5.1-1.04c-1.58-.69-2.96-1.63-4.15-2.82-1.19-1.19-2.13-2.57-2.82-4.15-.69-1.58-1.04-3.28-1.04-5.1s.34-3.52,1.04-5.1c.69-1.58,1.63-2.94,2.82-4.1,1.19-1.16,2.57-2.09,4.15-2.78,1.58-.69,3.27-1.04,5.1-1.04s3.52.34,5.1,1.04c1.58.69,2.94,1.62,4.1,2.78,1.16,1.16,2.09,2.53,2.78,4.1.69,1.58,1.04,3.27,1.04,5.1s-.34,3.52-1.04,5.1ZM123.09,158.87c0,2.27-.3,4.15-.91,5.64-.61,1.49-1.37,2.68-2.28,3.56-.91.89-1.93,1.51-3.07,1.87-1.13.36-2.25.54-3.36.54s-2.17-.15-3.36-.46c-1.19-.3-2.25-.83-3.19-1.58-.94-.75-1.73-1.76-2.36-3.03s-.95-2.9-.95-4.89v-24.79h-8.71v24.79c0,3.65.59,6.62,1.78,8.91,1.19,2.29,2.62,4.1,4.31,5.43,1.69,1.33,3.5,2.23,5.43,2.7,1.93.47,3.65.7,5.14.7,2.38,0,4.53-.51,6.47-1.53,1.93-1.02,3.62-2.25,5.06-3.69v4.15h8.7v-41.46h-8.7v23.13h0ZM268.27,141.46c-1.49-1.99-3.35-3.61-5.56-4.85-2.21-1.25-4.81-1.87-7.79-1.87-3.15,0-5.98.55-8.5,1.66-2.52,1.11-4.66,2.64-6.43,4.6-1.77,1.96-3.14,4.27-4.11,6.92-.97,2.65-1.45,5.53-1.45,8.62s.48,5.89,1.45,8.54c.97,2.65,2.33,4.96,4.11,6.92,1.77,1.96,3.91,3.5,6.43,4.6,2.52,1.11,5.35,1.66,8.5,1.66,2.99,0,5.58-.62,7.79-1.87,2.21-1.24,4.06-2.86,5.56-4.85v5.64h8.7v-41.46h-8.7v5.72ZM267.28,161.9c-.66,1.69-1.58,3.14-2.74,4.35-1.16,1.22-2.54,2.17-4.15,2.86-1.6.69-3.35,1.04-5.22,1.04s-3.48-.36-4.97-1.08c-1.49-.72-2.78-1.7-3.86-2.94-1.08-1.24-1.91-2.68-2.49-4.31-.58-1.63-.87-3.38-.87-5.27s.29-3.63.87-5.27c.58-1.63,1.41-3.07,2.49-4.31,1.08-1.25,2.36-2.23,3.86-2.94,1.49-.72,3.15-1.08,4.97-1.08s3.62.33,5.22.99c1.6.66,2.99,1.6,4.15,2.82,1.16,1.22,2.07,2.65,2.74,4.31.66,1.66.99,3.46.99,5.39s-.33,3.74-.99,5.43h0ZM373.37,141.13c-1.96-1.99-4.27-3.55-6.92-4.68-2.65-1.13-5.47-1.7-8.46-1.7s-5.8.57-8.46,1.7c-2.65,1.13-4.96,2.7-6.92,4.68-1.96,1.99-3.51,4.3-4.64,6.92-1.13,2.63-1.7,5.43-1.7,8.42s.57,5.8,1.7,8.46c1.13,2.65,2.68,4.97,4.64,6.96,1.96,1.99,4.27,3.55,6.92,4.68,2.65,1.13,5.47,1.7,8.46,1.7s5.8-.57,8.46-1.7c2.65-1.13,4.96-2.7,6.92-4.68,1.96-1.99,3.51-4.31,4.64-6.96,1.13-2.65,1.7-5.47,1.7-8.46s-.57-5.79-1.7-8.42c-1.13-2.62-2.68-4.93-4.64-6.92ZM369.97,161.57c-.69,1.58-1.62,2.96-2.78,4.15-1.16,1.19-2.53,2.13-4.1,2.82-1.58.69-3.28,1.04-5.1,1.04s-3.52-.34-5.1-1.04c-1.58-.69-2.96-1.63-4.15-2.82-1.19-1.19-2.13-2.57-2.82-4.15-.69-1.58-1.04-3.28-1.04-5.1s.34-3.52,1.04-5.1c.69-1.58,1.63-2.94,2.82-4.1,1.19-1.16,2.57-2.09,4.15-2.78,1.58-.69,3.27-1.04,5.1-1.04s3.52.34,5.1,1.04c1.58.69,2.94,1.62,4.1,2.78,1.16,1.16,2.09,2.53,2.78,4.1.69,1.58,1.04,3.27,1.04,5.1s-.34,3.52-1.04,5.1ZM422.37,143.49c-1.19-2.29-2.63-4.1-4.31-5.43-1.69-1.33-3.5-2.23-5.43-2.7-1.93-.47-3.65-.7-5.14-.7-2.43,0-4.62.51-6.55,1.53-1.93,1.02-3.59,2.25-4.97,3.69v-4.15h-8.7v41.46h8.7v-23.22c0-2.27.29-4.15.87-5.64.58-1.49,1.34-2.68,2.28-3.56.94-.88,1.97-1.5,3.11-1.87,1.13-.36,2.23-.54,3.27-.54,1.11,0,2.24.15,3.4.46,1.16.3,2.23.84,3.19,1.62.97.78,1.77,1.8,2.4,3.07.64,1.27.95,2.9.95,4.89v24.79h8.7v-24.79c0-3.65-.6-6.62-1.78-8.91h0ZM323.83,115.68c-1.33,0-2.47.47-3.44,1.41-.97.94-1.45,2.1-1.45,3.48s.48,2.48,1.45,3.44c.97.97,2.11,1.45,3.44,1.45s2.47-.48,3.44-1.45c.97-.97,1.45-2.11,1.45-3.44s-.48-2.54-1.45-3.48c-.97-.94-2.11-1.41-3.44-1.41ZM305.67,169.49c-1.93,0-3.39-.4-4.35-1.2-.97-.8-1.45-2.36-1.45-4.68v-19.98h9.62v-7.88h-9.62v-13.76l-8.71,2.99v10.78h-8.54v7.88h8.54v20.56c0,2.65.28,4.84.83,6.55.55,1.72,1.34,3.08,2.36,4.11,1.02,1.02,2.29,1.74,3.82,2.16,1.52.42,3.27.62,5.27.62.94,0,1.93-.04,2.99-.13,1.05-.08,2.13-.18,3.23-.29v-8.04c-.78.11-1.48.19-2.11.25-.64.06-1.26.08-1.87.08h0ZM319.43,177.2h8.71v-41.46h-8.71v41.46ZM218.69,141.46c-1.55-1.99-3.41-3.61-5.6-4.85-2.19-1.25-4.77-1.87-7.75-1.87-3.15,0-5.98.55-8.5,1.66-2.52,1.11-4.66,2.64-6.43,4.6-1.77,1.96-3.14,4.27-4.1,6.92-.97,2.65-1.45,5.53-1.45,8.62s.48,5.89,1.45,8.54c.97,2.65,2.33,4.96,4.1,6.92,1.77,1.96,3.91,3.5,6.43,4.6,2.52,1.11,5.35,1.66,8.5,1.66,2.99,0,5.57-.62,7.75-1.87,2.18-1.24,4.05-2.83,5.6-4.77v5.56h8.71v-58.04h-8.71v22.3ZM217.7,161.9c-.66,1.69-1.58,3.14-2.74,4.35-1.16,1.22-2.54,2.17-4.15,2.86-1.6.69-3.35,1.04-5.22,1.04s-3.48-.36-4.97-1.08c-1.49-.72-2.78-1.7-3.86-2.94-1.08-1.24-1.91-2.68-2.49-4.31-.58-1.63-.87-3.38-.87-5.27s.29-3.63.87-5.27c.58-1.63,1.41-3.07,2.49-4.31,1.08-1.24,2.36-2.23,3.86-2.94,1.49-.72,3.15-1.08,4.97-1.08s3.62.33,5.22.99c1.6.66,2.99,1.6,4.15,2.82,1.16,1.22,2.07,2.65,2.74,4.31.66,1.66.99,3.46.99,5.39s-.33,3.74-.99,5.43h0Z" fill="#333"/>
    </g>
    <g>
      <path d="M199.09,30.41c-12.34,0-23.33,5.59-30.75,14.27-.68-.87-1.45-1.64-2.22-2.41-2.31-2.31-4.92-4.34-7.62-5.98-6.36-3.86-13.69-5.78-20.92-5.88h0c-10.31,0-20.73,3.95-28.54,11.86-7.9,7.9-11.86,18.22-11.86,28.54,0,7.23,1.93,14.56,5.78,20.92,1.64,2.7,3.66,5.3,5.98,7.62,2.31,2.31,4.92,4.34,7.62,5.98,15.52,9.45,36.15,7.42,49.55-5.98.77-.77,1.54-1.64,2.22-2.41,7.42,8.68,18.41,14.27,30.75,14.27,22.27,0,40.39-18.12,40.39-40.39s-18.12-40.39-40.39-40.39h0ZM116.37,70.8c0-5.4,2.03-10.8,6.17-14.94,4.15-4.15,9.55-6.17,14.94-6.17h0c2.22,0,4.43.38,6.56,1.06l-16.68,16.68-9.93,9.93c-.68-2.12-1.06-4.34-1.06-6.56h0ZM152.53,85.74c-5.78,5.78-14.17,7.52-21.5,5.21l10.31-10.31,16.29-16.29,1.93-1.93c-.58,2.7-.87,5.59-.87,8.48,0,5.4-2.03,10.8-6.17,14.94v-.1h0ZM199.09,92.01c-11.67,0-21.21-9.45-21.21-21.21s9.45-21.21,21.21-21.21,21.21,9.45,21.21,21.21-9.45,21.21-21.21,21.21Z" fill="#333"/>
      <polygon points="65.67 63.96 25.95 2.35 2.81 2.35 2.81 110.52 25.95 110.52 25.95 42.84 69.23 110.52 88.9 110.52 88.9 2.35 65.67 2.35 65.67 63.96" fill="#333"/>
      <polygon points="315.74 63.96 276.02 2.35 252.88 2.35 252.88 110.52 276.02 110.52 276.02 42.84 319.31 110.52 338.88 110.52 338.88 2.35 315.74 2.35 315.74 63.96" fill="#0f6bff"/>
      <path d="M407.61,36.58c-5.78-3.57-12.44-5.3-19.86-5.3s-14.75,1.74-20.82,5.21c-6.07,3.47-10.8,8.29-14.17,14.36-3.37,6.07-5.11,12.92-5.11,20.34s1.74,14.27,5.21,20.34c3.47,6.07,8.29,10.89,14.56,14.36,6.27,3.47,13.5,5.21,21.79,5.21s13.78-1.35,19.38-4.15c5.59-2.7,10.22-6.65,13.78-11.86l-16.39-9.74c-1.74,2.22-4.05,4.05-7.04,5.3-2.99,1.35-6.07,2.03-9.16,2.03-5.21,0-9.35-1.16-12.63-3.37-3.28-2.31-5.78-5.78-7.71-10.41h56.3c.38-2.31.58-4.92.58-7.71,0-7.42-1.64-14.17-4.82-20.24-3.28-6.07-7.81-10.89-13.59-14.46l-.29.1h0ZM368.86,62.12c.19-3.37,2.12-6.17,5.78-8.58,3.66-2.41,8-3.57,12.92-3.57s8.77,1.06,12.05,3.18c3.28,2.12,5.3,5.11,5.98,8.97h-36.83.1Z" fill="#0f6bff"/>
      <path d="M502.57,36.48c-5.78-3.47-12.72-5.21-20.82-5.21s-8.29.68-12.24,2.12c-3.95,1.35-7.62,3.37-11.09,5.98v-5.98h-22.08v108.17h22.08v-36.63c3.37,2.6,7.13,4.53,11.09,5.98,4.05,1.35,8.1,2.12,12.24,2.12,8,0,14.94-1.74,20.82-5.3,5.78-3.57,10.31-8.39,13.4-14.56,3.09-6.17,4.63-13.21,4.63-21.02s-1.54-14.85-4.63-20.92c-3.09-6.17-7.52-10.99-13.4-14.46v-.29h0ZM492.93,86.03c-3.66,3.57-8.39,5.3-14.17,5.3s-10.7-1.74-14.56-5.3c-3.86-3.57-5.78-8.19-5.78-13.98s1.93-10.51,5.88-14.17c3.95-3.66,8.77-5.59,14.56-5.59s10.51,1.83,14.17,5.4c3.66,3.57,5.5,8.39,5.5,14.17s-1.83,10.61-5.5,14.17h-.1Z" fill="#0f6bff"/>
      <path d="M583.17,34.55c-4.63-1.93-9.06-2.89-13.5-2.89-6.56,0-12.72,2.41-18.41,7.13V2.36h-22.08v108.17h22.08v-47.24c.58-4.24,2.12-7.33,4.43-9.35,2.41-2.03,5.11-2.99,8.39-2.99s7.13,1.06,9.93,3.28c2.8,2.22,4.15,5.78,4.15,10.7v45.6h22.08v-46.18c-.1-8.19-1.83-14.75-5.21-19.67-3.37-4.82-7.33-8.19-11.86-10.12h0Z" fill="#0f6bff"/>
      <path d="M668.77,36.58c-6.07-3.57-12.72-5.4-19.86-5.4s-13.98,1.83-20.05,5.4c-6.07,3.57-10.99,8.39-14.56,14.56-3.57,6.07-5.4,12.82-5.4,20.05s1.83,13.78,5.4,19.96c3.57,6.17,8.39,10.99,14.56,14.56,6.07,3.57,12.82,5.4,20.05,5.4s13.78-1.83,19.86-5.4c6.07-3.57,10.89-8.48,14.56-14.56,3.57-6.17,5.4-12.82,5.4-19.96s-1.83-13.98-5.4-20.05c-3.57-6.07-8.39-10.89-14.56-14.56h0ZM661.74,84.11c-3.66,3.57-8,5.4-13.02,5.4s-9.35-1.83-12.92-5.4c-3.57-3.57-5.4-7.9-5.4-12.92s1.83-9.35,5.4-13.02c3.57-3.66,7.9-5.4,12.92-5.4s9.35,1.83,13.02,5.4c3.66,3.66,5.4,8,5.4,13.02s-1.83,9.35-5.4,12.92Z" fill="#0f6bff"/>
      <path d="M760.07,72.44c-2.99-3.37-6.46-5.78-10.31-7.23-3.95-1.45-8.87-2.8-14.85-4.05-4.63-.87-8-1.83-10.12-2.6-2.12-.87-3.18-2.12-3.18-3.86s.87-3.47,2.6-4.63c1.74-1.16,4.05-1.74,6.94-1.74s5.98.58,8.1,1.83c2.03,1.25,3.66,3.09,4.92,5.59l17.55-8.58c-2.99-5.11-7.23-9.06-12.53-11.76-5.3-2.7-11.37-4.05-18.03-4.05s-10.89.96-15.62,2.89c-4.82,1.93-8.58,4.72-11.37,8.39-2.8,3.66-4.24,8-4.24,12.92s1.45,9.25,4.24,12.34c2.8,3.09,6.17,5.3,10.12,6.84,3.95,1.45,8.87,2.89,14.65,4.15,5.11,1.16,8.87,2.22,11.28,3.18,2.41.96,3.57,2.51,3.57,4.53s-1.25,4.15-3.86,5.4c-2.6,1.25-5.59,1.93-8.97,1.93-8.39,0-13.78-3.18-16.2-9.64l-17.74,9.06c2.89,5.88,7.23,10.22,13.02,13.21,5.78,2.99,12.72,4.43,20.92,4.43s11.47-.96,16.68-2.8c5.11-1.83,9.25-4.63,12.44-8.29,3.09-3.66,4.72-8.1,4.72-13.21s-1.45-10.61-4.43-13.98l-.29-.29h0Z" fill="#0f6bff"/>
      <path d="M171.72,138.06c-1.69-1.33-3.5-2.23-5.43-2.7-1.93-.47-3.65-.7-5.14-.7-2.43,0-4.62.51-6.55,1.53-1.93,1.02-3.59,2.25-4.97,3.69v-4.15h-8.7v41.46h8.7v-23.22c0-2.27.29-4.15.87-5.64.58-1.49,1.34-2.68,2.28-3.56.94-.88,1.97-1.5,3.11-1.87,1.13-.36,2.23-.54,3.27-.54,1.11,0,2.24.15,3.4.46,1.16.3,2.23.84,3.19,1.62.97.78,1.77,1.8,2.4,3.07.64,1.27.95,2.9.95,4.89v24.79h8.7v-24.79c0-3.65-.6-6.62-1.78-8.91-1.19-2.29-2.63-4.1-4.31-5.43h0ZM3.28,177.2h9.2v-24.29h23.71v-8.7H12.48v-16.34h24.71v-8.71H3.28v58.04ZM80.18,141.13c-1.96-1.99-4.27-3.55-6.92-4.68-2.65-1.13-5.47-1.7-8.46-1.7s-5.8.57-8.46,1.7c-2.65,1.13-4.96,2.7-6.92,4.68-1.96,1.99-3.51,4.3-4.64,6.92-1.13,2.63-1.7,5.43-1.7,8.42s.57,5.8,1.7,8.46c1.13,2.65,2.68,4.97,4.64,6.96,1.96,1.99,4.27,3.55,6.92,4.68,2.65,1.13,5.47,1.7,8.46,1.7s5.8-.57,8.46-1.7c2.65-1.13,4.96-2.7,6.92-4.68,1.96-1.99,3.51-4.31,4.64-6.96,1.13-2.65,1.7-5.47,1.7-8.46s-.57-5.79-1.7-8.42c-1.13-2.62-2.68-4.93-4.64-6.92ZM76.78,161.57c-.69,1.58-1.62,2.96-2.78,4.15-1.16,1.19-2.53,2.13-4.1,2.82-1.58.69-3.27,1.04-5.1,1.04s-3.52-.34-5.1-1.04c-1.58-.69-2.96-1.63-4.15-2.82-1.19-1.19-2.13-2.57-2.82-4.15-.69-1.58-1.04-3.28-1.04-5.1s.34-3.52,1.04-5.1c.69-1.58,1.63-2.94,2.82-4.1,1.19-1.16,2.57-2.09,4.15-2.78,1.58-.69,3.27-1.04,5.1-1.04s3.52.34,5.1,1.04c1.58.69,2.94,1.62,4.1,2.78,1.16,1.16,2.09,2.53,2.78,4.1.69,1.58,1.04,3.27,1.04,5.1s-.34,3.52-1.04,5.1ZM123.09,158.87c0,2.27-.3,4.15-.91,5.64-.61,1.49-1.37,2.68-2.28,3.56-.91.89-1.93,1.51-3.07,1.87-1.13.36-2.25.54-3.36.54s-2.17-.15-3.36-.46c-1.19-.3-2.25-.83-3.19-1.58-.94-.75-1.73-1.76-2.36-3.03s-.95-2.9-.95-4.89v-24.79h-8.71v24.79c0,3.65.59,6.62,1.78,8.91,1.19,2.29,2.62,4.1,4.31,5.43,1.69,1.33,3.5,2.23,5.43,2.7,1.93.47,3.65.7,5.14.7,2.38,0,4.53-.51,6.47-1.53,1.93-1.02,3.62-2.25,5.06-3.69v4.15h8.7v-41.46h-8.7v23.13h0ZM268.27,141.46c-1.49-1.99-3.35-3.61-5.56-4.85-2.21-1.25-4.81-1.87-7.79-1.87-3.15,0-5.98.55-8.5,1.66-2.52,1.11-4.66,2.64-6.43,4.6-1.77,1.96-3.14,4.27-4.11,6.92-.97,2.65-1.45,5.53-1.45,8.62s.48,5.89,1.45,8.54c.97,2.65,2.33,4.96,4.11,6.92,1.77,1.96,3.91,3.5,6.43,4.6,2.52,1.11,5.35,1.66,8.5,1.66,2.99,0,5.58-.62,7.79-1.87,2.21-1.24,4.06-2.86,5.56-4.85v5.64h8.7v-41.46h-8.7v5.72ZM267.28,161.9c-.66,1.69-1.58,3.14-2.74,4.35-1.16,1.22-2.54,2.17-4.15,2.86-1.6.69-3.35,1.04-5.22,1.04s-3.48-.36-4.97-1.08c-1.49-.72-2.78-1.7-3.86-2.94-1.08-1.24-1.91-2.68-2.49-4.31-.58-1.63-.87-3.38-.87-5.27s.29-3.63.87-5.27c.58-1.63,1.41-3.07,2.49-4.31,1.08-1.25,2.36-2.23,3.86-2.94,1.49-.72,3.15-1.08,4.97-1.08s3.62.33,5.22.99c1.6.66,2.99,1.6,4.15,2.82,1.16,1.22,2.07,2.65,2.74,4.31.66,1.66.99,3.46.99,5.39s-.33,3.74-.99,5.43h0ZM373.37,141.13c-1.96-1.99-4.27-3.55-6.92-4.68-2.65-1.13-5.47-1.7-8.46-1.7s-5.8.57-8.46,1.7c-2.65,1.13-4.96,2.7-6.92,4.68-1.96,1.99-3.51,4.3-4.64,6.92-1.13,2.63-1.7,5.43-1.7,8.42s.57,5.8,1.7,8.46c1.13,2.65,2.68,4.97,4.64,6.96,1.96,1.99,4.27,3.55,6.92,4.68,2.65,1.13,5.47,1.7,8.46,1.7s5.8-.57,8.46-1.7c2.65-1.13,4.96-2.7,6.92-4.68,1.96-1.99,3.51-4.31,4.64-6.96,1.13-2.65,1.7-5.47,1.7-8.46s-.57-5.79-1.7-8.42c-1.13-2.62-2.68-4.93-4.64-6.92ZM369.97,161.57c-.69,1.58-1.62,2.96-2.78,4.15-1.16,1.19-2.53,2.13-4.1,2.82-1.58.69-3.28,1.04-5.1,1.04s-3.52-.34-5.1-1.04c-1.58-.69-2.96-1.63-4.15-2.82-1.19-1.19-2.13-2.57-2.82-4.15-.69-1.58-1.04-3.28-1.04-5.1s.34-3.52,1.04-5.1c.69-1.58,1.63-2.94,2.82-4.1,1.19-1.16,2.57-2.09,4.15-2.78,1.58-.69,3.27-1.04,5.1-1.04s3.52.34,5.1,1.04c1.58.69,2.94,1.62,4.1,2.78,1.16,1.16,2.09,2.53,2.78,4.1.69,1.58,1.04,3.27,1.04,5.1s-.34,3.52-1.04,5.1ZM422.37,143.49c-1.19-2.29-2.63-4.1-4.31-5.43-1.69-1.33-3.5-2.23-5.43-2.7-1.93-.47-3.65-.7-5.14-.7-2.43,0-4.62.51-6.55,1.53-1.93,1.02-3.59,2.25-4.97,3.69v-4.15h-8.7v41.46h8.7v-23.22c0-2.27.29-4.15.87-5.64.58-1.49,1.34-2.68,2.28-3.56.94-.88,1.97-1.5,3.11-1.87,1.13-.36,2.23-.54,3.27-.54,1.11,0,2.24.15,3.4.46,1.16.3,2.23.84,3.19,1.62.97.78,1.77,1.8,2.4,3.07.64,1.27.95,2.9.95,4.89v24.79h8.7v-24.79c0-3.65-.6-6.62-1.78-8.91h0ZM323.83,115.68c-1.33,0-2.47.47-3.44,1.41-.97.94-1.45,2.1-1.45,3.48s.48,2.48,1.45,3.44c.97.97,2.11,1.45,3.44,1.45s2.47-.48,3.44-1.45c.97-.97,1.45-2.11,1.45-3.44s-.48-2.54-1.45-3.48c-.97-.94-2.11-1.41-3.44-1.41ZM305.67,169.49c-1.93,0-3.39-.4-4.35-1.2-.97-.8-1.45-2.36-1.45-4.68v-19.98h9.62v-7.88h-9.62v-13.76l-8.71,2.99v10.78h-8.54v7.88h8.54v20.56c0,2.65.28,4.84.83,6.55.55,1.72,1.34,3.08,2.36,4.11,1.02,1.02,2.29,1.74,3.82,2.16,1.52.42,3.27.62,5.27.62.94,0,1.93-.04,2.99-.13,1.05-.08,2.13-.18,3.23-.29v-8.04c-.78.11-1.48.19-2.11.25-.64.06-1.26.08-1.87.08h0ZM319.43,177.2h8.71v-41.46h-8.71v41.46ZM218.69,141.46c-1.55-1.99-3.41-3.61-5.6-4.85-2.19-1.25-4.77-1.87-7.75-1.87-3.15,0-5.98.55-8.5,1.66-2.52,1.11-4.66,2.64-6.43,4.6-1.77,1.96-3.14,4.27-4.1,6.92-.97,2.65-1.45,5.53-1.45,8.62s.48,5.89,1.45,8.54c.97,2.65,2.33,4.96,4.1,6.92,1.77,1.96,3.91,3.5,6.43,4.6,2.52,1.11,5.35,1.66,8.5,1.66,2.99,0,5.57-.62,7.75-1.87,2.18-1.24,4.05-2.83,5.6-4.77v5.56h8.71v-58.04h-8.71v22.3ZM217.7,161.9c-.66,1.69-1.58,3.14-2.74,4.35-1.16,1.22-2.54,2.17-4.15,2.86-1.6.69-3.35,1.04-5.22,1.04s-3.48-.36-4.97-1.08c-1.49-.72-2.78-1.7-3.86-2.94-1.08-1.24-1.91-2.68-2.49-4.31-.58-1.63-.87-3.38-.87-5.27s.29-3.63.87-5.27c.58-1.63,1.41-3.07,2.49-4.31,1.08-1.24,2.36-2.23,3.86-2.94,1.49-.72,3.15-1.08,4.97-1.08s3.62.33,5.22.99c1.6.66,2.99,1.6,4.15,2.82,1.16,1.22,2.07,2.65,2.74,4.31.66,1.66.99,3.46.99,5.39s-.33,3.74-.99,5.43h0Z" fill="#333"/>
    </g>
  </g>
</svg>
