<?xml version="1.0" encoding="UTF-8"?>
<svg id="a" data-name="Layer 1" xmlns="http://www.w3.org/2000/svg" width="932.41" height="144" viewBox="0 0 932.41 144">
  <path d="M198.94,30.84c-12.33,0-23.31,5.58-30.72,14.26-.68-.87-1.44-1.64-2.21-2.4-2.31-2.31-4.92-4.33-7.61-5.97-6.36-3.86-13.68-5.77-20.9-5.88h0c-10.31,0-20.71,3.95-28.51,11.84-7.89,7.89-11.84,18.2-11.84,28.51,0,7.22,1.93,14.55,5.77,20.9,1.64,2.7,3.67,5.3,5.97,7.61,2.31,2.31,4.92,4.33,7.61,5.97,15.51,9.44,36.11,7.42,49.51-5.97.77-.77,1.55-1.64,2.21-2.4,7.42,8.67,18.39,14.26,30.72,14.26,22.25,0,40.35-18.11,40.35-40.35s-18.11-40.35-40.35-40.35h0v-.02ZM116.31,71.19c0-5.39,2.02-10.78,6.17-14.93,4.14-4.14,9.53-6.17,14.93-6.17h0c2.21,0,4.43.38,6.55,1.06l-16.66,16.66-9.92,9.92c-.68-2.12-1.06-4.33-1.06-6.55h-.01ZM152.42,86.12c-5.77,5.77-14.15,7.51-21.47,5.2l10.31-10.31,16.27-16.27,1.93-1.93c-.58,2.7-.87,5.58-.87,8.48,0,5.39-2.02,10.78-6.17,14.93v-.1ZM198.94,92.38c-11.65,0-21.19-9.44-21.19-21.19s9.44-21.19,21.19-21.19,21.19,9.44,21.19,21.19-9.44,21.19-21.19,21.19Z" fill="#fff"/>
  <polygon points="65.65 64.36 25.96 2.81 2.85 2.81 2.85 110.88 25.96 110.88 25.96 43.27 69.21 110.88 88.86 110.88 88.86 2.81 65.65 2.81 65.65 64.36" fill="#fff"/>
  <polygon points="315.49 64.36 275.8 2.81 252.68 2.81 252.68 110.88 275.8 110.88 275.8 43.27 319.05 110.88 338.59 110.88 338.59 2.81 315.49 2.81 315.49 64.36" fill="#fff"/>
  <path d="M407.27,37c-5.77-3.56-12.43-5.3-19.84-5.3s-14.74,1.74-20.81,5.2c-6.07,3.46-10.78,8.28-14.15,14.35-3.37,6.07-5.11,12.9-5.11,20.32s1.74,14.26,5.2,20.32c3.46,6.07,8.28,10.88,14.55,14.35,6.26,3.46,13.49,5.2,21.77,5.2s13.77-1.35,19.36-4.14c5.58-2.7,10.21-6.64,13.77-11.84l-16.38-9.73c-1.74,2.21-4.05,4.05-7.03,5.3-2.99,1.35-6.07,2.02-9.15,2.02-5.2,0-9.34-1.15-12.62-3.37-3.27-2.31-5.77-5.77-7.7-10.4h56.24c.38-2.31.58-4.92.58-7.7,0-7.42-1.64-14.15-4.82-20.22-3.27-6.07-7.8-10.88-13.58-14.45l-.29.1ZM368.55,62.53c.19-3.37,2.12-6.17,5.77-8.57,3.67-2.4,8-3.56,12.9-3.56s8.76,1.06,12.03,3.18c3.27,2.12,5.3,5.11,5.97,8.95h-36.79.11Z" fill="#fff"/>
  <path d="M502.13,36.9c-5.77-3.46-12.71-5.2-20.81-5.2s-8.28.68-12.24,2.12c-3.95,1.35-7.61,3.37-11.07,5.97v-5.97h-22.06v108.06h22.06v-36.6c3.37,2.61,7.13,4.52,11.07,5.97,4.05,1.35,8.09,2.12,12.24,2.12,8,0,14.93-1.74,20.81-5.3,5.77-3.56,10.31-8.38,13.39-14.55,3.08-6.17,4.62-13.2,4.62-21s-1.55-14.83-4.62-20.9c-3.08-6.17-7.51-10.98-13.39-14.45v-.29h0ZM492.5,86.4c-3.67,3.56-8.38,5.3-14.15,5.3s-10.69-1.74-14.55-5.3c-3.86-3.56-5.77-8.19-5.77-13.96s1.93-10.5,5.88-14.15c3.95-3.67,8.76-5.58,14.55-5.58s10.5,1.83,14.15,5.39c3.67,3.56,5.49,8.38,5.49,14.15s-1.83,10.59-5.49,14.15h-.1Z" fill="#fff"/>
  <path d="M582.65,34.98c-4.62-1.93-9.06-2.89-13.49-2.89-6.55,0-12.71,2.4-18.39,7.13V2.81h-22.06v108.06h22.06v-47.2c.58-4.24,2.12-7.32,4.43-9.34,2.4-2.02,5.11-2.99,8.38-2.99s7.13,1.06,9.92,3.27c2.8,2.21,4.14,5.77,4.14,10.69v45.55h22.06v-46.14c-.1-8.19-1.83-14.74-5.2-19.65-3.37-4.82-7.32-8.19-11.84-10.12h-.01Z" fill="#fff"/>
  <path d="M668.18,37c-6.07-3.56-12.71-5.39-19.84-5.39s-13.96,1.83-20.03,5.39c-6.07,3.56-10.98,8.38-14.55,14.55-3.56,6.07-5.39,12.81-5.39,20.03s1.83,13.77,5.39,19.94c3.56,6.17,8.38,10.98,14.55,14.55,6.07,3.56,12.81,5.39,20.03,5.39s13.77-1.83,19.84-5.39,10.88-8.48,14.55-14.55c3.56-6.17,5.39-12.81,5.39-19.94s-1.83-13.96-5.39-20.03c-3.56-6.07-8.38-10.88-14.55-14.55ZM661.15,84.49c-3.67,3.56-8,5.39-13,5.39s-9.34-1.83-12.9-5.39c-3.56-3.56-5.39-7.89-5.39-12.9s1.83-9.34,5.39-13c3.56-3.67,7.89-5.39,12.9-5.39s9.34,1.83,13,5.39c3.67,3.67,5.39,8,5.39,13s-1.83,9.34-5.39,12.9Z" fill="#fff"/>
  <path d="M759.38,72.82c-2.99-3.37-6.45-5.77-10.31-7.22-3.95-1.44-8.86-2.8-14.83-4.05-4.62-.87-8-1.83-10.12-2.61-2.12-.87-3.18-2.12-3.18-3.86s.87-3.46,2.61-4.62c1.74-1.15,4.05-1.74,6.94-1.74s5.97.58,8.09,1.83c2.02,1.25,3.67,3.08,4.92,5.58l17.53-8.57c-2.99-5.11-7.22-9.06-12.52-11.75-5.3-2.7-11.37-4.05-18.01-4.05s-10.88.96-15.6,2.89c-4.82,1.93-8.57,4.71-11.37,8.38-2.8,3.67-4.24,8-4.24,12.9s1.44,9.25,4.24,12.33c2.8,3.08,6.17,5.3,10.12,6.83,3.95,1.44,8.86,2.89,14.64,4.14,5.11,1.15,8.86,2.21,11.27,3.18,2.4.96,3.56,2.5,3.56,4.52s-1.25,4.14-3.86,5.39c-2.61,1.25-5.58,1.93-8.95,1.93-8.38,0-13.77-3.18-16.18-9.63l-17.72,9.06c2.89,5.88,7.22,10.21,13,13.2,5.77,2.99,12.71,4.43,20.9,4.43s11.46-.96,16.66-2.8c5.11-1.83,9.25-4.62,12.43-8.28,3.08-3.67,4.71-8.09,4.71-13.2s-1.44-10.59-4.43-13.96l-.29-.29v.03Z" fill="#fff"/>
  <path d="M803.23,111.5h38.62c19.93,0,21.82-31.75,21.81-50.63l1.64-58.06-62.06,108.69Z" fill="#fff"/>
  <path d="M927.36,111.5h-38.62c-19.93,0-21.82-31.75-21.81-50.63l-1.64-58.06,62.06,108.69Z" fill="#fff"/>
</svg>
