<?xml version="1.0" encoding="UTF-8"?>
<svg id="a" data-name="Layer 1" xmlns="http://www.w3.org/2000/svg" width="4886.71" height="992.19" xmlns:xlink="http://www.w3.org/1999/xlink" viewBox="0 0 4886.71 992.19">
  <defs>
    <linearGradient id="f" x1="1275.01" y1="-177.13" x2="1275.01" y2="176.81" gradientTransform="translate(-899.76 244.6) scale(1.1 1)" gradientUnits="userSpaceOnUse">
      <stop offset="0" stop-color="#fff"/>
      <stop offset="1" stop-color="#fff" stop-opacity="0"/>
    </linearGradient>
    <linearGradient id="j" x1="508.67" y1="197.67" x2="501.43" y2="1259.37" gradientUnits="userSpaceOnUse">
      <stop offset="0" stop-color="#fff"/>
      <stop offset="1" stop-color="#bebebe"/>
    </linearGradient>
    <linearGradient id="x" x1="282.25" y1="41.34" x2="318.02" y2="98.45" gradientTransform="translate(134.6 208.7)" gradientUnits="userSpaceOnUse">
      <stop offset="0" stop-color="#fff"/>
      <stop offset="1" stop-color="#fff" stop-opacity="0"/>
    </linearGradient>
    <linearGradient id="aa" x1="484.24" y1="43.11" x2="514.14" y2="92.91" gradientTransform="translate(134.6 208.7)" gradientUnits="userSpaceOnUse">
      <stop offset="0" stop-color="#fff"/>
      <stop offset="1" stop-color="#fff" stop-opacity="0"/>
    </linearGradient>
    <radialGradient id="ac" cx="-4665.72" cy="-7734.4" fx="-4665.72" fy="-7734.4" r="85.57" gradientTransform="translate(0 -7375.87) scale(1 -1)" gradientUnits="userSpaceOnUse">
      <stop offset="0" stop-color="#fff"/>
      <stop offset="1" stop-color="#fff" stop-opacity="0"/>
    </radialGradient>
    <radialGradient id="ae" cx="-3016.13" cy="-2317.35" fx="-3016.13" fy="-2317.35" r="85.68" gradientTransform="translate(0 -7375.87) scale(1 -1)" gradientUnits="userSpaceOnUse">
      <stop offset="0" stop-color="#fff"/>
      <stop offset="1" stop-color="#fff" stop-opacity="0"/>
    </radialGradient>
    <linearGradient id="ah" x1="395.41" y1="170.88" x2="365.93" y2="220.88" gradientTransform="translate(134.6 208.7)" gradientUnits="userSpaceOnUse">
      <stop offset="0" stop-color="#fff"/>
      <stop offset="1" stop-color="#fff" stop-opacity="0"/>
    </linearGradient>
    <linearGradient id="ak" x1="870.5" y1="-725.05" x2="870.5" y2="-645.87" gradientTransform="translate(-840.87 1887.47) scale(1.3 1.5)" gradientUnits="userSpaceOnUse">
      <stop offset="0" stop-color="#fff"/>
      <stop offset="1" stop-color="#fff" stop-opacity="0"/>
    </linearGradient>
    <linearGradient id="an" x1="855.12" y1="-725.05" x2="855.12" y2="-645.87" gradientTransform="translate(-391.57 1887.47) scale(1.3 1.5)" gradientUnits="userSpaceOnUse">
      <stop offset="0" stop-color="#fff"/>
      <stop offset="1" stop-color="#fff" stop-opacity="0"/>
    </linearGradient>
    <linearGradient id="ap" x1="-205.57" y1="479.98" x2="84.86" y2="253.37" gradientTransform="translate(134.6 208.7)" gradientUnits="userSpaceOnUse">
      <stop offset="0" stop-color="#fff"/>
      <stop offset="1" stop-color="#fff" stop-opacity="0"/>
    </linearGradient>
    <linearGradient id="ar" x1="-1433.5" y1="435.52" x2="-1143.17" y2="209.01" gradientTransform="translate(-357.55 251.1) rotate(-180) scale(1 -1)" gradientUnits="userSpaceOnUse">
      <stop offset="0" stop-color="#fff"/>
      <stop offset="1" stop-color="#fff" stop-opacity="0"/>
    </linearGradient>
    <linearGradient id="at" x1="339.2" y1="82.29" x2="346.62" y2="109.09" gradientTransform="translate(134.6 208.7)" gradientUnits="userSpaceOnUse">
      <stop offset="0" stop-color="#fff"/>
      <stop offset="1" stop-color="#fff" stop-opacity="0"/>
    </linearGradient>
    <linearGradient id="av" x1="314.91" y1="110.36" x2="331.82" y2="142.22" gradientTransform="translate(134.6 208.7)" gradientUnits="userSpaceOnUse">
      <stop offset="0" stop-color="#e2e2e2"/>
      <stop offset="1" stop-color="#fff" stop-opacity="0"/>
    </linearGradient>
    <linearGradient id="ax" x1="392" y1="81.46" x2="401.79" y2="110.74" gradientTransform="translate(134.6 208.7)" gradientUnits="userSpaceOnUse">
      <stop offset="0" stop-color="#fff"/>
      <stop offset="1" stop-color="#fff" stop-opacity="0"/>
    </linearGradient>
    <linearGradient id="az" x1="370.2" y1="112.6" x2="386.86" y2="143.81" gradientTransform="translate(134.6 208.7)" gradientUnits="userSpaceOnUse">
      <stop offset="0" stop-color="#d7d7d7"/>
      <stop offset="1" stop-color="#e2e2e2" stop-opacity="0"/>
    </linearGradient>
  </defs>
  <g id="b" data-name="Layer 26">
    <g id="c" data-name="g10656" isolation="isolate" opacity=".8">
      <path id="d" data-name="path10636" d="M887.72,940.42c0,19.28-172.38,35.05-385.08,35.05s-385.08-15.67-385.08-35.05,172.38-35.05,385.08-35.05,385.08,15.77,385.08,35.05" fill="#d7d7d7"/>
    </g>
    <path id="e" data-name="path10676" d="M183.66,582.97c-2.06,10.83-2.99,21.75-2.78,32.68,5.05,167.23,144.96,303.01,323.42,303.01s321.88-134.96,323.42-303.01c.1-12.17-2.17-24.23-6.6-35.47,0,0,38.15,8.25,106.5,57.32,60.11,10.93,38.15-38.15,38.15-38.15,0,0-13.71-38.15-101.04-106.5-87.33-68.35-84.95-91.24-94.54-133.51-9.69-42.48-22.78-98.56-22.78-98.56,0,0-20.21-88.15-66.09-133.72-98.67-98.46-258.47-98.36-356.93.31-.21.21-.52.52-.72.72-45.88,46.19-71.65,116.3-71.65,116.3,0,0-14.74,55.67-14.33,100.21.41,43.82-10.31,82.48-97.64,150.83-87.33,68.35-101.04,106.5-101.04,106.5,0,0-20.83,45.98,39.28,35.16,68.35-45.05,105.57-54.23,105.47-54.23h0l-.1.1Z" fill="#efefef" stroke="#efefef" stroke-width="2.3"/>
    <path id="g" data-name="path10696" d="M699.88,236.56c0,98.67-88.25,178.77-197.13,178.77s-197.13-80.01-197.13-178.77S393.98,57.88,502.75,57.88s197.13,80.01,197.13,178.77" fill="url(#f)"/>
    <g id="h" data-name="g10896" isolation="isolate">
      <path id="i" data-name="path10876" d="M708.54,313.88c0,48.77-49.8,88.25-111.35,88.25s-111.35-39.49-111.35-88.25,49.8-88.25,111.35-88.25,111.35,39.49,111.35,88.25" fill="#cdcdcd" stroke="#cdcdcd" stroke-miterlimit="10"/>
    </g>
    <path id="k" data-name="path10716" d="M766.17,671.43c0,82.89-29.18,159.7-76.4,214.03-47.22,54.33-321.46,54.33-368.68,0-47.22-54.33-76.4-129.49-76.4-212.38,0-165.78,116.81-300.33,260.74-300.33,142.9.1,258.99,134.13,260.74,298.68Z" fill="url(#j)"/>
    <path id="l" data-name="path10736" d="M265.11,564.31s-8.87,82.79,1.86,130.52,22.99,95.16,22.99,95.16l-25.57,7.94c-9.59-11.13-18.45-22.89-26.5-35.16-12.37-19.38-27.42-59.08-27.42-59.08l39.59,30.93s-7.94-33.51-4.43-70.52c3.51-37.01,7.22-75.88,19.38-99.7h0l.1-.1Z" fill="#fff" isolation="isolate" opacity=".4"/>
    <path id="m" data-name="path10756" d="M366.66,428.42s11.44,17.63,19.38,17.84c12.99,1.44,16.7,15.16,29.59,14.23,27.63,33.09,51.86,63.92,77.74,76.81,9.28,5.98,19.18,7.42,27.63-7.22,14.74-12.89,48.66-49.28,55.88-63.2,10.72-12.37,8.25-30.41,8.25-30.41,0,0,18.25-7.32,27.42-7.94,10.21-.82,1.55-18.56,10.52-20.21-2.17-14.64,11.86-14.33-4.74-16.19-16.6-1.86-226.61-12.89-243.21-1.86-16.7,11.03-19.59,17.84-8.45,38.04h0v.1Z" fill="#cbcbcb"/>
    <path id="n" data-name="path10776" d="M744.72,568.74s8.87,82.79-1.86,130.52c-10.72,47.73-22.99,95.16-22.99,95.16l25.57,7.94c9.59-11.13,18.45-22.89,26.5-35.16,12.37-19.28,27.42-59.08,27.42-59.08l-39.59,30.93s7.94-33.51,4.43-70.52c-3.51-37.01-7.22-75.98-19.38-99.7l-.1-.1Z" fill="#fff" isolation="isolate" opacity=".4"/>
    <path id="o" data-name="path10796" d="M838.24,899.07c0,16.19-4.54,22.06-12.78,35.98h-300.64c-8.25-13.92-12.78-19.8-12.78-35.98,0-64.54,72.99-117.02,163.1-117.02s163.1,52.37,163.1,117.02" fill="#cbcbcb"/>
    <path id="p" data-name="path10816" d="M858.34,904.54c0,16.19-4.54,22.06-12.78,35.98h-300.43c-8.25-13.92-12.78-19.8-12.78-35.98,0-64.54,72.99-117.02,163.1-117.02s163,52.37,163,117.02" fill="#efefef" stroke="#efefef" stroke-width="2.3"/>
    <path id="q" data-name="path10836" d="M500.89,900.72c0,16.19-4.54,22.06-12.78,35.98H187.58c-8.25-13.92-12.78-19.8-12.78-35.98,0-64.54,72.99-117.02,163.1-117.02s163,52.58,163,117.02" fill="#cbcbcb"/>
    <path id="r" data-name="path10856" d="M480.69,904.54c0,16.19-4.54,22.06-12.78,35.98H167.37c-8.25-13.92-12.78-19.8-12.78-35.98,0-64.54,72.99-117.02,163.1-117.02s163,52.37,163,117.02" fill="#efefef" stroke="#efefef" stroke-width="2.3"/>
    <g id="s" data-name="g10956" isolation="isolate">
      <path id="t" data-name="path10916" d="M500.59,307.49c0,64.44-42.37,116.71-94.65,116.71s-94.65-52.27-94.65-116.71,42.37-116.71,94.65-116.71,94.65,52.27,94.65,116.71" fill="#cdcdcd"/>
    </g>
    <path id="u" data-name="path10976" d="M495.12,310.38c0,62.99-40.31,113.92-90.11,113.92s-90.11-50.93-90.11-113.92,40.31-113.92,90.11-113.92,90.11,50.93,90.11,113.92" fill="#d7d7d7"/>
    <path id="v" data-name="path10996" d="M691.83,320.27c0,46.19-43.71,83.51-97.43,83.51s-97.43-37.43-97.43-83.51,43.71-83.51,97.43-83.51,97.43,37.43,97.43,83.51" fill="#d7d7d7"/>
    <path id="w" data-name="path11016" d="M548.94,321.3c0,20.83-11.65,37.84-25.77,37.84s-25.77-16.91-25.77-37.84,11.65-37.84,25.77-37.84,25.77,16.91,25.77,37.84" fill="#a2a2a2" stroke="#a2a2a2" stroke-miterlimit="10"/>
    <path id="y" data-name="path11036" d="M347.9,234.8s25.77-47.84,75.47-31.24c49.69,16.6,53.1,45.36,65.98,111.76,12.89,66.4-45.78,6.29-45.78,6.29,0,0-7.42-57.12-40.52-73.61-33.09-16.6-55.16-11.03-55.16-12.99v-.21Z" fill="url(#x)" isolation="isolate" opacity=".8"/>
    <path id="z" data-name="path11056" d="M493.37,320.58c0,20.83-11.65,37.84-25.77,37.84s-25.77-16.91-25.77-37.84,11.65-37.84,25.77-37.84,25.77,16.91,25.77,37.84" fill="#a2a2a2" stroke="#a2a2a2" stroke-width="2.3"/>
    <path id="ab" data-name="path11076" d="M580.08,243.98s53.41-9.28,82.89,27.63c29.49,36.91,20.21,49.8,20.21,49.8l-40.52,1.86c.1,0-25.67-59.08-62.58-79.28h0Z" fill="url(#aa)" isolation="isolate" opacity=".8"/>
    <path id="ad" data-name="path11096" d="M512.75,359.66s48.46,28.66,90.83,23.09c42.37-5.57,62.27-21.24,79.39-38.04-4.33,20.1-44.23,51.86-79.18,53.71-34.95,1.86-91.14-36.91-91.14-38.77h.1Z" fill="url(#ac)" isolation="isolate" opacity=".8"/>
    <path id="af" data-name="path11116" d="M327.07,278s-.31,62.48,37.12,98.15c37.43,35.67,59.8,28.15,89.28,32.58-23.3,9.79-76.6,9.79-104.85-21.55-28.15-31.24-23.51-107.95-21.65-109.29h0l.1.1Z" fill="url(#ae)" isolation="isolate" opacity=".8"/>
    <path id="ag" data-name="path11136" d="M504.71,511.11h9.18c0-.1,9.9-11.03,44.23-46.91,22.99-26.08,30.21-43.2,30.21-43.2,0,0,4.74-17.22-17.73-34.85-29.28-14.64-44.23-14.64-65.98-14.43-21.75.21-37.84,2.78-65.98,14.64-28.15,11.86-23.51,35.88-23.51,35.88,0,0,2.06,11.44,36.39,47.32,34.33,35.88,53.2,41.55,53.2,41.55h0Z" fill="#d7d7d7"/>
    <path id="ai" data-name="path11156" d="M446.87,388.73s44.44,2.99,73.61,20.72c29.18,17.73,39.8,42.37,39.8,42.37,0,0,18.25-19.9,20.72-27.53,2.47-7.53,7.53-22.78-19.07-38.04-26.6-15.26-41.86-10.93-67.74-10.52-25.67.31-47.32,13.4-47.32,12.99h0Z" fill="url(#ah)"/>
    <g id="aj" data-name="g11196" isolation="isolate" opacity=".8">
      <path id="al" data-name="path11176" d="M390.27,867.63c0,36.08-44.54,65.47-99.49,65.47s-99.49-29.28-99.49-65.47,44.54-65.47,99.49-65.47,99.49,29.28,99.49,65.47" fill="url(#ak)"/>
    </g>
    <g id="am" data-name="g11236" isolation="isolate" opacity=".8">
      <path id="ao" data-name="path11216" d="M819.58,867.63c0,36.08-44.54,65.47-99.49,65.47s-99.49-29.28-99.49-65.47,44.54-65.47,99.49-65.47,99.49,29.28,99.49,65.47" fill="url(#an)"/>
    </g>
    <path id="aq" data-name="path11256" d="M47.67,612.56s154.75-99.49,178.77-117.95c24.02-18.56,1.86-77.43,1.86-77.43-16.19,22.17-34.13,43.2-53.41,62.68-27.63,22.17-49.8,40.52-92.17,75.47-42.37,42.48-34.95,59.08-34.95,57.22h-.1Z" fill="url(#ap)"/>
    <path id="as" data-name="path11276" d="M957.42,610.6s-154.75-99.49-178.77-117.95c-24.02-18.56-1.86-77.43-1.86-77.43,16.19,22.17,34.13,43.2,53.41,62.68,27.63,22.17,49.8,40.52,92.17,75.47,42.37,42.48,34.95,59.18,34.95,57.22h.1Z" fill="url(#ar)"/>
    <path id="au" data-name="path11316" d="M462.54,284.19s6.39,18.35,6.8,34.02c13.92-4.74,21.24-9.38,21.24-9.38,0,0-3.51-24.64-28.04-24.64h0Z" fill="url(#at)"/>
    <path id="aw" data-name="path11336" d="M448,297.18s-2.37,20.52,6.39,34.44c8.76,13.92,18.66,18.35,26.19,20.1-2.37,2.06-12.99,7.84-22.99-.31-9.9-8.04-14.85-15.77-14.85-26.5s1.86-23.71,5.26-27.73h0Z" fill="url(#av)"/>
    <path id="ay" data-name="path11356" d="M517.18,285.32s6.39,18.35,6.8,34.02c13.92-4.74,21.24-9.38,21.24-9.38,0,0-3.51-24.64-28.04-24.64h0Z" fill="url(#ax)"/>
    <path id="ba" data-name="path11376" d="M504.61,299.24s-2.37,20.52,6.39,34.44c8.76,13.92,15.87,18.09,23.4,19.85-2.37,2.06-10.2,8.09-20.2-.05-9.9-8.04-14.85-15.77-14.85-26.5s1.96-23.82,5.26-27.73h0Z" fill="url(#az)"/>
  </g>
  <g id="bb" data-name="Layer 1-26">
    <path id="bc" data-name="path11406" d="M228.51,440.9s103.72,107.53,273.52,104.85c82.69-1.34,190.63,1.44,300.12-113l7.42,8.76,54.33,47.43s-49.28,57.32-35.67,91.76c0,0,5.57,34.64,1.03,65.47-7.01,48.15-34.13,117.84-54.23,135.88,0,0-477.04-11.86-538.8,0,0,0-62.68-45.88-69.39-193.31,0,0-8.56-45.78-48.35-77.22l94.54-87.33,15.46,16.81v-.1Z" fill="#f4f4f4"/>
  </g>
  <path d="M615.27,684.27l-18.6-81.57c-.6-2.59-3.08-5.67-5.37-6.76l-75.31-36.31c-2.39-1.09-6.27-1.09-8.75,0l-75.31,36.31c-2.39,1.09-4.87,4.18-5.37,6.76l-12.63,55.41-5.97,26.06c-.6,2.59.3,6.37,1.89,8.46l52.03,65.36c1.69,2.09,5.07,3.78,7.76,3.78h83.66c2.59,0,6.07-1.69,7.76-3.78l52.03-65.36c1.69-2.09,2.49-5.77,1.89-8.46h.1v.1h.2ZM539.57,615.63c.8,1.79,1.29,3.58,1.29,5.47v26.76c0,1.49-.4,2.98-.9,4.58l-2.19,1.29-29.84-19.2,31.63-18.9h0ZM478.59,623.19c0-3.28,1.29-5.37,1.29-5.37l56.6,36.61-22.58,12.83-35.41-19.6v-24.37l.1-.1ZM461.87,689.94v-43.37c0-1.79.6-3.88,1.49-5.67l48.84,27.16h0l-48.75,27.85c-.99-1.89-1.69-3.98-1.69-5.77v-.1l.1-.1ZM561.15,693.62c-.7,2.19-1.79,4.08-5.57,7.16-3.78,3.08-37.5,21.59-37.5,21.59-3.48,1.89-8.95,1.89-12.43,0,0,0-31.93-17.91-37.5-21.59-.9-.6-3.18-2.69-3.78-3.48h0l73.42-41.98,22.98-13.03c.6,1.49.99,3.08.99,4.48,0,0,.2,32.33,0,43.37,0,.9-.2,2.19-.6,3.48h0Z" fill="#cbcbcb"/>
  <g id="bd" data-name="text17341">
    <path id="be" data-name="path1112" d="M1464.63,464.16v236h-52.9v-63.6c-15.3,21.4-34.8,38.4-58.5,51s-51.1,18.9-82.1,18.9-77.7-9.8-108.6-29.3c-30.6-19.7-54.1-47-70.5-81.8-16.4-34.8-24.5-74.5-24.5-119s8.5-85.6,25.5-119.6c17-34.2,41.2-60.5,72.7-79s68.4-27.7,110.8-27.7,70,6.7,97.2,20.1c27.3,13.2,51.8,32.9,73.6,59.2l-47.2,37.4c-15.7-20.1-33.7-35.4-53.8-45.6-19.9-10.3-43.8-15.4-71.7-15.4s-55.4,7-77.4,21.1c-21.8,14.1-38.7,34-50.7,59.8-11.7,25.6-17.6,55.5-17.6,89.7s5.9,64.2,17.6,90.6c12,26.4,28.7,47.1,50.4,62,21.6,14.7,46.6,22,74.9,22s52.9-5.8,72.4-17.3c19.5-11.7,34.1-27.4,43.7-46.9,9.7-19.5,14.6-41.2,14.8-65.1v-1.9h-114.5v-55.7h176.5l-.1.1Z" fill="#fff"/>
    <path id="bf" data-name="path1132" d="M1640.23,706.46c-34.6,0-61-8.9-79.3-26.7-18-18-27.1-42.8-27.1-74.3s14.2-65.1,42.5-81.5c28.3-16.6,63.6-25.3,105.7-26.1l67.7-1.3v-20.1c0-23.5-6.1-41.9-18.3-55.1-12-13.4-29.1-20.1-51.3-20.1-18,0-34.4,3.8-49.1,11.3-14.7,7.6-30.7,20.8-48.1,39.7l-35.6-36.8c14.7-18,33.3-32.8,55.7-44.4,22.7-11.7,48.8-17.6,78.4-17.6s48.7,5,67.3,15.1c18.7,10.1,32.8,23.9,42.5,41.5,9.7,17.6,14.5,37.9,14.5,60.7v157.3c0,26.9.8,50.9,2.5,72.1h-54.8c-1.7-15.3-2.5-32.1-2.5-50.4h-1.3c-12.8,18.7-27.6,32.8-44.4,42.5-16.6,9.4-38.3,14.2-65.1,14.2h.1ZM1653.13,658.96c20.1,0,37.4-4,51.9-12,14.7-8.2,25.8-18.8,33.4-31.8,7.6-13.2,11.3-27.2,11.3-41.9v-32.4l-53.5,1.3c-31.3.8-56.4,6-75.5,15.4-18.9,9.2-28.3,25.4-28.3,48.5s5.3,29.1,16,38.7c10.9,9.4,25.8,14.2,44.7,14.2h0Z" fill="#fff"/>
    <path id="bg" data-name="path1151" d="M1896.03,439.26c0-34.4-.6-60.8-1.9-79.3h53.5c.6,9,1.2,19.1,1.6,30.2.6,10.9.9,19.7.9,26.4h1.3c8.4-21.2,19.2-37,32.4-47.5,13.2-10.5,28.2-15.7,45-15.7s21,1,28.3,3.1l-4.4,55.7c-7.6-2.3-16.6-3.5-27.1-3.5-25,0-43.3,10.3-55.1,30.8-11.7,20.4-17.6,48.1-17.6,83.4v177.2h-57v-260.9l.1.1Z" fill="#fff"/>
    <path id="bh" data-name="path1171" d="M2224.93,706.46c-45.5,0-79.8-15.6-102.9-46.9-22.9-31.3-34.3-74.1-34.3-128.4s5.3-67.1,16-93.8c10.7-26.6,26.7-47.3,48.1-62,21.6-14.7,47.9-22,79-22s41.3,4.4,58.5,13.2c17.2,8.6,30.3,21.8,39.3,39.7h.6c-.4-4.6-.6-18.4-.6-41.2v-132.2h56.6v397.1c0,14.7.2,28.4.6,41.2s.8,22.4,1.3,29h-54.1c-.8-3.6-1.6-10.4-2.2-20.5-.6-10.1-.9-20.2-.9-30.5h-1.3c-10.1,19.1-24.1,33.5-42.2,43.1-18,9.4-38.6,14.2-61.7,14.2h.2ZM2233.43,656.46c29.4,0,52.6-10.4,69.5-31.2,17.2-20.8,25.8-54,25.8-99.8s-8.3-74.9-24.9-94.4c-16.6-19.5-38.6-29.3-66.1-29.3-60.6,0-90.9,42.5-90.9,127.4s6.9,71.5,20.8,93.8c14.1,22.2,36,33.4,65.8,33.4h0v.1Z" fill="#fff"/>
    <path id="bi" data-name="path1191" d="M2611.33,706.46c-33.1,0-61.5-7.3-85-22-23.3-14.9-41-35.7-53.2-62.3-12-26.9-17.9-58-17.9-93.5s6.4-68.8,19.2-95c13-26.4,30.7-46.4,53.2-59.8,22.4-13.6,47.7-20.5,75.8-20.5s62,8.1,83.4,24.2c21.4,15.9,36.8,36.3,46.3,61,9.4,24.8,14.2,51.1,14.2,79s-.4,16.2-1.3,27.1h-231c0,18.3,3.5,36.1,10.4,53.5,7.1,17.2,17.9,31.5,32.4,42.8,14.5,11.1,32.3,16.7,53.5,16.7s25.2-1.8,35.9-5.3c10.9-3.8,20.7-8.6,29.3-14.5,8.8-5.9,18.5-13.4,29-22.7l30.8,40.6c-10.7,9-21.3,17-31.8,23.9s-23.8,13.1-40,18.6c-15.9,5.5-33.7,8.2-53.2,8.2h0ZM2689.13,497.16c-2.7-32.3-11.2-56.2-25.5-71.7-14.3-15.7-34.3-23.6-60.1-23.6s-27.6,3.4-40.6,10.1c-12.8,6.5-23.6,16.9-32.4,31.2-8.6,14.3-13.4,32.3-14.5,54.1h173.1v-.1Z" fill="#fff"/>
    <path id="bj" data-name="path1211" d="M2821.23,432.06c0-13-.2-27.6-.6-43.7-.4-16.2-.8-25.6-1.3-28.3h53.5c.6,5.7,1.2,14.8,1.6,27.4.6,12.6.9,22.8.9,30.5h1.3c11.5-21.4,25.6-37.4,42.2-48.1,16.8-10.9,39.1-16.4,67-16.4s63.3,10.7,80.9,32.1c17.8,21.2,26.7,50.5,26.7,87.8v226.9h-57v-215.9c0-26.2-5.5-46.2-16.4-59.8-10.9-13.8-28.8-20.8-53.8-20.8s-33.4,3.9-46.6,11.6c-13.2,7.8-23.5,19.1-30.8,34-7.1,14.7-10.7,32.5-10.7,53.5v197.3h-57v-268.1h.1Z" fill="#fff"/>
    <path id="bk" data-name="path1231" d="M3367.23,256.76h59.8v388h205.2v55.4h-265v-443.4Z" fill="#fff"/>
    <path id="bl" data-name="path1251" d="M3724.43,296.76c-10.9,0-20-3.6-27.4-10.7-7.1-7.3-10.7-16.5-10.7-27.4s3.6-19.9,10.7-27.1c7.3-7.3,16.5-11,27.4-11s19.6,3.7,26.7,11c7.1,7.1,10.7,16.2,10.7,27.1s-3.6,19.7-10.7,27.1c-7.1,7.3-16,11-26.7,11h0ZM3696.13,359.96h56.6v340.2h-56.6v-340.2Z" fill="#fff"/>
    <path id="bm" data-name="path1271" d="M3840.83,432.06c0-13-.2-27.6-.6-43.7-.4-16.2-.8-25.6-1.3-28.3h53.5c.6,5.7,1.2,14.8,1.6,27.4.6,12.6.9,22.8.9,30.5h1.3c11.5-21.4,25.6-37.4,42.2-48.1,16.8-10.9,39.1-16.4,67-16.4s63.3,10.7,80.9,32.1c17.8,21.2,26.7,50.5,26.7,87.8v226.9h-57v-215.9c0-26.2-5.5-46.2-16.4-59.8-10.9-13.8-28.8-20.8-53.8-20.8s-33.4,3.9-46.6,11.6c-13.2,7.8-23.5,19.1-30.8,34-7.1,14.7-10.7,32.5-10.7,53.5v197.3h-57v-268.1h.1Z" fill="#fff"/>
    <path id="bn" data-name="path1291" d="M4304.73,706.46c-35.7,0-62.5-10.7-80.6-32.1-18-21.4-27.1-52.8-27.1-94.1v-220.3h56.6v209.3c0,31,5.6,53.4,16.7,67,11.3,13.4,29.3,20.1,53.8,20.1,16.4,0,31.3-4.3,44.7-12.9,13.4-8.8,24-21.1,31.8-36.8,7.8-15.9,11.6-34,11.6-54.1v-192.6h56.6v267.5c0,13.8.2,28.7.6,44.7.6,15.7,1.2,25.1,1.6,28h-53.5c-.4-2.3-1-10.4-1.9-24.2-.6-13.8-.9-24.4-.9-31.8h-1.3c-11.1,19.9-25.5,35.4-43.1,46.3-17.6,10.7-39.5,16-65.8,16h.2Z" fill="#fff"/>
    <path id="bo" data-name="path1311" d="M4641.73,525.46l-114.9-165.5h63.9l83.7,130.6,83.1-130.6h64.5l-114.9,164.9,121.8,175.3h-64.2l-90.3-138.5-90.3,138.5h-62.9l120.5-174.7h0Z" fill="#fff"/>
  </g>
</svg>
