<svg width="760" height="767" viewBox="0 0 760 767" fill="none" xmlns="http://www.w3.org/2000/svg">
<path fill-rule="evenodd" clip-rule="evenodd" d="M372.126 684.45C376.5 686.635 381.644 686.641 386.023 684.468L641.338 557.76C649.05 553.933 652.199 544.578 648.372 536.867C644.544 529.155 635.19 526.005 627.478 529.833L379.116 653.09L141.178 534.218V257.165L379.467 113.561L626.838 248.743C634.393 252.872 643.864 250.094 647.993 242.54C652.121 234.985 649.344 225.513 641.789 221.385L386.563 81.9094C381.699 79.2512 375.789 79.376 371.042 82.2371L117.542 235.008C112.862 237.828 110 242.894 110 248.359V543.856C110 549.763 113.338 555.162 118.622 557.802L372.126 684.45Z" fill="black"/>
<path fill-rule="evenodd" clip-rule="evenodd" d="M365.672 598.164C369.245 599.901 373.431 599.832 376.944 597.979L546.048 508.792L631.205 552.523C637.332 555.669 644.849 553.253 647.996 547.126C651.142 540.999 648.726 533.481 642.599 530.335L572.416 494.294L642.964 455.053C646.942 452.841 649.399 448.636 649.373 444.084C649.347 439.532 646.843 435.356 642.84 433.188L566.898 392.064L642.694 352.313C646.786 350.167 649.355 345.935 649.373 341.316C649.39 336.696 646.852 332.445 642.777 330.268L567.323 289.968L642.864 248.848C648.914 245.556 651.148 237.982 647.855 231.933C644.563 225.883 636.989 223.649 630.94 226.942L540.99 275.904L390.599 195.581C386.78 193.541 382.176 193.628 378.437 195.811L207.846 295.389C203.871 297.709 201.498 302.03 201.671 306.629C201.845 311.229 204.537 315.358 208.676 317.373L282.373 353.24L207.818 397.021C203.859 399.346 201.497 403.659 201.671 408.247C201.845 412.835 204.526 416.957 208.649 418.976L283.579 455.663L207.85 499.832C203.873 502.151 201.498 506.473 201.671 511.074C201.845 515.675 204.539 519.806 208.679 521.819L365.672 598.164ZM309.464 440.565L240.458 406.779L384.972 321.913L610.983 444.301L545.764 480.578L390.466 400.036C386.671 398.068 382.133 398.18 378.441 400.334L309.464 440.565ZM519.062 494.826L385.077 425.338L240.598 509.606L370.898 572.97L519.062 494.826ZM308.203 338.071L240.581 305.161L384.994 220.864L610.242 341.168L540.476 377.757L390.663 296.63C386.823 294.551 382.175 294.631 378.409 296.843L308.203 338.071Z" fill="black"/>
</svg>
