<?xml version="1.0" encoding="UTF-8"?>
<svg id="a" data-name="Layer 1" xmlns="http://www.w3.org/2000/svg" width="1000" height="1000" xmlns:xlink="http://www.w3.org/1999/xlink" viewBox="0 0 1000 1000">
  <defs>
    <linearGradient id="f" x1="1394.78" y1="-189.93" x2="1394.78" y2="162.93" gradientTransform="translate(-1035.48 244.6) scale(1.1 1)" gradientUnits="userSpaceOnUse">
      <stop offset="0" stop-color="#fff"/>
      <stop offset="1" stop-color="#fff" stop-opacity="0"/>
    </linearGradient>
    <linearGradient id="h" x1="504.64" y1="2950.21" x2="499.92" y2="2222.79" gradientTransform="translate(0 3101.19) scale(1 -1)" gradientUnits="userSpaceOnUse">
      <stop offset="0" stop-color="#fff"/>
      <stop offset="0" stop-color="#fbfbfb"/>
      <stop offset=".2" stop-color="#c5c5c5"/>
      <stop offset=".4" stop-color="#999"/>
      <stop offset=".6" stop-color="#777"/>
      <stop offset=".7" stop-color="#5e5e5e"/>
      <stop offset=".9" stop-color="#505050"/>
      <stop offset="1" stop-color="#4b4b4b"/>
    </linearGradient>
    <radialGradient id="v" cx="-80.52" cy="2446.66" fx="-80.52" fy="2446.66" r="73.49" gradientTransform="translate(0 3101.19) scale(1 -1)" gradientUnits="userSpaceOnUse">
      <stop offset="0" stop-color="#d2d2d2"/>
      <stop offset=".9" stop-color="#d2d2d2"/>
      <stop offset="1" stop-color="gray"/>
    </radialGradient>
    <radialGradient id="x" cx="-27.28" cy="2466.29" fx="-27.28" fy="2466.29" r="73.49" gradientTransform="translate(0 3101.19) scale(1 -1)" gradientUnits="userSpaceOnUse">
      <stop offset="0" stop-color="#d2d2d2"/>
      <stop offset=".9" stop-color="#d2d2d2"/>
      <stop offset="1" stop-color="gray"/>
    </radialGradient>
    <linearGradient id="aa" x1="278.51" y1="27.93" x2="314.18" y2="84.87" gradientTransform="translate(134.6 208.7)" gradientUnits="userSpaceOnUse">
      <stop offset="0" stop-color="#fff"/>
      <stop offset="1" stop-color="#fff" stop-opacity="0"/>
    </linearGradient>
    <linearGradient id="ad" x1="479.9" y1="29.7" x2="509.71" y2="79.35" gradientTransform="translate(134.6 208.7)" gradientUnits="userSpaceOnUse">
      <stop offset="0" stop-color="#fff"/>
      <stop offset="1" stop-color="#fff" stop-opacity="0"/>
    </linearGradient>
    <radialGradient id="af" cx="-2529.11" cy="2756.36" fx="-2529.11" fy="2756.36" r="85.31" gradientTransform="translate(0 3101.19) scale(1 -1)" gradientUnits="userSpaceOnUse">
      <stop offset="0" stop-color="#fff"/>
      <stop offset="1" stop-color="#fff" stop-opacity="0"/>
    </radialGradient>
    <radialGradient id="ah" cx="-1438.44" cy="6265.09" fx="-1438.44" fy="6265.09" r="85.42" gradientTransform="translate(0 3101.19) scale(1 -1)" gradientUnits="userSpaceOnUse">
      <stop offset="0" stop-color="#fff"/>
      <stop offset="1" stop-color="#fff" stop-opacity="0"/>
    </radialGradient>
    <linearGradient id="ak" x1="391.33" y1="157.11" x2="361.83" y2="206.96" gradientTransform="translate(134.6 208.7)" gradientUnits="userSpaceOnUse">
      <stop offset="0" stop-color="#fff"/>
      <stop offset="1" stop-color="#fff" stop-opacity="0"/>
    </linearGradient>
    <linearGradient id="an" x1="1181.15" y1="1011.11" x2="1181.15" y2="1090.05" gradientTransform="translate(-1248.04 -731.8) scale(1.3 1.5)" gradientUnits="userSpaceOnUse">
      <stop offset="0" stop-color="#fff"/>
      <stop offset="1" stop-color="#fff" stop-opacity="0"/>
    </linearGradient>
    <linearGradient id="aq" x1="1164.68" y1="1011.11" x2="1164.68" y2="1090.05" gradientTransform="translate(-798.74 -731.8) scale(1.3 1.5)" gradientUnits="userSpaceOnUse">
      <stop offset="0" stop-color="#fff"/>
      <stop offset="1" stop-color="#fff" stop-opacity="0"/>
    </linearGradient>
    <linearGradient id="as" x1="-207.76" y1="465.34" x2="81.69" y2="239.42" gradientTransform="translate(134.6 208.7)" gradientUnits="userSpaceOnUse">
      <stop offset="0" stop-color="#fff"/>
      <stop offset="1" stop-color="#fff" stop-opacity="0"/>
    </linearGradient>
    <linearGradient id="au" x1="1286.73" y1="420.84" x2="1576.18" y2="195.01" gradientTransform="translate(2356.87 251.1) rotate(-180) scale(1 -1)" gradientUnits="userSpaceOnUse">
      <stop offset="0" stop-color="#fff"/>
      <stop offset="1" stop-color="#fff" stop-opacity="0"/>
    </linearGradient>
    <linearGradient id="aw" x1="367.62" y1="693.65" x2="367.92" y2="716.26" gradientTransform="translate(134.6 208.7)" gradientUnits="userSpaceOnUse">
      <stop offset="0" stop-color="#3c3c3c"/>
      <stop offset="1" stop-color="#a0a0a0" stop-opacity="0"/>
    </linearGradient>
    <linearGradient id="ay" x1="335.22" y1="68.8" x2="342.62" y2="95.53" gradientTransform="translate(134.6 208.7)" gradientUnits="userSpaceOnUse">
      <stop offset="0" stop-color="#fff"/>
      <stop offset="1" stop-color="#fff" stop-opacity="0"/>
    </linearGradient>
    <linearGradient id="ba" x1="311.01" y1="96.78" x2="327.97" y2="128.54" gradientTransform="translate(134.6 208.7)" gradientUnits="userSpaceOnUse">
      <stop offset="0" stop-color="#3c3c3c"/>
      <stop offset="1" stop-color="#3c3c3c" stop-opacity="0"/>
    </linearGradient>
    <linearGradient id="bc" x1="387.85" y1="67.97" x2="397.62" y2="97.17" gradientTransform="translate(134.6 208.7)" gradientUnits="userSpaceOnUse">
      <stop offset="0" stop-color="#fff"/>
      <stop offset="1" stop-color="#fff" stop-opacity="0"/>
    </linearGradient>
    <linearGradient id="be" x1="367.34" y1="98.84" x2="384.3" y2="130.6" gradientTransform="translate(134.6 208.7)" gradientUnits="userSpaceOnUse">
      <stop offset="0" stop-color="#3c3c3c"/>
      <stop offset="1" stop-color="#3c3c3c" stop-opacity="0"/>
    </linearGradient>
  </defs>
  <g id="b" data-name="Layer 25">
    <g id="c" data-name="g10655" isolation="isolate" opacity=".8">
      <path id="d" data-name="path10635" d="M882.59,924.96c0,19.22-171.86,34.95-383.91,34.95s-383.91-15.62-383.91-34.95,171.86-34.95,383.91-34.95,383.91,15.73,383.91,34.95" fill="#4b4b4b"/>
    </g>
    <path id="e" data-name="path10675" d="M180.55,568.6c-2.06,10.79-2.98,21.69-2.78,32.58,5.04,166.72,144.52,302.09,322.44,302.09s320.9-134.55,322.44-302.09c.1-12.13-2.16-24.15-6.58-35.36,0,0,38.03,8.22,106.18,57.15,59.92,10.9,38.03-38.03,38.03-38.03,0,0-13.67-38.03-100.73-106.18-87.06-68.15-84.7-90.97-94.26-133.11-9.66-42.35-22.72-98.26-22.72-98.26,0,0-20.15-87.88-65.89-133.31-98.37-98.16-257.69-98.06-355.85.31-.21.21-.51.51-.72.72-45.74,46.05-71.44,115.94-71.44,115.94,0,0-14.7,55.5-14.29,99.91.41,43.68-10.28,82.23-97.34,150.38-87.06,68.15-100.73,106.18-100.73,106.18,0,0-20.76,45.84,39.16,35.05,68.15-44.92,105.25-54.07,105.15-54.07h0l-.1.1Z" stroke="#000" stroke-width="2.3"/>
    <path id="g" data-name="path10695" d="M695.31,223.24c0,98.37-87.99,178.23-196.53,178.23s-196.53-79.76-196.53-178.23S390.24,45,498.78,45s196.53,79.76,196.53,178.23" fill="url(#f)"/>
    <path id="i" data-name="path10715" d="M761.3,656.79c0,82.64-29.09,159.22-76.16,213.39-47.08,54.17-320.49,54.17-367.57,0-47.08-54.17-76.16-129.1-76.16-211.74,0-165.28,116.46-299.42,259.95-299.42,142.46.1,258.2,133.73,259.95,297.77h0Z" fill="url(#h)"/>
    <path id="j" data-name="path10735" d="M261.86,550s-8.84,82.54,1.85,130.13c10.69,47.59,22.92,94.87,22.92,94.87l-25.49,7.91c-9.56-11.1-18.4-22.82-26.42-35.05-12.33-19.32-27.34-58.9-27.34-58.9l39.47,30.84s-7.91-33.41-4.42-70.31c3.49-36.9,7.2-75.65,19.32-99.39h0l.1-.1Z" fill="#252525" isolation="isolate" opacity=".4"/>
    <path id="k" data-name="path10755" d="M363.1,414.52s11.41,17.58,19.32,17.78c12.95,1.44,16.65,15.11,29.5,14.18,27.55,32.99,51.7,63.73,77.5,76.58,9.25,5.96,19.12,7.4,27.55-7.2,14.7-12.85,48.52-49.13,55.71-63.01,10.69-12.33,8.22-30.32,8.22-30.32,0,0,18.19-7.3,27.34-7.91,10.18-.82,1.54-18.5,10.48-20.15-2.16-14.6,11.82-14.29-4.73-16.14-16.55-1.85-225.93-12.85-242.47-1.85-16.65,11-19.53,17.78-8.43,37.93h0v.1Z" fill="#3f3f3f"/>
    <path id="l" data-name="path10775" d="M739.92,554.41s8.84,82.54-1.85,130.13c-10.69,47.59-22.92,94.87-22.92,94.87l25.49,7.91c9.56-11.1,18.4-22.82,26.42-35.05,12.33-19.22,27.34-58.9,27.34-58.9l-39.47,30.84s7.91-33.41,4.42-70.31c-3.49-36.9-7.2-75.75-19.32-99.39l-.1-.1Z" fill="#252525" isolation="isolate" opacity=".4"/>
    <path id="m" data-name="path10795" d="M833.15,883.74c0,16.14-4.52,22-12.75,35.87h-299.73c-8.22-13.88-12.75-19.74-12.75-35.87,0-64.34,72.77-116.66,162.61-116.66s162.61,52.22,162.61,116.66" fill="#3f3f3f"/>
    <path id="n" data-name="path10815" d="M853.19,889.19c0,16.14-4.52,22-12.75,35.87h-299.52c-8.22-13.88-12.75-19.74-12.75-35.87,0-64.34,72.77-116.66,162.61-116.66s162.51,52.22,162.51,116.66" fill="#252525"/>
    <path id="o" data-name="path10835" d="M496.83,885.39c0,16.14-4.52,22-12.75,35.87H184.56c-8.22-13.88-12.75-19.74-12.75-35.87,0-64.34,72.77-116.66,162.61-116.66s162.51,52.42,162.51,116.66" fill="#3f3f3f"/>
    <path id="p" data-name="path10855" d="M476.68,889.19c0,16.14-4.52,22-12.75,35.87H164.42c-8.22-13.88-12.75-19.74-12.75-35.87,0-64.34,72.77-116.66,162.61-116.66s162.51,52.22,162.51,116.66" fill="#252525"/>
    <g id="q" data-name="g10895" isolation="isolate" opacity=".9">
      <path id="r" data-name="path10875" d="M703.84,300.33c0,48.62-49.65,87.99-111.01,87.99s-111.01-39.37-111.01-87.99,49.65-87.99,111.01-87.99,111.01,39.37,111.01,87.99"/>
    </g>
    <g id="s" data-name="g10955" isolation="isolate" opacity=".9">
      <path id="t" data-name="path10915" d="M496.52,293.95c0,64.24-42.25,116.35-94.36,116.35s-94.36-52.11-94.36-116.35,42.25-116.35,94.36-116.35,94.36,52.11,94.36,116.35"/>
      <path id="u" data-name="path10935" d="M496.52,293.95c0,64.24-42.25,116.35-94.36,116.35s-94.36-52.11-94.36-116.35,42.25-116.35,94.36-116.35,94.36,52.11,94.36,116.35" stroke="#000" stroke-width="2.4"/>
    </g>
    <path id="w" data-name="path10975" d="M491.07,296.83c0,62.8-40.19,113.58-89.84,113.58s-89.84-50.78-89.84-113.58,40.19-113.58,89.84-113.58,89.84,50.78,89.84,113.58" fill="url(#v)"/>
    <path id="y" data-name="path10995" d="M687.19,306.7c0,46.05-43.58,83.26-97.13,83.26s-97.13-37.31-97.13-83.26,43.58-83.26,97.13-83.26,97.13,37.31,97.13,83.26" fill="url(#x)"/>
    <path id="z" data-name="path11015" d="M544.73,307.73c0,20.76-11.61,37.72-25.7,37.72s-25.7-16.86-25.7-37.72,11.61-37.72,25.7-37.72,25.7,16.86,25.7,37.72"/>
    <path id="ab" data-name="path11035" d="M344.4,221.49s25.7-47.69,75.24-31.14c49.54,16.55,52.94,45.23,65.78,111.42,12.85,66.19-45.64,6.27-45.64,6.27,0,0-7.4-56.94-40.4-73.39-32.99-16.55-54.99-11-54.99-12.95v-.21Z" fill="url(#aa)" isolation="isolate" opacity=".8"/>
    <path id="ac" data-name="path11055" d="M489.43,307.01c0,20.76-11.61,37.72-25.7,37.72s-25.7-16.86-25.7-37.72,11.61-37.72,25.7-37.72,25.7,16.86,25.7,37.72" stroke="#000" stroke-width="2.3"/>
    <path id="ae" data-name="path11075" d="M575.87,230.64s53.24-9.25,82.64,27.55c29.4,36.8,20.15,49.65,20.15,49.65l-40.4,1.85c.1,0-25.59-58.9-62.39-79.04h0Z" fill="url(#ad)" isolation="isolate" opacity=".8"/>
    <path id="ag" data-name="path11095" d="M508.65,345.96s48.31,28.57,90.56,23.02c42.25-5.55,62.08-21.17,79.15-37.93-4.32,20.04-44.1,51.7-78.94,53.55-34.84,1.85-90.86-36.8-90.86-38.65h.1Z" fill="url(#af)" isolation="isolate" opacity=".8"/>
    <path id="ai" data-name="path11115" d="M323.53,264.56s-.31,62.29,37,97.85c37.31,35.56,59.62,28.06,89.01,32.48-23.23,9.76-76.37,9.76-104.53-21.48-28.06-31.14-23.44-107.62-21.59-108.95h0l.1.1Z" fill="url(#ah)" isolation="isolate" opacity=".8"/>
    <path id="aj" data-name="path11135" d="M500.73,496.96h9.15c0-.1,9.87-11,44.1-46.77,22.92-26.01,30.12-43.07,30.12-43.07,0,0,4.73-17.17-17.68-34.74-29.19-14.6-44.1-14.6-65.78-14.39-21.69.1-37.72,2.78-65.78,14.6-28.06,11.82-23.44,35.77-23.44,35.77,0,0,2.06,11.41,36.28,47.18,34.23,35.77,53.04,41.42,53.04,41.42h0Z" fill="#252525"/>
    <path id="al" data-name="path11155" d="M442.97,374.95s44.3,2.98,73.39,20.66c29.09,17.68,39.68,42.25,39.68,42.25,0,0,18.19-19.84,20.66-27.44,2.47-7.5,7.5-22.72-19.02-37.93-26.52-15.21-41.73-10.9-67.53-10.48-25.59.31-47.18,13.36-47.18,12.95h0Z" fill="url(#ak)"/>
    <g id="am" data-name="g11195" isolation="isolate" opacity=".8">
      <path id="ao" data-name="path11175" d="M386.64,852.39c0,35.98-44.4,65.27-99.19,65.27s-99.19-29.19-99.19-65.27,44.4-65.27,99.19-65.27,99.19,29.19,99.19,65.27" fill="url(#an)"/>
    </g>
    <g id="ap" data-name="g11235" isolation="isolate" opacity=".8">
      <path id="ar" data-name="path11215" d="M814.54,852.39c0,35.98-44.4,65.27-99.19,65.27s-99.19-29.19-99.19-65.27,44.4-65.27,99.19-65.27,99.19,29.19,99.19,65.27" fill="url(#aq)"/>
    </g>
    <path id="at" data-name="path11255" d="M45.08,598.1s154.28-99.19,178.23-117.59c23.95-18.5,1.85-77.19,1.85-77.19-16.14,22.1-34.02,43.07-53.24,62.49-27.55,22.1-49.65,40.4-91.89,75.24-42.25,42.35-34.84,58.9-34.84,57.05h-.1Z" fill="url(#as)"/>
    <path id="av" data-name="path11275" d="M951.97,596.15s-154.28-99.19-178.23-117.59c-23.95-18.5-1.85-77.19-1.85-77.19,16.14,22.1,34.02,43.07,53.24,62.49,27.55,22.1,49.65,40.4,91.89,75.24,42.25,42.35,34.84,59,34.84,57.05h.1Z" fill="url(#au)"/>
    <path id="ax" data-name="path11294" d="M474.94,902.55s19.74,1.64,27.96,1.54c9.15-.1,21.17-1.03,27.55-1.64,1.95,9.87,8.33,18.71,10.38,21.48,2.57,2.47-76.68.41-76.68.41,0,0,9.87-13.88,10.79-21.69v-.1Z" fill="url(#aw)"/>
    <path id="az" data-name="path11315" d="M458.59,270.72s6.37,18.3,6.78,33.92c13.88-4.73,21.17-9.35,21.17-9.35,0,0-3.49-24.57-27.96-24.57h0Z" fill="url(#ay)"/>
    <path id="bb" data-name="path11335" d="M444.2,283.67s-2.36,20.45,6.37,34.33c8.74,13.88,18.6,18.3,26.11,20.04-2.36,2.06-12.95,7.81-22.92-.31-9.87-8.02-14.8-15.73-14.8-26.42s1.85-23.64,5.24-27.65h0Z" fill="url(#ba)"/>
    <path id="bd" data-name="path11355" d="M513.07,271.85s6.37,18.3,6.78,33.92c13.88-4.73,21.17-9.35,21.17-9.35,0,0-3.49-24.57-27.96-24.57h0Z" fill="url(#bc)"/>
    <path id="bf" data-name="path11375" d="M500.53,285.73s-2.36,20.45,6.37,34.33c8.74,13.88,18.6,18.3,26.11,20.04-2.36,2.06-12.95,7.81-22.92-.31-9.87-8.02-14.8-15.73-14.8-26.42s1.95-23.74,5.24-27.65h0Z" fill="url(#be)"/>
  </g>
  <g id="bg" data-name="Layer 1-25">
    <path id="bh" data-name="path11405" d="M225.27,426.96s103.4,107.21,272.69,104.53c82.43-1.34,190.05,1.44,299.21-112.65l7.4,8.74,54.17,47.28s-49.13,57.15-35.56,91.48c0,0,5.55,34.54,1.03,65.27-6.99,48-34.02,117.49-54.07,135.47,0,0-475.59-11.82-537.16,0,0,0-62.49-45.74-69.18-192.73,0,0-8.53-45.64-48.21-76.99l94.26-87.06,15.42,16.75v-.1Z" fill="#252525"/>
  </g>
  <path d="M607.59,669.8l-18.57-81.6c-.59-2.67-3.06-5.63-5.43-6.82l-75.38-36.26c-2.37-1.09-6.22-1.09-8.69,0l-75.38,36.26c-2.37,1.09-4.84,4.15-5.43,6.82l-12.65,55.42-5.93,26.08c-.59,2.67.3,6.32,1.98,8.5l52.06,65.4c1.68,2.07,5.14,3.75,7.71,3.75h83.68c2.67,0,6.13-1.68,7.71-3.75l52.06-65.4c1.68-2.07,2.47-5.83,1.98-8.5h.1v.1h.2ZM531.82,601.14c.79,1.78,1.38,3.66,1.38,5.43v26.77c0,1.48-.4,3.06-.89,4.54l-2.27,1.28-29.83-19.17,31.61-18.87h0ZM470.87,608.75c0-3.26,1.28-5.43,1.28-5.43l56.61,36.55-22.62,12.84-35.37-19.66v-24.4l.1.1ZM454.07,675.53v-43.37c0-1.78.59-3.85,1.48-5.63l48.9,27.17h0l-48.8,27.86c-.99-1.98-1.68-4.05-1.68-5.83v-.1l.1-.1ZM553.46,679.09c-.69,2.17-1.78,4.15-5.53,7.21s-37.54,21.64-37.54,21.64c-3.46,1.98-8.99,1.98-12.45,0,0,0-32.01-17.88-37.54-21.64-.99-.59-3.16-2.67-3.75-3.46h0l73.4-41.99,23.02-13.04c.59,1.48.99,3.06.99,4.45,0,0,.2,32.4,0,43.37,0,.89-.2,2.17-.59,3.46h0Z" fill="#b0b2b4"/>
</svg>
