<?xml version="1.0" encoding="UTF-8" standalone="no"?>
<svg
   id="a"
   data-name="Layer 1"
   width="185.27"
   height="185.58"
   viewBox="0 0 185.27 185.58"
   version="1.1"
   sodipodi:docname="platform-mesh-icon-white.svg"
   inkscape:version="1.4.3 (0d15f75, 2025-12-25)"
   inkscape:export-filename="platform-mesh-icon-white.png"
   inkscape:export-xdpi="96"
   inkscape:export-ydpi="96"
   xmlns:inkscape="http://www.inkscape.org/namespaces/inkscape"
   xmlns:sodipodi="http://sodipodi.sourceforge.net/DTD/sodipodi-0.dtd"
   xmlns="http://www.w3.org/2000/svg"
   xmlns:svg="http://www.w3.org/2000/svg">
  <defs
     id="defs49" />
  <sodipodi:namedview
     id="namedview49"
     pagecolor="#ffffff"
     bordercolor="#000000"
     borderopacity="0.25"
     inkscape:showpageshadow="2"
     inkscape:pageopacity="0.0"
     inkscape:pagecheckerboard="0"
     inkscape:deskcolor="#d1d1d1"
     inkscape:zoom="0.59"
     inkscape:cx="383.89831"
     inkscape:cy="80.508475"
     inkscape:current-layer="a" />
  <g
     id="g49"
     transform="translate(-120.12,-67.29)">
    <path
       d="m 248.06,120.98 c 4.33,7.49 7.53,15.81 9.57,24.91 0.5,2.24 0.91,4.47 1.22,6.68 2.55,0.77 4.56,2.76 5.36,5.29 12.13,-1.76 25.39,-3.5 31.04,-4.23 0.07,-1.84 0.62,-3.55 1.55,-5.01 -5.79,-4.97 -13.79,-10.79 -23.03,-16.07 -6.87,-3.93 -15.74,-8.31 -25.7,-11.56 z"
       fill="#ffffff"
       id="path14" />
    <path
       d="m 180.71,82.32 c -3.58,-0.27 -7.08,-0.28 -10.41,-0.04 -4.23,0.31 -8.07,1.04 -11.28,2.11 -0.14,0.1 -0.28,0.2 -0.42,0.3 6.2,-1.58 12.7,-2.41 19.39,-2.41 0.91,0 1.81,0.02 2.71,0.05 z"
       fill="#ffffff"
       id="path15" />
    <path
       d="m 185.34,239.23 c -0.01,-0.06 -0.03,-0.13 -0.04,-0.19 -2.41,0.22 -4.84,0.34 -7.31,0.34 -5.54,0 -10.94,-0.57 -16.16,-1.67 0.46,0.3 0.92,0.6 1.38,0.89 6.94,1.42 14.4,1.63 22.13,0.63 z"
       fill="#ffffff"
       id="path16" />
    <path
       d="m 216.2,82.34 c 3.09,0.4 7.08,1.06 11.68,2.14 10.08,2.37 25.09,7.31 39.42,17.38 11,7.73 20.04,17.14 26.87,27.95 3.49,5.52 5.89,10.67 7.4,14.82 0.8,-0.32 1.64,-0.54 2.52,-0.64 -3.84,-21.96 -15.4,-41.27 -31.79,-55.02 -7.54,-2.54 -18.75,-5.12 -31.29,-6.32 -7.02,-0.67 -15.64,-1.02 -24.82,-0.32 z"
       fill="#ffffff"
       id="path17" />
    <path
       d="m 197,82.85 c 0.89,-3.9 4.38,-6.8 8.54,-6.8 3.23,0 6.05,1.74 7.57,4.34 10.42,-1.05 20.25,-0.69 28.12,0.06 7.97,0.76 16.07,2.15 23.42,4 0.97,0.24 1.92,0.5 2.85,0.75 -15.36,-11.26 -34.31,-17.91 -54.81,-17.91 -17.63,0 -34.1,4.92 -48.14,13.45 1.76,-0.3 3.63,-0.53 5.59,-0.67 8.37,-0.61 17.79,0.37 26.86,2.78 z"
       fill="#ffffff"
       id="path18" />
    <path
       d="m 233.82,216.08 c 3.26,-3.07 6.22,-6.37 8.86,-9.84 -0.14,-0.08 -0.28,-0.16 -0.41,-0.25 -2.53,3.6 -5.36,6.97 -8.44,10.09 z"
       fill="#ffffff"
       id="path19" />
    <path
       d="m 260.11,167.47 c -0.21,0.1 -0.42,0.2 -0.64,0.28 -0.43,7.08 -1.89,13.98 -4.38,20.66 -2.25,6.02 -5.35,11.8 -9.2,17.2 8.82,5.39 16.14,10.77 21.86,16.08 1.8,-1.97 4.36,-3.22 7.22,-3.28 -0.35,-6.5 -1.3,-16.51 -3.87,-26.68 -2.64,-10.47 -6.34,-18.61 -10.99,-24.26 z"
       fill="#ffffff"
       id="path20" />
    <path
       d="m 256.53,152.23 c 0,0 0.02,0 0.03,0 -0.29,-1.94 -0.65,-3.9 -1.09,-5.86 -0.67,-2.98 -1.46,-5.88 -2.39,-8.69 1.44,4.68 2.46,9.55 3,14.57 0.15,0 0.29,-0.01 0.44,-0.01 z"
       fill="#ffffff"
       id="path21" />
    <path
       d="m 256.2,168.3 c -1.24,13.18 -5.74,25.4 -12.69,35.87 0,0 0,0 0,0 0.16,0.1 0.32,0.19 0.48,0.29 3.78,-5.28 6.83,-10.94 9.03,-16.83 2.34,-6.26 3.74,-12.72 4.2,-19.36 -0.23,0.02 -0.46,0.03 -0.69,0.03 -0.11,0 -0.22,0 -0.33,0 z"
       fill="#ffffff"
       id="path22" />
    <path
       d="m 225.86,243.56 c -3.5,0 -6.99,-0.18 -10.44,-0.54 -5.33,-0.55 -10.6,-1.54 -15.78,-2.94 -1.02,2.89 -3.78,4.96 -7.03,4.96 -2.74,0 -5.14,-1.48 -6.43,-3.69 -3.47,0.47 -6.9,0.71 -10.25,0.71 -2.55,0 -5.05,-0.14 -7.51,-0.41 13.16,7.16 28.24,11.22 44.27,11.22 20.35,0 39.17,-6.55 54.46,-17.66 -4.76,2.03 -12.56,4.85 -22.51,6.64 -6.26,1.13 -12.55,1.7 -18.78,1.7 z"
       fill="#ffffff"
       id="path23" />
    <path
       d="m 281.32,173.87 c -5.8,-4.34 -11.8,-7.67 -17.68,-9.85 -0.44,0.83 -1.01,1.57 -1.69,2.19 4.81,5.9 8.61,14.29 11.31,24.98 2.65,10.51 3.61,20.83 3.95,27.41 1.99,0.4 3.77,1.39 5.15,2.79 7.37,-8.36 13.25,-18.07 17.24,-28.7 -4.63,-6.79 -11.07,-13.43 -18.28,-18.82 z"
       fill="#ffffff"
       id="path24" />
    <path
       d="m 305.3,164.07 c -4.93,0 -9.04,-3.55 -9.9,-8.23 -5.7,0.74 -18.82,2.46 -30.84,4.21 0,0.08 0,0.15 0,0.23 0,0.57 -0.06,1.13 -0.18,1.67 6.08,2.25 12.28,5.69 18.25,10.16 6.93,5.19 13.18,11.51 17.87,18.04 2.82,-8.23 4.51,-16.99 4.89,-26.08 -0.03,0 -0.07,0 -0.1,0 z"
       fill="#ffffff"
       id="path25" />
    <path
       d="m 213.29,88.92 c 8.11,3.96 15.47,9.1 21.7,15.21 4.32,4.23 8.1,8.9 11.33,13.98 11.12,3.37 21.01,8.2 28.54,12.51 9.31,5.33 17.4,11.21 23.3,16.27 0.44,-0.44 0.92,-0.84 1.43,-1.19 -1.26,-3.58 -3.47,-8.66 -7.29,-14.7 -6.58,-10.42 -15.67,-19.86 -26.27,-27.32 -14.02,-9.86 -28.72,-14.7 -38.59,-17.03 -5.36,-1.26 -9.92,-1.94 -13.14,-2.31 0,0.16 0.01,0.32 0.01,0.48 0,1.48 -0.37,2.88 -1.02,4.1 z"
       fill="#ffffff"
       id="path26" />
    <path
       d="m 232.49,220.27 c -9.16,7.9 -20.27,14.08 -31.85,17.79 4.91,1.31 9.9,2.23 14.95,2.76 9.39,0.98 19,0.6 28.57,-1.11 9.15,-1.64 16.99,-4.34 22.13,-6.52 -0.75,-1.41 -1.17,-3.01 -1.17,-4.71 0,-1.81 0.48,-3.52 1.32,-4.99 -5.71,-5.33 -13.08,-10.75 -21.86,-16.1 -3.5,4.63 -7.56,8.96 -12.1,12.88 z"
       fill="#ffffff"
       id="path27" />
    <path
       d="m 221.29,116.07 c -9.65,-0.25 -19.2,0.83 -28.59,3.21 0,0.23 -0.02,0.46 -0.04,0.68 7.12,1.01 18.56,4.17 30.45,9.6 17.89,8.17 26.59,16.72 30.82,23.1 0.68,-0.23 1.41,-0.38 2.16,-0.42 -0.54,-5.01 -1.56,-9.88 -3,-14.57 -2.09,-6.36 -4.82,-12.26 -8.19,-17.69 -7.45,-2.2 -15.43,-3.71 -23.59,-3.92 z"
       fill="#ffffff"
       id="path28" />
    <path
       d="m 251.94,153.67 c -2.62,-3.9 -6.41,-7.71 -11.28,-11.38 -5.13,-3.85 -11.34,-7.46 -18.46,-10.71 -11.41,-5.21 -23.07,-8.5 -30.14,-9.46 -0.04,0.07 -0.07,0.15 -0.11,0.22 1.29,1.45 2.51,2.96 3.63,4.53 4.93,6.87 8.14,14.75 9.59,23.47 14.36,0.5 30.05,2.27 44.06,6.57 0.6,-1.31 1.55,-2.43 2.72,-3.24 z"
       fill="#ffffff"
       id="path29" />
    <path
       d="m 253.33,167.65 c -4.33,4.2 -12.06,8.82 -21.05,12.5 -9.4,3.84 -18.3,5.92 -25.17,5.92 -0.06,0 -0.11,0 -0.17,0 0,0 0,0.01 0,0.02 13.47,5.64 26.07,11.87 36.57,18.09 6.94,-10.47 11.44,-22.7 12.69,-35.87 -1.02,-0.04 -1.98,-0.27 -2.87,-0.66 z"
       fill="#ffffff"
       id="path30" />
    <path
       d="m 152.01,102.16 c 2.41,0.27 4.83,0.68 7.23,1.24 7.76,-6.95 16.58,-12.47 26.28,-16.43 2.57,-1.05 5.17,-1.96 7.79,-2.74 -4.21,-0.95 -8.46,-1.59 -12.6,-1.9 -0.9,-0.03 -1.81,-0.05 -2.71,-0.05 -6.69,0 -13.19,0.84 -19.39,2.41 -6.92,4.97 -13.12,10.87 -18.43,17.51 3.57,-0.49 7.58,-0.51 11.83,-0.04 z"
       fill="#ffffff"
       id="path31" />
    <path
       d="m 159.53,106.12 c 3.16,0.62 6.23,1.5 9.17,2.63 -2.88,-1.19 -5.85,-2.17 -8.85,-2.93 -0.11,0.1 -0.22,0.2 -0.33,0.3 z"
       fill="#ffffff"
       id="path32" />
    <path
       d="m 206.53,188.31 c -0.68,2.03 -2.15,3.69 -4.04,4.63 1.76,5.13 2.52,11.58 2.11,18.24 -0.5,8.14 -2.69,15.79 -6.2,21.72 0.71,0.88 1.23,1.92 1.48,3.07 11.33,-3.62 22.19,-9.66 31.15,-17.38 0.95,-0.82 1.88,-1.66 2.78,-2.51 3.09,-3.12 5.91,-6.49 8.44,-10.09 -10.25,-6.07 -22.28,-12.04 -35.74,-17.68 z"
       fill="#ffffff"
       id="path33" />
    <path
       d="m 182.12,113.6 c 1.09,-0.74 2.4,-1.17 3.81,-1.17 3,0 5.55,1.96 6.44,4.66 9.52,-2.4 19.2,-3.48 28.98,-3.23 7.48,0.19 14.79,1.45 21.7,3.31 -2.82,-4.12 -6.02,-7.95 -9.61,-11.47 C 227.3,99.68 220.02,94.62 212,90.74 c -1.6,1.74 -3.9,2.83 -6.45,2.83 -4.6,0 -8.37,-3.55 -8.74,-8.06 -3.52,0.93 -7.03,2.08 -10.46,3.48 -8.99,3.67 -17.22,8.73 -24.51,15.05 5.07,1.4 10.02,3.42 14.65,6 1.97,1.1 3.84,2.28 5.63,3.54 z"
       fill="#ffffff"
       id="path34" />
    <path
       d="m 185.3,239.04 c -0.09,-0.47 -0.14,-0.95 -0.14,-1.45 0,-0.87 0.15,-1.7 0.42,-2.47 -1.64,-0.72 -3.26,-1.48 -4.87,-2.28 -7,-3.5 -13.77,-8.6 -20.12,-15.17 -0.05,-0.05 -0.1,-0.11 -0.16,-0.16 -4.22,0.85 -8.58,1.27 -12.99,1.27 -2.29,0 -4.59,-0.12 -6.9,-0.35 6.05,7.47 13.23,13.98 21.29,19.27 5.22,1.09 10.62,1.67 16.16,1.67 2.46,0 4.9,-0.11 7.31,-0.34 z"
       fill="#ffffff"
       id="path35" />
    <path
       d="m 148.36,216.57 c -3.43,-0.03 -6.78,-0.36 -10.04,-0.98 0.1,0.14 0.21,0.27 0.31,0.41 3.25,0.43 6.5,0.62 9.73,0.58 z"
       fill="#ffffff"
       id="path36" />
    <path
       d="m 192.61,230.14 c 1.53,0 2.94,0.46 4.13,1.25 6.56,-11.42 7.15,-27.56 3.66,-37.74 -0.48,0.09 -0.98,0.14 -1.49,0.14 -0.69,0 -1.36,-0.09 -2.01,-0.25 -2.25,3.42 -4.9,6.59 -7.94,9.46 -6.54,6.18 -14.77,10.8 -23.8,13.37 -0.72,0.2 -1.44,0.39 -2.16,0.57 5.36,5.4 11.6,10.37 18.7,13.92 1.63,0.81 3.27,1.58 4.92,2.3 1.36,-1.83 3.54,-3.02 5.99,-3.02 z"
       fill="#ffffff"
       id="path37" />
    <path
       d="m 156.8,105.66 c 0.08,-0.08 0.16,-0.16 0.24,-0.23 0.07,-0.07 0.14,-0.13 0.21,-0.2 -1.82,-0.38 -3.66,-0.67 -5.49,-0.87 -5.03,-0.56 -9.69,-0.4 -13.59,0.42 -0.38,0.51 -0.76,1.03 -1.13,1.55 3.79,-0.81 7.72,-1.25 11.75,-1.25 2.72,0 5.39,0.2 8,0.57 z"
       fill="#ffffff"
       id="path38" />
    <path
       d="m 206.73,183.86 c 6.6,0.09 15.37,-1.93 24.71,-5.75 8.36,-3.42 15.76,-7.78 19.94,-11.66 -1.77,-1.48 -2.89,-3.69 -2.89,-6.18 0,-0.42 0.03,-0.84 0.1,-1.24 -13.67,-4.2 -29.01,-5.95 -43.1,-6.47 0.06,0.44 0.11,0.87 0.16,1.31 0.97,8.98 0.24,17.52 -2.08,25.31 1.56,1.11 2.7,2.75 3.17,4.67 z"
       fill="#ffffff"
       id="path39" />
    <path
       d="m 198.91,177.71 c 0.93,0 1.82,0.16 2.65,0.45 2.15,-7.41 2.81,-15.52 1.89,-24.04 -0.06,-0.54 -0.13,-1.09 -0.2,-1.62 -7.56,-0.21 -14.72,-0.07 -20.99,0.22 -19.26,0.89 -36.25,3.5 -44.85,5.53 0.15,0.68 0.23,1.39 0.23,2.12 0,1.76 -0.45,3.41 -1.25,4.84 14.65,1.84 35.45,7.5 56.43,15.31 1.47,-1.71 3.66,-2.8 6.1,-2.8 z"
       fill="#ffffff"
       id="path40" />
    <path
       d="m 160.56,130.38 c 6.2,-3.67 12.5,-6.74 18.89,-9.2 -0.19,-0.63 -0.3,-1.3 -0.3,-1.99 0,-1.51 0.5,-2.91 1.33,-4.04 -1.62,-1.13 -3.31,-2.18 -5.08,-3.17 -2.17,-1.21 -4.41,-2.29 -6.71,-3.24 -2.95,-1.13 -6.01,-2.01 -9.17,-2.63 -0.31,0.29 -0.62,0.58 -0.92,0.87 -6.46,6.17 -12.13,13.42 -16.84,21.53 -5.67,9.76 -8.6,18.48 -9.84,22.81 0.38,0.18 0.75,0.39 1.1,0.61 5.85,-5.97 15.07,-14.17 27.53,-21.56 z"
       fill="#ffffff"
       id="path41" />
    <path
       d="m 202.9,150.27 c -1.42,-8.21 -4.48,-15.64 -9.13,-22.11 -1,-1.39 -2.07,-2.73 -3.2,-4.02 -1.21,1.14 -2.84,1.84 -4.64,1.84 -2.25,0 -4.25,-1.1 -5.48,-2.79 -6.35,2.43 -12.61,5.46 -18.76,9.11 -12.16,7.21 -21.18,15.2 -26.94,21.06 0.8,0.81 1.46,1.75 1.94,2.79 8.32,-1.99 25.02,-4.69 45.46,-5.64 6.21,-0.29 13.27,-0.42 20.75,-0.23 z"
       fill="#ffffff"
       id="path42" />
    <path
       d="m 169.88,212.45 c 10.06,-4.11 18.65,-11.08 24.76,-19.89 -2.26,-1.42 -3.77,-3.94 -3.77,-6.81 0,-1.19 0.26,-2.32 0.73,-3.34 -21.28,-7.89 -42.3,-13.54 -56.72,-15.17 -0.37,0.39 -0.77,0.75 -1.19,1.07 2.59,7.73 7.38,18.45 13.68,28.57 3.47,5.57 8.1,12.09 13.84,18.21 1.13,-0.25 2.25,-0.53 3.35,-0.85 1.81,-0.51 3.59,-1.12 5.32,-1.8 z"
       fill="#ffffff"
       id="path43" />
    <path
       d="m 127.64,150.37 c 0.75,0 1.48,0.09 2.18,0.24 1.28,-4.47 4.22,-13.18 9.99,-23.12 4.76,-8.21 10.48,-15.54 16.99,-21.82 -2.61,-0.38 -5.28,-0.57 -8,-0.57 -4.03,0 -7.96,0.43 -11.75,1.25 -9.66,13.56 -15.75,29.84 -16.93,47.46 1.83,-2.1 4.52,-3.43 7.53,-3.43 z"
       fill="#ffffff"
       id="path44" />
    <path
       d="m 158.64,215.6 c -4.66,-5.1 -9.08,-10.99 -13.16,-17.55 -6.27,-10.07 -11.06,-20.75 -13.74,-28.59 -1.25,0.56 -2.64,0.88 -4.1,0.88 -2.98,0 -5.65,-1.31 -7.49,-3.38 1.33,18.16 7.88,34.86 18.16,48.62 3.26,0.62 6.61,0.96 10.04,0.98 3.48,-0.05 6.92,-0.37 10.28,-0.97 z"
       fill="#ffffff"
       id="path45" />
    <path
       d="m 191.71,122.07 c 0.08,0.09 0.15,0.18 0.23,0.26 0.04,-0.07 0.08,-0.15 0.11,-0.22 -0.12,-0.02 -0.23,-0.03 -0.34,-0.04 z"
       fill="#ffffff"
       id="path46" />
    <path
       d="m 206.94,186.09 c 0,0 0,-0.01 0,-0.02 -0.02,0 -0.03,0 -0.05,0 0.02,0 0.03,0.01 0.05,0.02 z"
       fill="#ffffff"
       id="path47" />
    <path
       d="m 164.55,214.25 c -1.1,0.31 -2.22,0.6 -3.35,0.85 0.02,0.03 0.05,0.05 0.07,0.08 2.96,-0.68 5.83,-1.59 8.6,-2.72 -1.73,0.68 -3.51,1.28 -5.32,1.8 z"
       fill="#ffffff"
       id="path48" />
    <path
       d="m 148.36,216.57 c 0.15,0 0.29,0 0.44,0 3.39,0 6.7,-0.3 9.92,-0.88 -0.03,-0.03 -0.05,-0.06 -0.08,-0.09 -3.36,0.6 -6.8,0.92 -10.28,0.97 z"
       fill="#ffffff"
       id="path49" />
  </g>
</svg>
