<?xml version="1.0" encoding="UTF-8" standalone="no"?>
<svg
   width="924"
   height="924"
   viewBox="0 0 924 924"
   fill="none"
   version="1.1"
   id="svg1"
   sodipodi:docname="konfidence-icon-white.svg"
   inkscape:version="1.4.3 (0d15f75, 2025-12-25)"
   inkscape:export-filename="konfidence-icon-white.png"
   inkscape:export-xdpi="96"
   inkscape:export-ydpi="96"
   xmlns:inkscape="http://www.inkscape.org/namespaces/inkscape"
   xmlns:sodipodi="http://sodipodi.sourceforge.net/DTD/sodipodi-0.dtd"
   xmlns="http://www.w3.org/2000/svg"
   xmlns:svg="http://www.w3.org/2000/svg">
  <defs
     id="defs1" />
  <sodipodi:namedview
     id="namedview1"
     pagecolor="#ffffff"
     bordercolor="#000000"
     borderopacity="0.25"
     inkscape:showpageshadow="2"
     inkscape:pageopacity="0.0"
     inkscape:pagecheckerboard="0"
     inkscape:deskcolor="#d1d1d1"
     inkscape:zoom="0.32"
     inkscape:cx="457.8125"
     inkscape:cy="457.8125"
     inkscape:current-layer="svg1" />
  <path
     d="m 47.7727,666.813 c 75.3103,28.915 232.4583,78.942 418.5453,78.942 188.829,0 336.553,-43.561 404.212,-67.831 C 793.012,824.285 639.155,924 462,924 280.397,924 123.272,819.216 47.7727,666.813 Z M 882.299,269.943 C 909.069,328.431 924,393.471 924,462 c 0,0.546 -0.011,1.092 -0.013,1.637 -37.743,-0.944 -133.292,5.152 -320.345,63.912 -85.488,26.855 -95.391,38.739 -214.19,57.144 C 244.975,607.075 73.714,598.303 17.7117,589.114 6.1791,548.73 0,506.087 0,462 0,394.378 14.5258,330.148 40.6312,272.263 95.292,283.08 253.235,310.2 463.205,310.2 c 227.254,0 381.843,-31.772 419.094,-40.257 z M 462,0 c 135.696,0 257.73,58.5 342.253,151.658 -56.227,9.828 -179.223,27.386 -341.048,27.386 -148.106,0 -275.882,-14.713 -345.842,-24.737 C 201.967,59.611 325.022,0 462,0 Z"
     fill="#ffffff"
     id="path1" />
</svg>
