<?xml version="1.0" encoding="UTF-8"?>
<svg xmlns="http://www.w3.org/2000/svg" width="454" height="432.06" viewBox="0 0 454 432.06">
  <g id="a" data-name="Layer 1">
    <circle cx="112.91" cy="269.53" r="15.93"/>
    <circle cx="336.85" cy="269.53" r="15.93"/>
  </g>
  <g id="b" data-name="Layer 2">
    <g>
      <rect x="186.4" y="226.88" width="32.33" height="0" transform="translate(-95.2 288.88) rotate(-60)"/>
      <path d="M222.75,212.88l-16.16,28h131.17c8.98,0,17.01,4.16,22.26,10.65l-22.31-38.65h-114.95Z"/>
      <path d="M343.39,298.31c-1.82.37-3.71.56-5.64.56h-3.57c3.05.31,6.15.14,9.21-.56Z"/>
      <path d="M349.56,325.62c-.21.05-.43.09-.64.14.21-.04.43-.09.64-.14Z"/>
      <path d="M288.05,298.87h-127.05l-.12.2c-9.12,15.8-24.77,25.54-41.59,27.8h213.8c-18.09-1.28-35.26-11.19-45.04-28Z"/>
      <path d="M111.38,240.88h38.71l16.16-28h-54.87s-.02,0-.02,0l-22.52,39.01c5.25-6.7,13.4-11.01,22.55-11.01Z"/>
      <polygon points="162.18 240.88 194.48 240.88 210.65 212.88 178.35 212.88 162.18 240.88"/>
      <path d="M160.88,299.07l.12-.2h-43.84c-6.51,1.24-13.47.25-19.65-3.32l-.62-.36c-6.62-3.83-11.36-10-13.34-17.39-1.19-4.45-1.29-9.01-.35-13.39.84-4.66,2.82-8.94,5.63-12.53l22.52-39.01c-18.96,0-35.76,9.39-46.04,23.74l-3.15,5.45c-3.03,5.25-5.15,10.84-6.38,16.6-.68,3.51-1.05,7.13-1.05,10.84v.71c0,31.23,25.41,56.64,56.64,56.64h7.92c16.82-2.26,32.47-12,41.59-27.8Z"/>
      <path d="M246.67,94.48l-16.12,27.92,16.17,28,27.35-47.38c.03-.06.06-.12.1-.18l-4.83-8.37h-22.67Z"/>
      <path d="M349.88,325.55c-.11.02-.21.05-.32.07.11-.02.21-.05.32-.07Z"/>
      <path d="M366.39,270.23v-.71c0-6.81-2.39-13.07-6.38-17.99l2.42,4.18c7.9,13.68,3.19,31.23-10.48,39.12l-.62.36c-2.54,1.47-5.22,2.5-7.94,3.12,13.1-2.63,23-14.22,23-28.08Z"/>
      <path d="M365.94,319.08c27.05-15.62,36.35-50.32,20.73-77.37l-3.27-5.66c-10.32-14.04-26.94-23.17-45.66-23.17h-.05l22.31,38.65c3.98,4.92,6.38,11.18,6.38,17.99v.71c0,13.86-9.9,25.45-23,28.08-3.05.69-6.16.87-9.21.56h-46.13c9.78,16.81,26.95,26.72,45.04,28h4.66c3.82,0,7.55-.39,11.17-1.11.21-.05.43-.09.64-.14.11-.02.21-.05.32-.07,5.3-1.23,10.5-3.25,15.45-6.11l.62-.36Z"/>
      <path d="M248.1,57.86c.4.59.78,1.19,1.14,1.81l1.89,3.28c-.81-1.8-1.79-3.5-2.94-5.08h-.09Z"/>
      <polygon points="240.67 160.88 224.5 132.88 208.44 160.7 224.6 188.7 240.67 160.88"/>
      <path d="M359.01,57.86h-78.48s-32.34,0-32.34,0h0s-101.72,0-101.72,0c-.62,0-1.23.06-1.83.14-.74-4.14-4.28-7.29-8.59-7.44-7.43-13.37-21.69-22.42-38.08-22.42-24.05,0-43.54,19.49-43.54,43.54s19.49,43.54,43.54,43.54c16.43,0,30.73-9.11,38.14-22.54,4.74-.2,8.53-4.03,8.66-8.79.55.07,1.12.12,1.69.12h105.64s0,0,0,0h43.51s22.68,0,22.68,0v25.9h12.66v-15.15h13.04v15.15h12.66v-25.9h2.35c7.22,0,13.07-5.85,13.07-13.07s-5.85-13.07-13.07-13.07ZM97.81,94.14c-12.41,0-22.46-10.06-22.46-22.46s10.06-22.46,22.46-22.46,22.46,10.06,22.46,22.46-10.06,22.46-22.46,22.46Z"/>
      <path d="M174.77,102.66l.11.19,21.95-38.02c2.19-6.23,6.52-11.74,12.67-15.29l.62-.36c4.5-2.6,9.42-3.83,14.27-3.83,3.64,0,7.23.7,10.6,2.03h39.49l-.99-1.71c-1.71-2.97-3.67-5.71-5.8-8.24-4.05-4.63-8.86-8.61-14.34-11.77l-.62-.36c-27.05-15.61-61.75-6.31-77.37,20.73l-3.79,6.57c-6.52,15.73-5.94,34.21,3.21,50.06Z"/>
      <path d="M199.02,88.66c-4.34-7.52-4.87-16.22-2.19-23.83,2.19-6.23,6.52-11.74,12.67-15.29l.62-.36c4.5-2.6,9.42-3.83,14.27-3.83,3.64,0,7.23.7,10.6,2.03h39.49l-.99-1.71c-1.71-2.97-3.67-5.71-5.8-8.24-4.05-4.63-8.86-8.61-14.34-11.77l-.62-.36c-27.05-15.61-61.75-6.31-77.37,20.73l-3.79,6.57c-6.52,15.73-5.94,34.21,3.21,50.06l.11.19,31.18,54,26.3,45.55h32.33l-43.34-75.07-22.33-38.67Z"/>
      <path d="M269.34,94.48l4.83,8.37c1.55-2.7,2.85-5.5,3.92-8.37h-8.75Z"/>
      <path d="M386.68,241.71l-3.27-5.66-81.74-141.57h-32.33l4.83,8.37c.77-1.35,1.49-2.73,2.14-4.12-.65,1.4-1.37,2.77-2.14,4.12l63.53,110.03,22.31,38.65c3.98,4.92,6.38,11.18,6.38,17.99v.71c0,13.86-9.9,25.45-23,28.08-3.05.69-6.16.87-9.21.56-8.86-.89-17.19-5.88-21.97-14.16l-19.26-33.35h-32.33l27.34,47.35c.03.05.07.11.1.16,9.78,16.81,26.95,26.72,45.04,28h4.66c3.82,0,7.55-.39,11.17-1.11.21-.05.43-.09.64-.14.11-.02.21-.05.32-.07,5.3-1.23,10.5-3.25,15.45-6.11l.62-.36c27.05-15.62,36.35-50.32,20.73-77.37Z"/>
      <path d="M202.39,171.18l-65.75,113.89c-4.33,7.5-11.57,12.29-19.47,13.8-6.51,1.24-13.47.25-19.65-3.32l-.62-.36c-6.62-3.83-11.36-10-13.34-17.39-1.19-4.45-1.29-9.01-.35-13.39.84-4.66,2.82-8.94,5.63-12.53l22.52-39.01,63.53-110.03-.11-.19c-9.15-15.85-9.73-34.33-3.21-50.06l-106.24,184.02-3.15,5.45c-3.03,5.25-5.15,10.84-6.38,16.6-.68,3.51-1.05,7.13-1.05,10.84v.71c0,31.23,25.41,56.64,56.64,56.64h7.92c16.82-2.26,32.47-12,41.59-27.8l.12-.2,33.48-57.99,16.17-28,7.91-13.7-16.17-28Z"/>
    </g>
    <path d="M192.29,384.85c-.63-.86-1.48-1.58-2.53-2.14s-2.28-.85-3.69-.85c-1.61,0-3.07.4-4.37,1.19-1.3.79-2.33,1.93-3.09,3.4s-1.14,3.16-1.14,5.07.38,3.63,1.14,5.12c.76,1.49,1.79,2.63,3.09,3.45,1.3.82,2.75,1.22,4.33,1.22,1.4,0,2.65-.29,3.72-.87,1.08-.58,1.92-1.31,2.53-2.19v2.75h4.79v-18.84h-4.79v2.69ZM191.61,394.55c-.45.83-1.07,1.46-1.84,1.9s-1.6.66-2.48.66-1.67-.23-2.43-.68-1.37-1.11-1.84-1.96c-.46-.85-.7-1.84-.7-2.98s.23-2.11.7-2.94,1.07-1.46,1.82-1.89c.75-.43,1.56-.65,2.45-.65s1.71.22,2.48.66c.77.44,1.38,1.08,1.84,1.9s.68,1.82.68,2.97-.23,2.15-.68,2.97ZM170.8,382.82c-1.11-.62-2.38-.94-3.81-.94-1.25,0-2.38.23-3.4.7-1.02.46-1.84,1.11-2.45,1.92v-8.67h-4.76v25.16h4.76v-10.4c0-1.5.38-2.65,1.14-3.45.76-.8,1.8-1.21,3.11-1.21s2.31.4,3.06,1.21c.75.81,1.12,1.96,1.12,3.45v10.4h4.76v-11.05c0-1.7-.31-3.16-.93-4.37-.62-1.21-1.49-2.13-2.6-2.75ZM330.26,384.85c-.63-.86-1.48-1.58-2.53-2.14s-2.28-.85-3.69-.85c-1.61,0-3.07.4-4.37,1.19-1.3.79-2.33,1.93-3.09,3.4s-1.14,3.16-1.14,5.07.38,3.63,1.14,5.12c.76,1.49,1.79,2.63,3.09,3.45,1.3.82,2.75,1.22,4.33,1.22,1.4,0,2.65-.29,3.72-.87,1.08-.58,1.92-1.31,2.53-2.19v2.75h4.79v-18.84h-4.79v2.69ZM329.58,394.55c-.45.83-1.07,1.46-1.84,1.9s-1.6.66-2.48.66-1.67-.23-2.43-.68-1.37-1.11-1.84-1.96c-.46-.85-.7-1.84-.7-2.98s.23-2.11.7-2.94,1.07-1.46,1.82-1.89c.75-.43,1.56-.65,2.45-.65s1.71.22,2.48.66c.77.44,1.38,1.08,1.84,1.9s.68,1.82.68,2.97-.23,2.15-.68,2.97ZM137.6,382.21c1.08-.65,2.31-.97,3.69-.97,1.29,0,2.43.28,3.42.85.99.57,1.75,1.42,2.29,2.55h5.47c-.79-2.4-2.19-4.28-4.18-5.64-2-1.36-4.32-2.04-6.97-2.04-2.27,0-4.31.52-6.14,1.55-1.83,1.03-3.26,2.47-4.32,4.32-1.05,1.85-1.58,3.94-1.58,6.27s.53,4.42,1.58,6.26c1.05,1.84,2.49,3.27,4.32,4.3,1.82,1.03,3.87,1.55,6.14,1.55,2.67,0,5-.67,6.99-2.02,1.98-1.35,3.37-3.24,4.17-5.66h-5.47c-.54,1.13-1.31,1.99-2.29,2.57-.99.58-2.12.87-3.42.87-1.38,0-2.61-.32-3.69-.97-1.08-.65-1.92-1.56-2.52-2.75-.6-1.19-.9-2.57-.9-4.13s.3-2.97.9-4.15c.6-1.18,1.44-2.09,2.52-2.74ZM390.39,382.74c-.99.57-1.79,1.35-2.4,2.35v-2.92h-4.76v18.84h4.76v-9.38c0-1.75.38-2.97,1.14-3.67.76-.7,1.89-1.05,3.38-1.05h1.26v-5c-1.27,0-2.4.28-3.38.85ZM80.87,377.26h-5.75l-8.64,10.64v-10.64h-4.76v23.73h4.76v-10.57l8.64,10.57h6.02l-10.06-11.97,9.79-11.76ZM110.55,395.32l-4.86-13.16h-5.34l7.55,18.36-4.08,9.38h5.07l11.66-27.74h-5.07l-4.93,13.16ZM257.97,352.59c0-1.5.38-2.65,1.14-3.45.76-.8,1.8-1.21,3.11-1.21s2.31.4,3.06,1.21c.75.81,1.12,1.96,1.12,3.45v10.4h4.76v-11.05c0-2.54-.69-4.52-2.07-5.93-1.38-1.42-3.2-2.12-5.44-2.12-1.18,0-2.26.23-3.25.7-.99.46-1.8,1.11-2.43,1.92v-2.35h-4.76v18.84h4.76v-10.4ZM95.95,383.01c-1.42-.77-3.02-1.16-4.81-1.16s-3.5.4-4.93,1.19c-1.43.79-2.54,1.93-3.33,3.4-.79,1.47-1.19,3.18-1.19,5.13s.4,3.63,1.21,5.1c.8,1.47,1.93,2.61,3.37,3.42,1.44.81,3.07,1.21,4.88,1.21,2.24,0,4.14-.58,5.68-1.75,1.54-1.17,2.58-2.66,3.13-4.47h-5.13c-.75,1.52-2.01,2.28-3.77,2.28-1.22,0-2.25-.39-3.09-1.16s-1.31-1.84-1.43-3.2h13.77c.09-.54.14-1.16.14-1.84,0-1.84-.39-3.46-1.17-4.88-.78-1.42-1.88-2.51-3.3-3.28ZM86.55,389.81c.18-1.27.67-2.26,1.48-2.98s1.8-1.07,2.98-1.07c1.25,0,2.3.37,3.16,1.11s1.3,1.72,1.33,2.94h-8.94ZM375.46,383.01c-1.42-.77-3.02-1.16-4.81-1.16s-3.5.4-4.93,1.19c-1.43.79-2.54,1.93-3.33,3.4-.79,1.47-1.19,3.18-1.19,5.13s.4,3.63,1.21,5.1c.8,1.47,1.93,2.61,3.37,3.42,1.44.81,3.07,1.21,4.88,1.21,2.24,0,4.14-.58,5.68-1.75,1.54-1.17,2.58-2.66,3.13-4.47h-5.13c-.75,1.52-2.01,2.28-3.77,2.28-1.22,0-2.25-.39-3.09-1.16s-1.31-1.84-1.43-3.2h13.77c.09-.54.14-1.16.14-1.84,0-1.84-.39-3.46-1.17-4.88-.78-1.42-1.88-2.51-3.3-3.28ZM366.06,389.81c.18-1.27.67-2.26,1.48-2.98s1.8-1.07,2.98-1.07c1.25,0,2.3.37,3.16,1.11s1.3,1.72,1.33,2.94h-8.94ZM353.14,384.85c-.61-.88-1.45-1.6-2.52-2.16s-2.3-.83-3.71-.83c-1.61,0-3.07.4-4.37,1.19-1.3.79-2.33,1.93-3.09,3.4s-1.14,3.16-1.14,5.07.38,3.63,1.14,5.12c.76,1.49,1.8,2.63,3.11,3.45s2.76,1.22,4.35,1.22c1.38,0,2.61-.29,3.69-.88,1.08-.59,1.92-1.33,2.53-2.21v2.92c0,1.68-.43,2.93-1.29,3.76-.86.83-1.98,1.24-3.37,1.24-1.18,0-2.18-.25-3.01-.76-.83-.51-1.37-1.2-1.62-2.06h-4.73c.23,2.15,1.2,3.85,2.91,5.1,1.71,1.25,3.9,1.87,6.58,1.87,1.99,0,3.69-.4,5.1-1.21,1.4-.8,2.46-1.89,3.16-3.26.7-1.37,1.05-2.93,1.05-4.67v-18.97h-4.79v2.69ZM352.46,394.55c-.45.83-1.07,1.46-1.84,1.9s-1.6.66-2.48.66-1.67-.23-2.43-.68-1.37-1.11-1.84-1.96c-.46-.85-.7-1.84-.7-2.98s.23-2.11.7-2.94,1.07-1.46,1.82-1.89c.75-.43,1.56-.65,2.45-.65s1.71.22,2.48.66c.77.44,1.38,1.08,1.84,1.9s.68,1.82.68,2.97-.23,2.15-.68,2.97ZM249.44,357.08h-5.13c-.75,1.52-2.01,2.28-3.77,2.28-1.22,0-2.25-.39-3.09-1.16s-1.31-1.84-1.43-3.2h13.77c.09-.54.14-1.16.14-1.84,0-1.84-.39-3.46-1.17-4.88-.78-1.42-1.88-2.51-3.3-3.28-1.42-.77-3.02-1.16-4.81-1.16s-3.5.4-4.93,1.19c-1.43.79-2.54,1.93-3.33,3.4-.79,1.47-1.19,3.18-1.19,5.13s.4,3.63,1.21,5.1c.8,1.47,1.93,2.61,3.37,3.42,1.44.81,3.07,1.21,4.88,1.21,2.24,0,4.14-.58,5.68-1.75,1.54-1.17,2.58-2.66,3.13-4.47ZM237.52,348.84c.8-.71,1.8-1.07,2.98-1.07,1.25,0,2.3.37,3.16,1.11s1.3,1.72,1.33,2.94h-8.94c.18-1.27.67-2.26,1.48-2.98ZM254.03,394.91l-7.55-17.65h-5.41v23.73h4.76v-15.44l6.39,15.44h3.6l6.36-15.44v15.44h4.76v-23.73h-5.37l-7.55,17.65ZM285.07,384.85c-.63-.86-1.48-1.58-2.53-2.14s-2.28-.85-3.69-.85c-1.61,0-3.07.4-4.37,1.19-1.3.79-2.33,1.93-3.09,3.4s-1.14,3.16-1.14,5.07.38,3.63,1.14,5.12c.76,1.49,1.79,2.63,3.09,3.45,1.3.82,2.75,1.22,4.33,1.22,1.4,0,2.65-.29,3.72-.87,1.08-.58,1.92-1.31,2.53-2.19v2.75h4.79v-18.84h-4.79v2.69ZM284.39,394.55c-.45.83-1.07,1.46-1.84,1.9s-1.6.66-2.48.66-1.67-.23-2.43-.68-1.37-1.11-1.84-1.96c-.46-.85-.7-1.84-.7-2.98s.23-2.11.7-2.94,1.07-1.46,1.82-1.89c.75-.43,1.56-.65,2.45-.65s1.71.22,2.48.66c.77.44,1.38,1.08,1.84,1.9s.68,1.82.68,2.97-.23,2.15-.68,2.97ZM304.79,381.89c-1.18,0-2.26.23-3.25.7-.99.46-1.8,1.11-2.43,1.92v-2.35h-4.76v18.84h4.76v-10.4c0-1.5.38-2.65,1.14-3.45.76-.8,1.8-1.21,3.11-1.21s2.31.4,3.06,1.21c.75.81,1.12,1.96,1.12,3.45v10.4h4.76v-11.05c0-2.54-.69-4.52-2.07-5.93-1.38-1.42-3.2-2.12-5.44-2.12ZM201.57,401h4.76v-18.84h-4.76v18.84ZM204.54,357.34c1.08-1.85,1.62-3.94,1.62-6.27s-.54-4.39-1.62-6.24-2.54-3.29-4.39-4.33c-1.85-1.04-3.89-1.56-6.14-1.56s-4.26.52-6.12,1.56c-1.86,1.04-3.33,2.49-4.42,4.33s-1.63,3.93-1.63,6.24.54,4.43,1.63,6.27c1.09,1.85,2.56,3.29,4.42,4.33,1.86,1.04,3.9,1.56,6.12,1.56s4.26-.52,6.12-1.56c1.86-1.04,3.33-2.49,4.4-4.33ZM200.34,355.24c-.61,1.2-1.46,2.12-2.55,2.77-1.09.65-2.35.97-3.77.97s-2.69-.32-3.79-.97c-1.1-.65-1.96-1.57-2.57-2.77s-.92-2.59-.92-4.18.31-2.98.92-4.17c.61-1.19,1.47-2.1,2.57-2.74,1.1-.63,2.36-.95,3.79-.95s2.69.32,3.77.95,1.94,1.55,2.55,2.74c.61,1.19.92,2.58.92,4.17s-.31,2.98-.92,4.18ZM203.98,374.34c-.84,0-1.54.27-2.09.8-.56.53-.83,1.2-.83,1.99s.28,1.46.83,1.99c.56.53,1.25.8,2.09.8s1.54-.27,2.09-.8c.56-.53.83-1.2.83-1.99s-.28-1.46-.83-1.99c-.56-.53-1.25-.8-2.09-.8ZM221.29,381.89c-1.18,0-2.26.23-3.25.7-.99.46-1.8,1.11-2.43,1.92v-2.35h-4.76v18.84h4.76v-10.4c0-1.5.38-2.65,1.14-3.45.76-.8,1.8-1.21,3.11-1.21s2.31.4,3.06,1.21c.75.81,1.12,1.96,1.12,3.45v10.4h4.76v-11.05c0-2.54-.69-4.52-2.07-5.93-1.38-1.42-3.2-2.12-5.44-2.12ZM224.88,345.04c-1.3-.79-2.76-1.19-4.37-1.19-1.38,0-2.61.29-3.69.87-1.08.58-1.92,1.3-2.53,2.16v-2.72h-4.76v27.81h4.76v-11.66c.66.86,1.51,1.58,2.57,2.14s2.27.85,3.66.85c1.61,0,3.07-.41,4.37-1.22,1.3-.82,2.33-1.97,3.09-3.45.76-1.48,1.14-3.19,1.14-5.12s-.38-3.62-1.14-5.08c-.76-1.46-1.79-2.59-3.09-3.38ZM223.55,356.5c-.46.84-1.08,1.49-1.84,1.94-.76.45-1.58.68-2.46.68s-1.67-.22-2.43-.66-1.37-1.08-1.84-1.92c-.46-.84-.7-1.82-.7-2.96s.23-2.12.7-2.96c.46-.84,1.08-1.48,1.84-1.92.76-.44,1.57-.66,2.43-.66s1.71.22,2.46.65c.76.43,1.37,1.06,1.84,1.89.46.83.7,1.81.7,2.94s-.23,2.15-.7,2.99Z"/>
  </g>
</svg>
