<?xml version="1.0" encoding="UTF-8"?>
<svg id="Layer_1" data-name="Layer 1" xmlns="http://www.w3.org/2000/svg" viewBox="0 0 500 500">
  <path d="M286.48,279.41c51.17-17.2,80.74-23.95,129.14-24.6-.02-23.37-4.8-46.24-13.72-67.31-14.19-.04-34.22,1.21-59.71,6-84.8,15.95-196.38,7.87-258.67-7.11-1.73,4.03-3.33,8.15-4.77,12.37-11.61,33.83-12.13,68.79-3.5,100.91,45.79,9.41,134.74,5.45,211.25-20.27Z"/>
  <path d="M129.35,347.37c-18.3-7.67-31.54-12.97-41.71-15.06,19.58,39.19,53.95,71.02,98.66,86.36,83.52,28.65,173.88-10.24,211.65-87.59-13.18,5.3-31.5,11.7-55.77,18.19-74.11,19.83-167.77,16.98-212.83-1.9Z"/>
  <path d="M367.62,135.29c-18.52-19.41-41.84-34.79-68.97-44.09-67.99-23.33-140.52-1.89-185.52,48.63,76.04,17.47,193.86,11.03,254.48-4.53Z"/>
</svg>
