<?xml version="1.0" encoding="UTF-8" standalone="no"?>
<svg
   width="540"
   height="968.75995"
   viewBox="0 0 540 968.75995"
   fill="none"
   version="1.1"
   id="svg17"
   sodipodi:docname="greenhouse-stacked-white.svg"
   inkscape:version="1.4.3 (0d15f75, 2025-12-25)"
   inkscape:export-filename="greenhouse-stacked-white.png"
   inkscape:export-xdpi="96"
   inkscape:export-ydpi="96"
   xmlns:inkscape="http://www.inkscape.org/namespaces/inkscape"
   xmlns:sodipodi="http://sodipodi.sourceforge.net/DTD/sodipodi-0.dtd"
   xmlns="http://www.w3.org/2000/svg"
   xmlns:svg="http://www.w3.org/2000/svg">
  <defs
     id="defs17" />
  <sodipodi:namedview
     id="namedview17"
     pagecolor="#ffffff"
     bordercolor="#000000"
     borderopacity="0.25"
     inkscape:showpageshadow="2"
     inkscape:pageopacity="0.0"
     inkscape:pagecheckerboard="0"
     inkscape:deskcolor="#d1d1d1"
     inkscape:zoom="0.023029229"
     inkscape:cx="238.82692"
     inkscape:cy="455.94231"
     inkscape:current-layer="svg17" />
  <path
     fill-rule="evenodd"
     clip-rule="evenodd"
     d="m 261.057,1.619475 c 4.393,-2.1593 9.536,-2.1593 13.93,0 L 527.185,125.56897 c 7.847,3.857 11.367,9.878 7.521,17.745 -3.847,7.868 -13.604,14.603 -21.451,10.747 L 268.022,33.534975 31.648,149.70697 v 383.77 h 236.374 c 8.739,0 15.824,7.104 15.824,15.866 0,8.762 -7.085,15.865 -15.824,15.865 H 15.824 c -8.739,0 -15.824,-7.103 -15.824,-15.865 v -409.528 c 0,-6.055 3.437,-11.581 8.859,-14.246 z"
     fill="#ffffff"
     id="path1" />
  <path
     fill-rule="evenodd"
     clip-rule="evenodd"
     d="m 261.057,1.619475 c 4.393,-2.1593 9.536,-2.1593 13.93,0 L 527.185,125.56897 c 7.847,3.857 11.367,9.878 7.521,17.745 -3.847,7.868 -13.604,14.603 -21.451,10.747 L 268.022,33.534975 31.648,149.70697 v 383.77 h 236.374 c 8.739,0 15.824,7.104 15.824,15.866 0,8.762 -7.085,15.865 -15.824,15.865 H 15.824 c -8.739,0 -15.824,-7.103 -15.824,-15.865 v -409.528 c 0,-6.055 3.437,-11.581 8.859,-14.246 z"
     fill="#ffffff"
     id="path2" />
  <path
     fill-rule="evenodd"
     clip-rule="evenodd"
     d="m 527.185,125.56897 c 8.418,4.137 12.815,8.458 12.815,17.22 v 406.554 c 0,8.762 -7.085,15.865 -15.824,15.865 -8.74,0 -15.824,-7.103 -15.824,-15.865 v -406.554 c 0,-8.762 10.093,-17.22 18.833,-17.22 z"
     fill="#ffffff"
     id="path3" />
  <path
     fill-rule="evenodd"
     clip-rule="evenodd"
     d="M 270.003,473.54198 181.65,430.64897 c -6.391,-3.103 -14.081,-0.42399 -17.175,5.98401 -3.095,6.408 -0.423,14.11699 5.969,17.22 l 93.844,45.559 c 0.2,0.099 0.402,0.193 0.606,0.282 1.661,0.722 3.397,1.065 5.109,1.064 1.712,0.001 3.448,-0.342 5.108,-1.064 0.205,-0.089 0.407,-0.183 0.607,-0.282 l 187.8,-91.172 c 6.391,-3.10301 9.063,-10.813 5.969,-17.22001 -3.095,-6.408 -10.784,-9.087 -17.175,-5.985 z"
     fill="#ffffff"
     id="path4" />
  <path
     fill-rule="evenodd"
     clip-rule="evenodd"
     d="m 270,260.08897 c 8.739,-0.041 14.794,1.721 14.835,10.483 l 1.978,278.697 c 0.041,8.762 -7.011,15.898 -15.75,15.939 -8.739,0.041 -15.857,-7.029 -15.898,-15.791 l -1.978,-278.696 c -0.041,-8.763 8.074,-10.591 16.813,-10.632 z"
     fill="#ffffff"
     id="path5" />
  <path
     fill-rule="evenodd"
     clip-rule="evenodd"
     d="M 270.003,366.44898 181.65,323.55597 c -6.391,-3.103 -14.081,-0.424 -17.175,5.984 -3.095,6.408 -0.422,14.117 5.969,17.22 l 93.844,45.559 c 0.2,0.099 0.402,0.193 0.607,0.282 1.66,0.722 3.396,1.065 5.108,1.064 1.712,0.001 3.448,-0.342 5.108,-1.064 0.205,-0.089 0.407,-0.183 0.607,-0.282 l 187.8,-91.172 c 6.391,-3.103 9.063,-10.813 5.969,-17.22 -3.095,-6.408 -10.784,-9.087 -17.175,-5.985 z"
     fill="#ffffff"
     id="path6" />
  <path
     fill-rule="evenodd"
     clip-rule="evenodd"
     d="m 269.844,258.29197 -88.194,-42.816 c -6.391,-3.103 -14.081,-0.42399 -17.175,5.984 -3.095,6.408 -0.422,14.117 5.969,17.22 l 93.824,45.549 c 0.239,0.12 0.481,0.231 0.727,0.335 1.675,0.712 3.425,1.04 5.148,1.02 1.724,-0.018 3.468,-0.384 5.129,-1.134 0.243,-0.109 0.483,-0.226 0.719,-0.351 l 251.076,-128.844 c 6.321,-3.244 8.822,-11.011 5.587,-17.348 -3.235,-6.338 -10.982,-8.846 -17.303,-5.602 z"
     fill="#ffffff"
     id="path7" />
  <path
     d="m 456.745,966.78997 v -114.862 h 77.961 v 22.216 h -53.014 v 23.531 h 45.464 v 22.051 h -45.464 v 24.844 h 53.014 v 22.22 z"
     fill="#ffffff"
     id="path8" />
  <path
     d="m 391.418,968.75997 c -10.067,0 -18.601,-1.7 -25.604,-5.09999 -7.003,-3.51 -12.966,-8.01 -17.89,-13.49 l 16.413,-16.62 c 7.769,8.77999 17.343,13.15999 28.722,13.15999 6.128,0 10.668,-1.26 13.623,-3.77999 2.954,-2.52 4.431,-5.87001 4.431,-10.04 0,-3.18 -0.875,-5.81 -2.626,-7.9 -1.75,-2.19 -5.307,-3.67 -10.668,-4.44 l -11.325,-1.482 c -12.145,-1.536 -21.063,-5.211 -26.753,-11.025 -5.58,-5.815 -8.37,-13.549 -8.37,-23.203 0,-5.156 0.984,-9.873 2.954,-14.152 1.969,-4.278 4.76,-7.953 8.37,-11.025 3.721,-3.072 8.207,-5.43 13.459,-7.076 5.361,-1.755 11.434,-2.633 18.218,-2.633 8.644,0 16.249,1.37099 22.814,4.114 6.565,2.743 12.2,6.74699 16.905,12.013 l -16.577,16.784 c -2.735,-3.181 -6.073,-5.759 -10.012,-7.734 -3.829,-2.084 -8.698,-3.126 -14.607,-3.126 -5.58,0 -9.738,0.987 -12.474,2.962 -2.735,1.974 -4.103,4.717 -4.103,8.22799 0,3.949 1.04,6.80101 3.119,8.55601 2.188,1.75599 5.689,3.017 10.504,3.78499 l 11.325,1.81 c 11.817,1.865 20.57,5.54 26.26,11.026 5.69,5.375 8.535,13.058 8.535,23.038 0,5.48 -0.985,10.53 -2.955,15.14 -1.969,4.61 -4.869,8.56 -8.698,11.85 -3.721,3.29 -8.371,5.87 -13.951,7.73 -5.581,1.76 -11.927,2.63 -19.039,2.63 z"
     fill="#ffffff"
     id="path9" />
  <path
     d="m 264,851.92797 v 70.432 c 0,8.12 1.587,14.21 4.76,18.26 3.173,3.95 8.48,5.93 15.92,5.93 7.441,0 12.747,-1.98 15.921,-5.93 3.173,-4.05 4.759,-10.14 4.759,-18.26 v -70.432 h 24.291 v 67.798 c 0,8.444 -0.82,15.794 -2.462,22.054 -1.532,6.14001 -4.103,11.24 -7.714,15.3 -3.611,3.95 -8.261,6.91 -13.951,8.89 -5.689,1.86 -12.637,2.79 -20.844,2.79 -8.206,0 -15.154,-0.93 -20.844,-2.79 -5.69,-1.98 -10.34,-4.94 -13.951,-8.89 -3.611,-4.06 -6.237,-9.16 -7.878,-15.3 -1.532,-6.26 -2.298,-13.61 -2.298,-22.054 v -67.798 z"
     fill="#ffffff"
     id="path10" />
  <path
     d="m 169.156,968.75997 c -7.55,0 -14.444,-1.26 -20.681,-3.78 -6.236,-2.52 -11.543,-6.25 -15.92,-11.19 -4.377,-5.05 -7.769,-11.25 -10.176,-18.6 -2.407,-7.46 -3.611,-16.067 -3.611,-25.831 0,-9.764 1.204,-18.321 3.611,-25.671 2.407,-7.46 5.799,-13.658 10.176,-18.595 4.377,-5.046 9.684,-8.831 15.92,-11.354 6.237,-2.523 13.131,-3.785 20.681,-3.785 7.549,0 14.443,1.262 20.68,3.785 6.237,2.523 11.543,6.308 15.92,11.354 4.377,4.937 7.769,11.135 10.176,18.595 2.407,7.35 3.611,15.907 3.611,25.671 0,9.764 -1.204,18.371 -3.611,25.831 -2.407,7.35 -5.799,13.55 -10.176,18.6 -4.377,4.94 -9.683,8.67 -15.92,11.19 -6.237,2.52 -13.131,3.78 -20.68,3.78 z m 0,-22.21 c 7.549,0 13.403,-2.47 17.561,-7.41 4.268,-4.93 6.401,-12.01 6.401,-21.224 v -17.114 c 0,-9.215 -2.133,-16.291 -6.401,-21.228 -4.158,-4.936 -10.012,-7.405 -17.561,-7.405 -7.55,0 -13.459,2.469 -17.726,7.405 -4.158,4.937 -6.237,12.013 -6.237,21.228 v 17.114 c 0,9.214 2.079,16.294 6.237,21.224 4.267,4.94 10.176,7.41 17.726,7.41 z"
     fill="#ffffff"
     id="path11" />
  <path
     d="M 73.037,919.72597 H 29.379 v 47.064 H 4.431 v -114.862 h 24.948 v 45.747 h 43.658 v -45.747 h 24.947 v 114.862 H 73.037 Z"
     fill="#ffffff"
     id="path12" />
  <path
     d="m 467.341,712.66697 -10.996,-23.038 h -0.492 v 77.341 h -23.471 v -114.86 h 27.245 l 31.349,54.303 10.996,23.038 h 0.493 v -77.341 h 23.47 v 114.86 H 498.69 Z"
     fill="#ffffff"
     id="path13" />
  <path
     d="m 332.687,766.96997 v -114.86 h 77.961 v 22.215 h -53.013 v 23.53201 h 45.463 v 22.04999 h -45.463 v 24.848 h 53.013 v 22.215 z"
     fill="#ffffff"
     id="path14" />
  <path
     d="m 232.992,766.96997 v -114.86 h 77.961 v 22.215 H 257.94 v 23.53201 h 45.463 v 22.04999 H 257.94 v 24.848 h 53.013 v 22.215 z"
     fill="#ffffff"
     id="path15" />
  <path
     d="m 147.346,766.96997 h -24.948 v -114.86 h 54.327 c 5.252,0 10.011,0.877 14.279,2.633 4.267,1.755 7.878,4.27801 10.832,7.569 3.064,3.182 5.416,7.021 7.058,11.519 1.641,4.49801 2.462,9.49 2.462,14.975 0,7.789 -1.751,14.59001 -5.252,20.405 -3.392,5.814 -8.59,10.038 -15.593,12.671 l 22.486,45.088 h -27.738 l -20.023,-42.126 h -17.89 z m 26.26,-63.19 c 3.72,0 6.62,-0.932 8.699,-2.797 2.188,-1.975 3.283,-4.827 3.283,-8.557 v -7.24 c 0,-3.73 -1.095,-6.528 -3.283,-8.393 -2.079,-1.974 -4.979,-2.962 -8.699,-2.962 h -26.26 v 29.949 z"
     fill="#ffffff"
     id="path16" />
  <path
     d="m 77.14,748.70497 h -0.821 c -0.875,5.814 -3.829,10.641 -8.863,14.481 -5.033,3.83901 -11.871,5.759 -20.516,5.759 -6.565,0 -12.692,-1.26099 -18.382,-3.784 -5.69,-2.524 -10.668,-6.254 -14.935,-11.19 -4.268,-4.937 -7.605,-11.08 -10.012,-18.431 -2.408,-7.35 -3.611,-15.852 -3.611,-25.506 0,-9.654 1.258,-18.211 3.775,-25.671 2.516,-7.46 6.018,-13.713 10.504,-18.759 4.596,-5.047 10.067,-8.886 16.413,-11.519 6.346,-2.633 13.404,-3.95 21.172,-3.95 10.286,0 19.149,2.249 26.589,6.747 7.441,4.388 13.294,11.026 17.562,19.912 l -20.352,11.683 c -1.751,-4.498 -4.486,-8.283 -8.207,-11.354 -3.72,-3.182 -8.917,-4.772 -15.592,-4.772 -7.768,0 -13.951,2.248 -18.546,6.746 -4.596,4.498 -6.894,11.574 -6.894,21.228 v 18.43 c 0,9.545 2.298,16.621 6.894,21.228 4.595,4.498 10.778,6.747 18.546,6.747 3.064,0 5.964,-0.329 8.699,-0.987 2.736,-0.768 5.143,-1.865 7.222,-3.291 2.079,-1.536 3.665,-3.346 4.759,-5.431 1.204,-2.084 1.806,-4.552 1.806,-7.405 v -5.759 H 53.013 v -20.899 h 45.135 v 64.013 H 77.14 Z"
     fill="#ffffff"
     id="path17" />
</svg>
