<svg width="1129" height="1129" viewBox="0 0 1129 1129" fill="none" xmlns="http://www.w3.org/2000/svg">
<path fill-rule="evenodd" clip-rule="evenodd" d="M555.437 81.6195C559.83 79.4602 564.973 79.4602 569.367 81.6195L821.565 205.569C829.412 209.426 832.932 215.447 829.086 223.314C825.239 231.182 815.482 237.917 807.635 234.061L562.402 113.535L326.028 229.707V613.477H562.402C571.141 613.477 578.226 620.581 578.226 629.343C578.226 638.105 571.141 645.208 562.402 645.208H310.204C301.465 645.208 294.38 638.105 294.38 629.343V219.815C294.38 213.76 297.817 208.234 303.239 205.569L555.437 81.6195Z" fill="white"/>
<path fill-rule="evenodd" clip-rule="evenodd" d="M555.437 81.6195C559.83 79.4602 564.973 79.4602 569.367 81.6195L821.565 205.569C829.412 209.426 832.932 215.447 829.086 223.314C825.239 231.182 815.482 237.917 807.635 234.061L562.402 113.535L326.028 229.707V613.477H562.402C571.141 613.477 578.226 620.581 578.226 629.343C578.226 638.105 571.141 645.208 562.402 645.208H310.204C301.465 645.208 294.38 638.105 294.38 629.343V219.815C294.38 213.76 297.817 208.234 303.239 205.569L555.437 81.6195Z" fill="white"/>
<path fill-rule="evenodd" clip-rule="evenodd" d="M821.565 205.569C829.983 209.706 834.38 214.027 834.38 222.789V629.343C834.38 638.105 827.295 645.208 818.556 645.208C809.816 645.208 802.732 638.105 802.732 629.343V222.789C802.732 214.027 812.825 205.569 821.565 205.569Z" fill="white"/>
<path fill-rule="evenodd" clip-rule="evenodd" d="M564.383 553.542L476.03 510.649C469.639 507.546 461.949 510.225 458.855 516.633C455.76 523.041 458.432 530.75 464.824 533.853L558.668 579.412C558.868 579.511 559.07 579.605 559.274 579.694C560.935 580.416 562.671 580.759 564.383 580.758C566.095 580.759 567.831 580.416 569.491 579.694C569.696 579.605 569.898 579.511 570.098 579.412L757.898 488.24C764.289 485.137 766.961 477.427 763.867 471.02C760.772 464.612 753.083 461.933 746.692 465.035L564.383 553.542Z" fill="white"/>
<path fill-rule="evenodd" clip-rule="evenodd" d="M564.38 340.089C573.119 340.048 579.174 341.81 579.215 350.572L581.193 629.269C581.234 638.031 574.182 645.167 565.443 645.208C556.704 645.249 549.586 638.179 549.545 629.417L547.567 350.721C547.526 341.958 555.641 340.13 564.38 340.089Z" fill="white"/>
<path fill-rule="evenodd" clip-rule="evenodd" d="M564.383 446.449L476.03 403.556C469.639 400.453 461.949 403.132 458.855 409.54C455.76 415.948 458.433 423.657 464.824 426.76L558.668 472.319C558.868 472.418 559.07 472.512 559.275 472.601C560.935 473.323 562.671 473.666 564.383 473.665C566.095 473.666 567.831 473.323 569.491 472.601C569.696 472.512 569.898 472.418 570.098 472.319L757.898 381.147C764.289 378.044 766.961 370.334 763.867 363.927C760.772 357.519 753.083 354.84 746.692 357.942L564.383 446.449Z" fill="white"/>
<path fill-rule="evenodd" clip-rule="evenodd" d="M564.224 338.292L476.03 295.476C469.639 292.373 461.949 295.052 458.855 301.46C455.76 307.868 458.433 315.577 464.824 318.68L558.648 364.229C558.887 364.349 559.129 364.46 559.375 364.564C561.05 365.276 562.8 365.604 564.523 365.584C566.247 365.566 567.991 365.2 569.652 364.45C569.895 364.341 570.135 364.224 570.371 364.099L821.447 235.255C827.768 232.011 830.269 224.244 827.034 217.907C823.799 211.569 816.052 209.061 809.731 212.305L564.224 338.292Z" fill="white"/>
<path d="M751.125 1046.79V931.928H829.086V954.144H776.072V977.675H821.536V999.726H776.072V1024.57H829.086V1046.79H751.125Z" fill="white"/>
<path d="M685.798 1048.76C675.731 1048.76 667.197 1047.06 660.194 1043.66C653.191 1040.15 647.228 1035.65 642.304 1030.17L658.717 1013.55C666.486 1022.33 676.06 1026.71 687.439 1026.71C693.567 1026.71 698.107 1025.45 701.062 1022.93C704.016 1020.41 705.493 1017.06 705.493 1012.89C705.493 1009.71 704.618 1007.08 702.867 1004.99C701.117 1002.8 697.56 1001.32 692.199 1000.55L680.874 999.068C668.729 997.532 659.811 993.857 654.121 988.043C648.541 982.228 645.751 974.494 645.751 964.84C645.751 959.684 646.735 954.967 648.705 950.688C650.674 946.41 653.465 942.735 657.075 939.663C660.796 936.591 665.282 934.233 670.534 932.587C675.895 930.832 681.968 929.954 688.752 929.954C697.396 929.954 705.001 931.325 711.566 934.068C718.131 936.811 723.766 940.815 728.471 946.081L711.894 962.865C709.159 959.684 705.821 957.106 701.882 955.131C698.053 953.047 693.184 952.005 687.275 952.005C681.695 952.005 677.537 952.992 674.801 954.967C672.066 956.941 670.698 959.684 670.698 963.195C670.698 967.144 671.738 969.996 673.817 971.751C676.005 973.507 679.506 974.768 684.321 975.536L695.646 977.346C707.463 979.211 716.216 982.886 721.906 988.372C727.596 993.747 730.441 1001.43 730.441 1011.41C730.441 1016.89 729.456 1021.94 727.486 1026.55C725.517 1031.16 722.617 1035.11 718.788 1038.4C715.067 1041.69 710.417 1044.27 704.837 1046.13C699.256 1047.89 692.91 1048.76 685.798 1048.76Z" fill="white"/>
<path d="M558.38 931.928V1002.36C558.38 1010.48 559.967 1016.57 563.14 1020.62C566.313 1024.57 571.62 1026.55 579.06 1026.55C586.501 1026.55 591.807 1024.57 594.981 1020.62C598.154 1016.57 599.74 1010.48 599.74 1002.36V931.928H624.031V999.726C624.031 1008.17 623.211 1015.52 621.569 1021.78C620.037 1027.92 617.466 1033.02 613.855 1037.08C610.244 1041.03 605.594 1043.99 599.904 1045.97C594.215 1047.83 587.267 1048.76 579.06 1048.76C570.854 1048.76 563.906 1047.83 558.216 1045.97C552.526 1043.99 547.876 1041.03 544.265 1037.08C540.654 1033.02 538.028 1027.92 536.387 1021.78C534.855 1015.52 534.089 1008.17 534.089 999.726V931.928H558.38Z" fill="white"/>
<path d="M463.536 1048.76C455.986 1048.76 449.092 1047.5 442.855 1044.98C436.619 1042.46 431.312 1038.73 426.935 1033.79C422.558 1028.74 419.166 1022.54 416.759 1015.19C414.352 1007.73 413.148 999.123 413.148 989.359C413.148 979.595 414.352 971.038 416.759 963.688C419.166 956.228 422.558 950.03 426.935 945.093C431.312 940.047 436.619 936.262 442.855 933.739C449.092 931.216 455.986 929.954 463.536 929.954C471.085 929.954 477.979 931.216 484.216 933.739C490.453 936.262 495.759 940.047 500.136 945.093C504.513 950.03 507.905 956.228 510.312 963.688C512.719 971.038 513.923 979.595 513.923 989.359C513.923 999.123 512.719 1007.73 510.312 1015.19C507.905 1022.54 504.513 1028.74 500.136 1033.79C495.759 1038.73 490.453 1042.46 484.216 1044.98C477.979 1047.5 471.085 1048.76 463.536 1048.76ZM463.536 1026.55C471.085 1026.55 476.939 1024.08 481.097 1019.14C485.365 1014.21 487.498 1007.13 487.498 997.916V980.802C487.498 971.587 485.365 964.511 481.097 959.574C476.939 954.638 471.085 952.169 463.536 952.169C455.986 952.169 450.077 954.638 445.81 959.574C441.652 964.511 439.573 971.587 439.573 980.802V997.916C439.573 1007.13 441.652 1014.21 445.81 1019.14C450.077 1024.08 455.986 1026.55 463.536 1026.55Z" fill="white"/>
<path d="M367.417 999.726H323.759V1046.79H298.811V931.928H323.759V977.675H367.417V931.928H392.364V1046.79H367.417V999.726Z" fill="white"/>
<path d="M761.721 792.667L750.725 769.629H750.233V846.97H726.762V732.11H754.007L785.356 786.413L796.352 809.451H796.845V732.11H820.315V846.97H793.07L761.721 792.667Z" fill="white"/>
<path d="M627.067 846.97V732.11H705.028V754.325H652.015V777.857H697.478V799.907H652.015V824.755H705.028V846.97H627.067Z" fill="white"/>
<path d="M527.372 846.97V732.11H605.333V754.325H552.32V777.857H597.783V799.907H552.32V824.755H605.333V846.97H527.372Z" fill="white"/>
<path d="M441.726 846.97H416.778V732.11H471.105C476.357 732.11 481.116 732.987 485.384 734.743C489.651 736.498 493.262 739.021 496.216 742.312C499.28 745.494 501.632 749.333 503.274 753.831C504.915 758.329 505.736 763.321 505.736 768.806C505.736 776.595 503.985 783.396 500.484 789.211C497.092 795.025 491.894 799.249 484.891 801.882L507.377 846.97H479.639L459.616 804.844H441.726V846.97ZM467.986 783.78C471.706 783.78 474.606 782.848 476.685 780.983C478.873 779.008 479.968 776.156 479.968 772.426V765.186C479.968 761.456 478.873 758.658 476.685 756.793C474.606 754.819 471.706 753.831 467.986 753.831H441.726V783.78H467.986Z" fill="white"/>
<path d="M371.52 828.705H370.699C369.824 834.519 366.87 839.346 361.836 843.186C356.803 847.025 349.965 848.945 341.32 848.945C334.755 848.945 328.628 847.684 322.938 845.161C317.248 842.637 312.27 838.907 308.003 833.971C303.735 829.034 300.398 822.891 297.991 815.54C295.583 808.19 294.38 799.688 294.38 790.034C294.38 780.38 295.638 771.823 298.155 764.363C300.671 756.903 304.173 750.65 308.659 745.604C313.255 740.557 318.726 736.718 325.072 734.085C331.418 731.452 338.476 730.135 346.244 730.135C356.53 730.135 365.393 732.384 372.833 736.882C380.274 741.27 386.127 747.908 390.395 756.794L370.043 768.477C368.292 763.979 365.557 760.194 361.836 757.123C358.116 753.941 352.919 752.351 346.244 752.351C338.476 752.351 332.293 754.599 327.698 759.097C323.102 763.595 320.804 770.671 320.804 780.325V798.755C320.804 808.3 323.102 815.376 327.698 819.983C332.293 824.481 338.476 826.73 346.244 826.73C349.308 826.73 352.208 826.401 354.943 825.743C357.679 824.975 360.086 823.878 362.165 822.452C364.244 820.916 365.83 819.106 366.924 817.021C368.128 814.937 368.73 812.469 368.73 809.616V803.857H347.393V782.958H392.528V846.971H371.52V828.705Z" fill="white"/>
</svg>
