<svg width="10329" height="1200" viewBox="0 0 10329 1200" fill="none" xmlns="http://www.w3.org/2000/svg">
<path d="M1182.17 812.627C1259.68 842.576 1421.42 894.389 1612.94 894.389C1807.29 894.389 1959.33 849.273 2028.97 824.136C1949.18 975.724 1790.83 1079 1608.5 1079C1421.59 1079 1259.87 970.474 1182.17 812.627ZM2041.08 401.583C2068.63 462.16 2084 529.523 2084 600.5C2084 601.065 2083.99 601.631 2083.99 602.196C2045.14 601.218 1946.8 607.532 1754.28 668.39C1666.29 696.204 1656.1 708.513 1533.83 727.575C1385.13 750.757 1208.87 741.671 1151.23 732.154C1139.36 690.328 1133 646.161 1133 600.5C1133 530.463 1147.95 463.939 1174.82 403.987C1231.08 415.19 1393.63 443.278 1609.74 443.279C1843.63 443.279 2002.74 410.372 2041.08 401.583ZM1608.5 122C1748.16 122 1873.76 182.59 1960.75 279.075C1902.88 289.253 1776.29 307.439 1609.74 307.439C1457.31 307.439 1325.8 292.2 1253.79 281.818C1340.87 183.74 1467.52 122 1608.5 122Z" fill="url(#paint0_linear_442_5238)"/>
<path d="M8761.13 113C8830.58 113 8895.92 124.871 8957.15 148.606C9018.37 171.429 9070 206.12 9112.04 252.678L9047.61 317.037C9008.32 276.87 8964.91 248.114 8917.39 230.769C8869.88 212.512 8818.7 203.382 8763.88 203.382C8706.31 203.382 8652.85 213.425 8603.5 233.509C8554.16 252.68 8511.21 280.522 8474.66 317.037C8438.11 352.641 8409.32 394.637 8388.31 443.021C8368.2 490.493 8358.15 542.988 8358.15 600.502C8358.15 658.015 8368.2 710.965 8388.31 759.349C8409.32 806.819 8438.11 848.812 8474.66 885.328C8511.21 920.931 8554.16 948.777 8603.5 968.861C8652.85 988.032 8706.31 997.622 8763.88 997.623C8818.7 997.622 8869.88 988.492 8917.39 970.235C8964.91 951.977 9008.32 922.76 9047.61 882.593L9112.04 946.953C9070 993.511 9018.37 1028.66 8957.15 1052.4C8895.92 1076.13 8830.12 1088 8759.76 1088C8687.57 1088 8620.87 1076.13 8559.64 1052.4C8498.42 1027.75 8445.42 993.512 8400.64 949.692C8355.86 905.873 8320.68 854.294 8295.1 794.955C8270.42 735.616 8258.09 670.796 8258.09 600.502C8258.09 530.207 8270.42 465.385 8295.1 406.045C8320.68 346.707 8355.86 295.127 8400.64 251.308C8446.33 207.489 8499.79 173.712 8561.01 149.976C8622.23 125.328 8688.94 113 8761.13 113Z" fill="url(#paint1_linear_442_5238)"/>
<path d="M2990.98 898.643V121.219H3091.03V1079.79H3007.42L2390.61 302.471V1079.79H2289.18V121.219H2372.79L2990.98 898.643Z" fill="url(#paint2_linear_442_5238)"/>
<path d="M4144.39 208.857H3587.88V585.434H4084.08V673.076H3587.88V1079.79H3486.45V121.219H4144.39V208.857Z" fill="url(#paint3_linear_442_5238)"/>
<path d="M4537.52 1079.79H4436.09V121.219H4537.52V1079.79Z" fill="url(#paint4_linear_442_5238)"/>
<path d="M5322.6 121.219C5424.95 121.219 5514.5 141.758 5591.26 182.839C5668.93 223.007 5729.25 279.15 5772.2 351.27C5815.15 423.39 5836.61 506.471 5836.61 600.502C5836.61 694.532 5815.14 777.61 5772.2 849.73C5729.25 921.851 5668.93 978.45 5591.26 1019.53C5514.5 1059.7 5424.95 1079.79 5322.6 1079.79H4931.95V627.89H5033.38V992.143H5317.12C5402.1 992.143 5475.67 975.712 5537.8 942.847C5600.86 909.069 5649.74 862.962 5684.47 804.535C5719.19 745.196 5736.56 677.186 5736.56 600.502C5736.56 522.904 5719.19 454.891 5684.47 396.465C5649.74 338.039 5600.86 292.392 5537.8 259.527C5475.67 225.749 5402.1 208.857 5317.12 208.857H5033.38H4931.95V121.219H5322.6Z" fill="url(#paint5_linear_442_5238)"/>
<path d="M6804.56 208.857H6248.06V549.832H6744.26V636.104H6248.06V992.143H6825.12V1079.79H6146.63V121.219H6804.56V208.857Z" fill="url(#paint6_linear_442_5238)"/>
<path d="M7847.6 898.643V121.219H7947.65V1079.79H7864.04L7247.23 302.471V1079.79H7145.79V121.219H7229.41L7847.6 898.643Z" fill="url(#paint7_linear_442_5238)"/>
<path d="M10068.4 208.857H9511.94V549.832H10008.1V636.104H9511.94V992.143H10089V1079.79H9410.5V121.219H10068.4V208.857Z" fill="url(#paint8_linear_442_5238)"/>
<path d="M341.431 698.588L904.789 119.845H1021.3L606.46 554.401L1050.08 1078.41H929.462L537.814 627.545L341.431 826.269V1078.41H240V119.845H341.431V698.588Z" fill="url(#paint9_linear_442_5238)"/>
<defs>
<linearGradient id="paint0_linear_442_5238" x1="1683.22" y1="122" x2="1470.1" y2="1078.43" gradientUnits="userSpaceOnUse">
<stop stop-color="#FFCB49"/>
<stop offset="1" stop-color="#FF960C"/>
</linearGradient>
<linearGradient id="paint1_linear_442_5238" x1="9.70002" y1="602.95" x2="11940.5" y2="861.055" gradientUnits="userSpaceOnUse">
<stop stop-color="#1FACD0"/>
<stop offset="0.359639" stop-color="#B9E6EB"/>
<stop offset="0.92984" stop-color="#0CA1CB"/>
</linearGradient>
<linearGradient id="paint2_linear_442_5238" x1="9.70002" y1="602.95" x2="11940.5" y2="861.055" gradientUnits="userSpaceOnUse">
<stop stop-color="#1FACD0"/>
<stop offset="0.359639" stop-color="#B9E6EB"/>
<stop offset="0.92984" stop-color="#0CA1CB"/>
</linearGradient>
<linearGradient id="paint3_linear_442_5238" x1="9.70002" y1="602.95" x2="11940.5" y2="861.055" gradientUnits="userSpaceOnUse">
<stop stop-color="#1FACD0"/>
<stop offset="0.359639" stop-color="#B9E6EB"/>
<stop offset="0.92984" stop-color="#0CA1CB"/>
</linearGradient>
<linearGradient id="paint4_linear_442_5238" x1="9.70002" y1="602.95" x2="11940.5" y2="861.055" gradientUnits="userSpaceOnUse">
<stop stop-color="#1FACD0"/>
<stop offset="0.359639" stop-color="#B9E6EB"/>
<stop offset="0.92984" stop-color="#0CA1CB"/>
</linearGradient>
<linearGradient id="paint5_linear_442_5238" x1="9.70002" y1="602.95" x2="11940.5" y2="861.055" gradientUnits="userSpaceOnUse">
<stop stop-color="#1FACD0"/>
<stop offset="0.359639" stop-color="#B9E6EB"/>
<stop offset="0.92984" stop-color="#0CA1CB"/>
</linearGradient>
<linearGradient id="paint6_linear_442_5238" x1="9.70002" y1="602.95" x2="11940.5" y2="861.055" gradientUnits="userSpaceOnUse">
<stop stop-color="#1FACD0"/>
<stop offset="0.359639" stop-color="#B9E6EB"/>
<stop offset="0.92984" stop-color="#0CA1CB"/>
</linearGradient>
<linearGradient id="paint7_linear_442_5238" x1="9.70002" y1="602.95" x2="11940.5" y2="861.055" gradientUnits="userSpaceOnUse">
<stop stop-color="#1FACD0"/>
<stop offset="0.359639" stop-color="#B9E6EB"/>
<stop offset="0.92984" stop-color="#0CA1CB"/>
</linearGradient>
<linearGradient id="paint8_linear_442_5238" x1="9.70002" y1="602.95" x2="11940.5" y2="861.055" gradientUnits="userSpaceOnUse">
<stop stop-color="#1FACD0"/>
<stop offset="0.359639" stop-color="#B9E6EB"/>
<stop offset="0.92984" stop-color="#0CA1CB"/>
</linearGradient>
<linearGradient id="paint9_linear_442_5238" x1="9.70002" y1="602.95" x2="11940.5" y2="861.055" gradientUnits="userSpaceOnUse">
<stop stop-color="#1FACD0"/>
<stop offset="0.359639" stop-color="#B9E6EB"/>
<stop offset="0.92984" stop-color="#0CA1CB"/>
</linearGradient>
</defs>
</svg>
