<?xml version="1.0" encoding="UTF-8"?>
<svg id="Layer_1" data-name="Layer 1" xmlns="http://www.w3.org/2000/svg" width="945.12" height="945.12" viewBox="0 0 945.12 945.12">
  <defs>
    <style>
      .cls-1 {
        fill: #fff;
      }
    </style>
  </defs>
  <path class="cls-1" d="M505.65,175.89l-9.15,10.21-9.15-.53c-11.81-.76-37.73-.53-46.49.46l-6.86.76-3.05-3.2c-1.68-1.75-6.02-6.4-9.68-10.37l-6.63-7.16-5.56.99c-12.5,2.21-35.21,8.38-47.56,13.03l-3.89,1.45-2.97,13.8-2.97,13.8-11.05,5.49c-12.58,6.25-23.48,12.65-35.06,20.66l-8,5.49-13.49-4.19-13.49-4.19-6.71,5.95c-8.84,7.93-22.79,22.1-29.34,29.88l-5.26,6.25,4.34,13.49,4.27,13.41-4.95,7.39c-7.93,11.74-11.05,17.07-18.83,32.47l-7.39,14.48-13.64,3.05-13.64,3.12-3.2,9.53c-3.81,11.2-7.24,24.16-9.76,37.12-1.07,5.18-1.91,9.68-1.91,9.98s4.65,4.8,10.37,9.98l10.44,9.37-.53,8.61c-.84,12.8-.69,36.28.3,45.58l.84,8.23-7.09,6.55c-3.89,3.66-8.61,8-10.44,9.76l-3.35,3.12,1.3,6.78c3.12,15.78,11.97,46.26,14.33,49.16.91,1.07,3.96,1.83,23.93,6.02l3.96.84,2.82,6.25c5.49,12.12,15.24,28.81,24.16,41.39l4.34,6.17-4.12,13.57-4.19,13.57,3.58,4.27c6.63,7.77,19.51,20.81,28.96,29.04l9.37,8.23,12.65-4.12c7.01-2.29,13.34-4.12,14.02-4.12s3.58,1.68,6.55,3.73c9.37,6.63,21.72,13.8,35.06,20.35l13.03,6.48,2.9,12.96c1.6,7.16,3.35,13.41,3.73,14.02,2.06,2.52,41.54,13.41,54.72,15.02,1.75.15,3.28-1.14,11.36-10.06,8.92-9.76,9.53-10.29,12.12-10.14,15.78.91,41.69,1.07,50,.3l9.83-.91,2.67,2.9c1.45,1.6,5.79,6.25,9.6,10.37l6.94,7.55,10.21-2.06c11.74-2.36,24.54-5.87,37.73-10.44l9.22-3.12,2.97-13.8,2.97-13.8,4.57-2.29c16.84-8.31,30.79-16.39,42.91-25l6.25-4.42,13.49,4.19,13.49,4.19,3.51-2.82c5.95-4.88,24.31-23.09,31.48-31.25l6.86-7.93-4.34-13.64-4.42-13.64,4.27-6.02c6.63-9.45,14.48-22.94,20.88-35.98l5.79-11.89,13.72-3.2c7.55-1.75,13.8-3.28,13.87-3.35s1.52-4.42,3.28-9.68c3.51-10.82,7.01-24.31,9.6-37.73l1.83-9.15-4.34-4.19c-2.36-2.36-7.16-6.78-10.59-9.91l-6.17-5.72.61-6.86c.91-10.06.91-35.75-.08-46.11l-.84-8.99,5.95-5.56c3.35-3.12,8-7.55,10.44-9.83l4.42-4.19-2.36-11.2c-2.52-12.35-6.02-24.85-10.29-37.19-1.52-4.42-2.9-8.08-2.97-8.16s-5.79-1.37-12.73-2.9c-6.86-1.52-13.11-2.9-13.87-3.12s-2.82-3.66-4.95-8.23c-4.95-10.44-11.81-22.26-20.43-35.21l-7.16-10.75,4.12-13.49,4.12-13.57-5.87-6.63c-8.38-9.3-21.42-22.1-29.27-28.89l-6.78-5.72-13.41,4.27-13.49,4.34-8.38-5.64c-11.05-7.39-24.47-15.02-36.28-20.66l-9.68-4.57-1.52-6.86c-.91-3.73-2.36-10.06-3.2-13.87l-1.68-7.01-9.3-3.05c-15.09-4.95-42.76-11.66-47.18-11.51-.53.08-5.03,4.73-10.06,10.37ZM513.12,312.93l43.22,25v50.76l-.08,50.84-16.01,9.15c-11.2,6.4-16.31,9.68-16.77,10.9-1.07,2.82-.76,11.36.46,14.41.69,1.52,2.9,4.57,4.95,6.78,3.43,3.66,3.81,4.34,3.81,7.55s-.38,3.96-2.59,6.17-3.2,2.59-5.79,2.59c-5.72,0-9.91-4.12-9.91-9.68,0-5.03-6.25-11.2-13.34-13.19l-3.43-.91-14.56,8.31-14.56,8.38-13.41-7.7c-13.87-8-16.16-9.98-16.16-14.41,0-2.82,1.07-4.65,5.18-9.3,4.04-4.5,5.49-7.62,5.49-11.81,0-8.46-6.1-14.48-14.56-14.48-7.77,0-12.04,3.81-15.17,13.49-1.52,4.88-2.36,6.25-4.5,7.62-4.34,2.97-6.17,2.44-21.04-6.1l-13.72-7.85-.23-50.3c-.15-44.36-.08-50.53.99-51.37,3.05-2.52,86.28-50.15,87.27-50,.69.15,20.66,11.43,44.44,25.15ZM438.96,438.85c2.9,1.75,4.57,4.88,4.57,8.69,0,2.9-.38,3.66-4.19,7.24-2.29,2.21-4.57,5.03-5.03,6.25-1.14,2.9-.99,11.97.23,14.48.69,1.37,5.18,4.42,15.09,10.14l14.1,8.16.23,15.55c.15,14.48.08,15.7-1.37,18.06-.91,1.45-2.82,3.05-4.42,3.73-2.59,1.07-3.28,1.07-8.16-.08-6.63-1.52-8.84-1.52-12.42-.08-7.24,3.12-10.9,10.75-8.38,17.99,2.67,8,9.68,11.59,18.6,9.45,8.61-2.06,11.89-1.37,14.94,3.2,1.22,1.91,1.37,3.89,1.37,17.84v15.7l-43.98,25.38c-33.31,19.21-44.21,25.15-45.12,24.62-.69-.38-20.5-11.81-44.13-25.38l-42.83-24.77.15-50.61.23-50.69,43.83-25.3c24.09-13.95,43.98-25.23,44.21-25.08.23.08,7.62,4.34,16.46,9.45l16.08,9.22,3.2-1.07c4.34-1.6,9.83-5.49,11.43-8.23.76-1.22,1.6-3.73,1.91-5.64.61-4.42,1.52-6.17,4.5-7.93,2.97-1.83,6.1-1.91,8.92-.3ZM601,470.17l43.67,25-.15,50.99-.15,50.91-43.06,25.08c-23.7,13.8-43.6,25-44.21,24.92-.61-.15-20.66-11.36-44.36-25l-43.29-24.77v-37.96l-2.82-2.67c-5.34-5.03-12.04-6.25-19.89-3.66-4.5,1.52-6.1,1.22-9.76-1.98-2.29-1.98-2.59-2.74-2.59-5.95,0-2.82.46-4.19,1.98-6.02,2.9-3.43,6.25-4.12,11.59-2.29,6.55,2.36,12.42.84,18.83-4.73l2.67-2.36v-33.99l13.26-7.7c11.05-6.48,13.72-7.7,16.46-7.7,2.59,0,3.66.46,5.72,2.52,1.52,1.52,2.9,3.89,3.35,5.95,2.06,8.38,6.63,13.19,13.34,14.1,10.82,1.52,19.59-9.83,15.32-19.97-.61-1.52-3.05-4.8-5.34-7.32-3.73-3.96-4.19-4.88-4.19-7.7,0-5.34,1.6-6.86,15.62-15.02,7.16-4.12,13.26-7.55,13.64-7.55.38-.08,20.35,11.13,44.36,24.85Z"/>
</svg>
