<?xml version="1.0" encoding="UTF-8"?>
<svg id="a" data-name="Layer 1" xmlns="http://www.w3.org/2000/svg" width="4886.71" height="992.19" xmlns:xlink="http://www.w3.org/1999/xlink" viewBox="0 0 4886.71 992.19">
  <defs>
    <linearGradient id="f" x1="1262.3" y1="-188.13" x2="1262.3" y2="155.07" gradientTransform="translate(-899.76 244.6) scale(1.1 1)" gradientUnits="userSpaceOnUse">
      <stop offset="0" stop-color="#fff"/>
      <stop offset="1" stop-color="#fff" stop-opacity="0"/>
    </linearGradient>
    <linearGradient id="h" x1="356.68" y1="259.37" x2="356.68" y2="391.57" gradientTransform="translate(134.6 208.7)" gradientUnits="userSpaceOnUse">
      <stop offset="0" stop-color="#fff"/>
      <stop offset="1" stop-color="#bebebe"/>
    </linearGradient>
    <radialGradient id="n" cx="540.93" cy="1939.47" fx="540.93" fy="1939.47" r="158.15" gradientTransform="translate(134.6 -30.12) scale(1 .5)" gradientUnits="userSpaceOnUse">
      <stop offset="0" stop-color="#dfbe00"/>
      <stop offset=".8" stop-color="#deaf00"/>
      <stop offset="1" stop-color="#dea101"/>
    </radialGradient>
    <radialGradient id="q" cx="174.63" cy="454.27" fx="174.63" fy="454.27" r="158.08" gradientTransform="translate(134.6 265.7)" gradientUnits="userSpaceOnUse">
      <stop offset="0" stop-color="#dfbe00"/>
      <stop offset=".8" stop-color="#deaf00"/>
      <stop offset="1" stop-color="#dea101"/>
    </radialGradient>
    <radialGradient id="x" cx="111.68" cy="-134.53" fx="111.68" fy="-134.53" r="71.5" gradientTransform="translate(0 -1685.27) scale(1 -1)" gradientUnits="userSpaceOnUse">
      <stop offset="0" stop-color="#d2d2d2"/>
      <stop offset=".9" stop-color="#d2d2d2"/>
      <stop offset="1" stop-color="gray"/>
    </radialGradient>
    <radialGradient id="z" cx="227.58" cy="227.17" fx="227.58" fy="227.17" r="71.5" gradientTransform="translate(0 -1685.27) scale(1 -1)" gradientUnits="userSpaceOnUse">
      <stop offset="0" stop-color="#d2d2d2"/>
      <stop offset=".9" stop-color="#d2d2d2"/>
      <stop offset="1" stop-color="gray"/>
    </radialGradient>
    <linearGradient id="ac" x1="270.85" y1="37.89" x2="305.65" y2="93.29" gradientTransform="translate(134.6 208.7)" gradientUnits="userSpaceOnUse">
      <stop offset="0" stop-color="#fff"/>
      <stop offset="1" stop-color="#fff" stop-opacity="0"/>
    </linearGradient>
    <linearGradient id="af" x1="466.69" y1="39.66" x2="495.79" y2="87.96" gradientTransform="translate(134.6 208.7)" gradientUnits="userSpaceOnUse">
      <stop offset="0" stop-color="#fff"/>
      <stop offset="1" stop-color="#fff" stop-opacity="0"/>
    </linearGradient>
    <radialGradient id="ah" cx="-389.62" cy="-4418.83" fx="-389.62" fy="-4418.83" r="83" gradientTransform="translate(0 -1685.27) scale(1 -1)" gradientUnits="userSpaceOnUse">
      <stop offset="0" stop-color="#fff"/>
      <stop offset="1" stop-color="#fff" stop-opacity="0"/>
    </radialGradient>
    <radialGradient id="aj" cx="-790.92" cy="-1048.13" fx="-790.92" fy="-1048.13" r="83.1" gradientTransform="translate(0 -1685.27) scale(1 -1)" gradientUnits="userSpaceOnUse">
      <stop offset="0" stop-color="#fff"/>
      <stop offset="1" stop-color="#fff" stop-opacity="0"/>
    </radialGradient>
    <radialGradient id="al" cx="353.24" cy="509.47" fx="353.24" fy="509.47" r="84.17" gradientTransform="translate(134.6 23.17) scale(1 .8)" gradientUnits="userSpaceOnUse">
      <stop offset="0" stop-color="#dfbe00"/>
      <stop offset=".8" stop-color="#deaf00"/>
      <stop offset="1" stop-color="#dea101"/>
    </radialGradient>
    <linearGradient id="an" x1="380.62" y1="163.69" x2="352.02" y2="212.19" gradientTransform="translate(134.6 208.7)" gradientUnits="userSpaceOnUse">
      <stop offset="0" stop-color="#fff"/>
      <stop offset="1" stop-color="#fff" stop-opacity="0"/>
    </linearGradient>
    <linearGradient id="aq" x1="864.65" y1="222.23" x2="864.65" y2="298.93" gradientTransform="translate(-840.87 464.82) scale(1.3 1.5)" gradientUnits="userSpaceOnUse">
      <stop offset="0" stop-color="#fff"/>
      <stop offset="1" stop-color="#fff" stop-opacity="0"/>
    </linearGradient>
    <linearGradient id="at" x1="839.27" y1="222.23" x2="839.27" y2="298.93" gradientTransform="translate(-391.57 464.82) scale(1.3 1.5)" gradientUnits="userSpaceOnUse">
      <stop offset="0" stop-color="#fff"/>
      <stop offset="1" stop-color="#fff" stop-opacity="0"/>
    </linearGradient>
    <linearGradient id="av" x1="-202.25" y1="463.47" x2="79.45" y2="243.67" gradientTransform="translate(134.6 208.7)" gradientUnits="userSpaceOnUse">
      <stop offset="0" stop-color="#fff"/>
      <stop offset="1" stop-color="#fff" stop-opacity="0"/>
    </linearGradient>
    <linearGradient id="ax" x1="-1402.25" y1="419.17" x2="-1120.55" y2="199.37" gradientTransform="translate(-357.55 251.1) rotate(-180) scale(1 -1)" gradientUnits="userSpaceOnUse">
      <stop offset="0" stop-color="#fff"/>
      <stop offset="1" stop-color="#fff" stop-opacity="0"/>
    </linearGradient>
    <linearGradient id="az" x1="357.71" y1="685.67" x2="357.91" y2="707.67" gradientTransform="translate(134.6 208.7)" gradientUnits="userSpaceOnUse">
      <stop offset="0" stop-color="#3c3c3c"/>
      <stop offset="1" stop-color="#a0a0a0" stop-opacity="0"/>
    </linearGradient>
    <linearGradient id="bb" x1="326.02" y1="77.66" x2="333.22" y2="103.76" gradientTransform="translate(134.6 208.7)" gradientUnits="userSpaceOnUse">
      <stop offset="0" stop-color="#fff"/>
      <stop offset="1" stop-color="#fff" stop-opacity="0"/>
    </linearGradient>
    <linearGradient id="bd" x1="302.45" y1="104.98" x2="318.95" y2="135.88" gradientTransform="translate(134.6 208.7)" gradientUnits="userSpaceOnUse">
      <stop offset="0" stop-color="#3c3c3c"/>
      <stop offset="1" stop-color="#3c3c3c" stop-opacity="0"/>
    </linearGradient>
    <linearGradient id="bf" x1="377.21" y1="76.96" x2="386.71" y2="105.36" gradientTransform="translate(134.6 208.7)" gradientUnits="userSpaceOnUse">
      <stop offset="0" stop-color="#fff"/>
      <stop offset="1" stop-color="#fff" stop-opacity="0"/>
    </linearGradient>
    <linearGradient id="bh" x1="357.41" y1="106.95" x2="373.81" y2="137.85" gradientTransform="translate(134.6 208.7)" gradientUnits="userSpaceOnUse">
      <stop offset="0" stop-color="#3c3c3c"/>
      <stop offset="1" stop-color="#3c3c3c" stop-opacity="0"/>
    </linearGradient>
    <linearGradient id="bl" x1="-2371.03" y1="-1551.78" x2="-2369.23" y2="-1549.28" gradientTransform="translate(-60878.96 37833.06) rotate(-180) scale(25.9 -24)" gradientUnits="userSpaceOnUse">
      <stop offset="0" stop-color="#fff"/>
      <stop offset="1" stop-color="#439246"/>
    </linearGradient>
    <linearGradient id="bn" x1="-2373.46" y1="-1549.89" x2="-2371.06" y2="-1545.89" gradientTransform="translate(-59795.25 37825.96) rotate(-180) scale(25.4 -24)" gradientUnits="userSpaceOnUse">
      <stop offset="0" stop-color="#fff"/>
      <stop offset="1" stop-color="#439246"/>
    </linearGradient>
    <linearGradient id="bp" x1="-2200.66" y1="-1579.82" x2="-2199.16" y2="-1577.72" gradientTransform="translate(90893.95 55124) scale(41.1 34.5)" gradientUnits="userSpaceOnUse">
      <stop offset="0" stop-color="#fff"/>
      <stop offset="1" stop-color="#439246"/>
    </linearGradient>
    <linearGradient id="br" x1="-2199.57" y1="-1578.21" x2="-2197.67" y2="-1575.01" gradientTransform="translate(90019.67 54784.87) scale(40.7 34.3)" gradientUnits="userSpaceOnUse">
      <stop offset="0" stop-color="#fff"/>
      <stop offset="1" stop-color="#439246"/>
    </linearGradient>
  </defs>
  <g id="b" data-name="Layer 22">
    <g id="c" data-name="g10652" isolation="isolate" opacity=".8">
      <path id="d" data-name="path10632" d="M862.18,916.37c0,18.7-167.2,34-373.5,34s-373.5-15.2-373.5-34,167.2-34,373.5-34,373.5,15.3,373.5,34" fill="#a0a0a0"/>
    </g>
    <path id="e" data-name="path10672" d="M179.28,569.57c-2,10.5-2.9,21.1-2.7,31.7,4.9,162.2,140.6,293.9,313.7,293.9s312.2-130.9,313.7-293.9c.1-11.8-2.1-23.5-6.4-34.4,0,0,37,8,103.3,55.6,58.3,10.6,37-37,37-37,0,0-13.3-37-98-103.3-84.7-66.3-82.4-88.5-91.7-129.5-9.4-41.2-22.1-95.6-22.1-95.6,0,0-19.6-85.5-64.1-129.7-95.7-95.5-250.7-95.4-346.2.3l-.7.7c-44.5,44.8-69.5,112.8-69.5,112.8,0,0-14.3,54-13.9,97.2.4,42.5-10,80-94.7,146.3-84.7,66.3-98,103.3-98,103.3,0,0-20.2,44.6,38.1,34.1,66.3-43.7,102.4-52.6,102.3-52.6h0l-.1.1Z" stroke="#000" stroke-width="2.3"/>
    <path id="g" data-name="path10692" d="M679.98,233.67c0,95.7-85.6,173.4-191.2,173.4s-191.2-77.6-191.2-173.4S383.18,60.27,488.78,60.27s191.2,77.6,191.2,173.4" fill="url(#f)"/>
    <path id="i" data-name="path10712" d="M744.18,655.47c0,80.4-28.3,154.9-74.1,207.6-45.8,52.7-311.8,52.7-357.6,0-45.8-52.7-74.1-125.6-74.1-206,0-160.8,113.3-291.3,252.9-291.3,138.6.1,251.2,130.1,252.9,289.7h0Z" fill="url(#h)"/>
    <path id="j" data-name="path10732" d="M258.28,551.57s-8.6,80.3,1.8,126.6c10.4,46.3,22.3,92.3,22.3,92.3l-24.8,7.7c-9.3-10.8-17.9-22.2-25.7-34.1-12-18.8-26.6-57.3-26.6-57.3l38.4,30s-7.7-32.5-4.3-68.4c3.4-35.9,7-73.6,18.8-96.7h0l.1-.1Z" fill="#fff" isolation="isolate" opacity=".4"/>
    <path id="k" data-name="path10752" d="M356.78,419.77s11.1,17.1,18.8,17.3c12.6,1.4,16.2,14.7,28.7,13.8,26.8,32.1,50.3,62,75.4,74.5,9,5.8,18.6,7.2,26.8-7,14.3-12.5,47.2-47.8,54.2-61.3,10.4-12,8-29.5,8-29.5,0,0,17.7-7.1,26.6-7.7,9.9-.8,1.5-18,10.2-19.6-2.1-14.2,11.5-13.9-4.6-15.7-16.1-1.8-219.8-12.5-235.9-1.8-16.2,10.7-19,17.3-8.2,36.9h0v.1Z" fill="#a0a0a0"/>
    <path id="l" data-name="path10772" d="M723.48,555.87s8.6,80.3-1.8,126.6c-10.4,46.3-22.3,92.3-22.3,92.3l24.8,7.7c9.3-10.8,17.9-22.2,25.7-34.1,12-18.7,26.6-57.3,26.6-57.3l-38.4,30s7.7-32.5,4.3-68.4c-3.4-35.9-7-73.7-18.8-96.7l-.1-.1Z" fill="#fff" isolation="isolate" opacity=".4"/>
    <path id="m" data-name="path10792" d="M814.08,876.27c0,15.7-4.4,21.4-12.4,34.9h-291.6c-8-13.5-12.4-19.2-12.4-34.9,0-62.6,70.8-113.5,158.2-113.5s158.2,50.8,158.2,113.5" fill="#a0a0a0"/>
    <path id="o" data-name="path10812" d="M833.58,881.57c0,15.7-4.4,21.4-12.4,34.9h-291.4c-8-13.5-12.4-19.2-12.4-34.9,0-62.6,70.8-113.5,158.2-113.5s158.1,50.8,158.1,113.5" fill="url(#n)"/>
    <path id="p" data-name="path10832" d="M486.88,877.87c0,15.7-4.4,21.4-12.4,34.9H183.08c-8-13.5-12.4-19.2-12.4-34.9,0-62.6,70.8-113.5,158.2-113.5s158.1,51,158.1,113.5" fill="#a0a0a0"/>
    <path id="r" data-name="path10852" d="M467.28,881.57c0,15.7-4.4,21.4-12.4,34.9H163.48c-8-13.5-12.4-19.2-12.4-34.9,0-62.6,70.8-113.5,158.2-113.5s158.1,50.8,158.1,113.5" fill="url(#q)"/>
    <g id="s" data-name="g10892" isolation="isolate" opacity=".9">
      <path id="t" data-name="path10872" d="M688.28,308.67c0,47.3-48.3,85.6-108,85.6s-108-38.3-108-85.6,48.3-85.6,108-85.6,108,38.3,108,85.6"/>
    </g>
    <g id="u" data-name="g10952" isolation="isolate" opacity=".9">
      <path id="v" data-name="path10912" d="M486.58,302.47c0,62.5-41.1,113.2-91.8,113.2s-91.8-50.7-91.8-113.2,41.1-113.2,91.8-113.2,91.8,50.7,91.8,113.2"/>
      <path id="w" data-name="path10932" d="M486.58,302.47c0,62.5-41.1,113.2-91.8,113.2s-91.8-50.7-91.8-113.2,41.1-113.2,91.8-113.2,91.8,50.7,91.8,113.2" fill="none" stroke="#000" stroke-width="2.4"/>
    </g>
    <path id="y" data-name="path10972" d="M481.28,305.27c0,61.1-39.1,110.5-87.4,110.5s-87.4-49.4-87.4-110.5,39.1-110.5,87.4-110.5,87.4,49.4,87.4,110.5" fill="url(#x)"/>
    <path id="aa" data-name="path10992" d="M672.08,314.87c0,44.8-42.4,81-94.5,81s-94.5-36.3-94.5-81,42.4-81,94.5-81,94.5,36.3,94.5,81" fill="url(#z)"/>
    <path id="ab" data-name="path11012" d="M533.58,315.87c0,20.2-11.3,36.7-25,36.7s-25-16.4-25-36.7,11.3-36.7,25-36.7,25,16.4,25,36.7"/>
    <path id="ad" data-name="path11032" d="M338.58,231.87s25-46.4,73.2-30.3c48.2,16.1,51.5,44,64,108.4s-44.4,6.1-44.4,6.1c0,0-7.2-55.4-39.3-71.4-32.1-16.1-53.5-10.7-53.5-12.6v-.2Z" fill="url(#ac)" isolation="isolate" opacity=".8"/>
    <path id="ae" data-name="path11052" d="M479.68,315.07c0,20.2-11.3,36.7-25,36.7s-25-16.4-25-36.7,11.3-36.7,25-36.7,25,16.4,25,36.7" stroke="#000" stroke-width="2.3"/>
    <path id="ag" data-name="path11072" d="M563.78,240.87s51.8-9,80.4,26.8c28.6,35.8,19.6,48.3,19.6,48.3l-39.3,1.8c.1,0-24.9-57.3-60.7-76.9h0Z" fill="url(#af)" isolation="isolate" opacity=".8"/>
    <path id="ai" data-name="path11092" d="M498.38,353.07s47,27.8,88.1,22.4,60.4-20.6,77-36.9c-4.2,19.5-42.9,50.3-76.8,52.1-33.9,1.8-88.4-35.8-88.4-37.6h.1Z" fill="url(#ah)" isolation="isolate" opacity=".8"/>
    <path id="ak" data-name="path11112" d="M318.38,273.87s-.3,60.6,36,95.2c36.3,34.6,58,27.3,86.6,31.6-22.6,9.5-74.3,9.5-101.7-20.9-27.3-30.3-22.8-104.7-21-106h0l.1.1Z" fill="url(#aj)" isolation="isolate" opacity=".8"/>
    <path id="am" data-name="path11132" d="M490.68,499.97h8.9c0-.1,9.6-10.7,42.9-45.5,22.3-25.3,29.3-41.9,29.3-41.9,0,0,4.6-16.7-17.2-33.8-28.4-14.2-42.9-14.2-64-14s-36.7,2.7-64,14.2c-27.3,11.5-22.8,34.8-22.8,34.8,0,0,2,11.1,35.3,45.9,33.3,34.8,51.6,40.3,51.6,40.3h0Z" fill="url(#al)"/>
    <path id="ao" data-name="path11152" d="M434.58,381.27s43.1,2.9,71.4,20.1c28.3,17.2,38.6,41.1,38.6,41.1,0,0,17.7-19.3,20.1-26.7,2.4-7.3,7.3-22.1-18.5-36.9-25.8-14.8-40.6-10.6-65.7-10.2-24.9.3-45.9,13-45.9,12.6h0Z" fill="url(#an)"/>
    <g id="ap" data-name="g11192" isolation="isolate" opacity=".8">
      <path id="ar" data-name="path11172" d="M379.68,845.77c0,35-43.2,63.5-96.5,63.5s-96.5-28.4-96.5-63.5,43.2-63.5,96.5-63.5,96.5,28.4,96.5,63.5" fill="url(#aq)"/>
    </g>
    <g id="as" data-name="g11232" isolation="isolate" opacity=".8">
      <path id="au" data-name="path11212" d="M795.98,845.77c0,35-43.2,63.5-96.5,63.5s-96.5-28.4-96.5-63.5,43.2-63.5,96.5-63.5,96.5,28.4,96.5,63.5" fill="url(#at)"/>
    </g>
    <path id="aw" data-name="path11252" d="M47.38,598.37s150.1-96.5,173.4-114.4c23.3-18,1.8-75.1,1.8-75.1-15.7,21.5-33.1,41.9-51.8,60.8-26.8,21.5-48.3,39.3-89.4,73.2-41.1,41.2-33.9,57.3-33.9,55.5h-.1Z" fill="url(#av)"/>
    <path id="ay" data-name="path11272" d="M929.68,596.47s-150.1-96.5-173.4-114.4c-23.3-18-1.8-75.1-1.8-75.1,15.7,21.5,33.1,41.9,51.8,60.8,26.8,21.5,48.3,39.3,89.4,73.2,41.1,41.2,33.9,57.4,33.9,55.5h.1Z" fill="url(#ax)"/>
    <path id="ba" data-name="path11291" d="M465.68,894.57s19.2,1.6,27.2,1.5c8.9-.1,20.6-1,26.8-1.6,1.9,9.6,8.1,18.2,10.1,20.9,2.5,2.4-74.6.4-74.6.4,0,0,9.6-13.5,10.5-21.1v-.1Z" fill="url(#az)"/>
    <path id="bc" data-name="path11312" d="M449.68,279.77s6.2,17.8,6.6,33c13.5-4.6,20.6-9.1,20.6-9.1,0,0-3.4-23.9-27.2-23.9h0Z" fill="url(#bb)"/>
    <path id="be" data-name="path11332" d="M435.68,292.47s-2.3,19.9,6.2,33.4,18.1,17.8,25.4,19.5c-2.3,2-12.6,7.6-22.3-.3-9.6-7.8-14.4-15.3-14.4-25.7s1.8-23,5.1-26.9h0Z" fill="url(#bd)"/>
    <path id="bg" data-name="path11352" d="M502.68,280.97s6.2,17.8,6.6,33c13.5-4.6,20.6-9.1,20.6-9.1,0,0-3.4-23.9-27.2-23.9h0Z" fill="url(#bf)"/>
    <path id="bi" data-name="path11372" d="M490.58,294.47s-2.3,19.9,6.2,33.4,18.1,17.8,25.4,19.5c-2.3,2-12.6,7.6-22.3-.3-9.6-7.8-14.4-15.3-14.4-25.7s1.9-23.1,5.1-26.9h0Z" fill="url(#bh)"/>
  </g>
  <g id="bj" data-name="Layer 1-22">
    <path id="bk" data-name="path11402" d="M222.78,431.77s100.6,104.3,265.3,101.7c80.2-1.3,184.9,1.4,291.1-109.6l7.2,8.5,52.7,46s-47.8,55.6-34.6,89c0,0,5.4,33.6,1,63.5-6.8,46.7-33.1,114.3-52.6,131.8,0,0-462.7-11.5-522.6,0,0,0-60.8-44.5-67.3-187.5,0,0-8.3-44.4-46.9-74.9l91.7-84.7,15,16.3v-.1Z" fill="#027154"/>
  </g>
  <g>
    <path d="M600.68,668.47l-18.6-81.5c-.6-2.6-3-5.7-5.4-6.8l-75.3-36.3c-2.4-1.1-6.2-1.1-8.7,0l-75.3,36.3c-2.4,1.1-4.9,4.2-5.4,6.8l-12.6,55.4,66.7-40.6,78.5,80.3-72.4,63.8h66.6c2.6,0,6.1-1.7,7.8-3.7l52.1-65.3c1.7-2.1,2.5-5.8,1.9-8.4h.1v.2-.2Z" fill="#009f76"/>
    <path d="M466.08,601.67l-66.7,40.6-6,26.2c-.6,2.6.3,6.4,1.9,8.4l52.1,65.3c1.7,2.1,5.1,3.7,7.8,3.7h17l72.4-64-78.5-80.3h0v.1Z" fill="#009f76"/>
    <path d="M465.38,602.07l-66,40.4-6,26c-.6,2.6.3,6.4,1.9,8.4l52.1,65.3c1.7,2.1,5.1,3.7,7.8,3.7h17l70.6-62.3-77.4-81.6h0v.1Z" isolation="isolate" opacity=".4"/>
  </g>
  <path id="bm" data-name="Combined-Shape4" d="M464.18,635.87c1,2.9,3,5.5,5.3,7.1l19.4,12.7c3.3,2.2,8.7,2.2,12,0l19.4-12.7c3.3-2.2,6.1-7.2,6.1-11.2v-26.7c0-1.8-.6-3.7-1.4-5.5l-60.8,36.4h0v-.1Z" fill="url(#bl)" fill-rule="evenodd"/>
  <path id="bo" data-name="Combined-Shape11" d="M465.38,602.07c-.8,1.8-1.4,3.7-1.4,5.3v26.7c0,4,2.6,9,6.1,11.2l19.4,12.7c3.3,2.2,8.7,2.2,12,0l19.4-12.7c1.7-1.1,3-2.8,4.2-4.7" fill="url(#bn)" fill-rule="evenodd"/>
  <path id="bq" data-name="Combined-Shape21" d="M545.98,678.97c-1.1,2.5-2.9,4.7-5,5.8l-37.5,21.6c-3.5,1.9-9,1.9-12.5,0l-37.5-21.6c-3.5-1.9-6.2-6.8-6.2-10.8v-43.3c0-1.8.6-3.9,1.5-5.7l97.2,54h0Z" fill="url(#bp)" fill-rule="evenodd"/>
  <path id="bs" data-name="Combined-Shape31" d="M545.88,625.47c.8,1.7,1.4,3.5,1.4,5.3v43.3c0,4-2.8,8.9-6.2,10.8l-37.5,21.6c-3.5,1.9-9,1.9-12.5,0l-37.5-21.6c-1.7-1-3-2.5-4.1-4.3l96.5-55.1h-.1Z" fill="url(#br)" fill-rule="evenodd"/>
  <g id="bt" data-name="text17341">
    <path id="bu" data-name="path1112" d="M1456.48,521.37v236h-52.9v-63.6c-15.3,21.4-34.8,38.4-58.5,51s-51.1,18.9-82.1,18.9-77.7-9.8-108.6-29.3c-30.6-19.7-54.1-47-70.5-81.8-16.4-34.8-24.5-74.5-24.5-119s8.5-85.6,25.5-119.6c17-34.2,41.2-60.5,72.7-79s68.4-27.7,110.8-27.7,70,6.7,97.2,20.1c27.3,13.2,51.8,32.9,73.6,59.2l-47.2,37.4c-15.7-20.1-33.7-35.4-53.8-45.6-19.9-10.3-43.8-15.4-71.7-15.4s-55.4,7-77.4,21.1c-21.8,14.1-38.7,34-50.7,59.8-11.7,25.6-17.6,55.5-17.6,89.7s5.9,64.2,17.6,90.6c12,26.4,28.7,47.1,50.4,62,21.6,14.7,46.6,22,74.9,22s52.9-5.8,72.4-17.3c19.5-11.7,34.1-27.4,43.7-46.9,9.7-19.5,14.6-41.2,14.8-65.1v-1.9h-114.5v-55.7h176.5l-.1.1Z" fill="#252525"/>
    <path id="bv" data-name="path1132" d="M1632.08,763.67c-34.6,0-61-8.9-79.3-26.7-18-18-27.1-42.8-27.1-74.3s14.2-65.1,42.5-81.5c28.3-16.6,63.6-25.3,105.7-26.1l67.7-1.3v-20.1c0-23.5-6.1-41.9-18.3-55.1-12-13.4-29.1-20.1-51.3-20.1-18,0-34.4,3.8-49.1,11.3-14.7,7.6-30.7,20.8-48.1,39.7l-35.6-36.8c14.7-18,33.3-32.8,55.7-44.4,22.7-11.7,48.8-17.6,78.4-17.6s48.7,5,67.3,15.1c18.7,10.1,32.8,23.9,42.5,41.5,9.7,17.6,14.5,37.9,14.5,60.7v157.3c0,26.9.8,50.9,2.5,72.1h-54.8c-1.7-15.3-2.5-32.1-2.5-50.4h-1.3c-12.8,18.7-27.6,32.8-44.4,42.5-16.6,9.4-38.3,14.2-65.1,14.2h.1ZM1644.98,716.17c20.1,0,37.4-4,51.9-12,14.7-8.2,25.8-18.8,33.4-31.8,7.6-13.2,11.3-27.2,11.3-41.9v-32.4l-53.5,1.3c-31.3.8-56.4,6-75.5,15.4-18.9,9.2-28.3,25.4-28.3,48.5s5.3,29.1,16,38.7c10.9,9.4,25.8,14.2,44.7,14.2h0Z" fill="#252525"/>
    <path id="bw" data-name="path1151" d="M1887.88,496.47c0-34.4-.6-60.8-1.9-79.3h53.5c.6,9,1.2,19.1,1.6,30.2.6,10.9.9,19.7.9,26.4h1.3c8.4-21.2,19.2-37,32.4-47.5,13.2-10.5,28.2-15.7,45-15.7s21,1,28.3,3.1l-4.4,55.7c-7.6-2.3-16.6-3.5-27.1-3.5-25,0-43.3,10.3-55.1,30.8-11.7,20.4-17.6,48.1-17.6,83.4v177.2h-57v-260.9l.1.1Z" fill="#252525"/>
    <path id="bx" data-name="path1171" d="M2216.78,763.67c-45.5,0-79.8-15.6-102.9-46.9-22.9-31.3-34.3-74.1-34.3-128.4s5.3-67.1,16-93.8c10.7-26.6,26.7-47.3,48.1-62,21.6-14.7,47.9-22,79-22s41.3,4.4,58.5,13.2c17.2,8.6,30.3,21.8,39.3,39.7h.6c-.4-4.6-.6-18.4-.6-41.2v-132.2h56.6v397.1c0,14.7.2,28.4.6,41.2s.8,22.4,1.3,29h-54.1c-.8-3.6-1.6-10.4-2.2-20.5-.6-10.1-.9-20.2-.9-30.5h-1.3c-10.1,19.1-24.1,33.5-42.2,43.1-18,9.4-38.6,14.2-61.7,14.2h.2ZM2225.28,713.67c29.4,0,52.6-10.4,69.5-31.2,17.2-20.8,25.8-54,25.8-99.8s-8.3-74.9-24.9-94.4c-16.6-19.5-38.6-29.3-66.1-29.3-60.6,0-90.9,42.5-90.9,127.4s6.9,71.5,20.8,93.8c14.1,22.2,36,33.4,65.8,33.4h0v.1Z" fill="#252525"/>
    <path id="by" data-name="path1191" d="M2603.18,763.67c-33.1,0-61.5-7.3-85-22-23.3-14.9-41-35.7-53.2-62.3-12-26.9-17.9-58-17.9-93.5s6.4-68.8,19.2-95c13-26.4,30.7-46.4,53.2-59.8,22.4-13.6,47.7-20.5,75.8-20.5s62,8.1,83.4,24.2c21.4,15.9,36.8,36.3,46.3,61,9.4,24.8,14.2,51.1,14.2,79s-.4,16.2-1.3,27.1h-231c0,18.3,3.5,36.1,10.4,53.5,7.1,17.2,17.9,31.5,32.4,42.8,14.5,11.1,32.3,16.7,53.5,16.7s25.2-1.8,35.9-5.3c10.9-3.8,20.7-8.6,29.3-14.5,8.8-5.9,18.5-13.4,29-22.7l30.8,40.6c-10.7,9-21.3,17-31.8,23.9s-23.8,13.1-40,18.6c-15.9,5.5-33.7,8.2-53.2,8.2h0ZM2680.98,554.37c-2.7-32.3-11.2-56.2-25.5-71.7-14.3-15.7-34.3-23.6-60.1-23.6s-27.6,3.4-40.6,10.1c-12.8,6.5-23.6,16.9-32.4,31.2-8.6,14.3-13.4,32.3-14.5,54.1h173.1v-.1Z" fill="#252525"/>
    <path id="bz" data-name="path1211" d="M2813.08,489.27c0-13-.2-27.6-.6-43.7-.4-16.2-.8-25.6-1.3-28.3h53.5c.6,5.7,1.2,14.8,1.6,27.4.6,12.6.9,22.8.9,30.5h1.3c11.5-21.4,25.6-37.4,42.2-48.1,16.8-10.9,39.1-16.4,67-16.4s63.3,10.7,80.9,32.1c17.8,21.2,26.7,50.5,26.7,87.8v226.9h-57v-215.9c0-26.2-5.5-46.2-16.4-59.8-10.9-13.8-28.8-20.8-53.8-20.8s-33.4,3.9-46.6,11.6c-13.2,7.8-23.5,19.1-30.8,34-7.1,14.7-10.7,32.5-10.7,53.5v197.3h-57v-268.1h.1Z" fill="#252525"/>
    <path id="ca" data-name="path1231" d="M3359.08,313.97h59.8v388h205.2v55.4h-265v-443.4Z" fill="#252525"/>
    <path id="cb" data-name="path1251" d="M3716.28,353.97c-10.9,0-20-3.6-27.4-10.7-7.1-7.3-10.7-16.5-10.7-27.4s3.6-19.9,10.7-27.1c7.3-7.3,16.5-11,27.4-11s19.6,3.7,26.7,11c7.1,7.1,10.7,16.2,10.7,27.1s-3.6,19.7-10.7,27.1c-7.1,7.3-16,11-26.7,11h0ZM3687.98,417.17h56.6v340.2h-56.6v-340.2Z" fill="#252525"/>
    <path id="cc" data-name="path1271" d="M3832.68,489.27c0-13-.2-27.6-.6-43.7-.4-16.2-.8-25.6-1.3-28.3h53.5c.6,5.7,1.2,14.8,1.6,27.4.6,12.6.9,22.8.9,30.5h1.3c11.5-21.4,25.6-37.4,42.2-48.1,16.8-10.9,39.1-16.4,67-16.4s63.3,10.7,80.9,32.1c17.8,21.2,26.7,50.5,26.7,87.8v226.9h-57v-215.9c0-26.2-5.5-46.2-16.4-59.8-10.9-13.8-28.8-20.8-53.8-20.8s-33.4,3.9-46.6,11.6c-13.2,7.8-23.5,19.1-30.8,34-7.1,14.7-10.7,32.5-10.7,53.5v197.3h-57v-268.1h.1Z" fill="#252525"/>
    <path id="cd" data-name="path1291" d="M4296.58,763.67c-35.7,0-62.5-10.7-80.6-32.1-18-21.4-27.1-52.8-27.1-94.1v-220.3h56.6v209.3c0,31,5.6,53.4,16.7,67,11.3,13.4,29.3,20.1,53.8,20.1,16.4,0,31.3-4.3,44.7-12.9,13.4-8.8,24-21.1,31.8-36.8,7.8-15.9,11.6-34,11.6-54.1v-192.6h56.6v267.5c0,13.8.2,28.7.6,44.7.6,15.7,1.2,25.1,1.6,28h-53.5c-.4-2.3-1-10.4-1.9-24.2-.6-13.8-.9-24.4-.9-31.8h-1.3c-11.1,19.9-25.5,35.4-43.1,46.3-17.6,10.7-39.5,16-65.8,16h.2Z" fill="#252525"/>
    <path id="ce" data-name="path1311" d="M4633.58,582.67l-114.9-165.5h63.9l83.7,130.6,83.1-130.6h64.5l-114.9,164.9,121.8,175.3h-64.2l-90.3-138.5-90.3,138.5h-62.9l120.5-174.7h0Z" fill="#252525"/>
  </g>
</svg>
