<?xml version="1.0" encoding="UTF-8" standalone="no"?>
<svg
   width="1221"
   height="1221"
   viewBox="0 0 1221 1221"
   fill="none"
   version="1.1"
   id="svg292"
   sodipodi:docname="platform-mesh-stacked-color.svg"
   inkscape:version="1.2.1 (9c6d41e410, 2022-07-14)"
   xmlns:inkscape="http://www.inkscape.org/namespaces/inkscape"
   xmlns:sodipodi="http://sodipodi.sourceforge.net/DTD/sodipodi-0.dtd"
   xmlns="http://www.w3.org/2000/svg"
   xmlns:svg="http://www.w3.org/2000/svg">
  <sodipodi:namedview
     id="namedview294"
     pagecolor="#ffffff"
     bordercolor="#000000"
     borderopacity="0.25"
     inkscape:showpageshadow="2"
     inkscape:pageopacity="0.0"
     inkscape:pagecheckerboard="0"
     inkscape:deskcolor="#d1d1d1"
     showgrid="false"
     inkscape:zoom="0.4488188"
     inkscape:cx="457.86852"
     inkscape:cy="598.23697"
     inkscape:window-width="1920"
     inkscape:window-height="991"
     inkscape:window-x="-9"
     inkscape:window-y="-9"
     inkscape:window-maximized="1"
     inkscape:current-layer="svg292" />
  <g
     mask="url(#mask473)"
     id="g230">
    <path
       d="m 606.251,1224.93 c 338.873,0 613.589,-274.706 613.589,-613.579 0,-338.873 -274.716,-613.5844 -613.589,-613.5844 -338.873,0 -613.58393,274.7114 -613.58393,613.5844 0,338.873 274.71093,613.579 613.58393,613.579 z"
       fill="url(#paint1_radial_1_49)"
       id="path220"
       style="fill:url(#paint1_radial_1_49)" />
    <g
       filter="url(#filter0_d_1_49)"
       id="g224">
      <path
         d="m 605.766,-2.2334 c -199.559,0 -376.868,95.1168 -489.022,242.4524 22.077,-4.007 44.801,-6.118 68.028,-6.118 208.514,0 377.558,168.892 377.558,377.25 0,208.357 -169.03,377.25 -377.558,377.25 -23.227,0 -45.965,-2.112 -68.028,-6.118 112.154,147.317 289.463,242.447 489.022,242.447 339.137,0 614.074,-274.704 614.074,-613.565 0,-338.861 -274.937,-613.5984 -614.074,-613.5984 z"
         fill="url(#paint2_radial_1_49)"
         id="path222"
         style="fill:url(#paint2_radial_1_49)" />
    </g>
    <g
       filter="url(#filter1_d_1_49)"
       id="g228">
      <path
         d="m 605.446,-2.2334 c -124.624,0 -240.576,37.0537 -337.431,100.7345 36.427,-7.9709 74.277,-12.1789 113.091,-12.1789 290.348,0 525.718,235.0618 525.718,525.0288 0,289.967 -235.37,525.029 -525.718,525.029 -38.828,0 -76.664,-4.21 -113.091,-12.18 96.84,63.68 212.807,100.73 337.431,100.73 339.314,0 614.394,-274.71 614.394,-613.579 0,-338.87 -275.08,-613.5844 -614.394,-613.5844 z"
         fill="url(#paint3_radial_1_49)"
         id="path226"
         style="fill:url(#paint3_radial_1_49)" />
    </g>
  </g>
  <path
     fill-rule="evenodd"
     clip-rule="evenodd"
     d="m 606.465,152.279 c -10.569,11.585 -25.789,18.855 -42.706,18.855 -30.228,0 -55.035,-23.208 -57.575,-52.778 -48.568,13.397 -93.248,31.793 -134.063,54.37 -35.656,19.724 -68.408,42.665 -98.261,68.298 27.808,7.534 55.356,18.192 81.746,31.844 18.231,9.432 35.944,20.308 52.844,32.594 7.32,-5.375 16.356,-8.551 26.133,-8.551 18.994,0 35.19,11.983 41.438,28.802 6.726,-1.746 13.427,-3.376 20.1,-4.892 113.702,-25.838 219.31,-18.731 312.749,5.267 C 763.35,260.527 705.313,209.335 642.454,171.945 630.606,164.898 618.592,158.344 606.465,152.279 Z m 15.075,-39.905 c 0.005,0.323 0.008,0.646 0.008,0.971 0,10.266 -2.677,19.907 -7.371,28.263 11.773,5.941 23.429,12.328 34.922,19.164 68.375,40.671 131.165,97.314 178.945,170.522 14.387,4.117 28.468,8.623 42.228,13.454 107.501,37.751 195.418,95.438 256.428,143.626 16.52,13.052 31.08,25.415 43.54,36.51 3.57,-4.024 7.62,-7.611 12.07,-10.669 C 1101.14,281.736 865.247,144.686 621.54,112.374 Z m 533.22,469.154 c 5.91,30.552 32.8,53.622 65.08,53.622 36.61,0 66.28,-29.678 66.28,-66.287 0,-36.61 -29.67,-66.288 -66.28,-66.288 -9.22,0 -18,1.882 -25.98,5.282 -84.27,-238.401 -326.705,-376.96 -574.095,-408.8136 -0.152,-0.5941 -0.312,-1.1846 -0.482,-1.7712 117.435,-12.1784 253.151,1.8379 407.387,50.3148 l 3.9,-12.402 C 873.179,85.7172 734.328,71.6492 613.995,84.7598 604.047,67.316 585.277,55.5557 563.759,55.5557 c -27.485,0 -50.489,19.188 -56.346,44.8993 -99.465,-27.2581 -197.852,-24.6606 -269.995,6.578 l 5.165,11.93 C 308.265,90.5223 397.939,86.706 490.212,109.405 445.514,122.69 404.054,140.206 365.829,161.351 326.588,183.057 290.81,208.56 258.48,237.182 179.063,219.011 98.8711,226.406 38.6632,262.422 l 6.6736,11.156 C 99.8836,240.949 172.918,232.892 246.673,247.916 159.844,328.959 99.2349,433.101 64.5341,546.154 c -4.4274,-0.932 -9.0175,-1.423 -13.7221,-1.423 -36.6096,0 -66.2875,29.678 -66.2875,66.288 0,9.128 1.8452,17.826 5.1829,25.74 l -0.1199,1.464 c 0.2621,0.022 0.52475,0.043 0.7879,0.065 10.397553,23.008 33.5474,39.018 60.4366,39.018 8.6426,0 16.899,-1.654 24.4697,-4.662 32.7863,85.028 88.0363,201.759 181.9163,301.281 -61.533,12.349 -121.748,12.245 -168.2272,4.099 l -2.2441,12.805 c 49.9363,8.751 115.0623,8.536 181.1293,-5.852 45.377,46.023 99.378,87.873 163.671,120.493 -1.329,4.46 -2.043,9.19 -2.043,14.08 0,2.23 0.148,4.42 0.434,6.57 -57.015,5.15 -119.857,3.05 -188.887,-8.04 l -2.061,12.84 c 71.004,11.4 135.704,13.45 194.435,7.93 7.509,17.63 24.996,29.99 45.37,29.99 18.089,0 33.901,-9.74 42.476,-24.26 9.637,1.78 19.812,3.4 30.423,4.82 46.872,6.31 103.133,9.11 161.095,6.92 57.953,-2.19 117.778,-9.38 171.731,-23.13 30.851,-7.86 59.938,-17.91 85.71,-30.49 12.16,14.46 30.39,23.66 50.76,23.66 36.61,0 66.29,-29.68 66.29,-66.29 0,-32.26 -23.04,-59.14 -53.57,-65.069 -4.27,-99.62 -17.91,-173.103 -38.576,-230.582 -16.681,-46.403 -37.879,-82.219 -62.185,-112.829 5.572,-4.679 10.16,-10.492 13.409,-17.084 109.052,47.07 199.982,118.831 256.732,223.841 l 11.44,-6.181 C 1155.88,743.693 1062.15,670.147 950.597,622.19 c 0.742,-3.521 1.133,-7.171 1.133,-10.913 0,-0.457 -0.006,-0.912 -0.018,-1.366 z m 7.81,-46.066 c -5.69,9.729 -8.97,21.038 -9.02,33.109 l -203.765,28.483 c -5.019,-17.916 -19.283,-31.968 -37.323,-36.685 -11.558,-81.51 -37.798,-152.215 -73.978,-212.412 9.295,2.863 18.457,5.888 27.48,9.057 105.75,37.136 192.416,93.96 252.676,141.561 16.75,13.225 31.44,25.728 43.93,36.887 z M 899.078,558.661 C 886.705,474.894 858.461,402.963 819.787,342.469 724.593,315.921 616.162,306.874 499.002,333.498 c -6.739,1.531 -13.507,3.181 -20.305,4.952 0.052,0.878 0.078,1.762 0.078,2.653 0,2.116 -0.149,4.197 -0.436,6.234 67.712,12.188 151.634,36.983 227.532,74.289 71.501,35.144 136.905,81.902 174.323,140.539 5.861,-2.259 12.228,-3.499 18.884,-3.504 z m -30.377,9.675 C 833.151,513.147 770.714,467.983 700.137,433.293 624.823,396.275 541.397,371.759 474.602,359.874 c -0.627,1.334 -1.318,2.63 -2.07,3.887 42.47,48.363 73.947,109.056 86.423,181.146 26.723,0.908 53.433,2.48 79.985,4.794 73.132,6.374 145.255,18.399 213.243,37.762 3.884,-7.639 9.578,-14.203 16.518,-19.127 z m -20.928,31.378 C 781.114,580.8 710.165,568.958 637.811,562.652 c -25.499,-2.222 -51.149,-3.754 -76.82,-4.666 1.011,7.299 1.829,14.711 2.447,22.234 4.917,59.843 0.018,111.995 -12.444,157.229 8.881,7.595 15.12,18.19 17.15,30.214 59.844,-3.032 126.177,-21.327 183.732,-46.127 36.594,-15.768 69.353,-34.046 94.367,-52.424 7.589,-5.575 14.379,-11.098 20.312,-16.5 -12.216,-9.635 -20.057,-24.569 -20.057,-41.335 0,-3.972 0.44,-7.842 1.275,-11.563 z m 30.404,59.849 c -7.119,6.738 -15.28,13.445 -24.237,20.026 -25.976,19.084 -59.637,37.821 -96.919,53.885 -58.247,25.099 -126.036,43.973 -187.929,47.157 80.855,34.647 163.445,76.005 244.237,125.012 53.004,-78.51 81.451,-166.043 89.434,-241.874 -1.206,0.082 -2.423,0.124 -3.649,0.124 -7.441,0 -14.521,-1.544 -20.937,-4.33 z m 37.92,1.529 c -7.588,78.632 -36.689,169.721 -91.665,251.34 50.395,31.074 100.025,65.153 148.027,102.468 12.028,-12.91 29.151,-21.019 48.161,-21.117 -4.31,-97.82 -17.76,-169.395 -37.74,-224.967 -16.313,-45.38 -37.034,-80.248 -60.918,-110.129 -1.894,0.914 -3.852,1.719 -5.865,2.405 z m 48.471,364.138 c -47.83,-37.185 -97.3,-71.138 -147.538,-102.089 -15.957,22.502 -33.939,44.194 -54.039,64.6 -59.291,60.199 -136.877,109.069 -235.005,134.639 -0.193,3.41 -0.733,6.73 -1.584,9.92 8.531,1.53 17.552,2.95 27.006,4.22 46.079,6.2 101.593,8.98 158.87,6.81 57.285,-2.16 116.162,-9.26 169.012,-22.73 29.622,-7.55 57.203,-17.07 81.497,-28.75 -5.165,-9.43 -8.102,-20.26 -8.102,-31.78 0,-12.78 3.617,-24.72 9.883,-34.84 z m -437.59,83.98 c 94.883,-25.17 169.65,-72.62 226.751,-130.591 19.383,-19.679 36.747,-40.587 52.18,-62.272 C 726.52,868.24 645.377,827.558 565.888,793.404 c -4.14,11.564 -12.339,21.198 -22.881,27.183 31.288,114.848 3.967,209.773 -27.467,266.133 5.598,6.26 9.619,13.97 11.438,22.49 z m -21.52,-31.11 c 29.242,-53.64 54.65,-143.512 25.414,-252.569 -4.151,1.092 -8.51,1.673 -13.004,1.673 -2.054,0 -4.079,-0.121 -6.069,-0.357 -29.515,46.61 -69.069,81.932 -113.11,107.937 -36.542,21.577 -76.218,36.771 -115.941,46.71 43.178,42.766 94.081,81.556 154.118,112.106 8.693,-14.01 24.212,-23.34 41.909,-23.34 9.832,0 18.992,2.88 26.683,7.84 z M 471.299,755.414 c -2.841,6.352 -4.421,13.391 -4.421,20.8 0,21.324 13.089,39.59 31.671,47.203 -28.027,42.924 -65.09,75.739 -106.47,100.172 -37.691,22.257 -78.912,37.524 -119.991,47.106 C 176.077,871.231 120.006,752.746 86.9015,666.63 c 5.6515,-3.675 10.7078,-8.188 14.9925,-13.363 100.194,17.601 229.923,49.914 369.405,102.147 z m 68.227,-25.375 c -6.574,-3.089 -13.914,-4.815 -21.658,-4.815 -16.004,0 -30.285,7.372 -39.634,18.906 -138.632,-52.095 -267.821,-84.635 -368.519,-102.675 4.719,-9.115 7.384,-19.464 7.384,-30.436 0,-5.417 -0.649,-10.682 -1.875,-15.722 125.467,-24.356 278.994,-41.923 432.578,-37.726 1.123,7.773 2.02,15.677 2.68,23.713 4.66,56.72 0.279,106.03 -10.956,148.755 z M 110.859,582.903 c 125.923,-24.568 280.194,-42.385 434.823,-38.392 -12.198,-67.595 -41.735,-124.727 -81.519,-170.576 -7.832,7.061 -18.204,11.359 -29.58,11.359 -15.556,0 -29.235,-8.038 -37.11,-20.187 -95.835,38.002 -196.482,101.355 -299.6971,199.131 5.3681,5.389 9.8141,11.696 13.0831,18.665 z M 87.6647,555.911 C 192.139,456.7 294.365,392.105 392.085,353.259 c -1.103,-3.862 -1.693,-7.94 -1.693,-12.156 0,-9.878 3.241,-18.999 8.717,-26.358 -15.843,-11.386 -32.419,-21.506 -49.476,-30.33 -28.325,-14.653 -57.886,-25.692 -87.532,-33.021 -88.521,80.176 -150.195,184.658 -185.1723,298.681 3.7719,1.618 7.3634,3.577 10.736,5.836 z"
     fill="#ffffff"
     id="path232"
     mask="url(#mask467)" />
  <defs
     id="defs290">
    <filter
       id="filter0_d_1_49"
       x="76.7437"
       y="-58.2334"
       width="1223.09"
       height="1347.17"
       filterUnits="userSpaceOnUse"
       color-interpolation-filters="sRGB">
      <feFlood
         flood-opacity="0"
         result="BackgroundImageFix"
         id="feFlood236" />
      <feColorMatrix
         in="SourceAlpha"
         type="matrix"
         values="0 0 0 0 0 0 0 0 0 0 0 0 0 0 0 0 0 0 127 0"
         result="hardAlpha"
         id="feColorMatrix238" />
      <feOffset
         dx="20"
         dy="4"
         id="feOffset240" />
      <feGaussianBlur
         stdDeviation="30"
         id="feGaussianBlur242" />
      <feComposite
         in2="hardAlpha"
         operator="out"
         id="feComposite244" />
      <feColorMatrix
         type="matrix"
         values="0 0 0 0 0 0 0 0 0 0 0 0 0 0 0 0 0 0 0.4 0"
         id="feColorMatrix246" />
      <feBlend
         mode="normal"
         in2="BackgroundImageFix"
         result="effect1_dropShadow_1_49"
         id="feBlend248" />
      <feBlend
         mode="normal"
         in="SourceGraphic"
         in2="effect1_dropShadow_1_49"
         result="shape"
         id="feBlend250" />
    </filter>
    <filter
       id="filter1_d_1_49"
       x="228.015"
       y="-58.2334"
       width="1071.82"
       height="1347.17"
       filterUnits="userSpaceOnUse"
       color-interpolation-filters="sRGB">
      <feFlood
         flood-opacity="0"
         result="BackgroundImageFix"
         id="feFlood253" />
      <feColorMatrix
         in="SourceAlpha"
         type="matrix"
         values="0 0 0 0 0 0 0 0 0 0 0 0 0 0 0 0 0 0 127 0"
         result="hardAlpha"
         id="feColorMatrix255" />
      <feOffset
         dx="20"
         dy="4"
         id="feOffset257" />
      <feGaussianBlur
         stdDeviation="30"
         id="feGaussianBlur259" />
      <feComposite
         in2="hardAlpha"
         operator="out"
         id="feComposite261" />
      <feColorMatrix
         type="matrix"
         values="0 0 0 0 0.0901961 0 0 0 0 0.235294 0 0 0 0 0.443137 0 0 0 0.4 0"
         id="feColorMatrix263" />
      <feBlend
         mode="normal"
         in2="BackgroundImageFix"
         result="effect1_dropShadow_1_49"
         id="feBlend265" />
      <feBlend
         mode="normal"
         in="SourceGraphic"
         in2="effect1_dropShadow_1_49"
         result="shape"
         id="feBlend267" />
    </filter>
    <radialGradient
       id="paint0_radial_1_49"
       cx="0"
       cy="0"
       r="1"
       gradientUnits="userSpaceOnUse"
       gradientTransform="translate(605.844 459.992) rotate(51.2841) scale(1295.92 1249.39)">
      <stop
         stop-color="#1348FF"
         id="stop270" />
      <stop
         offset="1"
         stop-color="#06238D"
         id="stop272" />
    </radialGradient>
    <radialGradient
       id="paint1_radial_1_49"
       cx="0"
       cy="0"
       r="1"
       gradientUnits="userSpaceOnUse"
       gradientTransform="matrix(810.5451,1011.1505,-974.84513,781.44248,605.844,459.992)">
      <stop
         stop-color="#1348FF"
         id="stop275" />
      <stop
         offset="1"
         stop-color="#06238D"
         id="stop277" />
    </radialGradient>
    <radialGradient
       id="paint2_radial_1_49"
       cx="0"
       cy="0"
       r="1"
       gradientUnits="userSpaceOnUse"
       gradientTransform="matrix(1065.4754,1420.8559,-2561.0721,1920.5039,402.926,88.417)">
      <stop
         stop-color="#0195FF"
         id="stop280" />
      <stop
         offset="1"
         stop-color="#1147E9"
         id="stop282" />
    </radialGradient>
    <radialGradient
       id="paint3_radial_1_49"
       cx="0"
       cy="0"
       r="1"
       gradientUnits="userSpaceOnUse"
       gradientTransform="matrix(929.37574,1191.2386,-1608.1078,1254.6071,358.121,279.684)">
      <stop
         stop-color="#00BBFF"
         id="stop285" />
      <stop
         offset="1"
         stop-color="#008BFF"
         id="stop287" />
    </radialGradient>
    <mask
       id="mask1_1_49"
       style="mask-type:alpha"
       maskUnits="userSpaceOnUse"
       x="-8"
       y="-3"
       width="1228"
       height="1228">
      <path
         d="M606.251 1224.93C945.124 1224.93 1219.84 950.224 1219.84 611.351C1219.84 272.478 945.124 -2.2334 606.251 -2.2334C267.378 -2.2334 -7.33293 272.478 -7.33293 611.351C-7.33293 950.224 267.378 1224.93 606.251 1224.93Z"
         fill="url(#paint0_radial_1_49)"
         id="path217" />
    </mask>
    <mask
       maskUnits="userSpaceOnUse"
       id="mask467">
      <g
         id="g471">
        <path
           d="M 1221,610.5 C 1221,947.67 947.67,1221 610.5,1221 273.33,1221 0,947.67 0,610.5 0,273.33 273.33,0 610.5,0 947.67,0 1221,273.33 1221,610.5 Z"
           fill="#ffffff"
           id="path469" />
      </g>
    </mask>
    <mask
       maskUnits="userSpaceOnUse"
       id="mask473">
      <g
         id="g477">
        <path
           d="M 1221,610.5 C 1221,947.67 947.67,1221 610.5,1221 273.33,1221 0,947.67 0,610.5 0,273.33 273.33,0 610.5,0 947.67,0 1221,273.33 1221,610.5 Z"
           fill="#ffffff"
           id="path475" />
      </g>
    </mask>
  </defs>
</svg>
