<?xml version="1.0" encoding="UTF-8"?>
<svg id="a" data-name="Layer 1" xmlns="http://www.w3.org/2000/svg" width="678.31" height="664.28" viewBox="0 0 678.31 664.28">
  <g>
    <rect x="156.92" y="459.64" width="342.15" height="67.11" fill="none"/>
    <path d="M163.29,512.11v-48.47h14.58c3.6,0,6.79.46,9.58,1.37,2.79.91,4.97,2.44,6.55,4.59,1.58,2.15,2.37,5.02,2.37,8.62s-.78,6.39-2.33,8.66c-1.55,2.27-3.71,3.96-6.48,5.07s-5.9,1.67-9.4,1.67h-7.47v18.5h-7.4ZM170.69,487.61h6.73c3.95,0,6.87-.76,8.77-2.29,1.9-1.53,2.85-3.9,2.85-7.1s-1-5.51-3-6.77-4.97-1.89-8.92-1.89h-6.44v18.06Z"/>
    <path d="M205.76,512.11v-48.47h7.4v42.18h20.65v6.29h-28.05Z"/>
    <path d="M235.95,512.11l16.13-48.47h8.51l16.13,48.47h-7.84l-7.92-26.42c-.84-2.66-1.63-5.34-2.37-8.03-.74-2.69-1.48-5.41-2.22-8.18h-.3c-.69,2.76-1.42,5.49-2.18,8.18-.77,2.69-1.57,5.37-2.41,8.03l-7.99,26.42h-7.55ZM244.98,498.2v-5.85h22.57v5.85h-22.57Z"/>
    <path d="M288.71,512.11v-42.18h-14.36v-6.29h36.04v6.29h-14.28v42.18h-7.4Z"/>
    <path d="M318.76,512.11v-48.47h28.64v6.22h-21.24v15.02h18.06v6.29h-18.06v20.94h-7.4Z"/>
    <path d="M373.59,513c-4.14,0-7.8-1.02-10.95-3.07-3.16-2.05-5.64-4.97-7.44-8.77-1.8-3.8-2.7-8.29-2.7-13.47s.9-9.71,2.7-13.43c1.8-3.72,4.28-6.57,7.44-8.55,3.16-1.97,6.81-2.96,10.95-2.96s7.79.99,10.95,2.96c3.16,1.97,5.64,4.82,7.44,8.55s2.7,8.2,2.7,13.43-.9,9.67-2.7,13.47c-1.8,3.8-4.28,6.72-7.44,8.77-3.16,2.05-6.81,3.07-10.95,3.07ZM373.59,506.48c2.71,0,5.07-.76,7.07-2.29,2-1.53,3.55-3.71,4.66-6.55,1.11-2.84,1.67-6.15,1.67-9.95s-.55-7.14-1.67-9.88c-1.11-2.74-2.66-4.86-4.66-6.36-2-1.5-4.35-2.26-7.07-2.26s-5.08.75-7.1,2.26c-2.02,1.51-3.59,3.63-4.7,6.36-1.11,2.74-1.67,6.03-1.67,9.88s.55,7.12,1.67,9.95c1.11,2.84,2.67,5.02,4.7,6.55,2.02,1.53,4.39,2.29,7.1,2.29Z"/>
    <path d="M404.67,512.11v-48.47h15.76c3.35,0,6.34.43,8.95,1.29,2.61.86,4.69,2.33,6.22,4.4,1.53,2.07,2.29,4.84,2.29,8.29s-.77,6.12-2.29,8.29c-1.53,2.17-3.6,3.8-6.22,4.88-2.62,1.08-5.6,1.63-8.95,1.63h-8.36v19.68h-7.4ZM412.07,486.43h7.47c3.6,0,6.34-.73,8.21-2.18,1.87-1.45,2.81-3.66,2.81-6.62s-.94-5.04-2.81-6.25c-1.88-1.21-4.61-1.81-8.21-1.81h-7.47v16.87ZM431.24,512.11l-12.21-21.68,5.55-4.22,14.95,25.9h-8.29Z"/>
    <path d="M447.66,512.11v-48.47h9.1l8.66,24.79c.59,1.58,1.13,3.16,1.63,4.74.49,1.58.96,3.26,1.41,5.03h.3c.49-1.78.97-3.45,1.44-5.03.47-1.58.95-3.16,1.44-4.74l8.73-24.79h9.03v48.47h-6.88v-24.35c0-1.48.05-3.16.15-5.03.1-1.87.23-3.74.41-5.59.17-1.85.36-3.52.55-5h-.3l-3.85,12.06-8.44,23.24h-5.18l-8.44-23.24-3.77-12.06h-.3c.2,1.48.37,3.14.52,5,.15,1.85.27,3.71.37,5.59.1,1.88.15,3.55.15,5.03v24.35h-6.73Z"/>
  </g>
  <g>
    <rect x="209.57" y="514.37" width="228.01" height="69.32" fill="none"/>
    <path d="M242.78,564.36v-46.18h8.67l8.25,23.62c.56,1.5,1.08,3.01,1.55,4.51.47,1.5.92,3.1,1.34,4.79h.28c.47-1.69.93-3.29,1.38-4.79.45-1.5.9-3.01,1.38-4.51l8.32-23.62h8.6v46.18h-6.56v-23.2c0-1.41.05-3.01.14-4.79.09-1.79.22-3.56.39-5.32.16-1.76.34-3.35.53-4.76h-.28l-3.67,11.49-8.04,22.14h-4.93l-8.04-22.14-3.6-11.49h-.28c.19,1.41.35,3,.49,4.76.14,1.76.26,3.54.35,5.32.09,1.79.14,3.38.14,4.79v23.2h-6.42Z"/>
    <path d="M294.67,564.36v-46.18h27.21v5.92h-20.16v13.18h17.06v5.92h-17.06v15.23h20.87v5.92h-27.92Z"/>
    <path d="M345.36,565.2c-3.24,0-6.25-.6-9.02-1.8-2.77-1.2-5.24-2.88-7.4-5.04l3.88-4.58c1.64,1.65,3.58,2.94,5.82,3.88,2.23.94,4.52,1.41,6.87,1.41,2.82,0,4.99-.62,6.52-1.87,1.53-1.24,2.29-2.88,2.29-4.9,0-1.41-.32-2.55-.95-3.42-.63-.87-1.52-1.6-2.64-2.19-1.13-.59-2.4-1.19-3.81-1.8l-6.49-2.82c-1.5-.66-2.97-1.5-4.41-2.54-1.43-1.03-2.62-2.33-3.56-3.88-.94-1.55-1.41-3.46-1.41-5.71,0-2.4.65-4.55,1.94-6.45,1.29-1.9,3.07-3.41,5.32-4.51,2.26-1.1,4.86-1.66,7.83-1.66,2.77,0,5.36.52,7.76,1.55,2.4,1.03,4.44,2.4,6.13,4.09l-3.74,4.58c-1.46-1.27-3.04-2.27-4.76-3-1.72-.73-3.51-1.09-5.39-1.09-2.4,0-4.32.54-5.78,1.62-1.46,1.08-2.19,2.56-2.19,4.44,0,1.36.36,2.47,1.09,3.31.73.85,1.68,1.55,2.86,2.12,1.17.56,2.37,1.13,3.6,1.69l6.42,2.75c1.83.75,3.46,1.66,4.86,2.71,1.41,1.06,2.51,2.36,3.31,3.91.8,1.55,1.2,3.46,1.2,5.71,0,2.49-.63,4.76-1.9,6.8-1.27,2.04-3.11,3.67-5.54,4.86-2.42,1.2-5.32,1.8-8.71,1.8Z"/>
    <path d="M370.18,564.36v-46.18h7.05v18.97h20.09v-18.97h7.05v46.18h-7.05v-21.08h-20.09v21.08h-7.05Z"/>
  </g>
  <g>
    <path d="M389.21,195.06c7.64,13.21,13.29,27.89,16.88,43.94.88,3.95,1.6,7.88,2.15,11.79,4.49,1.35,8.04,4.86,9.45,9.33,21.39-3.11,44.78-6.18,54.75-7.47.12-3.24,1.1-6.26,2.73-8.84-10.21-8.76-24.32-19.03-40.61-28.35-12.13-6.94-27.77-14.65-45.34-20.4Z" fill="#009dff"/>
    <path d="M270.42,126.87c-6.31-.47-12.49-.5-18.36-.07-7.47.55-14.23,1.83-19.89,3.72-.25.17-.5.35-.74.52,10.94-2.78,22.4-4.26,34.21-4.26,1.6,0,3.2.03,4.79.08Z" fill="#0582fa"/>
    <path d="M278.6,403.65c-.03-.11-.05-.23-.07-.34-4.24.39-8.54.59-12.89.59-9.77,0-19.31-1.01-28.51-2.94.81.53,1.62,1.06,2.44,1.57,12.23,2.5,25.39,2.88,39.03,1.11Z" fill="#0582fa"/>
    <path d="M333.01,126.9c5.46.71,12.48,1.87,20.61,3.78,17.77,4.18,44.26,12.89,69.53,30.66,19.4,13.64,35.35,30.23,47.4,49.3,6.15,9.73,10.4,18.82,13.05,26.14,1.4-.56,2.9-.95,4.45-1.13-6.77-38.74-27.17-72.8-56.07-97.05-13.3-4.48-33.07-9.03-55.19-11.15-12.38-1.19-27.58-1.81-43.78-.56Z" fill="#009dff"/>
    <path d="M299.16,127.81c1.58-6.87,7.72-12,15.07-12,5.69,0,10.66,3.08,13.35,7.66,18.38-1.85,35.72-1.22,49.59.11,14.06,1.35,28.35,3.79,41.32,7.05,1.71.43,3.39.87,5.03,1.33-27.09-19.86-60.51-31.59-96.68-31.59-31.09,0-60.16,8.67-84.91,23.73,3.11-.53,6.4-.93,9.85-1.19,14.77-1.08,31.38.65,47.38,4.9Z" fill="#009dff"/>
    <path d="M364.11,362.81c5.74-5.42,10.97-11.24,15.63-17.36-.24-.14-.49-.29-.73-.43-4.47,6.34-9.45,12.3-14.9,17.8Z" fill="#0582fa"/>
    <path d="M410.48,277.06c-.37.18-.74.35-1.13.5-.76,12.49-3.33,24.67-7.73,36.44-3.96,10.61-9.44,20.81-16.22,30.34,15.56,9.5,28.47,19,38.56,28.36,3.17-3.47,7.7-5.68,12.74-5.78-.62-11.46-2.3-29.12-6.83-47.05-4.66-18.46-11.18-32.83-19.39-42.8Z" fill="#009dff"/>
    <path d="M404.15,250.18s.04,0,.06,0c-.51-3.43-1.15-6.87-1.92-10.34-1.18-5.26-2.58-10.38-4.21-15.33,2.54,8.26,4.33,16.85,5.3,25.69.26-.01.52-.02.78-.02Z" fill="#0582fa"/>
    <path d="M403.57,278.54c-2.2,23.24-10.13,44.81-22.37,63.28,0,0,0,0,0,0,.28.17.56.34.84.5,6.67-9.32,12.05-19.3,15.92-29.68,4.12-11.04,6.59-22.44,7.41-34.14-.4.03-.81.06-1.22.06-.2,0-.39,0-.58-.01Z" fill="#0582fa"/>
    <path d="M350.06,411.28c-6.18,0-12.32-.32-18.42-.95-9.41-.98-18.7-2.71-27.83-5.19-1.81,5.1-6.67,8.75-12.39,8.75-4.84,0-9.07-2.62-11.35-6.51-6.12.84-12.16,1.26-18.08,1.26-4.49,0-8.91-.24-13.24-.72,23.21,12.62,49.81,19.8,78.08,19.8,35.89,0,69.08-11.55,96.06-31.14-8.39,3.58-22.15,8.55-39.71,11.72-11.05,1.99-22.13,2.99-33.12,2.99Z" fill="#009dff"/>
    <path d="M447.88,288.36c-10.23-7.65-20.82-13.54-31.18-17.37-.77,1.46-1.78,2.76-2.99,3.86,8.48,10.41,15.18,25.2,19.95,44.06,4.68,18.53,6.37,36.74,6.97,48.36,3.51.71,6.65,2.46,9.08,4.91,12.99-14.75,23.37-31.87,30.41-50.62-8.17-11.97-19.53-23.69-32.24-33.2Z" fill="#009dff"/>
    <path d="M490.18,271.06c-8.7,0-15.94-6.26-17.47-14.52-10.06,1.3-33.2,4.34-54.39,7.42,0,.13.01.27.01.41,0,1.01-.11,2-.31,2.95,10.73,3.97,21.66,10.03,32.19,17.92,12.23,9.15,23.26,20.31,31.51,31.82,4.97-14.52,7.95-29.96,8.63-46-.06,0-.12,0-.17,0Z" fill="#009dff"/>
    <path d="M327.89,138.52c14.31,6.99,27.28,16.06,38.27,26.82,7.62,7.47,14.29,15.7,19.99,24.67,19.61,5.94,37.05,14.47,50.34,22.06,16.42,9.39,30.69,19.78,41.1,28.69.77-.78,1.62-1.48,2.53-2.11-2.23-6.31-6.13-15.27-12.86-25.92-11.61-18.37-27.63-35.04-46.34-48.2-24.72-17.39-50.66-25.93-68.07-30.03-9.46-2.23-17.49-3.43-23.17-4.07.01.28.02.56.02.84,0,2.62-.65,5.08-1.8,7.24Z" fill="#009dff"/>
    <path d="M361.75,370.2c-16.15,13.93-35.75,24.83-56.17,31.38,8.66,2.31,17.47,3.94,26.38,4.87,16.55,1.73,33.51,1.06,50.4-1.97,16.15-2.9,29.97-7.66,39.03-11.49-1.32-2.48-2.06-5.31-2.06-8.31,0-3.2.85-6.2,2.33-8.8-10.07-9.4-23.07-18.96-38.55-28.4-6.17,8.17-13.33,15.81-21.35,22.72Z" fill="#009dff"/>
    <path d="M342.01,186.4c-17.02-.44-33.87,1.46-50.43,5.67,0,.41-.03.81-.07,1.2,12.56,1.78,32.74,7.35,53.7,16.93,31.55,14.42,46.89,29.49,54.36,40.74,1.2-.41,2.48-.67,3.81-.74-.96-8.84-2.75-17.43-5.3-25.69-3.68-11.21-8.51-21.62-14.45-31.19-13.14-3.88-27.22-6.54-41.61-6.91Z" fill="#0582fa"/>
    <path d="M396.06,252.72c-4.63-6.87-11.3-13.61-19.9-20.07-9.05-6.8-20.01-13.16-32.57-18.9-20.12-9.19-40.69-15-53.16-16.69-.06.13-.13.26-.2.39,2.28,2.56,4.42,5.22,6.41,7.99,8.69,12.11,14.36,26.02,16.91,41.4,25.33.88,53,4,77.72,11.6,1.06-2.31,2.73-4.28,4.79-5.72Z" fill="#0582fa"/>
    <path d="M398.51,277.38c-7.64,7.42-21.27,15.56-37.13,22.05-16.58,6.78-32.28,10.43-44.39,10.43-.1,0-.19,0-.29,0,0,.01,0,.02,0,.03,23.76,9.95,45.98,20.93,64.5,31.91,12.24-18.47,20.18-40.03,22.37-63.28-1.79-.07-3.5-.48-5.06-1.16Z" fill="#0582fa"/>
    <path d="M219.8,161.86c4.26.47,8.52,1.21,12.75,2.19,13.68-12.26,29.25-22,46.35-28.99,4.53-1.85,9.12-3.45,13.75-4.84-7.42-1.68-14.92-2.81-22.22-3.35-1.59-.05-3.18-.08-4.79-.08-11.81,0-23.27,1.48-34.21,4.26-12.2,8.77-23.13,19.17-32.5,30.89,6.3-.86,13.38-.9,20.87-.07Z" fill="#0582fa"/>
    <path d="M233.06,168.86c5.58,1.09,10.98,2.65,16.18,4.63-5.09-2.1-10.32-3.83-15.61-5.16-.19.18-.38.35-.57.53Z" fill="#1140e5"/>
    <path d="M315.97,313.83c-1.2,3.57-3.78,6.51-7.12,8.17,3.1,9.05,4.45,20.43,3.72,32.17-.88,14.35-4.75,27.85-10.93,38.32,1.25,1.55,2.16,3.39,2.61,5.41,19.98-6.38,39.15-17.03,54.95-30.66,1.68-1.45,3.31-2.92,4.91-4.43,5.44-5.5,10.43-11.45,14.9-17.8-18.07-10.7-39.3-21.23-63.04-31.19Z" fill="#0582fa"/>
    <path d="M272.91,182.04c1.92-1.31,4.23-2.07,6.72-2.07,5.3,0,9.79,3.45,11.35,8.23,16.79-4.23,33.86-6.13,51.12-5.69,13.19.34,26.09,2.55,38.27,5.85-4.97-7.27-10.62-14.02-16.95-20.22-10.84-10.62-23.67-19.54-37.82-26.38-2.83,3.07-6.88,5-11.38,5-8.12,0-14.77-6.26-15.41-14.21-6.21,1.64-12.39,3.67-18.44,6.14-15.86,6.48-30.37,15.39-43.24,26.54,8.94,2.47,17.68,6.03,25.84,10.59,3.47,1.93,6.78,4.02,9.93,6.24Z" fill="#0582fa"/>
    <path d="M251.31,356.4c11.64-4.57,22.21-11.21,30.98-19.5,4.95-4.68,9.3-9.83,13.01-15.38-.11-.07-.22-.13-.33-.2-10.78,15.55-25.93,27.83-43.67,35.08Z" fill="#1140e5"/>
    <path d="M278.52,403.31c-.16-.83-.25-1.68-.25-2.55,0-1.53.26-2.99.74-4.36-2.89-1.26-5.75-2.6-8.59-4.02-12.35-6.18-24.29-15.18-35.49-26.75-.09-.1-.18-.19-.28-.29-7.44,1.49-15.13,2.25-22.91,2.25-4.04,0-8.1-.21-12.16-.61,10.67,13.17,23.34,24.66,37.55,33.99,9.2,1.92,18.73,2.94,28.51,2.94,4.35,0,8.64-.2,12.89-.59Z" fill="#0582fa"/>
    <path d="M213.36,363.67c-6.05-.05-11.97-.64-17.71-1.73.18.24.37.48.55.72,5.73.76,11.47,1.1,17.16,1.02Z" fill="#1140e5"/>
    <path d="M291.42,387.61c2.69,0,5.19.81,7.28,2.2,11.57-20.14,12.61-48.62,6.46-66.56-.85.16-1.73.25-2.63.25-1.22,0-2.41-.15-3.54-.44-3.97,6.03-8.65,11.62-14.01,16.69-11.53,10.9-26.04,19.05-41.98,23.59-1.26.36-2.54.7-3.82,1.01,9.45,9.53,20.46,18.29,32.99,24.55,2.87,1.43,5.76,2.78,8.68,4.05,2.39-3.23,6.24-5.33,10.57-5.33Z" fill="#0582fa"/>
    <path d="M228.25,168.04c.14-.14.28-.28.42-.41.12-.12.25-.23.37-.35-3.22-.66-6.45-1.18-9.68-1.54-8.88-.99-17.09-.71-23.97.75-.67.91-1.34,1.82-1.99,2.74,6.68-1.43,13.62-2.2,20.73-2.2,4.79,0,9.51.35,14.12,1.01Z" fill="#1140e5"/>
    <path d="M316.31,305.97c11.65.16,27.11-3.41,43.59-10.14,14.75-6.03,27.79-13.72,35.17-20.56-3.12-2.6-5.1-6.52-5.1-10.89,0-.75.06-1.48.17-2.19-24.12-7.41-51.17-10.5-76.02-11.41.1.77.19,1.54.28,2.32,1.72,15.84.43,30.91-3.67,44.65,2.75,1.95,4.77,4.86,5.58,8.23Z" fill="#0582fa"/>
    <path d="M302.52,295.12c1.64,0,3.2.28,4.67.79,3.79-13.07,4.96-27.37,3.33-42.4-.1-.96-.22-1.91-.35-2.86-13.34-.37-25.96-.13-37.02.39-33.97,1.57-63.94,6.18-79.11,9.76.26,1.2.4,2.45.4,3.74,0,3.1-.8,6.01-2.21,8.54,25.83,3.25,62.53,13.23,99.54,27.01,2.6-3.02,6.45-4.94,10.75-4.94Z" fill="#1140e5"/>
    <path d="M234.89,211.65c10.93-6.48,22.05-11.89,33.32-16.22-.34-1.11-.53-2.29-.53-3.51,0-2.67.87-5.13,2.35-7.12-2.86-1.98-5.84-3.85-8.96-5.59-3.83-2.13-7.78-4.04-11.83-5.71-5.2-1.99-10.6-3.55-16.18-4.63-.55.51-1.09,1.02-1.63,1.53-11.39,10.89-21.39,23.66-29.71,37.98-10.01,17.22-15.17,32.59-17.35,40.23.67.32,1.32.68,1.94,1.08,10.31-10.53,26.59-24.99,48.57-38.03Z" fill="#1140e5"/>
    <path d="M309.56,246.72c-2.51-14.49-7.91-27.59-16.1-39.01-1.76-2.46-3.65-4.82-5.65-7.1-2.14,2.01-5.02,3.25-8.19,3.25-3.97,0-7.49-1.94-9.67-4.93-11.2,4.28-22.24,9.63-33.09,16.07-21.44,12.72-37.36,26.8-47.51,37.14,1.4,1.42,2.57,3.09,3.42,4.92,14.68-3.51,44.14-8.28,80.18-9.94,10.95-.51,23.41-.75,36.6-.41Z" fill="#1140e5"/>
    <path d="M251.31,356.4c17.74-7.25,32.89-19.54,43.67-35.08-3.99-2.51-6.64-6.95-6.64-12.01,0-2.1.46-4.09,1.28-5.89-37.54-13.92-74.6-23.88-100.04-26.76-.65.68-1.35,1.31-2.1,1.89,4.57,13.63,13.01,32.55,24.12,50.4,6.12,9.82,14.29,21.33,24.42,32.11,1.99-.44,3.96-.94,5.91-1.49,3.19-.91,6.32-1.97,9.38-3.17Z" fill="#1140e5"/>
    <path d="M176.82,246.9c1.32,0,2.61.15,3.84.43,2.25-7.88,7.44-23.25,17.62-40.79,8.4-14.47,18.48-27.42,29.97-38.49-4.61-.66-9.32-1.01-14.12-1.01-7.11,0-14.05.76-20.73,2.2-17.03,23.93-27.78,52.63-29.87,83.71,3.23-3.7,7.98-6.04,13.28-6.04Z" fill="#1140e5"/>
    <path d="M231.49,361.97c-8.22-9-16.01-19.39-23.21-30.95-11.05-17.76-19.51-36.6-24.24-50.42-2.21.99-4.65,1.55-7.23,1.55-5.26,0-9.97-2.3-13.2-5.96,2.35,32.02,13.9,61.49,32.04,85.75,5.74,1.09,11.66,1.69,17.71,1.73,6.14-.08,12.21-.65,18.13-1.7Z" fill="#1140e5"/>
    <path d="M316.69,309.9s0-.02,0-.03c-.03,0-.06,0-.08,0,.03.01.06.02.08.03Z" fill="#fff"/>
    <path d="M241.93,359.57c-1.95.55-3.92,1.05-5.91,1.49.04.05.09.09.13.14,5.23-1.2,10.29-2.81,15.16-4.8-3.06,1.2-6.19,2.26-9.38,3.17Z" fill="#1140e5"/>
    <path d="M213.36,363.67c.26,0,.52,0,.78,0,5.97,0,11.82-.53,17.5-1.55-.05-.05-.1-.1-.15-.16-5.92,1.05-12,1.62-18.13,1.7Z" fill="#1140e5"/>
  </g>
</svg>
