<?xml version="1.0" encoding="UTF-8"?>
<svg id="a" data-name="Layer 1" xmlns="http://www.w3.org/2000/svg" viewBox="0 0 1040.03 147.87">
  <path d="M199.07,30.71c-12.33,0-23.33,5.59-30.74,14.26-.68-.87-1.44-1.64-2.21-2.4-2.31-2.31-4.92-4.33-7.62-5.97-6.36-3.86-13.69-5.78-20.91-5.88h0c-10.31,0-20.72,3.95-28.53,11.85-7.9,7.9-11.85,18.21-11.85,28.53,0,7.22,1.93,14.56,5.78,20.91,1.64,2.7,3.67,5.3,5.97,7.62,2.31,2.31,4.92,4.33,7.62,5.97,15.52,9.45,36.14,7.43,49.54-5.97.77-.77,1.55-1.64,2.21-2.4,7.43,8.68,18.41,14.26,30.74,14.26,22.27,0,40.38-18.12,40.38-40.38s-18.12-40.38-40.38-40.38h0v-.02ZM116.39,71.09c0-5.39,2.02-10.79,6.17-14.94,4.14-4.14,9.54-6.17,14.94-6.17h0c2.21,0,4.44.38,6.56,1.06l-16.67,16.67-9.93,9.93c-.68-2.12-1.06-4.33-1.06-6.56h-.01ZM152.52,86.03c-5.78,5.78-14.16,7.52-21.49,5.2l10.31-10.31,16.28-16.28,1.93-1.93c-.58,2.7-.87,5.59-.87,8.49,0,5.39-2.02,10.79-6.17,14.94v-.1ZM199.07,92.29c-11.66,0-21.21-9.45-21.21-21.21s9.45-21.21,21.21-21.21,21.21,9.45,21.21,21.21-9.45,21.21-21.21,21.21Z" fill="#333"/>
  <polygon points="65.69 64.25 25.98 2.66 2.85 2.66 2.85 110.8 25.98 110.8 25.98 43.15 69.26 110.8 88.92 110.8 88.92 2.66 65.69 2.66 65.69 64.25" fill="#333"/>
  <polygon points="315.7 64.25 275.98 2.66 252.85 2.66 252.85 110.8 275.98 110.8 275.98 43.15 319.26 110.8 338.82 110.8 338.82 2.66 315.7 2.66 315.7 64.25" fill="#0f6bff"/>
  <path d="M407.54,36.87c-5.78-3.57-12.44-5.3-19.85-5.3s-14.75,1.74-20.82,5.2c-6.07,3.46-10.79,8.28-14.16,14.36-3.37,6.07-5.11,12.91-5.11,20.34s1.74,14.26,5.2,20.34c3.46,6.07,8.28,10.89,14.56,14.36,6.26,3.46,13.5,5.2,21.78,5.2s13.78-1.35,19.38-4.14c5.59-2.7,10.21-6.65,13.78-11.85l-16.39-9.74c-1.74,2.21-4.05,4.05-7.03,5.3-2.99,1.35-6.07,2.02-9.15,2.02-5.2,0-9.34-1.15-12.63-3.37-3.27-2.31-5.78-5.78-7.71-10.41h56.28c.38-2.31.58-4.92.58-7.71,0-7.43-1.64-14.16-4.82-20.23-3.27-6.07-7.81-10.89-13.59-14.46l-.29.1ZM368.8,62.42c.19-3.37,2.12-6.17,5.78-8.58,3.67-2.4,8-3.57,12.91-3.57s8.77,1.06,12.04,3.18c3.27,2.12,5.3,5.11,5.97,8.96h-36.81.11Z" fill="#0f6bff"/>
  <path d="M502.47,36.78c-5.78-3.46-12.72-5.2-20.82-5.2s-8.28.68-12.24,2.12c-3.95,1.35-7.62,3.37-11.08,5.97v-5.97h-22.07v108.14h22.07v-36.62c3.37,2.61,7.13,4.53,11.08,5.97,4.05,1.35,8.09,2.12,12.24,2.12,8,0,14.94-1.74,20.82-5.3,5.78-3.57,10.31-8.39,13.4-14.56,3.08-6.17,4.63-13.2,4.63-21.01s-1.55-14.84-4.63-20.91c-3.08-6.17-7.52-10.99-13.4-14.46v-.29h0ZM492.83,86.31c-3.67,3.57-8.39,5.3-14.16,5.3s-10.7-1.74-14.56-5.3c-3.86-3.57-5.78-8.19-5.78-13.97s1.93-10.51,5.88-14.16c3.95-3.67,8.77-5.59,14.56-5.59s10.51,1.83,14.16,5.39c3.67,3.57,5.5,8.39,5.5,14.16s-1.83,10.6-5.5,14.16h-.1Z" fill="#0f6bff"/>
  <path d="M583.04,34.85c-4.63-1.93-9.06-2.89-13.5-2.89-6.56,0-12.72,2.4-18.41,7.13V2.66h-22.07v108.14h22.07v-47.23c.58-4.24,2.12-7.32,4.44-9.34,2.4-2.02,5.11-2.99,8.39-2.99s7.13,1.06,9.93,3.27c2.8,2.21,4.14,5.78,4.14,10.7v45.58h22.07v-46.17c-.1-8.19-1.83-14.75-5.2-19.66-3.37-4.82-7.32-8.19-11.85-10.12h-.01Z" fill="#0f6bff"/>
  <path d="M668.63,36.87c-6.07-3.57-12.72-5.39-19.85-5.39s-13.97,1.83-20.04,5.39c-6.07,3.57-10.99,8.39-14.56,14.56-3.57,6.07-5.39,12.82-5.39,20.04s1.83,13.78,5.39,19.95c3.57,6.17,8.39,10.99,14.56,14.56,6.07,3.57,12.82,5.39,20.04,5.39s13.78-1.83,19.85-5.39c6.07-3.57,10.89-8.49,14.56-14.56,3.57-6.17,5.39-12.82,5.39-19.95s-1.83-13.97-5.39-20.04c-3.57-6.07-8.39-10.89-14.56-14.56ZM661.6,84.39c-3.67,3.57-8,5.39-13.01,5.39s-9.34-1.83-12.91-5.39c-3.57-3.57-5.39-7.9-5.39-12.91s1.83-9.34,5.39-13.01c3.57-3.67,7.9-5.39,12.91-5.39s9.34,1.83,13.01,5.39c3.67,3.67,5.39,8,5.39,13.01s-1.83,9.34-5.39,12.91Z" fill="#0f6bff"/>
  <path d="M759.89,72.72c-2.99-3.37-6.46-5.78-10.31-7.22-3.95-1.44-8.87-2.8-14.84-4.05-4.63-.87-8-1.83-10.12-2.61-2.12-.87-3.18-2.12-3.18-3.86s.87-3.46,2.61-4.63c1.74-1.15,4.05-1.74,6.94-1.74s5.97.58,8.09,1.83c2.02,1.25,3.67,3.08,4.92,5.59l17.54-8.58c-2.99-5.11-7.22-9.06-12.53-11.76-5.3-2.7-11.38-4.05-18.02-4.05s-10.89.96-15.61,2.89c-4.82,1.93-8.58,4.72-11.38,8.39-2.8,3.67-4.24,8-4.24,12.91s1.44,9.25,4.24,12.33c2.8,3.08,6.17,5.3,10.12,6.84,3.95,1.44,8.87,2.89,14.65,4.14,5.11,1.15,8.87,2.21,11.27,3.18,2.4.96,3.57,2.51,3.57,4.53s-1.25,4.14-3.86,5.39c-2.61,1.25-5.59,1.93-8.96,1.93-8.39,0-13.78-3.18-16.19-9.64l-17.73,9.06c2.89,5.88,7.22,10.21,13.01,13.2,5.78,2.99,12.72,4.44,20.91,4.44s11.47-.96,16.67-2.8c5.11-1.83,9.25-4.63,12.44-8.28,3.08-3.67,4.72-8.09,4.72-13.2s-1.44-10.6-4.44-13.97l-.29-.29v.03Z" fill="#0f6bff"/>
  <g>
    <rect x="765.19" y="2.41" width="354.56" height="130.39" fill="none"/>
    <path d="M773.56,99.75c0-4.24,1.14-7.46,3.41-9.69,2.27-2.22,5.48-3.33,9.61-3.33s7.44,1.11,9.61,3.33c2.17,2.22,3.25,5.45,3.25,9.69s-1.08,7.49-3.25,9.77-5.37,3.41-9.61,3.41-7.34-1.14-9.61-3.41c-2.27-2.27-3.41-5.53-3.41-9.77Z" fill="#333"/>
    <path d="M844.86,113.23c-5.68,0-11-1.06-15.96-3.18-4.96-2.12-9.3-5.04-13.02-8.76s-6.67-8.06-8.83-13.02-3.25-10.28-3.25-15.96,1.08-11,3.25-15.96,5.11-9.3,8.83-13.02,8.06-6.64,13.02-8.76c4.96-2.12,10.28-3.18,15.96-3.18s10.85,1.06,15.81,3.18c4.96,2.12,9.3,5.04,13.02,8.76s6.67,8.06,8.83,13.02,3.25,10.28,3.25,15.96-1.08,11-3.25,15.96-5.11,9.3-8.83,13.02-8.06,6.64-13.02,8.76c-4.96,2.12-10.23,3.18-15.81,3.18ZM844.71,88.28c2.17,0,4.24-.41,6.2-1.24,1.96-.83,3.69-1.96,5.19-3.41,1.5-1.45,2.66-3.15,3.49-5.12.83-1.96,1.24-4.03,1.24-6.2s-.42-4.24-1.24-6.2c-.83-1.96-1.99-3.67-3.49-5.12-1.5-1.45-3.23-2.58-5.19-3.41-1.96-.83-4.03-1.24-6.2-1.24s-4.24.41-6.2,1.24c-1.96.83-3.67,1.96-5.12,3.41-1.45,1.45-2.58,3.15-3.41,5.12-.83,1.96-1.24,4.03-1.24,6.2s.41,4.24,1.24,6.2c.83,1.96,1.96,3.67,3.41,5.12,1.45,1.45,3.15,2.58,5.12,3.41,1.96.83,4.03,1.24,6.2,1.24Z" fill="#333"/>
    <path d="M944.52,57.12c-1.14-.41-2.43-.62-3.88-.62-3.2,0-6.07.46-8.6,1.39-2.53.93-4.7,2.2-6.51,3.8-1.81,1.6-3.2,3.49-4.18,5.66-.98,2.17-1.47,4.5-1.47,6.97v36.58h-24.96V33.41h24.96v13.79c1.76-3.62,4.62-6.82,8.6-9.61,3.98-2.79,9.12-4.19,15.42-4.19h2.17l-1.55,23.71Z" fill="#333"/>
    <path d="M1009.93,107.03c-2.27,1.86-4.88,3.36-7.83,4.5-2.94,1.14-6.23,1.71-9.84,1.71-6.2,0-11.76-1.03-16.66-3.1-4.91-2.07-9.07-4.91-12.48-8.53-3.41-3.62-6.02-7.93-7.83-12.94-1.81-5.01-2.71-10.46-2.71-16.35s.9-11.37,2.71-16.43c1.81-5.06,4.42-9.4,7.83-13.02,3.41-3.62,7.57-6.46,12.48-8.52,4.91-2.07,10.46-3.1,16.66-3.1,3.62,0,6.9.54,9.84,1.63,2.95,1.08,5.55,2.61,7.83,4.57v-4.03h24.96v73.62c0,5.48-1.11,10.49-3.33,15.04-2.22,4.55-5.3,8.45-9.22,11.7-3.93,3.26-8.6,5.79-14.03,7.6-5.42,1.81-11.34,2.71-17.75,2.71-4.55,0-8.97-.46-13.25-1.39-4.29-.93-8.24-2.22-11.86-3.88-3.62-1.65-6.82-3.64-9.61-5.97-2.79-2.33-4.96-4.83-6.51-7.52l21.39-12.4c1.24,2.27,3.72,4.18,7.44,5.73s8.06,2.33,13.02,2.33c5.37,0,9.84-1.29,13.41-3.88,3.57-2.58,5.35-5.94,5.35-10.08ZM992.88,89.98c5.17,0,9.3-1.68,12.4-5.04,3.1-3.36,4.65-7.67,4.65-12.94s-1.55-9.48-4.65-12.63c-3.1-3.15-7.23-4.73-12.4-4.73-2.27,0-4.39.46-6.36,1.39-1.96.93-3.64,2.2-5.04,3.8-1.4,1.6-2.48,3.49-3.25,5.66-.78,2.17-1.16,4.44-1.16,6.82s.39,4.78,1.16,6.9c.77,2.12,1.86,3.98,3.25,5.58,1.39,1.6,3.07,2.87,5.04,3.8,1.96.93,4.08,1.39,6.36,1.39Z" fill="#333"/>
  </g>
</svg>
