<svg width="116" height="112" viewBox="0 0 116 112" fill="none" xmlns="http://www.w3.org/2000/svg">
<rect width="116" height="112" fill="white"/>
<path fill-rule="evenodd" clip-rule="evenodd" d="M55.3669 37.4032C55.4872 36.5443 55.5494 35.6668 55.5494 34.7747C55.5494 34.7504 55.5494 34.7261 55.5493 34.7018H60.5239C60.5238 34.7261 60.5238 34.7504 60.5238 34.7747C60.5238 35.6668 60.586 36.5443 60.7063 37.4032H55.3669ZM39.5149 53.3509V37.4032H55.3669C54.2141 45.6316 47.7278 52.1499 39.5149 53.3509ZM39.5149 58.7228V53.3509C38.6328 53.4799 37.7309 53.5475 36.8135 53.5494V37.4032V34.7018H39.5149H55.5493C55.51 24.3663 47.1194 16 36.7747 16C26.4057 16 18 24.4057 18 34.7747C18 45.1437 26.4057 53.5494 36.7747 53.5494C36.7876 53.5494 36.8006 53.5494 36.8135 53.5494V58.5244C36.8006 58.5243 36.7876 58.5243 36.7747 58.5243C26.4057 58.5243 18 66.93 18 77.299C18 87.668 26.4057 96.0737 36.7747 96.0737C47.1437 96.0737 55.5494 87.668 55.5494 77.299C55.5494 77.2747 55.5494 77.2504 55.5493 77.2261H76.6365H79.3379V74.5247V53.5494C89.6887 53.5281 98.0732 45.1306 98.0732 34.7747C98.0732 24.4057 89.6675 16 79.2985 16C68.9538 16 60.5632 24.3663 60.5239 34.7018H76.6365H79.3379V37.4032V53.5494C79.3247 53.5494 79.3116 53.5494 79.2985 53.5494C78.3948 53.5494 77.506 53.4856 76.6365 53.3621V37.4032H60.7063C61.8627 45.6577 68.3866 52.1912 76.6365 53.3621V74.5247H55.3459C54.1373 66.3652 47.6792 59.9167 39.5149 58.7228ZM55.3459 74.5247C55.4765 75.4067 55.5458 76.3087 55.5493 77.2261H39.5149H36.8135V74.5247V58.5244C37.7309 58.5262 38.6328 58.5939 39.5149 58.7228V74.5247H55.3459Z" fill="black"/>
<path fill-rule="evenodd" clip-rule="evenodd" d="M79.2981 90.6525C86.6833 90.6525 92.6701 84.6657 92.6701 77.2806C92.6701 69.8955 86.6833 63.9087 79.2981 63.9087C71.913 63.9087 65.9262 69.8955 65.9262 77.2806C65.9262 84.6657 71.913 90.6525 79.2981 90.6525ZM79.2981 96.0553C89.6671 96.0553 98.0729 87.6496 98.0729 77.2806C98.0729 66.9116 89.6671 58.5059 79.2981 58.5059C68.9292 58.5059 60.5234 66.9116 60.5234 77.2806C60.5234 87.6496 68.9292 96.0553 79.2981 96.0553Z" fill="black"/>
<path fill-rule="evenodd" clip-rule="evenodd" d="M97.3917 87.2305L105.994 95.9911L98.6334 103.301L90.0312 94.5403L97.3917 87.2305Z" fill="black"/>
<path fill-rule="evenodd" clip-rule="evenodd" d="M88.5317 74.5765C87.737 75.1996 86.7326 75.566 85.6444 75.5528C83.1078 75.5222 81.0763 73.4411 81.1069 70.9046C81.1196 69.8548 81.4835 68.8915 82.0855 68.1251C81.2471 67.8741 80.3601 67.7344 79.4414 67.7233C74.1365 67.6593 69.784 71.908 69.72 77.2129C69.656 82.5179 73.9046 86.8703 79.2096 86.9344C84.5146 86.9984 88.867 82.7497 88.931 77.4448C88.9431 76.4477 88.8027 75.4842 88.5317 74.5765Z" fill="black"/>
</svg>
