<svg width="292" height="223" viewBox="0 0 292 223" fill="none" xmlns="http://www.w3.org/2000/svg">
<rect width="292" height="223" fill="white"/>
<path fill-rule="evenodd" clip-rule="evenodd" d="M143.367 45.4032C143.487 44.5443 143.549 43.6668 143.549 42.7747C143.549 42.7504 143.549 42.7261 143.549 42.7018H148.524C148.524 42.7261 148.524 42.7504 148.524 42.7747C148.524 43.6668 148.586 44.5443 148.706 45.4032H143.367ZM127.515 61.3509V45.4032H143.367C142.214 53.6316 135.728 60.1499 127.515 61.3509ZM127.515 66.7228V61.3509C126.633 61.4799 125.731 61.5475 124.813 61.5494V45.4032V42.7018H127.515H143.549C143.51 32.3663 135.119 24 124.775 24C114.406 24 106 32.4057 106 42.7747C106 53.1437 114.406 61.5494 124.775 61.5494C124.788 61.5494 124.801 61.5494 124.813 61.5494V66.5244C124.801 66.5243 124.788 66.5243 124.775 66.5243C114.406 66.5243 106 74.93 106 85.299C106 95.668 114.406 104.074 124.775 104.074C135.144 104.074 143.549 95.668 143.549 85.299C143.549 85.2747 143.549 85.2504 143.549 85.2261H164.636H167.338V82.5247V61.5494C177.689 61.5281 186.073 53.1306 186.073 42.7747C186.073 32.4057 177.667 24 167.298 24C156.954 24 148.563 32.3663 148.524 42.7018H164.636H167.338V45.4032V61.5494C167.325 61.5494 167.312 61.5494 167.298 61.5494C166.395 61.5494 165.506 61.4856 164.636 61.3621V45.4032H148.706C149.863 53.6577 156.387 60.1912 164.636 61.3621V82.5247H143.346C142.137 74.3652 135.679 67.9167 127.515 66.7228ZM143.346 82.5247C143.476 83.4067 143.546 84.3087 143.549 85.2261H127.515H124.813V82.5247V66.5244C125.731 66.5262 126.633 66.5939 127.515 66.7228V82.5247H143.346Z" fill="black"/>
<path fill-rule="evenodd" clip-rule="evenodd" d="M167.298 98.6525C174.683 98.6525 180.67 92.6657 180.67 85.2806C180.67 77.8955 174.683 71.9087 167.298 71.9087C159.913 71.9087 153.926 77.8955 153.926 85.2806C153.926 92.6657 159.913 98.6525 167.298 98.6525ZM167.298 104.055C177.667 104.055 186.073 95.6496 186.073 85.2806C186.073 74.9116 177.667 66.5059 167.298 66.5059C156.929 66.5059 148.523 74.9116 148.523 85.2806C148.523 95.6496 156.929 104.055 167.298 104.055Z" fill="black"/>
<path fill-rule="evenodd" clip-rule="evenodd" d="M185.392 95.2305L193.994 103.991L186.633 111.301L178.031 102.54L185.392 95.2305Z" fill="black"/>
<path fill-rule="evenodd" clip-rule="evenodd" d="M176.532 82.5765C175.737 83.1996 174.733 83.566 173.644 83.5528C171.108 83.5222 169.076 81.4411 169.107 78.9046C169.12 77.8548 169.483 76.8915 170.086 76.1251C169.247 75.8741 168.36 75.7344 167.441 75.7233C162.136 75.6593 157.784 79.908 157.72 85.2129C157.656 90.5179 161.905 94.8703 167.21 94.9344C172.515 94.9984 176.867 90.7497 176.931 85.4448C176.943 84.4477 176.803 83.4842 176.532 82.5765Z" fill="black"/>
<path d="M199.133 207.532C198.474 207.532 197.873 207.474 197.448 207.415V205.145C197.814 205.262 198.356 205.32 198.928 205.32C200.759 205.32 201.477 204.632 202.019 203.196L202.868 200.955L196.555 185.164H199.367L202.736 193.924C203.176 195.125 204.055 197.703 204.143 198.025C204.26 197.615 205.139 195.389 205.549 194.188L208.64 185.164H211.438L204.143 204.061C203.278 206.302 202.224 207.532 199.133 207.532Z" fill="black"/>
<path d="M187.719 201V185.165H190.238V188.549H190.297C190.897 185.854 192.216 184.857 194.018 184.857C194.56 184.857 195.043 184.945 195.277 185.004V187.597C194.955 187.494 194.442 187.436 193.959 187.436C191.264 187.436 190.355 189.457 190.355 192.753V201H187.719Z" fill="black"/>
<path d="M177.984 201.293C173.194 201.293 170.016 198.422 170.016 193.075C170.016 187.553 173.604 184.857 177.691 184.857C182.818 184.857 184.591 188.974 184.591 192.504C184.591 192.929 184.576 193.354 184.547 193.734H172.784C172.975 197.162 174.718 199.052 177.984 199.052C179.918 199.052 181.236 198.51 182.394 197.162L184.049 198.803C182.496 200.546 180.753 201.293 177.984 201.293ZM172.857 191.698H181.91C181.632 188.593 180.021 187.113 177.574 187.113C175.143 187.113 173.282 188.622 172.857 191.698Z" fill="black"/>
<path d="M160.181 200.999L154.57 185.164H157.397L160.781 195.447C161.074 196.326 161.558 197.85 161.807 198.685C162.041 197.85 162.583 196.326 162.876 195.447L166.392 185.164H169.204L163.418 200.999H160.181Z" fill="black"/>
<path d="M146.014 201.293C141.399 201.293 138.25 197.938 138.25 193.075C138.25 188.227 141.399 184.857 146.014 184.857C150.643 184.857 153.792 188.227 153.792 193.075C153.792 197.938 150.643 201.293 146.014 201.293ZM141.004 193.075C141.004 197.045 143.201 199.052 146.014 199.052C148.841 199.052 151.023 197.045 151.023 193.075C151.023 189.12 148.841 187.113 146.014 187.113C143.201 187.113 141.004 189.12 141.004 193.075Z" fill="black"/>
<path d="M130.844 201.293C126.522 201.293 123.227 198.422 123.227 193.075C123.227 187.743 126.522 184.857 130.844 184.857C133.671 184.857 135.78 186.059 137.025 187.875L135.165 189.369C134.198 187.963 132.851 187.113 130.902 187.113C128.017 187.113 125.98 189.12 125.98 193.075C125.98 197.045 128.017 199.052 130.902 199.052C132.851 199.052 134.198 198.202 135.165 196.796L137.025 198.29C135.78 200.106 133.671 201.293 130.844 201.293Z" fill="black"/>
<path d="M115.156 201.293C112.769 201.293 110.513 200.648 108.828 198.803L110.527 197.118C111.948 198.656 113.369 199.11 115.156 199.11C116.87 199.11 118.555 198.568 118.555 196.825C118.555 194.994 116.929 194.525 114.556 193.866C112.183 193.207 109.546 192.299 109.546 189.267C109.546 186.396 111.802 184.857 115.127 184.857C117.251 184.857 119.331 185.561 120.693 186.952L119.009 188.637C117.837 187.465 116.46 187.084 115.127 187.084C113.325 187.084 112.095 187.714 112.095 189.149C112.095 190.614 113.75 191.098 116.123 191.757C118.364 192.387 121.133 193.207 121.133 196.62C121.133 199.594 118.672 201.293 115.156 201.293Z" fill="black"/>
<path d="M103.463 201V185.165H106.1V201H103.463ZM103.023 180.448C103.023 179.423 103.771 178.676 104.781 178.676C105.807 178.676 106.554 179.423 106.554 180.448C106.554 181.474 105.807 182.221 104.781 182.221C103.771 182.221 103.023 181.474 103.023 180.448Z" fill="black"/>
<path d="M83 200.999V180.359H90.2656C96.0225 180.359 100.212 183.963 100.212 190.672C100.212 197.396 96.0225 200.999 90.2656 200.999H83ZM85.7832 198.45H90.1338C94.2793 198.45 97.3701 196.194 97.3701 190.672C97.3701 185.164 94.2793 182.908 90.1338 182.908H85.7832V198.45Z" fill="black"/>
<path d="M200.672 171.293C195.882 171.293 192.703 168.422 192.703 163.075C192.703 157.553 196.292 154.857 200.379 154.857C205.506 154.857 207.278 158.974 207.278 162.504C207.278 162.929 207.264 163.354 207.234 163.734H195.472C195.662 167.162 197.405 169.052 200.672 169.052C202.605 169.052 203.924 168.51 205.081 167.162L206.736 168.803C205.184 170.546 203.44 171.293 200.672 171.293ZM195.545 161.698H204.598C204.319 158.593 202.708 157.113 200.262 157.113C197.83 157.113 195.97 158.622 195.545 161.698Z" fill="black"/>
<path d="M185.289 171.293C180.968 171.293 177.672 168.422 177.672 163.075C177.672 157.743 180.968 154.857 185.289 154.857C188.116 154.857 190.226 156.059 191.471 157.875L189.61 159.369C188.644 157.963 187.296 157.113 185.348 157.113C182.462 157.113 180.426 159.12 180.426 163.075C180.426 167.045 182.462 169.052 185.348 169.052C187.296 169.052 188.644 168.202 189.61 166.796L191.471 168.29C190.226 170.106 188.116 171.293 185.289 171.293Z" fill="black"/>
<path d="M169.188 171V155.165H171.707V158.549H171.766C172.366 155.854 173.685 154.857 175.486 154.857C176.028 154.857 176.512 154.945 176.746 155.004V157.597C176.424 157.494 175.911 157.436 175.428 157.436C172.732 157.436 171.824 159.457 171.824 162.753V171H169.188Z" fill="black"/>
<path d="M157.389 171.292C154.034 171.292 152.438 169.051 152.438 165.726V155.164H155.074V165.213C155.074 167.513 155.924 168.963 158.355 168.963C160.846 168.963 162.457 167.308 162.457 164.334V155.164H165.094V170.999H162.574V167.703H162.516C161.886 169.344 160.567 171.292 157.389 171.292Z" fill="black"/>
<path d="M141.67 171.293C137.056 171.293 133.906 167.938 133.906 163.075C133.906 158.227 137.056 154.857 141.67 154.857C146.299 154.857 149.448 158.227 149.448 163.075C149.448 167.938 146.299 171.293 141.67 171.293ZM136.66 163.075C136.66 167.045 138.857 169.052 141.67 169.052C144.497 169.052 146.68 167.045 146.68 163.075C146.68 159.12 144.497 157.113 141.67 157.113C138.857 157.113 136.66 159.12 136.66 163.075Z" fill="black"/>
<path d="M125.828 171.293C123.44 171.293 121.185 170.648 119.5 168.803L121.199 167.118C122.62 168.656 124.041 169.11 125.828 169.11C127.542 169.11 129.227 168.568 129.227 166.825C129.227 164.994 127.601 164.525 125.228 163.866C122.854 163.207 120.218 162.299 120.218 159.267C120.218 156.396 122.474 154.857 125.799 154.857C127.923 154.857 130.003 155.561 131.365 156.952L129.681 158.637C128.509 157.465 127.132 157.084 125.799 157.084C123.997 157.084 122.767 157.714 122.767 159.149C122.767 160.614 124.422 161.098 126.795 161.757C129.036 162.387 131.805 163.207 131.805 166.62C131.805 169.594 129.344 171.293 125.828 171.293Z" fill="black"/>
<path d="M111.141 171.293C106.351 171.293 103.172 168.422 103.172 163.075C103.172 157.553 106.761 154.857 110.848 154.857C115.975 154.857 117.747 158.974 117.747 162.504C117.747 162.929 117.732 163.354 117.703 163.734H105.94C106.131 167.162 107.874 169.052 111.141 169.052C113.074 169.052 114.393 168.51 115.55 167.162L117.205 168.803C115.652 170.546 113.909 171.293 111.141 171.293ZM106.014 161.698H115.066C114.788 158.593 113.177 157.113 110.73 157.113C108.299 157.113 106.438 158.622 106.014 161.698Z" fill="black"/>
<path d="M86.0625 170.999V150.359H93.9873C98.6602 150.359 101.238 152.645 101.238 156.453C101.238 159.031 99.832 161.653 96.1699 162.371L102.088 170.999H98.8359L93.4453 162.723H88.8457V170.999H86.0625ZM88.8457 160.232H93.7969C97.0488 160.232 98.4551 158.577 98.4551 156.482C98.4551 154.08 96.6826 152.908 93.6797 152.908H88.8457V160.232Z" fill="black"/>
<path d="M168.633 141V125.165H171.152V128.461H171.211C171.841 126.806 173.174 124.857 176.353 124.857C179.707 124.857 181.304 127.113 181.304 130.438V141H178.652V130.951C178.652 128.637 177.817 127.201 175.386 127.201C172.896 127.201 171.27 128.856 171.27 131.815V141H168.633Z" fill="black"/>
<path d="M158.891 141.293C154.101 141.293 150.922 138.422 150.922 133.075C150.922 127.553 154.511 124.857 158.598 124.857C163.725 124.857 165.497 128.974 165.497 132.504C165.497 132.929 165.482 133.354 165.453 133.734H153.69C153.881 137.162 155.624 139.052 158.891 139.052C160.824 139.052 162.143 138.51 163.3 137.162L164.955 138.803C163.402 140.546 161.659 141.293 158.891 141.293ZM153.764 131.698H162.816C162.538 128.593 160.927 127.113 158.48 127.113C156.049 127.113 154.188 128.622 153.764 131.698Z" fill="black"/>
<path d="M133.328 147.24V125.165H135.848V128.52H135.877C136.639 126.659 138.191 124.857 141.795 124.857C145.999 124.857 148.753 128.227 148.753 133.075C148.753 137.938 146.087 141.293 141.883 141.293C138.704 141.293 136.844 139.682 136.038 137.821H135.965V147.24H133.328ZM135.965 133.075C135.965 137.045 138.162 139.052 140.989 139.052C143.802 139.052 145.999 137.045 145.999 133.075C145.999 129.12 143.802 127.113 140.989 127.113C138.162 127.113 135.965 129.12 135.965 133.075Z" fill="black"/>
<path d="M120.016 141.293C114.083 141.293 109.938 137.162 109.938 130.673C109.938 124.198 114.083 120.053 120.016 120.053C125.963 120.053 130.094 124.198 130.094 130.673C130.094 137.162 125.963 141.293 120.016 141.293ZM112.779 130.673C112.779 135.653 115.577 138.715 120.016 138.715C124.454 138.715 127.252 135.653 127.252 130.673C127.252 125.707 124.454 122.646 120.016 122.646C115.577 122.646 112.779 125.707 112.779 130.673Z" fill="black"/>
</svg>
